<svg xmlns="http://www.w3.org/2000/svg" xmlns:xlink="http://www.w3.org/1999/xlink" width="560" height="420" viewBox="0 0 560 420"><title>Gnuplot</title><desc>Produced by GNUPLOT 5.4 patchlevel 0</desc><g id="gnuplot_canvas"><rect width="560" height="420" x="0" y="0" fill="none"/><defs><circle id="gpDot" r=".5" stroke="currentColor" stroke-width=".5"/><path id="gpPt0" stroke="currentColor" stroke-width=".267" d="M-1,0 h2 M0,-1 v2"/><path id="gpPt1" stroke="currentColor" stroke-width=".267" d="M-1,-1 L1,1 M1,-1 L-1,1"/><path id="gpPt2" stroke="currentColor" stroke-width=".267" d="M-1,0 L1,0 M0,-1 L0,1 M-1,-1 L1,1 M-1,1 L1,-1"/><rect id="gpPt3" width="2" height="2" x="-1" y="-1" stroke="currentColor" stroke-width=".267"/><rect id="gpPt4" width="2" height="2" x="-1" y="-1" fill="currentColor" stroke="currentColor" stroke-width=".267"/><circle id="gpPt5" cx="0" cy="0" r="1" stroke="currentColor" stroke-width=".267"/><use id="gpPt6" fill="currentColor" stroke="none" xlink:href="#gpPt5"/><path id="gpPt7" stroke="currentColor" stroke-width=".267" d="M0,-1.33 L-1.33,0.67 L1.33,0.67 z"/><use id="gpPt8" fill="currentColor" stroke="none" xlink:href="#gpPt7"/><use id="gpPt9" stroke="currentColor" transform="rotate(180)" xlink:href="#gpPt7"/><use id="gpPt10" fill="currentColor" stroke="none" xlink:href="#gpPt9"/><use id="gpPt11" stroke="currentColor" transform="rotate(45)" xlink:href="#gpPt3"/><use id="gpPt12" fill="currentColor" stroke="none" xlink:href="#gpPt11"/><path id="gpPt13" stroke="currentColor" stroke-width=".267" d="M0,1.330 L1.265,0.411 L0.782,-1.067 L-0.782,-1.076 L-1.265,0.411 z"/><use id="gpPt14" fill="currentColor" stroke="none" xlink:href="#gpPt13"/><filter id="textbox" width="1" height="1" x="0" y="0" filterUnits="objectBoundingBox"><feFlood flood-color="#fff" flood-opacity="1" result="bgnd"/><feComposite in="SourceGraphic" in2="bgnd" operator="atop"/></filter><filter id="greybox" width="1" height="1" x="0" y="0" filterUnits="objectBoundingBox"><feFlood flood-color="#d3d3d3" flood-opacity="1" result="grey"/><feComposite in="SourceGraphic" in2="grey" operator="atop"/></filter></defs><g fill="none" stroke="currentColor" stroke-linecap="butt" stroke-linejoin="miter" stroke-width=".5" color="#000"><path stroke="#000" d="M70.7,298.1 L318.6,223.1"/></g><g fill="none" stroke="currentColor" stroke-linecap="butt" stroke-linejoin="miter" stroke-width=".5" color="#000"><path stroke="#000" d="M508.8,320.9 L318.6,223.1"/></g><g fill="none" stroke="currentColor" stroke-linecap="butt" stroke-linejoin="miter" stroke-width=".5" color="#000"><path stroke="#000" d="M70.7,298.1 L70.7,84.6"/></g><g fill="none" stroke="currentColor" stroke-linecap="butt" stroke-linejoin="miter" stroke-width=".5" color="#000"><path stroke="#000" d="M318.6,223.1 L318.6,9.6"/></g><g fill="none" stroke="currentColor" stroke-linecap="butt" stroke-linejoin="miter" stroke-width=".5" color="#000"><path stroke="#000" d="M508.8,320.9 L508.8,107.4"/></g><g fill="none" stroke="currentColor" stroke-linecap="butt" stroke-linejoin="miter" stroke-width=".5" color="#000"><path stroke="#000" d="M70.7,84.6 L318.6,9.6"/></g><g fill="none" stroke="currentColor" stroke-linecap="butt" stroke-linejoin="miter" stroke-width=".5" color="#000"><path stroke="#000" d="M508.8,107.4 L318.6,9.6"/></g><g fill="none" stroke="currentColor" stroke-linecap="butt" stroke-linejoin="miter" stroke-width=".5" color="#000"><path stroke="#262626" d="M260.9,395.9 L70.7,298.1" class="gridline" opacity=".15"/></g><g fill="none" stroke="currentColor" stroke-linecap="butt" stroke-linejoin="miter" stroke-width=".5" color="#000"><path stroke="#262626" d="M70.7,298.1 L70.7,84.6" class="gridline" opacity=".15"/></g><g fill="none" stroke="currentColor" stroke-linecap="butt" stroke-linejoin="miter" stroke-width=".5" color="#000"><path stroke="#000" d="M260.9,395.9 L257.1,393.9"/><g fill="#262626" stroke="none" font-family="Helvetica" font-size="10" text-anchor="middle"><text transform="translate(265.8,404.4)"><tspan font-family="Helvetica">-1</tspan></text></g></g><g fill="none" stroke="currentColor" stroke-linecap="butt" stroke-linejoin="miter" stroke-width=".5" color="#000"><path stroke="#262626" d="M285.7,388.4 L95.5,290.6" class="gridline" opacity=".15"/></g><g fill="none" stroke="currentColor" stroke-linecap="butt" stroke-linejoin="miter" stroke-width=".5" color="#000"><path stroke="#262626" d="M95.5,290.6 L95.5,77.1" class="gridline" opacity=".15"/></g><g fill="none" stroke="currentColor" stroke-linecap="butt" stroke-linejoin="miter" stroke-width=".5" color="#000"><path stroke="#000" d="M285.7,388.4 L281.8,386.4"/><g fill="#262626" stroke="none" font-family="Helvetica" font-size="10" text-anchor="middle"><text transform="translate(290.5,396.9)"><tspan font-family="Helvetica">-0.8</tspan></text></g></g><g fill="none" stroke="currentColor" stroke-linecap="butt" stroke-linejoin="miter" stroke-width=".5" color="#000"><path stroke="#262626" d="M310.5,380.9 L120.3,283.1" class="gridline" opacity=".15"/></g><g fill="none" stroke="currentColor" stroke-linecap="butt" stroke-linejoin="miter" stroke-width=".5" color="#000"><path stroke="#262626" d="M120.3,283.1 L120.3,69.6" class="gridline" opacity=".15"/></g><g fill="none" stroke="currentColor" stroke-linecap="butt" stroke-linejoin="miter" stroke-width=".5" color="#000"><path stroke="#000" d="M310.5,380.9 L306.6,378.9"/><g fill="#262626" stroke="none" font-family="Helvetica" font-size="10" text-anchor="middle"><text transform="translate(315.3,389.4)"><tspan font-family="Helvetica">-0.6</tspan></text></g></g><g fill="none" stroke="currentColor" stroke-linecap="butt" stroke-linejoin="miter" stroke-width=".5" color="#000"><path stroke="#262626" d="M335.3,373.4 L145.1,275.6" class="gridline" opacity=".15"/></g><g fill="none" stroke="currentColor" stroke-linecap="butt" stroke-linejoin="miter" stroke-width=".5" color="#000"><path stroke="#262626" d="M145.1,275.6 L145.1,62.1" class="gridline" opacity=".15"/></g><g fill="none" stroke="currentColor" stroke-linecap="butt" stroke-linejoin="miter" stroke-width=".5" color="#000"><path stroke="#000" d="M335.3,373.4 L331.4,371.4"/><g fill="#262626" stroke="none" font-family="Helvetica" font-size="10" text-anchor="middle"><text transform="translate(340.1,381.9)"><tspan font-family="Helvetica">-0.4</tspan></text></g></g><g fill="none" stroke="currentColor" stroke-linecap="butt" stroke-linejoin="miter" stroke-width=".5" color="#000"><path stroke="#262626" d="M360.1,365.9 L169.9,268.1" class="gridline" opacity=".15"/></g><g fill="none" stroke="currentColor" stroke-linecap="butt" stroke-linejoin="miter" stroke-width=".5" color="#000"><path stroke="#262626" d="M169.9,268.1 L169.9,54.6" class="gridline" opacity=".15"/></g><g fill="none" stroke="currentColor" stroke-linecap="butt" stroke-linejoin="miter" stroke-width=".5" color="#000"><path stroke="#000" d="M360.1,365.9 L356.2,363.9"/><g fill="#262626" stroke="none" font-family="Helvetica" font-size="10" text-anchor="middle"><text transform="translate(364.9,374.4)"><tspan font-family="Helvetica">-0.2</tspan></text></g></g><g fill="none" stroke="currentColor" stroke-linecap="butt" stroke-linejoin="miter" stroke-width=".5" color="#000"><path stroke="#262626" d="M384.8,358.4 L194.7,260.6" class="gridline" opacity=".15"/></g><g fill="none" stroke="currentColor" stroke-linecap="butt" stroke-linejoin="miter" stroke-width=".5" color="#000"><path stroke="#262626" d="M194.7,260.6 L194.7,47.1" class="gridline" opacity=".15"/></g><g fill="none" stroke="currentColor" stroke-linecap="butt" stroke-linejoin="miter" stroke-width=".5" color="#000"><path stroke="#000" d="M384.8,358.4 L381.0,356.4"/><g fill="#262626" stroke="none" font-family="Helvetica" font-size="10" text-anchor="middle"><text transform="translate(389.6,366.9)"><tspan font-family="Helvetica">0</tspan></text></g></g><g fill="none" stroke="currentColor" stroke-linecap="butt" stroke-linejoin="miter" stroke-width=".5" color="#000"><path stroke="#262626" d="M409.6,350.9 L219.4,253.1" class="gridline" opacity=".15"/></g><g fill="none" stroke="currentColor" stroke-linecap="butt" stroke-linejoin="miter" stroke-width=".5" color="#000"><path stroke="#262626" d="M219.4,253.1 L219.4,39.6" class="gridline" opacity=".15"/></g><g fill="none" stroke="currentColor" stroke-linecap="butt" stroke-linejoin="miter" stroke-width=".5" color="#000"><path stroke="#000" d="M409.6,350.9 L405.8,348.9"/><g fill="#262626" stroke="none" font-family="Helvetica" font-size="10" text-anchor="middle"><text transform="translate(414.4,359.4)"><tspan font-family="Helvetica">0.2</tspan></text></g></g><g fill="none" stroke="currentColor" stroke-linecap="butt" stroke-linejoin="miter" stroke-width=".5" color="#000"><path stroke="#262626" d="M434.4,343.4 L244.2,245.6" class="gridline" opacity=".15"/></g><g fill="none" stroke="currentColor" stroke-linecap="butt" stroke-linejoin="miter" stroke-width=".5" color="#000"><path stroke="#262626" d="M244.2,245.6 L244.2,32.1" class="gridline" opacity=".15"/></g><g fill="none" stroke="currentColor" stroke-linecap="butt" stroke-linejoin="miter" stroke-width=".5" color="#000"><path stroke="#000" d="M434.4,343.4 L430.6,341.4"/><g fill="#262626" stroke="none" font-family="Helvetica" font-size="10" text-anchor="middle"><text transform="translate(439.2,351.9)"><tspan font-family="Helvetica">0.4</tspan></text></g></g><g fill="none" stroke="currentColor" stroke-linecap="butt" stroke-linejoin="miter" stroke-width=".5" color="#000"><path stroke="#262626" d="M459.2,335.9 L269.0,238.1" class="gridline" opacity=".15"/></g><g fill="none" stroke="currentColor" stroke-linecap="butt" stroke-linejoin="miter" stroke-width=".5" color="#000"><path stroke="#262626" d="M269.0,238.1 L269.0,24.6" class="gridline" opacity=".15"/></g><g fill="none" stroke="currentColor" stroke-linecap="butt" stroke-linejoin="miter" stroke-width=".5" color="#000"><path stroke="#000" d="M459.2,335.9 L455.3,333.9"/><g fill="#262626" stroke="none" font-family="Helvetica" font-size="10" text-anchor="middle"><text transform="translate(464.0,344.4)"><tspan font-family="Helvetica">0.6</tspan></text></g></g><g fill="none" stroke="currentColor" stroke-linecap="butt" stroke-linejoin="miter" stroke-width=".5" color="#000"><path stroke="#262626" d="M484.0,328.4 L293.8,230.6" class="gridline" opacity=".15"/></g><g fill="none" stroke="currentColor" stroke-linecap="butt" stroke-linejoin="miter" stroke-width=".5" color="#000"><path stroke="#262626" d="M293.8,230.6 L293.8,17.1" class="gridline" opacity=".15"/></g><g fill="none" stroke="currentColor" stroke-linecap="butt" stroke-linejoin="miter" stroke-width=".5" color="#000"><path stroke="#000" d="M484.0,328.4 L480.1,326.4"/><g fill="#262626" stroke="none" font-family="Helvetica" font-size="10" text-anchor="middle"><text transform="translate(488.8,336.9)"><tspan font-family="Helvetica">0.8</tspan></text></g></g><g fill="none" stroke="currentColor" stroke-linecap="butt" stroke-linejoin="miter" stroke-width=".5" color="#000"><path stroke="#262626" d="M508.8,320.9 L318.6,223.1" class="gridline" opacity=".15"/></g><g fill="none" stroke="currentColor" stroke-linecap="butt" stroke-linejoin="miter" stroke-width=".5" color="#000"><path stroke="#262626" d="M318.6,223.1 L318.6,9.6" class="gridline" opacity=".15"/></g><g fill="none" stroke="currentColor" stroke-linecap="butt" stroke-linejoin="miter" stroke-width=".5" color="#000"><path stroke="#000" d="M508.8,320.9 L504.9,318.9"/><g fill="#262626" stroke="none" font-family="Helvetica" font-size="10" text-anchor="middle"><text transform="translate(513.6,329.3)"><tspan font-family="Helvetica">1</tspan></text></g></g><g fill="none" stroke="currentColor" stroke-linecap="butt" stroke-linejoin="miter" stroke-width=".5" color="#000"><path stroke="#262626" d="M260.9,395.9 L508.8,320.9" class="gridline" opacity=".15"/></g><g fill="none" stroke="currentColor" stroke-linecap="butt" stroke-linejoin="miter" stroke-width=".5" color="#000"><path stroke="#262626" d="M508.8,320.9 L508.8,107.4" class="gridline" opacity=".15"/></g><g fill="none" stroke="currentColor" stroke-linecap="butt" stroke-linejoin="miter" stroke-width=".5" color="#000"><path stroke="#000" d="M260.9,395.9 L265.9,394.4"/><g fill="#262626" stroke="none" font-family="Helvetica" font-size="10" text-anchor="middle"><text transform="translate(254.8,403.1)"><tspan font-family="Helvetica">-1</tspan></text></g></g><g fill="none" stroke="currentColor" stroke-linecap="butt" stroke-linejoin="miter" stroke-width=".5" color="#000"><path stroke="#262626" d="M241.9,386.1 L489.7,311.1" class="gridline" opacity=".15"/></g><g fill="none" stroke="currentColor" stroke-linecap="butt" stroke-linejoin="miter" stroke-width=".5" color="#000"><path stroke="#262626" d="M489.7,311.1 L489.7,97.6" class="gridline" opacity=".15"/></g><g fill="none" stroke="currentColor" stroke-linecap="butt" stroke-linejoin="miter" stroke-width=".5" color="#000"><path stroke="#000" d="M241.9,386.1 L246.9,384.6"/><g fill="#262626" stroke="none" font-family="Helvetica" font-size="10" text-anchor="middle"><text transform="translate(235.7,393.4)"><tspan font-family="Helvetica">-0.8</tspan></text></g></g><g fill="none" stroke="currentColor" stroke-linecap="butt" stroke-linejoin="miter" stroke-width=".5" color="#000"><path stroke="#262626" d="M222.9,376.3 L470.7,301.3" class="gridline" opacity=".15"/></g><g fill="none" stroke="currentColor" stroke-linecap="butt" stroke-linejoin="miter" stroke-width=".5" color="#000"><path stroke="#262626" d="M470.7,301.3 L470.7,87.8" class="gridline" opacity=".15"/></g><g fill="none" stroke="currentColor" stroke-linecap="butt" stroke-linejoin="miter" stroke-width=".5" color="#000"><path stroke="#000" d="M222.9,376.3 L227.9,374.8"/><g fill="#262626" stroke="none" font-family="Helvetica" font-size="10" text-anchor="middle"><text transform="translate(216.7,383.6)"><tspan font-family="Helvetica">-0.6</tspan></text></g></g><g fill="none" stroke="currentColor" stroke-linecap="butt" stroke-linejoin="miter" stroke-width=".5" color="#000"><path stroke="#262626" d="M203.9,366.6 L451.7,291.5" class="gridline" opacity=".15"/></g><g fill="none" stroke="currentColor" stroke-linecap="butt" stroke-linejoin="miter" stroke-width=".5" color="#000"><path stroke="#262626" d="M451.7,291.5 L451.7,78.1" class="gridline" opacity=".15"/></g><g fill="none" stroke="currentColor" stroke-linecap="butt" stroke-linejoin="miter" stroke-width=".5" color="#000"><path stroke="#000" d="M203.9,366.6 L208.9,365.0"/><g fill="#262626" stroke="none" font-family="Helvetica" font-size="10" text-anchor="middle"><text transform="translate(197.7,373.8)"><tspan font-family="Helvetica">-0.4</tspan></text></g></g><g fill="none" stroke="currentColor" stroke-linecap="butt" stroke-linejoin="miter" stroke-width=".5" color="#000"><path stroke="#262626" d="M184.8,356.8 L432.7,281.8" class="gridline" opacity=".15"/></g><g fill="none" stroke="currentColor" stroke-linecap="butt" stroke-linejoin="miter" stroke-width=".5" color="#000"><path stroke="#262626" d="M432.7,281.8 L432.7,68.3" class="gridline" opacity=".15"/></g><g fill="none" stroke="currentColor" stroke-linecap="butt" stroke-linejoin="miter" stroke-width=".5" color="#000"><path stroke="#000" d="M184.8,356.8 L189.9,355.3"/><g fill="#262626" stroke="none" font-family="Helvetica" font-size="10" text-anchor="middle"><text transform="translate(178.7,364.0)"><tspan font-family="Helvetica">-0.2</tspan></text></g></g><g fill="none" stroke="currentColor" stroke-linecap="butt" stroke-linejoin="miter" stroke-width=".5" color="#000"><path stroke="#262626" d="M165.8,347.0 L413.7,272.0" class="gridline" opacity=".15"/></g><g fill="none" stroke="currentColor" stroke-linecap="butt" stroke-linejoin="miter" stroke-width=".5" color="#000"><path stroke="#262626" d="M413.7,272.0 L413.7,58.5" class="gridline" opacity=".15"/></g><g fill="none" stroke="currentColor" stroke-linecap="butt" stroke-linejoin="miter" stroke-width=".5" color="#000"><path stroke="#000" d="M165.8,347.0 L170.9,345.5"/><g fill="#262626" stroke="none" font-family="Helvetica" font-size="10" text-anchor="middle"><text transform="translate(159.7,354.3)"><tspan font-family="Helvetica">0</tspan></text></g></g><g fill="none" stroke="currentColor" stroke-linecap="butt" stroke-linejoin="miter" stroke-width=".5" color="#000"><path stroke="#262626" d="M146.8,337.2 L394.7,262.2" class="gridline" opacity=".15"/></g><g fill="none" stroke="currentColor" stroke-linecap="butt" stroke-linejoin="miter" stroke-width=".5" color="#000"><path stroke="#262626" d="M394.7,262.2 L394.7,48.7" class="gridline" opacity=".15"/></g><g fill="none" stroke="currentColor" stroke-linecap="butt" stroke-linejoin="miter" stroke-width=".5" color="#000"><path stroke="#000" d="M146.8,337.2 L151.8,335.7"/><g fill="#262626" stroke="none" font-family="Helvetica" font-size="10" text-anchor="middle"><text transform="translate(140.7,344.5)"><tspan font-family="Helvetica">0.2</tspan></text></g></g><g fill="none" stroke="currentColor" stroke-linecap="butt" stroke-linejoin="miter" stroke-width=".5" color="#000"><path stroke="#262626" d="M127.8,327.4 L375.6,252.4" class="gridline" opacity=".15"/></g><g fill="none" stroke="currentColor" stroke-linecap="butt" stroke-linejoin="miter" stroke-width=".5" color="#000"><path stroke="#262626" d="M375.6,252.4 L375.6,38.9" class="gridline" opacity=".15"/></g><g fill="none" stroke="currentColor" stroke-linecap="butt" stroke-linejoin="miter" stroke-width=".5" color="#000"><path stroke="#000" d="M127.8,327.4 L132.8,325.9"/><g fill="#262626" stroke="none" font-family="Helvetica" font-size="10" text-anchor="middle"><text transform="translate(121.6,334.7)"><tspan font-family="Helvetica">0.4</tspan></text></g></g><g fill="none" stroke="currentColor" stroke-linecap="butt" stroke-linejoin="miter" stroke-width=".5" color="#000"><path stroke="#262626" d="M108.8,317.7 L356.6,242.6" class="gridline" opacity=".15"/></g><g fill="none" stroke="currentColor" stroke-linecap="butt" stroke-linejoin="miter" stroke-width=".5" color="#000"><path stroke="#262626" d="M356.6,242.6 L356.6,29.2" class="gridline" opacity=".15"/></g><g fill="none" stroke="currentColor" stroke-linecap="butt" stroke-linejoin="miter" stroke-width=".5" color="#000"><path stroke="#000" d="M108.8,317.7 L113.8,316.1"/><g fill="#262626" stroke="none" font-family="Helvetica" font-size="10" text-anchor="middle"><text transform="translate(102.6,324.9)"><tspan font-family="Helvetica">0.6</tspan></text></g></g><g fill="none" stroke="currentColor" stroke-linecap="butt" stroke-linejoin="miter" stroke-width=".5" color="#000"><path stroke="#262626" d="M89.8,307.9 L337.6,232.9" class="gridline" opacity=".15"/></g><g fill="none" stroke="currentColor" stroke-linecap="butt" stroke-linejoin="miter" stroke-width=".5" color="#000"><path stroke="#262626" d="M337.6,232.9 L337.6,19.4" class="gridline" opacity=".15"/></g><g fill="none" stroke="currentColor" stroke-linecap="butt" stroke-linejoin="miter" stroke-width=".5" color="#000"><path stroke="#000" d="M89.8,307.9 L94.8,306.4"/><g fill="#262626" stroke="none" font-family="Helvetica" font-size="10" text-anchor="middle"><text transform="translate(83.6,315.1)"><tspan font-family="Helvetica">0.8</tspan></text></g></g><g fill="none" stroke="currentColor" stroke-linecap="butt" stroke-linejoin="miter" stroke-width=".5" color="#000"><path stroke="#262626" d="M70.7,298.1 L318.6,223.1" class="gridline" opacity=".15"/></g><g fill="none" stroke="currentColor" stroke-linecap="butt" stroke-linejoin="miter" stroke-width=".5" color="#000"><path stroke="#262626" d="M318.6,223.1 L318.6,9.6" class="gridline" opacity=".15"/></g><g fill="none" stroke="currentColor" stroke-linecap="butt" stroke-linejoin="miter" stroke-width=".5" color="#000"><path stroke="#000" d="M70.7,298.1 L75.8,296.6"/><g fill="#262626" stroke="none" font-family="Helvetica" font-size="10" text-anchor="middle"><text transform="translate(64.6,305.4)"><tspan font-family="Helvetica">1</tspan></text></g></g><g fill="none" stroke="currentColor" stroke-linecap="butt" stroke-linejoin="miter" stroke-width=".5" color="#000"><path stroke="#262626" d="M70.7,298.1 L318.6,223.1" class="gridline" opacity=".15"/></g><g fill="none" stroke="currentColor" stroke-linecap="butt" stroke-linejoin="miter" stroke-width=".5" color="#000"><path stroke="#262626" d="M318.6,223.1 L508.8,320.9" class="gridline" opacity=".15"/></g><g fill="none" stroke="currentColor" stroke-linecap="butt" stroke-linejoin="miter" stroke-width=".5" color="#000"><path stroke="#000" d="M70.7,298.1 L76.3,298.1"/><g fill="#262626" stroke="none" font-family="Helvetica" font-size="10" text-anchor="end"><text transform="translate(55.8,301.3)"><tspan font-family="Helvetica">0</tspan></text></g></g><g fill="none" stroke="currentColor" stroke-linecap="butt" stroke-linejoin="miter" stroke-width=".5" color="#000"><path stroke="#262626" d="M70.7,267.6 L318.6,192.6" class="gridline" opacity=".15"/></g><g fill="none" stroke="currentColor" stroke-linecap="butt" stroke-linejoin="miter" stroke-width=".5" color="#000"><path stroke="#262626" d="M318.6,192.6 L508.8,290.4" class="gridline" opacity=".15"/></g><g fill="none" stroke="currentColor" stroke-linecap="butt" stroke-linejoin="miter" stroke-width=".5" color="#000"><path stroke="#000" d="M70.7,267.6 L76.3,267.6"/><g fill="#262626" stroke="none" font-family="Helvetica" font-size="10" text-anchor="end"><text transform="translate(55.8,270.8)"><tspan font-family="Helvetica">5</tspan></text></g></g><g fill="none" stroke="currentColor" stroke-linecap="butt" stroke-linejoin="miter" stroke-width=".5" color="#000"><path stroke="#262626" d="M70.7,237.1 L318.6,162.1" class="gridline" opacity=".15"/></g><g fill="none" stroke="currentColor" stroke-linecap="butt" stroke-linejoin="miter" stroke-width=".5" color="#000"><path stroke="#262626" d="M318.6,162.1 L508.8,259.9" class="gridline" opacity=".15"/></g><g fill="none" stroke="currentColor" stroke-linecap="butt" stroke-linejoin="miter" stroke-width=".5" color="#000"><path stroke="#000" d="M70.7,237.1 L76.3,237.1"/><g fill="#262626" stroke="none" font-family="Helvetica" font-size="10" text-anchor="end"><text transform="translate(55.8,240.3)"><tspan font-family="Helvetica">10</tspan></text></g></g><g fill="none" stroke="currentColor" stroke-linecap="butt" stroke-linejoin="miter" stroke-width=".5" color="#000"><path stroke="#262626" d="M70.7,206.6 L318.6,131.6" class="gridline" opacity=".15"/></g><g fill="none" stroke="currentColor" stroke-linecap="butt" stroke-linejoin="miter" stroke-width=".5" color="#000"><path stroke="#262626" d="M318.6,131.6 L508.8,229.4" class="gridline" opacity=".15"/></g><g fill="none" stroke="currentColor" stroke-linecap="butt" stroke-linejoin="miter" stroke-width=".5" color="#000"><path stroke="#000" d="M70.7,206.6 L76.3,206.6"/><g fill="#262626" stroke="none" font-family="Helvetica" font-size="10" text-anchor="end"><text transform="translate(55.8,209.8)"><tspan font-family="Helvetica">15</tspan></text></g></g><g fill="none" stroke="currentColor" stroke-linecap="butt" stroke-linejoin="miter" stroke-width=".5" color="#000"><path stroke="#262626" d="M70.7,176.1 L318.6,101.1" class="gridline" opacity=".15"/></g><g fill="none" stroke="currentColor" stroke-linecap="butt" stroke-linejoin="miter" stroke-width=".5" color="#000"><path stroke="#262626" d="M318.6,101.1 L508.8,198.9" class="gridline" opacity=".15"/></g><g fill="none" stroke="currentColor" stroke-linecap="butt" stroke-linejoin="miter" stroke-width=".5" color="#000"><path stroke="#000" d="M70.7,176.1 L76.3,176.1"/><g fill="#262626" stroke="none" font-family="Helvetica" font-size="10" text-anchor="end"><text transform="translate(55.8,179.4)"><tspan font-family="Helvetica">20</tspan></text></g></g><g fill="none" stroke="currentColor" stroke-linecap="butt" stroke-linejoin="miter" stroke-width=".5" color="#000"><path stroke="#262626" d="M70.7,145.6 L318.6,70.6" class="gridline" opacity=".15"/></g><g fill="none" stroke="currentColor" stroke-linecap="butt" stroke-linejoin="miter" stroke-width=".5" color="#000"><path stroke="#262626" d="M318.6,70.6 L508.8,168.4" class="gridline" opacity=".15"/></g><g fill="none" stroke="currentColor" stroke-linecap="butt" stroke-linejoin="miter" stroke-width=".5" color="#000"><path stroke="#000" d="M70.7,145.6 L76.3,145.6"/><g fill="#262626" stroke="none" font-family="Helvetica" font-size="10" text-anchor="end"><text transform="translate(55.8,148.9)"><tspan font-family="Helvetica">25</tspan></text></g></g><g fill="none" stroke="currentColor" stroke-linecap="butt" stroke-linejoin="miter" stroke-width=".5" color="#000"><path stroke="#262626" d="M70.7,115.1 L318.6,40.1" class="gridline" opacity=".15"/></g><g fill="none" stroke="currentColor" stroke-linecap="butt" stroke-linejoin="miter" stroke-width=".5" color="#000"><path stroke="#262626" d="M318.6,40.1 L508.8,137.9" class="gridline" opacity=".15"/></g><g fill="none" stroke="currentColor" stroke-linecap="butt" stroke-linejoin="miter" stroke-width=".5" color="#000"><path stroke="#000" d="M70.7,115.1 L76.3,115.1"/><g fill="#262626" stroke="none" font-family="Helvetica" font-size="10" text-anchor="end"><text transform="translate(55.8,118.4)"><tspan font-family="Helvetica">30</tspan></text></g></g><g fill="none" stroke="currentColor" stroke-linecap="butt" stroke-linejoin="miter" stroke-width=".5" color="#000"><path stroke="#262626" d="M70.7,84.6 L318.6,9.6" class="gridline" opacity=".15"/></g><g fill="none" stroke="currentColor" stroke-linecap="butt" stroke-linejoin="miter" stroke-width=".5" color="#000"><path stroke="#262626" d="M318.6,9.6 L508.8,107.4" class="gridline" opacity=".15"/></g><g fill="none" stroke="currentColor" stroke-linecap="butt" stroke-linejoin="miter" stroke-width=".5" color="#000"><path stroke="#000" d="M70.7,84.6 L76.3,84.6"/><g fill="#262626" stroke="none" font-family="Helvetica" font-size="10" text-anchor="end"><text transform="translate(55.8,87.9)"><tspan font-family="Helvetica">35</tspan></text></g></g><g id="gnuplot_plot_1a"><title>gnuplot_plot_1a</title><g fill="none" stroke="currentColor" stroke-linecap="butt" stroke-linejoin="miter" stroke-width="1" color="#000"><use color="#0071BC" transform="translate(413.7,271.9) scale(3.75)" xlink:href="#gpPt5"/><use color="#0071BC" transform="translate(407.4,268.5) scale(3.75)" xlink:href="#gpPt5"/><use color="#0071BC" transform="translate(400.6,265.2) scale(3.75)" xlink:href="#gpPt5"/><use color="#0071BC" transform="translate(393.4,262.1) scale(3.75)" xlink:href="#gpPt5"/><use color="#0071BC" transform="translate(385.8,259.2) scale(3.75)" xlink:href="#gpPt5"/><use color="#0071BC" transform="translate(377.8,256.6) scale(3.75)" xlink:href="#gpPt5"/><use color="#0071BC" transform="translate(369.5,254.1) scale(3.75)" xlink:href="#gpPt5"/><use color="#0071BC" transform="translate(360.8,251.8) scale(3.75)" xlink:href="#gpPt5"/><use color="#0071BC" transform="translate(351.8,249.7) scale(3.75)" xlink:href="#gpPt5"/><use color="#0071BC" transform="translate(342.6,247.9) scale(3.75)" xlink:href="#gpPt5"/><use color="#0071BC" transform="translate(333.2,246.3) scale(3.75)" xlink:href="#gpPt5"/><use color="#0071BC" transform="translate(323.6,245.0) scale(3.75)" xlink:href="#gpPt5"/><use color="#0071BC" transform="translate(313.8,243.9) scale(3.75)" xlink:href="#gpPt5"/><use color="#0071BC" transform="translate(304.0,243.0) scale(3.75)" xlink:href="#gpPt5"/><use color="#0071BC" transform="translate(294.1,242.4) scale(3.75)" xlink:href="#gpPt5"/><use color="#0071BC" transform="translate(284.3,242.0) scale(3.75)" xlink:href="#gpPt5"/><use color="#0071BC" transform="translate(274.4,241.9) scale(3.75)" xlink:href="#gpPt5"/><use color="#0071BC" transform="translate(264.6,242.0) scale(3.75)" xlink:href="#gpPt5"/><use color="#0071BC" transform="translate(254.8,242.4) scale(3.75)" xlink:href="#gpPt5"/><use color="#0071BC" transform="translate(245.2,243.0) scale(3.75)" xlink:href="#gpPt5"/><use color="#0071BC" transform="translate(235.8,243.8) scale(3.75)" xlink:href="#gpPt5"/><use color="#0071BC" transform="translate(226.7,244.9) scale(3.75)" xlink:href="#gpPt5"/><use color="#0071BC" transform="translate(217.7,246.2) scale(3.75)" xlink:href="#gpPt5"/><use color="#0071BC" transform="translate(209.1,247.7) scale(3.75)" xlink:href="#gpPt5"/><use color="#0071BC" transform="translate(200.8,249.5) scale(3.75)" xlink:href="#gpPt5"/><use color="#0071BC" transform="translate(192.8,251.4) scale(3.75)" xlink:href="#gpPt5"/><use color="#0071BC" transform="translate(185.2,253.6) scale(3.75)" xlink:href="#gpPt5"/><use color="#0071BC" transform="translate(178.1,255.9) scale(3.75)" xlink:href="#gpPt5"/><use color="#0071BC" transform="translate(171.4,258.4) scale(3.75)" xlink:href="#gpPt5"/><use color="#0071BC" transform="translate(165.2,261.0) scale(3.75)" xlink:href="#gpPt5"/><use color="#0071BC" transform="translate(159.5,263.8) scale(3.75)" xlink:href="#gpPt5"/><use color="#0071BC" transform="translate(154.3,266.8) scale(3.75)" xlink:href="#gpPt5"/><use color="#0071BC" transform="translate(149.6,269.9) scale(3.75)" xlink:href="#gpPt5"/><use color="#0071BC" transform="translate(145.5,273.0) scale(3.75)" xlink:href="#gpPt5"/><use color="#0071BC" transform="translate(142.0,276.3) scale(3.75)" xlink:href="#gpPt5"/><use color="#0071BC" transform="translate(139.1,279.7) scale(3.75)" xlink:href="#gpPt5"/><use color="#0071BC" transform="translate(136.8,283.1) scale(3.75)" xlink:href="#gpPt5"/><use color="#0071BC" transform="translate(135.2,286.5) scale(3.75)" xlink:href="#gpPt5"/><use color="#0071BC" transform="translate(134.1,290.0) scale(3.75)" xlink:href="#gpPt5"/><use color="#0071BC" transform="translate(133.7,293.6) scale(3.75)" xlink:href="#gpPt5"/><use color="#0071BC" transform="translate(133.9,297.1) scale(3.75)" xlink:href="#gpPt5"/><use color="#0071BC" transform="translate(134.7,300.6) scale(3.75)" xlink:href="#gpPt5"/><use color="#0071BC" transform="translate(136.1,304.1) scale(3.75)" xlink:href="#gpPt5"/><use color="#0071BC" transform="translate(138.2,307.5) scale(3.75)" xlink:href="#gpPt5"/><use color="#0071BC" transform="translate(140.9,310.9) scale(3.75)" xlink:href="#gpPt5"/><use color="#0071BC" transform="translate(144.2,314.2) scale(3.75)" xlink:href="#gpPt5"/><use color="#0071BC" transform="translate(148.0,317.4) scale(3.75)" xlink:href="#gpPt5"/><use color="#0071BC" transform="translate(152.5,320.5) scale(3.75)" xlink:href="#gpPt5"/><use color="#0071BC" transform="translate(157.5,323.5) scale(3.75)" xlink:href="#gpPt5"/><use color="#0071BC" transform="translate(163.0,326.4) scale(3.75)" xlink:href="#gpPt5"/><use color="#0071BC" transform="translate(169.0,329.1) scale(3.75)" xlink:href="#gpPt5"/><use color="#0071BC" transform="translate(175.5,331.6) scale(3.75)" xlink:href="#gpPt5"/><use color="#0071BC" transform="translate(182.5,334.0) scale(3.75)" xlink:href="#gpPt5"/><use color="#0071BC" transform="translate(189.9,336.2) scale(3.75)" xlink:href="#gpPt5"/><use color="#0071BC" transform="translate(197.7,338.3) scale(3.75)" xlink:href="#gpPt5"/><use color="#0071BC" transform="translate(205.9,340.1) scale(3.75)" xlink:href="#gpPt5"/><use color="#0071BC" transform="translate(214.4,341.7) scale(3.75)" xlink:href="#gpPt5"/><use color="#0071BC" transform="translate(223.3,343.1) scale(3.75)" xlink:href="#gpPt5"/><use color="#0071BC" transform="translate(232.4,344.2) scale(3.75)" xlink:href="#gpPt5"/><use color="#0071BC" transform="translate(241.7,345.2) scale(3.75)" xlink:href="#gpPt5"/><use color="#0071BC" transform="translate(251.2,345.9) scale(3.75)" xlink:href="#gpPt5"/><use color="#0071BC" transform="translate(260.9,346.3) scale(3.75)" xlink:href="#gpPt5"/><use color="#0071BC" transform="translate(270.7,346.5) scale(3.75)" xlink:href="#gpPt5"/><use color="#0071BC" transform="translate(280.6,346.5) scale(3.75)" xlink:href="#gpPt5"/><use color="#0071BC" transform="translate(290.4,346.2) scale(3.75)" xlink:href="#gpPt5"/><use color="#0071BC" transform="translate(300.3,345.7) scale(3.75)" xlink:href="#gpPt5"/><use color="#0071BC" transform="translate(310.1,344.9) scale(3.75)" xlink:href="#gpPt5"/><use color="#0071BC" transform="translate(319.9,343.9) scale(3.75)" xlink:href="#gpPt5"/><use color="#0071BC" transform="translate(329.6,342.7) scale(3.75)" xlink:href="#gpPt5"/><use color="#0071BC" transform="translate(339.1,341.1) scale(3.75)" xlink:href="#gpPt5"/><use color="#0071BC" transform="translate(348.4,339.4) scale(3.75)" xlink:href="#gpPt5"/><use color="#0071BC" transform="translate(357.4,337.4) scale(3.75)" xlink:href="#gpPt5"/><use color="#0071BC" transform="translate(366.2,335.2) scale(3.75)" xlink:href="#gpPt5"/><use color="#0071BC" transform="translate(374.7,332.8) scale(3.75)" xlink:href="#gpPt5"/><use color="#0071BC" transform="translate(382.9,330.2) scale(3.75)" xlink:href="#gpPt5"/><use color="#0071BC" transform="translate(390.6,327.4) scale(3.75)" xlink:href="#gpPt5"/><use color="#0071BC" transform="translate(398.0,324.4) scale(3.75)" xlink:href="#gpPt5"/><use color="#0071BC" transform="translate(404.9,321.2) scale(3.75)" xlink:href="#gpPt5"/><use color="#0071BC" transform="translate(411.4,317.9) scale(3.75)" xlink:href="#gpPt5"/><use color="#0071BC" transform="translate(417.3,314.4) scale(3.75)" xlink:href="#gpPt5"/><use color="#0071BC" transform="translate(422.8,310.7) scale(3.75)" xlink:href="#gpPt5"/><use color="#0071BC" transform="translate(427.7,306.9) scale(3.75)" xlink:href="#gpPt5"/><use color="#0071BC" transform="translate(432.1,303.0) scale(3.75)" xlink:href="#gpPt5"/><use color="#0071BC" transform="translate(435.9,299.0) scale(3.75)" xlink:href="#gpPt5"/><use color="#0071BC" transform="translate(439.1,294.9) scale(3.75)" xlink:href="#gpPt5"/><use color="#0071BC" transform="translate(441.7,290.8) scale(3.75)" xlink:href="#gpPt5"/><use color="#0071BC" transform="translate(443.7,286.6) scale(3.75)" xlink:href="#gpPt5"/><use color="#0071BC" transform="translate(445.1,282.3) scale(3.75)" xlink:href="#gpPt5"/><use color="#0071BC" transform="translate(445.8,278.0) scale(3.75)" xlink:href="#gpPt5"/><use color="#0071BC" transform="translate(445.9,273.7) scale(3.75)" xlink:href="#gpPt5"/><use color="#0071BC" transform="translate(445.4,269.4) scale(3.75)" xlink:href="#gpPt5"/><use color="#0071BC" transform="translate(444.3,265.1) scale(3.75)" xlink:href="#gpPt5"/><use color="#0071BC" transform="translate(442.5,260.9) scale(3.75)" xlink:href="#gpPt5"/><use color="#0071BC" transform="translate(440.1,256.7) scale(3.75)" xlink:href="#gpPt5"/><use color="#0071BC" transform="translate(437.2,252.6) scale(3.75)" xlink:href="#gpPt5"/><use color="#0071BC" transform="translate(433.6,248.6) scale(3.75)" xlink:href="#gpPt5"/><use color="#0071BC" transform="translate(429.4,244.6) scale(3.75)" xlink:href="#gpPt5"/><use color="#0071BC" transform="translate(424.7,240.8) scale(3.75)" xlink:href="#gpPt5"/><use color="#0071BC" transform="translate(419.5,237.1) scale(3.75)" xlink:href="#gpPt5"/><use color="#0071BC" transform="translate(413.7,233.5) scale(3.75)" xlink:href="#gpPt5"/></g></g><g id="gnuplot_plot_2a"><title>gnuplot_plot_2a</title><g fill="none" stroke="currentColor" stroke-linecap="butt" stroke-linejoin="miter" stroke-width="1" color="#000"><use color="#D85218" transform="translate(413.7,271.9) scale(3.75)" xlink:href="#gpPt5"/><use color="#D85218" transform="translate(407.4,266.9) scale(3.75)" xlink:href="#gpPt5"/><use color="#D85218" transform="translate(400.6,262.1) scale(3.75)" xlink:href="#gpPt5"/><use color="#D85218" transform="translate(393.4,257.5) scale(3.75)" xlink:href="#gpPt5"/><use color="#D85218" transform="translate(385.8,253.1) scale(3.75)" xlink:href="#gpPt5"/><use color="#D85218" transform="translate(377.8,248.8) scale(3.75)" xlink:href="#gpPt5"/><use color="#D85218" transform="translate(369.5,244.8) scale(3.75)" xlink:href="#gpPt5"/><use color="#D85218" transform="translate(360.8,241.0) scale(3.75)" xlink:href="#gpPt5"/><use color="#D85218" transform="translate(351.8,237.4) scale(3.75)" xlink:href="#gpPt5"/><use color="#D85218" transform="translate(342.6,234.0) scale(3.75)" xlink:href="#gpPt5"/><use color="#D85218" transform="translate(333.2,230.8) scale(3.75)" xlink:href="#gpPt5"/><use color="#D85218" transform="translate(323.6,227.9) scale(3.75)" xlink:href="#gpPt5"/><use color="#D85218" transform="translate(313.8,225.3) scale(3.75)" xlink:href="#gpPt5"/><use color="#D85218" transform="translate(304.0,222.9) scale(3.75)" xlink:href="#gpPt5"/><use color="#D85218" transform="translate(294.1,220.7) scale(3.75)" xlink:href="#gpPt5"/><use color="#D85218" transform="translate(284.3,218.8) scale(3.75)" xlink:href="#gpPt5"/><use color="#D85218" transform="translate(274.4,217.1) scale(3.75)" xlink:href="#gpPt5"/><use color="#D85218" transform="translate(264.6,215.7) scale(3.75)" xlink:href="#gpPt5"/><use color="#D85218" transform="translate(254.8,214.5) scale(3.75)" xlink:href="#gpPt5"/><use color="#D85218" transform="translate(245.2,213.6) scale(3.75)" xlink:href="#gpPt5"/><use color="#D85218" transform="translate(235.8,212.9) scale(3.75)" xlink:href="#gpPt5"/><use color="#D85218" transform="translate(226.7,212.4) scale(3.75)" xlink:href="#gpPt5"/><use color="#D85218" transform="translate(217.7,212.1) scale(3.75)" xlink:href="#gpPt5"/><use color="#D85218" transform="translate(209.1,212.1) scale(3.75)" xlink:href="#gpPt5"/><use color="#D85218" transform="translate(200.8,212.3) scale(3.75)" xlink:href="#gpPt5"/><use color="#D85218" transform="translate(192.8,212.7) scale(3.75)" xlink:href="#gpPt5"/><use color="#D85218" transform="translate(185.2,213.3) scale(3.75)" xlink:href="#gpPt5"/><use color="#D85218" transform="translate(178.1,214.1) scale(3.75)" xlink:href="#gpPt5"/><use color="#D85218" transform="translate(171.4,215.0) scale(3.75)" xlink:href="#gpPt5"/><use color="#D85218" transform="translate(165.2,216.1) scale(3.75)" xlink:href="#gpPt5"/><use color="#D85218" transform="translate(159.5,217.4) scale(3.75)" xlink:href="#gpPt5"/><use color="#D85218" transform="translate(154.3,218.8) scale(3.75)" xlink:href="#gpPt5"/><use color="#D85218" transform="translate(149.6,220.3) scale(3.75)" xlink:href="#gpPt5"/><use color="#D85218" transform="translate(145.5,221.9) scale(3.75)" xlink:href="#gpPt5"/><use color="#D85218" transform="translate(142.0,223.7) scale(3.75)" xlink:href="#gpPt5"/><use color="#D85218" transform="translate(139.1,225.5) scale(3.75)" xlink:href="#gpPt5"/><use color="#D85218" transform="translate(136.8,227.3) scale(3.75)" xlink:href="#gpPt5"/><use color="#D85218" transform="translate(135.2,229.2) scale(3.75)" xlink:href="#gpPt5"/><use color="#D85218" transform="translate(134.1,231.2) scale(3.75)" xlink:href="#gpPt5"/><use color="#D85218" transform="translate(133.7,233.2) scale(3.75)" xlink:href="#gpPt5"/><use color="#D85218" transform="translate(133.9,235.1) scale(3.75)" xlink:href="#gpPt5"/><use color="#D85218" transform="translate(134.7,237.1) scale(3.75)" xlink:href="#gpPt5"/><use color="#D85218" transform="translate(136.1,239.0) scale(3.75)" xlink:href="#gpPt5"/><use color="#D85218" transform="translate(138.2,240.9) scale(3.75)" xlink:href="#gpPt5"/><use color="#D85218" transform="translate(140.9,242.8) scale(3.75)" xlink:href="#gpPt5"/><use color="#D85218" transform="translate(144.2,244.5) scale(3.75)" xlink:href="#gpPt5"/><use color="#D85218" transform="translate(148.0,246.2) scale(3.75)" xlink:href="#gpPt5"/><use color="#D85218" transform="translate(152.5,247.7) scale(3.75)" xlink:href="#gpPt5"/><use color="#D85218" transform="translate(157.5,249.2) scale(3.75)" xlink:href="#gpPt5"/><use color="#D85218" transform="translate(163.0,250.5) scale(3.75)" xlink:href="#gpPt5"/><use color="#D85218" transform="translate(169.0,251.7) scale(3.75)" xlink:href="#gpPt5"/><use color="#D85218" transform="translate(175.5,252.7) scale(3.75)" xlink:href="#gpPt5"/><use color="#D85218" transform="translate(182.5,253.5) scale(3.75)" xlink:href="#gpPt5"/><use color="#D85218" transform="translate(189.9,254.2) scale(3.75)" xlink:href="#gpPt5"/><use color="#D85218" transform="translate(197.7,254.6) scale(3.75)" xlink:href="#gpPt5"/><use color="#D85218" transform="translate(205.9,254.9) scale(3.75)" xlink:href="#gpPt5"/><use color="#D85218" transform="translate(214.4,255.0) scale(3.75)" xlink:href="#gpPt5"/><use color="#D85218" transform="translate(223.3,254.8) scale(3.75)" xlink:href="#gpPt5"/><use color="#D85218" transform="translate(232.4,254.4) scale(3.75)" xlink:href="#gpPt5"/><use color="#D85218" transform="translate(241.7,253.8) scale(3.75)" xlink:href="#gpPt5"/><use color="#D85218" transform="translate(251.2,253.0) scale(3.75)" xlink:href="#gpPt5"/><use color="#D85218" transform="translate(260.9,251.9) scale(3.75)" xlink:href="#gpPt5"/><use color="#D85218" transform="translate(270.7,250.5) scale(3.75)" xlink:href="#gpPt5"/><use color="#D85218" transform="translate(280.6,249.0) scale(3.75)" xlink:href="#gpPt5"/><use color="#D85218" transform="translate(290.4,247.1) scale(3.75)" xlink:href="#gpPt5"/><use color="#D85218" transform="translate(300.3,245.1) scale(3.75)" xlink:href="#gpPt5"/><use color="#D85218" transform="translate(310.1,242.7) scale(3.75)" xlink:href="#gpPt5"/><use color="#D85218" transform="translate(319.9,240.2) scale(3.75)" xlink:href="#gpPt5"/><use color="#D85218" transform="translate(329.6,237.4) scale(3.75)" xlink:href="#gpPt5"/><use color="#D85218" transform="translate(339.1,234.3) scale(3.75)" xlink:href="#gpPt5"/><use color="#D85218" transform="translate(348.4,231.0) scale(3.75)" xlink:href="#gpPt5"/><use color="#D85218" transform="translate(357.4,227.5) scale(3.75)" xlink:href="#gpPt5"/><use color="#D85218" transform="translate(366.2,223.8) scale(3.75)" xlink:href="#gpPt5"/><use color="#D85218" transform="translate(374.7,219.8) scale(3.75)" xlink:href="#gpPt5"/><use color="#D85218" transform="translate(382.9,215.6) scale(3.75)" xlink:href="#gpPt5"/><use color="#D85218" transform="translate(390.6,211.3) scale(3.75)" xlink:href="#gpPt5"/><use color="#D85218" transform="translate(398.0,206.7) scale(3.75)" xlink:href="#gpPt5"/><use color="#D85218" transform="translate(404.9,202.1) scale(3.75)" xlink:href="#gpPt5"/><use color="#D85218" transform="translate(411.4,197.2) scale(3.75)" xlink:href="#gpPt5"/><use color="#D85218" transform="translate(417.3,192.1) scale(3.75)" xlink:href="#gpPt5"/><use color="#D85218" transform="translate(422.8,186.9) scale(3.75)" xlink:href="#gpPt5"/><use color="#D85218" transform="translate(427.7,181.6) scale(3.75)" xlink:href="#gpPt5"/><use color="#D85218" transform="translate(432.1,176.2) scale(3.75)" xlink:href="#gpPt5"/><use color="#D85218" transform="translate(435.9,170.6) scale(3.75)" xlink:href="#gpPt5"/><use color="#D85218" transform="translate(439.1,165.0) scale(3.75)" xlink:href="#gpPt5"/><use color="#D85218" transform="translate(441.7,159.3) scale(3.75)" xlink:href="#gpPt5"/><use color="#D85218" transform="translate(443.7,153.5) scale(3.75)" xlink:href="#gpPt5"/><use color="#D85218" transform="translate(445.1,147.7) scale(3.75)" xlink:href="#gpPt5"/><use color="#D85218" transform="translate(445.8,141.9) scale(3.75)" xlink:href="#gpPt5"/><use color="#D85218" transform="translate(445.9,136.0) scale(3.75)" xlink:href="#gpPt5"/><use color="#D85218" transform="translate(445.4,130.2) scale(3.75)" xlink:href="#gpPt5"/><use color="#D85218" transform="translate(444.3,124.3) scale(3.75)" xlink:href="#gpPt5"/><use color="#D85218" transform="translate(442.5,118.6) scale(3.75)" xlink:href="#gpPt5"/><use color="#D85218" transform="translate(440.1,112.8) scale(3.75)" xlink:href="#gpPt5"/><use color="#D85218" transform="translate(437.2,107.2) scale(3.75)" xlink:href="#gpPt5"/><use color="#D85218" transform="translate(433.6,101.6) scale(3.75)" xlink:href="#gpPt5"/><use color="#D85218" transform="translate(429.4,96.1) scale(3.75)" xlink:href="#gpPt5"/><use color="#D85218" transform="translate(424.7,90.7) scale(3.75)" xlink:href="#gpPt5"/><use color="#D85218" transform="translate(419.5,85.5) scale(3.75)" xlink:href="#gpPt5"/><use color="#D85218" transform="translate(413.7,80.4) scale(3.75)" xlink:href="#gpPt5"/></g></g><g fill="none" stroke="currentColor" stroke-linecap="butt" stroke-linejoin="miter" stroke-width=".5" color="#000"><path stroke="#000" d="M508.8,320.9 L260.9,395.9"/></g><g fill="none" stroke="currentColor" stroke-linecap="butt" stroke-linejoin="miter" stroke-width=".5" color="#000"><path stroke="#000" d="M70.7,298.1 L260.9,395.9"/></g></g></svg>