<svg xmlns="http://www.w3.org/2000/svg" xmlns:xlink="http://www.w3.org/1999/xlink" width="560" height="420" viewBox="0 0 560 420"><title>Gnuplot</title><desc>Produced by GNUPLOT 5.4 patchlevel 0</desc><g id="gnuplot_canvas"><rect width="560" height="420" x="0" y="0" fill="none"/><defs><circle id="gpDot" r=".5" stroke="currentColor" stroke-width=".5"/><path id="gpPt0" stroke="currentColor" stroke-width=".267" d="M-1,0 h2 M0,-1 v2"/><path id="gpPt1" stroke="currentColor" stroke-width=".267" d="M-1,-1 L1,1 M1,-1 L-1,1"/><path id="gpPt2" stroke="currentColor" stroke-width=".267" d="M-1,0 L1,0 M0,-1 L0,1 M-1,-1 L1,1 M-1,1 L1,-1"/><rect id="gpPt3" width="2" height="2" x="-1" y="-1" stroke="currentColor" stroke-width=".267"/><rect id="gpPt4" width="2" height="2" x="-1" y="-1" fill="currentColor" stroke="currentColor" stroke-width=".267"/><circle id="gpPt5" cx="0" cy="0" r="1" stroke="currentColor" stroke-width=".267"/><use id="gpPt6" fill="currentColor" stroke="none" xlink:href="#gpPt5"/><path id="gpPt7" stroke="currentColor" stroke-width=".267" d="M0,-1.33 L-1.33,0.67 L1.33,0.67 z"/><use id="gpPt8" fill="currentColor" stroke="none" xlink:href="#gpPt7"/><use id="gpPt9" stroke="currentColor" transform="rotate(180)" xlink:href="#gpPt7"/><use id="gpPt10" fill="currentColor" stroke="none" xlink:href="#gpPt9"/><use id="gpPt11" stroke="currentColor" transform="rotate(45)" xlink:href="#gpPt3"/><use id="gpPt12" fill="currentColor" stroke="none" xlink:href="#gpPt11"/><path id="gpPt13" stroke="currentColor" stroke-width=".267" d="M0,1.330 L1.265,0.411 L0.782,-1.067 L-0.782,-1.076 L-1.265,0.411 z"/><use id="gpPt14" fill="currentColor" stroke="none" xlink:href="#gpPt13"/><filter id="textbox" width="1" height="1" x="0" y="0" filterUnits="objectBoundingBox"><feFlood flood-color="#fff" flood-opacity="1" result="bgnd"/><feComposite in="SourceGraphic" in2="bgnd" operator="atop"/></filter><filter id="greybox" width="1" height="1" x="0" y="0" filterUnits="objectBoundingBox"><feFlood flood-color="#d3d3d3" flood-opacity="1" result="grey"/><feComposite in="SourceGraphic" in2="grey" operator="atop"/></filter></defs><g fill="none" stroke="currentColor" stroke-linecap="butt" stroke-linejoin="miter" stroke-width=".5" color="#000"><path stroke="#000" d="M70.7,298.1 L318.6,223.1"/></g><g fill="none" stroke="currentColor" stroke-linecap="butt" stroke-linejoin="miter" stroke-width=".5" color="#000"><path stroke="#000" d="M508.8,320.9 L318.6,223.1"/></g><g fill="none" stroke="currentColor" stroke-linecap="butt" stroke-linejoin="miter" stroke-width=".5" color="#000"><path stroke="#000" d="M70.7,298.1 L70.7,84.6"/></g><g fill="none" stroke="currentColor" stroke-linecap="butt" stroke-linejoin="miter" stroke-width=".5" color="#000"><path stroke="#000" d="M318.6,223.1 L318.6,9.6"/></g><g fill="none" stroke="currentColor" stroke-linecap="butt" stroke-linejoin="miter" stroke-width=".5" color="#000"><path stroke="#000" d="M508.8,320.9 L508.8,107.4"/></g><g fill="none" stroke="currentColor" stroke-linecap="butt" stroke-linejoin="miter" stroke-width=".5" color="#000"><path stroke="#000" d="M70.7,84.6 L318.6,9.6"/></g><g fill="none" stroke="currentColor" stroke-linecap="butt" stroke-linejoin="miter" stroke-width=".5" color="#000"><path stroke="#000" d="M508.8,107.4 L318.6,9.6"/></g><g fill="none" stroke="currentColor" stroke-linecap="butt" stroke-linejoin="miter" stroke-width=".5" color="#000"><path stroke="#262626" d="M260.9,395.9 L70.7,298.1" class="gridline" opacity=".15"/></g><g fill="none" stroke="currentColor" stroke-linecap="butt" stroke-linejoin="miter" stroke-width=".5" color="#000"><path stroke="#262626" d="M70.7,298.1 L70.7,84.6" class="gridline" opacity=".15"/></g><g fill="none" stroke="currentColor" stroke-linecap="butt" stroke-linejoin="miter" stroke-width=".5" color="#000"><path stroke="#000" d="M260.9,395.9 L257.1,393.9"/><g fill="#262626" stroke="none" font-family="Helvetica" font-size="10" text-anchor="middle"><text transform="translate(265.8,404.4)"><tspan font-family="Helvetica">-3</tspan></text></g></g><g fill="none" stroke="currentColor" stroke-linecap="butt" stroke-linejoin="miter" stroke-width=".5" color="#000"><path stroke="#262626" d="M302.2,383.4 L112.0,285.6" class="gridline" opacity=".15"/></g><g fill="none" stroke="currentColor" stroke-linecap="butt" stroke-linejoin="miter" stroke-width=".5" color="#000"><path stroke="#262626" d="M112.0,285.6 L112.0,72.1" class="gridline" opacity=".15"/></g><g fill="none" stroke="currentColor" stroke-linecap="butt" stroke-linejoin="miter" stroke-width=".5" color="#000"><path stroke="#000" d="M302.2,383.4 L298.4,381.4"/><g fill="#262626" stroke="none" font-family="Helvetica" font-size="10" text-anchor="middle"><text transform="translate(307.0,391.9)"><tspan font-family="Helvetica">-2</tspan></text></g></g><g fill="none" stroke="currentColor" stroke-linecap="butt" stroke-linejoin="miter" stroke-width=".5" color="#000"><path stroke="#262626" d="M343.5,370.9 L153.4,273.1" class="gridline" opacity=".15"/></g><g fill="none" stroke="currentColor" stroke-linecap="butt" stroke-linejoin="miter" stroke-width=".5" color="#000"><path stroke="#262626" d="M153.4,273.1 L153.4,59.6" class="gridline" opacity=".15"/></g><g fill="none" stroke="currentColor" stroke-linecap="butt" stroke-linejoin="miter" stroke-width=".5" color="#000"><path stroke="#000" d="M343.5,370.9 L339.7,368.9"/><g fill="#262626" stroke="none" font-family="Helvetica" font-size="10" text-anchor="middle"><text transform="translate(348.3,379.4)"><tspan font-family="Helvetica">-1</tspan></text></g></g><g fill="none" stroke="currentColor" stroke-linecap="butt" stroke-linejoin="miter" stroke-width=".5" color="#000"><path stroke="#262626" d="M384.8,358.4 L194.7,260.6" class="gridline" opacity=".15"/></g><g fill="none" stroke="currentColor" stroke-linecap="butt" stroke-linejoin="miter" stroke-width=".5" color="#000"><path stroke="#262626" d="M194.7,260.6 L194.7,47.1" class="gridline" opacity=".15"/></g><g fill="none" stroke="currentColor" stroke-linecap="butt" stroke-linejoin="miter" stroke-width=".5" color="#000"><path stroke="#000" d="M384.8,358.4 L381.0,356.4"/><g fill="#262626" stroke="none" font-family="Helvetica" font-size="10" text-anchor="middle"><text transform="translate(389.6,366.9)"><tspan font-family="Helvetica">0</tspan></text></g></g><g fill="none" stroke="currentColor" stroke-linecap="butt" stroke-linejoin="miter" stroke-width=".5" color="#000"><path stroke="#262626" d="M426.1,345.9 L236.0,248.1" class="gridline" opacity=".15"/></g><g fill="none" stroke="currentColor" stroke-linecap="butt" stroke-linejoin="miter" stroke-width=".5" color="#000"><path stroke="#262626" d="M236.0,248.1 L236.0,34.6" class="gridline" opacity=".15"/></g><g fill="none" stroke="currentColor" stroke-linecap="butt" stroke-linejoin="miter" stroke-width=".5" color="#000"><path stroke="#000" d="M426.1,345.9 L422.3,343.9"/><g fill="#262626" stroke="none" font-family="Helvetica" font-size="10" text-anchor="middle"><text transform="translate(430.9,354.4)"><tspan font-family="Helvetica">1</tspan></text></g></g><g fill="none" stroke="currentColor" stroke-linecap="butt" stroke-linejoin="miter" stroke-width=".5" color="#000"><path stroke="#262626" d="M467.5,333.4 L277.3,235.6" class="gridline" opacity=".15"/></g><g fill="none" stroke="currentColor" stroke-linecap="butt" stroke-linejoin="miter" stroke-width=".5" color="#000"><path stroke="#262626" d="M277.3,235.6 L277.3,22.1" class="gridline" opacity=".15"/></g><g fill="none" stroke="currentColor" stroke-linecap="butt" stroke-linejoin="miter" stroke-width=".5" color="#000"><path stroke="#000" d="M467.5,333.4 L463.6,331.4"/><g fill="#262626" stroke="none" font-family="Helvetica" font-size="10" text-anchor="middle"><text transform="translate(472.3,341.9)"><tspan font-family="Helvetica">2</tspan></text></g></g><g fill="none" stroke="currentColor" stroke-linecap="butt" stroke-linejoin="miter" stroke-width=".5" color="#000"><path stroke="#262626" d="M508.8,320.9 L318.6,223.1" class="gridline" opacity=".15"/></g><g fill="none" stroke="currentColor" stroke-linecap="butt" stroke-linejoin="miter" stroke-width=".5" color="#000"><path stroke="#262626" d="M318.6,223.1 L318.6,9.6" class="gridline" opacity=".15"/></g><g fill="none" stroke="currentColor" stroke-linecap="butt" stroke-linejoin="miter" stroke-width=".5" color="#000"><path stroke="#000" d="M508.8,320.9 L504.9,318.9"/><g fill="#262626" stroke="none" font-family="Helvetica" font-size="10" text-anchor="middle"><text transform="translate(513.6,329.3)"><tspan font-family="Helvetica">3</tspan></text></g></g><g fill="none" stroke="currentColor" stroke-linecap="butt" stroke-linejoin="miter" stroke-width=".5" color="#000"><path stroke="#262626" d="M260.9,395.9 L508.8,320.9" class="gridline" opacity=".15"/></g><g fill="none" stroke="currentColor" stroke-linecap="butt" stroke-linejoin="miter" stroke-width=".5" color="#000"><path stroke="#262626" d="M508.8,320.9 L508.8,107.4" class="gridline" opacity=".15"/></g><g fill="none" stroke="currentColor" stroke-linecap="butt" stroke-linejoin="miter" stroke-width=".5" color="#000"><path stroke="#000" d="M260.9,395.9 L265.9,394.4"/><g fill="#262626" stroke="none" font-family="Helvetica" font-size="10" text-anchor="middle"><text transform="translate(254.8,403.1)"><tspan font-family="Helvetica">-3</tspan></text></g></g><g fill="none" stroke="currentColor" stroke-linecap="butt" stroke-linejoin="miter" stroke-width=".5" color="#000"><path stroke="#262626" d="M229.2,379.6 L477.1,304.6" class="gridline" opacity=".15"/></g><g fill="none" stroke="currentColor" stroke-linecap="butt" stroke-linejoin="miter" stroke-width=".5" color="#000"><path stroke="#262626" d="M477.1,304.6 L477.1,91.1" class="gridline" opacity=".15"/></g><g fill="none" stroke="currentColor" stroke-linecap="butt" stroke-linejoin="miter" stroke-width=".5" color="#000"><path stroke="#000" d="M229.2,379.6 L234.2,378.1"/><g fill="#262626" stroke="none" font-family="Helvetica" font-size="10" text-anchor="middle"><text transform="translate(223.1,386.9)"><tspan font-family="Helvetica">-2</tspan></text></g></g><g fill="none" stroke="currentColor" stroke-linecap="butt" stroke-linejoin="miter" stroke-width=".5" color="#000"><path stroke="#262626" d="M197.5,363.3 L445.4,288.3" class="gridline" opacity=".15"/></g><g fill="none" stroke="currentColor" stroke-linecap="butt" stroke-linejoin="miter" stroke-width=".5" color="#000"><path stroke="#262626" d="M445.4,288.3 L445.4,74.8" class="gridline" opacity=".15"/></g><g fill="none" stroke="currentColor" stroke-linecap="butt" stroke-linejoin="miter" stroke-width=".5" color="#000"><path stroke="#000" d="M197.5,363.3 L202.5,361.8"/><g fill="#262626" stroke="none" font-family="Helvetica" font-size="10" text-anchor="middle"><text transform="translate(191.4,370.6)"><tspan font-family="Helvetica">-1</tspan></text></g></g><g fill="none" stroke="currentColor" stroke-linecap="butt" stroke-linejoin="miter" stroke-width=".5" color="#000"><path stroke="#262626" d="M165.8,347.0 L413.7,272.0" class="gridline" opacity=".15"/></g><g fill="none" stroke="currentColor" stroke-linecap="butt" stroke-linejoin="miter" stroke-width=".5" color="#000"><path stroke="#262626" d="M413.7,272.0 L413.7,58.5" class="gridline" opacity=".15"/></g><g fill="none" stroke="currentColor" stroke-linecap="butt" stroke-linejoin="miter" stroke-width=".5" color="#000"><path stroke="#000" d="M165.8,347.0 L170.9,345.5"/><g fill="#262626" stroke="none" font-family="Helvetica" font-size="10" text-anchor="middle"><text transform="translate(159.7,354.3)"><tspan font-family="Helvetica">0</tspan></text></g></g><g fill="none" stroke="currentColor" stroke-linecap="butt" stroke-linejoin="miter" stroke-width=".5" color="#000"><path stroke="#262626" d="M134.1,330.7 L382.0,255.7" class="gridline" opacity=".15"/></g><g fill="none" stroke="currentColor" stroke-linecap="butt" stroke-linejoin="miter" stroke-width=".5" color="#000"><path stroke="#262626" d="M382.0,255.7 L382.0,42.2" class="gridline" opacity=".15"/></g><g fill="none" stroke="currentColor" stroke-linecap="butt" stroke-linejoin="miter" stroke-width=".5" color="#000"><path stroke="#000" d="M134.1,330.7 L139.2,329.2"/><g fill="#262626" stroke="none" font-family="Helvetica" font-size="10" text-anchor="middle"><text transform="translate(128.0,338.0)"><tspan font-family="Helvetica">1</tspan></text></g></g><g fill="none" stroke="currentColor" stroke-linecap="butt" stroke-linejoin="miter" stroke-width=".5" color="#000"><path stroke="#262626" d="M102.4,314.4 L350.3,239.4" class="gridline" opacity=".15"/></g><g fill="none" stroke="currentColor" stroke-linecap="butt" stroke-linejoin="miter" stroke-width=".5" color="#000"><path stroke="#262626" d="M350.3,239.4 L350.3,25.9" class="gridline" opacity=".15"/></g><g fill="none" stroke="currentColor" stroke-linecap="butt" stroke-linejoin="miter" stroke-width=".5" color="#000"><path stroke="#000" d="M102.4,314.4 L107.5,312.9"/><g fill="#262626" stroke="none" font-family="Helvetica" font-size="10" text-anchor="middle"><text transform="translate(96.3,321.7)"><tspan font-family="Helvetica">2</tspan></text></g></g><g fill="none" stroke="currentColor" stroke-linecap="butt" stroke-linejoin="miter" stroke-width=".5" color="#000"><path stroke="#262626" d="M70.7,298.1 L318.6,223.1" class="gridline" opacity=".15"/></g><g fill="none" stroke="currentColor" stroke-linecap="butt" stroke-linejoin="miter" stroke-width=".5" color="#000"><path stroke="#262626" d="M318.6,223.1 L318.6,9.6" class="gridline" opacity=".15"/></g><g fill="none" stroke="currentColor" stroke-linecap="butt" stroke-linejoin="miter" stroke-width=".5" color="#000"><path stroke="#000" d="M70.7,298.1 L75.8,296.6"/><g fill="#262626" stroke="none" font-family="Helvetica" font-size="10" text-anchor="middle"><text transform="translate(64.6,305.4)"><tspan font-family="Helvetica">3</tspan></text></g></g><g fill="none" stroke="currentColor" stroke-linecap="butt" stroke-linejoin="miter" stroke-width=".5" color="#000"><path stroke="#262626" d="M70.7,298.1 L318.6,223.1" class="gridline" opacity=".15"/></g><g fill="none" stroke="currentColor" stroke-linecap="butt" stroke-linejoin="miter" stroke-width=".5" color="#000"><path stroke="#262626" d="M318.6,223.1 L508.8,320.9" class="gridline" opacity=".15"/></g><g fill="none" stroke="currentColor" stroke-linecap="butt" stroke-linejoin="miter" stroke-width=".5" color="#000"><path stroke="#000" d="M70.7,298.1 L76.3,298.1"/><g fill="#262626" stroke="none" font-family="Helvetica" font-size="10" text-anchor="end"><text transform="translate(55.8,301.3)"><tspan font-family="Helvetica">-10</tspan></text></g></g><g fill="none" stroke="currentColor" stroke-linecap="butt" stroke-linejoin="miter" stroke-width=".5" color="#000"><path stroke="#262626" d="M70.7,244.7 L318.6,169.7" class="gridline" opacity=".15"/></g><g fill="none" stroke="currentColor" stroke-linecap="butt" stroke-linejoin="miter" stroke-width=".5" color="#000"><path stroke="#262626" d="M318.6,169.7 L508.8,267.5" class="gridline" opacity=".15"/></g><g fill="none" stroke="currentColor" stroke-linecap="butt" stroke-linejoin="miter" stroke-width=".5" color="#000"><path stroke="#000" d="M70.7,244.7 L76.3,244.7"/><g fill="#262626" stroke="none" font-family="Helvetica" font-size="10" text-anchor="end"><text transform="translate(55.8,247.9)"><tspan font-family="Helvetica">-5</tspan></text></g></g><g fill="none" stroke="currentColor" stroke-linecap="butt" stroke-linejoin="miter" stroke-width=".5" color="#000"><path stroke="#262626" d="M70.7,191.4 L318.6,116.3" class="gridline" opacity=".15"/></g><g fill="none" stroke="currentColor" stroke-linecap="butt" stroke-linejoin="miter" stroke-width=".5" color="#000"><path stroke="#262626" d="M318.6,116.3 L508.8,214.1" class="gridline" opacity=".15"/></g><g fill="none" stroke="currentColor" stroke-linecap="butt" stroke-linejoin="miter" stroke-width=".5" color="#000"><path stroke="#000" d="M70.7,191.4 L76.3,191.4"/><g fill="#262626" stroke="none" font-family="Helvetica" font-size="10" text-anchor="end"><text transform="translate(55.8,194.7)"><tspan font-family="Helvetica">0</tspan></text></g></g><g fill="none" stroke="currentColor" stroke-linecap="butt" stroke-linejoin="miter" stroke-width=".5" color="#000"><path stroke="#262626" d="M70.7,138.0 L318.6,63.0" class="gridline" opacity=".15"/></g><g fill="none" stroke="currentColor" stroke-linecap="butt" stroke-linejoin="miter" stroke-width=".5" color="#000"><path stroke="#262626" d="M318.6,63.0 L508.8,160.8" class="gridline" opacity=".15"/></g><g fill="none" stroke="currentColor" stroke-linecap="butt" stroke-linejoin="miter" stroke-width=".5" color="#000"><path stroke="#000" d="M70.7,138.0 L76.3,138.0"/><g fill="#262626" stroke="none" font-family="Helvetica" font-size="10" text-anchor="end"><text transform="translate(55.8,141.3)"><tspan font-family="Helvetica">5</tspan></text></g></g><g fill="none" stroke="currentColor" stroke-linecap="butt" stroke-linejoin="miter" stroke-width=".5" color="#000"><path stroke="#262626" d="M70.7,84.6 L318.6,9.6" class="gridline" opacity=".15"/></g><g fill="none" stroke="currentColor" stroke-linecap="butt" stroke-linejoin="miter" stroke-width=".5" color="#000"><path stroke="#262626" d="M318.6,9.6 L508.8,107.4" class="gridline" opacity=".15"/></g><g fill="none" stroke="currentColor" stroke-linecap="butt" stroke-linejoin="miter" stroke-width=".5" color="#000"><path stroke="#000" d="M70.7,84.6 L76.3,84.6"/><g fill="#262626" stroke="none" font-family="Helvetica" font-size="10" text-anchor="end"><text transform="translate(55.8,87.9)"><tspan font-family="Helvetica">10</tspan></text></g></g><g id="gnuplot_plot_1a"><title>gnuplot_plot_1a</title><g fill="none" stroke="currentColor" stroke-linecap="butt" stroke-linejoin="miter" stroke-width=".5" color="#000"><path stroke="#0071BC" d="M236.2,257.7 L263.4,254.3 L291.4,253.1 L319.2,254.2 L345.6,257.3 L369.6,262.5 L390.1,269.4 L406.6,277.7 L418.2,287.1 L424.6,297.2 L425.6,307.5 L421.1,317.6 L411.5,327.2 L397.1,335.7 L378.5,342.9 L356.5,348.5 L332.0,352.2 L306.1,353.9 L279.8,353.5 L254.0,351.0 L229.8,346.6 L208.3,340.4 L190.1,332.6 L176.1,323.6 L166.7,313.7 L162.3,303.3 L163.1,292.8 L168.9,282.6 L179.4,273.1 L194.3,264.6 L212.9,257.4 L234.4,251.9 L257.9,248.2 L282.5,246.4 L307.2,246.6 L331.0,248.7 L353.0,252.6 L372.3,258.1 L388.1,265.0 L399.9,272.9 L407.2,281.6 L409.8,290.6 L407.6,299.6 L400.6,308.2 L389.3,316.0 L374.2,322.8 L355.8,328.2 L334.9,332.0 L312.3,334.0 L289.2,334.3 L266.1,332.7 L244.2,329.4 L224.3,324.4 L207.2,317.9 L193.5,310.3 L183.7,301.7 L178.3,292.6 L177.3,283.3 L180.9,274.1 L188.7,265.4 L200.6,257.5 L215.9,250.7 L234.0,245.3 L254.2,241.4 L275.7,239.2 L297.5,238.7 L318.8,239.9 L338.9,242.7 L356.8,247.0 L371.9,252.6 L383.7,259.3 L391.5,266.7 L395.3,274.5 L394.8,282.4 L390.1,290.1 L381.5,297.3 L369.3,303.5 L354.0,308.7 L336.2,312.5 L316.8,314.9 L296.4,315.6 L276.0,314.7 L256.3,312.3 L238.0,308.3 L221.9,303.0 L208.7,296.5 L198.8,289.2 L192.7,281.3 L190.4,273.0 L192.2,264.8 L197.8,256.9 L207.0,249.6 L219.5,243.2 L234.7,237.9 L252.0,233.9 L270.6,231.4 L289.8,230.3 L308.8,230.8 L327.0,232.7 L343.6,236.1 L357.9,240.6 L369.3,246.1 L377.5,252.4 L382.1,259.1 L383.0,266.1 L380.2,272.9 L373.7,279.4 L364.0,285.1 L351.4,290.0 L336.5,293.8 L319.8,296.2 L302.0,297.4 L284.0,297.0 L266.3,295.3 L249.6,292.2 L234.7,287.9 L222.1,282.5 L212.3,276.2 L205.7,269.3 L202.5,262.1 L202.8,254.7 L206.5,247.5 L213.6,240.8 L223.6,234.8 L236.2,229.8 L250.9,225.8 L267.0,223.0 L283.8,221.6 L300.7,221.5 L317.1,222.7 L332.3,225.2 L345.6,228.7 L356.7,233.3 L364.9,238.6 L370.1,244.3 L372.1,250.4 L370.7,256.4 L366.2,262.2 L358.6,267.5 L348.3,272.0 L335.8,275.7 L321.6,278.2 L306.2,279.6 L290.2,279.7 L274.5,278.5 L259.4,276.2 L245.7,272.7 L233.8,268.2 L224.2,262.8 L217.4,256.9 L213.4,250.5 L212.6,244.0 L214.9,237.5 L220.1,231.4 L228.1,225.8 L238.4,221.0 L250.8,217.1 L264.6,214.2 L279.2,212.4 L294.1,211.9 L308.9,212.5 L322.7,214.3 L335.1,217.0 L345.6,220.7 L353.8,225.1 L359.3,230.0 L362.1,235.2 L361.9,240.5 L358.9,245.7 L353.1,250.5 L344.9,254.7 L334.5,258.1 L322.4,260.7 L309.1,262.2 L295.2,262.7 L281.2,262.0 L267.6,260.2 L255.0,257.4 L243.9,253.7 L234.7,249.2 L227.8,244.1 L223.4,238.5 L221.7,232.7 L222.7,226.9 L226.4,221.4 L232.6,216.2 L241.0,211.6 L251.4,207.8 L263.1,204.9 L275.9,202.9 L289.1,202.1 L302.1,202.3 L314.6,203.3 L326.0,205.4 L335.9,208.3 L343.9,211.9 L349.7,216.1 L353.0,220.6 L353.7,225.2 L351.9,229.8 L347.7,234.1 L341.2,237.9 L332.6,241.2 L322.5,243.7 L311.1,245.3 L298.9,246.0 L286.6,245.7 L274.4,244.4 L262.9,242.2 L252.6,239.2 L243.8,235.4 L237.0,230.9 L232.3,226.1 L230.0,221.0 L230.0,215.8 L232.5,210.8 L237.2,206.0 L244.0,201.8 L252.5,198.2 L262.5,195.2 L273.5,193.2 L285.0,192.0 L296.6,191.7 L307.9,192.4 L318.3,193.9 L327.6,196.2 L335.2,199.1 L341.0,202.6 L344.7,206.3 L346.2,210.3 L345.4,214.3 L342.4,218.2 L337.3,221.7 L330.4,224.7 L321.9,227.1 L312.2,228.7 L301.7,229.6 L290.7,229.6 L280.0,228.7 L269.6,227.0 L260.1,224.5 L251.8,221.3 L245.2,217.6 L240.3,213.4 L237.5,208.9 L236.8,204.3 L238.3,199.8 L241.7,195.4 L247.1,191.5 L254.1,188.0 L262.5,185.1 L271.9,183.0 L282.0,181.6 L292.2,181.0 L302.3,181.3 L311.8,182.3 L320.4,184.0 L327.7,186.4 L333.4,189.2 L337.3,192.4 L339.3,195.9 L339.3,199.4 L337.3,202.7 L333.5,205.9 L327.9,208.6 L320.9,210.9 L312.7,212.6 L303.6,213.5 L294.0,213.7 L284.5,213.2 L275.1,211.9 L266.4,209.9 L258.7,207.2 L252.3,204.0 L247.5,200.5 L244.4,196.5 L243.1,192.5 L243.7,188.3 L246.1,184.4 L250.3,180.7 L256.0,177.4 L263.0,174.6 L271.0,172.4 L279.7,170.9 L288.8,170.1 L297.7,170.0 L306.3,170.6 L314.2,171.9 L321.1,173.7 L326.6,176.1 L330.7,178.7 L333.0,181.7 L333.7,184.7 L332.5,187.7 L329.7,190.6 L325.3,193.1 L319.5,195.2 L312.6,196.8 L304.8,197.8 L296.5,198.2 L288.1,197.9 L279.7,196.9 L271.8,195.3 L264.7,193.1 L258.6,190.4 L253.8,187.3 L250.5,183.8 L248.8,180.2 L248.8,176.5 L250.4,172.9 L253.5,169.5 L258.1,166.4 L263.9,163.7 L270.7,161.6 L278.2,160.0 L286.1,159.0 L294.0,158.7 L301.7,158.9 L308.9,159.8 L315.3,161.2 L320.7,163.1 L324.7,165.3 L327.4,167.7 L328.5,170.4 L328.0,173.0 L326.0,175.5 L322.6,177.8 L317.9,179.7 L312.2,181.3 L305.6,182.3 L298.4,182.8 L290.9,182.7 L283.5,182.0 L276.3,180.7 L269.8,178.9 L264.1,176.6 L259.4,173.9 L256.1,170.9 L254.0,167.7 L253.5,164.4 L254.4,161.2 L256.7,158.0 L260.3,155.1 L265.0,152.6 L270.7,150.5 L277.1,148.8 L284.0,147.7 L291.0,147.2 L297.9,147.2 L304.5,147.7 L310.4,148.7 L315.5,150.2 L319.5,152.0 L322.2,154.0 L323.7,156.3 L323.8,158.5 L322.5,160.7 L319.9,162.8 L316.2,164.6 L311.4,166.0 L305.8,167.0 L299.6,167.6 L293.1,167.6 L286.6,167.2 L280.1,166.2 L274.1,164.7 L268.8,162.8 L264.4,160.4 L261.0,157.8 L258.8,155.0 L257.8,152.1 L258.1,149.1 L259.7,146.2 L262.5,143.6 L266.4,141.1 L271.1,139.1 L276.6,137.4 L282.5,136.2 L288.7,135.5 L294.8,135.3 L300.8,135.5 L306.2,136.3 L311.0,137.4 L314.8,138.8 L317.7,140.5 L319.4,142.4 L319.9,144.3 L319.2,146.2 L317.3,148.1 L314.4,149.7 L310.4,151.0 L305.7,152.0 L300.4,152.6 L294.7,152.7 L289.0,152.4 L283.2,151.7 L277.8,150.5 L272.9,148.8 L268.6,146.9 L265.3,144.6 L263.0,142.1 L261.8,139.5 L261.6,136.8 L262.7,134.2 L264.8,131.7 L267.8,129.4 L271.8,127.5 L276.4,125.8 L281.5,124.6 L286.9,123.7 L292.3,123.3 L297.7,123.4 L302.6,123.8 L307.1,124.6 L310.8,125.7 L313.6,127.1 L315.5,128.7 L316.3,130.3 L316.0,132.0 L314.7,133.6 L312.5,135.0 L309.3,136.3 L305.4,137.2 L300.9,137.8 L296.0,138.0 L290.8,137.8 L285.8,137.2 L280.9,136.3 L276.3,134.9 L272.4,133.2 L269.2,131.2 L266.8,129.1 L265.3,126.7 L264.9,124.3 L265.4,122.0 L267.0,119.7 L269.4,117.5 L272.6,115.6 L276.5,114.0 L280.9,112.7 L285.6,111.8 L290.3,111.3 L295.1,111.1 L299.6,111.3 L303.7,111.9 L307.2,112.7 L310.0,113.8 L312.0,115.1 L313.0,116.5 L313.1,117.9 L312.3,119.3 L310.6,120.6 L308.1,121.7 L304.8,122.6 L301.0,123.1 L296.8,123.4 L292.3,123.3 L287.9,122.9 L283.4,122.1 L279.3,121.0 L275.6,119.5 L272.5,117.8 L270.2,115.9 L268.6,113.8 L267.9,111.7 L268.1,109.5 L269.1,107.4 L271.0,105.4 L273.6,103.6 L276.8,102.1 L280.5,100.8 L284.6,99.8 L288.8,99.2 L293.0,98.8 L297.1,98.9 L300.8,99.2 L304.1,99.8 L306.8,100.7 L308.8,101.7 L310.0,102.8 L310.4,104.0 L310.0,105.2 L308.7,106.3 L306.8,107.3 L304.1,108.1 L300.9,108.7 L297.3,109.0 L293.4,108.9 L289.5,108.6 L285.5,108.0 L281.8,107.0 L278.4,105.8 L275.5,104.3 L273.1,102.6 L271.5,100.8 L270.6,98.9 L270.5,96.9 L271.1,95.0 L272.5,93.1 L274.6,91.4"/></g></g><g fill="none" stroke="currentColor" stroke-linecap="butt" stroke-linejoin="miter" stroke-width=".5" color="#000"><path stroke="#000" d="M508.8,320.9 L260.9,395.9"/></g><g fill="none" stroke="currentColor" stroke-linecap="butt" stroke-linejoin="miter" stroke-width=".5" color="#000"><path stroke="#000" d="M70.7,298.1 L260.9,395.9"/></g></g></svg>