<svg xmlns="http://www.w3.org/2000/svg" xmlns:xlink="http://www.w3.org/1999/xlink" width="560" height="420" viewBox="0 0 560 420"><title>Gnuplot</title><desc>Produced by GNUPLOT 5.4 patchlevel 0</desc><g id="gnuplot_canvas"><rect width="560" height="420" x="0" y="0" fill="none"/><defs><circle id="gpDot" r=".5" stroke="currentColor" stroke-width=".5"/><path id="gpPt0" stroke="currentColor" stroke-width=".267" d="M-1,0 h2 M0,-1 v2"/><path id="gpPt1" stroke="currentColor" stroke-width=".267" d="M-1,-1 L1,1 M1,-1 L-1,1"/><path id="gpPt2" stroke="currentColor" stroke-width=".267" d="M-1,0 L1,0 M0,-1 L0,1 M-1,-1 L1,1 M-1,1 L1,-1"/><rect id="gpPt3" width="2" height="2" x="-1" y="-1" stroke="currentColor" stroke-width=".267"/><rect id="gpPt4" width="2" height="2" x="-1" y="-1" fill="currentColor" stroke="currentColor" stroke-width=".267"/><circle id="gpPt5" cx="0" cy="0" r="1" stroke="currentColor" stroke-width=".267"/><use id="gpPt6" fill="currentColor" stroke="none" xlink:href="#gpPt5"/><path id="gpPt7" stroke="currentColor" stroke-width=".267" d="M0,-1.33 L-1.33,0.67 L1.33,0.67 z"/><use id="gpPt8" fill="currentColor" stroke="none" xlink:href="#gpPt7"/><use id="gpPt9" stroke="currentColor" transform="rotate(180)" xlink:href="#gpPt7"/><use id="gpPt10" fill="currentColor" stroke="none" xlink:href="#gpPt9"/><use id="gpPt11" stroke="currentColor" transform="rotate(45)" xlink:href="#gpPt3"/><use id="gpPt12" fill="currentColor" stroke="none" xlink:href="#gpPt11"/><path id="gpPt13" stroke="currentColor" stroke-width=".267" d="M0,1.330 L1.265,0.411 L0.782,-1.067 L-0.782,-1.076 L-1.265,0.411 z"/><use id="gpPt14" fill="currentColor" stroke="none" xlink:href="#gpPt13"/><filter id="textbox" width="1" height="1" x="0" y="0" filterUnits="objectBoundingBox"><feFlood flood-color="#fff" flood-opacity="1" result="bgnd"/><feComposite in="SourceGraphic" in2="bgnd" operator="atop"/></filter><filter id="greybox" width="1" height="1" x="0" y="0" filterUnits="objectBoundingBox"><feFlood flood-color="#d3d3d3" flood-opacity="1" result="grey"/><feComposite in="SourceGraphic" in2="grey" operator="atop"/></filter></defs><g fill="none" stroke="currentColor" stroke-linecap="butt" stroke-linejoin="miter" stroke-width=".5" color="#000"><path stroke="#000" d="M72.8,373.8 L78.4,373.8"/><g fill="#262626" stroke="none" font-family="Helvetica" font-size="10" text-anchor="end"><text transform="translate(65.8,377.1)"><tspan font-family="Helvetica">-1</tspan></text></g></g><g fill="none" stroke="currentColor" stroke-linecap="butt" stroke-linejoin="miter" stroke-width=".5" color="#000"><path stroke="#000" d="M72.8,339.6 L78.4,339.6"/><g fill="#262626" stroke="none" font-family="Helvetica" font-size="10" text-anchor="end"><text transform="translate(65.8,342.9)"><tspan font-family="Helvetica">-0.8</tspan></text></g></g><g fill="none" stroke="currentColor" stroke-linecap="butt" stroke-linejoin="miter" stroke-width=".5" color="#000"><path stroke="#000" d="M72.8,305.4 L78.4,305.4"/><g fill="#262626" stroke="none" font-family="Helvetica" font-size="10" text-anchor="end"><text transform="translate(65.8,308.7)"><tspan font-family="Helvetica">-0.6</tspan></text></g></g><g fill="none" stroke="currentColor" stroke-linecap="butt" stroke-linejoin="miter" stroke-width=".5" color="#000"><path stroke="#000" d="M72.8,271.1 L78.4,271.1"/><g fill="#262626" stroke="none" font-family="Helvetica" font-size="10" text-anchor="end"><text transform="translate(65.8,274.4)"><tspan font-family="Helvetica">-0.4</tspan></text></g></g><g fill="none" stroke="currentColor" stroke-linecap="butt" stroke-linejoin="miter" stroke-width=".5" color="#000"><path stroke="#000" d="M72.8,236.9 L78.4,236.9"/><g fill="#262626" stroke="none" font-family="Helvetica" font-size="10" text-anchor="end"><text transform="translate(65.8,240.2)"><tspan font-family="Helvetica">-0.2</tspan></text></g></g><g fill="none" stroke="currentColor" stroke-linecap="butt" stroke-linejoin="miter" stroke-width=".5" color="#000"><path stroke="#000" d="M72.8,202.7 L78.4,202.7"/><g fill="#262626" stroke="none" font-family="Helvetica" font-size="10" text-anchor="end"><text transform="translate(65.8,206.0)"><tspan font-family="Helvetica">0</tspan></text></g></g><g fill="none" stroke="currentColor" stroke-linecap="butt" stroke-linejoin="miter" stroke-width=".5" color="#000"><path stroke="#000" d="M72.8,168.5 L78.4,168.5"/><g fill="#262626" stroke="none" font-family="Helvetica" font-size="10" text-anchor="end"><text transform="translate(65.8,171.8)"><tspan font-family="Helvetica">0.2</tspan></text></g></g><g fill="none" stroke="currentColor" stroke-linecap="butt" stroke-linejoin="miter" stroke-width=".5" color="#000"><path stroke="#000" d="M72.8,134.3 L78.4,134.3"/><g fill="#262626" stroke="none" font-family="Helvetica" font-size="10" text-anchor="end"><text transform="translate(65.8,137.6)"><tspan font-family="Helvetica">0.4</tspan></text></g></g><g fill="none" stroke="currentColor" stroke-linecap="butt" stroke-linejoin="miter" stroke-width=".5" color="#000"><path stroke="#000" d="M72.8,100.0 L78.4,100.0"/><g fill="#262626" stroke="none" font-family="Helvetica" font-size="10" text-anchor="end"><text transform="translate(65.8,103.3)"><tspan font-family="Helvetica">0.6</tspan></text></g></g><g fill="none" stroke="currentColor" stroke-linecap="butt" stroke-linejoin="miter" stroke-width=".5" color="#000"><path stroke="#000" d="M72.8,65.8 L78.4,65.8"/><g fill="#262626" stroke="none" font-family="Helvetica" font-size="10" text-anchor="end"><text transform="translate(65.8,69.1)"><tspan font-family="Helvetica">0.8</tspan></text></g></g><g fill="none" stroke="currentColor" stroke-linecap="butt" stroke-linejoin="miter" stroke-width=".5" color="#000"><path stroke="#000" d="M72.8,31.6 L78.4,31.6"/><g fill="#262626" stroke="none" font-family="Helvetica" font-size="10" text-anchor="end"><text transform="translate(65.8,34.9)"><tspan font-family="Helvetica">1</tspan></text></g></g><g fill="none" stroke="currentColor" stroke-linecap="butt" stroke-linejoin="miter" stroke-width=".5" color="#000"><path stroke="#000" d="M72.8,373.8 L72.8,368.2"/><g fill="#262626" stroke="none" font-family="Helvetica" font-size="10" text-anchor="middle"><text transform="translate(72.8,392.1)"><tspan font-family="Helvetica">-10</tspan></text></g></g><g fill="none" stroke="currentColor" stroke-linecap="butt" stroke-linejoin="miter" stroke-width=".5" color="#000"><path stroke="#000" d="M181.3,373.8 L181.3,368.2"/><g fill="#262626" stroke="none" font-family="Helvetica" font-size="10" text-anchor="middle"><text transform="translate(181.3,392.1)"><tspan font-family="Helvetica">-5</tspan></text></g></g><g fill="none" stroke="currentColor" stroke-linecap="butt" stroke-linejoin="miter" stroke-width=".5" color="#000"><path stroke="#000" d="M289.8,373.8 L289.8,368.2"/><g fill="#262626" stroke="none" font-family="Helvetica" font-size="10" text-anchor="middle"><text transform="translate(289.8,392.1)"><tspan font-family="Helvetica">0</tspan></text></g></g><g fill="none" stroke="currentColor" stroke-linecap="butt" stroke-linejoin="miter" stroke-width=".5" color="#000"><path stroke="#000" d="M398.2,373.8 L398.2,368.2"/><g fill="#262626" stroke="none" font-family="Helvetica" font-size="10" text-anchor="middle"><text transform="translate(398.2,392.1)"><tspan font-family="Helvetica">5</tspan></text></g></g><g fill="none" stroke="currentColor" stroke-linecap="butt" stroke-linejoin="miter" stroke-width=".5" color="#000"><path stroke="#000" d="M506.7,373.8 L506.7,368.2"/><g fill="#262626" stroke="none" font-family="Helvetica" font-size="10" text-anchor="middle"><text transform="translate(506.7,392.1)"><tspan font-family="Helvetica">10</tspan></text></g></g><g fill="none" stroke="currentColor" stroke-linecap="butt" stroke-linejoin="miter" stroke-width=".5" color="#000"><path stroke="#000" d="M72.8,31.6 L72.8,373.8 L506.7,373.8 L506.7,31.6 L72.8,31.6 Z"/></g><g id="gnuplot_plot_1a"><title>cos(x)</title><g fill="none" stroke="currentColor" stroke-linecap="butt" stroke-linejoin="miter" stroke-width="2" color="#000"><path stroke="red" d="M72.8,346.3 L77.2,362.0 L81.6,371.3 L85.9,373.7 L90.3,369.2 L94.7,357.9 L99.1,340.3 L103.5,317.0 L107.9,289.2 L112.2,257.8 L116.6,224.2 L121.0,189.7 L125.4,155.7 L129.8,123.7 L134.2,94.8 L138.5,70.4 L142.9,51.3 L147.3,38.4 L151.7,32.2 L156.1,32.9 L160.5,40.5 L164.8,54.7 L169.2,74.9 L173.6,100.4 L178.0,130.0 L182.4,162.5 L186.8,196.7 L191.1,231.1 L195.5,264.4 L199.9,295.2 L204.3,322.2 L208.7,344.3 L213.1,360.7 L217.4,370.7 L221.8,373.8 L226.2,370.0 L230.6,359.3 L235.0,342.3 L239.3,319.6 L243.7,292.2 L248.1,261.1 L252.5,227.7 L256.9,193.2 L261.3,159.1 L265.6,126.8 L270.0,97.6 L274.4,72.6 L278.8,53.0 L283.2,39.4 L287.6,32.5 L291.9,32.5 L296.3,39.4 L300.7,53.0 L305.1,72.6 L309.5,97.6 L313.9,126.8 L318.2,159.1 L322.6,193.2 L327.0,227.7 L331.4,261.1 L335.8,292.2 L340.2,319.6 L344.5,342.3 L348.9,359.3 L353.3,370.0 L357.7,373.8 L362.1,370.7 L366.4,360.7 L370.8,344.3 L375.2,322.2 L379.6,295.2 L384.0,264.4 L388.4,231.1 L392.7,196.7 L397.1,162.5 L401.5,130.0 L405.9,100.4 L410.3,74.9 L414.7,54.7 L419.0,40.5 L423.4,32.9 L427.8,32.2 L432.2,38.4 L436.6,51.3 L441.0,70.4 L445.3,94.8 L449.7,123.7 L454.1,155.7 L458.5,189.7 L462.9,224.2 L467.3,257.8 L471.6,289.2 L476.0,317.0 L480.4,340.3 L484.8,357.9 L489.2,369.2 L493.6,373.7 L497.9,371.3 L502.3,362.0 L506.7,346.3"/><use color="red" transform="translate(72.8,346.3) scale(3.75)" xlink:href="#gpPt5"/><use color="red" transform="translate(77.2,362.0) scale(3.75)" xlink:href="#gpPt5"/><use color="red" transform="translate(81.6,371.3) scale(3.75)" xlink:href="#gpPt5"/><use color="red" transform="translate(85.9,373.7) scale(3.75)" xlink:href="#gpPt5"/><use color="red" transform="translate(90.3,369.2) scale(3.75)" xlink:href="#gpPt5"/><use color="red" transform="translate(94.7,357.9) scale(3.75)" xlink:href="#gpPt5"/><use color="red" transform="translate(99.1,340.3) scale(3.75)" xlink:href="#gpPt5"/><use color="red" transform="translate(103.5,317.0) scale(3.75)" xlink:href="#gpPt5"/><use color="red" transform="translate(107.9,289.2) scale(3.75)" xlink:href="#gpPt5"/><use color="red" transform="translate(112.2,257.8) scale(3.75)" xlink:href="#gpPt5"/><use color="red" transform="translate(116.6,224.2) scale(3.75)" xlink:href="#gpPt5"/><use color="red" transform="translate(121.0,189.7) scale(3.75)" xlink:href="#gpPt5"/><use color="red" transform="translate(125.4,155.7) scale(3.75)" xlink:href="#gpPt5"/><use color="red" transform="translate(129.8,123.7) scale(3.75)" xlink:href="#gpPt5"/><use color="red" transform="translate(134.2,94.8) scale(3.75)" xlink:href="#gpPt5"/><use color="red" transform="translate(138.5,70.4) scale(3.75)" xlink:href="#gpPt5"/><use color="red" transform="translate(142.9,51.3) scale(3.75)" xlink:href="#gpPt5"/><use color="red" transform="translate(147.3,38.4) scale(3.75)" xlink:href="#gpPt5"/><use color="red" transform="translate(151.7,32.2) scale(3.75)" xlink:href="#gpPt5"/><use color="red" transform="translate(156.1,32.9) scale(3.75)" xlink:href="#gpPt5"/><use color="red" transform="translate(160.5,40.5) scale(3.75)" xlink:href="#gpPt5"/><use color="red" transform="translate(164.8,54.7) scale(3.75)" xlink:href="#gpPt5"/><use color="red" transform="translate(169.2,74.9) scale(3.75)" xlink:href="#gpPt5"/><use color="red" transform="translate(173.6,100.4) scale(3.75)" xlink:href="#gpPt5"/><use color="red" transform="translate(178.0,130.0) scale(3.75)" xlink:href="#gpPt5"/><use color="red" transform="translate(182.4,162.5) scale(3.75)" xlink:href="#gpPt5"/><use color="red" transform="translate(186.8,196.7) scale(3.75)" xlink:href="#gpPt5"/><use color="red" transform="translate(191.1,231.1) scale(3.75)" xlink:href="#gpPt5"/><use color="red" transform="translate(195.5,264.4) scale(3.75)" xlink:href="#gpPt5"/><use color="red" transform="translate(199.9,295.2) scale(3.75)" xlink:href="#gpPt5"/><use color="red" transform="translate(204.3,322.2) scale(3.75)" xlink:href="#gpPt5"/><use color="red" transform="translate(208.7,344.3) scale(3.75)" xlink:href="#gpPt5"/><use color="red" transform="translate(213.1,360.7) scale(3.75)" xlink:href="#gpPt5"/><use color="red" transform="translate(217.4,370.7) scale(3.75)" xlink:href="#gpPt5"/><use color="red" transform="translate(221.8,373.8) scale(3.75)" xlink:href="#gpPt5"/><use color="red" transform="translate(226.2,370.0) scale(3.75)" xlink:href="#gpPt5"/><use color="red" transform="translate(230.6,359.3) scale(3.75)" xlink:href="#gpPt5"/><use color="red" transform="translate(235.0,342.3) scale(3.75)" xlink:href="#gpPt5"/><use color="red" transform="translate(239.3,319.6) scale(3.75)" xlink:href="#gpPt5"/><use color="red" transform="translate(243.7,292.2) scale(3.75)" xlink:href="#gpPt5"/><use color="red" transform="translate(248.1,261.1) scale(3.75)" xlink:href="#gpPt5"/><use color="red" transform="translate(252.5,227.7) scale(3.75)" xlink:href="#gpPt5"/><use color="red" transform="translate(256.9,193.2) scale(3.75)" xlink:href="#gpPt5"/><use color="red" transform="translate(261.3,159.1) scale(3.75)" xlink:href="#gpPt5"/><use color="red" transform="translate(265.6,126.8) scale(3.75)" xlink:href="#gpPt5"/><use color="red" transform="translate(270.0,97.6) scale(3.75)" xlink:href="#gpPt5"/><use color="red" transform="translate(274.4,72.6) scale(3.75)" xlink:href="#gpPt5"/><use color="red" transform="translate(278.8,53.0) scale(3.75)" xlink:href="#gpPt5"/><use color="red" transform="translate(283.2,39.4) scale(3.75)" xlink:href="#gpPt5"/><use color="red" transform="translate(287.6,32.5) scale(3.75)" xlink:href="#gpPt5"/><use color="red" transform="translate(291.9,32.5) scale(3.75)" xlink:href="#gpPt5"/><use color="red" transform="translate(296.3,39.4) scale(3.75)" xlink:href="#gpPt5"/><use color="red" transform="translate(300.7,53.0) scale(3.75)" xlink:href="#gpPt5"/><use color="red" transform="translate(305.1,72.6) scale(3.75)" xlink:href="#gpPt5"/><use color="red" transform="translate(309.5,97.6) scale(3.75)" xlink:href="#gpPt5"/><use color="red" transform="translate(313.9,126.8) scale(3.75)" xlink:href="#gpPt5"/><use color="red" transform="translate(318.2,159.1) scale(3.75)" xlink:href="#gpPt5"/><use color="red" transform="translate(322.6,193.2) scale(3.75)" xlink:href="#gpPt5"/><use color="red" transform="translate(327.0,227.7) scale(3.75)" xlink:href="#gpPt5"/><use color="red" transform="translate(331.4,261.1) scale(3.75)" xlink:href="#gpPt5"/><use color="red" transform="translate(335.8,292.2) scale(3.75)" xlink:href="#gpPt5"/><use color="red" transform="translate(340.2,319.6) scale(3.75)" xlink:href="#gpPt5"/><use color="red" transform="translate(344.5,342.3) scale(3.75)" xlink:href="#gpPt5"/><use color="red" transform="translate(348.9,359.3) scale(3.75)" xlink:href="#gpPt5"/><use color="red" transform="translate(353.3,370.0) scale(3.75)" xlink:href="#gpPt5"/><use color="red" transform="translate(357.7,373.8) scale(3.75)" xlink:href="#gpPt5"/><use color="red" transform="translate(362.1,370.7) scale(3.75)" xlink:href="#gpPt5"/><use color="red" transform="translate(366.4,360.7) scale(3.75)" xlink:href="#gpPt5"/><use color="red" transform="translate(370.8,344.3) scale(3.75)" xlink:href="#gpPt5"/><use color="red" transform="translate(375.2,322.2) scale(3.75)" xlink:href="#gpPt5"/><use color="red" transform="translate(379.6,295.2) scale(3.75)" xlink:href="#gpPt5"/><use color="red" transform="translate(384.0,264.4) scale(3.75)" xlink:href="#gpPt5"/><use color="red" transform="translate(388.4,231.1) scale(3.75)" xlink:href="#gpPt5"/><use color="red" transform="translate(392.7,196.7) scale(3.75)" xlink:href="#gpPt5"/><use color="red" transform="translate(397.1,162.5) scale(3.75)" xlink:href="#gpPt5"/><use color="red" transform="translate(401.5,130.0) scale(3.75)" xlink:href="#gpPt5"/><use color="red" transform="translate(405.9,100.4) scale(3.75)" xlink:href="#gpPt5"/><use color="red" transform="translate(410.3,74.9) scale(3.75)" xlink:href="#gpPt5"/><use color="red" transform="translate(414.7,54.7) scale(3.75)" xlink:href="#gpPt5"/><use color="red" transform="translate(419.0,40.5) scale(3.75)" xlink:href="#gpPt5"/><use color="red" transform="translate(423.4,32.9) scale(3.75)" xlink:href="#gpPt5"/><use color="red" transform="translate(427.8,32.2) scale(3.75)" xlink:href="#gpPt5"/><use color="red" transform="translate(432.2,38.4) scale(3.75)" xlink:href="#gpPt5"/><use color="red" transform="translate(436.6,51.3) scale(3.75)" xlink:href="#gpPt5"/><use color="red" transform="translate(441.0,70.4) scale(3.75)" xlink:href="#gpPt5"/><use color="red" transform="translate(445.3,94.8) scale(3.75)" xlink:href="#gpPt5"/><use color="red" transform="translate(449.7,123.7) scale(3.75)" xlink:href="#gpPt5"/><use color="red" transform="translate(454.1,155.7) scale(3.75)" xlink:href="#gpPt5"/><use color="red" transform="translate(458.5,189.7) scale(3.75)" xlink:href="#gpPt5"/><use color="red" transform="translate(462.9,224.2) scale(3.75)" xlink:href="#gpPt5"/><use color="red" transform="translate(467.3,257.8) scale(3.75)" xlink:href="#gpPt5"/><use color="red" transform="translate(471.6,289.2) scale(3.75)" xlink:href="#gpPt5"/><use color="red" transform="translate(476.0,317.0) scale(3.75)" xlink:href="#gpPt5"/><use color="red" transform="translate(480.4,340.3) scale(3.75)" xlink:href="#gpPt5"/><use color="red" transform="translate(484.8,357.9) scale(3.75)" xlink:href="#gpPt5"/><use color="red" transform="translate(489.2,369.2) scale(3.75)" xlink:href="#gpPt5"/><use color="red" transform="translate(493.6,373.7) scale(3.75)" xlink:href="#gpPt5"/><use color="red" transform="translate(497.9,371.3) scale(3.75)" xlink:href="#gpPt5"/><use color="red" transform="translate(502.3,362.0) scale(3.75)" xlink:href="#gpPt5"/><use color="red" transform="translate(506.7,346.3) scale(3.75)" xlink:href="#gpPt5"/></g></g><g id="gnuplot_plot_2a"><title>&apos;-&apos;</title><g fill="none" stroke="currentColor" stroke-linecap="butt" stroke-linejoin="miter" stroke-width="2" color="#000"><path stroke="#00F" stroke-dasharray="10 10 10 10" d="M72.8,109.6 L73.7,115.4 L74.5,121.4 L75.4,127.5 L76.3,133.7 L77.1,140.1 L78.0,146.5 L78.9,153.0 L79.8,159.6 L80.6,166.3 L81.5,173.0 L82.4,179.8 L83.2,186.6 L84.1,193.4 L85.0,200.3 L85.8,207.1 L86.7,214.0 L87.6,220.8 L88.5,227.6 L89.3,234.4 L90.2,241.1 L91.1,247.8 L91.9,254.3 L92.8,260.8 L93.7,267.2 L94.5,273.5 L95.4,279.7 L96.3,285.8 L97.1,291.7 L98.0,297.5 L98.9,303.1 L99.8,308.6 L100.6,313.9 L101.5,319.0 L102.4,323.9 L103.2,328.7 L104.1,333.2 L105.0,337.5 L105.8,341.7 L106.7,345.5 L107.6,349.2 L108.5,352.6 L109.3,355.8 L110.2,358.7 L111.1,361.4 L111.9,363.9 L112.8,366.0 L113.7,367.9 L114.5,369.6 L115.4,371.0 L116.3,372.1 L117.1,372.9 L118.0,373.5 L118.9,373.8 L119.8,373.8 L120.6,373.5 L121.5,373.0 L122.4,372.2 L123.2,371.1 L124.1,369.7 L125.0,368.1 L125.8,366.2 L126.7,364.1 L127.6,361.7 L128.5,359.0 L129.3,356.1 L130.2,352.9 L131.1,349.5 L131.9,345.9 L132.8,342.0 L133.7,337.9 L134.5,333.6 L135.4,329.1 L136.3,324.4 L137.1,319.4 L138.0,314.3 L138.9,309.0 L139.8,303.6 L140.6,298.0 L141.5,292.2 L142.4,286.3 L143.2,280.2 L144.1,274.1 L145.0,267.8 L145.8,261.4 L146.7,254.9 L147.6,248.3 L148.4,241.7 L149.3,235.0 L150.2,228.2 L151.1,221.4 L151.9,214.6 L152.8,207.7 L153.7,200.9 L154.5,194.0 L155.4,187.2 L156.3,180.4 L157.1,173.6 L158.0,166.9 L158.9,160.2 L159.8,153.6 L160.6,147.0 L161.5,140.6 L162.4,134.3 L163.2,128.0 L164.1,121.9 L165.0,116.0 L165.8,110.1 L166.7,104.4 L167.6,98.9 L168.4,93.5 L169.3,88.3 L170.2,83.3 L171.1,78.5 L171.9,73.9 L172.8,69.5 L173.7,65.3 L174.5,61.3 L175.4,57.6 L176.3,54.1 L177.1,50.8 L178.0,47.7 L178.9,45.0 L179.8,42.4 L180.6,40.2 L181.5,38.2 L182.4,36.4 L183.2,34.9 L184.1,33.7 L185.0,32.8 L185.8,32.1 L186.7,31.7 L187.6,31.6 L188.4,31.8 L189.3,32.2 L190.2,32.9 L191.1,33.9 L191.9,35.1 L192.8,36.6 L193.7,38.4 L194.5,40.5 L195.4,42.8 L196.3,45.4 L197.1,48.2 L198.0,51.2 L198.9,54.6 L199.8,58.1 L200.6,61.9 L201.5,65.9 L202.4,70.1 L203.2,74.6 L204.1,79.2 L205.0,84.1 L205.8,89.1 L206.7,94.3 L207.6,99.7 L208.4,105.3 L209.3,111.0 L210.2,116.8 L211.1,122.8 L211.9,129.0 L212.8,135.2 L213.7,141.6 L214.5,148.0 L215.4,154.6 L216.3,161.2 L217.1,167.9 L218.0,174.6 L218.9,181.4 L219.8,188.2 L220.6,195.0 L221.5,201.9 L222.4,208.8 L223.2,215.6 L224.1,222.4 L225.0,229.2 L225.8,236.0 L226.7,242.7 L227.6,249.3 L228.4,255.9 L229.3,262.3 L230.2,268.7 L231.1,275.0 L231.9,281.1 L232.8,287.2 L233.7,293.1 L234.5,298.8 L235.4,304.4 L236.3,309.8 L237.1,315.1 L238.0,320.2 L238.9,325.1 L239.8,329.8 L240.6,334.3 L241.5,338.5 L242.4,342.6 L243.2,346.4 L244.1,350.0 L245.0,353.4 L245.8,356.5 L246.7,359.4 L247.6,362.0 L248.4,364.4 L249.3,366.5 L250.2,368.4 L251.1,369.9 L251.9,371.3 L252.8,372.3 L253.7,373.1 L254.5,373.6 L255.4,373.8 L256.3,373.7 L257.1,373.4 L258.0,372.8 L258.9,371.9 L259.8,370.8 L260.6,369.4 L261.5,367.7 L262.4,365.7 L263.2,363.5 L264.1,361.1 L265.0,358.3 L265.8,355.4 L266.7,352.1 L267.6,348.7 L268.4,345.0 L269.3,341.1 L270.2,336.9 L271.1,332.6 L271.9,328.0 L272.8,323.2 L273.7,318.3 L274.5,313.1 L275.4,307.8 L276.3,302.3 L277.1,296.6 L278.0,290.8 L278.9,284.9 L279.8,278.8 L280.6,272.6 L281.5,266.3 L282.4,259.9 L283.2,253.4 L284.1,246.8 L285.0,240.1 L285.8,233.4 L286.7,226.6 L287.6,219.8 L288.4,213.0 L289.3,206.1 L290.2,199.3 L291.1,192.4 L291.9,185.6 L292.8,178.8 L293.7,172.0 L294.5,165.3 L295.4,158.6 L296.3,152.0 L297.1,145.5 L298.0,139.1 L298.9,132.8 L299.7,126.6 L300.6,120.5 L301.5,114.6 L302.4,108.8 L303.2,103.1 L304.1,97.6 L305.0,92.3 L305.8,87.1 L306.7,82.2 L307.6,77.4 L308.4,72.8 L309.3,68.5 L310.2,64.3 L311.1,60.4 L311.9,56.7 L312.8,53.3 L313.7,50.0 L314.5,47.1 L315.4,44.3 L316.3,41.9 L317.1,39.7 L318.0,37.7 L318.9,36.0 L319.7,34.6 L320.6,33.5 L321.5,32.6 L322.4,32.0 L323.2,31.7 L324.1,31.6 L325.0,31.8 L325.8,32.3 L326.7,33.1 L327.6,34.1 L328.4,35.5 L329.3,37.0 L330.2,38.9 L331.1,41.0 L331.9,43.4 L332.8,46.0 L333.7,48.9 L334.5,52.0 L335.4,55.4 L336.3,59.0 L337.1,62.8 L338.0,66.9 L338.9,71.1 L339.7,75.6 L340.6,80.3 L341.5,85.2 L342.4,90.3 L343.2,95.6 L344.1,101.0 L345.0,106.6 L345.8,112.3 L346.7,118.2 L347.6,124.3 L348.4,130.4 L349.3,136.7 L350.2,143.1 L351.1,149.5 L351.9,156.1 L352.8,162.7 L353.7,169.4 L354.5,176.2 L355.4,183.0 L356.3,189.8 L357.1,196.6 L358.0,203.5 L358.9,210.4 L359.7,217.2 L360.6,224.0 L361.5,230.8 L362.4,237.5 L363.2,244.2 L364.1,250.8 L365.0,257.4 L365.8,263.8 L366.7,270.2 L367.6,276.4 L368.4,282.6 L369.3,288.6 L370.2,294.4 L371.1,300.1 L371.9,305.7 L372.8,311.1 L373.7,316.3 L374.5,321.3 L375.4,326.2 L376.3,330.8 L377.1,335.3 L378.0,339.5 L378.9,343.5 L379.7,347.3 L380.6,350.8 L381.5,354.2 L382.4,357.2 L383.2,360.0 L384.1,362.6 L385.0,364.9 L385.8,367.0 L386.7,368.8 L387.6,370.3 L388.4,371.5 L389.3,372.5 L390.2,373.2 L391.1,373.6 L391.9,373.8 L392.8,373.7 L393.7,373.3 L394.5,372.6 L395.4,371.7 L396.3,370.5 L397.1,369.0 L398.0,367.2 L398.9,365.2 L399.7,363.0 L400.6,360.4 L401.5,357.7 L402.4,354.6 L403.2,351.3 L404.1,347.8 L405.0,344.1 L405.8,340.1 L406.7,335.9 L407.6,331.5 L408.4,326.9 L409.3,322.1 L410.2,317.1 L411.1,311.9 L411.9,306.5 L412.8,301.0 L413.7,295.3 L414.5,289.4 L415.4,283.5 L416.3,277.4 L417.1,271.1 L418.0,264.8 L418.9,258.4 L419.7,251.8 L420.6,245.2 L421.5,238.5 L422.4,231.8 L423.2,225.0 L424.1,218.2 L425.0,211.4 L425.8,204.5 L426.7,197.7 L427.6,190.8 L428.4,184.0 L429.3,177.2 L430.2,170.4 L431.1,163.7 L431.9,157.1 L432.8,150.5 L433.7,144.0 L434.5,137.6 L435.4,131.3 L436.3,125.2 L437.1,119.1 L438.0,113.2 L438.9,107.4 L439.7,101.8 L440.6,96.4 L441.5,91.1 L442.4,86.0 L443.2,81.0 L444.1,76.3 L445.0,71.8 L445.8,67.5 L446.7,63.4 L447.6,59.5 L448.4,55.9 L449.3,52.5 L450.2,49.3 L451.0,46.4 L451.9,43.7 L452.8,41.3 L453.7,39.2 L454.5,37.3 L455.4,35.7 L456.3,34.3 L457.1,33.2 L458.0,32.4 L458.9,31.9 L459.7,31.6 L460.6,31.6 L461.5,31.9 L462.4,32.5 L463.2,33.3 L464.1,34.4 L465.0,35.8 L465.8,37.5 L466.7,39.4 L467.6,41.5 L468.4,44.0 L469.3,46.7 L470.2,49.6 L471.0,52.8 L471.9,56.2 L472.8,59.9 L473.7,63.7 L474.5,67.9 L475.4,72.2 L476.3,76.7 L477.1,81.5 L478.0,86.4 L478.9,91.5 L479.7,96.8 L480.6,102.3 L481.5,107.9 L482.4,113.7 L483.2,119.6 L484.1,125.7 L485.0,131.9 L485.8,138.2 L486.7,144.6 L487.6,151.1 L488.4,157.6 L489.3,164.3 L490.2,171.0 L491.0,177.8 L491.9,184.6 L492.8,191.4 L493.7,198.3 L494.5,205.1 L495.4,212.0 L496.3,218.8 L497.1,225.6 L498.0,232.4 L498.9,239.1 L499.7,245.8 L500.6,252.4 L501.5,258.9 L502.4,265.3 L503.2,271.7 L504.1,277.9 L505.0,284.0 L505.8,290.0 L506.7,295.8"/><use color="#00F" transform="translate(72.8,109.6) scale(3.75)" xlink:href="#gpPt1"/><use color="#00F" transform="translate(73.7,115.4) scale(3.75)" xlink:href="#gpPt1"/><use color="#00F" transform="translate(74.5,121.4) scale(3.75)" xlink:href="#gpPt1"/><use color="#00F" transform="translate(75.4,127.5) scale(3.75)" xlink:href="#gpPt1"/><use color="#00F" transform="translate(76.3,133.7) scale(3.75)" xlink:href="#gpPt1"/><use color="#00F" transform="translate(77.1,140.1) scale(3.75)" xlink:href="#gpPt1"/><use color="#00F" transform="translate(78.0,146.5) scale(3.75)" xlink:href="#gpPt1"/><use color="#00F" transform="translate(78.9,153.0) scale(3.75)" xlink:href="#gpPt1"/><use color="#00F" transform="translate(79.8,159.6) scale(3.75)" xlink:href="#gpPt1"/><use color="#00F" transform="translate(80.6,166.3) scale(3.75)" xlink:href="#gpPt1"/><use color="#00F" transform="translate(81.5,173.0) scale(3.75)" xlink:href="#gpPt1"/><use color="#00F" transform="translate(82.4,179.8) scale(3.75)" xlink:href="#gpPt1"/><use color="#00F" transform="translate(83.2,186.6) scale(3.75)" xlink:href="#gpPt1"/><use color="#00F" transform="translate(84.1,193.4) scale(3.75)" xlink:href="#gpPt1"/><use color="#00F" transform="translate(85.0,200.3) scale(3.75)" xlink:href="#gpPt1"/><use color="#00F" transform="translate(85.8,207.1) scale(3.75)" xlink:href="#gpPt1"/><use color="#00F" transform="translate(86.7,214.0) scale(3.75)" xlink:href="#gpPt1"/><use color="#00F" transform="translate(87.6,220.8) scale(3.75)" xlink:href="#gpPt1"/><use color="#00F" transform="translate(88.5,227.6) scale(3.75)" xlink:href="#gpPt1"/><use color="#00F" transform="translate(89.3,234.4) scale(3.75)" xlink:href="#gpPt1"/><use color="#00F" transform="translate(90.2,241.1) scale(3.75)" xlink:href="#gpPt1"/><use color="#00F" transform="translate(91.1,247.8) scale(3.75)" xlink:href="#gpPt1"/><use color="#00F" transform="translate(91.9,254.3) scale(3.75)" xlink:href="#gpPt1"/><use color="#00F" transform="translate(92.8,260.8) scale(3.75)" xlink:href="#gpPt1"/><use color="#00F" transform="translate(93.7,267.2) scale(3.75)" xlink:href="#gpPt1"/><use color="#00F" transform="translate(94.5,273.5) scale(3.75)" xlink:href="#gpPt1"/><use color="#00F" transform="translate(95.4,279.7) scale(3.75)" xlink:href="#gpPt1"/><use color="#00F" transform="translate(96.3,285.8) scale(3.75)" xlink:href="#gpPt1"/><use color="#00F" transform="translate(97.1,291.7) scale(3.75)" xlink:href="#gpPt1"/><use color="#00F" transform="translate(98.0,297.5) scale(3.75)" xlink:href="#gpPt1"/><use color="#00F" transform="translate(98.9,303.1) scale(3.75)" xlink:href="#gpPt1"/><use color="#00F" transform="translate(99.8,308.6) scale(3.75)" xlink:href="#gpPt1"/><use color="#00F" transform="translate(100.6,313.9) scale(3.75)" xlink:href="#gpPt1"/><use color="#00F" transform="translate(101.5,319.0) scale(3.75)" xlink:href="#gpPt1"/><use color="#00F" transform="translate(102.4,323.9) scale(3.75)" xlink:href="#gpPt1"/><use color="#00F" transform="translate(103.2,328.7) scale(3.75)" xlink:href="#gpPt1"/><use color="#00F" transform="translate(104.1,333.2) scale(3.75)" xlink:href="#gpPt1"/><use color="#00F" transform="translate(105.0,337.5) scale(3.75)" xlink:href="#gpPt1"/><use color="#00F" transform="translate(105.8,341.7) scale(3.75)" xlink:href="#gpPt1"/><use color="#00F" transform="translate(106.7,345.5) scale(3.75)" xlink:href="#gpPt1"/><use color="#00F" transform="translate(107.6,349.2) scale(3.75)" xlink:href="#gpPt1"/><use color="#00F" transform="translate(108.5,352.6) scale(3.75)" xlink:href="#gpPt1"/><use color="#00F" transform="translate(109.3,355.8) scale(3.75)" xlink:href="#gpPt1"/><use color="#00F" transform="translate(110.2,358.7) scale(3.75)" xlink:href="#gpPt1"/><use color="#00F" transform="translate(111.1,361.4) scale(3.75)" xlink:href="#gpPt1"/><use color="#00F" transform="translate(111.9,363.9) scale(3.75)" xlink:href="#gpPt1"/><use color="#00F" transform="translate(112.8,366.0) scale(3.75)" xlink:href="#gpPt1"/><use color="#00F" transform="translate(113.7,367.9) scale(3.75)" xlink:href="#gpPt1"/><use color="#00F" transform="translate(114.5,369.6) scale(3.75)" xlink:href="#gpPt1"/><use color="#00F" transform="translate(115.4,371.0) scale(3.75)" xlink:href="#gpPt1"/><use color="#00F" transform="translate(116.3,372.1) scale(3.75)" xlink:href="#gpPt1"/><use color="#00F" transform="translate(117.1,372.9) scale(3.75)" xlink:href="#gpPt1"/><use color="#00F" transform="translate(118.0,373.5) scale(3.75)" xlink:href="#gpPt1"/><use color="#00F" transform="translate(118.9,373.8) scale(3.75)" xlink:href="#gpPt1"/><use color="#00F" transform="translate(119.8,373.8) scale(3.75)" xlink:href="#gpPt1"/><use color="#00F" transform="translate(120.6,373.5) scale(3.75)" xlink:href="#gpPt1"/><use color="#00F" transform="translate(121.5,373.0) scale(3.75)" xlink:href="#gpPt1"/><use color="#00F" transform="translate(122.4,372.2) scale(3.75)" xlink:href="#gpPt1"/><use color="#00F" transform="translate(123.2,371.1) scale(3.75)" xlink:href="#gpPt1"/><use color="#00F" transform="translate(124.1,369.7) scale(3.75)" xlink:href="#gpPt1"/><use color="#00F" transform="translate(125.0,368.1) scale(3.75)" xlink:href="#gpPt1"/><use color="#00F" transform="translate(125.8,366.2) scale(3.75)" xlink:href="#gpPt1"/><use color="#00F" transform="translate(126.7,364.1) scale(3.75)" xlink:href="#gpPt1"/><use color="#00F" transform="translate(127.6,361.7) scale(3.75)" xlink:href="#gpPt1"/><use color="#00F" transform="translate(128.5,359.0) scale(3.75)" xlink:href="#gpPt1"/><use color="#00F" transform="translate(129.3,356.1) scale(3.75)" xlink:href="#gpPt1"/><use color="#00F" transform="translate(130.2,352.9) scale(3.75)" xlink:href="#gpPt1"/><use color="#00F" transform="translate(131.1,349.5) scale(3.75)" xlink:href="#gpPt1"/><use color="#00F" transform="translate(131.9,345.9) scale(3.75)" xlink:href="#gpPt1"/><use color="#00F" transform="translate(132.8,342.0) scale(3.75)" xlink:href="#gpPt1"/><use color="#00F" transform="translate(133.7,337.9) scale(3.75)" xlink:href="#gpPt1"/><use color="#00F" transform="translate(134.5,333.6) scale(3.75)" xlink:href="#gpPt1"/><use color="#00F" transform="translate(135.4,329.1) scale(3.75)" xlink:href="#gpPt1"/><use color="#00F" transform="translate(136.3,324.4) scale(3.75)" xlink:href="#gpPt1"/><use color="#00F" transform="translate(137.1,319.4) scale(3.75)" xlink:href="#gpPt1"/><use color="#00F" transform="translate(138.0,314.3) scale(3.75)" xlink:href="#gpPt1"/><use color="#00F" transform="translate(138.9,309.0) scale(3.75)" xlink:href="#gpPt1"/><use color="#00F" transform="translate(139.8,303.6) scale(3.75)" xlink:href="#gpPt1"/><use color="#00F" transform="translate(140.6,298.0) scale(3.75)" xlink:href="#gpPt1"/><use color="#00F" transform="translate(141.5,292.2) scale(3.75)" xlink:href="#gpPt1"/><use color="#00F" transform="translate(142.4,286.3) scale(3.75)" xlink:href="#gpPt1"/><use color="#00F" transform="translate(143.2,280.2) scale(3.75)" xlink:href="#gpPt1"/><use color="#00F" transform="translate(144.1,274.1) scale(3.75)" xlink:href="#gpPt1"/><use color="#00F" transform="translate(145.0,267.8) scale(3.75)" xlink:href="#gpPt1"/><use color="#00F" transform="translate(145.8,261.4) scale(3.75)" xlink:href="#gpPt1"/><use color="#00F" transform="translate(146.7,254.9) scale(3.75)" xlink:href="#gpPt1"/><use color="#00F" transform="translate(147.6,248.3) scale(3.75)" xlink:href="#gpPt1"/><use color="#00F" transform="translate(148.4,241.7) scale(3.75)" xlink:href="#gpPt1"/><use color="#00F" transform="translate(149.3,235.0) scale(3.75)" xlink:href="#gpPt1"/><use color="#00F" transform="translate(150.2,228.2) scale(3.75)" xlink:href="#gpPt1"/><use color="#00F" transform="translate(151.1,221.4) scale(3.75)" xlink:href="#gpPt1"/><use color="#00F" transform="translate(151.9,214.6) scale(3.75)" xlink:href="#gpPt1"/><use color="#00F" transform="translate(152.8,207.7) scale(3.75)" xlink:href="#gpPt1"/><use color="#00F" transform="translate(153.7,200.9) scale(3.75)" xlink:href="#gpPt1"/><use color="#00F" transform="translate(154.5,194.0) scale(3.75)" xlink:href="#gpPt1"/><use color="#00F" transform="translate(155.4,187.2) scale(3.75)" xlink:href="#gpPt1"/><use color="#00F" transform="translate(156.3,180.4) scale(3.75)" xlink:href="#gpPt1"/><use color="#00F" transform="translate(157.1,173.6) scale(3.75)" xlink:href="#gpPt1"/><use color="#00F" transform="translate(158.0,166.9) scale(3.75)" xlink:href="#gpPt1"/><use color="#00F" transform="translate(158.9,160.2) scale(3.75)" xlink:href="#gpPt1"/><use color="#00F" transform="translate(159.8,153.6) scale(3.75)" xlink:href="#gpPt1"/><use color="#00F" transform="translate(160.6,147.0) scale(3.75)" xlink:href="#gpPt1"/><use color="#00F" transform="translate(161.5,140.6) scale(3.75)" xlink:href="#gpPt1"/><use color="#00F" transform="translate(162.4,134.3) scale(3.75)" xlink:href="#gpPt1"/><use color="#00F" transform="translate(163.2,128.0) scale(3.75)" xlink:href="#gpPt1"/><use color="#00F" transform="translate(164.1,121.9) scale(3.75)" xlink:href="#gpPt1"/><use color="#00F" transform="translate(165.0,116.0) scale(3.75)" xlink:href="#gpPt1"/><use color="#00F" transform="translate(165.8,110.1) scale(3.75)" xlink:href="#gpPt1"/><use color="#00F" transform="translate(166.7,104.4) scale(3.75)" xlink:href="#gpPt1"/><use color="#00F" transform="translate(167.6,98.9) scale(3.75)" xlink:href="#gpPt1"/><use color="#00F" transform="translate(168.4,93.5) scale(3.75)" xlink:href="#gpPt1"/><use color="#00F" transform="translate(169.3,88.3) scale(3.75)" xlink:href="#gpPt1"/><use color="#00F" transform="translate(170.2,83.3) scale(3.75)" xlink:href="#gpPt1"/><use color="#00F" transform="translate(171.1,78.5) scale(3.75)" xlink:href="#gpPt1"/><use color="#00F" transform="translate(171.9,73.9) scale(3.75)" xlink:href="#gpPt1"/><use color="#00F" transform="translate(172.8,69.5) scale(3.75)" xlink:href="#gpPt1"/><use color="#00F" transform="translate(173.7,65.3) scale(3.75)" xlink:href="#gpPt1"/><use color="#00F" transform="translate(174.5,61.3) scale(3.75)" xlink:href="#gpPt1"/><use color="#00F" transform="translate(175.4,57.6) scale(3.75)" xlink:href="#gpPt1"/><use color="#00F" transform="translate(176.3,54.1) scale(3.75)" xlink:href="#gpPt1"/><use color="#00F" transform="translate(177.1,50.8) scale(3.75)" xlink:href="#gpPt1"/><use color="#00F" transform="translate(178.0,47.7) scale(3.75)" xlink:href="#gpPt1"/><use color="#00F" transform="translate(178.9,45.0) scale(3.75)" xlink:href="#gpPt1"/><use color="#00F" transform="translate(179.8,42.4) scale(3.75)" xlink:href="#gpPt1"/><use color="#00F" transform="translate(180.6,40.2) scale(3.75)" xlink:href="#gpPt1"/><use color="#00F" transform="translate(181.5,38.2) scale(3.75)" xlink:href="#gpPt1"/><use color="#00F" transform="translate(182.4,36.4) scale(3.75)" xlink:href="#gpPt1"/><use color="#00F" transform="translate(183.2,34.9) scale(3.75)" xlink:href="#gpPt1"/><use color="#00F" transform="translate(184.1,33.7) scale(3.75)" xlink:href="#gpPt1"/><use color="#00F" transform="translate(185.0,32.8) scale(3.75)" xlink:href="#gpPt1"/><use color="#00F" transform="translate(185.8,32.1) scale(3.75)" xlink:href="#gpPt1"/><use color="#00F" transform="translate(186.7,31.7) scale(3.75)" xlink:href="#gpPt1"/><use color="#00F" transform="translate(187.6,31.6) scale(3.75)" xlink:href="#gpPt1"/><use color="#00F" transform="translate(188.4,31.8) scale(3.75)" xlink:href="#gpPt1"/><use color="#00F" transform="translate(189.3,32.2) scale(3.75)" xlink:href="#gpPt1"/><use color="#00F" transform="translate(190.2,32.9) scale(3.75)" xlink:href="#gpPt1"/><use color="#00F" transform="translate(191.1,33.9) scale(3.75)" xlink:href="#gpPt1"/><use color="#00F" transform="translate(191.9,35.1) scale(3.75)" xlink:href="#gpPt1"/><use color="#00F" transform="translate(192.8,36.6) scale(3.75)" xlink:href="#gpPt1"/><use color="#00F" transform="translate(193.7,38.4) scale(3.75)" xlink:href="#gpPt1"/><use color="#00F" transform="translate(194.5,40.5) scale(3.75)" xlink:href="#gpPt1"/><use color="#00F" transform="translate(195.4,42.8) scale(3.75)" xlink:href="#gpPt1"/><use color="#00F" transform="translate(196.3,45.4) scale(3.75)" xlink:href="#gpPt1"/><use color="#00F" transform="translate(197.1,48.2) scale(3.75)" xlink:href="#gpPt1"/><use color="#00F" transform="translate(198.0,51.2) scale(3.75)" xlink:href="#gpPt1"/><use color="#00F" transform="translate(198.9,54.6) scale(3.75)" xlink:href="#gpPt1"/><use color="#00F" transform="translate(199.8,58.1) scale(3.75)" xlink:href="#gpPt1"/><use color="#00F" transform="translate(200.6,61.9) scale(3.75)" xlink:href="#gpPt1"/><use color="#00F" transform="translate(201.5,65.9) scale(3.75)" xlink:href="#gpPt1"/><use color="#00F" transform="translate(202.4,70.1) scale(3.75)" xlink:href="#gpPt1"/><use color="#00F" transform="translate(203.2,74.6) scale(3.75)" xlink:href="#gpPt1"/><use color="#00F" transform="translate(204.1,79.2) scale(3.75)" xlink:href="#gpPt1"/><use color="#00F" transform="translate(205.0,84.1) scale(3.75)" xlink:href="#gpPt1"/><use color="#00F" transform="translate(205.8,89.1) scale(3.75)" xlink:href="#gpPt1"/><use color="#00F" transform="translate(206.7,94.3) scale(3.75)" xlink:href="#gpPt1"/><use color="#00F" transform="translate(207.6,99.7) scale(3.75)" xlink:href="#gpPt1"/><use color="#00F" transform="translate(208.4,105.3) scale(3.75)" xlink:href="#gpPt1"/><use color="#00F" transform="translate(209.3,111.0) scale(3.75)" xlink:href="#gpPt1"/><use color="#00F" transform="translate(210.2,116.8) scale(3.75)" xlink:href="#gpPt1"/><use color="#00F" transform="translate(211.1,122.8) scale(3.75)" xlink:href="#gpPt1"/><use color="#00F" transform="translate(211.9,129.0) scale(3.75)" xlink:href="#gpPt1"/><use color="#00F" transform="translate(212.8,135.2) scale(3.75)" xlink:href="#gpPt1"/><use color="#00F" transform="translate(213.7,141.6) scale(3.75)" xlink:href="#gpPt1"/><use color="#00F" transform="translate(214.5,148.0) scale(3.75)" xlink:href="#gpPt1"/><use color="#00F" transform="translate(215.4,154.6) scale(3.75)" xlink:href="#gpPt1"/><use color="#00F" transform="translate(216.3,161.2) scale(3.75)" xlink:href="#gpPt1"/><use color="#00F" transform="translate(217.1,167.9) scale(3.75)" xlink:href="#gpPt1"/><use color="#00F" transform="translate(218.0,174.6) scale(3.75)" xlink:href="#gpPt1"/><use color="#00F" transform="translate(218.9,181.4) scale(3.75)" xlink:href="#gpPt1"/><use color="#00F" transform="translate(219.8,188.2) scale(3.75)" xlink:href="#gpPt1"/><use color="#00F" transform="translate(220.6,195.0) scale(3.75)" xlink:href="#gpPt1"/><use color="#00F" transform="translate(221.5,201.9) scale(3.75)" xlink:href="#gpPt1"/><use color="#00F" transform="translate(222.4,208.8) scale(3.75)" xlink:href="#gpPt1"/><use color="#00F" transform="translate(223.2,215.6) scale(3.75)" xlink:href="#gpPt1"/><use color="#00F" transform="translate(224.1,222.4) scale(3.75)" xlink:href="#gpPt1"/><use color="#00F" transform="translate(225.0,229.2) scale(3.75)" xlink:href="#gpPt1"/><use color="#00F" transform="translate(225.8,236.0) scale(3.75)" xlink:href="#gpPt1"/><use color="#00F" transform="translate(226.7,242.7) scale(3.75)" xlink:href="#gpPt1"/><use color="#00F" transform="translate(227.6,249.3) scale(3.75)" xlink:href="#gpPt1"/><use color="#00F" transform="translate(228.4,255.9) scale(3.75)" xlink:href="#gpPt1"/><use color="#00F" transform="translate(229.3,262.3) scale(3.75)" xlink:href="#gpPt1"/><use color="#00F" transform="translate(230.2,268.7) scale(3.75)" xlink:href="#gpPt1"/><use color="#00F" transform="translate(231.1,275.0) scale(3.75)" xlink:href="#gpPt1"/><use color="#00F" transform="translate(231.9,281.1) scale(3.75)" xlink:href="#gpPt1"/><use color="#00F" transform="translate(232.8,287.2) scale(3.75)" xlink:href="#gpPt1"/><use color="#00F" transform="translate(233.7,293.1) scale(3.75)" xlink:href="#gpPt1"/><use color="#00F" transform="translate(234.5,298.8) scale(3.75)" xlink:href="#gpPt1"/><use color="#00F" transform="translate(235.4,304.4) scale(3.75)" xlink:href="#gpPt1"/><use color="#00F" transform="translate(236.3,309.8) scale(3.75)" xlink:href="#gpPt1"/><use color="#00F" transform="translate(237.1,315.1) scale(3.75)" xlink:href="#gpPt1"/><use color="#00F" transform="translate(238.0,320.2) scale(3.75)" xlink:href="#gpPt1"/><use color="#00F" transform="translate(238.9,325.1) scale(3.75)" xlink:href="#gpPt1"/><use color="#00F" transform="translate(239.8,329.8) scale(3.75)" xlink:href="#gpPt1"/><use color="#00F" transform="translate(240.6,334.3) scale(3.75)" xlink:href="#gpPt1"/><use color="#00F" transform="translate(241.5,338.5) scale(3.75)" xlink:href="#gpPt1"/><use color="#00F" transform="translate(242.4,342.6) scale(3.75)" xlink:href="#gpPt1"/><use color="#00F" transform="translate(243.2,346.4) scale(3.75)" xlink:href="#gpPt1"/><use color="#00F" transform="translate(244.1,350.0) scale(3.75)" xlink:href="#gpPt1"/><use color="#00F" transform="translate(245.0,353.4) scale(3.75)" xlink:href="#gpPt1"/><use color="#00F" transform="translate(245.8,356.5) scale(3.75)" xlink:href="#gpPt1"/><use color="#00F" transform="translate(246.7,359.4) scale(3.75)" xlink:href="#gpPt1"/><use color="#00F" transform="translate(247.6,362.0) scale(3.75)" xlink:href="#gpPt1"/><use color="#00F" transform="translate(248.4,364.4) scale(3.75)" xlink:href="#gpPt1"/><use color="#00F" transform="translate(249.3,366.5) scale(3.75)" xlink:href="#gpPt1"/><use color="#00F" transform="translate(250.2,368.4) scale(3.75)" xlink:href="#gpPt1"/><use color="#00F" transform="translate(251.1,369.9) scale(3.75)" xlink:href="#gpPt1"/><use color="#00F" transform="translate(251.9,371.3) scale(3.75)" xlink:href="#gpPt1"/><use color="#00F" transform="translate(252.8,372.3) scale(3.75)" xlink:href="#gpPt1"/><use color="#00F" transform="translate(253.7,373.1) scale(3.75)" xlink:href="#gpPt1"/><use color="#00F" transform="translate(254.5,373.6) scale(3.75)" xlink:href="#gpPt1"/><use color="#00F" transform="translate(255.4,373.8) scale(3.75)" xlink:href="#gpPt1"/><use color="#00F" transform="translate(256.3,373.7) scale(3.75)" xlink:href="#gpPt1"/><use color="#00F" transform="translate(257.1,373.4) scale(3.75)" xlink:href="#gpPt1"/><use color="#00F" transform="translate(258.0,372.8) scale(3.75)" xlink:href="#gpPt1"/><use color="#00F" transform="translate(258.9,371.9) scale(3.75)" xlink:href="#gpPt1"/><use color="#00F" transform="translate(259.8,370.8) scale(3.75)" xlink:href="#gpPt1"/><use color="#00F" transform="translate(260.6,369.4) scale(3.75)" xlink:href="#gpPt1"/><use color="#00F" transform="translate(261.5,367.7) scale(3.75)" xlink:href="#gpPt1"/><use color="#00F" transform="translate(262.4,365.7) scale(3.75)" xlink:href="#gpPt1"/><use color="#00F" transform="translate(263.2,363.5) scale(3.75)" xlink:href="#gpPt1"/><use color="#00F" transform="translate(264.1,361.1) scale(3.75)" xlink:href="#gpPt1"/><use color="#00F" transform="translate(265.0,358.3) scale(3.75)" xlink:href="#gpPt1"/><use color="#00F" transform="translate(265.8,355.4) scale(3.75)" xlink:href="#gpPt1"/><use color="#00F" transform="translate(266.7,352.1) scale(3.75)" xlink:href="#gpPt1"/><use color="#00F" transform="translate(267.6,348.7) scale(3.75)" xlink:href="#gpPt1"/><use color="#00F" transform="translate(268.4,345.0) scale(3.75)" xlink:href="#gpPt1"/><use color="#00F" transform="translate(269.3,341.1) scale(3.75)" xlink:href="#gpPt1"/><use color="#00F" transform="translate(270.2,336.9) scale(3.75)" xlink:href="#gpPt1"/><use color="#00F" transform="translate(271.1,332.6) scale(3.75)" xlink:href="#gpPt1"/><use color="#00F" transform="translate(271.9,328.0) scale(3.75)" xlink:href="#gpPt1"/><use color="#00F" transform="translate(272.8,323.2) scale(3.75)" xlink:href="#gpPt1"/><use color="#00F" transform="translate(273.7,318.3) scale(3.75)" xlink:href="#gpPt1"/><use color="#00F" transform="translate(274.5,313.1) scale(3.75)" xlink:href="#gpPt1"/><use color="#00F" transform="translate(275.4,307.8) scale(3.75)" xlink:href="#gpPt1"/><use color="#00F" transform="translate(276.3,302.3) scale(3.75)" xlink:href="#gpPt1"/><use color="#00F" transform="translate(277.1,296.6) scale(3.75)" xlink:href="#gpPt1"/><use color="#00F" transform="translate(278.0,290.8) scale(3.75)" xlink:href="#gpPt1"/><use color="#00F" transform="translate(278.9,284.9) scale(3.75)" xlink:href="#gpPt1"/><use color="#00F" transform="translate(279.8,278.8) scale(3.75)" xlink:href="#gpPt1"/><use color="#00F" transform="translate(280.6,272.6) scale(3.75)" xlink:href="#gpPt1"/><use color="#00F" transform="translate(281.5,266.3) scale(3.75)" xlink:href="#gpPt1"/><use color="#00F" transform="translate(282.4,259.9) scale(3.75)" xlink:href="#gpPt1"/><use color="#00F" transform="translate(283.2,253.4) scale(3.75)" xlink:href="#gpPt1"/><use color="#00F" transform="translate(284.1,246.8) scale(3.75)" xlink:href="#gpPt1"/><use color="#00F" transform="translate(285.0,240.1) scale(3.75)" xlink:href="#gpPt1"/><use color="#00F" transform="translate(285.8,233.4) scale(3.75)" xlink:href="#gpPt1"/><use color="#00F" transform="translate(286.7,226.6) scale(3.75)" xlink:href="#gpPt1"/><use color="#00F" transform="translate(287.6,219.8) scale(3.75)" xlink:href="#gpPt1"/><use color="#00F" transform="translate(288.4,213.0) scale(3.75)" xlink:href="#gpPt1"/><use color="#00F" transform="translate(289.3,206.1) scale(3.75)" xlink:href="#gpPt1"/><use color="#00F" transform="translate(290.2,199.3) scale(3.75)" xlink:href="#gpPt1"/><use color="#00F" transform="translate(291.1,192.4) scale(3.75)" xlink:href="#gpPt1"/><use color="#00F" transform="translate(291.9,185.6) scale(3.75)" xlink:href="#gpPt1"/><use color="#00F" transform="translate(292.8,178.8) scale(3.75)" xlink:href="#gpPt1"/><use color="#00F" transform="translate(293.7,172.0) scale(3.75)" xlink:href="#gpPt1"/><use color="#00F" transform="translate(294.5,165.3) scale(3.75)" xlink:href="#gpPt1"/><use color="#00F" transform="translate(295.4,158.6) scale(3.75)" xlink:href="#gpPt1"/><use color="#00F" transform="translate(296.3,152.0) scale(3.75)" xlink:href="#gpPt1"/><use color="#00F" transform="translate(297.1,145.5) scale(3.75)" xlink:href="#gpPt1"/><use color="#00F" transform="translate(298.0,139.1) scale(3.75)" xlink:href="#gpPt1"/><use color="#00F" transform="translate(298.9,132.8) scale(3.75)" xlink:href="#gpPt1"/><use color="#00F" transform="translate(299.7,126.6) scale(3.75)" xlink:href="#gpPt1"/><use color="#00F" transform="translate(300.6,120.5) scale(3.75)" xlink:href="#gpPt1"/><use color="#00F" transform="translate(301.5,114.6) scale(3.75)" xlink:href="#gpPt1"/><use color="#00F" transform="translate(302.4,108.8) scale(3.75)" xlink:href="#gpPt1"/><use color="#00F" transform="translate(303.2,103.1) scale(3.75)" xlink:href="#gpPt1"/><use color="#00F" transform="translate(304.1,97.6) scale(3.75)" xlink:href="#gpPt1"/><use color="#00F" transform="translate(305.0,92.3) scale(3.75)" xlink:href="#gpPt1"/><use color="#00F" transform="translate(305.8,87.1) scale(3.75)" xlink:href="#gpPt1"/><use color="#00F" transform="translate(306.7,82.2) scale(3.75)" xlink:href="#gpPt1"/><use color="#00F" transform="translate(307.6,77.4) scale(3.75)" xlink:href="#gpPt1"/><use color="#00F" transform="translate(308.4,72.8) scale(3.75)" xlink:href="#gpPt1"/><use color="#00F" transform="translate(309.3,68.5) scale(3.75)" xlink:href="#gpPt1"/><use color="#00F" transform="translate(310.2,64.3) scale(3.75)" xlink:href="#gpPt1"/><use color="#00F" transform="translate(311.1,60.4) scale(3.75)" xlink:href="#gpPt1"/><use color="#00F" transform="translate(311.9,56.7) scale(3.75)" xlink:href="#gpPt1"/><use color="#00F" transform="translate(312.8,53.3) scale(3.75)" xlink:href="#gpPt1"/><use color="#00F" transform="translate(313.7,50.0) scale(3.75)" xlink:href="#gpPt1"/><use color="#00F" transform="translate(314.5,47.1) scale(3.75)" xlink:href="#gpPt1"/><use color="#00F" transform="translate(315.4,44.3) scale(3.75)" xlink:href="#gpPt1"/><use color="#00F" transform="translate(316.3,41.9) scale(3.75)" xlink:href="#gpPt1"/><use color="#00F" transform="translate(317.1,39.7) scale(3.75)" xlink:href="#gpPt1"/><use color="#00F" transform="translate(318.0,37.7) scale(3.75)" xlink:href="#gpPt1"/><use color="#00F" transform="translate(318.9,36.0) scale(3.75)" xlink:href="#gpPt1"/><use color="#00F" transform="translate(319.7,34.6) scale(3.75)" xlink:href="#gpPt1"/><use color="#00F" transform="translate(320.6,33.5) scale(3.75)" xlink:href="#gpPt1"/><use color="#00F" transform="translate(321.5,32.6) scale(3.75)" xlink:href="#gpPt1"/><use color="#00F" transform="translate(322.4,32.0) scale(3.75)" xlink:href="#gpPt1"/><use color="#00F" transform="translate(323.2,31.7) scale(3.75)" xlink:href="#gpPt1"/><use color="#00F" transform="translate(324.1,31.6) scale(3.75)" xlink:href="#gpPt1"/><use color="#00F" transform="translate(325.0,31.8) scale(3.75)" xlink:href="#gpPt1"/><use color="#00F" transform="translate(325.8,32.3) scale(3.75)" xlink:href="#gpPt1"/><use color="#00F" transform="translate(326.7,33.1) scale(3.75)" xlink:href="#gpPt1"/><use color="#00F" transform="translate(327.6,34.1) scale(3.75)" xlink:href="#gpPt1"/><use color="#00F" transform="translate(328.4,35.5) scale(3.75)" xlink:href="#gpPt1"/><use color="#00F" transform="translate(329.3,37.0) scale(3.75)" xlink:href="#gpPt1"/><use color="#00F" transform="translate(330.2,38.9) scale(3.75)" xlink:href="#gpPt1"/><use color="#00F" transform="translate(331.1,41.0) scale(3.75)" xlink:href="#gpPt1"/><use color="#00F" transform="translate(331.9,43.4) scale(3.75)" xlink:href="#gpPt1"/><use color="#00F" transform="translate(332.8,46.0) scale(3.75)" xlink:href="#gpPt1"/><use color="#00F" transform="translate(333.7,48.9) scale(3.75)" xlink:href="#gpPt1"/><use color="#00F" transform="translate(334.5,52.0) scale(3.75)" xlink:href="#gpPt1"/><use color="#00F" transform="translate(335.4,55.4) scale(3.75)" xlink:href="#gpPt1"/><use color="#00F" transform="translate(336.3,59.0) scale(3.75)" xlink:href="#gpPt1"/><use color="#00F" transform="translate(337.1,62.8) scale(3.75)" xlink:href="#gpPt1"/><use color="#00F" transform="translate(338.0,66.9) scale(3.75)" xlink:href="#gpPt1"/><use color="#00F" transform="translate(338.9,71.1) scale(3.75)" xlink:href="#gpPt1"/><use color="#00F" transform="translate(339.7,75.6) scale(3.75)" xlink:href="#gpPt1"/><use color="#00F" transform="translate(340.6,80.3) scale(3.75)" xlink:href="#gpPt1"/><use color="#00F" transform="translate(341.5,85.2) scale(3.75)" xlink:href="#gpPt1"/><use color="#00F" transform="translate(342.4,90.3) scale(3.75)" xlink:href="#gpPt1"/><use color="#00F" transform="translate(343.2,95.6) scale(3.75)" xlink:href="#gpPt1"/><use color="#00F" transform="translate(344.1,101.0) scale(3.75)" xlink:href="#gpPt1"/><use color="#00F" transform="translate(345.0,106.6) scale(3.75)" xlink:href="#gpPt1"/><use color="#00F" transform="translate(345.8,112.3) scale(3.75)" xlink:href="#gpPt1"/><use color="#00F" transform="translate(346.7,118.2) scale(3.75)" xlink:href="#gpPt1"/><use color="#00F" transform="translate(347.6,124.3) scale(3.75)" xlink:href="#gpPt1"/><use color="#00F" transform="translate(348.4,130.4) scale(3.75)" xlink:href="#gpPt1"/><use color="#00F" transform="translate(349.3,136.7) scale(3.75)" xlink:href="#gpPt1"/><use color="#00F" transform="translate(350.2,143.1) scale(3.75)" xlink:href="#gpPt1"/><use color="#00F" transform="translate(351.1,149.5) scale(3.75)" xlink:href="#gpPt1"/><use color="#00F" transform="translate(351.9,156.1) scale(3.75)" xlink:href="#gpPt1"/><use color="#00F" transform="translate(352.8,162.7) scale(3.75)" xlink:href="#gpPt1"/><use color="#00F" transform="translate(353.7,169.4) scale(3.75)" xlink:href="#gpPt1"/><use color="#00F" transform="translate(354.5,176.2) scale(3.75)" xlink:href="#gpPt1"/><use color="#00F" transform="translate(355.4,183.0) scale(3.75)" xlink:href="#gpPt1"/><use color="#00F" transform="translate(356.3,189.8) scale(3.75)" xlink:href="#gpPt1"/><use color="#00F" transform="translate(357.1,196.6) scale(3.75)" xlink:href="#gpPt1"/><use color="#00F" transform="translate(358.0,203.5) scale(3.75)" xlink:href="#gpPt1"/><use color="#00F" transform="translate(358.9,210.4) scale(3.75)" xlink:href="#gpPt1"/><use color="#00F" transform="translate(359.7,217.2) scale(3.75)" xlink:href="#gpPt1"/><use color="#00F" transform="translate(360.6,224.0) scale(3.75)" xlink:href="#gpPt1"/><use color="#00F" transform="translate(361.5,230.8) scale(3.75)" xlink:href="#gpPt1"/><use color="#00F" transform="translate(362.4,237.5) scale(3.75)" xlink:href="#gpPt1"/><use color="#00F" transform="translate(363.2,244.2) scale(3.75)" xlink:href="#gpPt1"/><use color="#00F" transform="translate(364.1,250.8) scale(3.75)" xlink:href="#gpPt1"/><use color="#00F" transform="translate(365.0,257.4) scale(3.75)" xlink:href="#gpPt1"/><use color="#00F" transform="translate(365.8,263.8) scale(3.75)" xlink:href="#gpPt1"/><use color="#00F" transform="translate(366.7,270.2) scale(3.75)" xlink:href="#gpPt1"/><use color="#00F" transform="translate(367.6,276.4) scale(3.75)" xlink:href="#gpPt1"/><use color="#00F" transform="translate(368.4,282.6) scale(3.75)" xlink:href="#gpPt1"/><use color="#00F" transform="translate(369.3,288.6) scale(3.75)" xlink:href="#gpPt1"/><use color="#00F" transform="translate(370.2,294.4) scale(3.75)" xlink:href="#gpPt1"/><use color="#00F" transform="translate(371.1,300.1) scale(3.75)" xlink:href="#gpPt1"/><use color="#00F" transform="translate(371.9,305.7) scale(3.75)" xlink:href="#gpPt1"/><use color="#00F" transform="translate(372.8,311.1) scale(3.75)" xlink:href="#gpPt1"/><use color="#00F" transform="translate(373.7,316.3) scale(3.75)" xlink:href="#gpPt1"/><use color="#00F" transform="translate(374.5,321.3) scale(3.75)" xlink:href="#gpPt1"/><use color="#00F" transform="translate(375.4,326.2) scale(3.75)" xlink:href="#gpPt1"/><use color="#00F" transform="translate(376.3,330.8) scale(3.75)" xlink:href="#gpPt1"/><use color="#00F" transform="translate(377.1,335.3) scale(3.75)" xlink:href="#gpPt1"/><use color="#00F" transform="translate(378.0,339.5) scale(3.75)" xlink:href="#gpPt1"/><use color="#00F" transform="translate(378.9,343.5) scale(3.75)" xlink:href="#gpPt1"/><use color="#00F" transform="translate(379.7,347.3) scale(3.75)" xlink:href="#gpPt1"/><use color="#00F" transform="translate(380.6,350.8) scale(3.75)" xlink:href="#gpPt1"/><use color="#00F" transform="translate(381.5,354.2) scale(3.75)" xlink:href="#gpPt1"/><use color="#00F" transform="translate(382.4,357.2) scale(3.75)" xlink:href="#gpPt1"/><use color="#00F" transform="translate(383.2,360.0) scale(3.75)" xlink:href="#gpPt1"/><use color="#00F" transform="translate(384.1,362.6) scale(3.75)" xlink:href="#gpPt1"/><use color="#00F" transform="translate(385.0,364.9) scale(3.75)" xlink:href="#gpPt1"/><use color="#00F" transform="translate(385.8,367.0) scale(3.75)" xlink:href="#gpPt1"/><use color="#00F" transform="translate(386.7,368.8) scale(3.75)" xlink:href="#gpPt1"/><use color="#00F" transform="translate(387.6,370.3) scale(3.75)" xlink:href="#gpPt1"/><use color="#00F" transform="translate(388.4,371.5) scale(3.75)" xlink:href="#gpPt1"/><use color="#00F" transform="translate(389.3,372.5) scale(3.75)" xlink:href="#gpPt1"/><use color="#00F" transform="translate(390.2,373.2) scale(3.75)" xlink:href="#gpPt1"/><use color="#00F" transform="translate(391.1,373.6) scale(3.75)" xlink:href="#gpPt1"/><use color="#00F" transform="translate(391.9,373.8) scale(3.75)" xlink:href="#gpPt1"/><use color="#00F" transform="translate(392.8,373.7) scale(3.75)" xlink:href="#gpPt1"/><use color="#00F" transform="translate(393.7,373.3) scale(3.75)" xlink:href="#gpPt1"/><use color="#00F" transform="translate(394.5,372.6) scale(3.75)" xlink:href="#gpPt1"/><use color="#00F" transform="translate(395.4,371.7) scale(3.75)" xlink:href="#gpPt1"/><use color="#00F" transform="translate(396.3,370.5) scale(3.75)" xlink:href="#gpPt1"/><use color="#00F" transform="translate(397.1,369.0) scale(3.75)" xlink:href="#gpPt1"/><use color="#00F" transform="translate(398.0,367.2) scale(3.75)" xlink:href="#gpPt1"/><use color="#00F" transform="translate(398.9,365.2) scale(3.75)" xlink:href="#gpPt1"/><use color="#00F" transform="translate(399.7,363.0) scale(3.75)" xlink:href="#gpPt1"/><use color="#00F" transform="translate(400.6,360.4) scale(3.75)" xlink:href="#gpPt1"/><use color="#00F" transform="translate(401.5,357.7) scale(3.75)" xlink:href="#gpPt1"/><use color="#00F" transform="translate(402.4,354.6) scale(3.75)" xlink:href="#gpPt1"/><use color="#00F" transform="translate(403.2,351.3) scale(3.75)" xlink:href="#gpPt1"/><use color="#00F" transform="translate(404.1,347.8) scale(3.75)" xlink:href="#gpPt1"/><use color="#00F" transform="translate(405.0,344.1) scale(3.75)" xlink:href="#gpPt1"/><use color="#00F" transform="translate(405.8,340.1) scale(3.75)" xlink:href="#gpPt1"/><use color="#00F" transform="translate(406.7,335.9) scale(3.75)" xlink:href="#gpPt1"/><use color="#00F" transform="translate(407.6,331.5) scale(3.75)" xlink:href="#gpPt1"/><use color="#00F" transform="translate(408.4,326.9) scale(3.75)" xlink:href="#gpPt1"/><use color="#00F" transform="translate(409.3,322.1) scale(3.75)" xlink:href="#gpPt1"/><use color="#00F" transform="translate(410.2,317.1) scale(3.75)" xlink:href="#gpPt1"/><use color="#00F" transform="translate(411.1,311.9) scale(3.75)" xlink:href="#gpPt1"/><use color="#00F" transform="translate(411.9,306.5) scale(3.75)" xlink:href="#gpPt1"/><use color="#00F" transform="translate(412.8,301.0) scale(3.75)" xlink:href="#gpPt1"/><use color="#00F" transform="translate(413.7,295.3) scale(3.75)" xlink:href="#gpPt1"/><use color="#00F" transform="translate(414.5,289.4) scale(3.75)" xlink:href="#gpPt1"/><use color="#00F" transform="translate(415.4,283.5) scale(3.75)" xlink:href="#gpPt1"/><use color="#00F" transform="translate(416.3,277.4) scale(3.75)" xlink:href="#gpPt1"/><use color="#00F" transform="translate(417.1,271.1) scale(3.75)" xlink:href="#gpPt1"/><use color="#00F" transform="translate(418.0,264.8) scale(3.75)" xlink:href="#gpPt1"/><use color="#00F" transform="translate(418.9,258.4) scale(3.75)" xlink:href="#gpPt1"/><use color="#00F" transform="translate(419.7,251.8) scale(3.75)" xlink:href="#gpPt1"/><use color="#00F" transform="translate(420.6,245.2) scale(3.75)" xlink:href="#gpPt1"/><use color="#00F" transform="translate(421.5,238.5) scale(3.75)" xlink:href="#gpPt1"/><use color="#00F" transform="translate(422.4,231.8) scale(3.75)" xlink:href="#gpPt1"/><use color="#00F" transform="translate(423.2,225.0) scale(3.75)" xlink:href="#gpPt1"/><use color="#00F" transform="translate(424.1,218.2) scale(3.75)" xlink:href="#gpPt1"/><use color="#00F" transform="translate(425.0,211.4) scale(3.75)" xlink:href="#gpPt1"/><use color="#00F" transform="translate(425.8,204.5) scale(3.75)" xlink:href="#gpPt1"/><use color="#00F" transform="translate(426.7,197.7) scale(3.75)" xlink:href="#gpPt1"/><use color="#00F" transform="translate(427.6,190.8) scale(3.75)" xlink:href="#gpPt1"/><use color="#00F" transform="translate(428.4,184.0) scale(3.75)" xlink:href="#gpPt1"/><use color="#00F" transform="translate(429.3,177.2) scale(3.75)" xlink:href="#gpPt1"/><use color="#00F" transform="translate(430.2,170.4) scale(3.75)" xlink:href="#gpPt1"/><use color="#00F" transform="translate(431.1,163.7) scale(3.75)" xlink:href="#gpPt1"/><use color="#00F" transform="translate(431.9,157.1) scale(3.75)" xlink:href="#gpPt1"/><use color="#00F" transform="translate(432.8,150.5) scale(3.75)" xlink:href="#gpPt1"/><use color="#00F" transform="translate(433.7,144.0) scale(3.75)" xlink:href="#gpPt1"/><use color="#00F" transform="translate(434.5,137.6) scale(3.75)" xlink:href="#gpPt1"/><use color="#00F" transform="translate(435.4,131.3) scale(3.75)" xlink:href="#gpPt1"/><use color="#00F" transform="translate(436.3,125.2) scale(3.75)" xlink:href="#gpPt1"/><use color="#00F" transform="translate(437.1,119.1) scale(3.75)" xlink:href="#gpPt1"/><use color="#00F" transform="translate(438.0,113.2) scale(3.75)" xlink:href="#gpPt1"/><use color="#00F" transform="translate(438.9,107.4) scale(3.75)" xlink:href="#gpPt1"/><use color="#00F" transform="translate(439.7,101.8) scale(3.75)" xlink:href="#gpPt1"/><use color="#00F" transform="translate(440.6,96.4) scale(3.75)" xlink:href="#gpPt1"/><use color="#00F" transform="translate(441.5,91.1) scale(3.75)" xlink:href="#gpPt1"/><use color="#00F" transform="translate(442.4,86.0) scale(3.75)" xlink:href="#gpPt1"/><use color="#00F" transform="translate(443.2,81.0) scale(3.75)" xlink:href="#gpPt1"/><use color="#00F" transform="translate(444.1,76.3) scale(3.75)" xlink:href="#gpPt1"/><use color="#00F" transform="translate(445.0,71.8) scale(3.75)" xlink:href="#gpPt1"/><use color="#00F" transform="translate(445.8,67.5) scale(3.75)" xlink:href="#gpPt1"/><use color="#00F" transform="translate(446.7,63.4) scale(3.75)" xlink:href="#gpPt1"/><use color="#00F" transform="translate(447.6,59.5) scale(3.75)" xlink:href="#gpPt1"/><use color="#00F" transform="translate(448.4,55.9) scale(3.75)" xlink:href="#gpPt1"/><use color="#00F" transform="translate(449.3,52.5) scale(3.75)" xlink:href="#gpPt1"/><use color="#00F" transform="translate(450.2,49.3) scale(3.75)" xlink:href="#gpPt1"/><use color="#00F" transform="translate(451.0,46.4) scale(3.75)" xlink:href="#gpPt1"/><use color="#00F" transform="translate(451.9,43.7) scale(3.75)" xlink:href="#gpPt1"/><use color="#00F" transform="translate(452.8,41.3) scale(3.75)" xlink:href="#gpPt1"/><use color="#00F" transform="translate(453.7,39.2) scale(3.75)" xlink:href="#gpPt1"/><use color="#00F" transform="translate(454.5,37.3) scale(3.75)" xlink:href="#gpPt1"/><use color="#00F" transform="translate(455.4,35.7) scale(3.75)" xlink:href="#gpPt1"/><use color="#00F" transform="translate(456.3,34.3) scale(3.75)" xlink:href="#gpPt1"/><use color="#00F" transform="translate(457.1,33.2) scale(3.75)" xlink:href="#gpPt1"/><use color="#00F" transform="translate(458.0,32.4) scale(3.75)" xlink:href="#gpPt1"/><use color="#00F" transform="translate(458.9,31.9) scale(3.75)" xlink:href="#gpPt1"/><use color="#00F" transform="translate(459.7,31.6) scale(3.75)" xlink:href="#gpPt1"/><use color="#00F" transform="translate(460.6,31.6) scale(3.75)" xlink:href="#gpPt1"/><use color="#00F" transform="translate(461.5,31.9) scale(3.75)" xlink:href="#gpPt1"/><use color="#00F" transform="translate(462.4,32.5) scale(3.75)" xlink:href="#gpPt1"/><use color="#00F" transform="translate(463.2,33.3) scale(3.75)" xlink:href="#gpPt1"/><use color="#00F" transform="translate(464.1,34.4) scale(3.75)" xlink:href="#gpPt1"/><use color="#00F" transform="translate(465.0,35.8) scale(3.75)" xlink:href="#gpPt1"/><use color="#00F" transform="translate(465.8,37.5) scale(3.75)" xlink:href="#gpPt1"/><use color="#00F" transform="translate(466.7,39.4) scale(3.75)" xlink:href="#gpPt1"/><use color="#00F" transform="translate(467.6,41.5) scale(3.75)" xlink:href="#gpPt1"/><use color="#00F" transform="translate(468.4,44.0) scale(3.75)" xlink:href="#gpPt1"/><use color="#00F" transform="translate(469.3,46.7) scale(3.75)" xlink:href="#gpPt1"/><use color="#00F" transform="translate(470.2,49.6) scale(3.75)" xlink:href="#gpPt1"/><use color="#00F" transform="translate(471.0,52.8) scale(3.75)" xlink:href="#gpPt1"/><use color="#00F" transform="translate(471.9,56.2) scale(3.75)" xlink:href="#gpPt1"/><use color="#00F" transform="translate(472.8,59.9) scale(3.75)" xlink:href="#gpPt1"/><use color="#00F" transform="translate(473.7,63.7) scale(3.75)" xlink:href="#gpPt1"/><use color="#00F" transform="translate(474.5,67.9) scale(3.75)" xlink:href="#gpPt1"/><use color="#00F" transform="translate(475.4,72.2) scale(3.75)" xlink:href="#gpPt1"/><use color="#00F" transform="translate(476.3,76.7) scale(3.75)" xlink:href="#gpPt1"/><use color="#00F" transform="translate(477.1,81.5) scale(3.75)" xlink:href="#gpPt1"/><use color="#00F" transform="translate(478.0,86.4) scale(3.75)" xlink:href="#gpPt1"/><use color="#00F" transform="translate(478.9,91.5) scale(3.75)" xlink:href="#gpPt1"/><use color="#00F" transform="translate(479.7,96.8) scale(3.75)" xlink:href="#gpPt1"/><use color="#00F" transform="translate(480.6,102.3) scale(3.75)" xlink:href="#gpPt1"/><use color="#00F" transform="translate(481.5,107.9) scale(3.75)" xlink:href="#gpPt1"/><use color="#00F" transform="translate(482.4,113.7) scale(3.75)" xlink:href="#gpPt1"/><use color="#00F" transform="translate(483.2,119.6) scale(3.75)" xlink:href="#gpPt1"/><use color="#00F" transform="translate(484.1,125.7) scale(3.75)" xlink:href="#gpPt1"/><use color="#00F" transform="translate(485.0,131.9) scale(3.75)" xlink:href="#gpPt1"/><use color="#00F" transform="translate(485.8,138.2) scale(3.75)" xlink:href="#gpPt1"/><use color="#00F" transform="translate(486.7,144.6) scale(3.75)" xlink:href="#gpPt1"/><use color="#00F" transform="translate(487.6,151.1) scale(3.75)" xlink:href="#gpPt1"/><use color="#00F" transform="translate(488.4,157.6) scale(3.75)" xlink:href="#gpPt1"/><use color="#00F" transform="translate(489.3,164.3) scale(3.75)" xlink:href="#gpPt1"/><use color="#00F" transform="translate(490.2,171.0) scale(3.75)" xlink:href="#gpPt1"/><use color="#00F" transform="translate(491.0,177.8) scale(3.75)" xlink:href="#gpPt1"/><use color="#00F" transform="translate(491.9,184.6) scale(3.75)" xlink:href="#gpPt1"/><use color="#00F" transform="translate(492.8,191.4) scale(3.75)" xlink:href="#gpPt1"/><use color="#00F" transform="translate(493.7,198.3) scale(3.75)" xlink:href="#gpPt1"/><use color="#00F" transform="translate(494.5,205.1) scale(3.75)" xlink:href="#gpPt1"/><use color="#00F" transform="translate(495.4,212.0) scale(3.75)" xlink:href="#gpPt1"/><use color="#00F" transform="translate(496.3,218.8) scale(3.75)" xlink:href="#gpPt1"/><use color="#00F" transform="translate(497.1,225.6) scale(3.75)" xlink:href="#gpPt1"/><use color="#00F" transform="translate(498.0,232.4) scale(3.75)" xlink:href="#gpPt1"/><use color="#00F" transform="translate(498.9,239.1) scale(3.75)" xlink:href="#gpPt1"/><use color="#00F" transform="translate(499.7,245.8) scale(3.75)" xlink:href="#gpPt1"/><use color="#00F" transform="translate(500.6,252.4) scale(3.75)" xlink:href="#gpPt1"/><use color="#00F" transform="translate(501.5,258.9) scale(3.75)" xlink:href="#gpPt1"/><use color="#00F" transform="translate(502.4,265.3) scale(3.75)" xlink:href="#gpPt1"/><use color="#00F" transform="translate(503.2,271.7) scale(3.75)" xlink:href="#gpPt1"/><use color="#00F" transform="translate(504.1,277.9) scale(3.75)" xlink:href="#gpPt1"/><use color="#00F" transform="translate(505.0,284.0) scale(3.75)" xlink:href="#gpPt1"/><use color="#00F" transform="translate(505.8,290.0) scale(3.75)" xlink:href="#gpPt1"/><use color="#00F" transform="translate(506.7,295.8) scale(3.75)" xlink:href="#gpPt1"/></g></g><g fill="none" stroke="currentColor" stroke-linecap="butt" stroke-linejoin="miter" stroke-width=".5" color="#000"><path stroke="#000" d="M72.8,31.6 L72.8,373.8 L506.7,373.8 L506.7,31.6 L72.8,31.6 Z"/></g></g></svg>