<svg xmlns="http://www.w3.org/2000/svg" xmlns:xlink="http://www.w3.org/1999/xlink" width="749.333" height="562.666" baseProfile="tiny" version="1.2" viewBox="0 0 562 422"><title>Qt SVG Document</title><desc>Generated with Qt</desc><g fill="none" fill-rule="evenodd" stroke="#000" stroke-linecap="square" stroke-linejoin="bevel" stroke-width="1"><g fill="#efefef" fill-opacity="1" stroke="none" font-family=".AppleSystemUIFont" font-size="13" font-style="normal" font-weight="400" transform="matrix(1.00357,0,0,1.00357,0,0)"><rect width="560" height="420" x="0" y="0"/></g><g fill="#fff" fill-opacity="1" stroke="none" font-family=".AppleSystemUIFont" font-size="13" font-style="normal" font-weight="400" transform="matrix(1.00357,0,0,1.00357,0,0)"><rect width="434" height="342" x="73" y="32"/></g><g fill="none" stroke="#000" stroke-linecap="round" stroke-linejoin="round" stroke-opacity="1" stroke-width=".5" font-family=".AppleSystemUIFont" font-size="13" font-style="normal" font-weight="400" transform="matrix(1.00357,0,0,1.00357,0,0)"><polyline fill="none" points="72.5 373.5 75.5 373.5" vector-effect="none"/></g><g fill="none" stroke="#262626" stroke-linecap="square" stroke-linejoin="bevel" stroke-opacity="1" stroke-width="1" font-family="Helvetica" font-size="10" font-style="normal" font-weight="400"><text x="0" y="0" fill="#262626" fill-opacity="1" stroke="none" font-family="Helvetica" font-size="10" font-style="normal" font-weight="400" transform="matrix(1.00357,0,0,1.00357,63.0996,378.041)" xml:space="preserve">0</text></g><g fill="none" stroke="#000" stroke-linecap="round" stroke-linejoin="round" stroke-opacity="1" stroke-width=".5" font-family=".AppleSystemUIFont" font-size="13" font-style="normal" font-weight="400" transform="matrix(1.00357,0,0,1.00357,0,0)"><polyline fill="none" points="72.5 305.5 75.5 305.5" vector-effect="none"/></g><g fill="none" stroke="#262626" stroke-linecap="square" stroke-linejoin="bevel" stroke-opacity="1" stroke-width="1" font-family="Helvetica" font-size="10" font-style="normal" font-weight="400"><text x="0" y="0" fill="#262626" fill-opacity="1" stroke="none" font-family="Helvetica" font-size="10" font-style="normal" font-weight="400" transform="matrix(1.00357,0,0,1.00357,54.7417,308.794)" xml:space="preserve">0.2</text></g><g fill="none" stroke="#000" stroke-linecap="round" stroke-linejoin="round" stroke-opacity="1" stroke-width=".5" font-family=".AppleSystemUIFont" font-size="13" font-style="normal" font-weight="400" transform="matrix(1.00357,0,0,1.00357,0,0)"><polyline fill="none" points="72.5 236.5 75.5 236.5" vector-effect="none"/></g><g fill="none" stroke="#262626" stroke-linecap="square" stroke-linejoin="bevel" stroke-opacity="1" stroke-width="1" font-family="Helvetica" font-size="10" font-style="normal" font-weight="400"><text x="0" y="0" fill="#262626" fill-opacity="1" stroke="none" font-family="Helvetica" font-size="10" font-style="normal" font-weight="400" transform="matrix(1.00357,0,0,1.00357,54.6633,240.551)" xml:space="preserve">0.4</text></g><g fill="none" stroke="#000" stroke-linecap="round" stroke-linejoin="round" stroke-opacity="1" stroke-width=".5" font-family=".AppleSystemUIFont" font-size="13" font-style="normal" font-weight="400" transform="matrix(1.00357,0,0,1.00357,0,0)"><polyline fill="none" points="72.5 168.5 75.5 168.5" vector-effect="none"/></g><g fill="none" stroke="#262626" stroke-linecap="square" stroke-linejoin="bevel" stroke-opacity="1" stroke-width="1" font-family="Helvetica" font-size="10" font-style="normal" font-weight="400"><text x="0" y="0" fill="#262626" fill-opacity="1" stroke="none" font-family="Helvetica" font-size="10" font-style="normal" font-weight="400" transform="matrix(1.00357,0,0,1.00357,54.726,171.305)" xml:space="preserve">0.6</text></g><g fill="none" stroke="#000" stroke-linecap="round" stroke-linejoin="round" stroke-opacity="1" stroke-width=".5" font-family=".AppleSystemUIFont" font-size="13" font-style="normal" font-weight="400" transform="matrix(1.00357,0,0,1.00357,0,0)"><polyline fill="none" points="72.5 99.5 75.5 99.5" vector-effect="none"/></g><g fill="none" stroke="#262626" stroke-linecap="square" stroke-linejoin="bevel" stroke-opacity="1" stroke-width="1" font-family="Helvetica" font-size="10" font-style="normal" font-weight="400"><text x="0" y="0" fill="#262626" fill-opacity="1" stroke="none" font-family="Helvetica" font-size="10" font-style="normal" font-weight="400" transform="matrix(1.00357,0,0,1.00357,54.773,103.062)" xml:space="preserve">0.8</text></g><g fill="none" stroke="#000" stroke-linecap="round" stroke-linejoin="round" stroke-opacity="1" stroke-width=".5" font-family=".AppleSystemUIFont" font-size="13" font-style="normal" font-weight="400" transform="matrix(1.00357,0,0,1.00357,0,0)"><polyline fill="none" points="72.5 31.5 75.5 31.5" vector-effect="none"/></g><g fill="none" stroke="#262626" stroke-linecap="square" stroke-linejoin="bevel" stroke-opacity="1" stroke-width="1" font-family="Helvetica" font-size="10" font-style="normal" font-weight="400"><text x="0" y="0" fill="#262626" fill-opacity="1" stroke="none" font-family="Helvetica" font-size="10" font-style="normal" font-weight="400" transform="matrix(1.00357,0,0,1.00357,64.699,34.8192)" xml:space="preserve">1</text></g><g fill="none" stroke="#000" stroke-linecap="round" stroke-linejoin="round" stroke-opacity="1" stroke-width=".5" font-family=".AppleSystemUIFont" font-size="13" font-style="normal" font-weight="400" transform="matrix(1.00357,0,0,1.00357,0,0)"><polyline fill="none" points="72.5 373.5 72.5 370.5" vector-effect="none"/></g><g fill="none" stroke="#262626" stroke-linecap="square" stroke-linejoin="bevel" stroke-opacity="1" stroke-width="1" font-family="Helvetica" font-size="10" font-style="normal" font-weight="400"><text x="0" y="0" fill="#262626" fill-opacity="1" stroke="none" font-family="Helvetica" font-size="10" font-style="normal" font-weight="400" transform="matrix(1.00357,0,0,1.00357,66.2357,388.076)" xml:space="preserve">-10</text></g><g fill="none" stroke="#000" stroke-linecap="round" stroke-linejoin="round" stroke-opacity="1" stroke-width=".5" font-family=".AppleSystemUIFont" font-size="13" font-style="normal" font-weight="400" transform="matrix(1.00357,0,0,1.00357,0,0)"><polyline fill="none" points="181.5 373.5 181.5 370.5" vector-effect="none"/></g><g fill="none" stroke="#262626" stroke-linecap="square" stroke-linejoin="bevel" stroke-opacity="1" stroke-width="1" font-family="Helvetica" font-size="10" font-style="normal" font-weight="400"><text x="0" y="0" fill="#262626" fill-opacity="1" stroke="none" font-family="Helvetica" font-size="10" font-style="normal" font-weight="400" transform="matrix(1.00357,0,0,1.00357,177.405,388.076)" xml:space="preserve">-5</text></g><g fill="none" stroke="#000" stroke-linecap="round" stroke-linejoin="round" stroke-opacity="1" stroke-width=".5" font-family=".AppleSystemUIFont" font-size="13" font-style="normal" font-weight="400" transform="matrix(1.00357,0,0,1.00357,0,0)"><polyline fill="none" points="289.5 373.5 289.5 370.5" vector-effect="none"/></g><g fill="none" stroke="#262626" stroke-linecap="square" stroke-linejoin="bevel" stroke-opacity="1" stroke-width="1" font-family="Helvetica" font-size="10" font-style="normal" font-weight="400"><text x="0" y="0" fill="#262626" fill-opacity="1" stroke="none" font-family="Helvetica" font-size="10" font-style="normal" font-weight="400" transform="matrix(1.00357,0,0,1.00357,288.464,388.076)" xml:space="preserve">0</text></g><g fill="none" stroke="#000" stroke-linecap="round" stroke-linejoin="round" stroke-opacity="1" stroke-width=".5" font-family=".AppleSystemUIFont" font-size="13" font-style="normal" font-weight="400" transform="matrix(1.00357,0,0,1.00357,0,0)"><polyline fill="none" points="398.5 373.5 398.5 370.5" vector-effect="none"/></g><g fill="none" stroke="#262626" stroke-linecap="square" stroke-linejoin="bevel" stroke-opacity="1" stroke-width="1" font-family="Helvetica" font-size="10" font-style="normal" font-weight="400"><text x="0" y="0" fill="#262626" fill-opacity="1" stroke="none" font-family="Helvetica" font-size="10" font-style="normal" font-weight="400" transform="matrix(1.00357,0,0,1.00357,396.85,388.076)" xml:space="preserve">5</text></g><g fill="none" stroke="#000" stroke-linecap="round" stroke-linejoin="round" stroke-opacity="1" stroke-width=".5" font-family=".AppleSystemUIFont" font-size="13" font-style="normal" font-weight="400" transform="matrix(1.00357,0,0,1.00357,0,0)"><polyline fill="none" points="506.5 373.5 506.5 370.5" vector-effect="none"/></g><g fill="none" stroke="#262626" stroke-linecap="square" stroke-linejoin="bevel" stroke-opacity="1" stroke-width="1" font-family="Helvetica" font-size="10" font-style="normal" font-weight="400"><text x="0" y="0" fill="#262626" fill-opacity="1" stroke="none" font-family="Helvetica" font-size="10" font-style="normal" font-weight="400" transform="matrix(1.00357,0,0,1.00357,503.456,388.076)" xml:space="preserve">10</text></g><g fill="none" stroke="#000" stroke-linecap="round" stroke-linejoin="round" stroke-opacity="1" stroke-width=".5" font-family=".AppleSystemUIFont" font-size="13" font-style="normal" font-weight="400" transform="matrix(1.00357,0,0,1.00357,0,0)"><polyline fill="none" points="72.5 31.5 72.5 373.5 506.5 373.5 506.5 31.5 72.5 31.5" vector-effect="none"/></g><g fill="none" stroke="#000" stroke-linecap="round" stroke-linejoin="round" stroke-opacity="1" stroke-width=".5" font-family=".AppleSystemUIFont" font-size="13" font-style="normal" font-weight="400" transform="matrix(1.00357,0,0,1.00357,0,0)"><polyline fill="none" points="72.5 31.5 72.5 31.5 72.5 373.5 506.5 373.5 506.5 31.5 72.5 31.5" vector-effect="none"/></g></g></svg>