<svg xmlns="http://www.w3.org/2000/svg" xmlns:xlink="http://www.w3.org/1999/xlink" width="749.333" height="562.666" baseProfile="tiny" version="1.2" viewBox="0 0 562 422"><title>Qt SVG Document</title><desc>Generated with Qt</desc><g fill="none" fill-rule="evenodd" stroke="#000" stroke-linecap="square" stroke-linejoin="bevel" stroke-width="1"><g fill="#efefef" fill-opacity="1" stroke="none" font-family=".AppleSystemUIFont" font-size="13" font-style="normal" font-weight="400" transform="matrix(1.00357,0,0,1.00357,0,0)"><rect width="560" height="420" x="0" y="0"/></g><g fill="#fff" fill-opacity="1" stroke="none" font-family=".AppleSystemUIFont" font-size="13" font-style="normal" font-weight="400" transform="matrix(1.00357,0,0,1.00357,0,0)"><rect width="434" height="342" x="73" y="32"/></g><g fill="none" stroke="#000" stroke-linecap="round" stroke-linejoin="round" stroke-opacity="1" stroke-width=".5" font-family=".AppleSystemUIFont" font-size="13" font-style="normal" font-weight="400" transform="matrix(1.00357,0,0,1.00357,0,0)"><polyline fill="none" points="72.5 373.5 75.5 373.5" vector-effect="none"/></g><g fill="none" stroke="#262626" stroke-linecap="square" stroke-linejoin="bevel" stroke-opacity="1" stroke-width="1" font-family="Helvetica" font-size="10" font-style="normal" font-weight="400"><text x="0" y="0" fill="#262626" fill-opacity="1" stroke="none" font-family="Helvetica" font-size="10" font-style="normal" font-weight="400" transform="matrix(1.00357,0,0,1.00357,63.0996,378.041)" xml:space="preserve">0</text></g><g fill="none" stroke="#000" stroke-linecap="round" stroke-linejoin="round" stroke-opacity="1" stroke-width=".5" font-family=".AppleSystemUIFont" font-size="13" font-style="normal" font-weight="400" transform="matrix(1.00357,0,0,1.00357,0,0)"><polyline fill="none" points="72.5 330.5 75.5 330.5" vector-effect="none"/></g><g fill="none" stroke="#262626" stroke-linecap="square" stroke-linejoin="bevel" stroke-opacity="1" stroke-width="1" font-family="Helvetica" font-size="10" font-style="normal" font-weight="400"><text x="0" y="0" fill="#262626" fill-opacity="1" stroke="none" font-family="Helvetica" font-size="10" font-style="normal" font-weight="400" transform="matrix(1.00357,0,0,1.00357,56.3568,334.887)" xml:space="preserve">0.1</text></g><g fill="none" stroke="#000" stroke-linecap="round" stroke-linejoin="round" stroke-opacity="1" stroke-width=".5" font-family=".AppleSystemUIFont" font-size="13" font-style="normal" font-weight="400" transform="matrix(1.00357,0,0,1.00357,0,0)"><polyline fill="none" points="72.5 288.5 75.5 288.5" vector-effect="none"/></g><g fill="none" stroke="#262626" stroke-linecap="square" stroke-linejoin="bevel" stroke-opacity="1" stroke-width="1" font-family="Helvetica" font-size="10" font-style="normal" font-weight="400"><text x="0" y="0" fill="#262626" fill-opacity="1" stroke="none" font-family="Helvetica" font-size="10" font-style="normal" font-weight="400" transform="matrix(1.00357,0,0,1.00357,54.7417,291.734)" xml:space="preserve">0.2</text></g><g fill="none" stroke="#000" stroke-linecap="round" stroke-linejoin="round" stroke-opacity="1" stroke-width=".5" font-family=".AppleSystemUIFont" font-size="13" font-style="normal" font-weight="400" transform="matrix(1.00357,0,0,1.00357,0,0)"><polyline fill="none" points="72.5 245.5 75.5 245.5" vector-effect="none"/></g><g fill="none" stroke="#262626" stroke-linecap="square" stroke-linejoin="bevel" stroke-opacity="1" stroke-width="1" font-family="Helvetica" font-size="10" font-style="normal" font-weight="400"><text x="0" y="0" fill="#262626" fill-opacity="1" stroke="none" font-family="Helvetica" font-size="10" font-style="normal" font-weight="400" transform="matrix(1.00357,0,0,1.00357,54.773,248.58)" xml:space="preserve">0.3</text></g><g fill="none" stroke="#000" stroke-linecap="round" stroke-linejoin="round" stroke-opacity="1" stroke-width=".5" font-family=".AppleSystemUIFont" font-size="13" font-style="normal" font-weight="400" transform="matrix(1.00357,0,0,1.00357,0,0)"><polyline fill="none" points="72.5 202.5 75.5 202.5" vector-effect="none"/></g><g fill="none" stroke="#262626" stroke-linecap="square" stroke-linejoin="bevel" stroke-opacity="1" stroke-width="1" font-family="Helvetica" font-size="10" font-style="normal" font-weight="400"><text x="0" y="0" fill="#262626" fill-opacity="1" stroke="none" font-family="Helvetica" font-size="10" font-style="normal" font-weight="400" transform="matrix(1.00357,0,0,1.00357,54.6633,206.43)" xml:space="preserve">0.4</text></g><g fill="none" stroke="#000" stroke-linecap="round" stroke-linejoin="round" stroke-opacity="1" stroke-width=".5" font-family=".AppleSystemUIFont" font-size="13" font-style="normal" font-weight="400" transform="matrix(1.00357,0,0,1.00357,0,0)"><polyline fill="none" points="72.5 159.5 75.5 159.5" vector-effect="none"/></g><g fill="none" stroke="#262626" stroke-linecap="square" stroke-linejoin="bevel" stroke-opacity="1" stroke-width="1" font-family="Helvetica" font-size="10" font-style="normal" font-weight="400"><text x="0" y="0" fill="#262626" fill-opacity="1" stroke="none" font-family="Helvetica" font-size="10" font-style="normal" font-weight="400" transform="matrix(1.00357,0,0,1.00357,54.7574,163.276)" xml:space="preserve">0.5</text></g><g fill="none" stroke="#000" stroke-linecap="round" stroke-linejoin="round" stroke-opacity="1" stroke-width=".5" font-family=".AppleSystemUIFont" font-size="13" font-style="normal" font-weight="400" transform="matrix(1.00357,0,0,1.00357,0,0)"><polyline fill="none" points="72.5 117.5 75.5 117.5" vector-effect="none"/></g><g fill="none" stroke="#262626" stroke-linecap="square" stroke-linejoin="bevel" stroke-opacity="1" stroke-width="1" font-family="Helvetica" font-size="10" font-style="normal" font-weight="400"><text x="0" y="0" fill="#262626" fill-opacity="1" stroke="none" font-family="Helvetica" font-size="10" font-style="normal" font-weight="400" transform="matrix(1.00357,0,0,1.00357,54.726,120.123)" xml:space="preserve">0.6</text></g><g fill="none" stroke="#000" stroke-linecap="round" stroke-linejoin="round" stroke-opacity="1" stroke-width=".5" font-family=".AppleSystemUIFont" font-size="13" font-style="normal" font-weight="400" transform="matrix(1.00357,0,0,1.00357,0,0)"><polyline fill="none" points="72.5 74.5 75.5 74.5" vector-effect="none"/></g><g fill="none" stroke="#262626" stroke-linecap="square" stroke-linejoin="bevel" stroke-opacity="1" stroke-width="1" font-family="Helvetica" font-size="10" font-style="normal" font-weight="400"><text x="0" y="0" fill="#262626" fill-opacity="1" stroke="none" font-family="Helvetica" font-size="10" font-style="normal" font-weight="400" transform="matrix(1.00357,0,0,1.00357,54.6633,76.9692)" xml:space="preserve">0.7</text></g><g fill="none" stroke="#000" stroke-linecap="round" stroke-linejoin="round" stroke-opacity="1" stroke-width=".5" font-family=".AppleSystemUIFont" font-size="13" font-style="normal" font-weight="400" transform="matrix(1.00357,0,0,1.00357,0,0)"><polyline fill="none" points="72.5 31.5 75.5 31.5" vector-effect="none"/></g><g fill="none" stroke="#262626" stroke-linecap="square" stroke-linejoin="bevel" stroke-opacity="1" stroke-width="1" font-family="Helvetica" font-size="10" font-style="normal" font-weight="400"><text x="0" y="0" fill="#262626" fill-opacity="1" stroke="none" font-family="Helvetica" font-size="10" font-style="normal" font-weight="400" transform="matrix(1.00357,0,0,1.00357,54.773,34.8192)" xml:space="preserve">0.8</text></g><g fill="none" stroke="#000" stroke-linecap="round" stroke-linejoin="round" stroke-opacity="1" stroke-width=".5" font-family=".AppleSystemUIFont" font-size="13" font-style="normal" font-weight="400" transform="matrix(1.00357,0,0,1.00357,0,0)"><polyline fill="none" points="72.5 373.5 72.5 370.5" vector-effect="none"/></g><g fill="none" stroke="#262626" stroke-linecap="square" stroke-linejoin="bevel" stroke-opacity="1" stroke-width="1" font-family="Helvetica" font-size="10" font-style="normal" font-weight="400"><text x="0" y="0" fill="#262626" fill-opacity="1" stroke="none" font-family="Helvetica" font-size="10" font-style="normal" font-weight="400" transform="matrix(1.00357,0,0,1.00357,71.4888,388.076)" xml:space="preserve">1</text></g><g fill="none" stroke="#000" stroke-linecap="round" stroke-linejoin="round" stroke-opacity="1" stroke-width=".5" font-family=".AppleSystemUIFont" font-size="13" font-style="normal" font-weight="400" transform="matrix(1.00357,0,0,1.00357,0,0)"><polyline fill="none" points="145.5 373.5 145.5 370.5" vector-effect="none"/></g><g fill="none" stroke="#262626" stroke-linecap="square" stroke-linejoin="bevel" stroke-opacity="1" stroke-width="1" font-family="Helvetica" font-size="10" font-style="normal" font-weight="400"><text x="0" y="0" fill="#262626" fill-opacity="1" stroke="none" font-family="Helvetica" font-size="10" font-style="normal" font-weight="400" transform="matrix(1.00357,0,0,1.00357,138.775,388.076)" xml:space="preserve">1.5</text></g><g fill="none" stroke="#000" stroke-linecap="round" stroke-linejoin="round" stroke-opacity="1" stroke-width=".5" font-family=".AppleSystemUIFont" font-size="13" font-style="normal" font-weight="400" transform="matrix(1.00357,0,0,1.00357,0,0)"><polyline fill="none" points="217.5 373.5 217.5 370.5" vector-effect="none"/></g><g fill="none" stroke="#262626" stroke-linecap="square" stroke-linejoin="bevel" stroke-opacity="1" stroke-width="1" font-family="Helvetica" font-size="10" font-style="normal" font-weight="400"><text x="0" y="0" fill="#262626" fill-opacity="1" stroke="none" font-family="Helvetica" font-size="10" font-style="normal" font-weight="400" transform="matrix(1.00357,0,0,1.00357,215.196,388.076)" xml:space="preserve">2</text></g><g fill="none" stroke="#000" stroke-linecap="round" stroke-linejoin="round" stroke-opacity="1" stroke-width=".5" font-family=".AppleSystemUIFont" font-size="13" font-style="normal" font-weight="400" transform="matrix(1.00357,0,0,1.00357,0,0)"><polyline fill="none" points="289.5 373.5 289.5 370.5" vector-effect="none"/></g><g fill="none" stroke="#262626" stroke-linecap="square" stroke-linejoin="bevel" stroke-opacity="1" stroke-width="1" font-family="Helvetica" font-size="10" font-style="normal" font-weight="400"><text x="0" y="0" fill="#262626" fill-opacity="1" stroke="none" font-family="Helvetica" font-size="10" font-style="normal" font-weight="400" transform="matrix(1.00357,0,0,1.00357,284.293,388.076)" xml:space="preserve">2.5</text></g><g fill="none" stroke="#000" stroke-linecap="round" stroke-linejoin="round" stroke-opacity="1" stroke-width=".5" font-family=".AppleSystemUIFont" font-size="13" font-style="normal" font-weight="400" transform="matrix(1.00357,0,0,1.00357,0,0)"><polyline fill="none" points="362.5 373.5 362.5 370.5" vector-effect="none"/></g><g fill="none" stroke="#262626" stroke-linecap="square" stroke-linejoin="bevel" stroke-opacity="1" stroke-width="1" font-family="Helvetica" font-size="10" font-style="normal" font-weight="400"><text x="0" y="0" fill="#262626" fill-opacity="1" stroke="none" font-family="Helvetica" font-size="10" font-style="normal" font-weight="400" transform="matrix(1.00357,0,0,1.00357,360.729,388.076)" xml:space="preserve">3</text></g><g fill="none" stroke="#000" stroke-linecap="round" stroke-linejoin="round" stroke-opacity="1" stroke-width=".5" font-family=".AppleSystemUIFont" font-size="13" font-style="normal" font-weight="400" transform="matrix(1.00357,0,0,1.00357,0,0)"><polyline fill="none" points="434.5 373.5 434.5 370.5" vector-effect="none"/></g><g fill="none" stroke="#262626" stroke-linecap="square" stroke-linejoin="bevel" stroke-opacity="1" stroke-width="1" font-family="Helvetica" font-size="10" font-style="normal" font-weight="400"><text x="0" y="0" fill="#262626" fill-opacity="1" stroke="none" font-family="Helvetica" font-size="10" font-style="normal" font-weight="400" transform="matrix(1.00357,0,0,1.00357,428.807,388.076)" xml:space="preserve">3.5</text></g><g fill="none" stroke="#000" stroke-linecap="round" stroke-linejoin="round" stroke-opacity="1" stroke-width=".5" font-family=".AppleSystemUIFont" font-size="13" font-style="normal" font-weight="400" transform="matrix(1.00357,0,0,1.00357,0,0)"><polyline fill="none" points="506.5 373.5 506.5 370.5" vector-effect="none"/></g><g fill="none" stroke="#262626" stroke-linecap="square" stroke-linejoin="bevel" stroke-opacity="1" stroke-width="1" font-family="Helvetica" font-size="10" font-style="normal" font-weight="400"><text x="0" y="0" fill="#262626" fill-opacity="1" stroke="none" font-family="Helvetica" font-size="10" font-style="normal" font-weight="400" transform="matrix(1.00357,0,0,1.00357,506.192,388.076)" xml:space="preserve">4</text></g><g fill="none" stroke="#000" stroke-linecap="round" stroke-linejoin="round" stroke-opacity="1" stroke-width=".5" font-family=".AppleSystemUIFont" font-size="13" font-style="normal" font-weight="400" transform="matrix(1.00357,0,0,1.00357,0,0)"><polyline fill="none" points="72.5 31.5 72.5 373.5 506.5 373.5 506.5 31.5 72.5 31.5" vector-effect="none"/><polyline fill="none" points="419.5 68.5 419.5 35.5 419.5 35.5 501.5 35.5 501.5 35.5 501.5 68.5 501.5 68.5 419.5 68.5" vector-effect="none"/></g><g fill="none" stroke="#0071bc" stroke-linecap="round" stroke-linejoin="round" stroke-opacity="1" stroke-width=".5" font-family=".AppleSystemUIFont" font-size="13" font-style="normal" font-weight="400" transform="matrix(1.00357,0,0,1.00357,0,0)"><polyline fill="none" points="72.8 180.4 72.8 180.4 217.4 251 362.1 340.8 506.7 276.6" vector-effect="none"/></g><g fill="none" stroke="#d85218" stroke-linecap="round" stroke-linejoin="round" stroke-opacity="1" stroke-width=".5" font-family=".AppleSystemUIFont" font-size="13" font-style="normal" font-weight="400" transform="matrix(1.00357,0,0,1.00357,0,0)"><polyline fill="none" points="72.8 63.7 72.8 63.7 217.4 340.4 362.1 360.7 506.7 312.4" vector-effect="none"/></g><g fill="none" stroke="#ecb01f" stroke-linecap="round" stroke-linejoin="round" stroke-opacity="1" stroke-width=".5" font-family=".AppleSystemUIFont" font-size="13" font-style="normal" font-weight="400" transform="matrix(1.00357,0,0,1.00357,0,0)"><polyline fill="none" points="72.8 258.5 72.8 258.5 217.4 333.1 362.1 39.9 506.7 297.9" vector-effect="none"/></g><g fill="none" stroke="#7d2e8d" stroke-linecap="round" stroke-linejoin="round" stroke-opacity="1" stroke-width=".5" font-family=".AppleSystemUIFont" font-size="13" font-style="normal" font-weight="400" transform="matrix(1.00357,0,0,1.00357,0,0)"><polyline fill="none" points="72.8 340.2 72.8 340.2 217.4 199.9 362.1 246.2 506.7 143.7" vector-effect="none"/></g><g fill="#fff" fill-opacity="1" stroke="none" font-family=".AppleSystemUIFont" font-size="13" font-style="normal" font-weight="400" transform="matrix(1.00357,0,0,1.00357,0,0)"><rect width="82" height="33" x="420" y="36"/></g><g fill="none" stroke="#000" stroke-linecap="round" stroke-linejoin="round" stroke-opacity="1" stroke-width=".5" font-family=".AppleSystemUIFont" font-size="13" font-style="normal" font-weight="400" transform="matrix(1.00357,0,0,1.00357,0,0)"><polyline fill="none" points="419.5 68.5 419.5 35.5 419.5 35.5 501.5 35.5 501.5 35.5 501.5 68.5 501.5 68.5 419.5 68.5" vector-effect="none"/></g><g fill="none" stroke="#000" stroke-linecap="square" stroke-linejoin="bevel" stroke-opacity="1" stroke-width="1" font-family="Helvetica" font-size="11" font-style="normal" font-weight="400"><text x="0" y="0" fill="#000" fill-opacity="1" stroke="none" font-family="Helvetica" font-size="11" font-style="normal" font-weight="400" transform="matrix(1.00357,0,0,1.00357,461.643,44.1336)" xml:space="preserve">Line 1</text></g><g fill="none" stroke="#0071bc" stroke-linecap="round" stroke-linejoin="round" stroke-opacity="1" stroke-width=".5" font-family=".AppleSystemUIFont" font-size="13" font-style="normal" font-weight="400"><path fill-rule="evenodd" d="M425.5,41.5 L453.5,41.5" transform="matrix(1.00357,0,0,1.00357,0,0)" vector-effect="none"/></g><g fill="none" stroke="#000" stroke-linecap="square" stroke-linejoin="bevel" stroke-opacity="1" stroke-width="1" font-family="Helvetica" font-size="11" font-style="normal" font-weight="400"><text x="0" y="0" fill="#000" fill-opacity="1" stroke="none" font-family="Helvetica" font-size="11" font-style="normal" font-weight="400" transform="matrix(1.00357,0,0,1.00357,461.643,55.1729)" xml:space="preserve">Line 2</text></g><g fill="none" stroke="#d85218" stroke-linecap="round" stroke-linejoin="round" stroke-opacity="1" stroke-width=".5" font-family=".AppleSystemUIFont" font-size="13" font-style="normal" font-weight="400"><path fill-rule="evenodd" d="M425.5,52.5 L453.5,52.5" transform="matrix(1.00357,0,0,1.00357,0,0)" vector-effect="none"/></g><g fill="none" stroke="#000" stroke-linecap="square" stroke-linejoin="bevel" stroke-opacity="1" stroke-width="1" font-family="Helvetica" font-size="11" font-style="normal" font-weight="400"><text x="0" y="0" fill="#000" fill-opacity="1" stroke="none" font-family="Helvetica" font-size="11" font-style="normal" font-weight="400" transform="matrix(1.00357,0,0,1.00357,461.643,66.2122)" xml:space="preserve">Line 3</text></g><g fill="none" stroke="#ecb01f" stroke-linecap="round" stroke-linejoin="round" stroke-opacity="1" stroke-width=".5" font-family=".AppleSystemUIFont" font-size="13" font-style="normal" font-weight="400"><path fill-rule="evenodd" d="M425.5,63.5 L453.5,63.5" transform="matrix(1.00357,0,0,1.00357,0,0)" vector-effect="none"/></g><g fill="none" stroke="#000" stroke-linecap="round" stroke-linejoin="round" stroke-opacity="1" stroke-width=".5" font-family=".AppleSystemUIFont" font-size="13" font-style="normal" font-weight="400" transform="matrix(1.00357,0,0,1.00357,0,0)"><polyline fill="none" points="72.5 31.5 72.5 373.5 506.5 373.5 506.5 31.5 72.5 31.5" vector-effect="none"/></g></g></svg>