<svg xmlns="http://www.w3.org/2000/svg" xmlns:xlink="http://www.w3.org/1999/xlink" width="749.333" height="562.666" baseProfile="tiny" version="1.2" viewBox="0 0 562 422"><title>Qt SVG Document</title><desc>Generated with Qt</desc><g fill="none" fill-rule="evenodd" stroke="#000" stroke-linecap="square" stroke-linejoin="bevel" stroke-width="1"><g fill="#efefef" fill-opacity="1" stroke="none" font-family=".AppleSystemUIFont" font-size="13" font-style="normal" font-weight="400" transform="matrix(1.00357,0,0,1.00357,0,0)"><rect width="560" height="420" x="0" y="0"/></g><g fill="#fff" fill-opacity="1" stroke="none" font-family=".AppleSystemUIFont" font-size="13" font-style="normal" font-weight="400" transform="matrix(1.00357,0,0,1.00357,0,0)"><rect width="434" height="342" x="73" y="32"/></g><g fill="none" stroke="#000" stroke-linecap="round" stroke-linejoin="round" stroke-opacity="1" stroke-width=".5" font-family=".AppleSystemUIFont" font-size="13" font-style="normal" font-weight="400" transform="matrix(1.00357,0,0,1.00357,0,0)"><polyline fill="none" points="72.5 373.5 75.5 373.5" vector-effect="none"/></g><g fill="none" stroke="#0071bc" stroke-linecap="square" stroke-linejoin="bevel" stroke-opacity="1" stroke-width="1" font-family="Helvetica" font-size="10" font-style="normal" font-weight="400"><text x="0" y="0" fill="#0071bc" fill-opacity="1" stroke="none" font-family="Helvetica" font-size="10" font-style="normal" font-weight="400" transform="matrix(1.00357,0,0,1.00357,64.699,378.041)" xml:space="preserve">1</text></g><g fill="none" stroke="#000" stroke-linecap="round" stroke-linejoin="round" stroke-opacity="1" stroke-width=".5" font-family=".AppleSystemUIFont" font-size="13" font-style="normal" font-weight="400" transform="matrix(1.00357,0,0,1.00357,0,0)"><polyline fill="none" points="72.5 335.5 75.5 335.5" vector-effect="none"/></g><g fill="none" stroke="#0071bc" stroke-linecap="square" stroke-linejoin="bevel" stroke-opacity="1" stroke-width="1" font-family="Helvetica" font-size="10" font-style="normal" font-weight="400"><text x="0" y="0" fill="#0071bc" fill-opacity="1" stroke="none" font-family="Helvetica" font-size="10" font-style="normal" font-weight="400" transform="matrix(1.00357,0,0,1.00357,63.0839,339.905)" xml:space="preserve">2</text></g><g fill="none" stroke="#000" stroke-linecap="round" stroke-linejoin="round" stroke-opacity="1" stroke-width=".5" font-family=".AppleSystemUIFont" font-size="13" font-style="normal" font-weight="400" transform="matrix(1.00357,0,0,1.00357,0,0)"><polyline fill="none" points="72.5 297.5 75.5 297.5" vector-effect="none"/></g><g fill="none" stroke="#0071bc" stroke-linecap="square" stroke-linejoin="bevel" stroke-opacity="1" stroke-width="1" font-family="Helvetica" font-size="10" font-style="normal" font-weight="400"><text x="0" y="0" fill="#0071bc" fill-opacity="1" stroke="none" font-family="Helvetica" font-size="10" font-style="normal" font-weight="400" transform="matrix(1.00357,0,0,1.00357,63.1152,301.769)" xml:space="preserve">3</text></g><g fill="none" stroke="#000" stroke-linecap="round" stroke-linejoin="round" stroke-opacity="1" stroke-width=".5" font-family=".AppleSystemUIFont" font-size="13" font-style="normal" font-weight="400" transform="matrix(1.00357,0,0,1.00357,0,0)"><polyline fill="none" points="72.5 259.5 75.5 259.5" vector-effect="none"/></g><g fill="none" stroke="#0071bc" stroke-linecap="square" stroke-linejoin="bevel" stroke-opacity="1" stroke-width="1" font-family="Helvetica" font-size="10" font-style="normal" font-weight="400"><text x="0" y="0" fill="#0071bc" fill-opacity="1" stroke="none" font-family="Helvetica" font-size="10" font-style="normal" font-weight="400" transform="matrix(1.00357,0,0,1.00357,63.0055,263.634)" xml:space="preserve">4</text></g><g fill="none" stroke="#000" stroke-linecap="round" stroke-linejoin="round" stroke-opacity="1" stroke-width=".5" font-family=".AppleSystemUIFont" font-size="13" font-style="normal" font-weight="400" transform="matrix(1.00357,0,0,1.00357,0,0)"><polyline fill="none" points="72.5 221.5 75.5 221.5" vector-effect="none"/></g><g fill="none" stroke="#0071bc" stroke-linecap="square" stroke-linejoin="bevel" stroke-opacity="1" stroke-width="1" font-family="Helvetica" font-size="10" font-style="normal" font-weight="400"><text x="0" y="0" fill="#0071bc" fill-opacity="1" stroke="none" font-family="Helvetica" font-size="10" font-style="normal" font-weight="400" transform="matrix(1.00357,0,0,1.00357,63.0996,225.498)" xml:space="preserve">5</text></g><g fill="none" stroke="#000" stroke-linecap="round" stroke-linejoin="round" stroke-opacity="1" stroke-width=".5" font-family=".AppleSystemUIFont" font-size="13" font-style="normal" font-weight="400" transform="matrix(1.00357,0,0,1.00357,0,0)"><polyline fill="none" points="72.5 183.5 75.5 183.5" vector-effect="none"/></g><g fill="none" stroke="#0071bc" stroke-linecap="square" stroke-linejoin="bevel" stroke-opacity="1" stroke-width="1" font-family="Helvetica" font-size="10" font-style="normal" font-weight="400"><text x="0" y="0" fill="#0071bc" fill-opacity="1" stroke="none" font-family="Helvetica" font-size="10" font-style="normal" font-weight="400" transform="matrix(1.00357,0,0,1.00357,63.0682,187.362)" xml:space="preserve">6</text></g><g fill="none" stroke="#000" stroke-linecap="round" stroke-linejoin="round" stroke-opacity="1" stroke-width=".5" font-family=".AppleSystemUIFont" font-size="13" font-style="normal" font-weight="400" transform="matrix(1.00357,0,0,1.00357,0,0)"><polyline fill="none" points="72.5 145.5 75.5 145.5" vector-effect="none"/></g><g fill="none" stroke="#0071bc" stroke-linecap="square" stroke-linejoin="bevel" stroke-opacity="1" stroke-width="1" font-family="Helvetica" font-size="10" font-style="normal" font-weight="400"><text x="0" y="0" fill="#0071bc" fill-opacity="1" stroke="none" font-family="Helvetica" font-size="10" font-style="normal" font-weight="400" transform="matrix(1.00357,0,0,1.00357,63.0055,149.226)" xml:space="preserve">7</text></g><g fill="none" stroke="#000" stroke-linecap="round" stroke-linejoin="round" stroke-opacity="1" stroke-width=".5" font-family=".AppleSystemUIFont" font-size="13" font-style="normal" font-weight="400" transform="matrix(1.00357,0,0,1.00357,0,0)"><polyline fill="none" points="72.5 107.5 75.5 107.5" vector-effect="none"/></g><g fill="none" stroke="#0071bc" stroke-linecap="square" stroke-linejoin="bevel" stroke-opacity="1" stroke-width="1" font-family="Helvetica" font-size="10" font-style="normal" font-weight="400"><text x="0" y="0" fill="#0071bc" fill-opacity="1" stroke="none" font-family="Helvetica" font-size="10" font-style="normal" font-weight="400" transform="matrix(1.00357,0,0,1.00357,63.1152,111.091)" xml:space="preserve">8</text></g><g fill="none" stroke="#000" stroke-linecap="round" stroke-linejoin="round" stroke-opacity="1" stroke-width=".5" font-family=".AppleSystemUIFont" font-size="13" font-style="normal" font-weight="400" transform="matrix(1.00357,0,0,1.00357,0,0)"><polyline fill="none" points="72.5 69.5 75.5 69.5" vector-effect="none"/></g><g fill="none" stroke="#0071bc" stroke-linecap="square" stroke-linejoin="bevel" stroke-opacity="1" stroke-width="1" font-family="Helvetica" font-size="10" font-style="normal" font-weight="400"><text x="0" y="0" fill="#0071bc" fill-opacity="1" stroke="none" font-family="Helvetica" font-size="10" font-style="normal" font-weight="400" transform="matrix(1.00357,0,0,1.00357,63.1623,72.9549)" xml:space="preserve">9</text></g><g fill="none" stroke="#000" stroke-linecap="round" stroke-linejoin="round" stroke-opacity="1" stroke-width=".5" font-family=".AppleSystemUIFont" font-size="13" font-style="normal" font-weight="400" transform="matrix(1.00357,0,0,1.00357,0,0)"><polyline fill="none" points="72.5 31.5 75.5 31.5" vector-effect="none"/></g><g fill="none" stroke="#0071bc" stroke-linecap="square" stroke-linejoin="bevel" stroke-opacity="1" stroke-width="1" font-family="Helvetica" font-size="10" font-style="normal" font-weight="400"><text x="0" y="0" fill="#0071bc" fill-opacity="1" stroke="none" font-family="Helvetica" font-size="10" font-style="normal" font-weight="400" transform="matrix(1.00357,0,0,1.00357,57.5329,34.8192)" xml:space="preserve">10</text></g><g fill="none" stroke="#000" stroke-linecap="round" stroke-linejoin="round" stroke-opacity="1" stroke-width=".5" font-family=".AppleSystemUIFont" font-size="13" font-style="normal" font-weight="400" transform="matrix(1.00357,0,0,1.00357,0,0)"><polyline fill="none" points="72.5 373.5 72.5 370.5" vector-effect="none"/></g><g fill="none" stroke="#262626" stroke-linecap="square" stroke-linejoin="bevel" stroke-opacity="1" stroke-width="1" font-family="Helvetica" font-size="10" font-style="normal" font-weight="400"><text x="0" y="0" fill="#262626" fill-opacity="1" stroke="none" font-family="Helvetica" font-size="10" font-style="normal" font-weight="400" transform="matrix(1.00357,0,0,1.00357,71.4888,388.076)" xml:space="preserve">1</text></g><g fill="none" stroke="#000" stroke-linecap="round" stroke-linejoin="round" stroke-opacity="1" stroke-width=".5" font-family=".AppleSystemUIFont" font-size="13" font-style="normal" font-weight="400" transform="matrix(1.00357,0,0,1.00357,0,0)"><polyline fill="none" points="121.5 373.5 121.5 370.5" vector-effect="none"/></g><g fill="none" stroke="#262626" stroke-linecap="square" stroke-linejoin="bevel" stroke-opacity="1" stroke-width="1" font-family="Helvetica" font-size="10" font-style="normal" font-weight="400"><text x="0" y="0" fill="#262626" fill-opacity="1" stroke="none" font-family="Helvetica" font-size="10" font-style="normal" font-weight="400" transform="matrix(1.00357,0,0,1.00357,118.853,388.076)" xml:space="preserve">2</text></g><g fill="none" stroke="#000" stroke-linecap="round" stroke-linejoin="round" stroke-opacity="1" stroke-width=".5" font-family=".AppleSystemUIFont" font-size="13" font-style="normal" font-weight="400" transform="matrix(1.00357,0,0,1.00357,0,0)"><polyline fill="none" points="169.5 373.5 169.5 370.5" vector-effect="none"/></g><g fill="none" stroke="#262626" stroke-linecap="square" stroke-linejoin="bevel" stroke-opacity="1" stroke-width="1" font-family="Helvetica" font-size="10" font-style="normal" font-weight="400"><text x="0" y="0" fill="#262626" fill-opacity="1" stroke="none" font-family="Helvetica" font-size="10" font-style="normal" font-weight="400" transform="matrix(1.00357,0,0,1.00357,167.04,388.076)" xml:space="preserve">3</text></g><g fill="none" stroke="#000" stroke-linecap="round" stroke-linejoin="round" stroke-opacity="1" stroke-width=".5" font-family=".AppleSystemUIFont" font-size="13" font-style="normal" font-weight="400" transform="matrix(1.00357,0,0,1.00357,0,0)"><polyline fill="none" points="217.5 373.5 217.5 370.5" vector-effect="none"/></g><g fill="none" stroke="#262626" stroke-linecap="square" stroke-linejoin="bevel" stroke-opacity="1" stroke-width="1" font-family="Helvetica" font-size="10" font-style="normal" font-weight="400"><text x="0" y="0" fill="#262626" fill-opacity="1" stroke="none" font-family="Helvetica" font-size="10" font-style="normal" font-weight="400" transform="matrix(1.00357,0,0,1.00357,215.156,388.076)" xml:space="preserve">4</text></g><g fill="none" stroke="#000" stroke-linecap="round" stroke-linejoin="round" stroke-opacity="1" stroke-width=".5" font-family=".AppleSystemUIFont" font-size="13" font-style="normal" font-weight="400" transform="matrix(1.00357,0,0,1.00357,0,0)"><polyline fill="none" points="265.5 373.5 265.5 370.5" vector-effect="none"/></g><g fill="none" stroke="#262626" stroke-linecap="square" stroke-linejoin="bevel" stroke-opacity="1" stroke-width="1" font-family="Helvetica" font-size="10" font-style="normal" font-weight="400"><text x="0" y="0" fill="#262626" fill-opacity="1" stroke="none" font-family="Helvetica" font-size="10" font-style="normal" font-weight="400" transform="matrix(1.00357,0,0,1.00357,264.378,388.076)" xml:space="preserve">5</text></g><g fill="none" stroke="#000" stroke-linecap="round" stroke-linejoin="round" stroke-opacity="1" stroke-width=".5" font-family=".AppleSystemUIFont" font-size="13" font-style="normal" font-weight="400" transform="matrix(1.00357,0,0,1.00357,0,0)"><polyline fill="none" points="313.5 373.5 313.5 370.5" vector-effect="none"/></g><g fill="none" stroke="#262626" stroke-linecap="square" stroke-linejoin="bevel" stroke-opacity="1" stroke-width="1" font-family="Helvetica" font-size="10" font-style="normal" font-weight="400"><text x="0" y="0" fill="#262626" fill-opacity="1" stroke="none" font-family="Helvetica" font-size="10" font-style="normal" font-weight="400" transform="matrix(1.00357,0,0,1.00357,312.534,388.076)" xml:space="preserve">6</text></g><g fill="none" stroke="#000" stroke-linecap="round" stroke-linejoin="round" stroke-opacity="1" stroke-width=".5" font-family=".AppleSystemUIFont" font-size="13" font-style="normal" font-weight="400" transform="matrix(1.00357,0,0,1.00357,0,0)"><polyline fill="none" points="362.5 373.5 362.5 370.5" vector-effect="none"/></g><g fill="none" stroke="#262626" stroke-linecap="square" stroke-linejoin="bevel" stroke-opacity="1" stroke-width="1" font-family="Helvetica" font-size="10" font-style="normal" font-weight="400"><text x="0" y="0" fill="#262626" fill-opacity="1" stroke="none" font-family="Helvetica" font-size="10" font-style="normal" font-weight="400" transform="matrix(1.00357,0,0,1.00357,360.674,388.076)" xml:space="preserve">7</text></g><g fill="none" stroke="#000" stroke-linecap="round" stroke-linejoin="round" stroke-opacity="1" stroke-width=".5" font-family=".AppleSystemUIFont" font-size="13" font-style="normal" font-weight="400" transform="matrix(1.00357,0,0,1.00357,0,0)"><polyline fill="none" points="410.5 373.5 410.5 370.5" vector-effect="none"/></g><g fill="none" stroke="#262626" stroke-linecap="square" stroke-linejoin="bevel" stroke-opacity="1" stroke-width="1" font-family="Helvetica" font-size="10" font-style="normal" font-weight="400"><text x="0" y="0" fill="#262626" fill-opacity="1" stroke="none" font-family="Helvetica" font-size="10" font-style="normal" font-weight="400" transform="matrix(1.00357,0,0,1.00357,408.9,388.076)" xml:space="preserve">8</text></g><g fill="none" stroke="#000" stroke-linecap="round" stroke-linejoin="round" stroke-opacity="1" stroke-width=".5" font-family=".AppleSystemUIFont" font-size="13" font-style="normal" font-weight="400" transform="matrix(1.00357,0,0,1.00357,0,0)"><polyline fill="none" points="458.5 373.5 458.5 370.5" vector-effect="none"/></g><g fill="none" stroke="#262626" stroke-linecap="square" stroke-linejoin="bevel" stroke-opacity="1" stroke-width="1" font-family="Helvetica" font-size="10" font-style="normal" font-weight="400"><text x="0" y="0" fill="#262626" fill-opacity="1" stroke="none" font-family="Helvetica" font-size="10" font-style="normal" font-weight="400" transform="matrix(1.00357,0,0,1.00357,458.099,388.076)" xml:space="preserve">9</text></g><g fill="none" stroke="#000" stroke-linecap="round" stroke-linejoin="round" stroke-opacity="1" stroke-width=".5" font-family=".AppleSystemUIFont" font-size="13" font-style="normal" font-weight="400" transform="matrix(1.00357,0,0,1.00357,0,0)"><polyline fill="none" points="506.5 373.5 506.5 370.5" vector-effect="none"/></g><g fill="none" stroke="#262626" stroke-linecap="square" stroke-linejoin="bevel" stroke-opacity="1" stroke-width="1" font-family="Helvetica" font-size="10" font-style="normal" font-weight="400"><text x="0" y="0" fill="#262626" fill-opacity="1" stroke="none" font-family="Helvetica" font-size="10" font-style="normal" font-weight="400" transform="matrix(1.00357,0,0,1.00357,503.456,388.076)" xml:space="preserve">10</text></g><g fill="none" stroke="#000" stroke-linecap="round" stroke-linejoin="round" stroke-opacity="1" stroke-width=".5" font-family=".AppleSystemUIFont" font-size="13" font-style="normal" font-weight="400" transform="matrix(1.00357,0,0,1.00357,0,0)"><polyline fill="none" points="506.5 373.5 503.5 373.5" vector-effect="none"/></g><g fill="none" stroke="#d85218" stroke-linecap="square" stroke-linejoin="bevel" stroke-opacity="1" stroke-width="1" font-family="Helvetica" font-size="10" font-style="normal" font-weight="400"><text x="0" y="0" fill="#d85218" fill-opacity="1" stroke="none" font-family="Helvetica" font-size="10" font-style="normal" font-weight="400" transform="matrix(1.00357,0,0,1.00357,513.829,378.041)" xml:space="preserve">10</text></g><g fill="none" stroke="#000" stroke-linecap="round" stroke-linejoin="round" stroke-opacity="1" stroke-width=".5" font-family=".AppleSystemUIFont" font-size="13" font-style="normal" font-weight="400" transform="matrix(1.00357,0,0,1.00357,0,0)"><polyline fill="none" points="506.5 335.5 503.5 335.5" vector-effect="none"/></g><g fill="none" stroke="#d85218" stroke-linecap="square" stroke-linejoin="bevel" stroke-opacity="1" stroke-width="1" font-family="Helvetica" font-size="10" font-style="normal" font-weight="400"><text x="0" y="0" fill="#d85218" fill-opacity="1" stroke="none" font-family="Helvetica" font-size="10" font-style="normal" font-weight="400" transform="matrix(1.00357,0,0,1.00357,513.829,339.905)" xml:space="preserve">20</text></g><g fill="none" stroke="#000" stroke-linecap="round" stroke-linejoin="round" stroke-opacity="1" stroke-width=".5" font-family=".AppleSystemUIFont" font-size="13" font-style="normal" font-weight="400" transform="matrix(1.00357,0,0,1.00357,0,0)"><polyline fill="none" points="506.5 297.5 503.5 297.5" vector-effect="none"/></g><g fill="none" stroke="#d85218" stroke-linecap="square" stroke-linejoin="bevel" stroke-opacity="1" stroke-width="1" font-family="Helvetica" font-size="10" font-style="normal" font-weight="400"><text x="0" y="0" fill="#d85218" fill-opacity="1" stroke="none" font-family="Helvetica" font-size="10" font-style="normal" font-weight="400" transform="matrix(1.00357,0,0,1.00357,513.829,301.769)" xml:space="preserve">30</text></g><g fill="none" stroke="#000" stroke-linecap="round" stroke-linejoin="round" stroke-opacity="1" stroke-width=".5" font-family=".AppleSystemUIFont" font-size="13" font-style="normal" font-weight="400" transform="matrix(1.00357,0,0,1.00357,0,0)"><polyline fill="none" points="506.5 259.5 503.5 259.5" vector-effect="none"/></g><g fill="none" stroke="#d85218" stroke-linecap="square" stroke-linejoin="bevel" stroke-opacity="1" stroke-width="1" font-family="Helvetica" font-size="10" font-style="normal" font-weight="400"><text x="0" y="0" fill="#d85218" fill-opacity="1" stroke="none" font-family="Helvetica" font-size="10" font-style="normal" font-weight="400" transform="matrix(1.00357,0,0,1.00357,513.829,263.634)" xml:space="preserve">40</text></g><g fill="none" stroke="#000" stroke-linecap="round" stroke-linejoin="round" stroke-opacity="1" stroke-width=".5" font-family=".AppleSystemUIFont" font-size="13" font-style="normal" font-weight="400" transform="matrix(1.00357,0,0,1.00357,0,0)"><polyline fill="none" points="506.5 221.5 503.5 221.5" vector-effect="none"/></g><g fill="none" stroke="#d85218" stroke-linecap="square" stroke-linejoin="bevel" stroke-opacity="1" stroke-width="1" font-family="Helvetica" font-size="10" font-style="normal" font-weight="400"><text x="0" y="0" fill="#d85218" fill-opacity="1" stroke="none" font-family="Helvetica" font-size="10" font-style="normal" font-weight="400" transform="matrix(1.00357,0,0,1.00357,513.829,225.498)" xml:space="preserve">50</text></g><g fill="none" stroke="#000" stroke-linecap="round" stroke-linejoin="round" stroke-opacity="1" stroke-width=".5" font-family=".AppleSystemUIFont" font-size="13" font-style="normal" font-weight="400" transform="matrix(1.00357,0,0,1.00357,0,0)"><polyline fill="none" points="506.5 183.5 503.5 183.5" vector-effect="none"/></g><g fill="none" stroke="#d85218" stroke-linecap="square" stroke-linejoin="bevel" stroke-opacity="1" stroke-width="1" font-family="Helvetica" font-size="10" font-style="normal" font-weight="400"><text x="0" y="0" fill="#d85218" fill-opacity="1" stroke="none" font-family="Helvetica" font-size="10" font-style="normal" font-weight="400" transform="matrix(1.00357,0,0,1.00357,513.829,187.362)" xml:space="preserve">60</text></g><g fill="none" stroke="#000" stroke-linecap="round" stroke-linejoin="round" stroke-opacity="1" stroke-width=".5" font-family=".AppleSystemUIFont" font-size="13" font-style="normal" font-weight="400" transform="matrix(1.00357,0,0,1.00357,0,0)"><polyline fill="none" points="506.5 145.5 503.5 145.5" vector-effect="none"/></g><g fill="none" stroke="#d85218" stroke-linecap="square" stroke-linejoin="bevel" stroke-opacity="1" stroke-width="1" font-family="Helvetica" font-size="10" font-style="normal" font-weight="400"><text x="0" y="0" fill="#d85218" fill-opacity="1" stroke="none" font-family="Helvetica" font-size="10" font-style="normal" font-weight="400" transform="matrix(1.00357,0,0,1.00357,513.829,149.226)" xml:space="preserve">70</text></g><g fill="none" stroke="#000" stroke-linecap="round" stroke-linejoin="round" stroke-opacity="1" stroke-width=".5" font-family=".AppleSystemUIFont" font-size="13" font-style="normal" font-weight="400" transform="matrix(1.00357,0,0,1.00357,0,0)"><polyline fill="none" points="506.5 107.5 503.5 107.5" vector-effect="none"/></g><g fill="none" stroke="#d85218" stroke-linecap="square" stroke-linejoin="bevel" stroke-opacity="1" stroke-width="1" font-family="Helvetica" font-size="10" font-style="normal" font-weight="400"><text x="0" y="0" fill="#d85218" fill-opacity="1" stroke="none" font-family="Helvetica" font-size="10" font-style="normal" font-weight="400" transform="matrix(1.00357,0,0,1.00357,513.829,111.091)" xml:space="preserve">80</text></g><g fill="none" stroke="#000" stroke-linecap="round" stroke-linejoin="round" stroke-opacity="1" stroke-width=".5" font-family=".AppleSystemUIFont" font-size="13" font-style="normal" font-weight="400" transform="matrix(1.00357,0,0,1.00357,0,0)"><polyline fill="none" points="506.5 69.5 503.5 69.5" vector-effect="none"/></g><g fill="none" stroke="#d85218" stroke-linecap="square" stroke-linejoin="bevel" stroke-opacity="1" stroke-width="1" font-family="Helvetica" font-size="10" font-style="normal" font-weight="400"><text x="0" y="0" fill="#d85218" fill-opacity="1" stroke="none" font-family="Helvetica" font-size="10" font-style="normal" font-weight="400" transform="matrix(1.00357,0,0,1.00357,513.829,72.9549)" xml:space="preserve">90</text></g><g fill="none" stroke="#000" stroke-linecap="round" stroke-linejoin="round" stroke-opacity="1" stroke-width=".5" font-family=".AppleSystemUIFont" font-size="13" font-style="normal" font-weight="400" transform="matrix(1.00357,0,0,1.00357,0,0)"><polyline fill="none" points="506.5 31.5 503.5 31.5" vector-effect="none"/></g><g fill="none" stroke="#d85218" stroke-linecap="square" stroke-linejoin="bevel" stroke-opacity="1" stroke-width="1" font-family="Helvetica" font-size="10" font-style="normal" font-weight="400"><text x="0" y="0" fill="#d85218" fill-opacity="1" stroke="none" font-family="Helvetica" font-size="10" font-style="normal" font-weight="400" transform="matrix(1.00357,0,0,1.00357,513.829,34.8192)" xml:space="preserve">100</text></g><g fill="none" stroke="#000" stroke-linecap="round" stroke-linejoin="round" stroke-opacity="1" stroke-width=".5" font-family=".AppleSystemUIFont" font-size="13" font-style="normal" font-weight="400" transform="matrix(1.00357,0,0,1.00357,0,0)"><polyline fill="none" points="72.5 31.5 72.5 373.5 506.5 373.5 506.5 31.5 72.5 31.5" vector-effect="none"/></g><g fill="none" stroke="#0071bc" stroke-linecap="round" stroke-linejoin="round" stroke-opacity="1" stroke-width=".5" font-family=".AppleSystemUIFont" font-size="13" font-style="normal" font-weight="400" transform="matrix(1.00357,0,0,1.00357,0,0)"><polyline fill="none" points="72.8 373.7 72.8 373.7 121 31.5 169.2 145.6 217.4 183.6 265.6 145.6 313.9 145.6 362.1 259.6 410.3 183.6 458.5 373.7 506.7 183.6" vector-effect="none"/></g><g fill="none" stroke="#d85218" stroke-linecap="round" stroke-linejoin="round" stroke-opacity="1" stroke-width=".5" font-family=".AppleSystemUIFont" font-size="13" font-style="normal" font-weight="400" transform="matrix(1.00357,0,0,1.00357,0,0)"><polyline fill="none" points="72.8 145.6 72.8 145.6 121 335.7 169.2 69.5 217.4 373.7 265.6 69.5 313.9 145.6 362.1 335.7 410.3 373.7 458.5 31.5 506.7 221.6" vector-effect="none"/></g><g fill="none" stroke="#000" stroke-linecap="round" stroke-linejoin="round" stroke-opacity="1" stroke-width=".5" font-family=".AppleSystemUIFont" font-size="13" font-style="normal" font-weight="400" transform="matrix(1.00357,0,0,1.00357,0,0)"><polyline fill="none" points="72.5 31.5 72.5 373.5 506.5 373.5 506.5 31.5 72.5 31.5" vector-effect="none"/></g></g></svg>