<svg xmlns="http://www.w3.org/2000/svg" xmlns:xlink="http://www.w3.org/1999/xlink" width="560" height="420" viewBox="0 0 560 420"><title>Gnuplot</title><desc>Produced by GNUPLOT 5.4 patchlevel 0</desc><g id="gnuplot_canvas"><rect width="560" height="420" x="0" y="0" fill="none"/><defs><circle id="gpDot" r=".5" stroke="currentColor" stroke-width=".5"/><path id="gpPt0" stroke="currentColor" stroke-width=".267" d="M-1,0 h2 M0,-1 v2"/><path id="gpPt1" stroke="currentColor" stroke-width=".267" d="M-1,-1 L1,1 M1,-1 L-1,1"/><path id="gpPt2" stroke="currentColor" stroke-width=".267" d="M-1,0 L1,0 M0,-1 L0,1 M-1,-1 L1,1 M-1,1 L1,-1"/><rect id="gpPt3" width="2" height="2" x="-1" y="-1" stroke="currentColor" stroke-width=".267"/><rect id="gpPt4" width="2" height="2" x="-1" y="-1" fill="currentColor" stroke="currentColor" stroke-width=".267"/><circle id="gpPt5" cx="0" cy="0" r="1" stroke="currentColor" stroke-width=".267"/><use id="gpPt6" fill="currentColor" stroke="none" xlink:href="#gpPt5"/><path id="gpPt7" stroke="currentColor" stroke-width=".267" d="M0,-1.33 L-1.33,0.67 L1.33,0.67 z"/><use id="gpPt8" fill="currentColor" stroke="none" xlink:href="#gpPt7"/><use id="gpPt9" stroke="currentColor" transform="rotate(180)" xlink:href="#gpPt7"/><use id="gpPt10" fill="currentColor" stroke="none" xlink:href="#gpPt9"/><use id="gpPt11" stroke="currentColor" transform="rotate(45)" xlink:href="#gpPt3"/><use id="gpPt12" fill="currentColor" stroke="none" xlink:href="#gpPt11"/><path id="gpPt13" stroke="currentColor" stroke-width=".267" d="M0,1.330 L1.265,0.411 L0.782,-1.067 L-0.782,-1.076 L-1.265,0.411 z"/><use id="gpPt14" fill="currentColor" stroke="none" xlink:href="#gpPt13"/><filter id="textbox" width="1" height="1" x="0" y="0" filterUnits="objectBoundingBox"><feFlood flood-color="#fff" flood-opacity="1" result="bgnd"/><feComposite in="SourceGraphic" in2="bgnd" operator="atop"/></filter><filter id="greybox" width="1" height="1" x="0" y="0" filterUnits="objectBoundingBox"><feFlood flood-color="#d3d3d3" flood-opacity="1" result="grey"/><feComposite in="SourceGraphic" in2="grey" operator="atop"/></filter></defs><g fill="none" stroke="currentColor" stroke-linecap="butt" stroke-linejoin="miter" stroke-width=".5" color="#000"><path stroke="#000" d="M72.8,373.8 L78.4,373.8"/><g fill="#262626" stroke="none" font-family="Helvetica" font-size="10" text-anchor="end"><text transform="translate(65.8,377.1)"><tspan font-family="Helvetica">-4</tspan></text></g></g><g fill="none" stroke="currentColor" stroke-linecap="butt" stroke-linejoin="miter" stroke-width=".5" color="#000"><path stroke="#000" d="M72.8,324.9 L78.4,324.9"/><g fill="#262626" stroke="none" font-family="Helvetica" font-size="10" text-anchor="end"><text transform="translate(65.8,328.2)"><tspan font-family="Helvetica">-3</tspan></text></g></g><g fill="none" stroke="currentColor" stroke-linecap="butt" stroke-linejoin="miter" stroke-width=".5" color="#000"><path stroke="#000" d="M72.8,276.0 L78.4,276.0"/><g fill="#262626" stroke="none" font-family="Helvetica" font-size="10" text-anchor="end"><text transform="translate(65.8,279.3)"><tspan font-family="Helvetica">-2</tspan></text></g></g><g fill="none" stroke="currentColor" stroke-linecap="butt" stroke-linejoin="miter" stroke-width=".5" color="#000"><path stroke="#000" d="M72.8,227.1 L78.4,227.1"/><g fill="#262626" stroke="none" font-family="Helvetica" font-size="10" text-anchor="end"><text transform="translate(65.8,230.4)"><tspan font-family="Helvetica">-1</tspan></text></g></g><g fill="none" stroke="currentColor" stroke-linecap="butt" stroke-linejoin="miter" stroke-width=".5" color="#000"><path stroke="#000" d="M72.8,178.3 L78.4,178.3"/><g fill="#262626" stroke="none" font-family="Helvetica" font-size="10" text-anchor="end"><text transform="translate(65.8,181.6)"><tspan font-family="Helvetica">0</tspan></text></g></g><g fill="none" stroke="currentColor" stroke-linecap="butt" stroke-linejoin="miter" stroke-width=".5" color="#000"><path stroke="#000" d="M72.8,129.4 L78.4,129.4"/><g fill="#262626" stroke="none" font-family="Helvetica" font-size="10" text-anchor="end"><text transform="translate(65.8,132.7)"><tspan font-family="Helvetica">1</tspan></text></g></g><g fill="none" stroke="currentColor" stroke-linecap="butt" stroke-linejoin="miter" stroke-width=".5" color="#000"><path stroke="#000" d="M72.8,80.5 L78.4,80.5"/><g fill="#262626" stroke="none" font-family="Helvetica" font-size="10" text-anchor="end"><text transform="translate(65.8,83.8)"><tspan font-family="Helvetica">2</tspan></text></g></g><g fill="none" stroke="currentColor" stroke-linecap="butt" stroke-linejoin="miter" stroke-width=".5" color="#000"><path stroke="#000" d="M72.8,31.6 L78.4,31.6"/><g fill="#262626" stroke="none" font-family="Helvetica" font-size="10" text-anchor="end"><text transform="translate(65.8,34.9)"><tspan font-family="Helvetica">3</tspan></text></g></g><g fill="none" stroke="currentColor" stroke-linecap="butt" stroke-linejoin="miter" stroke-width=".5" color="#000"><path stroke="#000" d="M72.8,373.8 L72.8,368.2"/><g fill="#262626" stroke="none" font-family="Helvetica" font-size="10" text-anchor="middle"><text transform="translate(72.8,392.1)"><tspan font-family="Helvetica">-3</tspan></text></g></g><g fill="none" stroke="currentColor" stroke-linecap="butt" stroke-linejoin="miter" stroke-width=".5" color="#000"><path stroke="#000" d="M134.8,373.8 L134.8,368.2"/><g fill="#262626" stroke="none" font-family="Helvetica" font-size="10" text-anchor="middle"><text transform="translate(134.8,392.1)"><tspan font-family="Helvetica">-2</tspan></text></g></g><g fill="none" stroke="currentColor" stroke-linecap="butt" stroke-linejoin="miter" stroke-width=".5" color="#000"><path stroke="#000" d="M196.8,373.8 L196.8,368.2"/><g fill="#262626" stroke="none" font-family="Helvetica" font-size="10" text-anchor="middle"><text transform="translate(196.8,392.1)"><tspan font-family="Helvetica">-1</tspan></text></g></g><g fill="none" stroke="currentColor" stroke-linecap="butt" stroke-linejoin="miter" stroke-width=".5" color="#000"><path stroke="#000" d="M258.8,373.8 L258.8,368.2"/><g fill="#262626" stroke="none" font-family="Helvetica" font-size="10" text-anchor="middle"><text transform="translate(258.8,392.1)"><tspan font-family="Helvetica">0</tspan></text></g></g><g fill="none" stroke="currentColor" stroke-linecap="butt" stroke-linejoin="miter" stroke-width=".5" color="#000"><path stroke="#000" d="M320.7,373.8 L320.7,368.2"/><g fill="#262626" stroke="none" font-family="Helvetica" font-size="10" text-anchor="middle"><text transform="translate(320.7,392.1)"><tspan font-family="Helvetica">1</tspan></text></g></g><g fill="none" stroke="currentColor" stroke-linecap="butt" stroke-linejoin="miter" stroke-width=".5" color="#000"><path stroke="#000" d="M382.7,373.8 L382.7,368.2"/><g fill="#262626" stroke="none" font-family="Helvetica" font-size="10" text-anchor="middle"><text transform="translate(382.7,392.1)"><tspan font-family="Helvetica">2</tspan></text></g></g><g fill="none" stroke="currentColor" stroke-linecap="butt" stroke-linejoin="miter" stroke-width=".5" color="#000"><path stroke="#000" d="M444.7,373.8 L444.7,368.2"/><g fill="#262626" stroke="none" font-family="Helvetica" font-size="10" text-anchor="middle"><text transform="translate(444.7,392.1)"><tspan font-family="Helvetica">3</tspan></text></g></g><g fill="none" stroke="currentColor" stroke-linecap="butt" stroke-linejoin="miter" stroke-width=".5" color="#000"><path stroke="#000" d="M506.7,373.8 L506.7,368.2"/><g fill="#262626" stroke="none" font-family="Helvetica" font-size="10" text-anchor="middle"><text transform="translate(506.7,392.1)"><tspan font-family="Helvetica">4</tspan></text></g></g><g fill="none" stroke="currentColor" stroke-linecap="butt" stroke-linejoin="miter" stroke-width=".5" color="#000"><path stroke="#000" d="M72.8,31.6 L72.8,373.8 L506.7,373.8 L506.7,31.6 L72.8,31.6 Z"/></g><g id="gnuplot_plot_1a"><title>&apos;-&apos;</title><g fill="none" stroke="currentColor" stroke-linecap="butt" stroke-linejoin="miter" stroke-width="1" color="#000"><use color="#0071BC" transform="translate(298.1,105.1) scale(3.75)" xlink:href="#gpPt5"/><use color="#0071BC" transform="translate(200.6,226.8) scale(3.75)" xlink:href="#gpPt5"/><use color="#0071BC" transform="translate(343.2,230.2) scale(3.75)" xlink:href="#gpPt5"/><use color="#0071BC" transform="translate(341.2,250.5) scale(3.75)" xlink:href="#gpPt5"/><use color="#0071BC" transform="translate(221.3,181.0) scale(3.75)" xlink:href="#gpPt5"/><use color="#0071BC" transform="translate(216.3,205.9) scale(3.75)" xlink:href="#gpPt5"/><use color="#0071BC" transform="translate(284.4,257.9) scale(3.75)" xlink:href="#gpPt5"/><use color="#0071BC" transform="translate(207.0,145.6) scale(3.75)" xlink:href="#gpPt5"/><use color="#0071BC" transform="translate(281.6,204.8) scale(3.75)" xlink:href="#gpPt5"/><use color="#0071BC" transform="translate(220.3,160.7) scale(3.75)" xlink:href="#gpPt5"/><use color="#0071BC" transform="translate(269.0,162.4) scale(3.75)" xlink:href="#gpPt5"/><use color="#0071BC" transform="translate(206.5,138.6) scale(3.75)" xlink:href="#gpPt5"/><use color="#0071BC" transform="translate(227.7,193.5) scale(3.75)" xlink:href="#gpPt5"/><use color="#0071BC" transform="translate(444.8,218.3) scale(3.75)" xlink:href="#gpPt5"/><use color="#0071BC" transform="translate(306.7,209.6) scale(3.75)" xlink:href="#gpPt5"/><use color="#0071BC" transform="translate(246.7,202.3) scale(3.75)" xlink:href="#gpPt5"/><use color="#0071BC" transform="translate(209.3,86.1) scale(3.75)" xlink:href="#gpPt5"/><use color="#0071BC" transform="translate(321.2,149.2) scale(3.75)" xlink:href="#gpPt5"/><use color="#0071BC" transform="translate(277.1,131.7) scale(3.75)" xlink:href="#gpPt5"/><use color="#0071BC" transform="translate(375.8,157.3) scale(3.75)" xlink:href="#gpPt5"/><use color="#0071BC" transform="translate(296.2,211.4) scale(3.75)" xlink:href="#gpPt5"/><use color="#0071BC" transform="translate(329.8,185.9) scale(3.75)" xlink:href="#gpPt5"/><use color="#0071BC" transform="translate(158.0,212.4) scale(3.75)" xlink:href="#gpPt5"/><use color="#0071BC" transform="translate(219.5,177.9) scale(3.75)" xlink:href="#gpPt5"/><use color="#0071BC" transform="translate(300.7,233.0) scale(3.75)" xlink:href="#gpPt5"/><use color="#0071BC" transform="translate(371.2,215.1) scale(3.75)" xlink:href="#gpPt5"/><use color="#0071BC" transform="translate(236.9,68.4) scale(3.75)" xlink:href="#gpPt5"/><use color="#0071BC" transform="translate(303.7,150.2) scale(3.75)" xlink:href="#gpPt5"/><use color="#0071BC" transform="translate(241.4,174.5) scale(3.75)" xlink:href="#gpPt5"/><use color="#0071BC" transform="translate(257.6,222.8) scale(3.75)" xlink:href="#gpPt5"/><use color="#0071BC" transform="translate(277.7,146.1) scale(3.75)" xlink:href="#gpPt5"/><use color="#0071BC" transform="translate(154.3,171.3) scale(3.75)" xlink:href="#gpPt5"/><use color="#0071BC" transform="translate(328.9,189.3) scale(3.75)" xlink:href="#gpPt5"/><use color="#0071BC" transform="translate(122.3,109.9) scale(3.75)" xlink:href="#gpPt5"/><use color="#0071BC" transform="translate(254.9,173.8) scale(3.75)" xlink:href="#gpPt5"/><use color="#0071BC" transform="translate(208.5,222.3) scale(3.75)" xlink:href="#gpPt5"/><use color="#0071BC" transform="translate(246.2,326.8) scale(3.75)" xlink:href="#gpPt5"/><use color="#0071BC" transform="translate(244.1,176.6) scale(3.75)" xlink:href="#gpPt5"/><use color="#0071BC" transform="translate(158.6,175.3) scale(3.75)" xlink:href="#gpPt5"/><use color="#0071BC" transform="translate(290.3,263.0) scale(3.75)" xlink:href="#gpPt5"/><use color="#0071BC" transform="translate(307.1,125.3) scale(3.75)" xlink:href="#gpPt5"/><use color="#0071BC" transform="translate(192.0,148.8) scale(3.75)" xlink:href="#gpPt5"/><use color="#0071BC" transform="translate(282.2,174.8) scale(3.75)" xlink:href="#gpPt5"/><use color="#0071BC" transform="translate(306.9,164.6) scale(3.75)" xlink:href="#gpPt5"/><use color="#0071BC" transform="translate(152.2,210.4) scale(3.75)" xlink:href="#gpPt5"/><use color="#0071BC" transform="translate(277.3,204.4) scale(3.75)" xlink:href="#gpPt5"/><use color="#0071BC" transform="translate(208.8,113.3) scale(3.75)" xlink:href="#gpPt5"/><use color="#0071BC" transform="translate(330.2,242.2) scale(3.75)" xlink:href="#gpPt5"/><use color="#0071BC" transform="translate(233.3,241.6) scale(3.75)" xlink:href="#gpPt5"/><use color="#0071BC" transform="translate(302.7,265.6) scale(3.75)" xlink:href="#gpPt5"/></g></g><g fill="none" stroke="currentColor" stroke-linecap="butt" stroke-linejoin="miter" stroke-width=".5" color="#000"><path stroke="#000" d="M72.8,31.6 L72.8,373.8 L506.7,373.8 L506.7,31.6 L72.8,31.6 Z"/></g></g></svg>