<svg xmlns="http://www.w3.org/2000/svg" xmlns:xlink="http://www.w3.org/1999/xlink" width="560" height="420" viewBox="0 0 560 420"><title>Gnuplot</title><desc>Produced by GNUPLOT 5.4 patchlevel 0</desc><g id="gnuplot_canvas"><rect width="560" height="420" x="0" y="0" fill="none"/><defs><circle id="gpDot" r=".5" stroke="currentColor" stroke-width=".5"/><path id="gpPt0" stroke="currentColor" stroke-width=".267" d="M-1,0 h2 M0,-1 v2"/><path id="gpPt1" stroke="currentColor" stroke-width=".267" d="M-1,-1 L1,1 M1,-1 L-1,1"/><path id="gpPt2" stroke="currentColor" stroke-width=".267" d="M-1,0 L1,0 M0,-1 L0,1 M-1,-1 L1,1 M-1,1 L1,-1"/><rect id="gpPt3" width="2" height="2" x="-1" y="-1" stroke="currentColor" stroke-width=".267"/><rect id="gpPt4" width="2" height="2" x="-1" y="-1" fill="currentColor" stroke="currentColor" stroke-width=".267"/><circle id="gpPt5" cx="0" cy="0" r="1" stroke="currentColor" stroke-width=".267"/><use id="gpPt6" fill="currentColor" stroke="none" xlink:href="#gpPt5"/><path id="gpPt7" stroke="currentColor" stroke-width=".267" d="M0,-1.33 L-1.33,0.67 L1.33,0.67 z"/><use id="gpPt8" fill="currentColor" stroke="none" xlink:href="#gpPt7"/><use id="gpPt9" stroke="currentColor" transform="rotate(180)" xlink:href="#gpPt7"/><use id="gpPt10" fill="currentColor" stroke="none" xlink:href="#gpPt9"/><use id="gpPt11" stroke="currentColor" transform="rotate(45)" xlink:href="#gpPt3"/><use id="gpPt12" fill="currentColor" stroke="none" xlink:href="#gpPt11"/><path id="gpPt13" stroke="currentColor" stroke-width=".267" d="M0,1.330 L1.265,0.411 L0.782,-1.067 L-0.782,-1.076 L-1.265,0.411 z"/><use id="gpPt14" fill="currentColor" stroke="none" xlink:href="#gpPt13"/><filter id="textbox" width="1" height="1" x="0" y="0" filterUnits="objectBoundingBox"><feFlood flood-color="#fff" flood-opacity="1" result="bgnd"/><feComposite in="SourceGraphic" in2="bgnd" operator="atop"/></filter><filter id="greybox" width="1" height="1" x="0" y="0" filterUnits="objectBoundingBox"><feFlood flood-color="#d3d3d3" flood-opacity="1" result="grey"/><feComposite in="SourceGraphic" in2="grey" operator="atop"/></filter></defs><g fill="none" stroke="currentColor" stroke-linecap="butt" stroke-linejoin="miter" stroke-width=".5" color="#000"><path stroke="#000" d="M72.8,373.8 L78.4,373.8"/><g fill="#262626" stroke="none" font-family="Helvetica" font-size="10" text-anchor="end"><text transform="translate(65.8,377.1)"><tspan font-family="Helvetica">-2</tspan></text></g></g><g fill="none" stroke="currentColor" stroke-linecap="butt" stroke-linejoin="miter" stroke-width=".5" color="#000"><path stroke="#000" d="M72.8,331.0 L78.4,331.0"/><g fill="#262626" stroke="none" font-family="Helvetica" font-size="10" text-anchor="end"><text transform="translate(65.8,334.3)"><tspan font-family="Helvetica">-1.5</tspan></text></g></g><g fill="none" stroke="currentColor" stroke-linecap="butt" stroke-linejoin="miter" stroke-width=".5" color="#000"><path stroke="#000" d="M72.8,288.2 L78.4,288.2"/><g fill="#262626" stroke="none" font-family="Helvetica" font-size="10" text-anchor="end"><text transform="translate(65.8,291.5)"><tspan font-family="Helvetica">-1</tspan></text></g></g><g fill="none" stroke="currentColor" stroke-linecap="butt" stroke-linejoin="miter" stroke-width=".5" color="#000"><path stroke="#000" d="M72.8,245.5 L78.4,245.5"/><g fill="#262626" stroke="none" font-family="Helvetica" font-size="10" text-anchor="end"><text transform="translate(65.8,248.8)"><tspan font-family="Helvetica">-0.5</tspan></text></g></g><g fill="none" stroke="currentColor" stroke-linecap="butt" stroke-linejoin="miter" stroke-width=".5" color="#000"><path stroke="#000" d="M72.8,202.7 L78.4,202.7"/><g fill="#262626" stroke="none" font-family="Helvetica" font-size="10" text-anchor="end"><text transform="translate(65.8,206.0)"><tspan font-family="Helvetica">0</tspan></text></g></g><g fill="none" stroke="currentColor" stroke-linecap="butt" stroke-linejoin="miter" stroke-width=".5" color="#000"><path stroke="#000" d="M72.8,159.9 L78.4,159.9"/><g fill="#262626" stroke="none" font-family="Helvetica" font-size="10" text-anchor="end"><text transform="translate(65.8,163.2)"><tspan font-family="Helvetica">0.5</tspan></text></g></g><g fill="none" stroke="currentColor" stroke-linecap="butt" stroke-linejoin="miter" stroke-width=".5" color="#000"><path stroke="#000" d="M72.8,117.1 L78.4,117.1"/><g fill="#262626" stroke="none" font-family="Helvetica" font-size="10" text-anchor="end"><text transform="translate(65.8,120.4)"><tspan font-family="Helvetica">1</tspan></text></g></g><g fill="none" stroke="currentColor" stroke-linecap="butt" stroke-linejoin="miter" stroke-width=".5" color="#000"><path stroke="#000" d="M72.8,74.4 L78.4,74.4"/><g fill="#262626" stroke="none" font-family="Helvetica" font-size="10" text-anchor="end"><text transform="translate(65.8,77.7)"><tspan font-family="Helvetica">1.5</tspan></text></g></g><g fill="none" stroke="currentColor" stroke-linecap="butt" stroke-linejoin="miter" stroke-width=".5" color="#000"><path stroke="#000" d="M72.8,31.6 L78.4,31.6"/><g fill="#262626" stroke="none" font-family="Helvetica" font-size="10" text-anchor="end"><text transform="translate(65.8,34.9)"><tspan font-family="Helvetica">2</tspan></text></g></g><g fill="none" stroke="currentColor" stroke-linecap="butt" stroke-linejoin="miter" stroke-width=".5" color="#000"><path stroke="#000" d="M72.8,373.8 L72.8,368.2"/><g fill="#262626" stroke="none" font-family="Helvetica" font-size="10" text-anchor="middle"><text transform="translate(72.8,392.1)"><tspan font-family="Helvetica">0</tspan></text></g></g><g fill="none" stroke="currentColor" stroke-linecap="butt" stroke-linejoin="miter" stroke-width=".5" color="#000"><path stroke="#000" d="M121.0,373.8 L121.0,368.2"/><g fill="#262626" stroke="none" font-family="Helvetica" font-size="10" text-anchor="middle"><text transform="translate(121.0,392.1)"><tspan font-family="Helvetica">2</tspan></text></g></g><g fill="none" stroke="currentColor" stroke-linecap="butt" stroke-linejoin="miter" stroke-width=".5" color="#000"><path stroke="#000" d="M169.2,373.8 L169.2,368.2"/><g fill="#262626" stroke="none" font-family="Helvetica" font-size="10" text-anchor="middle"><text transform="translate(169.2,392.1)"><tspan font-family="Helvetica">4</tspan></text></g></g><g fill="none" stroke="currentColor" stroke-linecap="butt" stroke-linejoin="miter" stroke-width=".5" color="#000"><path stroke="#000" d="M217.4,373.8 L217.4,368.2"/><g fill="#262626" stroke="none" font-family="Helvetica" font-size="10" text-anchor="middle"><text transform="translate(217.4,392.1)"><tspan font-family="Helvetica">6</tspan></text></g></g><g fill="none" stroke="currentColor" stroke-linecap="butt" stroke-linejoin="miter" stroke-width=".5" color="#000"><path stroke="#000" d="M265.6,373.8 L265.6,368.2"/><g fill="#262626" stroke="none" font-family="Helvetica" font-size="10" text-anchor="middle"><text transform="translate(265.6,392.1)"><tspan font-family="Helvetica">8</tspan></text></g></g><g fill="none" stroke="currentColor" stroke-linecap="butt" stroke-linejoin="miter" stroke-width=".5" color="#000"><path stroke="#000" d="M313.9,373.8 L313.9,368.2"/><g fill="#262626" stroke="none" font-family="Helvetica" font-size="10" text-anchor="middle"><text transform="translate(313.9,392.1)"><tspan font-family="Helvetica">10</tspan></text></g></g><g fill="none" stroke="currentColor" stroke-linecap="butt" stroke-linejoin="miter" stroke-width=".5" color="#000"><path stroke="#000" d="M362.1,373.8 L362.1,368.2"/><g fill="#262626" stroke="none" font-family="Helvetica" font-size="10" text-anchor="middle"><text transform="translate(362.1,392.1)"><tspan font-family="Helvetica">12</tspan></text></g></g><g fill="none" stroke="currentColor" stroke-linecap="butt" stroke-linejoin="miter" stroke-width=".5" color="#000"><path stroke="#000" d="M410.3,373.8 L410.3,368.2"/><g fill="#262626" stroke="none" font-family="Helvetica" font-size="10" text-anchor="middle"><text transform="translate(410.3,392.1)"><tspan font-family="Helvetica">14</tspan></text></g></g><g fill="none" stroke="currentColor" stroke-linecap="butt" stroke-linejoin="miter" stroke-width=".5" color="#000"><path stroke="#000" d="M458.5,373.8 L458.5,368.2"/><g fill="#262626" stroke="none" font-family="Helvetica" font-size="10" text-anchor="middle"><text transform="translate(458.5,392.1)"><tspan font-family="Helvetica">16</tspan></text></g></g><g fill="none" stroke="currentColor" stroke-linecap="butt" stroke-linejoin="miter" stroke-width=".5" color="#000"><path stroke="#000" d="M506.7,373.8 L506.7,368.2"/><g fill="#262626" stroke="none" font-family="Helvetica" font-size="10" text-anchor="middle"><text transform="translate(506.7,392.1)"><tspan font-family="Helvetica">18</tspan></text></g></g><g fill="none" stroke="currentColor" stroke-linecap="butt" stroke-linejoin="miter" stroke-width=".5" color="#000"><path stroke="#000" d="M72.8,31.6 L72.8,373.8 L506.7,373.8 L506.7,31.6 L72.8,31.6 Z"/></g><g id="gnuplot_plot_1a"><title>&apos;-&apos;</title><g fill="none" stroke="currentColor" stroke-linecap="butt" stroke-linejoin="miter" stroke-width=".5" color="#000"><path stroke="#0071BC" d="M93.1,359.4 L96.9,373.8 L100.7,359.4 M96.9,202.7 L96.9,373.8 M125.8,356.3 L130.4,370.5 L133.4,355.9 M121.0,202.7 L130.4,370.5 M158.1,346.9 L163.6,360.8 L165.7,346.0 M145.1,202.7 L163.6,360.8 M189.6,331.5 L196.0,345.0 L197.1,330.1 M169.2,202.7 L196.0,345.0 M219.8,310.9 L227.4,323.7 L227.3,308.8 M193.3,202.7 L227.4,323.7 M248.3,286.0 L257.5,297.8 L255.5,283.0 M217.4,202.7 L257.5,297.8 M274.8,258.5 L286.1,268.2 L281.2,254.1 M241.5,202.7 L286.1,268.2 M298.9,231.0 L312.9,236.1 L303.4,224.6 M265.6,202.7 L312.9,236.1 M324.1,206.4 L338.0,202.7 L324.1,199.0 M289.8,202.7 L338.0,202.7 M351.6,180.8 L361.1,169.3 L347.1,174.5 M313.9,202.7 L361.1,169.3 M377.6,151.3 L382.5,137.2 L371.2,147.0 M338.0,202.7 L382.5,137.2 M400.2,122.4 L402.2,107.6 L393.0,119.4 M362.1,202.7 L402.2,107.6 M420.2,96.6 L420.3,81.7 L412.7,94.5 M386.2,202.7 L420.3,81.7 M438.2,75.3 L437.1,60.4 L430.7,73.9 M410.3,202.7 L437.1,60.4 M454.9,59.4 L452.8,44.6 L447.3,58.5 M434.4,202.7 L452.8,44.6 M470.9,49.5 L467.9,34.9 L463.3,49.1 M458.5,202.7 L467.9,34.9 M486.4,46.0 L482.6,31.6 L478.8,46.0 M482.6,202.7 L482.6,31.6"/></g></g><g id="gnuplot_plot_2a"><title>&apos;-&apos;</title><g fill="none" stroke="currentColor" stroke-linecap="butt" stroke-linejoin="miter" stroke-width=".5" color="#000"><path stroke="#0071BC" d="M96.9,202.7 L121.0,202.7 L145.1,202.7 L169.2,202.7 L193.3,202.7 L217.4,202.7 L241.5,202.7 L265.6,202.7 L289.8,202.7 L313.9,202.7 L338.0,202.7 L362.1,202.7 L386.2,202.7 L410.3,202.7 L434.4,202.7 L458.5,202.7 L482.6,202.7"/></g></g><g fill="none" stroke="currentColor" stroke-linecap="butt" stroke-linejoin="miter" stroke-width=".5" color="#000"><path stroke="#000" d="M72.8,31.6 L72.8,373.8 L506.7,373.8 L506.7,31.6 L72.8,31.6 Z"/></g></g></svg>