<svg xmlns="http://www.w3.org/2000/svg" xmlns:xlink="http://www.w3.org/1999/xlink" width="500" height="500" viewBox="0 0 500 500"><title>Gnuplot</title><desc>Produced by GNUPLOT 5.4 patchlevel 0</desc><g id="gnuplot_canvas"><rect width="500" height="500" x="0" y="0" fill="none"/><defs><circle id="gpDot" r=".5" stroke="currentColor" stroke-width=".5"/><path id="gpPt0" stroke="currentColor" stroke-width=".067" d="M-1,0 h2 M0,-1 v2"/><path id="gpPt1" stroke="currentColor" stroke-width=".067" d="M-1,-1 L1,1 M1,-1 L-1,1"/><path id="gpPt2" stroke="currentColor" stroke-width=".067" d="M-1,0 L1,0 M0,-1 L0,1 M-1,-1 L1,1 M-1,1 L1,-1"/><rect id="gpPt3" width="2" height="2" x="-1" y="-1" stroke="currentColor" stroke-width=".067"/><rect id="gpPt4" width="2" height="2" x="-1" y="-1" fill="currentColor" stroke="currentColor" stroke-width=".067"/><circle id="gpPt5" cx="0" cy="0" r="1" stroke="currentColor" stroke-width=".067"/><use id="gpPt6" fill="currentColor" stroke="none" xlink:href="#gpPt5"/><path id="gpPt7" stroke="currentColor" stroke-width=".067" d="M0,-1.33 L-1.33,0.67 L1.33,0.67 z"/><use id="gpPt8" fill="currentColor" stroke="none" xlink:href="#gpPt7"/><use id="gpPt9" stroke="currentColor" transform="rotate(180)" xlink:href="#gpPt7"/><use id="gpPt10" fill="currentColor" stroke="none" xlink:href="#gpPt9"/><use id="gpPt11" stroke="currentColor" transform="rotate(45)" xlink:href="#gpPt3"/><use id="gpPt12" fill="currentColor" stroke="none" xlink:href="#gpPt11"/><path id="gpPt13" stroke="currentColor" stroke-width=".067" d="M0,1.330 L1.265,0.411 L0.782,-1.067 L-0.782,-1.076 L-1.265,0.411 z"/><use id="gpPt14" fill="currentColor" stroke="none" xlink:href="#gpPt13"/><filter id="textbox" width="1" height="1" x="0" y="0" filterUnits="objectBoundingBox"><feFlood flood-color="#fff" flood-opacity="1" result="bgnd"/><feComposite in="SourceGraphic" in2="bgnd" operator="atop"/></filter><filter id="greybox" width="1" height="1" x="0" y="0" filterUnits="objectBoundingBox"><feFlood flood-color="#d3d3d3" flood-opacity="1" result="grey"/><feComposite in="SourceGraphic" in2="grey" operator="atop"/></filter></defs><g fill="none" stroke="currentColor" stroke-linecap="butt" stroke-linejoin="miter" stroke-width="1" color="#fff"><g fill="#000" stroke="none" font-family="Arial" font-size="56" text-anchor="middle"><text transform="translate(250.0,78.2)"><tspan font-family="Arial" font-weight="bold">My experiment</tspan></text></g></g><g fill="none" stroke="currentColor" stroke-linecap="butt" stroke-linejoin="miter" stroke-width=".5" color="#000"><path stroke="#000" d="M65.0,425.3 L87.5,425.3"/><g fill="#262626" stroke="none" font-family="Arial" font-size="10" text-anchor="end"><text transform="translate(37.0,428.6)"><tspan font-family="Arial">-1.5</tspan></text></g></g><g fill="none" stroke="currentColor" stroke-linecap="butt" stroke-linejoin="miter" stroke-width=".5" color="#000"><path stroke="#000" d="M65.0,368.5 L87.5,368.5"/><g fill="#262626" stroke="none" font-family="Arial" font-size="10" text-anchor="end"><text transform="translate(37.0,371.8)"><tspan font-family="Arial">-1</tspan></text></g></g><g fill="none" stroke="currentColor" stroke-linecap="butt" stroke-linejoin="miter" stroke-width=".5" color="#000"><path stroke="#000" d="M65.0,311.6 L87.5,311.6"/><g fill="#262626" stroke="none" font-family="Arial" font-size="10" text-anchor="end"><text transform="translate(37.0,314.9)"><tspan font-family="Arial">-0.5</tspan></text></g></g><g fill="none" stroke="currentColor" stroke-linecap="butt" stroke-linejoin="miter" stroke-width=".5" color="#000"><path stroke="#000" d="M65.0,254.8 L87.5,254.8"/><g fill="#262626" stroke="none" font-family="Arial" font-size="10" text-anchor="end"><text transform="translate(37.0,258.1)"><tspan font-family="Arial">0</tspan></text></g></g><g fill="none" stroke="currentColor" stroke-linecap="butt" stroke-linejoin="miter" stroke-width=".5" color="#000"><path stroke="#000" d="M65.0,198.0 L87.5,198.0"/><g fill="#262626" stroke="none" font-family="Arial" font-size="10" text-anchor="end"><text transform="translate(37.0,201.3)"><tspan font-family="Arial">0.5</tspan></text></g></g><g fill="none" stroke="currentColor" stroke-linecap="butt" stroke-linejoin="miter" stroke-width=".5" color="#000"><path stroke="#000" d="M65.0,141.1 L87.5,141.1"/><g fill="#262626" stroke="none" font-family="Arial" font-size="10" text-anchor="end"><text transform="translate(37.0,144.4)"><tspan font-family="Arial">1</tspan></text></g></g><g fill="none" stroke="currentColor" stroke-linecap="butt" stroke-linejoin="miter" stroke-width=".5" color="#000"><path stroke="#000" d="M65.0,84.3 L87.5,84.3"/><g fill="#262626" stroke="none" font-family="Arial" font-size="10" text-anchor="end"><text transform="translate(37.0,87.6)"><tspan font-family="Arial">1.5</tspan></text></g></g><g fill="none" stroke="currentColor" stroke-linecap="butt" stroke-linejoin="miter" stroke-width=".5" color="#000"><path stroke="#000" d="M73.6,425.3 L73.6,402.8"/><g fill="#262626" stroke="none" font-family="Arial" font-size="10" text-anchor="middle"><text transform="translate(73.6,488.6)"><tspan font-family="Arial">-3</tspan></text></g></g><g fill="none" stroke="currentColor" stroke-linecap="butt" stroke-linejoin="miter" stroke-width=".5" color="#000"><path stroke="#000" d="M135.3,425.3 L135.3,402.8"/><g fill="#262626" stroke="none" font-family="Arial" font-size="10" text-anchor="middle"><text transform="translate(135.3,488.6)"><tspan font-family="Arial">-2</tspan></text></g></g><g fill="none" stroke="currentColor" stroke-linecap="butt" stroke-linejoin="miter" stroke-width=".5" color="#000"><path stroke="#000" d="M197.0,425.3 L197.0,402.8"/><g fill="#262626" stroke="none" font-family="Arial" font-size="10" text-anchor="middle"><text transform="translate(197.0,488.6)"><tspan font-family="Arial">-1</tspan></text></g></g><g fill="none" stroke="currentColor" stroke-linecap="butt" stroke-linejoin="miter" stroke-width=".5" color="#000"><path stroke="#000" d="M258.7,425.3 L258.7,402.8"/><g fill="#262626" stroke="none" font-family="Arial" font-size="10" text-anchor="middle"><text transform="translate(258.7,488.6)"><tspan font-family="Arial">0</tspan></text></g></g><g fill="none" stroke="currentColor" stroke-linecap="butt" stroke-linejoin="miter" stroke-width=".5" color="#000"><path stroke="#000" d="M320.4,425.3 L320.4,402.8"/><g fill="#262626" stroke="none" font-family="Arial" font-size="10" text-anchor="middle"><text transform="translate(320.4,488.6)"><tspan font-family="Arial">1</tspan></text></g></g><g fill="none" stroke="currentColor" stroke-linecap="butt" stroke-linejoin="miter" stroke-width=".5" color="#000"><path stroke="#000" d="M382.1,425.3 L382.1,402.8"/><g fill="#262626" stroke="none" font-family="Arial" font-size="10" text-anchor="middle"><text transform="translate(382.1,488.6)"><tspan font-family="Arial">2</tspan></text></g></g><g fill="none" stroke="currentColor" stroke-linecap="butt" stroke-linejoin="miter" stroke-width=".5" color="#000"><path stroke="#000" d="M443.8,425.3 L443.8,402.8"/><g fill="#262626" stroke="none" font-family="Arial" font-size="10" text-anchor="middle"><text transform="translate(443.8,488.6)"><tspan font-family="Arial">3</tspan></text></g></g><g fill="none" stroke="currentColor" stroke-linecap="butt" stroke-linejoin="miter" stroke-width=".5" color="#000"><path stroke="#000" d="M65.0,84.3 L65.0,425.3 L452.4,425.3 L452.4,84.3 L65.0,84.3 Z"/></g><g id="gnuplot_plot_1a"><title>cos(x)</title><g fill="none" stroke="currentColor" stroke-linecap="butt" stroke-linejoin="miter" stroke-width=".5" color="#000"><path stroke="#0071BC" d="M65.0,368.5 L68.9,368.2 L72.8,367.5 L76.7,366.4 L80.7,364.8 L84.6,362.7 L88.5,360.3 L92.4,357.4 L96.3,354.1 L100.2,350.3 L104.1,346.2 L108.0,341.8 L112.0,337.0 L115.9,331.8 L119.8,326.4 L123.7,320.6 L127.6,314.6 L131.5,308.4 L135.4,301.9 L139.3,295.3 L143.3,288.4 L147.2,281.5 L151.1,274.4 L155.0,267.3 L158.9,260.1 L162.8,252.9 L166.7,245.7 L170.7,238.5 L174.6,231.4 L178.5,224.4 L182.4,217.6 L186.3,210.8 L190.2,204.3 L194.1,197.9 L198.0,191.8 L202.0,185.9 L205.9,180.3 L209.8,175.0 L213.7,170.1 L217.6,165.4 L221.5,161.2 L225.4,157.3 L229.4,153.8 L233.3,150.7 L237.2,148.0 L241.1,145.7 L245.0,143.9 L248.9,142.6 L252.8,141.6 L256.7,141.2 L260.7,141.2 L264.6,141.6 L268.5,142.6 L272.4,143.9 L276.3,145.7 L280.2,148.0 L284.1,150.7 L288.0,153.8 L292.0,157.3 L295.9,161.2 L299.8,165.4 L303.7,170.1 L307.6,175.0 L311.5,180.3 L315.4,185.9 L319.4,191.8 L323.3,197.9 L327.2,204.3 L331.1,210.8 L335.0,217.6 L338.9,224.4 L342.8,231.4 L346.7,238.5 L350.7,245.7 L354.6,252.9 L358.5,260.1 L362.4,267.3 L366.3,274.4 L370.2,281.5 L374.1,288.4 L378.1,295.3 L382.0,301.9 L385.9,308.4 L389.8,314.6 L393.7,320.6 L397.6,326.4 L401.5,331.8 L405.4,337.0 L409.4,341.8 L413.3,346.2 L417.2,350.3 L421.1,354.1 L425.0,357.4 L428.9,360.3 L432.8,362.7 L436.7,364.8 L440.7,366.4 L444.6,367.5 L448.5,368.2 L452.4,368.5"/></g></g><g fill="none" stroke="currentColor" stroke-linecap="butt" stroke-linejoin="miter" stroke-width=".5" color="#000"><path stroke="#000" d="M65.0,84.3 L65.0,425.3 L452.4,425.3 L452.4,84.3 L65.0,84.3 Z"/></g></g></svg>