<svg xmlns="http://www.w3.org/2000/svg" xmlns:xlink="http://www.w3.org/1999/xlink" width="560" height="420" viewBox="0 0 560 420"><title>Gnuplot</title><desc>Produced by GNUPLOT 5.4 patchlevel 0</desc><g id="gnuplot_canvas"><rect width="560" height="420" x="0" y="0" fill="none"/><defs><circle id="gpDot" r=".5" stroke="currentColor" stroke-width=".5"/><path id="gpPt0" stroke="currentColor" stroke-width=".267" d="M-1,0 h2 M0,-1 v2"/><path id="gpPt1" stroke="currentColor" stroke-width=".267" d="M-1,-1 L1,1 M1,-1 L-1,1"/><path id="gpPt2" stroke="currentColor" stroke-width=".267" d="M-1,0 L1,0 M0,-1 L0,1 M-1,-1 L1,1 M-1,1 L1,-1"/><rect id="gpPt3" width="2" height="2" x="-1" y="-1" stroke="currentColor" stroke-width=".267"/><rect id="gpPt4" width="2" height="2" x="-1" y="-1" fill="currentColor" stroke="currentColor" stroke-width=".267"/><circle id="gpPt5" cx="0" cy="0" r="1" stroke="currentColor" stroke-width=".267"/><use id="gpPt6" fill="currentColor" stroke="none" xlink:href="#gpPt5"/><path id="gpPt7" stroke="currentColor" stroke-width=".267" d="M0,-1.33 L-1.33,0.67 L1.33,0.67 z"/><use id="gpPt8" fill="currentColor" stroke="none" xlink:href="#gpPt7"/><use id="gpPt9" stroke="currentColor" transform="rotate(180)" xlink:href="#gpPt7"/><use id="gpPt10" fill="currentColor" stroke="none" xlink:href="#gpPt9"/><use id="gpPt11" stroke="currentColor" transform="rotate(45)" xlink:href="#gpPt3"/><use id="gpPt12" fill="currentColor" stroke="none" xlink:href="#gpPt11"/><path id="gpPt13" stroke="currentColor" stroke-width=".267" d="M0,1.330 L1.265,0.411 L0.782,-1.067 L-0.782,-1.076 L-1.265,0.411 z"/><use id="gpPt14" fill="currentColor" stroke="none" xlink:href="#gpPt13"/><filter id="textbox" width="1" height="1" x="0" y="0" filterUnits="objectBoundingBox"><feFlood flood-color="#fff" flood-opacity="1" result="bgnd"/><feComposite in="SourceGraphic" in2="bgnd" operator="atop"/></filter><filter id="greybox" width="1" height="1" x="0" y="0" filterUnits="objectBoundingBox"><feFlood flood-color="#d3d3d3" flood-opacity="1" result="grey"/><feComposite in="SourceGraphic" in2="grey" operator="atop"/></filter></defs><g fill="none" stroke="currentColor" stroke-linecap="butt" stroke-linejoin="miter" stroke-width=".5" color="#000"><path stroke="#000" d="M72.8,373.8 L78.4,373.8"/><g fill="#262626" stroke="none" font-family="Helvetica" font-size="10" text-anchor="end"><text transform="translate(65.8,377.1)"><tspan font-family="Helvetica">0</tspan></text></g></g><g fill="none" stroke="currentColor" stroke-linecap="butt" stroke-linejoin="miter" stroke-width=".5" color="#000"><path stroke="#000" d="M72.8,335.8 L78.4,335.8"/><g fill="#262626" stroke="none" font-family="Helvetica" font-size="10" text-anchor="end"><text transform="translate(65.8,339.1)"><tspan font-family="Helvetica">0.1</tspan></text></g></g><g fill="none" stroke="currentColor" stroke-linecap="butt" stroke-linejoin="miter" stroke-width=".5" color="#000"><path stroke="#000" d="M72.8,297.8 L78.4,297.8"/><g fill="#262626" stroke="none" font-family="Helvetica" font-size="10" text-anchor="end"><text transform="translate(65.8,301.1)"><tspan font-family="Helvetica">0.2</tspan></text></g></g><g fill="none" stroke="currentColor" stroke-linecap="butt" stroke-linejoin="miter" stroke-width=".5" color="#000"><path stroke="#000" d="M72.8,259.7 L78.4,259.7"/><g fill="#262626" stroke="none" font-family="Helvetica" font-size="10" text-anchor="end"><text transform="translate(65.8,263.0)"><tspan font-family="Helvetica">0.3</tspan></text></g></g><g fill="none" stroke="currentColor" stroke-linecap="butt" stroke-linejoin="miter" stroke-width=".5" color="#000"><path stroke="#000" d="M72.8,221.7 L78.4,221.7"/><g fill="#262626" stroke="none" font-family="Helvetica" font-size="10" text-anchor="end"><text transform="translate(65.8,225.0)"><tspan font-family="Helvetica">0.4</tspan></text></g></g><g fill="none" stroke="currentColor" stroke-linecap="butt" stroke-linejoin="miter" stroke-width=".5" color="#000"><path stroke="#000" d="M72.8,183.7 L78.4,183.7"/><g fill="#262626" stroke="none" font-family="Helvetica" font-size="10" text-anchor="end"><text transform="translate(65.8,187.0)"><tspan font-family="Helvetica">0.5</tspan></text></g></g><g fill="none" stroke="currentColor" stroke-linecap="butt" stroke-linejoin="miter" stroke-width=".5" color="#000"><path stroke="#000" d="M72.8,145.7 L78.4,145.7"/><g fill="#262626" stroke="none" font-family="Helvetica" font-size="10" text-anchor="end"><text transform="translate(65.8,149.0)"><tspan font-family="Helvetica">0.6</tspan></text></g></g><g fill="none" stroke="currentColor" stroke-linecap="butt" stroke-linejoin="miter" stroke-width=".5" color="#000"><path stroke="#000" d="M72.8,107.6 L78.4,107.6"/><g fill="#262626" stroke="none" font-family="Helvetica" font-size="10" text-anchor="end"><text transform="translate(65.8,110.9)"><tspan font-family="Helvetica">0.7</tspan></text></g></g><g fill="none" stroke="currentColor" stroke-linecap="butt" stroke-linejoin="miter" stroke-width=".5" color="#000"><path stroke="#000" d="M72.8,69.6 L78.4,69.6"/><g fill="#262626" stroke="none" font-family="Helvetica" font-size="10" text-anchor="end"><text transform="translate(65.8,72.9)"><tspan font-family="Helvetica">0.8</tspan></text></g></g><g fill="none" stroke="currentColor" stroke-linecap="butt" stroke-linejoin="miter" stroke-width=".5" color="#000"><path stroke="#000" d="M72.8,31.6 L78.4,31.6"/><g fill="#262626" stroke="none" font-family="Helvetica" font-size="10" text-anchor="end"><text transform="translate(65.8,34.9)"><tspan font-family="Helvetica">0.9</tspan></text></g></g><g fill="none" stroke="currentColor" stroke-linecap="butt" stroke-linejoin="miter" stroke-width=".5" color="#000"><path stroke="#000" d="M72.8,373.8 L72.8,368.2"/><g fill="#262626" stroke="none" font-family="Helvetica" font-size="10" text-anchor="middle"><text transform="translate(72.8,392.1)"><tspan font-family="Helvetica">1</tspan></text></g></g><g fill="none" stroke="currentColor" stroke-linecap="butt" stroke-linejoin="miter" stroke-width=".5" color="#000"><path stroke="#000" d="M118.5,373.8 L118.5,368.2"/><g fill="#262626" stroke="none" font-family="Helvetica" font-size="10" text-anchor="middle"><text transform="translate(118.5,392.1)"><tspan font-family="Helvetica">2</tspan></text></g></g><g fill="none" stroke="currentColor" stroke-linecap="butt" stroke-linejoin="miter" stroke-width=".5" color="#000"><path stroke="#000" d="M164.2,373.8 L164.2,368.2"/><g fill="#262626" stroke="none" font-family="Helvetica" font-size="10" text-anchor="middle"><text transform="translate(164.2,392.1)"><tspan font-family="Helvetica">3</tspan></text></g></g><g fill="none" stroke="currentColor" stroke-linecap="butt" stroke-linejoin="miter" stroke-width=".5" color="#000"><path stroke="#000" d="M210.0,373.8 L210.0,368.2"/><g fill="#262626" stroke="none" font-family="Helvetica" font-size="10" text-anchor="middle"><text transform="translate(210.0,392.1)"><tspan font-family="Helvetica">4</tspan></text></g></g><g fill="none" stroke="currentColor" stroke-linecap="butt" stroke-linejoin="miter" stroke-width=".5" color="#000"><path stroke="#000" d="M255.7,373.8 L255.7,368.2"/><g fill="#262626" stroke="none" font-family="Helvetica" font-size="10" text-anchor="middle"><text transform="translate(255.7,392.1)"><tspan font-family="Helvetica">5</tspan></text></g></g><g fill="none" stroke="currentColor" stroke-linecap="butt" stroke-linejoin="miter" stroke-width=".5" color="#000"><path stroke="#000" d="M301.4,373.8 L301.4,368.2"/><g fill="#262626" stroke="none" font-family="Helvetica" font-size="10" text-anchor="middle"><text transform="translate(301.4,392.1)"><tspan font-family="Helvetica">6</tspan></text></g></g><g fill="none" stroke="currentColor" stroke-linecap="butt" stroke-linejoin="miter" stroke-width=".5" color="#000"><path stroke="#000" d="M347.1,373.8 L347.1,368.2"/><g fill="#262626" stroke="none" font-family="Helvetica" font-size="10" text-anchor="middle"><text transform="translate(347.1,392.1)"><tspan font-family="Helvetica">7</tspan></text></g></g><g fill="none" stroke="currentColor" stroke-linecap="butt" stroke-linejoin="miter" stroke-width=".5" color="#000"><path stroke="#000" d="M392.9,373.8 L392.9,368.2"/><g fill="#262626" stroke="none" font-family="Helvetica" font-size="10" text-anchor="middle"><text transform="translate(392.9,392.1)"><tspan font-family="Helvetica">8</tspan></text></g></g><g fill="none" stroke="currentColor" stroke-linecap="butt" stroke-linejoin="miter" stroke-width=".5" color="#000"><path stroke="#000" d="M438.6,373.8 L438.6,368.2"/><g fill="#262626" stroke="none" font-family="Helvetica" font-size="10" text-anchor="middle"><text transform="translate(438.6,392.1)"><tspan font-family="Helvetica">9</tspan></text></g></g><g fill="none" stroke="currentColor" stroke-linecap="butt" stroke-linejoin="miter" stroke-width=".5" color="#000"><path stroke="#000" d="M484.3,373.8 L484.3,368.2"/><g fill="#262626" stroke="none" font-family="Helvetica" font-size="10" text-anchor="middle"><text transform="translate(484.3,392.1)"><tspan font-family="Helvetica">10</tspan></text></g></g><g fill="none" stroke="currentColor" stroke-linecap="butt" stroke-linejoin="miter" stroke-width=".5" color="#000"><path stroke="#000" d="M72.8,31.6 L72.8,373.8 L484.3,373.8 L484.3,31.6 L72.8,31.6 Z"/></g><g id="gnuplot_plot_1a"><title>&apos;-&apos;</title><g fill="none" stroke="currentColor" stroke-linecap="butt" stroke-linejoin="miter" stroke-width=".5" color="#000"><path stroke="red" d="M72.8,373.8 L118.5,335.8 L164.2,297.8 L210.0,259.7 L255.7,221.7 L301.4,183.7 L347.1,145.7 L392.9,107.6 L438.6,69.6 L484.3,31.6"/></g></g><g id="gnuplot_plot_2a"><title>&apos;-&apos;</title><g fill="none" stroke="currentColor" stroke-linecap="butt" stroke-linejoin="miter" stroke-width=".5" color="#000"><path stroke="#0F0" d="M72.8,373.8 L118.5,367.8 L164.2,352.8 L210.0,330.3 L255.7,300.7 L301.4,264.6 L347.1,222.2 L392.9,173.7 L438.6,119.4 L484.3,59.3"/></g></g><g id="gnuplot_plot_3a"><title>&apos;-&apos;</title><g fill="none" stroke="currentColor" stroke-linecap="butt" stroke-linejoin="miter" stroke-width=".5" color="#000"><path stroke="#00F" d="M72.8,373.8 L118.5,370.8 L164.2,360.9 L210.0,343.5 L255.7,318.3 L301.4,285.1 L347.1,243.7 L392.9,194.0 L438.6,135.8 L484.3,69.0"/></g></g><g id="gnuplot_plot_4a"><title>&apos;-&apos;</title><g fill="none" stroke="currentColor" stroke-linecap="butt" stroke-linejoin="miter" stroke-width="1" color="#000"><use color="#000" transform="translate(72.8,373.8) scale(3.75)" xlink:href="#gpPt6"/><use color="#000" transform="translate(72.8,373.8) scale(3.75)" xlink:href="#gpPt6"/><use color="#000" transform="translate(72.8,373.8) scale(3.75)" xlink:href="#gpPt6"/><use color="#E6D3CC" transform="translate(484.3,31.6) scale(3.75)" xlink:href="#gpPt6"/><use color="#E6D3CC" transform="translate(484.3,59.3) scale(3.75)" xlink:href="#gpPt6"/><use color="#E6D3CC" transform="translate(484.3,69.0) scale(3.75)" xlink:href="#gpPt6"/></g></g><g fill="none" stroke="currentColor" stroke-linecap="butt" stroke-linejoin="miter" stroke-width=".5" color="#000"><path stroke="#000" d="M72.8,31.6 L72.8,373.8 L484.3,373.8 L484.3,31.6 L72.8,31.6 Z"/><g stroke="none" shape-rendering="crispEdges"><polygon fill="#000" points="494.6 373.8 515.1 373.8 515.1 371.1 494.6 371.1"/><polygon fill="#020000" points="494.6 371.2 515.1 371.2 515.1 368.4 494.6 368.4"/><polygon fill="#040100" points="494.6 368.5 515.1 368.5 515.1 365.7 494.6 365.7"/><polygon fill="#050100" points="494.6 365.8 515.1 365.8 515.1 363.1 494.6 363.1"/><polygon fill="#070101" points="494.6 363.2 515.1 363.2 515.1 360.4 494.6 360.4"/><polygon fill="#090101" points="494.6 360.5 515.1 360.5 515.1 357.7 494.6 357.7"/><polygon fill="#0B0201" points="494.6 357.8 515.1 357.8 515.1 355 494.6 355"/><polygon fill="#0D0201" points="494.6 355.1 515.1 355.1 515.1 352.4 494.6 352.4"/><polygon fill="#0E0201" points="494.6 352.5 515.1 352.5 515.1 349.7 494.6 349.7"/><polygon fill="#100301" points="494.6 349.8 515.1 349.8 515.1 347 494.6 347"/><polygon fill="#120301" points="494.6 347.1 515.1 347.1 515.1 344.3 494.6 344.3"/><polygon fill="#140302" points="494.6 344.4 515.1 344.4 515.1 341.7 494.6 341.7"/><polygon fill="#160302" points="494.6 341.8 515.1 341.8 515.1 339 494.6 339"/><polygon fill="#170402" points="494.6 339.1 515.1 339.1 515.1 336.3 494.6 336.3"/><polygon fill="#190402" points="494.6 336.4 515.1 336.4 515.1 335.7 494.6 335.7"/><polygon fill="#1A0402" points="494.6 335.8 515.1 335.8 515.1 333.6 494.6 333.6"/><polygon fill="#1B0502" points="494.6 333.7 515.1 333.7 515.1 331 494.6 331"/><polygon fill="#1D0503" points="494.6 331.1 515.1 331.1 515.1 328.3 494.6 328.3"/><polygon fill="#1F0603" points="494.6 328.4 515.1 328.4 515.1 325.6 494.6 325.6"/><polygon fill="#200704" points="494.6 325.7 515.1 325.7 515.1 323 494.6 323"/><polygon fill="#220704" points="494.6 323.1 515.1 323.1 515.1 320.3 494.6 320.3"/><polygon fill="#240805" points="494.6 320.4 515.1 320.4 515.1 317.6 494.6 317.6"/><polygon fill="#260905" points="494.6 317.7 515.1 317.7 515.1 314.9 494.6 314.9"/><polygon fill="#280A06" points="494.6 315 515.1 315 515.1 312.3 494.6 312.3"/><polygon fill="#290A06" points="494.6 312.4 515.1 312.4 515.1 309.6 494.6 309.6"/><polygon fill="#2B0B07" points="494.6 309.7 515.1 309.7 515.1 306.9 494.6 306.9"/><polygon fill="#2D0C07" points="494.6 307 515.1 307 515.1 304.2 494.6 304.2"/><polygon fill="#2F0C08" points="494.6 304.3 515.1 304.3 515.1 301.6 494.6 301.6"/><polygon fill="#300D08" points="494.6 301.7 515.1 301.7 515.1 298.9 494.6 298.9"/><polygon fill="#320E08" points="494.6 299 515.1 299 515.1 297.7 494.6 297.7"/><polygon fill="#330E09" points="494.6 297.8 515.1 297.8 515.1 296.2 494.6 296.2"/><polygon fill="#340F09" points="494.6 296.3 515.1 296.3 515.1 293.5 494.6 293.5"/><polygon fill="#36100A" points="494.6 293.6 515.1 293.6 515.1 290.9 494.6 290.9"/><polygon fill="#38110B" points="494.6 291 515.1 291 515.1 288.2 494.6 288.2"/><polygon fill="#39120C" points="494.6 288.3 515.1 288.3 515.1 285.5 494.6 285.5"/><polygon fill="#3B130C" points="494.6 285.6 515.1 285.6 515.1 282.9 494.6 282.9"/><polygon fill="#3D140D" points="494.6 283 515.1 283 515.1 280.2 494.6 280.2"/><polygon fill="#3F150E" points="494.6 280.3 515.1 280.3 515.1 277.5 494.6 277.5"/><polygon fill="#41160F" points="494.6 277.6 515.1 277.6 515.1 274.8 494.6 274.8"/><polygon fill="#421710" points="494.6 274.9 515.1 274.9 515.1 272.2 494.6 272.2"/><polygon fill="#441811" points="494.6 272.3 515.1 272.3 515.1 269.5 494.6 269.5"/><polygon fill="#461911" points="494.6 269.6 515.1 269.6 515.1 266.8 494.6 266.8"/><polygon fill="#481A12" points="494.6 266.9 515.1 266.9 515.1 264.1 494.6 264.1"/><polygon fill="#4A1B13" points="494.6 264.2 515.1 264.2 515.1 261.5 494.6 261.5"/><polygon fill="#4B1C14" points="494.6 261.6 515.1 261.6 515.1 259.7 494.6 259.7"/><polygon fill="#4D1D14" points="494.6 259.8 515.1 259.8 515.1 258.8 494.6 258.8"/><polygon fill="#4D1E15" points="494.6 258.9 515.1 258.9 515.1 256.1 494.6 256.1"/><polygon fill="#4F1F16" points="494.6 256.2 515.1 256.2 515.1 253.4 494.6 253.4"/><polygon fill="#512017" points="494.6 253.5 515.1 253.5 515.1 250.8 494.6 250.8"/><polygon fill="#522218" points="494.6 250.9 515.1 250.9 515.1 248.1 494.6 248.1"/><polygon fill="#54231A" points="494.6 248.2 515.1 248.2 515.1 245.4 494.6 245.4"/><polygon fill="#56251B" points="494.6 245.5 515.1 245.5 515.1 242.8 494.6 242.8"/><polygon fill="#58261C" points="494.6 242.9 515.1 242.9 515.1 240.1 494.6 240.1"/><polygon fill="#5A271D" points="494.6 240.2 515.1 240.2 515.1 237.4 494.6 237.4"/><polygon fill="#5B291E" points="494.6 237.5 515.1 237.5 515.1 234.7 494.6 234.7"/><polygon fill="#5D2A1F" points="494.6 234.8 515.1 234.8 515.1 232.1 494.6 232.1"/><polygon fill="#5F2C21" points="494.6 232.2 515.1 232.2 515.1 229.4 494.6 229.4"/><polygon fill="#612D22" points="494.6 229.5 515.1 229.5 515.1 226.7 494.6 226.7"/><polygon fill="#632E23" points="494.6 226.8 515.1 226.8 515.1 224 494.6 224"/><polygon fill="#643024" points="494.6 224.1 515.1 224.1 515.1 221.7 494.6 221.7"/><polygon fill="#663125" points="494.6 221.8 515.1 221.8 515.1 221.4 494.6 221.4"/><polygon fill="#663125" points="494.6 221.5 515.1 221.5 515.1 218.7 494.6 218.7"/><polygon fill="#683327" points="494.6 218.8 515.1 218.8 515.1 216 494.6 216"/><polygon fill="#6A3529" points="494.6 216.1 515.1 216.1 515.1 213.3 494.6 213.3"/><polygon fill="#6C362A" points="494.6 213.4 515.1 213.4 515.1 210.7 494.6 210.7"/><polygon fill="#6D382C" points="494.6 210.8 515.1 210.8 515.1 208 494.6 208"/><polygon fill="#6F3A2D" points="494.6 208.1 515.1 208.1 515.1 205.3 494.6 205.3"/><polygon fill="#713B2F" points="494.6 205.4 515.1 205.4 515.1 202.6 494.6 202.6"/><polygon fill="#733D30" points="494.6 202.7 515.1 202.7 515.1 200 494.6 200"/><polygon fill="#753F32" points="494.6 200.1 515.1 200.1 515.1 197.3 494.6 197.3"/><polygon fill="#764134" points="494.6 197.4 515.1 197.4 515.1 194.6 494.6 194.6"/><polygon fill="#784235" points="494.6 194.7 515.1 194.7 515.1 192 494.6 192"/><polygon fill="#7A4437" points="494.6 192.1 515.1 192.1 515.1 189.3 494.6 189.3"/><polygon fill="#7C4638" points="494.6 189.4 515.1 189.4 515.1 186.6 494.6 186.6"/><polygon fill="#7E473A" points="494.6 186.7 515.1 186.7 515.1 183.9 494.6 183.9"/><polygon fill="#7F493B" points="494.6 184 515.1 184 515.1 183.6 494.6 183.6"/><polygon fill="#80493C" points="494.6 183.7 515.1 183.7 515.1 181.3 494.6 181.3"/><polygon fill="#814B3D" points="494.6 181.4 515.1 181.4 515.1 178.6 494.6 178.6"/><polygon fill="#834D3F" points="494.6 178.7 515.1 178.7 515.1 175.9 494.6 175.9"/><polygon fill="#854F41" points="494.6 176 515.1 176 515.1 173.2 494.6 173.2"/><polygon fill="#875143" points="494.6 173.3 515.1 173.3 515.1 170.6 494.6 170.6"/><polygon fill="#885345" points="494.6 170.7 515.1 170.7 515.1 167.9 494.6 167.9"/><polygon fill="#8A5547" points="494.6 168 515.1 168 515.1 165.2 494.6 165.2"/><polygon fill="#8C5749" points="494.6 165.3 515.1 165.3 515.1 162.5 494.6 162.5"/><polygon fill="#8E594B" points="494.6 162.6 515.1 162.6 515.1 159.9 494.6 159.9"/><polygon fill="#8F5B4D" points="494.6 160 515.1 160 515.1 157.2 494.6 157.2"/><polygon fill="#915D4F" points="494.6 157.3 515.1 157.3 515.1 154.5 494.6 154.5"/><polygon fill="#935F51" points="494.6 154.6 515.1 154.6 515.1 151.9 494.6 151.9"/><polygon fill="#956153" points="494.6 152 515.1 152 515.1 149.2 494.6 149.2"/><polygon fill="#976355" points="494.6 149.3 515.1 149.3 515.1 146.5 494.6 146.5"/><polygon fill="#986557" points="494.6 146.6 515.1 146.6 515.1 145.6 494.6 145.6"/><polygon fill="#996657" points="494.6 145.7 515.1 145.7 515.1 143.8 494.6 143.8"/><polygon fill="#9A6759" points="494.6 143.9 515.1 143.9 515.1 141.2 494.6 141.2"/><polygon fill="#9C695B" points="494.6 141.3 515.1 141.3 515.1 138.5 494.6 138.5"/><polygon fill="#9E6C5E" points="494.6 138.6 515.1 138.6 515.1 135.8 494.6 135.8"/><polygon fill="#A06E60" points="494.6 135.9 515.1 135.9 515.1 133.1 494.6 133.1"/><polygon fill="#A17062" points="494.6 133.2 515.1 133.2 515.1 130.5 494.6 130.5"/><polygon fill="#A37365" points="494.6 130.6 515.1 130.6 515.1 127.8 494.6 127.8"/><polygon fill="#A57567" points="494.6 127.9 515.1 127.9 515.1 125.1 494.6 125.1"/><polygon fill="#A77769" points="494.6 125.2 515.1 125.2 515.1 122.4 494.6 122.4"/><polygon fill="#A97A6C" points="494.6 122.5 515.1 122.5 515.1 119.8 494.6 119.8"/><polygon fill="#AA7C6E" points="494.6 119.9 515.1 119.9 515.1 117.1 494.6 117.1"/><polygon fill="#AC7E70" points="494.6 117.2 515.1 117.2 515.1 114.4 494.6 114.4"/><polygon fill="#AE8073" points="494.6 114.5 515.1 114.5 515.1 111.8 494.6 111.8"/><polygon fill="#B08375" points="494.6 111.9 515.1 111.9 515.1 109.1 494.6 109.1"/><polygon fill="#B28577" points="494.6 109.2 515.1 109.2 515.1 107.6 494.6 107.6"/><polygon fill="#B38679" points="494.6 107.7 515.1 107.7 515.1 106.4 494.6 106.4"/><polygon fill="#B3877A" points="494.6 106.5 515.1 106.5 515.1 103.7 494.6 103.7"/><polygon fill="#B58A7D" points="494.6 103.8 515.1 103.8 515.1 101.1 494.6 101.1"/><polygon fill="#B78C7F" points="494.6 101.2 515.1 101.2 515.1 98.4 494.6 98.4"/><polygon fill="#B98F82" points="494.6 98.5 515.1 98.5 515.1 95.7 494.6 95.7"/><polygon fill="#BB9285" points="494.6 95.8 515.1 95.8 515.1 93 494.6 93"/><polygon fill="#BC9488" points="494.6 93.1 515.1 93.1 515.1 90.4 494.6 90.4"/><polygon fill="#BE978A" points="494.6 90.5 515.1 90.5 515.1 87.7 494.6 87.7"/><polygon fill="#C0998D" points="494.6 87.8 515.1 87.8 515.1 85 494.6 85"/><polygon fill="#C29C90" points="494.6 85.1 515.1 85.1 515.1 82.3 494.6 82.3"/><polygon fill="#C39E93" points="494.6 82.4 515.1 82.4 515.1 79.7 494.6 79.7"/><polygon fill="#C5A195" points="494.6 79.8 515.1 79.8 515.1 77 494.6 77"/><polygon fill="#C7A498" points="494.6 77.1 515.1 77.1 515.1 74.3 494.6 74.3"/><polygon fill="#C9A69B" points="494.6 74.4 515.1 74.4 515.1 71.7 494.6 71.7"/><polygon fill="#CBA99D" points="494.6 71.8 515.1 71.8 515.1 69.6 494.6 69.6"/><polygon fill="#CCABA0" points="494.6 69.7 515.1 69.7 515.1 69 494.6 69"/><polygon fill="#CCABA0" points="494.6 69.1 515.1 69.1 515.1 66.3 494.6 66.3"/><polygon fill="#CEAEA4" points="494.6 66.4 515.1 66.4 515.1 63.6 494.6 63.6"/><polygon fill="#D0B1A7" points="494.6 63.7 515.1 63.7 515.1 61 494.6 61"/><polygon fill="#D2B4AA" points="494.6 61.1 515.1 61.1 515.1 58.3 494.6 58.3"/><polygon fill="#D4B7AD" points="494.6 58.4 515.1 58.4 515.1 55.6 494.6 55.6"/><polygon fill="#D5BAB0" points="494.6 55.7 515.1 55.7 515.1 52.9 494.6 52.9"/><polygon fill="#D7BCB3" points="494.6 53 515.1 53 515.1 50.3 494.6 50.3"/><polygon fill="#D9BFB6" points="494.6 50.4 515.1 50.4 515.1 47.6 494.6 47.6"/><polygon fill="#DBC2BA" points="494.6 47.7 515.1 47.7 515.1 44.9 494.6 44.9"/><polygon fill="#DDC5BD" points="494.6 45 515.1 45 515.1 42.2 494.6 42.2"/><polygon fill="#DEC8C0" points="494.6 42.3 515.1 42.3 515.1 39.6 494.6 39.6"/><polygon fill="#E0CAC3" points="494.6 39.7 515.1 39.7 515.1 36.9 494.6 36.9"/><polygon fill="#E2CDC6" points="494.6 37 515.1 37 515.1 34.2 494.6 34.2"/><polygon fill="#E4D0C9" points="494.6 34.3 515.1 34.3 515.1 31.6 494.6 31.6"/></g></g><g fill="none" stroke="currentColor" stroke-linecap="butt" stroke-linejoin="miter" stroke-width=".5" color="#000"><path stroke="#000" d="M494.6,373.8 L515.1,373.8 L515.1,31.6 L494.6,31.6 L494.6,373.8 Z"/></g></g></svg>