<svg xmlns="http://www.w3.org/2000/svg" xmlns:xlink="http://www.w3.org/1999/xlink" width="560" height="420" viewBox="0 0 560 420"><title>Gnuplot</title><desc>Produced by GNUPLOT 5.4 patchlevel 0</desc><g id="gnuplot_canvas"><rect width="560" height="420" x="0" y="0" fill="none"/><defs><circle id="gpDot" r=".5" stroke="currentColor" stroke-width=".5"/><path id="gpPt0" stroke="currentColor" stroke-width=".267" d="M-1,0 h2 M0,-1 v2"/><path id="gpPt1" stroke="currentColor" stroke-width=".267" d="M-1,-1 L1,1 M1,-1 L-1,1"/><path id="gpPt2" stroke="currentColor" stroke-width=".267" d="M-1,0 L1,0 M0,-1 L0,1 M-1,-1 L1,1 M-1,1 L1,-1"/><rect id="gpPt3" width="2" height="2" x="-1" y="-1" stroke="currentColor" stroke-width=".267"/><rect id="gpPt4" width="2" height="2" x="-1" y="-1" fill="currentColor" stroke="currentColor" stroke-width=".267"/><circle id="gpPt5" cx="0" cy="0" r="1" stroke="currentColor" stroke-width=".267"/><use id="gpPt6" fill="currentColor" stroke="none" xlink:href="#gpPt5"/><path id="gpPt7" stroke="currentColor" stroke-width=".267" d="M0,-1.33 L-1.33,0.67 L1.33,0.67 z"/><use id="gpPt8" fill="currentColor" stroke="none" xlink:href="#gpPt7"/><use id="gpPt9" stroke="currentColor" transform="rotate(180)" xlink:href="#gpPt7"/><use id="gpPt10" fill="currentColor" stroke="none" xlink:href="#gpPt9"/><use id="gpPt11" stroke="currentColor" transform="rotate(45)" xlink:href="#gpPt3"/><use id="gpPt12" fill="currentColor" stroke="none" xlink:href="#gpPt11"/><path id="gpPt13" stroke="currentColor" stroke-width=".267" d="M0,1.330 L1.265,0.411 L0.782,-1.067 L-0.782,-1.076 L-1.265,0.411 z"/><use id="gpPt14" fill="currentColor" stroke="none" xlink:href="#gpPt13"/><filter id="textbox" width="1" height="1" x="0" y="0" filterUnits="objectBoundingBox"><feFlood flood-color="#fff" flood-opacity="1" result="bgnd"/><feComposite in="SourceGraphic" in2="bgnd" operator="atop"/></filter><filter id="greybox" width="1" height="1" x="0" y="0" filterUnits="objectBoundingBox"><feFlood flood-color="#d3d3d3" flood-opacity="1" result="grey"/><feComposite in="SourceGraphic" in2="grey" operator="atop"/></filter></defs><g fill="none" stroke="currentColor" stroke-linecap="butt" stroke-linejoin="miter" stroke-width=".5" color="#000"><path stroke="#000" d="M72.8,373.8 L78.4,373.8"/><g fill="#262626" stroke="none" font-family="Helvetica" font-size="10" text-anchor="end"><text transform="translate(65.8,377.1)"><tspan font-family="Helvetica">-3</tspan></text></g></g><g fill="none" stroke="currentColor" stroke-linecap="butt" stroke-linejoin="miter" stroke-width=".5" color="#000"><path stroke="#000" d="M72.8,316.8 L78.4,316.8"/><g fill="#262626" stroke="none" font-family="Helvetica" font-size="10" text-anchor="end"><text transform="translate(65.8,320.1)"><tspan font-family="Helvetica">-2</tspan></text></g></g><g fill="none" stroke="currentColor" stroke-linecap="butt" stroke-linejoin="miter" stroke-width=".5" color="#000"><path stroke="#000" d="M72.8,259.7 L78.4,259.7"/><g fill="#262626" stroke="none" font-family="Helvetica" font-size="10" text-anchor="end"><text transform="translate(65.8,263.0)"><tspan font-family="Helvetica">-1</tspan></text></g></g><g fill="none" stroke="currentColor" stroke-linecap="butt" stroke-linejoin="miter" stroke-width=".5" color="#000"><path stroke="#000" d="M72.8,202.7 L78.4,202.7"/><g fill="#262626" stroke="none" font-family="Helvetica" font-size="10" text-anchor="end"><text transform="translate(65.8,206.0)"><tspan font-family="Helvetica">0</tspan></text></g></g><g fill="none" stroke="currentColor" stroke-linecap="butt" stroke-linejoin="miter" stroke-width=".5" color="#000"><path stroke="#000" d="M72.8,145.7 L78.4,145.7"/><g fill="#262626" stroke="none" font-family="Helvetica" font-size="10" text-anchor="end"><text transform="translate(65.8,149.0)"><tspan font-family="Helvetica">1</tspan></text></g></g><g fill="none" stroke="currentColor" stroke-linecap="butt" stroke-linejoin="miter" stroke-width=".5" color="#000"><path stroke="#000" d="M72.8,88.6 L78.4,88.6"/><g fill="#262626" stroke="none" font-family="Helvetica" font-size="10" text-anchor="end"><text transform="translate(65.8,91.9)"><tspan font-family="Helvetica">2</tspan></text></g></g><g fill="none" stroke="currentColor" stroke-linecap="butt" stroke-linejoin="miter" stroke-width=".5" color="#000"><path stroke="#000" d="M72.8,31.6 L78.4,31.6"/><g fill="#262626" stroke="none" font-family="Helvetica" font-size="10" text-anchor="end"><text transform="translate(65.8,34.9)"><tspan font-family="Helvetica">3</tspan></text></g></g><g fill="none" stroke="currentColor" stroke-linecap="butt" stroke-linejoin="miter" stroke-width=".5" color="#000"><path stroke="#000" d="M72.8,373.8 L72.8,368.2"/><g fill="#262626" stroke="none" font-family="Helvetica" font-size="10" text-anchor="middle"><text transform="translate(72.8,392.1)"><tspan font-family="Helvetica">-3</tspan></text></g></g><g fill="none" stroke="currentColor" stroke-linecap="butt" stroke-linejoin="miter" stroke-width=".5" color="#000"><path stroke="#000" d="M141.4,373.8 L141.4,368.2"/><g fill="#262626" stroke="none" font-family="Helvetica" font-size="10" text-anchor="middle"><text transform="translate(141.4,392.1)"><tspan font-family="Helvetica">-2</tspan></text></g></g><g fill="none" stroke="currentColor" stroke-linecap="butt" stroke-linejoin="miter" stroke-width=".5" color="#000"><path stroke="#000" d="M210.0,373.8 L210.0,368.2"/><g fill="#262626" stroke="none" font-family="Helvetica" font-size="10" text-anchor="middle"><text transform="translate(210.0,392.1)"><tspan font-family="Helvetica">-1</tspan></text></g></g><g fill="none" stroke="currentColor" stroke-linecap="butt" stroke-linejoin="miter" stroke-width=".5" color="#000"><path stroke="#000" d="M278.6,373.8 L278.6,368.2"/><g fill="#262626" stroke="none" font-family="Helvetica" font-size="10" text-anchor="middle"><text transform="translate(278.6,392.1)"><tspan font-family="Helvetica">0</tspan></text></g></g><g fill="none" stroke="currentColor" stroke-linecap="butt" stroke-linejoin="miter" stroke-width=".5" color="#000"><path stroke="#000" d="M347.1,373.8 L347.1,368.2"/><g fill="#262626" stroke="none" font-family="Helvetica" font-size="10" text-anchor="middle"><text transform="translate(347.1,392.1)"><tspan font-family="Helvetica">1</tspan></text></g></g><g fill="none" stroke="currentColor" stroke-linecap="butt" stroke-linejoin="miter" stroke-width=".5" color="#000"><path stroke="#000" d="M415.7,373.8 L415.7,368.2"/><g fill="#262626" stroke="none" font-family="Helvetica" font-size="10" text-anchor="middle"><text transform="translate(415.7,392.1)"><tspan font-family="Helvetica">2</tspan></text></g></g><g fill="none" stroke="currentColor" stroke-linecap="butt" stroke-linejoin="miter" stroke-width=".5" color="#000"><path stroke="#000" d="M484.3,373.8 L484.3,368.2"/><g fill="#262626" stroke="none" font-family="Helvetica" font-size="10" text-anchor="middle"><text transform="translate(484.3,392.1)"><tspan font-family="Helvetica">3</tspan></text></g></g><g fill="none" stroke="currentColor" stroke-linecap="butt" stroke-linejoin="miter" stroke-width=".5" color="#000"><path stroke="#000" d="M72.8,31.6 L72.8,373.8 L484.3,373.8 L484.3,31.6 L72.8,31.6 Z"/></g><g id="gnuplot_plot_1a"><title>&apos;-&apos;</title><g fill="none" stroke="currentColor" stroke-linecap="butt" stroke-linejoin="miter" stroke-width=".5" color="#000"><path stroke="#412DBB" d="M274.3,302.5 L274.3,299.0 L273.7,295.4 L275.7,293.0"/><path stroke="#412DBB" d="M296.5,281.8 L309.6,285.5 L313.7,288.2 L313.8,289.1 L315.2,295.4 L314.6,296.9 L312.1,301.9 L311.7,302.5 L307.7,305.3 L302.4,308.0 L297.5,309.6 L296.1,310.0"/></g></g><g id="gnuplot_plot_2a"><title>&apos;-&apos;</title><g fill="none" stroke="currentColor" stroke-linecap="butt" stroke-linejoin="miter" stroke-width=".5" color="#000"><path stroke="#406DFE" d="M273.0,326.4 L265.5,323.9 L254.5,316.8 L249.5,309.6 L249.2,306.6 L248.2,302.5 L249.2,299.5 L250.1,295.4 L251.2,294.0 L254.5,289.6 L255.3,288.2 L258.4,285.7 L262.7,282.2 L264.0,281.1 L267.5,279.0 L272.6,276.2 L276.4,274.0 L277.8,273.4"/><path stroke="#406DFE" d="M303.8,266.5 L309.2,266.9 L313.8,267.6 L327.7,274.0 L335.3,281.1 L339.2,288.2 L339.3,288.9 L340.4,295.4 L340.3,296.8 L339.1,302.5 L339.0,302.9 L336.5,307.9 L335.2,309.6 L333.2,312.3 L329.1,316.0 L328.1,316.8 L324.6,319.4 L319.4,322.3 L315.5,323.9 L313.8,324.7 L307.6,326.7 L300.7,328.0"/><path stroke="#406DFE" d="M296.2,267.3 L299.8,266.9"/><path stroke="#406DFE" d="M296.2,267.3"/></g></g><g id="gnuplot_plot_3a"><title>&apos;-&apos;</title><g fill="none" stroke="currentColor" stroke-linecap="butt" stroke-linejoin="miter" stroke-width=".5" color="#000"><path stroke="#19ACDC" d="M277.6,351.6 L266.9,349.8 L253.5,345.8 L252.0,345.3 L238.4,338.2 L229.6,331.0 L224.0,323.9 L222.6,320.2 L220.9,316.8 L220.4,311.2 L220.1,309.6 L221.2,304.7 L221.5,302.5 L223.3,299.3 L225.7,295.4 L226.3,294.7 L230.0,290.7 L232.4,288.2 L234.1,286.9 L238.6,283.6 L242.2,281.1 L243.4,280.4 L248.3,277.4 L253.5,274.5 L254.4,274.0 L258.6,271.7 L263.9,269.0 L268.0,266.9 L269.2,266.2 L274.6,263.6"/><path stroke="#19ACDC" d="M303.7,252.1 L311.8,251.7 L316.7,252.6 L323.9,254.7 L334.8,259.7 L346.4,266.9 L355.5,274.0 L362.6,281.1 L367.3,288.2 L368.5,291.8 L369.8,295.4 L370.2,300.3 L370.2,302.5 L369.6,306.9 L368.8,309.6 L367.9,312.6 L365.5,316.8 L365.1,317.5 L362.2,322.2 L360.5,323.9 L358.7,326.4 L354.6,330.1 L353.2,331.0 L350.4,333.8 L345.6,336.9 L343.1,338.2 L340.7,339.9 L335.5,342.7 L329.5,344.9 L328.1,345.3 L323.7,347.2 L317.5,349.1 L310.6,350.5 L303.2,351.5"/><path stroke="#19ACDC" d="M297.1,253.8 L302.0,252.6"/><path stroke="#19ACDC" d="M297.1,253.8"/><path stroke="#19ACDC" d="M160.0,232.5 L155.5,231.2 L145.2,224.1 L140.2,217.0 L139.7,215.6 L137.2,209.8 L136.5,205.8 L135.7,202.7 L135.6,197.9 L135.4,195.6 L135.8,191.0 L136.1,188.4 L136.9,184.7 L137.8,181.3 L138.5,178.9 L140.7,174.2 L140.9,173.8 L143.5,168.8 L144.8,167.1 L146.6,164.3 L150.5,160.4 L151.0,159.9 L154.5,156.6 L159.6,153.7 L161.8,152.8 L165.1,151.2 L171.8,149.6 L180.0,149.3 L190.5,150.9 L196.3,152.8 L207.6,157.9 L211.0,159.9 L219.0,167.1 L219.2,167.6 L222.7,174.2 L222.9,177.8 L223.4,181.3 L222.6,184.7 L222.2,188.4 L221.2,190.7 L219.6,195.6 L219.3,196.2 L216.5,201.0 L215.7,202.7 L213.5,205.6 L210.7,209.8 L210.4,210.2 L206.5,214.1 L203.8,217.0 L202.7,218.0 L198.2,221.4 L194.8,224.1 L193.7,224.8 L188.4,227.6 L183.1,230.3 L180.3,231.2 L176.9,232.3 L169.5,233.2 L160.0,232.5"/></g></g><g id="gnuplot_plot_4a"><title>&apos;-&apos;</title><g fill="none" stroke="currentColor" stroke-linecap="butt" stroke-linejoin="miter" stroke-width=".5" color="#000"><path stroke="#12BEB9" d="M185.7,373.8 L182.4,366.7 L182.3,365.1 L179.4,359.5 L179.0,355.2 L177.6,352.4 L177.2,346.6 L176.6,345.3 L176.7,339.0 L176.4,338.2 L177.2,332.3 L177.0,331.0 L178.5,326.3 L178.7,323.9 L180.4,320.7 L182.2,316.8 L183.0,315.8 L186.1,311.2 L186.9,309.6 L189.4,306.8 L193.5,303.1 L193.9,302.5 L197.4,299.2 L202.1,296.0 L202.8,295.4 L206.5,292.5 L211.6,289.6 L213.8,288.2 L216.6,286.6 L221.8,283.8 L227.4,281.3 L227.7,281.1 L232.5,278.4 L238.0,275.9 L242.3,274.0 L243.5,273.4 L248.9,270.7 L254.4,268.2 L257.2,266.9 L259.8,265.5 L265.1,262.8 L270.5,260.2 L271.4,259.7 L275.6,257.3 M363.5,266.3 L364.9,266.9 L378.7,274.0 L387.7,279.2 L392.4,281.1 L406.0,288.2 L411.1,291.6 L420.1,295.4 L432.4,302.5 L435.7,304.8 L445.7,309.6 L457.0,316.8 L466.7,323.9 L475.5,331.0 L483.4,338.2 M300.7,242.5 L306.7,240.3 L315.9,240.9 L325.7,245.5 L337.7,251.9 M230.3,162.6 L234.6,167.1 L237.8,174.2 L237.5,175.7 L237.2,181.3 L236.8,182.2 L234.7,187.6 L234.5,188.4 L232.2,192.7 L231.0,195.6 L229.6,197.6 L226.7,202.3 L226.5,202.7 L223.5,206.8 L221.4,209.8 L220.3,211.3 L216.7,215.4 L215.4,217.0 L213.1,219.5 L209.3,223.5 L208.7,224.1 L205.3,227.3 L201.3,231.1 L201.1,231.2 L197.0,234.7 L192.8,238.3 L188.3,241.7 L183.9,245.2 L183.4,245.5 L179.3,248.5 L174.6,251.7 L172.9,252.6 L169.8,254.9 L164.8,257.8 L161.3,259.7 L159.9,260.9 L154.6,263.6 L149.4,266.4 L148.0,266.9 L143.9,268.9 L138.2,271.3 L132.6,273.8 L132.1,274.0 L126.6,275.9 L120.5,278.0 L114.5,280.2 L111.2,281.1 L108.3,282.1 L101.8,283.8 L95.4,285.6 L89.3,287.7 L87.1,288.2 L82.7,289.3 L75.9,290.8 M73.2,89.0 L89.7,95.6 L90.0,95.8 L104.5,100.7 L108.1,102.9 L120.3,106.7 L126.2,110.0 L136.8,113.3 L144.0,117.1 L154.0,120.5 L161.1,124.3 L172.3,128.6 L177.4,131.4 L192.7,138.5 L193.0,138.7 L205.9,145.7 L218.0,152.8 L222.1,155.7 M304.1,181.1 L304.3,181.3 L304.3,181.4 L304.5,188.4 L304.5,188.6 L298.9,191.1 M278.6,202.7"/></g></g><g id="gnuplot_plot_5a"><title>&apos;-&apos;</title><g fill="none" stroke="currentColor" stroke-linecap="butt" stroke-linejoin="miter" stroke-width=".5" color="#000"><path stroke="#48CB86" d="M205.4,270.2 L216.4,272.2 L223.9,271.3 L230.7,269.9 L237.4,268.3 L242.1,266.9 L243.6,266.3 L249.1,263.8 L254.9,261.5 L259.0,259.7 L260.4,258.9 L265.5,256.0 L270.7,253.2 L271.6,252.6 L275.1,249.7"/><path stroke="#48CB86" d="M274.5,202.7 L267.4,195.6 L257.3,192.2 L250.8,193.9 L248.6,195.6 L246.1,197.1 L242.0,200.8 L240.3,202.7 L238.2,204.8 L234.3,208.7 L233.4,209.8 L230.7,212.8 L227.0,216.8 L226.8,217.0 L223.4,221.0 L220.4,224.1 L219.7,225.0 L216.0,229.1 L214.0,231.2 L212.5,233.3 L208.8,237.4 L207.9,238.3 L205.6,241.9 L202.7,245.5 L202.5,246.4 L199.8,251.3 L198.8,252.6 L198.2,257.1 L197.1,259.7 L199.0,264.9 L199.1,266.9 L205.4,270.2"/><path stroke="#48CB86" d="M375.4,254.7 L383.8,254.6 L390.5,253.0 L391.4,252.6 L396.3,250.7 L401.1,247.6 L403.2,245.5 L405.2,243.9 L408.8,239.7 L409.6,238.3 L412.0,235.2 L413.9,231.2 L414.5,230.2 L416.6,224.8 L416.8,224.1 L418.4,219.2 L418.9,217.0 L419.6,213.1 L420.0,209.8 L420.2,206.4 L420.3,202.7 L420.1,199.2 L419.8,195.6 L418.9,191.1 L418.5,188.4 L416.3,181.8 L416.2,181.3 L413.2,174.2 L410.7,170.0 L409.2,167.1 L404.2,159.9 L398.8,153.0 L398.7,152.8 L393.3,145.7 L388.8,138.5 L388.3,137.1 L385.8,131.4 L384.2,126.6 L383.4,124.3 L381.1,117.1 L381.0,116.8 L378.8,110.0 L377.2,106.5 L375.8,102.9 L371.7,95.8 L369.7,93.1 L366.6,88.6 L360.1,81.5 L351.6,74.4 L340.4,67.2 L335.9,65.0 L324.7,60.1 L319.1,58.2 L306.6,54.9 L295.9,53.1"/><path stroke="#48CB86" d="M303.3,159.1 L312.5,159.7 L314.1,159.9 L325.7,167.1 L326.5,171.3 L327.7,174.2 L327.3,179.0 L327.4,181.3 L326.7,185.7 L326.5,188.4 L326.0,192.3 L325.8,195.6 L325.6,199.0 L325.3,202.7 L325.4,206.0 L325.3,209.8 L325.7,213.4 L325.8,217.0 L327.0,221.6 L327.3,224.1 L330.9,231.2 L334.0,234.6 L337.4,238.3 L344.9,243.6 L347.7,245.5 L364.2,252.6 L364.4,252.6 L375.4,254.7"/><path stroke="#48CB86" d="M257.1,163.5 L266.4,164.1 L273.8,163.1"/><path stroke="#48CB86" d="M277.3,51.9 L269.1,52.3 L262.7,53.0 L261.5,53.1 L254.1,54.0 L247.1,55.3 L240.5,57.0 L234.5,59.2 L232.6,60.1 L228.6,61.4 L222.9,63.7 L217.9,66.7 L217.3,67.2 L212.7,69.5 L208.2,72.9 L206.7,74.4 L203.8,76.3 L199.9,80.3 L199.0,81.5 L196.2,84.3 L193.7,88.6 L193.4,89.1 L190.7,94.0 L190.1,95.8 L188.9,99.6 L188.4,102.9 L188.5,106.4 L188.8,110.0 L190.8,115.5 L191.4,117.1 L196.1,124.3 L203.4,131.4 L212.6,138.5 L223.2,145.7 L234.8,152.8 L238.1,154.8 L248.2,159.9 L257.1,163.5"/></g></g><g id="gnuplot_plot_6a"><title>&apos;-&apos;</title><g fill="none" stroke="currentColor" stroke-linecap="butt" stroke-linejoin="miter" stroke-width=".5" color="#000"><path stroke="#E5BB2D" d="M245.5,246.5 L250.0,245.5 L251.1,244.1 L255.1,240.2 L257.2,238.3 L255.8,233.7 L255.8,231.2 L251.1,229.7 L243.8,230.8 L243.2,231.2 L240.6,235.3 L236.3,238.3 L236.9,239.4 L235.9,245.5 L245.5,246.5"/><path stroke="#E5BB2D" d="M365.6,210.9 L369.9,209.8 L362.5,208.3 L363.0,209.8 L365.6,210.9"/><path stroke="#E5BB2D" d="M371.4,208.6 L373.7,203.4 L373.9,202.7 L368.2,195.6 L363.7,195.1 L363.2,195.6 L361.5,200.4 L360.7,202.7 L371.4,208.6"/><path stroke="#E5BB2D" d="M262.1,146.2 L271.4,146.9"/><path stroke="#E5BB2D" d="M277.3,73.3 L269.2,73.8 L265.1,74.4 L261.9,74.8 L255.0,76.2 L248.7,78.1 L243.0,80.4 L241.0,81.5 L237.6,83.1 L232.7,86.1 L229.7,88.6 L228.4,89.7 L224.4,93.5 L222.8,95.8 L221.3,98.0 L219.1,102.9 L219.0,103.2 L217.8,109.4 L217.8,110.0 L219.0,117.1 L219.3,117.8 L222.7,124.3 L229.3,131.4 L239.5,138.5 L249.7,143.0 L259.0,145.7 L262.1,146.2"/><path stroke="#E5BB2D" d="M302.2,143.9 L309.4,142.8 L316.4,141.5 L322.8,139.7 L325.6,138.5 L328.7,137.5 L334.2,134.9 L337.8,131.4 L338.2,131.1 L341.6,126.8 L342.6,124.3 L343.6,121.3 L344.2,117.1 L344.0,114.5 L343.4,110.0 L341.6,105.4 L340.7,102.9 L335.8,95.8 L328.1,88.6 L316.3,81.5 L309.7,78.9 L296.6,75.1"/><path stroke="#E5BB2D" d="M302.2,143.9"/></g></g><g id="gnuplot_plot_7a"><title>&apos;-&apos;</title><g fill="none" stroke="currentColor" stroke-linecap="butt" stroke-linejoin="miter" stroke-width=".5" color="#000"><path stroke="#F7F51B" d="M263.7,133.3 L273.6,134.5 M270.2,88.8 L263.4,90.3 L257.2,92.3 L251.7,94.8 L250.3,95.8 L247.2,98.2 L243.2,102.0 L242.6,102.9 L240.7,107.1 L239.7,110.0 L240.0,113.6 L240.4,117.1 L245.1,124.3 L256.7,131.4 L263.7,133.3"/><path stroke="#F7F51B" d="M296.4,132.0 L298.5,131.4 M296.4,132.0"/><path stroke="#F7F51B" d="M302.5,130.0 L308.0,127.4 L312.9,124.3 L316.3,120.0 L318.0,117.1 L318.2,114.5 L318.4,110.0 L316.3,105.8 L315.0,102.9 L306.8,95.8 L301.1,93.1"/><path stroke="#F7F51B" d="M302.5,130.0"/><path stroke="#F7F51B" d="M278.1,88.3 L272.7,88.6"/></g></g><g id="gnuplot_plot_8a"><title>&apos;-&apos;</title><g fill="none" stroke="currentColor" stroke-linecap="butt" stroke-linejoin="miter" stroke-width="1" color="#000"><g fill="#000" stroke="none" font-family="Helvetica" font-size="10" text-anchor="middle" transform="translate(277.5,302.6) rotate(-89)" style="filter:url(#textbox)"><text><tspan font-family="Helvetica">-5.7</tspan></text></g><g fill="#000" stroke="none" font-family="Helvetica" font-size="10" text-anchor="middle"><text transform="translate(277.5,302.6) rotate(-89)"><tspan font-family="Helvetica">-5.7</tspan></text></g></g></g><g id="gnuplot_plot_9a"><title>&apos;-&apos;</title><g fill="none" stroke="currentColor" stroke-linecap="butt" stroke-linejoin="miter" stroke-width="1" color="#000"><g fill="#000" stroke="none" font-family="Helvetica" font-size="10" text-anchor="middle" transform="translate(333.7,284.0) rotate(28)" style="filter:url(#textbox)"><text><tspan font-family="Helvetica">-3.4</tspan></text></g><g fill="#000" stroke="none" font-family="Helvetica" font-size="10" text-anchor="middle"><text transform="translate(333.7,284.0) rotate(28)"><tspan font-family="Helvetica">-3.4</tspan></text></g></g></g><g id="gnuplot_plot_10a"><title>&apos;-&apos;</title><g fill="none" stroke="currentColor" stroke-linecap="butt" stroke-linejoin="miter" stroke-width="1" color="#000"><g fill="#000" stroke="none" font-family="Helvetica" font-size="10" text-anchor="middle" transform="translate(276.9,354.8) rotate(11)" style="filter:url(#textbox)"><text><tspan font-family="Helvetica">-1.1</tspan></text></g><g fill="#000" stroke="none" font-family="Helvetica" font-size="10" text-anchor="middle"><text transform="translate(276.9,354.8) rotate(11)"><tspan font-family="Helvetica">-1.1</tspan></text></g><g fill="#000" stroke="none" font-family="Helvetica" font-size="10" text-anchor="middle" transform="translate(351.3,330.3) rotate(88)" style="filter:url(#textbox)"><text><tspan font-family="Helvetica">-1.1</tspan></text></g><g fill="#000" stroke="none" font-family="Helvetica" font-size="10" text-anchor="middle"><text transform="translate(351.3,330.3) rotate(88)"><tspan font-family="Helvetica">-1.1</tspan></text></g><g fill="#000" stroke="none" font-family="Helvetica" font-size="10" text-anchor="middle" transform="translate(143.5,226.9) rotate(31)" style="filter:url(#textbox)"><text><tspan font-family="Helvetica">-1.1</tspan></text></g><g fill="#000" stroke="none" font-family="Helvetica" font-size="10" text-anchor="middle"><text transform="translate(143.5,226.9) rotate(31)"><tspan font-family="Helvetica">-1.1</tspan></text></g><g fill="#000" stroke="none" font-family="Helvetica" font-size="10" text-anchor="middle" transform="translate(137.4,174.8) rotate(81)" style="filter:url(#textbox)"><text><tspan font-family="Helvetica">-1.1</tspan></text></g><g fill="#000" stroke="none" font-family="Helvetica" font-size="10" text-anchor="middle"><text transform="translate(137.4,174.8) rotate(81)"><tspan font-family="Helvetica">-1.1</tspan></text></g><g fill="#000" stroke="none" font-family="Helvetica" font-size="10" text-anchor="middle" transform="translate(197.6,155.8) rotate(-25)" style="filter:url(#textbox)"><text><tspan font-family="Helvetica">-1.1</tspan></text></g><g fill="#000" stroke="none" font-family="Helvetica" font-size="10" text-anchor="middle"><text transform="translate(197.6,155.8) rotate(-25)"><tspan font-family="Helvetica">-1.1</tspan></text></g></g></g><g id="gnuplot_plot_11a"><title>&apos;-&apos;</title><g fill="none" stroke="currentColor" stroke-linecap="butt" stroke-linejoin="miter" stroke-width="1" color="#000"><g fill="#000" stroke="none" font-family="Helvetica" font-size="10" text-anchor="middle" transform="translate(182.6,375.1) rotate(68)" style="filter:url(#textbox)"><text><tspan font-family="Helvetica">0</tspan></text></g><g fill="#000" stroke="none" font-family="Helvetica" font-size="10" text-anchor="middle"><text transform="translate(182.6,375.1) rotate(68)"><tspan font-family="Helvetica">0</tspan></text></g><g fill="#000" stroke="none" font-family="Helvetica" font-size="10" text-anchor="middle" transform="translate(175.2,326.7) rotate(84)" style="filter:url(#textbox)"><text><tspan font-family="Helvetica">0</tspan></text></g><g fill="#000" stroke="none" font-family="Helvetica" font-size="10" text-anchor="middle"><text transform="translate(175.2,326.7) rotate(84)"><tspan font-family="Helvetica">0</tspan></text></g><g fill="#000" stroke="none" font-family="Helvetica" font-size="10" text-anchor="middle" transform="translate(390.7,283.9) rotate(31)" style="filter:url(#textbox)"><text><tspan font-family="Helvetica">0</tspan></text></g><g fill="#000" stroke="none" font-family="Helvetica" font-size="10" text-anchor="middle"><text transform="translate(390.7,283.9) rotate(31)"><tspan font-family="Helvetica">0</tspan></text></g><g fill="#000" stroke="none" font-family="Helvetica" font-size="10" text-anchor="middle" transform="translate(455.2,319.6) rotate(33)" style="filter:url(#textbox)"><text><tspan font-family="Helvetica">0</tspan></text></g><g fill="#000" stroke="none" font-family="Helvetica" font-size="10" text-anchor="middle"><text transform="translate(455.2,319.6) rotate(33)"><tspan font-family="Helvetica">0</tspan></text></g><g fill="#000" stroke="none" font-family="Helvetica" font-size="10" text-anchor="middle" transform="translate(212.2,225.0) rotate(-64)" style="filter:url(#textbox)"><text><tspan font-family="Helvetica">0</tspan></text></g><g fill="#000" stroke="none" font-family="Helvetica" font-size="10" text-anchor="middle"><text transform="translate(212.2,225.0) rotate(-64)"><tspan font-family="Helvetica">0</tspan></text></g><g fill="#000" stroke="none" font-family="Helvetica" font-size="10" text-anchor="middle" transform="translate(140.1,273.9) rotate(-37)" style="filter:url(#textbox)"><text><tspan font-family="Helvetica">0</tspan></text></g><g fill="#000" stroke="none" font-family="Helvetica" font-size="10" text-anchor="middle"><text transform="translate(140.1,273.9) rotate(-37)"><tspan font-family="Helvetica">0</tspan></text></g><g fill="#000" stroke="none" font-family="Helvetica" font-size="10" text-anchor="middle" transform="translate(84.0,292.3) rotate(-24)" style="filter:url(#textbox)"><text><tspan font-family="Helvetica">0</tspan></text></g><g fill="#000" stroke="none" font-family="Helvetica" font-size="10" text-anchor="middle"><text transform="translate(84.0,292.3) rotate(-24)"><tspan font-family="Helvetica">0</tspan></text></g><g fill="#000" stroke="none" font-family="Helvetica" font-size="10" text-anchor="middle" transform="translate(71.8,92.0) rotate(25)" style="filter:url(#textbox)"><text><tspan font-family="Helvetica">0</tspan></text></g><g fill="#000" stroke="none" font-family="Helvetica" font-size="10" text-anchor="middle"><text transform="translate(71.8,92.0) rotate(25)"><tspan font-family="Helvetica">0</tspan></text></g><g fill="#000" stroke="none" font-family="Helvetica" font-size="10" text-anchor="middle" transform="translate(135.4,116.3) rotate(24)" style="filter:url(#textbox)"><text><tspan font-family="Helvetica">0</tspan></text></g><g fill="#000" stroke="none" font-family="Helvetica" font-size="10" text-anchor="middle"><text transform="translate(135.4,116.3) rotate(24)"><tspan font-family="Helvetica">0</tspan></text></g></g></g><g id="gnuplot_plot_12a"><title>&apos;-&apos;</title><g fill="none" stroke="currentColor" stroke-linecap="butt" stroke-linejoin="miter" stroke-width="1" color="#000"><g fill="#000" stroke="none" font-family="Helvetica" font-size="10" text-anchor="middle" transform="translate(204.7,273.4) rotate(12)" style="filter:url(#textbox)"><text><tspan font-family="Helvetica">1.2</tspan></text></g><g fill="#000" stroke="none" font-family="Helvetica" font-size="10" text-anchor="middle"><text transform="translate(204.7,273.4) rotate(12)"><tspan font-family="Helvetica">1.2</tspan></text></g><g fill="#000" stroke="none" font-family="Helvetica" font-size="10" text-anchor="middle" transform="translate(266.3,259.2) rotate(-15)" style="filter:url(#textbox)"><text><tspan font-family="Helvetica">1.2</tspan></text></g><g fill="#000" stroke="none" font-family="Helvetica" font-size="10" text-anchor="middle"><text transform="translate(266.3,259.2) rotate(-15)"><tspan font-family="Helvetica">1.2</tspan></text></g><g fill="#000" stroke="none" font-family="Helvetica" font-size="10" text-anchor="middle" transform="translate(272.0,204.8) rotate(50)" style="filter:url(#textbox)"><text><tspan font-family="Helvetica">1.2</tspan></text></g><g fill="#000" stroke="none" font-family="Helvetica" font-size="10" text-anchor="middle"><text transform="translate(272.0,204.8) rotate(50)"><tspan font-family="Helvetica">1.2</tspan></text></g><g fill="#000" stroke="none" font-family="Helvetica" font-size="10" text-anchor="middle" transform="translate(401.0,160.6) rotate(79)" style="filter:url(#textbox)"><text><tspan font-family="Helvetica">1.2</tspan></text></g><g fill="#000" stroke="none" font-family="Helvetica" font-size="10" text-anchor="middle"><text transform="translate(401.0,160.6) rotate(79)"><tspan font-family="Helvetica">1.2</tspan></text></g><g fill="#000" stroke="none" font-family="Helvetica" font-size="10" text-anchor="middle" transform="translate(375.7,111.1) rotate(71)" style="filter:url(#textbox)"><text><tspan font-family="Helvetica">1.2</tspan></text></g><g fill="#000" stroke="none" font-family="Helvetica" font-size="10" text-anchor="middle"><text transform="translate(375.7,111.1) rotate(71)"><tspan font-family="Helvetica">1.2</tspan></text></g><g fill="#000" stroke="none" font-family="Helvetica" font-size="10" text-anchor="middle" transform="translate(218.9,69.8) rotate(-18)" style="filter:url(#textbox)"><text><tspan font-family="Helvetica">1.2</tspan></text></g><g fill="#000" stroke="none" font-family="Helvetica" font-size="10" text-anchor="middle"><text transform="translate(218.9,69.8) rotate(-18)"><tspan font-family="Helvetica">1.2</tspan></text></g></g></g><g id="gnuplot_plot_13a"><title>&apos;-&apos;</title><g fill="none" stroke="currentColor" stroke-linecap="butt" stroke-linejoin="miter" stroke-width="1" color="#000"><g fill="#000" stroke="none" font-family="Helvetica" font-size="10" text-anchor="middle" transform="translate(366.5,214.1) rotate(-17)" style="filter:url(#textbox)"><text><tspan font-family="Helvetica">3.5</tspan></text></g><g fill="#000" stroke="none" font-family="Helvetica" font-size="10" text-anchor="middle"><text transform="translate(366.5,214.1) rotate(-17)"><tspan font-family="Helvetica">3.5</tspan></text></g><g fill="#000" stroke="none" font-family="Helvetica" font-size="10" text-anchor="middle" transform="translate(277.4,76.6) rotate(-3)" style="filter:url(#textbox)"><text><tspan font-family="Helvetica">3.5</tspan></text></g><g fill="#000" stroke="none" font-family="Helvetica" font-size="10" text-anchor="middle"><text transform="translate(277.4,76.6) rotate(-3)"><tspan font-family="Helvetica">3.5</tspan></text></g><g fill="#000" stroke="none" font-family="Helvetica" font-size="10" text-anchor="middle" transform="translate(323.5,142.9) rotate(-13)" style="filter:url(#textbox)"><text><tspan font-family="Helvetica">3.5</tspan></text></g><g fill="#000" stroke="none" font-family="Helvetica" font-size="10" text-anchor="middle"><text transform="translate(323.5,142.9) rotate(-13)"><tspan font-family="Helvetica">3.5</tspan></text></g></g></g><g id="gnuplot_plot_14a"><title>&apos;-&apos;</title><g fill="none" stroke="currentColor" stroke-linecap="butt" stroke-linejoin="miter" stroke-width="1" color="#000"><g fill="#000" stroke="none" font-family="Helvetica" font-size="10" text-anchor="middle" transform="translate(263.3,136.6) rotate(7)" style="filter:url(#textbox)"><text><tspan font-family="Helvetica">5.8</tspan></text></g><g fill="#000" stroke="none" font-family="Helvetica" font-size="10" text-anchor="middle"><text transform="translate(263.3,136.6) rotate(7)"><tspan font-family="Helvetica">5.8</tspan></text></g></g></g><g fill="none" stroke="currentColor" stroke-linecap="butt" stroke-linejoin="miter" stroke-width=".5" color="#000"><path stroke="#000" d="M72.8,31.6 L72.8,373.8 L484.3,373.8 L484.3,31.6 L72.8,31.6 Z"/><g stroke="none" shape-rendering="crispEdges"><polygon fill="#3E26A9" points="494.6 373.8 515.1 373.8 515.1 371.1 494.6 371.1"/><polygon fill="#3F28AE" points="494.6 371.2 515.1 371.2 515.1 368.4 494.6 368.4"/><polygon fill="#402AB4" points="494.6 368.5 515.1 368.5 515.1 368.3 494.6 368.3"/><polygon fill="#402AB5" points="494.6 368.4 515.1 368.4 515.1 365.7 494.6 365.7"/><polygon fill="#412CBA" points="494.6 365.8 515.1 365.8 515.1 363.1 494.6 363.1"/><polygon fill="#422EBF" points="494.6 363.2 515.1 363.2 515.1 362.9 494.6 362.9"/><polygon fill="#422EC0" points="494.6 363 515.1 363 515.1 360.4 494.6 360.4"/><polygon fill="#4330C5" points="494.6 360.5 515.1 360.5 515.1 357.7 494.6 357.7"/><polygon fill="#4332CA" points="494.6 357.8 515.1 357.8 515.1 357.5 494.6 357.5"/><polygon fill="#4432CB" points="494.6 357.6 515.1 357.6 515.1 355 494.6 355"/><polygon fill="#4434D0" points="494.6 355.1 515.1 355.1 515.1 352.4 494.6 352.4"/><polygon fill="#4536D5" points="494.6 352.5 515.1 352.5 515.1 352 494.6 352"/><polygon fill="#4537D5" points="494.6 352.1 515.1 352.1 515.1 349.7 494.6 349.7"/><polygon fill="#4639D9" points="494.6 349.8 515.1 349.8 515.1 347 494.6 347"/><polygon fill="#463BDE" points="494.6 347.1 515.1 347.1 515.1 346.6 494.6 346.6"/><polygon fill="#463CDE" points="494.6 346.7 515.1 346.7 515.1 344.3 494.6 344.3"/><polygon fill="#473EE1" points="494.6 344.4 515.1 344.4 515.1 341.7 494.6 341.7"/><polygon fill="#4741E5" points="494.6 341.8 515.1 341.8 515.1 341.2 494.6 341.2"/><polygon fill="#4741E5" points="494.6 341.3 515.1 341.3 515.1 339 494.6 339"/><polygon fill="#4744E8" points="494.6 339.1 515.1 339.1 515.1 336.3 494.6 336.3"/><polygon fill="#4746EB" points="494.6 336.4 515.1 336.4 515.1 335.7 494.6 335.7"/><polygon fill="#4747EB" points="494.6 335.8 515.1 335.8 515.1 333.6 494.6 333.6"/><polygon fill="#4849ED" points="494.6 333.7 515.1 333.7 515.1 331 494.6 331"/><polygon fill="#484CEF" points="494.6 331.1 515.1 331.1 515.1 330.3 494.6 330.3"/><polygon fill="#484DF0" points="494.6 330.4 515.1 330.4 515.1 328.3 494.6 328.3"/><polygon fill="#484FF2" points="494.6 328.4 515.1 328.4 515.1 325.6 494.6 325.6"/><polygon fill="#4852F4" points="494.6 325.7 515.1 325.7 515.1 324.9 494.6 324.9"/><polygon fill="#4852F4" points="494.6 325 515.1 325 515.1 323 494.6 323"/><polygon fill="#4854F6" points="494.6 323.1 515.1 323.1 515.1 320.3 494.6 320.3"/><polygon fill="#4757F7" points="494.6 320.4 515.1 320.4 515.1 319.4 494.6 319.4"/><polygon fill="#4758F8" points="494.6 319.5 515.1 319.5 515.1 317.6 494.6 317.6"/><polygon fill="#475AF9" points="494.6 317.7 515.1 317.7 515.1 314.9 494.6 314.9"/><polygon fill="#475DFA" points="494.6 315 515.1 315 515.1 314 494.6 314"/><polygon fill="#465EFB" points="494.6 314.1 515.1 314.1 515.1 312.3 494.6 312.3"/><polygon fill="#465FFB" points="494.6 312.4 515.1 312.4 515.1 309.6 494.6 309.6"/><polygon fill="#4562FC" points="494.6 309.7 515.1 309.7 515.1 308.6 494.6 308.6"/><polygon fill="#4563FD" points="494.6 308.7 515.1 308.7 515.1 306.9 494.6 306.9"/><polygon fill="#4465FD" points="494.6 307 515.1 307 515.1 304.2 494.6 304.2"/><polygon fill="#4368FE" points="494.6 304.3 515.1 304.3 515.1 303.1 494.6 303.1"/><polygon fill="#4269FE" points="494.6 303.2 515.1 303.2 515.1 301.6 494.6 301.6"/><polygon fill="#416BFE" points="494.6 301.7 515.1 301.7 515.1 298.9 494.6 298.9"/><polygon fill="#3F6EFF" points="494.6 299 515.1 299 515.1 297.7 494.6 297.7"/><polygon fill="#3E6FFF" points="494.6 297.8 515.1 297.8 515.1 296.2 494.6 296.2"/><polygon fill="#3D71FF" points="494.6 296.3 515.1 296.3 515.1 293.5 494.6 293.5"/><polygon fill="#3A74FE" points="494.6 293.6 515.1 293.6 515.1 292.3 494.6 292.3"/><polygon fill="#3875FE" points="494.6 292.4 515.1 292.4 515.1 290.9 494.6 290.9"/><polygon fill="#3777FE" points="494.6 291 515.1 291 515.1 288.2 494.6 288.2"/><polygon fill="#347AFD" points="494.6 288.3 515.1 288.3 515.1 286.8 494.6 286.8"/><polygon fill="#327CFC" points="494.6 286.9 515.1 286.9 515.1 285.5 494.6 285.5"/><polygon fill="#317DFC" points="494.6 285.6 515.1 285.6 515.1 282.9 494.6 282.9"/><polygon fill="#3080FA" points="494.6 283 515.1 283 515.1 281.4 494.6 281.4"/><polygon fill="#2F81FA" points="494.6 281.5 515.1 281.5 515.1 280.2 494.6 280.2"/><polygon fill="#2E83F9" points="494.6 280.3 515.1 280.3 515.1 277.5 494.6 277.5"/><polygon fill="#2E85F8" points="494.6 277.6 515.1 277.6 515.1 276 494.6 276"/><polygon fill="#2E87F7" points="494.6 276.1 515.1 276.1 515.1 274.8 494.6 274.8"/><polygon fill="#2D88F6" points="494.6 274.9 515.1 274.9 515.1 272.2 494.6 272.2"/><polygon fill="#2D8BF4" points="494.6 272.3 515.1 272.3 515.1 270.5 494.6 270.5"/><polygon fill="#2D8CF3" points="494.6 270.6 515.1 270.6 515.1 269.5 494.6 269.5"/><polygon fill="#2D8DF2" points="494.6 269.6 515.1 269.6 515.1 266.8 494.6 266.8"/><polygon fill="#2C90F0" points="494.6 266.9 515.1 266.9 515.1 265.1 494.6 265.1"/><polygon fill="#2B91EF" points="494.6 265.2 515.1 265.2 515.1 264.1 494.6 264.1"/><polygon fill="#2A92EE" points="494.6 264.2 515.1 264.2 515.1 261.5 494.6 261.5"/><polygon fill="#2895EC" points="494.6 261.6 515.1 261.6 515.1 259.7 494.6 259.7"/><polygon fill="#2797EB" points="494.6 259.8 515.1 259.8 515.1 258.8 494.6 258.8"/><polygon fill="#2797EA" points="494.6 258.9 515.1 258.9 515.1 256.1 494.6 256.1"/><polygon fill="#269AE9" points="494.6 256.2 515.1 256.2 515.1 254.3 494.6 254.3"/><polygon fill="#259BE8" points="494.6 254.4 515.1 254.4 515.1 253.4 494.6 253.4"/><polygon fill="#259CE7" points="494.6 253.5 515.1 253.5 515.1 250.8 494.6 250.8"/><polygon fill="#249EE6" points="494.6 250.9 515.1 250.9 515.1 248.8 494.6 248.8"/><polygon fill="#23A0E5" points="494.6 248.9 515.1 248.9 515.1 248.1 494.6 248.1"/><polygon fill="#23A1E4" points="494.6 248.2 515.1 248.2 515.1 245.4 494.6 245.4"/><polygon fill="#21A3E3" points="494.6 245.5 515.1 245.5 515.1 243.4 494.6 243.4"/><polygon fill="#20A5E3" points="494.6 243.5 515.1 243.5 515.1 242.8 494.6 242.8"/><polygon fill="#1FA5E2" points="494.6 242.9 515.1 242.9 515.1 240.1 494.6 240.1"/><polygon fill="#1EA7E1" points="494.6 240.2 515.1 240.2 515.1 238 494.6 238"/><polygon fill="#1CA9DF" points="494.6 238.1 515.1 238.1 515.1 237.4 494.6 237.4"/><polygon fill="#1CAADF" points="494.6 237.5 515.1 237.5 515.1 234.7 494.6 234.7"/><polygon fill="#1AACDD" points="494.6 234.8 515.1 234.8 515.1 232.5 494.6 232.5"/><polygon fill="#18ADDB" points="494.6 232.6 515.1 232.6 515.1 232.1 494.6 232.1"/><polygon fill="#18AEDB" points="494.6 232.2 515.1 232.2 515.1 229.4 494.6 229.4"/><polygon fill="#14B0D8" points="494.6 229.5 515.1 229.5 515.1 227.1 494.6 227.1"/><polygon fill="#11B1D6" points="494.6 227.2 515.1 227.2 515.1 226.7 494.6 226.7"/><polygon fill="#11B1D6" points="494.6 226.8 515.1 226.8 515.1 224 494.6 224"/><polygon fill="#0CB3D3" points="494.6 224.1 515.1 224.1 515.1 221.7 494.6 221.7"/><polygon fill="#08B5D0" points="494.6 221.8 515.1 221.8 515.1 221.4 494.6 221.4"/><polygon fill="#07B5D0" points="494.6 221.5 515.1 221.5 515.1 218.7 494.6 218.7"/><polygon fill="#04B6CD" points="494.6 218.8 515.1 218.8 515.1 216.2 494.6 216.2"/><polygon fill="#01B8CA" points="494.6 216.3 515.1 216.3 515.1 216 494.6 216"/><polygon fill="#01B8CA" points="494.6 216.1 515.1 216.1 515.1 213.3 494.6 213.3"/><polygon fill="#01B9C6" points="494.6 213.4 515.1 213.4 515.1 210.8 494.6 210.8"/><polygon fill="#02BAC3" points="494.6 210.9 515.1 210.9 515.1 210.7 494.6 210.7"/><polygon fill="#02BBC3" points="494.6 210.8 515.1 210.8 515.1 208 494.6 208"/><polygon fill="#07BCC0" points="494.6 208.1 515.1 208.1 515.1 205.4 494.6 205.4"/><polygon fill="#0BBDBD" points="494.6 205.5 515.1 205.5 515.1 205.3 494.6 205.3"/><polygon fill="#0BBDBC" points="494.6 205.4 515.1 205.4 515.1 202.6 494.6 202.6"/><polygon fill="#12BEB9" points="494.6 202.7 515.1 202.7 515.1 200 494.6 200"/><polygon fill="#19BFB6" points="494.6 200.1 515.1 200.1 515.1 199.9 494.6 199.9"/><polygon fill="#19BFB5" points="494.6 200 515.1 200 515.1 197.3 494.6 197.3"/><polygon fill="#1EC0B2" points="494.6 197.4 515.1 197.4 515.1 194.6 494.6 194.6"/><polygon fill="#24C1AF" points="494.6 194.7 515.1 194.7 515.1 194.5 494.6 194.5"/><polygon fill="#24C1AE" points="494.6 194.6 515.1 194.6 515.1 192 494.6 192"/><polygon fill="#28C2AB" points="494.6 192.1 515.1 192.1 515.1 189.3 494.6 189.3"/><polygon fill="#2CC4A7" points="494.6 189.4 515.1 189.4 515.1 189.1 494.6 189.1"/><polygon fill="#2CC4A7" points="494.6 189.2 515.1 189.2 515.1 186.6 494.6 186.6"/><polygon fill="#2EC5A4" points="494.6 186.7 515.1 186.7 515.1 183.9 494.6 183.9"/><polygon fill="#31C6A0" points="494.6 184 515.1 184 515.1 183.6 494.6 183.6"/><polygon fill="#32C69F" points="494.6 183.7 515.1 183.7 515.1 181.3 494.6 181.3"/><polygon fill="#34C79C" points="494.6 181.4 515.1 181.4 515.1 178.6 494.6 178.6"/><polygon fill="#37C898" points="494.6 178.7 515.1 178.7 515.1 178.2 494.6 178.2"/><polygon fill="#37C897" points="494.6 178.3 515.1 178.3 515.1 175.9 494.6 175.9"/><polygon fill="#3BC993" points="494.6 176 515.1 176 515.1 173.2 494.6 173.2"/><polygon fill="#3ECA8F" points="494.6 173.3 515.1 173.3 515.1 172.8 494.6 172.8"/><polygon fill="#3FCA8E" points="494.6 172.9 515.1 172.9 515.1 170.6 494.6 170.6"/><polygon fill="#44CA8A" points="494.6 170.7 515.1 170.7 515.1 167.9 494.6 167.9"/><polygon fill="#49CB85" points="494.6 168 515.1 168 515.1 167.3 494.6 167.3"/><polygon fill="#4ACB84" points="494.6 167.4 515.1 167.4 515.1 165.2 494.6 165.2"/><polygon fill="#4FCC80" points="494.6 165.3 515.1 165.3 515.1 162.5 494.6 162.5"/><polygon fill="#56CC7B" points="494.6 162.6 515.1 162.6 515.1 161.9 494.6 161.9"/><polygon fill="#57CC7A" points="494.6 162 515.1 162 515.1 159.9 494.6 159.9"/><polygon fill="#5CCC76" points="494.6 160 515.1 160 515.1 157.2 494.6 157.2"/><polygon fill="#62CD70" points="494.6 157.3 515.1 157.3 515.1 156.5 494.6 156.5"/><polygon fill="#64CD6F" points="494.6 156.6 515.1 156.6 515.1 154.5 494.6 154.5"/><polygon fill="#69CD6B" points="494.6 154.6 515.1 154.6 515.1 151.9 494.6 151.9"/><polygon fill="#70CD65" points="494.6 152 515.1 152 515.1 151 494.6 151"/><polygon fill="#72CD63" points="494.6 151.1 515.1 151.1 515.1 149.2 494.6 149.2"/><polygon fill="#77CC60" points="494.6 149.3 515.1 149.3 515.1 146.5 494.6 146.5"/><polygon fill="#7ECC5A" points="494.6 146.6 515.1 146.6 515.1 145.6 494.6 145.6"/><polygon fill="#81CC59" points="494.6 145.7 515.1 145.7 515.1 143.8 494.6 143.8"/><polygon fill="#86CB55" points="494.6 143.9 515.1 143.9 515.1 141.2 494.6 141.2"/><polygon fill="#8DCB50" points="494.6 141.3 515.1 141.3 515.1 140.2 494.6 140.2"/><polygon fill="#8FCB4E" points="494.6 140.3 515.1 140.3 515.1 138.5 494.6 138.5"/><polygon fill="#94CA4A" points="494.6 138.6 515.1 138.6 515.1 135.8 494.6 135.8"/><polygon fill="#9BC945" points="494.6 135.9 515.1 135.9 515.1 134.8 494.6 134.8"/><polygon fill="#9DC943" points="494.6 134.9 515.1 134.9 515.1 133.1 494.6 133.1"/><polygon fill="#A2C840" points="494.6 133.2 515.1 133.2 515.1 130.5 494.6 130.5"/><polygon fill="#A8C73B" points="494.6 130.6 515.1 130.6 515.1 129.3 494.6 129.3"/><polygon fill="#ACC739" points="494.6 129.4 515.1 129.4 515.1 127.8 494.6 127.8"/><polygon fill="#AFC636" points="494.6 127.9 515.1 127.9 515.1 125.1 494.6 125.1"/><polygon fill="#B6C532" points="494.6 125.2 515.1 125.2 515.1 123.9 494.6 123.9"/><polygon fill="#B9C431" points="494.6 124 515.1 124 515.1 122.4 494.6 122.4"/><polygon fill="#BCC42F" points="494.6 122.5 515.1 122.5 515.1 119.8 494.6 119.8"/><polygon fill="#C2C22C" points="494.6 119.9 515.1 119.9 515.1 118.5 494.6 118.5"/><polygon fill="#C5C22A" points="494.6 118.6 515.1 118.6 515.1 117.1 494.6 117.1"/><polygon fill="#C8C129" points="494.6 117.2 515.1 117.2 515.1 114.4 494.6 114.4"/><polygon fill="#CEC028" points="494.6 114.5 515.1 114.5 515.1 113 494.6 113"/><polygon fill="#D1BF27" points="494.6 113.1 515.1 113.1 515.1 111.8 494.6 111.8"/><polygon fill="#D4BF28" points="494.6 111.9 515.1 111.9 515.1 109.1 494.6 109.1"/><polygon fill="#D9BD28" points="494.6 109.2 515.1 109.2 515.1 107.6 494.6 107.6"/><polygon fill="#DCBD29" points="494.6 107.7 515.1 107.7 515.1 106.4 494.6 106.4"/><polygon fill="#DFBC2A" points="494.6 106.5 515.1 106.5 515.1 103.7 494.6 103.7"/><polygon fill="#E4BB2C" points="494.6 103.8 515.1 103.8 515.1 102.2 494.6 102.2"/><polygon fill="#E6BB2D" points="494.6 102.3 515.1 102.3 515.1 101.1 494.6 101.1"/><polygon fill="#E8BB2F" points="494.6 101.2 515.1 101.2 515.1 98.4 494.6 98.4"/><polygon fill="#EDBA33" points="494.6 98.5 515.1 98.5 515.1 96.7 494.6 96.7"/><polygon fill="#F0BA36" points="494.6 96.8 515.1 96.8 515.1 95.7 494.6 95.7"/><polygon fill="#F1BA37" points="494.6 95.8 515.1 95.8 515.1 93 494.6 93"/><polygon fill="#F5BA3B" points="494.6 93.1 515.1 93.1 515.1 91.3 494.6 91.3"/><polygon fill="#F8BA3D" points="494.6 91.4 515.1 91.4 515.1 90.4 494.6 90.4"/><polygon fill="#F9BB3D" points="494.6 90.5 515.1 90.5 515.1 87.7 494.6 87.7"/><polygon fill="#FCBC3D" points="494.6 87.8 515.1 87.8 515.1 85.9 494.6 85.9"/><polygon fill="#FEBE3C" points="494.6 86 515.1 86 515.1 85 494.6 85"/><polygon fill="#FEBF3C" points="494.6 85.1 515.1 85.1 515.1 82.3 494.6 82.3"/><polygon fill="#FEC13A" points="494.6 82.4 515.1 82.4 515.1 80.4 494.6 80.4"/><polygon fill="#FEC338" points="494.6 80.5 515.1 80.5 515.1 79.7 494.6 79.7"/><polygon fill="#FEC437" points="494.6 79.8 515.1 79.8 515.1 77 494.6 77"/><polygon fill="#FEC735" points="494.6 77.1 515.1 77.1 515.1 75 494.6 75"/><polygon fill="#FEC934" points="494.6 75.1 515.1 75.1 515.1 74.3 494.6 74.3"/><polygon fill="#FECA33" points="494.6 74.4 515.1 74.4 515.1 71.7 494.6 71.7"/><polygon fill="#FDCD31" points="494.6 71.8 515.1 71.8 515.1 69.6 494.6 69.6"/><polygon fill="#FCCF30" points="494.6 69.7 515.1 69.7 515.1 69 494.6 69"/><polygon fill="#FCD030" points="494.6 69.1 515.1 69.1 515.1 66.3 494.6 66.3"/><polygon fill="#FBD32E" points="494.6 66.4 515.1 66.4 515.1 64.1 494.6 64.1"/><polygon fill="#FAD62D" points="494.6 64.2 515.1 64.2 515.1 63.6 494.6 63.6"/><polygon fill="#F9D72D" points="494.6 63.7 515.1 63.7 515.1 61 494.6 61"/><polygon fill="#F8DA2B" points="494.6 61.1 515.1 61.1 515.1 58.7 494.6 58.7"/><polygon fill="#F7DC2A" points="494.6 58.8 515.1 58.8 515.1 58.3 494.6 58.3"/><polygon fill="#F7DD2A" points="494.6 58.4 515.1 58.4 515.1 55.6 494.6 55.6"/><polygon fill="#F6E028" points="494.6 55.7 515.1 55.7 515.1 53.3 494.6 53.3"/><polygon fill="#F5E327" points="494.6 53.4 515.1 53.4 515.1 52.9 494.6 52.9"/><polygon fill="#F5E327" points="494.6 53 515.1 53 515.1 50.3 494.6 50.3"/><polygon fill="#F5E626" points="494.6 50.4 515.1 50.4 515.1 47.8 494.6 47.8"/><polygon fill="#F5E924" points="494.6 47.9 515.1 47.9 515.1 47.6 494.6 47.6"/><polygon fill="#F5E924" points="494.6 47.7 515.1 47.7 515.1 44.9 494.6 44.9"/><polygon fill="#F5EC22" points="494.6 45 515.1 45 515.1 42.4 494.6 42.4"/><polygon fill="#F6EF20" points="494.6 42.5 515.1 42.5 515.1 42.2 494.6 42.2"/><polygon fill="#F6EF20" points="494.6 42.3 515.1 42.3 515.1 39.6 494.6 39.6"/><polygon fill="#F6F21E" points="494.6 39.7 515.1 39.7 515.1 37 494.6 37"/><polygon fill="#F7F51B" points="494.6 37.1 515.1 37.1 515.1 36.9 494.6 36.9"/><polygon fill="#F7F51B" points="494.6 37 515.1 37 515.1 34.2 494.6 34.2"/><polygon fill="#F8F818" points="494.6 34.3 515.1 34.3 515.1 31.6 494.6 31.6"/></g></g><g fill="none" stroke="currentColor" stroke-linecap="butt" stroke-linejoin="miter" stroke-width=".5" color="#000"><path stroke="#000" d="M494.6,373.8 L515.1,373.8 L515.1,31.6 L494.6,31.6 L494.6,373.8 Z"/></g><g fill="none" stroke="currentColor" stroke-linecap="butt" stroke-linejoin="miter" stroke-width=".5" color="#000"><path stroke="#000" d="M515.1,373.8 L509.5,373.8"/><g fill="#262626" stroke="none" font-family="Helvetica" font-size="10" text-anchor="start"><text transform="translate(522.1,377.1)"><tspan font-family="Helvetica">-6</tspan></text></g></g><g fill="none" stroke="currentColor" stroke-linecap="butt" stroke-linejoin="miter" stroke-width=".5" color="#000"><path stroke="#000" d="M515.1,316.8 L509.5,316.8"/><g fill="#262626" stroke="none" font-family="Helvetica" font-size="10" text-anchor="start"><text transform="translate(522.1,320.1)"><tspan font-family="Helvetica">-4</tspan></text></g></g><g fill="none" stroke="currentColor" stroke-linecap="butt" stroke-linejoin="miter" stroke-width=".5" color="#000"><path stroke="#000" d="M515.1,259.8 L509.5,259.8"/><g fill="#262626" stroke="none" font-family="Helvetica" font-size="10" text-anchor="start"><text transform="translate(522.1,263.1)"><tspan font-family="Helvetica">-2</tspan></text></g></g><g fill="none" stroke="currentColor" stroke-linecap="butt" stroke-linejoin="miter" stroke-width=".5" color="#000"><path stroke="#000" d="M515.1,202.7 L509.5,202.7"/><g fill="#262626" stroke="none" font-family="Helvetica" font-size="10" text-anchor="start"><text transform="translate(522.1,206.0)"><tspan font-family="Helvetica">0</tspan></text></g></g><g fill="none" stroke="currentColor" stroke-linecap="butt" stroke-linejoin="miter" stroke-width=".5" color="#000"><path stroke="#000" d="M515.1,145.7 L509.5,145.7"/><g fill="#262626" stroke="none" font-family="Helvetica" font-size="10" text-anchor="start"><text transform="translate(522.1,149.0)"><tspan font-family="Helvetica">2</tspan></text></g></g><g fill="none" stroke="currentColor" stroke-linecap="butt" stroke-linejoin="miter" stroke-width=".5" color="#000"><path stroke="#000" d="M515.1,88.7 L509.5,88.7"/><g fill="#262626" stroke="none" font-family="Helvetica" font-size="10" text-anchor="start"><text transform="translate(522.1,92.0)"><tspan font-family="Helvetica">4</tspan></text></g></g><g fill="none" stroke="currentColor" stroke-linecap="butt" stroke-linejoin="miter" stroke-width=".5" color="#000"><path stroke="#000" d="M515.1,31.6 L509.5,31.6"/><g fill="#262626" stroke="none" font-family="Helvetica" font-size="10" text-anchor="start"><text transform="translate(522.1,34.9)"><tspan font-family="Helvetica">6</tspan></text></g></g></g></svg>