<svg xmlns="http://www.w3.org/2000/svg" xmlns:xlink="http://www.w3.org/1999/xlink" width="560" height="420" viewBox="0 0 560 420"><title>Gnuplot</title><desc>Produced by GNUPLOT 5.4 patchlevel 0</desc><g id="gnuplot_canvas"><rect width="560" height="420" x="0" y="0" fill="none"/><defs><circle id="gpDot" r=".5" stroke="currentColor" stroke-width=".5"/><path id="gpPt0" stroke="currentColor" stroke-width=".267" d="M-1,0 h2 M0,-1 v2"/><path id="gpPt1" stroke="currentColor" stroke-width=".267" d="M-1,-1 L1,1 M1,-1 L-1,1"/><path id="gpPt2" stroke="currentColor" stroke-width=".267" d="M-1,0 L1,0 M0,-1 L0,1 M-1,-1 L1,1 M-1,1 L1,-1"/><rect id="gpPt3" width="2" height="2" x="-1" y="-1" stroke="currentColor" stroke-width=".267"/><rect id="gpPt4" width="2" height="2" x="-1" y="-1" fill="currentColor" stroke="currentColor" stroke-width=".267"/><circle id="gpPt5" cx="0" cy="0" r="1" stroke="currentColor" stroke-width=".267"/><use id="gpPt6" fill="currentColor" stroke="none" xlink:href="#gpPt5"/><path id="gpPt7" stroke="currentColor" stroke-width=".267" d="M0,-1.33 L-1.33,0.67 L1.33,0.67 z"/><use id="gpPt8" fill="currentColor" stroke="none" xlink:href="#gpPt7"/><use id="gpPt9" stroke="currentColor" transform="rotate(180)" xlink:href="#gpPt7"/><use id="gpPt10" fill="currentColor" stroke="none" xlink:href="#gpPt9"/><use id="gpPt11" stroke="currentColor" transform="rotate(45)" xlink:href="#gpPt3"/><use id="gpPt12" fill="currentColor" stroke="none" xlink:href="#gpPt11"/><path id="gpPt13" stroke="currentColor" stroke-width=".267" d="M0,1.330 L1.265,0.411 L0.782,-1.067 L-0.782,-1.076 L-1.265,0.411 z"/><use id="gpPt14" fill="currentColor" stroke="none" xlink:href="#gpPt13"/><filter id="textbox" width="1" height="1" x="0" y="0" filterUnits="objectBoundingBox"><feFlood flood-color="#fff" flood-opacity="1" result="bgnd"/><feComposite in="SourceGraphic" in2="bgnd" operator="atop"/></filter><filter id="greybox" width="1" height="1" x="0" y="0" filterUnits="objectBoundingBox"><feFlood flood-color="#d3d3d3" flood-opacity="1" result="grey"/><feComposite in="SourceGraphic" in2="grey" operator="atop"/></filter></defs><g fill="none" stroke="currentColor" stroke-linecap="butt" stroke-linejoin="miter" stroke-width=".5" color="#000"><path stroke="#000" d="M72.8,373.8 L78.4,373.8"/><g fill="#262626" stroke="none" font-family="Helvetica" font-size="10" text-anchor="end"><text transform="translate(65.8,377.1)"><tspan font-family="Helvetica">-3</tspan></text></g></g><g fill="none" stroke="currentColor" stroke-linecap="butt" stroke-linejoin="miter" stroke-width=".5" color="#000"><path stroke="#000" d="M72.8,316.8 L78.4,316.8"/><g fill="#262626" stroke="none" font-family="Helvetica" font-size="10" text-anchor="end"><text transform="translate(65.8,320.1)"><tspan font-family="Helvetica">-2</tspan></text></g></g><g fill="none" stroke="currentColor" stroke-linecap="butt" stroke-linejoin="miter" stroke-width=".5" color="#000"><path stroke="#000" d="M72.8,259.7 L78.4,259.7"/><g fill="#262626" stroke="none" font-family="Helvetica" font-size="10" text-anchor="end"><text transform="translate(65.8,263.0)"><tspan font-family="Helvetica">-1</tspan></text></g></g><g fill="none" stroke="currentColor" stroke-linecap="butt" stroke-linejoin="miter" stroke-width=".5" color="#000"><path stroke="#000" d="M72.8,202.7 L78.4,202.7"/><g fill="#262626" stroke="none" font-family="Helvetica" font-size="10" text-anchor="end"><text transform="translate(65.8,206.0)"><tspan font-family="Helvetica">0</tspan></text></g></g><g fill="none" stroke="currentColor" stroke-linecap="butt" stroke-linejoin="miter" stroke-width=".5" color="#000"><path stroke="#000" d="M72.8,145.7 L78.4,145.7"/><g fill="#262626" stroke="none" font-family="Helvetica" font-size="10" text-anchor="end"><text transform="translate(65.8,149.0)"><tspan font-family="Helvetica">1</tspan></text></g></g><g fill="none" stroke="currentColor" stroke-linecap="butt" stroke-linejoin="miter" stroke-width=".5" color="#000"><path stroke="#000" d="M72.8,88.6 L78.4,88.6"/><g fill="#262626" stroke="none" font-family="Helvetica" font-size="10" text-anchor="end"><text transform="translate(65.8,91.9)"><tspan font-family="Helvetica">2</tspan></text></g></g><g fill="none" stroke="currentColor" stroke-linecap="butt" stroke-linejoin="miter" stroke-width=".5" color="#000"><path stroke="#000" d="M72.8,31.6 L78.4,31.6"/><g fill="#262626" stroke="none" font-family="Helvetica" font-size="10" text-anchor="end"><text transform="translate(65.8,34.9)"><tspan font-family="Helvetica">3</tspan></text></g></g><g fill="none" stroke="currentColor" stroke-linecap="butt" stroke-linejoin="miter" stroke-width=".5" color="#000"><path stroke="#000" d="M72.8,373.8 L72.8,368.2"/><g fill="#262626" stroke="none" font-family="Helvetica" font-size="10" text-anchor="middle"><text transform="translate(72.8,392.1)"><tspan font-family="Helvetica">-3</tspan></text></g></g><g fill="none" stroke="currentColor" stroke-linecap="butt" stroke-linejoin="miter" stroke-width=".5" color="#000"><path stroke="#000" d="M141.4,373.8 L141.4,368.2"/><g fill="#262626" stroke="none" font-family="Helvetica" font-size="10" text-anchor="middle"><text transform="translate(141.4,392.1)"><tspan font-family="Helvetica">-2</tspan></text></g></g><g fill="none" stroke="currentColor" stroke-linecap="butt" stroke-linejoin="miter" stroke-width=".5" color="#000"><path stroke="#000" d="M210.0,373.8 L210.0,368.2"/><g fill="#262626" stroke="none" font-family="Helvetica" font-size="10" text-anchor="middle"><text transform="translate(210.0,392.1)"><tspan font-family="Helvetica">-1</tspan></text></g></g><g fill="none" stroke="currentColor" stroke-linecap="butt" stroke-linejoin="miter" stroke-width=".5" color="#000"><path stroke="#000" d="M278.6,373.8 L278.6,368.2"/><g fill="#262626" stroke="none" font-family="Helvetica" font-size="10" text-anchor="middle"><text transform="translate(278.6,392.1)"><tspan font-family="Helvetica">0</tspan></text></g></g><g fill="none" stroke="currentColor" stroke-linecap="butt" stroke-linejoin="miter" stroke-width=".5" color="#000"><path stroke="#000" d="M347.1,373.8 L347.1,368.2"/><g fill="#262626" stroke="none" font-family="Helvetica" font-size="10" text-anchor="middle"><text transform="translate(347.1,392.1)"><tspan font-family="Helvetica">1</tspan></text></g></g><g fill="none" stroke="currentColor" stroke-linecap="butt" stroke-linejoin="miter" stroke-width=".5" color="#000"><path stroke="#000" d="M415.7,373.8 L415.7,368.2"/><g fill="#262626" stroke="none" font-family="Helvetica" font-size="10" text-anchor="middle"><text transform="translate(415.7,392.1)"><tspan font-family="Helvetica">2</tspan></text></g></g><g fill="none" stroke="currentColor" stroke-linecap="butt" stroke-linejoin="miter" stroke-width=".5" color="#000"><path stroke="#000" d="M484.3,373.8 L484.3,368.2"/><g fill="#262626" stroke="none" font-family="Helvetica" font-size="10" text-anchor="middle"><text transform="translate(484.3,392.1)"><tspan font-family="Helvetica">3</tspan></text></g></g><g fill="none" stroke="currentColor" stroke-linecap="butt" stroke-linejoin="miter" stroke-width=".5" color="#000"><path stroke="#000" d="M72.8,31.6 L72.8,373.8 L484.3,373.8 L484.3,31.6 L72.8,31.6 Z"/></g><g id="gnuplot_plot_1a"><title>&apos;-&apos;</title><g fill="none" stroke="currentColor" stroke-linecap="butt" stroke-linejoin="miter" stroke-width=".5" color="#000"><path stroke="#12BEB9" d="M259.7,187.0 L252.7,188.3 L252.6,188.4 L248.3,191.8 L243.9,195.3 L243.7,195.6 L240.3,199.4 L237.4,202.7 L236.6,203.5 L233.1,207.6 L231.3,209.8 L229.5,211.8 L225.8,215.9 L225.0,217.0 L222.3,220.1 L218.5,224.1 L214.9,228.2 L212.0,231.2 L211.2,232.3 L207.6,236.4 L205.6,238.3 L204.2,240.6 L200.7,244.9 L200.0,245.5 L197.8,249.6 L195.6,252.6 L195.3,254.7 L193.1,259.7 L193.3,260.1 L193.6,266.9 L199.5,272.4 L201.0,274.0 L201.6,274.1 L211.3,275.1 L219.2,274.5 L222.1,274.0 L225.9,273.0 L232.1,271.0 L238.4,269.1 L244.6,267.2 L245.4,266.9 L250.1,264.6 L255.7,262.2 L261.4,259.7 L266.3,256.7 L271.5,253.9 L273.6,252.6 L276.1,250.6 L280.6,247.2 L282.9,245.5 L284.5,243.3 L288.0,239.1 L288.7,238.3 L290.2,233.7 L291.2,231.2 L290.4,226.8 L290.2,224.1 L286.8,217.0 L286.5,216.4 L282.9,209.8 L278.2,202.7 L277.4,201.8"/><path stroke="#12BEB9" d="M209.1,137.8 L210.0,138.5 L220.7,145.7 L232.0,152.8 L243.6,159.9 L246.6,161.8 L260.7,167.1 L261.7,167.3 L262.9,167.1 L269.3,166.5 L276.1,165.0 L282.8,163.5 L289.8,162.2 L297.3,161.2 L305.9,161.3 L320.8,166.5 L321.7,167.1 L321.7,167.3 L324.5,174.2 L324.3,176.6 L324.7,181.3 L324.3,183.7 L324.0,188.4 L323.7,190.4 L323.3,195.6 L323.2,197.0 L322.8,202.7 L322.9,203.9 L322.7,209.8 L322.8,211.0 L323.0,217.0 L323.4,218.6 L324.1,224.1 L326.1,228.0 L327.5,231.2 L334.0,238.3 L344.0,245.5 L352.8,250.2 L358.4,252.6 L368.5,256.1 L379.2,257.9 L387.5,257.6 L394.2,256.1 L399.7,253.6 L401.0,252.6 L404.6,250.5 L408.7,246.8 L409.7,245.5 L412.4,242.7 L415.1,238.3 L415.3,238.0 L418.2,233.3 L419.1,231.2 L420.6,228.1 L421.8,224.1 L422.3,222.4 L423.5,217.0 L423.6,216.4 L424.5,210.0 L424.5,209.8 L424.8,203.1 L424.8,202.7 L424.3,195.6 L423.1,188.4 L422.7,187.1 L421.2,181.3 L419.5,177.3 L418.4,174.2 L414.6,167.1 L413.1,164.9 L410.1,159.9 L405.0,152.8 L401.5,148.1 L399.8,145.7 L395.3,138.5 L392.8,133.8 L391.6,131.4 L388.8,124.3 L388.4,122.9 L386.4,117.1 L384.7,112.8 L383.8,110.0 L380.5,102.9 L379.6,101.4 L376.7,95.8 L371.6,88.6 L367.6,84.3 L365.3,81.5 L357.4,74.4 L347.5,67.6 L347.0,67.2 L333.4,60.1 L327.0,57.6 L313.2,53.3 L311.9,53.0 L301.7,50.8 L291.5,49.5 L282.2,48.9 L273.6,48.9 L265.5,49.3 L258.0,50.2 L251.0,51.4 L245.2,53.0 L244.4,53.1 L237.7,54.7 L231.4,56.6 L225.9,59.1 L224.1,60.1 L220.2,61.5 L214.8,64.2 L210.8,67.2 L210.3,67.5 L205.2,70.4 L201.3,74.3 L201.2,74.4 L196.8,77.7 L194.0,81.5 L193.5,82.1 L190.0,86.3 L188.9,88.6 L187.3,91.2 L185.8,95.8 L185.5,96.8 L184.6,102.9 L184.6,103.2 L185.1,110.0 L185.5,111.1 L187.7,117.1 L193.1,124.3 L195.2,126.3"/></g></g><g fill="none" stroke="currentColor" stroke-linecap="butt" stroke-linejoin="miter" stroke-width=".5" color="#000"><path stroke="#000" d="M72.8,31.6 L72.8,373.8 L484.3,373.8 L484.3,31.6 L72.8,31.6 Z"/><g stroke="none" shape-rendering="crispEdges"><polygon fill="#3E26A9" points="494.6 373.8 515.1 373.8 515.1 371.1 494.6 371.1"/><polygon fill="#3F28AE" points="494.6 371.2 515.1 371.2 515.1 368.4 494.6 368.4"/><polygon fill="#402AB4" points="494.6 368.5 515.1 368.5 515.1 368.3 494.6 368.3"/><polygon fill="#402AB5" points="494.6 368.4 515.1 368.4 515.1 365.7 494.6 365.7"/><polygon fill="#412CBA" points="494.6 365.8 515.1 365.8 515.1 363.1 494.6 363.1"/><polygon fill="#422EBF" points="494.6 363.2 515.1 363.2 515.1 362.9 494.6 362.9"/><polygon fill="#422EC0" points="494.6 363 515.1 363 515.1 360.4 494.6 360.4"/><polygon fill="#4330C5" points="494.6 360.5 515.1 360.5 515.1 357.7 494.6 357.7"/><polygon fill="#4332CA" points="494.6 357.8 515.1 357.8 515.1 357.5 494.6 357.5"/><polygon fill="#4432CB" points="494.6 357.6 515.1 357.6 515.1 355 494.6 355"/><polygon fill="#4434D0" points="494.6 355.1 515.1 355.1 515.1 352.4 494.6 352.4"/><polygon fill="#4536D5" points="494.6 352.5 515.1 352.5 515.1 352 494.6 352"/><polygon fill="#4537D5" points="494.6 352.1 515.1 352.1 515.1 349.7 494.6 349.7"/><polygon fill="#4639D9" points="494.6 349.8 515.1 349.8 515.1 347 494.6 347"/><polygon fill="#463BDE" points="494.6 347.1 515.1 347.1 515.1 346.6 494.6 346.6"/><polygon fill="#463CDE" points="494.6 346.7 515.1 346.7 515.1 344.3 494.6 344.3"/><polygon fill="#473EE1" points="494.6 344.4 515.1 344.4 515.1 341.7 494.6 341.7"/><polygon fill="#4741E5" points="494.6 341.8 515.1 341.8 515.1 341.2 494.6 341.2"/><polygon fill="#4741E5" points="494.6 341.3 515.1 341.3 515.1 339 494.6 339"/><polygon fill="#4744E8" points="494.6 339.1 515.1 339.1 515.1 336.3 494.6 336.3"/><polygon fill="#4746EB" points="494.6 336.4 515.1 336.4 515.1 335.7 494.6 335.7"/><polygon fill="#4747EB" points="494.6 335.8 515.1 335.8 515.1 333.6 494.6 333.6"/><polygon fill="#4849ED" points="494.6 333.7 515.1 333.7 515.1 331 494.6 331"/><polygon fill="#484CEF" points="494.6 331.1 515.1 331.1 515.1 330.3 494.6 330.3"/><polygon fill="#484DF0" points="494.6 330.4 515.1 330.4 515.1 328.3 494.6 328.3"/><polygon fill="#484FF2" points="494.6 328.4 515.1 328.4 515.1 325.6 494.6 325.6"/><polygon fill="#4852F4" points="494.6 325.7 515.1 325.7 515.1 324.9 494.6 324.9"/><polygon fill="#4852F4" points="494.6 325 515.1 325 515.1 323 494.6 323"/><polygon fill="#4854F6" points="494.6 323.1 515.1 323.1 515.1 320.3 494.6 320.3"/><polygon fill="#4757F7" points="494.6 320.4 515.1 320.4 515.1 319.4 494.6 319.4"/><polygon fill="#4758F8" points="494.6 319.5 515.1 319.5 515.1 317.6 494.6 317.6"/><polygon fill="#475AF9" points="494.6 317.7 515.1 317.7 515.1 314.9 494.6 314.9"/><polygon fill="#475DFA" points="494.6 315 515.1 315 515.1 314 494.6 314"/><polygon fill="#465EFB" points="494.6 314.1 515.1 314.1 515.1 312.3 494.6 312.3"/><polygon fill="#465FFB" points="494.6 312.4 515.1 312.4 515.1 309.6 494.6 309.6"/><polygon fill="#4562FC" points="494.6 309.7 515.1 309.7 515.1 308.6 494.6 308.6"/><polygon fill="#4563FD" points="494.6 308.7 515.1 308.7 515.1 306.9 494.6 306.9"/><polygon fill="#4465FD" points="494.6 307 515.1 307 515.1 304.2 494.6 304.2"/><polygon fill="#4368FE" points="494.6 304.3 515.1 304.3 515.1 303.1 494.6 303.1"/><polygon fill="#4269FE" points="494.6 303.2 515.1 303.2 515.1 301.6 494.6 301.6"/><polygon fill="#416BFE" points="494.6 301.7 515.1 301.7 515.1 298.9 494.6 298.9"/><polygon fill="#3F6EFF" points="494.6 299 515.1 299 515.1 297.7 494.6 297.7"/><polygon fill="#3E6FFF" points="494.6 297.8 515.1 297.8 515.1 296.2 494.6 296.2"/><polygon fill="#3D71FF" points="494.6 296.3 515.1 296.3 515.1 293.5 494.6 293.5"/><polygon fill="#3A74FE" points="494.6 293.6 515.1 293.6 515.1 292.3 494.6 292.3"/><polygon fill="#3875FE" points="494.6 292.4 515.1 292.4 515.1 290.9 494.6 290.9"/><polygon fill="#3777FE" points="494.6 291 515.1 291 515.1 288.2 494.6 288.2"/><polygon fill="#347AFD" points="494.6 288.3 515.1 288.3 515.1 286.8 494.6 286.8"/><polygon fill="#327CFC" points="494.6 286.9 515.1 286.9 515.1 285.5 494.6 285.5"/><polygon fill="#317DFC" points="494.6 285.6 515.1 285.6 515.1 282.9 494.6 282.9"/><polygon fill="#3080FA" points="494.6 283 515.1 283 515.1 281.4 494.6 281.4"/><polygon fill="#2F81FA" points="494.6 281.5 515.1 281.5 515.1 280.2 494.6 280.2"/><polygon fill="#2E83F9" points="494.6 280.3 515.1 280.3 515.1 277.5 494.6 277.5"/><polygon fill="#2E85F8" points="494.6 277.6 515.1 277.6 515.1 276 494.6 276"/><polygon fill="#2E87F7" points="494.6 276.1 515.1 276.1 515.1 274.8 494.6 274.8"/><polygon fill="#2D88F6" points="494.6 274.9 515.1 274.9 515.1 272.2 494.6 272.2"/><polygon fill="#2D8BF4" points="494.6 272.3 515.1 272.3 515.1 270.5 494.6 270.5"/><polygon fill="#2D8CF3" points="494.6 270.6 515.1 270.6 515.1 269.5 494.6 269.5"/><polygon fill="#2D8DF2" points="494.6 269.6 515.1 269.6 515.1 266.8 494.6 266.8"/><polygon fill="#2C90F0" points="494.6 266.9 515.1 266.9 515.1 265.1 494.6 265.1"/><polygon fill="#2B91EF" points="494.6 265.2 515.1 265.2 515.1 264.1 494.6 264.1"/><polygon fill="#2A92EE" points="494.6 264.2 515.1 264.2 515.1 261.5 494.6 261.5"/><polygon fill="#2895EC" points="494.6 261.6 515.1 261.6 515.1 259.7 494.6 259.7"/><polygon fill="#2797EB" points="494.6 259.8 515.1 259.8 515.1 258.8 494.6 258.8"/><polygon fill="#2797EA" points="494.6 258.9 515.1 258.9 515.1 256.1 494.6 256.1"/><polygon fill="#269AE9" points="494.6 256.2 515.1 256.2 515.1 254.3 494.6 254.3"/><polygon fill="#259BE8" points="494.6 254.4 515.1 254.4 515.1 253.4 494.6 253.4"/><polygon fill="#259CE7" points="494.6 253.5 515.1 253.5 515.1 250.8 494.6 250.8"/><polygon fill="#249EE6" points="494.6 250.9 515.1 250.9 515.1 248.8 494.6 248.8"/><polygon fill="#23A0E5" points="494.6 248.9 515.1 248.9 515.1 248.1 494.6 248.1"/><polygon fill="#23A1E4" points="494.6 248.2 515.1 248.2 515.1 245.4 494.6 245.4"/><polygon fill="#21A3E3" points="494.6 245.5 515.1 245.5 515.1 243.4 494.6 243.4"/><polygon fill="#20A5E3" points="494.6 243.5 515.1 243.5 515.1 242.8 494.6 242.8"/><polygon fill="#1FA5E2" points="494.6 242.9 515.1 242.9 515.1 240.1 494.6 240.1"/><polygon fill="#1EA7E1" points="494.6 240.2 515.1 240.2 515.1 238 494.6 238"/><polygon fill="#1CA9DF" points="494.6 238.1 515.1 238.1 515.1 237.4 494.6 237.4"/><polygon fill="#1CAADF" points="494.6 237.5 515.1 237.5 515.1 234.7 494.6 234.7"/><polygon fill="#1AACDD" points="494.6 234.8 515.1 234.8 515.1 232.5 494.6 232.5"/><polygon fill="#18ADDB" points="494.6 232.6 515.1 232.6 515.1 232.1 494.6 232.1"/><polygon fill="#18AEDB" points="494.6 232.2 515.1 232.2 515.1 229.4 494.6 229.4"/><polygon fill="#14B0D8" points="494.6 229.5 515.1 229.5 515.1 227.1 494.6 227.1"/><polygon fill="#11B1D6" points="494.6 227.2 515.1 227.2 515.1 226.7 494.6 226.7"/><polygon fill="#11B1D6" points="494.6 226.8 515.1 226.8 515.1 224 494.6 224"/><polygon fill="#0CB3D3" points="494.6 224.1 515.1 224.1 515.1 221.7 494.6 221.7"/><polygon fill="#08B5D0" points="494.6 221.8 515.1 221.8 515.1 221.4 494.6 221.4"/><polygon fill="#07B5D0" points="494.6 221.5 515.1 221.5 515.1 218.7 494.6 218.7"/><polygon fill="#04B6CD" points="494.6 218.8 515.1 218.8 515.1 216.2 494.6 216.2"/><polygon fill="#01B8CA" points="494.6 216.3 515.1 216.3 515.1 216 494.6 216"/><polygon fill="#01B8CA" points="494.6 216.1 515.1 216.1 515.1 213.3 494.6 213.3"/><polygon fill="#01B9C6" points="494.6 213.4 515.1 213.4 515.1 210.8 494.6 210.8"/><polygon fill="#02BAC3" points="494.6 210.9 515.1 210.9 515.1 210.7 494.6 210.7"/><polygon fill="#02BBC3" points="494.6 210.8 515.1 210.8 515.1 208 494.6 208"/><polygon fill="#07BCC0" points="494.6 208.1 515.1 208.1 515.1 205.4 494.6 205.4"/><polygon fill="#0BBDBD" points="494.6 205.5 515.1 205.5 515.1 205.3 494.6 205.3"/><polygon fill="#0BBDBC" points="494.6 205.4 515.1 205.4 515.1 202.6 494.6 202.6"/><polygon fill="#12BEB9" points="494.6 202.7 515.1 202.7 515.1 200 494.6 200"/><polygon fill="#19BFB6" points="494.6 200.1 515.1 200.1 515.1 199.9 494.6 199.9"/><polygon fill="#19BFB5" points="494.6 200 515.1 200 515.1 197.3 494.6 197.3"/><polygon fill="#1EC0B2" points="494.6 197.4 515.1 197.4 515.1 194.6 494.6 194.6"/><polygon fill="#24C1AF" points="494.6 194.7 515.1 194.7 515.1 194.5 494.6 194.5"/><polygon fill="#24C1AE" points="494.6 194.6 515.1 194.6 515.1 192 494.6 192"/><polygon fill="#28C2AB" points="494.6 192.1 515.1 192.1 515.1 189.3 494.6 189.3"/><polygon fill="#2CC4A7" points="494.6 189.4 515.1 189.4 515.1 189.1 494.6 189.1"/><polygon fill="#2CC4A7" points="494.6 189.2 515.1 189.2 515.1 186.6 494.6 186.6"/><polygon fill="#2EC5A4" points="494.6 186.7 515.1 186.7 515.1 183.9 494.6 183.9"/><polygon fill="#31C6A0" points="494.6 184 515.1 184 515.1 183.6 494.6 183.6"/><polygon fill="#32C69F" points="494.6 183.7 515.1 183.7 515.1 181.3 494.6 181.3"/><polygon fill="#34C79C" points="494.6 181.4 515.1 181.4 515.1 178.6 494.6 178.6"/><polygon fill="#37C898" points="494.6 178.7 515.1 178.7 515.1 178.2 494.6 178.2"/><polygon fill="#37C897" points="494.6 178.3 515.1 178.3 515.1 175.9 494.6 175.9"/><polygon fill="#3BC993" points="494.6 176 515.1 176 515.1 173.2 494.6 173.2"/><polygon fill="#3ECA8F" points="494.6 173.3 515.1 173.3 515.1 172.8 494.6 172.8"/><polygon fill="#3FCA8E" points="494.6 172.9 515.1 172.9 515.1 170.6 494.6 170.6"/><polygon fill="#44CA8A" points="494.6 170.7 515.1 170.7 515.1 167.9 494.6 167.9"/><polygon fill="#49CB85" points="494.6 168 515.1 168 515.1 167.3 494.6 167.3"/><polygon fill="#4ACB84" points="494.6 167.4 515.1 167.4 515.1 165.2 494.6 165.2"/><polygon fill="#4FCC80" points="494.6 165.3 515.1 165.3 515.1 162.5 494.6 162.5"/><polygon fill="#56CC7B" points="494.6 162.6 515.1 162.6 515.1 161.9 494.6 161.9"/><polygon fill="#57CC7A" points="494.6 162 515.1 162 515.1 159.9 494.6 159.9"/><polygon fill="#5CCC76" points="494.6 160 515.1 160 515.1 157.2 494.6 157.2"/><polygon fill="#62CD70" points="494.6 157.3 515.1 157.3 515.1 156.5 494.6 156.5"/><polygon fill="#64CD6F" points="494.6 156.6 515.1 156.6 515.1 154.5 494.6 154.5"/><polygon fill="#69CD6B" points="494.6 154.6 515.1 154.6 515.1 151.9 494.6 151.9"/><polygon fill="#70CD65" points="494.6 152 515.1 152 515.1 151 494.6 151"/><polygon fill="#72CD63" points="494.6 151.1 515.1 151.1 515.1 149.2 494.6 149.2"/><polygon fill="#77CC60" points="494.6 149.3 515.1 149.3 515.1 146.5 494.6 146.5"/><polygon fill="#7ECC5A" points="494.6 146.6 515.1 146.6 515.1 145.6 494.6 145.6"/><polygon fill="#81CC59" points="494.6 145.7 515.1 145.7 515.1 143.8 494.6 143.8"/><polygon fill="#86CB55" points="494.6 143.9 515.1 143.9 515.1 141.2 494.6 141.2"/><polygon fill="#8DCB50" points="494.6 141.3 515.1 141.3 515.1 140.2 494.6 140.2"/><polygon fill="#8FCB4E" points="494.6 140.3 515.1 140.3 515.1 138.5 494.6 138.5"/><polygon fill="#94CA4A" points="494.6 138.6 515.1 138.6 515.1 135.8 494.6 135.8"/><polygon fill="#9BC945" points="494.6 135.9 515.1 135.9 515.1 134.8 494.6 134.8"/><polygon fill="#9DC943" points="494.6 134.9 515.1 134.9 515.1 133.1 494.6 133.1"/><polygon fill="#A2C840" points="494.6 133.2 515.1 133.2 515.1 130.5 494.6 130.5"/><polygon fill="#A8C73B" points="494.6 130.6 515.1 130.6 515.1 129.3 494.6 129.3"/><polygon fill="#ACC739" points="494.6 129.4 515.1 129.4 515.1 127.8 494.6 127.8"/><polygon fill="#AFC636" points="494.6 127.9 515.1 127.9 515.1 125.1 494.6 125.1"/><polygon fill="#B6C532" points="494.6 125.2 515.1 125.2 515.1 123.9 494.6 123.9"/><polygon fill="#B9C431" points="494.6 124 515.1 124 515.1 122.4 494.6 122.4"/><polygon fill="#BCC42F" points="494.6 122.5 515.1 122.5 515.1 119.8 494.6 119.8"/><polygon fill="#C2C22C" points="494.6 119.9 515.1 119.9 515.1 118.5 494.6 118.5"/><polygon fill="#C5C22A" points="494.6 118.6 515.1 118.6 515.1 117.1 494.6 117.1"/><polygon fill="#C8C129" points="494.6 117.2 515.1 117.2 515.1 114.4 494.6 114.4"/><polygon fill="#CEC028" points="494.6 114.5 515.1 114.5 515.1 113 494.6 113"/><polygon fill="#D1BF27" points="494.6 113.1 515.1 113.1 515.1 111.8 494.6 111.8"/><polygon fill="#D4BF28" points="494.6 111.9 515.1 111.9 515.1 109.1 494.6 109.1"/><polygon fill="#D9BD28" points="494.6 109.2 515.1 109.2 515.1 107.6 494.6 107.6"/><polygon fill="#DCBD29" points="494.6 107.7 515.1 107.7 515.1 106.4 494.6 106.4"/><polygon fill="#DFBC2A" points="494.6 106.5 515.1 106.5 515.1 103.7 494.6 103.7"/><polygon fill="#E4BB2C" points="494.6 103.8 515.1 103.8 515.1 102.2 494.6 102.2"/><polygon fill="#E6BB2D" points="494.6 102.3 515.1 102.3 515.1 101.1 494.6 101.1"/><polygon fill="#E8BB2F" points="494.6 101.2 515.1 101.2 515.1 98.4 494.6 98.4"/><polygon fill="#EDBA33" points="494.6 98.5 515.1 98.5 515.1 96.7 494.6 96.7"/><polygon fill="#F0BA36" points="494.6 96.8 515.1 96.8 515.1 95.7 494.6 95.7"/><polygon fill="#F1BA37" points="494.6 95.8 515.1 95.8 515.1 93 494.6 93"/><polygon fill="#F5BA3B" points="494.6 93.1 515.1 93.1 515.1 91.3 494.6 91.3"/><polygon fill="#F8BA3D" points="494.6 91.4 515.1 91.4 515.1 90.4 494.6 90.4"/><polygon fill="#F9BB3D" points="494.6 90.5 515.1 90.5 515.1 87.7 494.6 87.7"/><polygon fill="#FCBC3D" points="494.6 87.8 515.1 87.8 515.1 85.9 494.6 85.9"/><polygon fill="#FEBE3C" points="494.6 86 515.1 86 515.1 85 494.6 85"/><polygon fill="#FEBF3C" points="494.6 85.1 515.1 85.1 515.1 82.3 494.6 82.3"/><polygon fill="#FEC13A" points="494.6 82.4 515.1 82.4 515.1 80.4 494.6 80.4"/><polygon fill="#FEC338" points="494.6 80.5 515.1 80.5 515.1 79.7 494.6 79.7"/><polygon fill="#FEC437" points="494.6 79.8 515.1 79.8 515.1 77 494.6 77"/><polygon fill="#FEC735" points="494.6 77.1 515.1 77.1 515.1 75 494.6 75"/><polygon fill="#FEC934" points="494.6 75.1 515.1 75.1 515.1 74.3 494.6 74.3"/><polygon fill="#FECA33" points="494.6 74.4 515.1 74.4 515.1 71.7 494.6 71.7"/><polygon fill="#FDCD31" points="494.6 71.8 515.1 71.8 515.1 69.6 494.6 69.6"/><polygon fill="#FCCF30" points="494.6 69.7 515.1 69.7 515.1 69 494.6 69"/><polygon fill="#FCD030" points="494.6 69.1 515.1 69.1 515.1 66.3 494.6 66.3"/><polygon fill="#FBD32E" points="494.6 66.4 515.1 66.4 515.1 64.1 494.6 64.1"/><polygon fill="#FAD62D" points="494.6 64.2 515.1 64.2 515.1 63.6 494.6 63.6"/><polygon fill="#F9D72D" points="494.6 63.7 515.1 63.7 515.1 61 494.6 61"/><polygon fill="#F8DA2B" points="494.6 61.1 515.1 61.1 515.1 58.7 494.6 58.7"/><polygon fill="#F7DC2A" points="494.6 58.8 515.1 58.8 515.1 58.3 494.6 58.3"/><polygon fill="#F7DD2A" points="494.6 58.4 515.1 58.4 515.1 55.6 494.6 55.6"/><polygon fill="#F6E028" points="494.6 55.7 515.1 55.7 515.1 53.3 494.6 53.3"/><polygon fill="#F5E327" points="494.6 53.4 515.1 53.4 515.1 52.9 494.6 52.9"/><polygon fill="#F5E327" points="494.6 53 515.1 53 515.1 50.3 494.6 50.3"/><polygon fill="#F5E626" points="494.6 50.4 515.1 50.4 515.1 47.8 494.6 47.8"/><polygon fill="#F5E924" points="494.6 47.9 515.1 47.9 515.1 47.6 494.6 47.6"/><polygon fill="#F5E924" points="494.6 47.7 515.1 47.7 515.1 44.9 494.6 44.9"/><polygon fill="#F5EC22" points="494.6 45 515.1 45 515.1 42.4 494.6 42.4"/><polygon fill="#F6EF20" points="494.6 42.5 515.1 42.5 515.1 42.2 494.6 42.2"/><polygon fill="#F6EF20" points="494.6 42.3 515.1 42.3 515.1 39.6 494.6 39.6"/><polygon fill="#F6F21E" points="494.6 39.7 515.1 39.7 515.1 37 494.6 37"/><polygon fill="#F7F51B" points="494.6 37.1 515.1 37.1 515.1 36.9 494.6 36.9"/><polygon fill="#F7F51B" points="494.6 37 515.1 37 515.1 34.2 494.6 34.2"/><polygon fill="#F8F818" points="494.6 34.3 515.1 34.3 515.1 31.6 494.6 31.6"/></g></g><g fill="none" stroke="currentColor" stroke-linecap="butt" stroke-linejoin="miter" stroke-width=".5" color="#000"><path stroke="#000" d="M494.6,373.8 L515.1,373.8 L515.1,31.6 L494.6,31.6 L494.6,373.8 Z"/></g><g fill="none" stroke="currentColor" stroke-linecap="butt" stroke-linejoin="miter" stroke-width=".5" color="#000"><path stroke="#000" d="M515.1,373.8 L509.5,373.8"/><g fill="#262626" stroke="none" font-family="Helvetica" font-size="10" text-anchor="start"><text transform="translate(522.1,377.1)"><tspan font-family="Helvetica">0.99</tspan></text></g></g><g fill="none" stroke="currentColor" stroke-linecap="butt" stroke-linejoin="miter" stroke-width=".5" color="#000"><path stroke="#000" d="M515.1,288.3 L509.5,288.3"/><g fill="#262626" stroke="none" font-family="Helvetica" font-size="10" text-anchor="start"><text transform="translate(522.1,291.6)"><tspan font-family="Helvetica">0.995</tspan></text></g></g><g fill="none" stroke="currentColor" stroke-linecap="butt" stroke-linejoin="miter" stroke-width=".5" color="#000"><path stroke="#000" d="M515.1,202.7 L509.5,202.7"/><g fill="#262626" stroke="none" font-family="Helvetica" font-size="10" text-anchor="start"><text transform="translate(522.1,206.0)"><tspan font-family="Helvetica">1</tspan></text></g></g><g fill="none" stroke="currentColor" stroke-linecap="butt" stroke-linejoin="miter" stroke-width=".5" color="#000"><path stroke="#000" d="M515.1,117.2 L509.5,117.2"/><g fill="#262626" stroke="none" font-family="Helvetica" font-size="10" text-anchor="start"><text transform="translate(522.1,120.5)"><tspan font-family="Helvetica">1.005</tspan></text></g></g><g fill="none" stroke="currentColor" stroke-linecap="butt" stroke-linejoin="miter" stroke-width=".5" color="#000"><path stroke="#000" d="M515.1,31.7 L509.5,31.7"/><g fill="#262626" stroke="none" font-family="Helvetica" font-size="10" text-anchor="start"><text transform="translate(522.1,35.0)"><tspan font-family="Helvetica">1.01</tspan></text></g></g></g></svg>