<svg xmlns="http://www.w3.org/2000/svg" xmlns:xlink="http://www.w3.org/1999/xlink" width="560" height="420" viewBox="0 0 560 420"><title>Gnuplot</title><desc>Produced by GNUPLOT 5.4 patchlevel 0</desc><g id="gnuplot_canvas"><rect width="560" height="420" x="0" y="0" fill="none"/><defs><circle id="gpDot" r=".5" stroke="currentColor" stroke-width=".5"/><path id="gpPt0" stroke="currentColor" stroke-width=".267" d="M-1,0 h2 M0,-1 v2"/><path id="gpPt1" stroke="currentColor" stroke-width=".267" d="M-1,-1 L1,1 M1,-1 L-1,1"/><path id="gpPt2" stroke="currentColor" stroke-width=".267" d="M-1,0 L1,0 M0,-1 L0,1 M-1,-1 L1,1 M-1,1 L1,-1"/><rect id="gpPt3" width="2" height="2" x="-1" y="-1" stroke="currentColor" stroke-width=".267"/><rect id="gpPt4" width="2" height="2" x="-1" y="-1" fill="currentColor" stroke="currentColor" stroke-width=".267"/><circle id="gpPt5" cx="0" cy="0" r="1" stroke="currentColor" stroke-width=".267"/><use id="gpPt6" fill="currentColor" stroke="none" xlink:href="#gpPt5"/><path id="gpPt7" stroke="currentColor" stroke-width=".267" d="M0,-1.33 L-1.33,0.67 L1.33,0.67 z"/><use id="gpPt8" fill="currentColor" stroke="none" xlink:href="#gpPt7"/><use id="gpPt9" stroke="currentColor" transform="rotate(180)" xlink:href="#gpPt7"/><use id="gpPt10" fill="currentColor" stroke="none" xlink:href="#gpPt9"/><use id="gpPt11" stroke="currentColor" transform="rotate(45)" xlink:href="#gpPt3"/><use id="gpPt12" fill="currentColor" stroke="none" xlink:href="#gpPt11"/><path id="gpPt13" stroke="currentColor" stroke-width=".267" d="M0,1.330 L1.265,0.411 L0.782,-1.067 L-0.782,-1.076 L-1.265,0.411 z"/><use id="gpPt14" fill="currentColor" stroke="none" xlink:href="#gpPt13"/><filter id="textbox" width="1" height="1" x="0" y="0" filterUnits="objectBoundingBox"><feFlood flood-color="#fff" flood-opacity="1" result="bgnd"/><feComposite in="SourceGraphic" in2="bgnd" operator="atop"/></filter><filter id="greybox" width="1" height="1" x="0" y="0" filterUnits="objectBoundingBox"><feFlood flood-color="#d3d3d3" flood-opacity="1" result="grey"/><feComposite in="SourceGraphic" in2="grey" operator="atop"/></filter></defs><g id="gnuplot_plot_1a"><title>&apos;-&apos;</title><g fill="none" stroke="currentColor" stroke-linecap="butt" stroke-linejoin="miter" stroke-width="2" color="#000"><g stroke="none" shape-rendering="crispEdges"><polygon fill="#9400D3" points="281.8 77.7 274.2 77.9 266.7 78.5 259.2 79.5 251.7 80.9 244.4 82.7 237.1 84.8 230 87.3 223 90.2 216.2 93.5 209.6 97.1 203.1 101 196.9 105.3 190.9 109.9 185.1 114.8 179.6 120 174.4 125.5 169.5 131.3 164.9 137.3 160.6 143.5 155.2 152.6 281.8 222.1"/></g><path stroke="#000" d="M281.8,77.7 L274.2,77.9 L266.7,78.5 L259.2,79.5 L251.7,80.9 L244.4,82.7 L237.1,84.8 L230.0,87.3 L223.0,90.2 L216.2,93.5 L209.6,97.1 L203.1,101.0 L196.9,105.3 L190.9,109.9 L185.1,114.8 L179.6,120.0 L174.4,125.5 L169.5,131.3 L164.9,137.3 L160.6,143.5 L155.2,152.6 L281.8,222.1 L281.8,77.7 Z"/><g stroke="none" shape-rendering="crispEdges"><polygon fill="#009E73" points="142.8 159.9 139.3 166.6 136.2 173.5 133.5 180.5 131.1 187.7 129.1 195 127.5 202.4 126.3 209.9 125.5 217.4 125 224.9 125 232.5 125.3 240 126.1 247.5 127.2 255 128.8 262.4 130.7 269.7 133 276.9 135.7 284 138.7 290.9 142.1 297.7 145.8 304.3 149.9 310.6 154.3 316.8 159.1 322.7 164.1 328.3 169.4 333.7 175 338.8 180.8 343.5 186.9 348 193.3 352.2 199.8 356 206.5 359.5 213.4 362.6 220.4 365.3 227.6 367.7 234.9 369.7 242.3 371.3 249.8 372.5 257.3 373.3 269.3 373.8 269.4 229.4"/></g><path stroke="#000" d="M142.8,159.9 L139.3,166.6 L136.2,173.5 L133.5,180.5 L131.1,187.7 L129.1,195.0 L127.5,202.4 L126.3,209.9 L125.5,217.4 L125.0,224.9 L125.0,232.5 L125.3,240.0 L126.1,247.5 L127.2,255.0 L128.8,262.4 L130.7,269.7 L133.0,276.9 L135.7,284.0 L138.7,290.9 L142.1,297.7 L145.8,304.3 L149.9,310.6 L154.3,316.8 L159.1,322.7 L164.1,328.3 L169.4,333.7 L175.0,338.8 L180.8,343.5 L186.9,348.0 L193.3,352.2 L199.8,356.0 L206.5,359.5 L213.4,362.6 L220.4,365.3 L227.6,367.7 L234.9,369.7 L242.3,371.3 L249.8,372.5 L257.3,373.3 L269.3,373.8 L269.4,229.4 L142.8,159.9 Z"/><g stroke="none" shape-rendering="crispEdges"><polygon fill="#56B4E9" points="294.1 373.8 301.7 373.7 309.2 373.1 316.7 372.1 324.2 370.7 331.5 368.9 338.8 366.8 345.9 364.3 352.9 361.4 359.7 358.1 366.4 354.5 372.8 350.6 379 346.3 385 341.7 390.8 336.8 396.3 331.6 401.5 326.1 406.4 320.3 411 314.3 415.3 308.1 419.2 301.7 422.8 295 426.1 288.2 429 281.2 431.5 274.1 433.6 266.8 435.4 259.5 436.8 252 437.8 244.5 438.4 237 438.6 229.5 438.4 221.9 437.8 214.4 436.8 206.9 435.4 199.4 433.6 192.1 431.5 184.8 429 177.7 426.1 170.7 420.7 159.9 294.2 229.4"/></g><path stroke="#000" d="M294.1,373.8 L301.7,373.7 L309.2,373.1 L316.7,372.1 L324.2,370.7 L331.5,368.9 L338.8,366.8 L345.9,364.3 L352.9,361.4 L359.7,358.1 L366.4,354.5 L372.8,350.6 L379.0,346.3 L385.0,341.7 L390.8,336.8 L396.3,331.6 L401.5,326.1 L406.4,320.3 L411.0,314.3 L415.3,308.1 L419.2,301.7 L422.8,295.0 L426.1,288.2 L429.0,281.2 L431.5,274.1 L433.6,266.8 L435.4,259.5 L436.8,252.0 L437.8,244.5 L438.4,237.0 L438.6,229.5 L438.4,221.9 L437.8,214.4 L436.8,206.9 L435.4,199.4 L433.6,192.1 L431.5,184.8 L429.0,177.7 L426.1,170.7 L420.7,159.9 L294.2,229.4 L294.1,373.8 Z"/><g stroke="none" shape-rendering="crispEdges"><polygon fill="#E69F00" points="408.3 152.6 404.5 146.1 400.3 139.7 395.8 133.6 391.1 127.8 386 122.2 380.6 116.9 375 111.9 369.1 107.1 362.9 102.7 356.6 98.6 350 94.9 343.2 91.5 336.3 88.5 329.2 85.8 322 83.5 314.7 81.6 307.3 80 299.8 78.9 292.3 78.1 281.8 77.7 281.8 222.1"/></g><path stroke="#000" d="M408.3,152.6 L404.5,146.1 L400.3,139.7 L395.8,133.6 L391.1,127.8 L386.0,122.2 L380.6,116.9 L375.0,111.9 L369.1,107.1 L362.9,102.7 L356.6,98.6 L350.0,94.9 L343.2,91.5 L336.3,88.5 L329.2,85.8 L322.0,83.5 L314.7,81.6 L307.3,80.0 L299.8,78.9 L292.3,78.1 L281.8,77.7 L281.8,222.1 L408.3,152.6 Z"/></g></g><g id="gnuplot_plot_2a"><title>&apos;-&apos;</title><g fill="none" stroke="currentColor" stroke-linecap="butt" stroke-linejoin="miter" stroke-width="1" color="#000"><g fill="#000" stroke="none" font-family="Helvetica" font-size="10" text-anchor="middle"><text transform="translate(186.2,63.8)"><tspan font-family="Helvetica">East (17%)</tspan></text></g><g fill="#000" stroke="none" font-family="Helvetica" font-size="10" text-anchor="middle"><text transform="translate(107.8,328.3)"><tspan font-family="Helvetica">North (33%)</tspan></text></g><g fill="#000" stroke="none" font-family="Helvetica" font-size="10" text-anchor="middle"><text transform="translate(455.8,328.3)"><tspan font-family="Helvetica">South (33%)</tspan></text></g><g fill="#000" stroke="none" font-family="Helvetica" font-size="10" text-anchor="middle"><text transform="translate(377.4,63.8)"><tspan font-family="Helvetica">West (17%)</tspan></text></g></g></g></g></svg>