<svg xmlns="http://www.w3.org/2000/svg" xmlns:xlink="http://www.w3.org/1999/xlink" width="560" height="420" viewBox="0 0 560 420"><title>Gnuplot</title><desc>Produced by GNUPLOT 5.4 patchlevel 0</desc><g id="gnuplot_canvas"><rect width="560" height="420" x="0" y="0" fill="none"/><defs><circle id="gpDot" r=".5" stroke="currentColor" stroke-width=".5"/><path id="gpPt0" stroke="currentColor" stroke-width=".267" d="M-1,0 h2 M0,-1 v2"/><path id="gpPt1" stroke="currentColor" stroke-width=".267" d="M-1,-1 L1,1 M1,-1 L-1,1"/><path id="gpPt2" stroke="currentColor" stroke-width=".267" d="M-1,0 L1,0 M0,-1 L0,1 M-1,-1 L1,1 M-1,1 L1,-1"/><rect id="gpPt3" width="2" height="2" x="-1" y="-1" stroke="currentColor" stroke-width=".267"/><rect id="gpPt4" width="2" height="2" x="-1" y="-1" fill="currentColor" stroke="currentColor" stroke-width=".267"/><circle id="gpPt5" cx="0" cy="0" r="1" stroke="currentColor" stroke-width=".267"/><use id="gpPt6" fill="currentColor" stroke="none" xlink:href="#gpPt5"/><path id="gpPt7" stroke="currentColor" stroke-width=".267" d="M0,-1.33 L-1.33,0.67 L1.33,0.67 z"/><use id="gpPt8" fill="currentColor" stroke="none" xlink:href="#gpPt7"/><use id="gpPt9" stroke="currentColor" transform="rotate(180)" xlink:href="#gpPt7"/><use id="gpPt10" fill="currentColor" stroke="none" xlink:href="#gpPt9"/><use id="gpPt11" stroke="currentColor" transform="rotate(45)" xlink:href="#gpPt3"/><use id="gpPt12" fill="currentColor" stroke="none" xlink:href="#gpPt11"/><path id="gpPt13" stroke="currentColor" stroke-width=".267" d="M0,1.330 L1.265,0.411 L0.782,-1.067 L-0.782,-1.076 L-1.265,0.411 z"/><use id="gpPt14" fill="currentColor" stroke="none" xlink:href="#gpPt13"/><filter id="textbox" width="1" height="1" x="0" y="0" filterUnits="objectBoundingBox"><feFlood flood-color="#fff" flood-opacity="1" result="bgnd"/><feComposite in="SourceGraphic" in2="bgnd" operator="atop"/></filter><filter id="greybox" width="1" height="1" x="0" y="0" filterUnits="objectBoundingBox"><feFlood flood-color="#d3d3d3" flood-opacity="1" result="grey"/><feComposite in="SourceGraphic" in2="grey" operator="atop"/></filter></defs><g id="gnuplot_plot_1a"><title>&apos;-&apos;</title><g fill="none" stroke="currentColor" stroke-linecap="butt" stroke-linejoin="miter" stroke-width="2" color="#000"><g stroke="none" shape-rendering="crispEdges"><polygon fill="#9400D3" points="304.3 81.2 298.1 81.4 291.9 81.9 285.8 82.7 279.7 83.8 273.7 85.3 267.8 87 262 89.1 256.3 91.5 250.7 94.1 245.3 97.1 240 100.3 234.9 103.8 228.4 108.9 304.3 199.2"/></g><path stroke="#000" d="M304.3,81.2 L298.1,81.4 L291.9,81.9 L285.8,82.7 L279.7,83.8 L273.7,85.3 L267.8,87.0 L262.0,89.1 L256.3,91.5 L250.7,94.1 L245.3,97.1 L240.0,100.3 L234.9,103.8 L228.4,108.9 L304.3,199.2 L304.3,81.2 Z"/><g stroke="none" shape-rendering="crispEdges"><polygon fill="#009E73" points="216.8 111 212.2 115.1 207.8 119.4 203.6 123.9 199.7 128.7 196 133.7 192.6 138.8 189.4 144.1 186.6 149.6 184 155.2 181.8 161 179.8 166.9 178.2 172.8 176.8 178.8 175.8 184.9 175.1 191.1 174.7 197.2 174.7 203.4 174.9 209.6 175.5 215.7 176.4 221.8 177.7 227.9 179.2 233.9 181.1 239.8 183.2 245.6 185.7 251.2 188.5 256.7 191.5 262.1 194.8 267.3 198.4 272.4 202.3 277.2 206.4 281.8 210.7 286.2 215.2 290.4 220 294.3 225 298 230.1 301.4 235.4 304.6 240.9 307.4 246.5 310 252.3 312.2 292.7 201.3"/></g><path stroke="#000" d="M216.8,111.0 L212.2,115.1 L207.8,119.4 L203.6,123.9 L199.7,128.7 L196.0,133.7 L192.6,138.8 L189.4,144.1 L186.6,149.6 L184.0,155.2 L181.8,161.0 L179.8,166.9 L178.2,172.8 L176.8,178.8 L175.8,184.9 L175.1,191.1 L174.7,197.2 L174.7,203.4 L174.9,209.6 L175.5,215.7 L176.4,221.8 L177.7,227.9 L179.2,233.9 L181.1,239.8 L183.2,245.6 L185.7,251.2 L188.5,256.7 L191.5,262.1 L194.8,267.3 L198.4,272.4 L202.3,277.2 L206.4,281.8 L210.7,286.2 L215.2,290.4 L220.0,294.3 L225.0,298.0 L230.1,301.4 L235.4,304.6 L240.9,307.4 L246.5,310.0 L252.3,312.2 L292.7,201.3 L216.8,111.0 Z"/><g stroke="none" shape-rendering="crispEdges"><polygon fill="#56B4E9" points="263.9 310.1 269.8 312.1 275.7 313.7 281.7 315.1 287.8 316.1 294 316.8 304.3 317.2 304.3 199.2"/></g><path stroke="#000" d="M263.9,310.1 L269.8,312.1 L275.7,313.7 L281.7,315.1 L287.8,316.1 L294.0,316.8 L304.3,317.2 L304.3,199.2 L263.9,310.1 Z"/><g stroke="none" shape-rendering="crispEdges"><polygon fill="#E69F00" points="313.3 324.7 319.4 324.6 325.6 324.1 331.7 323.3 337.8 322.2 343.8 320.7 349.7 319 355.5 316.9 361.2 314.6 366.8 311.9 372.2 309 377.5 305.7 382.5 302.2 387.4 298.5 392.1 294.5 396.6 290.2 400.9 285.7 404.9 281 408.6 276.1 412.1 271.1 415.4 265.8 418.3 260.4 421 254.8 423.3 249.1 425.4 243.3 427.1 237.4 428.6 231.4 429.7 225.3 430.5 219.2 431 213 431.2 206.9 431 200.7 430.5 194.5 429.4 186.4 313.3 206.8"/></g><path stroke="#000" d="M313.3,324.7 L319.4,324.6 L325.6,324.1 L331.7,323.3 L337.8,322.2 L343.8,320.7 L349.7,319.0 L355.5,316.9 L361.2,314.6 L366.8,311.9 L372.2,309.0 L377.5,305.7 L382.5,302.2 L387.4,298.5 L392.1,294.5 L396.6,290.2 L400.9,285.7 L404.9,281.0 L408.6,276.1 L412.1,271.1 L415.4,265.8 L418.3,260.4 L421.0,254.8 L423.3,249.1 L425.4,243.3 L427.1,237.4 L428.6,231.4 L429.7,225.3 L430.5,219.2 L431.0,213.0 L431.2,206.9 L431.0,200.7 L430.5,194.5 L429.4,186.4 L313.3,206.8 L313.3,324.7 Z"/><g stroke="none" shape-rendering="crispEdges"><polygon fill="#F0E442" points="420.5 178.8 419.2 172.7 417.7 166.7 415.8 160.8 413.7 155 411.2 149.4 408.4 143.9 405.4 138.5 402.1 133.3 398.5 128.2 394.6 123.4 390.5 118.8 386.2 114.4 381.7 110.2 376.9 106.3 371.9 102.6 366.8 99.2 361.5 96 356 93.2 350.4 90.6 344.6 88.4 338.7 86.4 332.8 84.8 326.8 83.4 320.7 82.4 314.5 81.7 304.3 81.2 304.3 199.2"/></g><path stroke="#000" d="M420.5,178.8 L419.2,172.7 L417.7,166.7 L415.8,160.8 L413.7,155.0 L411.2,149.4 L408.4,143.9 L405.4,138.5 L402.1,133.3 L398.5,128.2 L394.6,123.4 L390.5,118.8 L386.2,114.4 L381.7,110.2 L376.9,106.3 L371.9,102.6 L366.8,99.2 L361.5,96.0 L356.0,93.2 L350.4,90.6 L344.6,88.4 L338.7,86.4 L332.8,84.8 L326.8,83.4 L320.7,82.4 L314.5,81.7 L304.3,81.2 L304.3,199.2 L420.5,178.8 Z"/></g></g><g id="gnuplot_plot_2a"><title>&apos;-&apos;</title><g fill="none" stroke="currentColor" stroke-linecap="butt" stroke-linejoin="miter" stroke-width="1" color="#000"><g fill="#000" stroke="none" font-family="Helvetica" font-size="10" text-anchor="middle"><text transform="translate(251.8,58.5)"><tspan font-family="Helvetica">11.11%</tspan></text></g><g fill="#000" stroke="none" font-family="Helvetica" font-size="10" text-anchor="middle"><text transform="translate(141.7,231.2)"><tspan font-family="Helvetica">33.33%</tspan></text></g><g fill="#000" stroke="none" font-family="Helvetica" font-size="10" text-anchor="middle"><text transform="translate(277.6,353.5)"><tspan font-family="Helvetica">5.56%</tspan></text></g><g fill="#000" stroke="none" font-family="Helvetica" font-size="10" text-anchor="middle"><text transform="translate(430.7,308.7)"><tspan font-family="Helvetica">27.78%</tspan></text></g><g fill="#000" stroke="none" font-family="Helvetica" font-size="10" text-anchor="middle"><text transform="translate(402.8,85.1)"><tspan font-family="Helvetica">22.22%</tspan></text></g></g></g></g></svg>