<svg xmlns="http://www.w3.org/2000/svg" xmlns:xlink="http://www.w3.org/1999/xlink" width="560" height="420" viewBox="0 0 560 420"><title>Gnuplot</title><desc>Produced by GNUPLOT 5.4 patchlevel 0</desc><g id="gnuplot_canvas"><rect width="560" height="420" x="0" y="0" fill="none"/><defs><circle id="gpDot" r=".5" stroke="currentColor" stroke-width=".5"/><path id="gpPt0" stroke="currentColor" stroke-width=".267" d="M-1,0 h2 M0,-1 v2"/><path id="gpPt1" stroke="currentColor" stroke-width=".267" d="M-1,-1 L1,1 M1,-1 L-1,1"/><path id="gpPt2" stroke="currentColor" stroke-width=".267" d="M-1,0 L1,0 M0,-1 L0,1 M-1,-1 L1,1 M-1,1 L1,-1"/><rect id="gpPt3" width="2" height="2" x="-1" y="-1" stroke="currentColor" stroke-width=".267"/><rect id="gpPt4" width="2" height="2" x="-1" y="-1" fill="currentColor" stroke="currentColor" stroke-width=".267"/><circle id="gpPt5" cx="0" cy="0" r="1" stroke="currentColor" stroke-width=".267"/><use id="gpPt6" fill="currentColor" stroke="none" xlink:href="#gpPt5"/><path id="gpPt7" stroke="currentColor" stroke-width=".267" d="M0,-1.33 L-1.33,0.67 L1.33,0.67 z"/><use id="gpPt8" fill="currentColor" stroke="none" xlink:href="#gpPt7"/><use id="gpPt9" stroke="currentColor" transform="rotate(180)" xlink:href="#gpPt7"/><use id="gpPt10" fill="currentColor" stroke="none" xlink:href="#gpPt9"/><use id="gpPt11" stroke="currentColor" transform="rotate(45)" xlink:href="#gpPt3"/><use id="gpPt12" fill="currentColor" stroke="none" xlink:href="#gpPt11"/><path id="gpPt13" stroke="currentColor" stroke-width=".267" d="M0,1.330 L1.265,0.411 L0.782,-1.067 L-0.782,-1.076 L-1.265,0.411 z"/><use id="gpPt14" fill="currentColor" stroke="none" xlink:href="#gpPt13"/><filter id="textbox" width="1" height="1" x="0" y="0" filterUnits="objectBoundingBox"><feFlood flood-color="#fff" flood-opacity="1" result="bgnd"/><feComposite in="SourceGraphic" in2="bgnd" operator="atop"/></filter><filter id="greybox" width="1" height="1" x="0" y="0" filterUnits="objectBoundingBox"><feFlood flood-color="#d3d3d3" flood-opacity="1" result="grey"/><feComposite in="SourceGraphic" in2="grey" operator="atop"/></filter></defs><g id="gnuplot_plot_1a"><title>&apos;-&apos;</title><g fill="none" stroke="currentColor" stroke-linecap="butt" stroke-linejoin="miter" stroke-width="2" color="#000"><g stroke="none" shape-rendering="crispEdges"><polygon fill="#9400D3" points="303 81.2 296.8 81.4 290.6 81.9 284.5 82.7 278.4 83.8 272.4 85.3 266.5 87 260.7 89.1 255 91.5 249.4 94.1 244 97.1 238.7 100.3 233.6 103.8 227.1 108.9 303 199.2"/></g><path stroke="#000" d="M303.0,81.2 L296.8,81.4 L290.6,81.9 L284.5,82.7 L278.4,83.8 L272.4,85.3 L266.5,87.0 L260.7,89.1 L255.0,91.5 L249.4,94.1 L244.0,97.1 L238.7,100.3 L233.6,103.8 L227.1,108.9 L303.0,199.2 L303.0,81.2 Z"/><g stroke="none" shape-rendering="crispEdges"><polygon fill="#009E73" points="227.1 108.9 222.5 113 218.1 117.3 213.9 121.8 210 126.6 206.3 131.6 202.9 136.7 199.7 142 196.9 147.5 194.3 153.1 192.1 158.9 190.1 164.8 188.5 170.7 187.1 176.7 186.1 182.8 185.4 189 185 195.1 185 201.3 185.2 207.5 185.8 213.6 186.7 219.7 188 225.8 189.5 231.8 191.4 237.7 193.5 243.5 196 249.1 198.8 254.6 201.8 260 205.1 265.2 208.7 270.3 212.6 275.1 216.7 279.7 221 284.1 225.5 288.3 230.3 292.2 235.3 295.9 240.4 299.3 245.7 302.5 251.2 305.3 256.8 307.9 262.6 310.1 303 199.2"/></g><path stroke="#000" d="M227.1,108.9 L222.5,113.0 L218.1,117.3 L213.9,121.8 L210.0,126.6 L206.3,131.6 L202.9,136.7 L199.7,142.0 L196.9,147.5 L194.3,153.1 L192.1,158.9 L190.1,164.8 L188.5,170.7 L187.1,176.7 L186.1,182.8 L185.4,189.0 L185.0,195.1 L185.0,201.3 L185.2,207.5 L185.8,213.6 L186.7,219.7 L188.0,225.8 L189.5,231.8 L191.4,237.7 L193.5,243.5 L196.0,249.1 L198.8,254.6 L201.8,260.0 L205.1,265.2 L208.7,270.3 L212.6,275.1 L216.7,279.7 L221.0,284.1 L225.5,288.3 L230.3,292.2 L235.3,295.9 L240.4,299.3 L245.7,302.5 L251.2,305.3 L256.8,307.9 L262.6,310.1 L303.0,199.2 L227.1,108.9 Z"/><g stroke="none" shape-rendering="crispEdges"><polygon fill="#56B4E9" points="262.6 310.1 268.5 312.1 274.4 313.7 280.4 315.1 286.5 316.1 292.7 316.8 303 317.2 303 199.2"/></g><path stroke="#000" d="M262.6,310.1 L268.5,312.1 L274.4,313.7 L280.4,315.1 L286.5,316.1 L292.7,316.8 L303.0,317.2 L303.0,199.2 L262.6,310.1 Z"/><g stroke="none" shape-rendering="crispEdges"><polygon fill="#E69F00" points="303 317.2 309.1 317.1 315.3 316.6 321.4 315.8 327.5 314.7 333.5 313.2 339.4 311.5 345.2 309.4 350.9 307 356.5 304.4 362 301.4 367.2 298.2 372.3 294.7 377.2 291 381.9 286.9 386.4 282.7 390.6 278.2 394.7 273.5 398.4 268.6 401.9 263.5 405.1 258.3 408.1 252.8 410.7 247.2 413.1 241.5 415.2 235.7 416.9 229.8 418.4 223.8 419.5 217.7 420.3 211.6 420.8 205.4 421 199.3 420.8 193.1 420.3 186.9 419.2 178.8 303 199.2"/></g><path stroke="#000" d="M303.0,317.2 L309.1,317.1 L315.3,316.6 L321.4,315.8 L327.5,314.7 L333.5,313.2 L339.4,311.5 L345.2,309.4 L350.9,307.0 L356.5,304.4 L362.0,301.4 L367.2,298.2 L372.3,294.7 L377.2,291.0 L381.9,286.9 L386.4,282.7 L390.6,278.2 L394.7,273.5 L398.4,268.6 L401.9,263.5 L405.1,258.3 L408.1,252.8 L410.7,247.2 L413.1,241.5 L415.2,235.7 L416.9,229.8 L418.4,223.8 L419.5,217.7 L420.3,211.6 L420.8,205.4 L421.0,199.3 L420.8,193.1 L420.3,186.9 L419.2,178.8 L303.0,199.2 L303.0,317.2 Z"/><g stroke="none" shape-rendering="crispEdges"><polygon fill="#F0E442" points="419.2 178.8 417.9 172.7 416.4 166.7 414.5 160.8 412.4 155 409.9 149.4 407.1 143.9 404.1 138.5 400.8 133.3 397.2 128.2 393.3 123.4 389.2 118.8 384.9 114.4 380.4 110.2 375.6 106.3 370.6 102.6 365.5 99.2 360.2 96 354.7 93.2 349.1 90.6 343.3 88.4 337.4 86.4 331.5 84.8 325.5 83.4 319.4 82.4 313.2 81.7 303 81.2 303 199.2"/></g><path stroke="#000" d="M419.2,178.8 L417.9,172.7 L416.4,166.7 L414.5,160.8 L412.4,155.0 L409.9,149.4 L407.1,143.9 L404.1,138.5 L400.8,133.3 L397.2,128.2 L393.3,123.4 L389.2,118.8 L384.9,114.4 L380.4,110.2 L375.6,106.3 L370.6,102.6 L365.5,99.2 L360.2,96.0 L354.7,93.2 L349.1,90.6 L343.3,88.4 L337.4,86.4 L331.5,84.8 L325.5,83.4 L319.4,82.4 L313.2,81.7 L303.0,81.2 L303.0,199.2 L419.2,178.8 Z"/></g></g><g id="gnuplot_plot_2a"><title>&apos;-&apos;</title><g fill="none" stroke="currentColor" stroke-linecap="butt" stroke-linejoin="miter" stroke-width="1" color="#000"><g fill="#000" stroke="none" font-family="Helvetica" font-size="10" text-anchor="middle"><text transform="translate(250.5,58.5)"><tspan font-family="Helvetica">11.11%</tspan></text></g><g fill="#000" stroke="none" font-family="Helvetica" font-size="10" text-anchor="middle"><text transform="translate(152.0,229.2)"><tspan font-family="Helvetica">33.33%</tspan></text></g><g fill="#000" stroke="none" font-family="Helvetica" font-size="10" text-anchor="middle"><text transform="translate(276.4,353.5)"><tspan font-family="Helvetica">5.56%</tspan></text></g><g fill="#000" stroke="none" font-family="Helvetica" font-size="10" text-anchor="middle"><text transform="translate(420.4,301.1)"><tspan font-family="Helvetica">27.78%</tspan></text></g><g fill="#000" stroke="none" font-family="Helvetica" font-size="10" text-anchor="middle"><text transform="translate(401.5,85.1)"><tspan font-family="Helvetica">22.22%</tspan></text></g></g></g></g></svg>