<svg xmlns="http://www.w3.org/2000/svg" xmlns:xlink="http://www.w3.org/1999/xlink" width="560" height="420" viewBox="0 0 560 420"><title>Gnuplot</title><desc>Produced by GNUPLOT 5.4 patchlevel 0</desc><g id="gnuplot_canvas"><rect width="560" height="420" x="0" y="0" fill="none"/><defs><circle id="gpDot" r=".5" stroke="currentColor" stroke-width=".5"/><path id="gpPt0" stroke="currentColor" stroke-width=".267" d="M-1,0 h2 M0,-1 v2"/><path id="gpPt1" stroke="currentColor" stroke-width=".267" d="M-1,-1 L1,1 M1,-1 L-1,1"/><path id="gpPt2" stroke="currentColor" stroke-width=".267" d="M-1,0 L1,0 M0,-1 L0,1 M-1,-1 L1,1 M-1,1 L1,-1"/><rect id="gpPt3" width="2" height="2" x="-1" y="-1" stroke="currentColor" stroke-width=".267"/><rect id="gpPt4" width="2" height="2" x="-1" y="-1" fill="currentColor" stroke="currentColor" stroke-width=".267"/><circle id="gpPt5" cx="0" cy="0" r="1" stroke="currentColor" stroke-width=".267"/><use id="gpPt6" fill="currentColor" stroke="none" xlink:href="#gpPt5"/><path id="gpPt7" stroke="currentColor" stroke-width=".267" d="M0,-1.33 L-1.33,0.67 L1.33,0.67 z"/><use id="gpPt8" fill="currentColor" stroke="none" xlink:href="#gpPt7"/><use id="gpPt9" stroke="currentColor" transform="rotate(180)" xlink:href="#gpPt7"/><use id="gpPt10" fill="currentColor" stroke="none" xlink:href="#gpPt9"/><use id="gpPt11" stroke="currentColor" transform="rotate(45)" xlink:href="#gpPt3"/><use id="gpPt12" fill="currentColor" stroke="none" xlink:href="#gpPt11"/><path id="gpPt13" stroke="currentColor" stroke-width=".267" d="M0,1.330 L1.265,0.411 L0.782,-1.067 L-0.782,-1.076 L-1.265,0.411 z"/><use id="gpPt14" fill="currentColor" stroke="none" xlink:href="#gpPt13"/><filter id="textbox" width="1" height="1" x="0" y="0" filterUnits="objectBoundingBox"><feFlood flood-color="#fff" flood-opacity="1" result="bgnd"/><feComposite in="SourceGraphic" in2="bgnd" operator="atop"/></filter><filter id="greybox" width="1" height="1" x="0" y="0" filterUnits="objectBoundingBox"><feFlood flood-color="#d3d3d3" flood-opacity="1" result="grey"/><feComposite in="SourceGraphic" in2="grey" operator="atop"/></filter></defs><g fill="none" stroke="currentColor" stroke-linecap="butt" stroke-linejoin="miter" stroke-width=".5" color="#000"><path stroke="#000" d="M72.8,373.8 L78.4,373.8"/><g fill="#262626" stroke="none" font-family="Helvetica" font-size="10" text-anchor="end"><text transform="translate(65.8,377.1)"><tspan font-family="Helvetica">-2.5</tspan></text></g></g><g fill="none" stroke="currentColor" stroke-linecap="butt" stroke-linejoin="miter" stroke-width=".5" color="#000"><path stroke="#000" d="M72.8,339.6 L78.4,339.6"/><g fill="#262626" stroke="none" font-family="Helvetica" font-size="10" text-anchor="end"><text transform="translate(65.8,342.9)"><tspan font-family="Helvetica">-2</tspan></text></g></g><g fill="none" stroke="currentColor" stroke-linecap="butt" stroke-linejoin="miter" stroke-width=".5" color="#000"><path stroke="#000" d="M72.8,305.4 L78.4,305.4"/><g fill="#262626" stroke="none" font-family="Helvetica" font-size="10" text-anchor="end"><text transform="translate(65.8,308.7)"><tspan font-family="Helvetica">-1.5</tspan></text></g></g><g fill="none" stroke="currentColor" stroke-linecap="butt" stroke-linejoin="miter" stroke-width=".5" color="#000"><path stroke="#000" d="M72.8,271.1 L78.4,271.1"/><g fill="#262626" stroke="none" font-family="Helvetica" font-size="10" text-anchor="end"><text transform="translate(65.8,274.4)"><tspan font-family="Helvetica">-1</tspan></text></g></g><g fill="none" stroke="currentColor" stroke-linecap="butt" stroke-linejoin="miter" stroke-width=".5" color="#000"><path stroke="#000" d="M72.8,236.9 L78.4,236.9"/><g fill="#262626" stroke="none" font-family="Helvetica" font-size="10" text-anchor="end"><text transform="translate(65.8,240.2)"><tspan font-family="Helvetica">-0.5</tspan></text></g></g><g fill="none" stroke="currentColor" stroke-linecap="butt" stroke-linejoin="miter" stroke-width=".5" color="#000"><path stroke="#000" d="M72.8,202.7 L78.4,202.7"/><g fill="#262626" stroke="none" font-family="Helvetica" font-size="10" text-anchor="end"><text transform="translate(65.8,206.0)"><tspan font-family="Helvetica">0</tspan></text></g></g><g fill="none" stroke="currentColor" stroke-linecap="butt" stroke-linejoin="miter" stroke-width=".5" color="#000"><path stroke="#000" d="M72.8,168.5 L78.4,168.5"/><g fill="#262626" stroke="none" font-family="Helvetica" font-size="10" text-anchor="end"><text transform="translate(65.8,171.8)"><tspan font-family="Helvetica">0.5</tspan></text></g></g><g fill="none" stroke="currentColor" stroke-linecap="butt" stroke-linejoin="miter" stroke-width=".5" color="#000"><path stroke="#000" d="M72.8,134.3 L78.4,134.3"/><g fill="#262626" stroke="none" font-family="Helvetica" font-size="10" text-anchor="end"><text transform="translate(65.8,137.6)"><tspan font-family="Helvetica">1</tspan></text></g></g><g fill="none" stroke="currentColor" stroke-linecap="butt" stroke-linejoin="miter" stroke-width=".5" color="#000"><path stroke="#000" d="M72.8,100.0 L78.4,100.0"/><g fill="#262626" stroke="none" font-family="Helvetica" font-size="10" text-anchor="end"><text transform="translate(65.8,103.3)"><tspan font-family="Helvetica">1.5</tspan></text></g></g><g fill="none" stroke="currentColor" stroke-linecap="butt" stroke-linejoin="miter" stroke-width=".5" color="#000"><path stroke="#000" d="M72.8,65.8 L78.4,65.8"/><g fill="#262626" stroke="none" font-family="Helvetica" font-size="10" text-anchor="end"><text transform="translate(65.8,69.1)"><tspan font-family="Helvetica">2</tspan></text></g></g><g fill="none" stroke="currentColor" stroke-linecap="butt" stroke-linejoin="miter" stroke-width=".5" color="#000"><path stroke="#000" d="M72.8,31.6 L78.4,31.6"/><g fill="#262626" stroke="none" font-family="Helvetica" font-size="10" text-anchor="end"><text transform="translate(65.8,34.9)"><tspan font-family="Helvetica">2.5</tspan></text></g></g><g fill="none" stroke="currentColor" stroke-linecap="butt" stroke-linejoin="miter" stroke-width=".5" color="#000"><path stroke="#000" d="M72.8,373.8 L72.8,368.2"/><g fill="#262626" stroke="none" font-family="Helvetica" font-size="10" text-anchor="middle"><text transform="translate(72.8,392.1)"><tspan font-family="Helvetica">-2.5</tspan></text></g></g><g fill="none" stroke="currentColor" stroke-linecap="butt" stroke-linejoin="miter" stroke-width=".5" color="#000"><path stroke="#000" d="M116.2,373.8 L116.2,368.2"/><g fill="#262626" stroke="none" font-family="Helvetica" font-size="10" text-anchor="middle"><text transform="translate(116.2,392.1)"><tspan font-family="Helvetica">-2</tspan></text></g></g><g fill="none" stroke="currentColor" stroke-linecap="butt" stroke-linejoin="miter" stroke-width=".5" color="#000"><path stroke="#000" d="M159.6,373.8 L159.6,368.2"/><g fill="#262626" stroke="none" font-family="Helvetica" font-size="10" text-anchor="middle"><text transform="translate(159.6,392.1)"><tspan font-family="Helvetica">-1.5</tspan></text></g></g><g fill="none" stroke="currentColor" stroke-linecap="butt" stroke-linejoin="miter" stroke-width=".5" color="#000"><path stroke="#000" d="M203.0,373.8 L203.0,368.2"/><g fill="#262626" stroke="none" font-family="Helvetica" font-size="10" text-anchor="middle"><text transform="translate(203.0,392.1)"><tspan font-family="Helvetica">-1</tspan></text></g></g><g fill="none" stroke="currentColor" stroke-linecap="butt" stroke-linejoin="miter" stroke-width=".5" color="#000"><path stroke="#000" d="M246.4,373.8 L246.4,368.2"/><g fill="#262626" stroke="none" font-family="Helvetica" font-size="10" text-anchor="middle"><text transform="translate(246.4,392.1)"><tspan font-family="Helvetica">-0.5</tspan></text></g></g><g fill="none" stroke="currentColor" stroke-linecap="butt" stroke-linejoin="miter" stroke-width=".5" color="#000"><path stroke="#000" d="M289.8,373.8 L289.8,368.2"/><g fill="#262626" stroke="none" font-family="Helvetica" font-size="10" text-anchor="middle"><text transform="translate(289.8,392.1)"><tspan font-family="Helvetica">0</tspan></text></g></g><g fill="none" stroke="currentColor" stroke-linecap="butt" stroke-linejoin="miter" stroke-width=".5" color="#000"><path stroke="#000" d="M333.1,373.8 L333.1,368.2"/><g fill="#262626" stroke="none" font-family="Helvetica" font-size="10" text-anchor="middle"><text transform="translate(333.1,392.1)"><tspan font-family="Helvetica">0.5</tspan></text></g></g><g fill="none" stroke="currentColor" stroke-linecap="butt" stroke-linejoin="miter" stroke-width=".5" color="#000"><path stroke="#000" d="M376.5,373.8 L376.5,368.2"/><g fill="#262626" stroke="none" font-family="Helvetica" font-size="10" text-anchor="middle"><text transform="translate(376.5,392.1)"><tspan font-family="Helvetica">1</tspan></text></g></g><g fill="none" stroke="currentColor" stroke-linecap="butt" stroke-linejoin="miter" stroke-width=".5" color="#000"><path stroke="#000" d="M419.9,373.8 L419.9,368.2"/><g fill="#262626" stroke="none" font-family="Helvetica" font-size="10" text-anchor="middle"><text transform="translate(419.9,392.1)"><tspan font-family="Helvetica">1.5</tspan></text></g></g><g fill="none" stroke="currentColor" stroke-linecap="butt" stroke-linejoin="miter" stroke-width=".5" color="#000"><path stroke="#000" d="M463.3,373.8 L463.3,368.2"/><g fill="#262626" stroke="none" font-family="Helvetica" font-size="10" text-anchor="middle"><text transform="translate(463.3,392.1)"><tspan font-family="Helvetica">2</tspan></text></g></g><g fill="none" stroke="currentColor" stroke-linecap="butt" stroke-linejoin="miter" stroke-width=".5" color="#000"><path stroke="#000" d="M506.7,373.8 L506.7,368.2"/><g fill="#262626" stroke="none" font-family="Helvetica" font-size="10" text-anchor="middle"><text transform="translate(506.7,392.1)"><tspan font-family="Helvetica">2.5</tspan></text></g></g><g fill="none" stroke="currentColor" stroke-linecap="butt" stroke-linejoin="miter" stroke-width=".5" color="#000"><path stroke="#000" d="M72.8,31.6 L72.8,373.8 L506.7,373.8 L506.7,31.6 L72.8,31.6 Z"/></g><g id="gnuplot_plot_1a"><title>&apos;-&apos;</title><g fill="none" stroke="currentColor" stroke-linecap="butt" stroke-linejoin="miter" stroke-width="1" color="#000"><use color="#0071BC" transform="translate(293.4,220.6) scale(3.75)" xlink:href="#gpPt5"/><use color="#0071BC" transform="translate(263.3,149.7) scale(3.75)" xlink:href="#gpPt5"/><use color="#0071BC" transform="translate(243.3,314.8) scale(3.75)" xlink:href="#gpPt5"/><use color="#0071BC" transform="translate(251.6,344.9) scale(3.75)" xlink:href="#gpPt5"/><use color="#0071BC" transform="translate(312.4,104.2) scale(3.75)" xlink:href="#gpPt5"/><use color="#0071BC" transform="translate(258.2,267.4) scale(3.75)" xlink:href="#gpPt5"/><use color="#0071BC" transform="translate(288.0,137.7) scale(3.75)" xlink:href="#gpPt5"/><use color="#0071BC" transform="translate(121.8,259.0) scale(3.75)" xlink:href="#gpPt5"/><use color="#0071BC" transform="translate(259.0,263.9) scale(3.75)" xlink:href="#gpPt5"/><use color="#0071BC" transform="translate(295.5,273.3) scale(3.75)" xlink:href="#gpPt5"/><use color="#0071BC" transform="translate(242.6,267.8) scale(3.75)" xlink:href="#gpPt5"/><use color="#0071BC" transform="translate(210.2,287.0) scale(3.75)" xlink:href="#gpPt5"/><use color="#0071BC" transform="translate(340.8,266.7) scale(3.75)" xlink:href="#gpPt5"/><use color="#0071BC" transform="translate(232.4,98.1) scale(3.75)" xlink:href="#gpPt5"/><use color="#0071BC" transform="translate(201.2,308.8) scale(3.75)" xlink:href="#gpPt5"/><use color="#0071BC" transform="translate(405.3,215.3) scale(3.75)" xlink:href="#gpPt5"/><use color="#0071BC" transform="translate(289.2,104.1) scale(3.75)" xlink:href="#gpPt5"/><use color="#0071BC" transform="translate(264.2,311.4) scale(3.75)" xlink:href="#gpPt5"/><use color="#0071BC" transform="translate(234.5,209.6) scale(3.75)" xlink:href="#gpPt5"/><use color="#0071BC" transform="translate(409.7,62.5) scale(3.75)" xlink:href="#gpPt5"/><use color="#0071BC" transform="translate(459.9,165.7) scale(3.75)" xlink:href="#gpPt5"/><use color="#0071BC" transform="translate(325.1,178.3) scale(3.75)" xlink:href="#gpPt5"/><use color="#0071BC" transform="translate(185.5,201.9) scale(3.75)" xlink:href="#gpPt5"/><use color="#0071BC" transform="translate(168.9,228.8) scale(3.75)" xlink:href="#gpPt5"/><use color="#0071BC" transform="translate(214.2,193.5) scale(3.75)" xlink:href="#gpPt5"/><use color="#0071BC" transform="translate(343.7,260.0) scale(3.75)" xlink:href="#gpPt5"/><use color="#0071BC" transform="translate(316.3,262.8) scale(3.75)" xlink:href="#gpPt5"/><use color="#0071BC" transform="translate(212.9,195.2) scale(3.75)" xlink:href="#gpPt5"/><use color="#0071BC" transform="translate(356.8,272.6) scale(3.75)" xlink:href="#gpPt5"/><use color="#0071BC" transform="translate(80.6,230.7) scale(3.75)" xlink:href="#gpPt5"/><use color="#0071BC" transform="translate(167.4,324.5) scale(3.75)" xlink:href="#gpPt5"/><use color="#0071BC" transform="translate(353.5,209.8) scale(3.75)" xlink:href="#gpPt5"/><use color="#0071BC" transform="translate(264.9,243.1) scale(3.75)" xlink:href="#gpPt5"/><use color="#0071BC" transform="translate(197.3,154.4) scale(3.75)" xlink:href="#gpPt5"/><use color="#0071BC" transform="translate(205.6,178.1) scale(3.75)" xlink:href="#gpPt5"/><use color="#0071BC" transform="translate(237.9,236.4) scale(3.75)" xlink:href="#gpPt5"/><use color="#0071BC" transform="translate(153.6,93.2) scale(3.75)" xlink:href="#gpPt5"/><use color="#0071BC" transform="translate(270.8,249.1) scale(3.75)" xlink:href="#gpPt5"/><use color="#0071BC" transform="translate(108.5,97.7) scale(3.75)" xlink:href="#gpPt5"/><use color="#0071BC" transform="translate(241.1,180.7) scale(3.75)" xlink:href="#gpPt5"/><use color="#0071BC" transform="translate(182.4,146.8) scale(3.75)" xlink:href="#gpPt5"/><use color="#0071BC" transform="translate(300.9,171.6) scale(3.75)" xlink:href="#gpPt5"/><use color="#0071BC" transform="translate(248.4,162.7) scale(3.75)" xlink:href="#gpPt5"/><use color="#0071BC" transform="translate(499.8,176.4) scale(3.75)" xlink:href="#gpPt5"/><use color="#0071BC" transform="translate(263.9,246.7) scale(3.75)" xlink:href="#gpPt5"/><use color="#0071BC" transform="translate(336.6,254.8) scale(3.75)" xlink:href="#gpPt5"/><use color="#0071BC" transform="translate(186.1,321.8) scale(3.75)" xlink:href="#gpPt5"/><use color="#0071BC" transform="translate(319.1,183.7) scale(3.75)" xlink:href="#gpPt5"/><use color="#0071BC" transform="translate(124.5,183.5) scale(3.75)" xlink:href="#gpPt5"/><use color="#0071BC" transform="translate(354.9,245.6) scale(3.75)" xlink:href="#gpPt5"/></g></g><g fill="none" stroke="currentColor" stroke-linecap="butt" stroke-linejoin="miter" stroke-width=".5" color="#000"><path stroke="#000" d="M72.8,31.6 L72.8,373.8 L506.7,373.8 L506.7,31.6 L72.8,31.6 Z"/></g></g></svg>