<svg xmlns="http://www.w3.org/2000/svg" xmlns:xlink="http://www.w3.org/1999/xlink" width="560" height="420" viewBox="0 0 560 420"><title>Gnuplot</title><desc>Produced by GNUPLOT 5.4 patchlevel 0</desc><g id="gnuplot_canvas"><rect width="560" height="420" x="0" y="0" fill="none"/><defs><circle id="gpDot" r=".5" stroke="currentColor" stroke-width=".5"/><path id="gpPt0" stroke="currentColor" stroke-width=".267" d="M-1,0 h2 M0,-1 v2"/><path id="gpPt1" stroke="currentColor" stroke-width=".267" d="M-1,-1 L1,1 M1,-1 L-1,1"/><path id="gpPt2" stroke="currentColor" stroke-width=".267" d="M-1,0 L1,0 M0,-1 L0,1 M-1,-1 L1,1 M-1,1 L1,-1"/><rect id="gpPt3" width="2" height="2" x="-1" y="-1" stroke="currentColor" stroke-width=".267"/><rect id="gpPt4" width="2" height="2" x="-1" y="-1" fill="currentColor" stroke="currentColor" stroke-width=".267"/><circle id="gpPt5" cx="0" cy="0" r="1" stroke="currentColor" stroke-width=".267"/><use id="gpPt6" fill="currentColor" stroke="none" xlink:href="#gpPt5"/><path id="gpPt7" stroke="currentColor" stroke-width=".267" d="M0,-1.33 L-1.33,0.67 L1.33,0.67 z"/><use id="gpPt8" fill="currentColor" stroke="none" xlink:href="#gpPt7"/><use id="gpPt9" stroke="currentColor" transform="rotate(180)" xlink:href="#gpPt7"/><use id="gpPt10" fill="currentColor" stroke="none" xlink:href="#gpPt9"/><use id="gpPt11" stroke="currentColor" transform="rotate(45)" xlink:href="#gpPt3"/><use id="gpPt12" fill="currentColor" stroke="none" xlink:href="#gpPt11"/><path id="gpPt13" stroke="currentColor" stroke-width=".267" d="M0,1.330 L1.265,0.411 L0.782,-1.067 L-0.782,-1.076 L-1.265,0.411 z"/><use id="gpPt14" fill="currentColor" stroke="none" xlink:href="#gpPt13"/><filter id="textbox" width="1" height="1" x="0" y="0" filterUnits="objectBoundingBox"><feFlood flood-color="#fff" flood-opacity="1" result="bgnd"/><feComposite in="SourceGraphic" in2="bgnd" operator="atop"/></filter><filter id="greybox" width="1" height="1" x="0" y="0" filterUnits="objectBoundingBox"><feFlood flood-color="#d3d3d3" flood-opacity="1" result="grey"/><feComposite in="SourceGraphic" in2="grey" operator="atop"/></filter></defs><g fill="none" stroke="currentColor" stroke-linecap="butt" stroke-linejoin="miter" stroke-width=".5" color="#000"><path stroke="#000" d="M70.7,298.1 L318.6,223.1"/></g><g fill="none" stroke="currentColor" stroke-linecap="butt" stroke-linejoin="miter" stroke-width=".5" color="#000"><path stroke="#000" d="M508.8,320.9 L318.6,223.1"/></g><g fill="none" stroke="currentColor" stroke-linecap="butt" stroke-linejoin="miter" stroke-width=".5" color="#000"><path stroke="#000" d="M70.7,298.1 L70.7,84.6"/></g><g fill="none" stroke="currentColor" stroke-linecap="butt" stroke-linejoin="miter" stroke-width=".5" color="#000"><path stroke="#000" d="M318.6,223.1 L318.6,9.6"/></g><g fill="none" stroke="currentColor" stroke-linecap="butt" stroke-linejoin="miter" stroke-width=".5" color="#000"><path stroke="#000" d="M508.8,320.9 L508.8,107.4"/></g><g fill="none" stroke="currentColor" stroke-linecap="butt" stroke-linejoin="miter" stroke-width=".5" color="#000"><path stroke="#000" d="M70.7,84.6 L318.6,9.6"/></g><g fill="none" stroke="currentColor" stroke-linecap="butt" stroke-linejoin="miter" stroke-width=".5" color="#000"><path stroke="#000" d="M508.8,107.4 L318.6,9.6"/></g><g fill="none" stroke="currentColor" stroke-linecap="butt" stroke-linejoin="miter" stroke-width=".5" color="#000"><path stroke="#262626" d="M260.9,395.9 L70.7,298.1" class="gridline" opacity=".15"/></g><g fill="none" stroke="currentColor" stroke-linecap="butt" stroke-linejoin="miter" stroke-width=".5" color="#000"><path stroke="#262626" d="M70.7,298.1 L70.7,84.6" class="gridline" opacity=".15"/></g><g fill="none" stroke="currentColor" stroke-linecap="butt" stroke-linejoin="miter" stroke-width=".5" color="#000"><path stroke="#000" d="M260.9,395.9 L257.1,393.9"/><g fill="#262626" stroke="none" font-family="Helvetica" font-size="10" text-anchor="middle"><text transform="translate(265.8,404.4)"><tspan font-family="Helvetica">0.99</tspan></text></g></g><g fill="none" stroke="currentColor" stroke-linecap="butt" stroke-linejoin="miter" stroke-width=".5" color="#000"><path stroke="#262626" d="M322.9,377.1 L132.7,279.4" class="gridline" opacity=".15"/></g><g fill="none" stroke="currentColor" stroke-linecap="butt" stroke-linejoin="miter" stroke-width=".5" color="#000"><path stroke="#262626" d="M132.7,279.4 L132.7,65.9" class="gridline" opacity=".15"/></g><g fill="none" stroke="currentColor" stroke-linecap="butt" stroke-linejoin="miter" stroke-width=".5" color="#000"><path stroke="#000" d="M322.9,377.1 L319.0,375.2"/><g fill="#262626" stroke="none" font-family="Helvetica" font-size="10" text-anchor="middle"><text transform="translate(327.7,385.6)"><tspan font-family="Helvetica">0.995</tspan></text></g></g><g fill="none" stroke="currentColor" stroke-linecap="butt" stroke-linejoin="miter" stroke-width=".5" color="#000"><path stroke="#262626" d="M384.8,358.4 L194.7,260.6" class="gridline" opacity=".15"/></g><g fill="none" stroke="currentColor" stroke-linecap="butt" stroke-linejoin="miter" stroke-width=".5" color="#000"><path stroke="#262626" d="M194.7,260.6 L194.7,47.1" class="gridline" opacity=".15"/></g><g fill="none" stroke="currentColor" stroke-linecap="butt" stroke-linejoin="miter" stroke-width=".5" color="#000"><path stroke="#000" d="M384.8,358.4 L381.0,356.4"/><g fill="#262626" stroke="none" font-family="Helvetica" font-size="10" text-anchor="middle"><text transform="translate(389.6,366.9)"><tspan font-family="Helvetica">1</tspan></text></g></g><g fill="none" stroke="currentColor" stroke-linecap="butt" stroke-linejoin="miter" stroke-width=".5" color="#000"><path stroke="#262626" d="M446.8,339.6 L256.6,241.8" class="gridline" opacity=".15"/></g><g fill="none" stroke="currentColor" stroke-linecap="butt" stroke-linejoin="miter" stroke-width=".5" color="#000"><path stroke="#262626" d="M256.6,241.8 L256.6,28.4" class="gridline" opacity=".15"/></g><g fill="none" stroke="currentColor" stroke-linecap="butt" stroke-linejoin="miter" stroke-width=".5" color="#000"><path stroke="#000" d="M446.8,339.6 L442.9,337.6"/><g fill="#262626" stroke="none" font-family="Helvetica" font-size="10" text-anchor="middle"><text transform="translate(451.6,348.1)"><tspan font-family="Helvetica">1.005</tspan></text></g></g><g fill="none" stroke="currentColor" stroke-linecap="butt" stroke-linejoin="miter" stroke-width=".5" color="#000"><path stroke="#262626" d="M508.8,320.9 L318.6,223.1" class="gridline" opacity=".15"/></g><g fill="none" stroke="currentColor" stroke-linecap="butt" stroke-linejoin="miter" stroke-width=".5" color="#000"><path stroke="#262626" d="M318.6,223.1 L318.6,9.6" class="gridline" opacity=".15"/></g><g fill="none" stroke="currentColor" stroke-linecap="butt" stroke-linejoin="miter" stroke-width=".5" color="#000"><path stroke="#000" d="M508.8,320.9 L504.9,318.9"/><g fill="#262626" stroke="none" font-family="Helvetica" font-size="10" text-anchor="middle"><text transform="translate(513.6,329.3)"><tspan font-family="Helvetica">1.01</tspan></text></g></g><g fill="none" stroke="currentColor" stroke-linecap="butt" stroke-linejoin="miter" stroke-width=".5" color="#000"><path stroke="#262626" d="M260.9,395.9 L508.8,320.9" class="gridline" opacity=".15"/></g><g fill="none" stroke="currentColor" stroke-linecap="butt" stroke-linejoin="miter" stroke-width=".5" color="#000"><path stroke="#262626" d="M508.8,320.9 L508.8,107.4" class="gridline" opacity=".15"/></g><g fill="none" stroke="currentColor" stroke-linecap="butt" stroke-linejoin="miter" stroke-width=".5" color="#000"><path stroke="#000" d="M260.9,395.9 L265.9,394.4"/><g fill="#262626" stroke="none" font-family="Helvetica" font-size="10" text-anchor="middle"><text transform="translate(254.8,403.1)"><tspan font-family="Helvetica">-2</tspan></text></g></g><g fill="none" stroke="currentColor" stroke-linecap="butt" stroke-linejoin="miter" stroke-width=".5" color="#000"><path stroke="#262626" d="M237.1,383.7 L485.0,308.6" class="gridline" opacity=".15"/></g><g fill="none" stroke="currentColor" stroke-linecap="butt" stroke-linejoin="miter" stroke-width=".5" color="#000"><path stroke="#262626" d="M485.0,308.6 L485.0,95.2" class="gridline" opacity=".15"/></g><g fill="none" stroke="currentColor" stroke-linecap="butt" stroke-linejoin="miter" stroke-width=".5" color="#000"><path stroke="#000" d="M237.1,383.7 L242.2,382.1"/><g fill="#262626" stroke="none" font-family="Helvetica" font-size="10" text-anchor="middle"><text transform="translate(231.0,390.9)"><tspan font-family="Helvetica">-1.5</tspan></text></g></g><g fill="none" stroke="currentColor" stroke-linecap="butt" stroke-linejoin="miter" stroke-width=".5" color="#000"><path stroke="#262626" d="M213.4,371.4 L461.2,296.4" class="gridline" opacity=".15"/></g><g fill="none" stroke="currentColor" stroke-linecap="butt" stroke-linejoin="miter" stroke-width=".5" color="#000"><path stroke="#262626" d="M461.2,296.4 L461.2,82.9" class="gridline" opacity=".15"/></g><g fill="none" stroke="currentColor" stroke-linecap="butt" stroke-linejoin="miter" stroke-width=".5" color="#000"><path stroke="#000" d="M213.4,371.4 L218.4,369.9"/><g fill="#262626" stroke="none" font-family="Helvetica" font-size="10" text-anchor="middle"><text transform="translate(207.2,378.7)"><tspan font-family="Helvetica">-1</tspan></text></g></g><g fill="none" stroke="currentColor" stroke-linecap="butt" stroke-linejoin="miter" stroke-width=".5" color="#000"><path stroke="#262626" d="M189.6,359.2 L437.4,284.2" class="gridline" opacity=".15"/></g><g fill="none" stroke="currentColor" stroke-linecap="butt" stroke-linejoin="miter" stroke-width=".5" color="#000"><path stroke="#262626" d="M437.4,284.2 L437.4,70.7" class="gridline" opacity=".15"/></g><g fill="none" stroke="currentColor" stroke-linecap="butt" stroke-linejoin="miter" stroke-width=".5" color="#000"><path stroke="#000" d="M189.6,359.2 L194.6,357.7"/><g fill="#262626" stroke="none" font-family="Helvetica" font-size="10" text-anchor="middle"><text transform="translate(183.4,366.5)"><tspan font-family="Helvetica">-0.5</tspan></text></g></g><g fill="none" stroke="currentColor" stroke-linecap="butt" stroke-linejoin="miter" stroke-width=".5" color="#000"><path stroke="#262626" d="M165.8,347.0 L413.7,272.0" class="gridline" opacity=".15"/></g><g fill="none" stroke="currentColor" stroke-linecap="butt" stroke-linejoin="miter" stroke-width=".5" color="#000"><path stroke="#262626" d="M413.7,272.0 L413.7,58.5" class="gridline" opacity=".15"/></g><g fill="none" stroke="currentColor" stroke-linecap="butt" stroke-linejoin="miter" stroke-width=".5" color="#000"><path stroke="#000" d="M165.8,347.0 L170.9,345.5"/><g fill="#262626" stroke="none" font-family="Helvetica" font-size="10" text-anchor="middle"><text transform="translate(159.7,354.3)"><tspan font-family="Helvetica">0</tspan></text></g></g><g fill="none" stroke="currentColor" stroke-linecap="butt" stroke-linejoin="miter" stroke-width=".5" color="#000"><path stroke="#262626" d="M142.1,334.8 L389.9,259.8" class="gridline" opacity=".15"/></g><g fill="none" stroke="currentColor" stroke-linecap="butt" stroke-linejoin="miter" stroke-width=".5" color="#000"><path stroke="#262626" d="M389.9,259.8 L389.9,46.3" class="gridline" opacity=".15"/></g><g fill="none" stroke="currentColor" stroke-linecap="butt" stroke-linejoin="miter" stroke-width=".5" color="#000"><path stroke="#000" d="M142.1,334.8 L147.1,333.3"/><g fill="#262626" stroke="none" font-family="Helvetica" font-size="10" text-anchor="middle"><text transform="translate(135.9,342.0)"><tspan font-family="Helvetica">0.5</tspan></text></g></g><g fill="none" stroke="currentColor" stroke-linecap="butt" stroke-linejoin="miter" stroke-width=".5" color="#000"><path stroke="#262626" d="M118.3,322.6 L366.1,247.5" class="gridline" opacity=".15"/></g><g fill="none" stroke="currentColor" stroke-linecap="butt" stroke-linejoin="miter" stroke-width=".5" color="#000"><path stroke="#262626" d="M366.1,247.5 L366.1,34.1" class="gridline" opacity=".15"/></g><g fill="none" stroke="currentColor" stroke-linecap="butt" stroke-linejoin="miter" stroke-width=".5" color="#000"><path stroke="#000" d="M118.3,322.6 L123.3,321.0"/><g fill="#262626" stroke="none" font-family="Helvetica" font-size="10" text-anchor="middle"><text transform="translate(112.1,329.8)"><tspan font-family="Helvetica">1</tspan></text></g></g><g fill="none" stroke="currentColor" stroke-linecap="butt" stroke-linejoin="miter" stroke-width=".5" color="#000"><path stroke="#262626" d="M94.5,310.3 L342.4,235.3" class="gridline" opacity=".15"/></g><g fill="none" stroke="currentColor" stroke-linecap="butt" stroke-linejoin="miter" stroke-width=".5" color="#000"><path stroke="#262626" d="M342.4,235.3 L342.4,21.8" class="gridline" opacity=".15"/></g><g fill="none" stroke="currentColor" stroke-linecap="butt" stroke-linejoin="miter" stroke-width=".5" color="#000"><path stroke="#000" d="M94.5,310.3 L99.5,308.8"/><g fill="#262626" stroke="none" font-family="Helvetica" font-size="10" text-anchor="middle"><text transform="translate(88.4,317.6)"><tspan font-family="Helvetica">1.5</tspan></text></g></g><g fill="none" stroke="currentColor" stroke-linecap="butt" stroke-linejoin="miter" stroke-width=".5" color="#000"><path stroke="#262626" d="M70.7,298.1 L318.6,223.1" class="gridline" opacity=".15"/></g><g fill="none" stroke="currentColor" stroke-linecap="butt" stroke-linejoin="miter" stroke-width=".5" color="#000"><path stroke="#262626" d="M318.6,223.1 L318.6,9.6" class="gridline" opacity=".15"/></g><g fill="none" stroke="currentColor" stroke-linecap="butt" stroke-linejoin="miter" stroke-width=".5" color="#000"><path stroke="#000" d="M70.7,298.1 L75.8,296.6"/><g fill="#262626" stroke="none" font-family="Helvetica" font-size="10" text-anchor="middle"><text transform="translate(64.6,305.4)"><tspan font-family="Helvetica">2</tspan></text></g></g><g fill="none" stroke="currentColor" stroke-linecap="butt" stroke-linejoin="miter" stroke-width=".5" color="#000"><path stroke="#262626" d="M70.7,298.1 L318.6,223.1" class="gridline" opacity=".15"/></g><g fill="none" stroke="currentColor" stroke-linecap="butt" stroke-linejoin="miter" stroke-width=".5" color="#000"><path stroke="#262626" d="M318.6,223.1 L508.8,320.9" class="gridline" opacity=".15"/></g><g fill="none" stroke="currentColor" stroke-linecap="butt" stroke-linejoin="miter" stroke-width=".5" color="#000"><path stroke="#000" d="M70.7,298.1 L76.3,298.1"/><g fill="#262626" stroke="none" font-family="Helvetica" font-size="10" text-anchor="end"><text transform="translate(55.8,301.3)"><tspan font-family="Helvetica">0</tspan></text></g></g><g fill="none" stroke="currentColor" stroke-linecap="butt" stroke-linejoin="miter" stroke-width=".5" color="#000"><path stroke="#262626" d="M70.7,276.8 L318.6,201.7" class="gridline" opacity=".15"/></g><g fill="none" stroke="currentColor" stroke-linecap="butt" stroke-linejoin="miter" stroke-width=".5" color="#000"><path stroke="#262626" d="M318.6,201.7 L508.8,299.5" class="gridline" opacity=".15"/></g><g fill="none" stroke="currentColor" stroke-linecap="butt" stroke-linejoin="miter" stroke-width=".5" color="#000"><path stroke="#000" d="M70.7,276.8 L76.3,276.8"/><g fill="#262626" stroke="none" font-family="Helvetica" font-size="10" text-anchor="end"><text transform="translate(55.8,280.0)"><tspan font-family="Helvetica">0.1</tspan></text></g></g><g fill="none" stroke="currentColor" stroke-linecap="butt" stroke-linejoin="miter" stroke-width=".5" color="#000"><path stroke="#262626" d="M70.7,255.4 L318.6,180.4" class="gridline" opacity=".15"/></g><g fill="none" stroke="currentColor" stroke-linecap="butt" stroke-linejoin="miter" stroke-width=".5" color="#000"><path stroke="#262626" d="M318.6,180.4 L508.8,278.2" class="gridline" opacity=".15"/></g><g fill="none" stroke="currentColor" stroke-linecap="butt" stroke-linejoin="miter" stroke-width=".5" color="#000"><path stroke="#000" d="M70.7,255.4 L76.3,255.4"/><g fill="#262626" stroke="none" font-family="Helvetica" font-size="10" text-anchor="end"><text transform="translate(55.8,258.6)"><tspan font-family="Helvetica">0.2</tspan></text></g></g><g fill="none" stroke="currentColor" stroke-linecap="butt" stroke-linejoin="miter" stroke-width=".5" color="#000"><path stroke="#262626" d="M70.7,234.1 L318.6,159.0" class="gridline" opacity=".15"/></g><g fill="none" stroke="currentColor" stroke-linecap="butt" stroke-linejoin="miter" stroke-width=".5" color="#000"><path stroke="#262626" d="M318.6,159.0 L508.8,256.8" class="gridline" opacity=".15"/></g><g fill="none" stroke="currentColor" stroke-linecap="butt" stroke-linejoin="miter" stroke-width=".5" color="#000"><path stroke="#000" d="M70.7,234.1 L76.3,234.1"/><g fill="#262626" stroke="none" font-family="Helvetica" font-size="10" text-anchor="end"><text transform="translate(55.8,237.3)"><tspan font-family="Helvetica">0.3</tspan></text></g></g><g fill="none" stroke="currentColor" stroke-linecap="butt" stroke-linejoin="miter" stroke-width=".5" color="#000"><path stroke="#262626" d="M70.7,212.7 L318.6,137.7" class="gridline" opacity=".15"/></g><g fill="none" stroke="currentColor" stroke-linecap="butt" stroke-linejoin="miter" stroke-width=".5" color="#000"><path stroke="#262626" d="M318.6,137.7 L508.8,235.5" class="gridline" opacity=".15"/></g><g fill="none" stroke="currentColor" stroke-linecap="butt" stroke-linejoin="miter" stroke-width=".5" color="#000"><path stroke="#000" d="M70.7,212.7 L76.3,212.7"/><g fill="#262626" stroke="none" font-family="Helvetica" font-size="10" text-anchor="end"><text transform="translate(55.8,215.9)"><tspan font-family="Helvetica">0.4</tspan></text></g></g><g fill="none" stroke="currentColor" stroke-linecap="butt" stroke-linejoin="miter" stroke-width=".5" color="#000"><path stroke="#262626" d="M70.7,191.4 L318.6,116.3" class="gridline" opacity=".15"/></g><g fill="none" stroke="currentColor" stroke-linecap="butt" stroke-linejoin="miter" stroke-width=".5" color="#000"><path stroke="#262626" d="M318.6,116.3 L508.8,214.1" class="gridline" opacity=".15"/></g><g fill="none" stroke="currentColor" stroke-linecap="butt" stroke-linejoin="miter" stroke-width=".5" color="#000"><path stroke="#000" d="M70.7,191.4 L76.3,191.4"/><g fill="#262626" stroke="none" font-family="Helvetica" font-size="10" text-anchor="end"><text transform="translate(55.8,194.7)"><tspan font-family="Helvetica">0.5</tspan></text></g></g><g fill="none" stroke="currentColor" stroke-linecap="butt" stroke-linejoin="miter" stroke-width=".5" color="#000"><path stroke="#262626" d="M70.7,170.0 L318.6,95.0" class="gridline" opacity=".15"/></g><g fill="none" stroke="currentColor" stroke-linecap="butt" stroke-linejoin="miter" stroke-width=".5" color="#000"><path stroke="#262626" d="M318.6,95.0 L508.8,192.8" class="gridline" opacity=".15"/></g><g fill="none" stroke="currentColor" stroke-linecap="butt" stroke-linejoin="miter" stroke-width=".5" color="#000"><path stroke="#000" d="M70.7,170.0 L76.3,170.0"/><g fill="#262626" stroke="none" font-family="Helvetica" font-size="10" text-anchor="end"><text transform="translate(55.8,173.3)"><tspan font-family="Helvetica">0.6</tspan></text></g></g><g fill="none" stroke="currentColor" stroke-linecap="butt" stroke-linejoin="miter" stroke-width=".5" color="#000"><path stroke="#262626" d="M70.7,148.7 L318.6,73.6" class="gridline" opacity=".15"/></g><g fill="none" stroke="currentColor" stroke-linecap="butt" stroke-linejoin="miter" stroke-width=".5" color="#000"><path stroke="#262626" d="M318.6,73.6 L508.8,171.4" class="gridline" opacity=".15"/></g><g fill="none" stroke="currentColor" stroke-linecap="butt" stroke-linejoin="miter" stroke-width=".5" color="#000"><path stroke="#000" d="M70.7,148.7 L76.3,148.7"/><g fill="#262626" stroke="none" font-family="Helvetica" font-size="10" text-anchor="end"><text transform="translate(55.8,152.0)"><tspan font-family="Helvetica">0.7</tspan></text></g></g><g fill="none" stroke="currentColor" stroke-linecap="butt" stroke-linejoin="miter" stroke-width=".5" color="#000"><path stroke="#262626" d="M70.7,127.3 L318.6,52.3" class="gridline" opacity=".15"/></g><g fill="none" stroke="currentColor" stroke-linecap="butt" stroke-linejoin="miter" stroke-width=".5" color="#000"><path stroke="#262626" d="M318.6,52.3 L508.8,150.1" class="gridline" opacity=".15"/></g><g fill="none" stroke="currentColor" stroke-linecap="butt" stroke-linejoin="miter" stroke-width=".5" color="#000"><path stroke="#000" d="M70.7,127.3 L76.3,127.3"/><g fill="#262626" stroke="none" font-family="Helvetica" font-size="10" text-anchor="end"><text transform="translate(55.8,130.6)"><tspan font-family="Helvetica">0.8</tspan></text></g></g><g fill="none" stroke="currentColor" stroke-linecap="butt" stroke-linejoin="miter" stroke-width=".5" color="#000"><path stroke="#262626" d="M70.7,106.0 L318.6,31.0" class="gridline" opacity=".15"/></g><g fill="none" stroke="currentColor" stroke-linecap="butt" stroke-linejoin="miter" stroke-width=".5" color="#000"><path stroke="#262626" d="M318.6,31.0 L508.8,128.7" class="gridline" opacity=".15"/></g><g fill="none" stroke="currentColor" stroke-linecap="butt" stroke-linejoin="miter" stroke-width=".5" color="#000"><path stroke="#000" d="M70.7,106.0 L76.3,106.0"/><g fill="#262626" stroke="none" font-family="Helvetica" font-size="10" text-anchor="end"><text transform="translate(55.8,109.3)"><tspan font-family="Helvetica">0.9</tspan></text></g></g><g fill="none" stroke="currentColor" stroke-linecap="butt" stroke-linejoin="miter" stroke-width=".5" color="#000"><path stroke="#262626" d="M70.7,84.6 L318.6,9.6" class="gridline" opacity=".15"/></g><g fill="none" stroke="currentColor" stroke-linecap="butt" stroke-linejoin="miter" stroke-width=".5" color="#000"><path stroke="#262626" d="M318.6,9.6 L508.8,107.4" class="gridline" opacity=".15"/></g><g fill="none" stroke="currentColor" stroke-linecap="butt" stroke-linejoin="miter" stroke-width=".5" color="#000"><path stroke="#000" d="M70.7,84.6 L76.3,84.6"/><g fill="#262626" stroke="none" font-family="Helvetica" font-size="10" text-anchor="end"><text transform="translate(55.8,87.9)"><tspan font-family="Helvetica">1</tspan></text></g></g><g id="gnuplot_plot_1a"><title>gnuplot_plot_1a</title><g fill="none" stroke="currentColor" stroke-linecap="butt" stroke-linejoin="miter" stroke-width=".5" color="#000"><path stroke="#0071BC" d="M364.4,347.8 M360.6,345.8 L360.6,328.6 M356.8,343.8 L356.8,309.6 M352.9,341.9 L352.9,290.8 M349.1,339.9 L349.1,272.3 M345.3,337.9 L345.3,254.3 M341.5,336.0 L341.5,236.8 M337.6,334.0 L337.6,219.9 M333.8,332.0 L333.8,203.8 M330.0,330.1 L330.0,188.6 M326.1,328.1 L326.1,174.2 M322.3,326.1 L322.3,160.9 M318.5,324.2 L318.5,148.6 M314.6,322.2 L314.6,137.4 M310.8,320.2 L310.8,127.5 M307.0,318.2 L307.0,118.7 M303.2,316.3 L303.2,111.3 M299.3,314.3 L299.3,105.2 M295.5,312.3 L295.5,100.5 M291.7,310.4 L291.7,97.2 M287.9,308.4 L287.9,95.2 M284.1,306.4 L284.1,94.6 M280.3,304.5 L280.3,95.4 M276.4,302.5 L276.4,97.5 M272.6,300.5 L272.6,101.0 M268.8,298.6 L268.8,105.8 M265.0,296.6 L265.0,111.8 M261.1,294.6 L261.1,119.0 M257.3,292.6 L257.3,127.4 M253.5,290.7 L253.5,136.8 M249.6,288.7 L249.6,147.3 M245.8,286.7 L245.8,158.6 M242.0,284.8 L242.0,170.8 M238.1,282.8 L238.1,183.7 M234.3,280.8 L234.3,197.3 M230.5,278.9 L230.5,211.3 M226.7,276.9 L226.7,225.8 M222.8,274.9 L222.8,240.7 M219.0,273.0 L219.0,255.8 M215.2,271.0"/></g></g><g id="gnuplot_plot_2a"><title>gnuplot_plot_2a</title><g fill="none" stroke="currentColor" stroke-linecap="butt" stroke-linejoin="miter" stroke-width="1" color="#000"><use color="#0071BC" transform="translate(364.4,347.8) scale(3.75)" xlink:href="#gpPt5"/><use color="#0071BC" transform="translate(360.6,328.6) scale(3.75)" xlink:href="#gpPt5"/><use color="#0071BC" transform="translate(356.8,309.6) scale(3.75)" xlink:href="#gpPt5"/><use color="#0071BC" transform="translate(352.9,290.8) scale(3.75)" xlink:href="#gpPt5"/><use color="#0071BC" transform="translate(349.1,272.3) scale(3.75)" xlink:href="#gpPt5"/><use color="#0071BC" transform="translate(345.3,254.3) scale(3.75)" xlink:href="#gpPt5"/><use color="#0071BC" transform="translate(341.5,236.8) scale(3.75)" xlink:href="#gpPt5"/><use color="#0071BC" transform="translate(337.6,219.9) scale(3.75)" xlink:href="#gpPt5"/><use color="#0071BC" transform="translate(333.8,203.8) scale(3.75)" xlink:href="#gpPt5"/><use color="#0071BC" transform="translate(330.0,188.6) scale(3.75)" xlink:href="#gpPt5"/><use color="#0071BC" transform="translate(326.1,174.2) scale(3.75)" xlink:href="#gpPt5"/><use color="#0071BC" transform="translate(322.3,160.9) scale(3.75)" xlink:href="#gpPt5"/><use color="#0071BC" transform="translate(318.5,148.6) scale(3.75)" xlink:href="#gpPt5"/><use color="#0071BC" transform="translate(314.6,137.4) scale(3.75)" xlink:href="#gpPt5"/><use color="#0071BC" transform="translate(310.8,127.5) scale(3.75)" xlink:href="#gpPt5"/><use color="#0071BC" transform="translate(307.0,118.7) scale(3.75)" xlink:href="#gpPt5"/><use color="#0071BC" transform="translate(303.2,111.3) scale(3.75)" xlink:href="#gpPt5"/><use color="#0071BC" transform="translate(299.3,105.2) scale(3.75)" xlink:href="#gpPt5"/><use color="#0071BC" transform="translate(295.5,100.5) scale(3.75)" xlink:href="#gpPt5"/><use color="#0071BC" transform="translate(291.7,97.2) scale(3.75)" xlink:href="#gpPt5"/><use color="#0071BC" transform="translate(287.9,95.2) scale(3.75)" xlink:href="#gpPt5"/><use color="#0071BC" transform="translate(284.1,94.6) scale(3.75)" xlink:href="#gpPt5"/><use color="#0071BC" transform="translate(280.3,95.4) scale(3.75)" xlink:href="#gpPt5"/><use color="#0071BC" transform="translate(276.4,97.5) scale(3.75)" xlink:href="#gpPt5"/><use color="#0071BC" transform="translate(272.6,101.0) scale(3.75)" xlink:href="#gpPt5"/><use color="#0071BC" transform="translate(268.8,105.8) scale(3.75)" xlink:href="#gpPt5"/><use color="#0071BC" transform="translate(265.0,111.8) scale(3.75)" xlink:href="#gpPt5"/><use color="#0071BC" transform="translate(261.1,119.0) scale(3.75)" xlink:href="#gpPt5"/><use color="#0071BC" transform="translate(257.3,127.4) scale(3.75)" xlink:href="#gpPt5"/><use color="#0071BC" transform="translate(253.5,136.8) scale(3.75)" xlink:href="#gpPt5"/><use color="#0071BC" transform="translate(249.6,147.3) scale(3.75)" xlink:href="#gpPt5"/><use color="#0071BC" transform="translate(245.8,158.6) scale(3.75)" xlink:href="#gpPt5"/><use color="#0071BC" transform="translate(242.0,170.8) scale(3.75)" xlink:href="#gpPt5"/><use color="#0071BC" transform="translate(238.1,183.7) scale(3.75)" xlink:href="#gpPt5"/><use color="#0071BC" transform="translate(234.3,197.3) scale(3.75)" xlink:href="#gpPt5"/><use color="#0071BC" transform="translate(230.5,211.3) scale(3.75)" xlink:href="#gpPt5"/><use color="#0071BC" transform="translate(226.7,225.8) scale(3.75)" xlink:href="#gpPt5"/><use color="#0071BC" transform="translate(222.8,240.7) scale(3.75)" xlink:href="#gpPt5"/><use color="#0071BC" transform="translate(219.0,255.8) scale(3.75)" xlink:href="#gpPt5"/><use color="#0071BC" transform="translate(215.2,271.0) scale(3.75)" xlink:href="#gpPt5"/></g></g><g fill="none" stroke="currentColor" stroke-linecap="butt" stroke-linejoin="miter" stroke-width=".5" color="#000"><path stroke="#000" d="M508.8,320.9 L260.9,395.9"/></g><g fill="none" stroke="currentColor" stroke-linecap="butt" stroke-linejoin="miter" stroke-width=".5" color="#000"><path stroke="#000" d="M70.7,298.1 L260.9,395.9"/></g></g></svg>