<svg xmlns="http://www.w3.org/2000/svg" xmlns:xlink="http://www.w3.org/1999/xlink" width="560" height="420" viewBox="0 0 560 420"><title>Gnuplot</title><desc>Produced by GNUPLOT 5.4 patchlevel 0</desc><g id="gnuplot_canvas"><rect width="560" height="420" x="0" y="0" fill="none"/><defs><circle id="gpDot" r=".5" stroke="currentColor" stroke-width=".5"/><path id="gpPt0" stroke="currentColor" stroke-width=".267" d="M-1,0 h2 M0,-1 v2"/><path id="gpPt1" stroke="currentColor" stroke-width=".267" d="M-1,-1 L1,1 M1,-1 L-1,1"/><path id="gpPt2" stroke="currentColor" stroke-width=".267" d="M-1,0 L1,0 M0,-1 L0,1 M-1,-1 L1,1 M-1,1 L1,-1"/><rect id="gpPt3" width="2" height="2" x="-1" y="-1" stroke="currentColor" stroke-width=".267"/><rect id="gpPt4" width="2" height="2" x="-1" y="-1" fill="currentColor" stroke="currentColor" stroke-width=".267"/><circle id="gpPt5" cx="0" cy="0" r="1" stroke="currentColor" stroke-width=".267"/><use id="gpPt6" fill="currentColor" stroke="none" xlink:href="#gpPt5"/><path id="gpPt7" stroke="currentColor" stroke-width=".267" d="M0,-1.33 L-1.33,0.67 L1.33,0.67 z"/><use id="gpPt8" fill="currentColor" stroke="none" xlink:href="#gpPt7"/><use id="gpPt9" stroke="currentColor" transform="rotate(180)" xlink:href="#gpPt7"/><use id="gpPt10" fill="currentColor" stroke="none" xlink:href="#gpPt9"/><use id="gpPt11" stroke="currentColor" transform="rotate(45)" xlink:href="#gpPt3"/><use id="gpPt12" fill="currentColor" stroke="none" xlink:href="#gpPt11"/><path id="gpPt13" stroke="currentColor" stroke-width=".267" d="M0,1.330 L1.265,0.411 L0.782,-1.067 L-0.782,-1.076 L-1.265,0.411 z"/><use id="gpPt14" fill="currentColor" stroke="none" xlink:href="#gpPt13"/><filter id="textbox" width="1" height="1" x="0" y="0" filterUnits="objectBoundingBox"><feFlood flood-color="#fff" flood-opacity="1" result="bgnd"/><feComposite in="SourceGraphic" in2="bgnd" operator="atop"/></filter><filter id="greybox" width="1" height="1" x="0" y="0" filterUnits="objectBoundingBox"><feFlood flood-color="#d3d3d3" flood-opacity="1" result="grey"/><feComposite in="SourceGraphic" in2="grey" operator="atop"/></filter></defs><g fill="none" stroke="currentColor" stroke-linecap="butt" stroke-linejoin="miter" stroke-width=".5" color="#000"><path stroke="#000" d="M70.7,298.1 L318.6,223.1"/></g><g fill="none" stroke="currentColor" stroke-linecap="butt" stroke-linejoin="miter" stroke-width=".5" color="#000"><path stroke="#000" d="M508.8,320.9 L318.6,223.1"/></g><g fill="none" stroke="currentColor" stroke-linecap="butt" stroke-linejoin="miter" stroke-width=".5" color="#000"><path stroke="#000" d="M70.7,298.1 L70.7,84.6"/></g><g fill="none" stroke="currentColor" stroke-linecap="butt" stroke-linejoin="miter" stroke-width=".5" color="#000"><path stroke="#000" d="M318.6,223.1 L318.6,9.6"/></g><g fill="none" stroke="currentColor" stroke-linecap="butt" stroke-linejoin="miter" stroke-width=".5" color="#000"><path stroke="#000" d="M508.8,320.9 L508.8,107.4"/></g><g fill="none" stroke="currentColor" stroke-linecap="butt" stroke-linejoin="miter" stroke-width=".5" color="#000"><path stroke="#000" d="M70.7,84.6 L318.6,9.6"/></g><g fill="none" stroke="currentColor" stroke-linecap="butt" stroke-linejoin="miter" stroke-width=".5" color="#000"><path stroke="#000" d="M508.8,107.4 L318.6,9.6"/></g><g fill="none" stroke="currentColor" stroke-linecap="butt" stroke-linejoin="miter" stroke-width=".5" color="#000"><path stroke="#262626" d="M260.9,395.9 L70.7,298.1" class="gridline" opacity=".15"/></g><g fill="none" stroke="currentColor" stroke-linecap="butt" stroke-linejoin="miter" stroke-width=".5" color="#000"><path stroke="#262626" d="M70.7,298.1 L70.7,84.6" class="gridline" opacity=".15"/></g><g fill="none" stroke="currentColor" stroke-linecap="butt" stroke-linejoin="miter" stroke-width=".5" color="#000"><path stroke="#000" d="M260.9,395.9 L257.1,393.9"/><g fill="#262626" stroke="none" font-family="Helvetica" font-size="10" text-anchor="middle"><text transform="translate(265.8,404.4)"><tspan font-family="Helvetica">0</tspan></text></g></g><g fill="none" stroke="currentColor" stroke-linecap="butt" stroke-linejoin="miter" stroke-width=".5" color="#000"><path stroke="#262626" d="M310.5,380.9 L120.3,283.1" class="gridline" opacity=".15"/></g><g fill="none" stroke="currentColor" stroke-linecap="butt" stroke-linejoin="miter" stroke-width=".5" color="#000"><path stroke="#262626" d="M120.3,283.1 L120.3,69.6" class="gridline" opacity=".15"/></g><g fill="none" stroke="currentColor" stroke-linecap="butt" stroke-linejoin="miter" stroke-width=".5" color="#000"><path stroke="#000" d="M310.5,380.9 L306.6,378.9"/><g fill="#262626" stroke="none" font-family="Helvetica" font-size="10" text-anchor="middle"><text transform="translate(315.3,389.4)"><tspan font-family="Helvetica">0.2</tspan></text></g></g><g fill="none" stroke="currentColor" stroke-linecap="butt" stroke-linejoin="miter" stroke-width=".5" color="#000"><path stroke="#262626" d="M360.1,365.9 L169.9,268.1" class="gridline" opacity=".15"/></g><g fill="none" stroke="currentColor" stroke-linecap="butt" stroke-linejoin="miter" stroke-width=".5" color="#000"><path stroke="#262626" d="M169.9,268.1 L169.9,54.6" class="gridline" opacity=".15"/></g><g fill="none" stroke="currentColor" stroke-linecap="butt" stroke-linejoin="miter" stroke-width=".5" color="#000"><path stroke="#000" d="M360.1,365.9 L356.2,363.9"/><g fill="#262626" stroke="none" font-family="Helvetica" font-size="10" text-anchor="middle"><text transform="translate(364.9,374.4)"><tspan font-family="Helvetica">0.4</tspan></text></g></g><g fill="none" stroke="currentColor" stroke-linecap="butt" stroke-linejoin="miter" stroke-width=".5" color="#000"><path stroke="#262626" d="M409.6,350.9 L219.4,253.1" class="gridline" opacity=".15"/></g><g fill="none" stroke="currentColor" stroke-linecap="butt" stroke-linejoin="miter" stroke-width=".5" color="#000"><path stroke="#262626" d="M219.4,253.1 L219.4,39.6" class="gridline" opacity=".15"/></g><g fill="none" stroke="currentColor" stroke-linecap="butt" stroke-linejoin="miter" stroke-width=".5" color="#000"><path stroke="#000" d="M409.6,350.9 L405.8,348.9"/><g fill="#262626" stroke="none" font-family="Helvetica" font-size="10" text-anchor="middle"><text transform="translate(414.4,359.4)"><tspan font-family="Helvetica">0.6</tspan></text></g></g><g fill="none" stroke="currentColor" stroke-linecap="butt" stroke-linejoin="miter" stroke-width=".5" color="#000"><path stroke="#262626" d="M459.2,335.9 L269.0,238.1" class="gridline" opacity=".15"/></g><g fill="none" stroke="currentColor" stroke-linecap="butt" stroke-linejoin="miter" stroke-width=".5" color="#000"><path stroke="#262626" d="M269.0,238.1 L269.0,24.6" class="gridline" opacity=".15"/></g><g fill="none" stroke="currentColor" stroke-linecap="butt" stroke-linejoin="miter" stroke-width=".5" color="#000"><path stroke="#000" d="M459.2,335.9 L455.3,333.9"/><g fill="#262626" stroke="none" font-family="Helvetica" font-size="10" text-anchor="middle"><text transform="translate(464.0,344.4)"><tspan font-family="Helvetica">0.8</tspan></text></g></g><g fill="none" stroke="currentColor" stroke-linecap="butt" stroke-linejoin="miter" stroke-width=".5" color="#000"><path stroke="#262626" d="M508.8,320.9 L318.6,223.1" class="gridline" opacity=".15"/></g><g fill="none" stroke="currentColor" stroke-linecap="butt" stroke-linejoin="miter" stroke-width=".5" color="#000"><path stroke="#262626" d="M318.6,223.1 L318.6,9.6" class="gridline" opacity=".15"/></g><g fill="none" stroke="currentColor" stroke-linecap="butt" stroke-linejoin="miter" stroke-width=".5" color="#000"><path stroke="#000" d="M508.8,320.9 L504.9,318.9"/><g fill="#262626" stroke="none" font-family="Helvetica" font-size="10" text-anchor="middle"><text transform="translate(513.6,329.3)"><tspan font-family="Helvetica">1</tspan></text></g></g><g fill="none" stroke="currentColor" stroke-linecap="butt" stroke-linejoin="miter" stroke-width=".5" color="#000"><path stroke="#262626" d="M260.9,395.9 L508.8,320.9" class="gridline" opacity=".15"/></g><g fill="none" stroke="currentColor" stroke-linecap="butt" stroke-linejoin="miter" stroke-width=".5" color="#000"><path stroke="#262626" d="M508.8,320.9 L508.8,107.4" class="gridline" opacity=".15"/></g><g fill="none" stroke="currentColor" stroke-linecap="butt" stroke-linejoin="miter" stroke-width=".5" color="#000"><path stroke="#000" d="M260.9,395.9 L265.9,394.4"/><g fill="#262626" stroke="none" font-family="Helvetica" font-size="10" text-anchor="middle"><text transform="translate(254.8,403.1)"><tspan font-family="Helvetica">0</tspan></text></g></g><g fill="none" stroke="currentColor" stroke-linecap="butt" stroke-linejoin="miter" stroke-width=".5" color="#000"><path stroke="#262626" d="M222.9,376.3 L470.7,301.3" class="gridline" opacity=".15"/></g><g fill="none" stroke="currentColor" stroke-linecap="butt" stroke-linejoin="miter" stroke-width=".5" color="#000"><path stroke="#262626" d="M470.7,301.3 L470.7,87.8" class="gridline" opacity=".15"/></g><g fill="none" stroke="currentColor" stroke-linecap="butt" stroke-linejoin="miter" stroke-width=".5" color="#000"><path stroke="#000" d="M222.9,376.3 L227.9,374.8"/><g fill="#262626" stroke="none" font-family="Helvetica" font-size="10" text-anchor="middle"><text transform="translate(216.7,383.6)"><tspan font-family="Helvetica">0.2</tspan></text></g></g><g fill="none" stroke="currentColor" stroke-linecap="butt" stroke-linejoin="miter" stroke-width=".5" color="#000"><path stroke="#262626" d="M184.8,356.8 L432.7,281.8" class="gridline" opacity=".15"/></g><g fill="none" stroke="currentColor" stroke-linecap="butt" stroke-linejoin="miter" stroke-width=".5" color="#000"><path stroke="#262626" d="M432.7,281.8 L432.7,68.3" class="gridline" opacity=".15"/></g><g fill="none" stroke="currentColor" stroke-linecap="butt" stroke-linejoin="miter" stroke-width=".5" color="#000"><path stroke="#000" d="M184.8,356.8 L189.9,355.3"/><g fill="#262626" stroke="none" font-family="Helvetica" font-size="10" text-anchor="middle"><text transform="translate(178.7,364.0)"><tspan font-family="Helvetica">0.4</tspan></text></g></g><g fill="none" stroke="currentColor" stroke-linecap="butt" stroke-linejoin="miter" stroke-width=".5" color="#000"><path stroke="#262626" d="M146.8,337.2 L394.7,262.2" class="gridline" opacity=".15"/></g><g fill="none" stroke="currentColor" stroke-linecap="butt" stroke-linejoin="miter" stroke-width=".5" color="#000"><path stroke="#262626" d="M394.7,262.2 L394.7,48.7" class="gridline" opacity=".15"/></g><g fill="none" stroke="currentColor" stroke-linecap="butt" stroke-linejoin="miter" stroke-width=".5" color="#000"><path stroke="#000" d="M146.8,337.2 L151.8,335.7"/><g fill="#262626" stroke="none" font-family="Helvetica" font-size="10" text-anchor="middle"><text transform="translate(140.7,344.5)"><tspan font-family="Helvetica">0.6</tspan></text></g></g><g fill="none" stroke="currentColor" stroke-linecap="butt" stroke-linejoin="miter" stroke-width=".5" color="#000"><path stroke="#262626" d="M108.8,317.7 L356.6,242.6" class="gridline" opacity=".15"/></g><g fill="none" stroke="currentColor" stroke-linecap="butt" stroke-linejoin="miter" stroke-width=".5" color="#000"><path stroke="#262626" d="M356.6,242.6 L356.6,29.2" class="gridline" opacity=".15"/></g><g fill="none" stroke="currentColor" stroke-linecap="butt" stroke-linejoin="miter" stroke-width=".5" color="#000"><path stroke="#000" d="M108.8,317.7 L113.8,316.1"/><g fill="#262626" stroke="none" font-family="Helvetica" font-size="10" text-anchor="middle"><text transform="translate(102.6,324.9)"><tspan font-family="Helvetica">0.8</tspan></text></g></g><g fill="none" stroke="currentColor" stroke-linecap="butt" stroke-linejoin="miter" stroke-width=".5" color="#000"><path stroke="#262626" d="M70.7,298.1 L318.6,223.1" class="gridline" opacity=".15"/></g><g fill="none" stroke="currentColor" stroke-linecap="butt" stroke-linejoin="miter" stroke-width=".5" color="#000"><path stroke="#262626" d="M318.6,223.1 L318.6,9.6" class="gridline" opacity=".15"/></g><g fill="none" stroke="currentColor" stroke-linecap="butt" stroke-linejoin="miter" stroke-width=".5" color="#000"><path stroke="#000" d="M70.7,298.1 L75.8,296.6"/><g fill="#262626" stroke="none" font-family="Helvetica" font-size="10" text-anchor="middle"><text transform="translate(64.6,305.4)"><tspan font-family="Helvetica">1</tspan></text></g></g><g fill="none" stroke="currentColor" stroke-linecap="butt" stroke-linejoin="miter" stroke-width=".5" color="#000"><path stroke="#262626" d="M70.7,298.1 L318.6,223.1" class="gridline" opacity=".15"/></g><g fill="none" stroke="currentColor" stroke-linecap="butt" stroke-linejoin="miter" stroke-width=".5" color="#000"><path stroke="#262626" d="M318.6,223.1 L508.8,320.9" class="gridline" opacity=".15"/></g><g fill="none" stroke="currentColor" stroke-linecap="butt" stroke-linejoin="miter" stroke-width=".5" color="#000"><path stroke="#000" d="M70.7,298.1 L76.3,298.1"/><g fill="#262626" stroke="none" font-family="Helvetica" font-size="10" text-anchor="end"><text transform="translate(55.8,301.3)"><tspan font-family="Helvetica">0</tspan></text></g></g><g fill="none" stroke="currentColor" stroke-linecap="butt" stroke-linejoin="miter" stroke-width=".5" color="#000"><path stroke="#262626" d="M70.7,271.4 L318.6,196.4" class="gridline" opacity=".15"/></g><g fill="none" stroke="currentColor" stroke-linecap="butt" stroke-linejoin="miter" stroke-width=".5" color="#000"><path stroke="#262626" d="M318.6,196.4 L508.8,294.2" class="gridline" opacity=".15"/></g><g fill="none" stroke="currentColor" stroke-linecap="butt" stroke-linejoin="miter" stroke-width=".5" color="#000"><path stroke="#000" d="M70.7,271.4 L76.3,271.4"/><g fill="#262626" stroke="none" font-family="Helvetica" font-size="10" text-anchor="end"><text transform="translate(55.8,274.6)"><tspan font-family="Helvetica">1</tspan></text></g></g><g fill="none" stroke="currentColor" stroke-linecap="butt" stroke-linejoin="miter" stroke-width=".5" color="#000"><path stroke="#262626" d="M70.7,244.7 L318.6,169.7" class="gridline" opacity=".15"/></g><g fill="none" stroke="currentColor" stroke-linecap="butt" stroke-linejoin="miter" stroke-width=".5" color="#000"><path stroke="#262626" d="M318.6,169.7 L508.8,267.5" class="gridline" opacity=".15"/></g><g fill="none" stroke="currentColor" stroke-linecap="butt" stroke-linejoin="miter" stroke-width=".5" color="#000"><path stroke="#000" d="M70.7,244.7 L76.3,244.7"/><g fill="#262626" stroke="none" font-family="Helvetica" font-size="10" text-anchor="end"><text transform="translate(55.8,247.9)"><tspan font-family="Helvetica">2</tspan></text></g></g><g fill="none" stroke="currentColor" stroke-linecap="butt" stroke-linejoin="miter" stroke-width=".5" color="#000"><path stroke="#262626" d="M70.7,218.1 L318.6,143.0" class="gridline" opacity=".15"/></g><g fill="none" stroke="currentColor" stroke-linecap="butt" stroke-linejoin="miter" stroke-width=".5" color="#000"><path stroke="#262626" d="M318.6,143.0 L508.8,240.8" class="gridline" opacity=".15"/></g><g fill="none" stroke="currentColor" stroke-linecap="butt" stroke-linejoin="miter" stroke-width=".5" color="#000"><path stroke="#000" d="M70.7,218.1 L76.3,218.1"/><g fill="#262626" stroke="none" font-family="Helvetica" font-size="10" text-anchor="end"><text transform="translate(55.8,221.3)"><tspan font-family="Helvetica">3</tspan></text></g></g><g fill="none" stroke="currentColor" stroke-linecap="butt" stroke-linejoin="miter" stroke-width=".5" color="#000"><path stroke="#262626" d="M70.7,191.4 L318.6,116.3" class="gridline" opacity=".15"/></g><g fill="none" stroke="currentColor" stroke-linecap="butt" stroke-linejoin="miter" stroke-width=".5" color="#000"><path stroke="#262626" d="M318.6,116.3 L508.8,214.1" class="gridline" opacity=".15"/></g><g fill="none" stroke="currentColor" stroke-linecap="butt" stroke-linejoin="miter" stroke-width=".5" color="#000"><path stroke="#000" d="M70.7,191.4 L76.3,191.4"/><g fill="#262626" stroke="none" font-family="Helvetica" font-size="10" text-anchor="end"><text transform="translate(55.8,194.7)"><tspan font-family="Helvetica">4</tspan></text></g></g><g fill="none" stroke="currentColor" stroke-linecap="butt" stroke-linejoin="miter" stroke-width=".5" color="#000"><path stroke="#262626" d="M70.7,164.7 L318.6,89.7" class="gridline" opacity=".15"/></g><g fill="none" stroke="currentColor" stroke-linecap="butt" stroke-linejoin="miter" stroke-width=".5" color="#000"><path stroke="#262626" d="M318.6,89.7 L508.8,187.4" class="gridline" opacity=".15"/></g><g fill="none" stroke="currentColor" stroke-linecap="butt" stroke-linejoin="miter" stroke-width=".5" color="#000"><path stroke="#000" d="M70.7,164.7 L76.3,164.7"/><g fill="#262626" stroke="none" font-family="Helvetica" font-size="10" text-anchor="end"><text transform="translate(55.8,168.0)"><tspan font-family="Helvetica">5</tspan></text></g></g><g fill="none" stroke="currentColor" stroke-linecap="butt" stroke-linejoin="miter" stroke-width=".5" color="#000"><path stroke="#262626" d="M70.7,138.0 L318.6,63.0" class="gridline" opacity=".15"/></g><g fill="none" stroke="currentColor" stroke-linecap="butt" stroke-linejoin="miter" stroke-width=".5" color="#000"><path stroke="#262626" d="M318.6,63.0 L508.8,160.8" class="gridline" opacity=".15"/></g><g fill="none" stroke="currentColor" stroke-linecap="butt" stroke-linejoin="miter" stroke-width=".5" color="#000"><path stroke="#000" d="M70.7,138.0 L76.3,138.0"/><g fill="#262626" stroke="none" font-family="Helvetica" font-size="10" text-anchor="end"><text transform="translate(55.8,141.3)"><tspan font-family="Helvetica">6</tspan></text></g></g><g fill="none" stroke="currentColor" stroke-linecap="butt" stroke-linejoin="miter" stroke-width=".5" color="#000"><path stroke="#262626" d="M70.7,111.3 L318.6,36.3" class="gridline" opacity=".15"/></g><g fill="none" stroke="currentColor" stroke-linecap="butt" stroke-linejoin="miter" stroke-width=".5" color="#000"><path stroke="#262626" d="M318.6,36.3 L508.8,134.1" class="gridline" opacity=".15"/></g><g fill="none" stroke="currentColor" stroke-linecap="butt" stroke-linejoin="miter" stroke-width=".5" color="#000"><path stroke="#000" d="M70.7,111.3 L76.3,111.3"/><g fill="#262626" stroke="none" font-family="Helvetica" font-size="10" text-anchor="end"><text transform="translate(55.8,114.6)"><tspan font-family="Helvetica">7</tspan></text></g></g><g fill="none" stroke="currentColor" stroke-linecap="butt" stroke-linejoin="miter" stroke-width=".5" color="#000"><path stroke="#262626" d="M70.7,84.6 L318.6,9.6" class="gridline" opacity=".15"/></g><g fill="none" stroke="currentColor" stroke-linecap="butt" stroke-linejoin="miter" stroke-width=".5" color="#000"><path stroke="#262626" d="M318.6,9.6 L508.8,107.4" class="gridline" opacity=".15"/></g><g fill="none" stroke="currentColor" stroke-linecap="butt" stroke-linejoin="miter" stroke-width=".5" color="#000"><path stroke="#000" d="M70.7,84.6 L76.3,84.6"/><g fill="#262626" stroke="none" font-family="Helvetica" font-size="10" text-anchor="end"><text transform="translate(55.8,87.9)"><tspan font-family="Helvetica">8</tspan></text></g></g><g id="gnuplot_plot_1a"><title>gnuplot_plot_1a</title><g fill="none" stroke="currentColor" stroke-linecap="butt" stroke-linejoin="miter" stroke-width=".5" color="#000"><path stroke="#0071BC" d="M261.0,395.8 L261.0,369.1 M242.0,386.0 L242.0,356.5 M223.0,376.2 L223.0,343.6 M204.0,366.5 L204.0,330.4 M184.9,356.7 L184.9,316.9 M165.9,346.9 L165.9,302.9 M146.9,337.1 L146.9,288.5 M127.9,327.3 L127.9,273.6 M108.9,317.6 L108.9,258.2 M89.9,307.8 L89.9,242.2 M70.8,298.0 L70.8,225.5 M285.8,388.3 L285.8,358.8 M266.8,378.5 L266.8,345.9 M247.8,368.7 L247.8,332.7 M228.7,359.0 L228.7,319.1 M209.7,349.2 L209.7,305.2 M190.7,339.4 L190.7,290.8 M171.7,329.6 L171.7,275.9 M152.7,319.8 L152.7,260.5 M133.7,310.1 L133.7,244.4 M114.6,300.3 L114.6,227.8 M95.6,290.5 L95.6,210.3 M310.5,380.8 L310.5,348.2 M291.5,371.0 L291.5,335.0 M272.6,361.2 L272.6,321.4 M253.5,351.5 L253.5,307.5 M234.5,341.7 L234.5,293.1 M215.5,331.9 L215.5,278.2 M196.5,322.1 L196.5,262.7 M177.5,312.3 L177.5,246.7 M158.4,302.6 L158.4,230.0 M139.4,292.8 L139.4,212.6 M120.4,283.0 L120.4,194.5 M335.3,373.3 L335.3,337.3 M316.3,363.5 L316.3,323.7 M297.2,353.7 L297.2,309.7 M278.3,343.9 L278.3,295.3 M259.3,334.2 L259.3,280.4 M240.3,324.4 L240.3,265.0 M221.3,314.6 L221.3,249.0 M202.2,304.8 L202.2,232.3 M183.2,295.1 L183.2,214.9 M164.2,285.3 L164.2,196.8 M145.2,275.5 L145.2,177.7 M360.1,365.8 L360.1,326.0 M341.0,356.0 L341.0,312.0 M322.0,346.2 L322.0,297.6 M303.0,336.4 L303.0,282.7 M284.1,326.7 L284.1,267.3 M265.1,316.9 L265.1,251.3 M246.0,307.1 L246.0,234.6 M227.0,297.3 L227.0,217.2 M208.0,287.6 L208.0,199.1 M189.0,277.8 L189.0,180.0 M170.0,268.0 L170.0,159.9 M384.8,358.3 L384.8,314.3 M365.8,348.5 L365.8,299.9 M346.8,338.7 L346.8,285.0 M327.8,328.9 L327.8,269.6 M308.8,319.2 L308.8,253.5 M289.8,309.4 L289.8,236.9 M270.8,299.6 L270.8,219.4 M251.8,289.8 L251.8,201.3 M232.8,280.1 L232.8,182.2 M213.8,270.3 L213.8,162.2 M194.8,260.5 L194.8,141.0 M409.6,350.8 L409.6,302.2 M390.6,341.0 L390.6,287.3 M371.6,331.2 L371.6,271.8 M352.6,321.4 L352.6,255.8 M333.6,311.7 L333.6,239.1 M314.5,301.9 L314.5,221.7 M295.5,292.1 L295.5,203.5 M276.6,282.3 L276.6,184.5 M257.6,272.6 L257.6,164.4 M238.6,262.8 L238.6,143.3 M219.5,253.0 L219.5,120.9 M434.4,343.3 L434.4,289.5 M415.4,333.5 L415.4,274.1 M396.4,323.7 L396.4,258.1 M377.4,313.9 L377.4,241.4 M358.3,304.2 L358.3,224.0 M339.3,294.4 L339.3,205.8 M320.3,284.6 L320.3,186.8 M301.3,274.8 L301.3,166.7 M282.4,265.0 L282.4,145.6 M263.3,255.3 L263.3,123.2 M244.3,245.5 L244.3,99.5 M459.2,335.8 L459.2,276.4 M440.2,326.0 L440.2,260.4 M421.2,316.2 L421.2,243.7 M402.1,306.4 L402.1,226.3 M383.1,296.7 L383.1,208.1 M364.1,286.9 L364.1,189.1 M345.1,277.1 L345.1,169.0 M326.1,267.3 L326.1,147.8 M307.0,257.5 L307.0,125.5 M288.1,247.8 L288.1,101.8 M269.1,238.0 L269.1,76.7 M484.0,328.3 L484.0,262.6 M465.0,318.5 L465.0,246.0 M445.9,308.7 L445.9,228.5 M426.9,298.9 L426.9,210.3 M407.9,289.2 L407.9,191.3 M388.9,279.4 L388.9,171.3 M369.9,269.6 L369.9,150.1 M350.9,259.8 L350.9,127.8 M331.8,250.0 L331.8,104.1 M312.8,240.3 L312.8,78.9 M293.8,230.5 L293.8,52.2 M508.8,320.8 L508.8,248.2 M489.7,311.0 L489.7,230.8 M470.7,301.2 L470.7,212.6 M451.7,291.4 L451.7,193.6 M432.7,281.7 L432.7,173.5 M413.7,271.9 L413.7,152.4 M394.7,262.1 L394.7,130.0 M375.6,252.3 L375.6,106.3 M356.6,242.5 L356.6,81.2 M337.6,232.8 L337.6,54.5 M318.6,223.0 L318.6,25.9"/></g></g><g id="gnuplot_plot_2a"><title>gnuplot_plot_2a</title><g fill="none" stroke="currentColor" stroke-linecap="butt" stroke-linejoin="miter" stroke-width="1" color="#000"><use color="#0071BC" transform="translate(261.0,369.1) scale(3.75)" xlink:href="#gpPt5"/><use color="#0071BC" transform="translate(242.0,356.5) scale(3.75)" xlink:href="#gpPt5"/><use color="#0071BC" transform="translate(223.0,343.6) scale(3.75)" xlink:href="#gpPt5"/><use color="#0071BC" transform="translate(204.0,330.4) scale(3.75)" xlink:href="#gpPt5"/><use color="#0071BC" transform="translate(184.9,316.9) scale(3.75)" xlink:href="#gpPt5"/><use color="#0071BC" transform="translate(165.9,302.9) scale(3.75)" xlink:href="#gpPt5"/><use color="#0071BC" transform="translate(146.9,288.5) scale(3.75)" xlink:href="#gpPt5"/><use color="#0071BC" transform="translate(127.9,273.6) scale(3.75)" xlink:href="#gpPt5"/><use color="#0071BC" transform="translate(108.9,258.2) scale(3.75)" xlink:href="#gpPt5"/><use color="#0071BC" transform="translate(89.9,242.2) scale(3.75)" xlink:href="#gpPt5"/><use color="#0071BC" transform="translate(70.8,225.5) scale(3.75)" xlink:href="#gpPt5"/><use color="#0071BC" transform="translate(285.8,358.8) scale(3.75)" xlink:href="#gpPt5"/><use color="#0071BC" transform="translate(266.8,345.9) scale(3.75)" xlink:href="#gpPt5"/><use color="#0071BC" transform="translate(247.8,332.7) scale(3.75)" xlink:href="#gpPt5"/><use color="#0071BC" transform="translate(228.7,319.1) scale(3.75)" xlink:href="#gpPt5"/><use color="#0071BC" transform="translate(209.7,305.2) scale(3.75)" xlink:href="#gpPt5"/><use color="#0071BC" transform="translate(190.7,290.8) scale(3.75)" xlink:href="#gpPt5"/><use color="#0071BC" transform="translate(171.7,275.9) scale(3.75)" xlink:href="#gpPt5"/><use color="#0071BC" transform="translate(152.7,260.5) scale(3.75)" xlink:href="#gpPt5"/><use color="#0071BC" transform="translate(133.7,244.4) scale(3.75)" xlink:href="#gpPt5"/><use color="#0071BC" transform="translate(114.6,227.8) scale(3.75)" xlink:href="#gpPt5"/><use color="#0071BC" transform="translate(95.6,210.3) scale(3.75)" xlink:href="#gpPt5"/><use color="#0071BC" transform="translate(310.5,348.2) scale(3.75)" xlink:href="#gpPt5"/><use color="#0071BC" transform="translate(291.5,335.0) scale(3.75)" xlink:href="#gpPt5"/><use color="#0071BC" transform="translate(272.6,321.4) scale(3.75)" xlink:href="#gpPt5"/><use color="#0071BC" transform="translate(253.5,307.5) scale(3.75)" xlink:href="#gpPt5"/><use color="#0071BC" transform="translate(234.5,293.1) scale(3.75)" xlink:href="#gpPt5"/><use color="#0071BC" transform="translate(215.5,278.2) scale(3.75)" xlink:href="#gpPt5"/><use color="#0071BC" transform="translate(196.5,262.7) scale(3.75)" xlink:href="#gpPt5"/><use color="#0071BC" transform="translate(177.5,246.7) scale(3.75)" xlink:href="#gpPt5"/><use color="#0071BC" transform="translate(158.4,230.0) scale(3.75)" xlink:href="#gpPt5"/><use color="#0071BC" transform="translate(139.4,212.6) scale(3.75)" xlink:href="#gpPt5"/><use color="#0071BC" transform="translate(120.4,194.5) scale(3.75)" xlink:href="#gpPt5"/><use color="#0071BC" transform="translate(335.3,337.3) scale(3.75)" xlink:href="#gpPt5"/><use color="#0071BC" transform="translate(316.3,323.7) scale(3.75)" xlink:href="#gpPt5"/><use color="#0071BC" transform="translate(297.2,309.7) scale(3.75)" xlink:href="#gpPt5"/><use color="#0071BC" transform="translate(278.3,295.3) scale(3.75)" xlink:href="#gpPt5"/><use color="#0071BC" transform="translate(259.3,280.4) scale(3.75)" xlink:href="#gpPt5"/><use color="#0071BC" transform="translate(240.3,265.0) scale(3.75)" xlink:href="#gpPt5"/><use color="#0071BC" transform="translate(221.3,249.0) scale(3.75)" xlink:href="#gpPt5"/><use color="#0071BC" transform="translate(202.2,232.3) scale(3.75)" xlink:href="#gpPt5"/><use color="#0071BC" transform="translate(183.2,214.9) scale(3.75)" xlink:href="#gpPt5"/><use color="#0071BC" transform="translate(164.2,196.8) scale(3.75)" xlink:href="#gpPt5"/><use color="#0071BC" transform="translate(145.2,177.7) scale(3.75)" xlink:href="#gpPt5"/><use color="#0071BC" transform="translate(360.1,326.0) scale(3.75)" xlink:href="#gpPt5"/><use color="#0071BC" transform="translate(341.0,312.0) scale(3.75)" xlink:href="#gpPt5"/><use color="#0071BC" transform="translate(322.0,297.6) scale(3.75)" xlink:href="#gpPt5"/><use color="#0071BC" transform="translate(303.0,282.7) scale(3.75)" xlink:href="#gpPt5"/><use color="#0071BC" transform="translate(284.1,267.3) scale(3.75)" xlink:href="#gpPt5"/><use color="#0071BC" transform="translate(265.1,251.3) scale(3.75)" xlink:href="#gpPt5"/><use color="#0071BC" transform="translate(246.0,234.6) scale(3.75)" xlink:href="#gpPt5"/><use color="#0071BC" transform="translate(227.0,217.2) scale(3.75)" xlink:href="#gpPt5"/><use color="#0071BC" transform="translate(208.0,199.1) scale(3.75)" xlink:href="#gpPt5"/><use color="#0071BC" transform="translate(189.0,180.0) scale(3.75)" xlink:href="#gpPt5"/><use color="#0071BC" transform="translate(170.0,159.9) scale(3.75)" xlink:href="#gpPt5"/><use color="#0071BC" transform="translate(384.8,314.3) scale(3.75)" xlink:href="#gpPt5"/><use color="#0071BC" transform="translate(365.8,299.9) scale(3.75)" xlink:href="#gpPt5"/><use color="#0071BC" transform="translate(346.8,285.0) scale(3.75)" xlink:href="#gpPt5"/><use color="#0071BC" transform="translate(327.8,269.6) scale(3.75)" xlink:href="#gpPt5"/><use color="#0071BC" transform="translate(308.8,253.5) scale(3.75)" xlink:href="#gpPt5"/><use color="#0071BC" transform="translate(289.8,236.9) scale(3.75)" xlink:href="#gpPt5"/><use color="#0071BC" transform="translate(270.8,219.4) scale(3.75)" xlink:href="#gpPt5"/><use color="#0071BC" transform="translate(251.8,201.3) scale(3.75)" xlink:href="#gpPt5"/><use color="#0071BC" transform="translate(232.8,182.2) scale(3.75)" xlink:href="#gpPt5"/><use color="#0071BC" transform="translate(213.8,162.2) scale(3.75)" xlink:href="#gpPt5"/><use color="#0071BC" transform="translate(194.8,141.0) scale(3.75)" xlink:href="#gpPt5"/><use color="#0071BC" transform="translate(409.6,302.2) scale(3.75)" xlink:href="#gpPt5"/><use color="#0071BC" transform="translate(390.6,287.3) scale(3.75)" xlink:href="#gpPt5"/><use color="#0071BC" transform="translate(371.6,271.8) scale(3.75)" xlink:href="#gpPt5"/><use color="#0071BC" transform="translate(352.6,255.8) scale(3.75)" xlink:href="#gpPt5"/><use color="#0071BC" transform="translate(333.6,239.1) scale(3.75)" xlink:href="#gpPt5"/><use color="#0071BC" transform="translate(314.5,221.7) scale(3.75)" xlink:href="#gpPt5"/><use color="#0071BC" transform="translate(295.5,203.5) scale(3.75)" xlink:href="#gpPt5"/><use color="#0071BC" transform="translate(276.6,184.5) scale(3.75)" xlink:href="#gpPt5"/><use color="#0071BC" transform="translate(257.6,164.4) scale(3.75)" xlink:href="#gpPt5"/><use color="#0071BC" transform="translate(238.6,143.3) scale(3.75)" xlink:href="#gpPt5"/><use color="#0071BC" transform="translate(219.5,120.9) scale(3.75)" xlink:href="#gpPt5"/><use color="#0071BC" transform="translate(434.4,289.5) scale(3.75)" xlink:href="#gpPt5"/><use color="#0071BC" transform="translate(415.4,274.1) scale(3.75)" xlink:href="#gpPt5"/><use color="#0071BC" transform="translate(396.4,258.1) scale(3.75)" xlink:href="#gpPt5"/><use color="#0071BC" transform="translate(377.4,241.4) scale(3.75)" xlink:href="#gpPt5"/><use color="#0071BC" transform="translate(358.3,224.0) scale(3.75)" xlink:href="#gpPt5"/><use color="#0071BC" transform="translate(339.3,205.8) scale(3.75)" xlink:href="#gpPt5"/><use color="#0071BC" transform="translate(320.3,186.8) scale(3.75)" xlink:href="#gpPt5"/><use color="#0071BC" transform="translate(301.3,166.7) scale(3.75)" xlink:href="#gpPt5"/><use color="#0071BC" transform="translate(282.4,145.6) scale(3.75)" xlink:href="#gpPt5"/><use color="#0071BC" transform="translate(263.3,123.2) scale(3.75)" xlink:href="#gpPt5"/><use color="#0071BC" transform="translate(244.3,99.5) scale(3.75)" xlink:href="#gpPt5"/><use color="#0071BC" transform="translate(459.2,276.4) scale(3.75)" xlink:href="#gpPt5"/><use color="#0071BC" transform="translate(440.2,260.4) scale(3.75)" xlink:href="#gpPt5"/><use color="#0071BC" transform="translate(421.2,243.7) scale(3.75)" xlink:href="#gpPt5"/><use color="#0071BC" transform="translate(402.1,226.3) scale(3.75)" xlink:href="#gpPt5"/><use color="#0071BC" transform="translate(383.1,208.1) scale(3.75)" xlink:href="#gpPt5"/><use color="#0071BC" transform="translate(364.1,189.1) scale(3.75)" xlink:href="#gpPt5"/><use color="#0071BC" transform="translate(345.1,169.0) scale(3.75)" xlink:href="#gpPt5"/><use color="#0071BC" transform="translate(326.1,147.8) scale(3.75)" xlink:href="#gpPt5"/><use color="#0071BC" transform="translate(307.0,125.5) scale(3.75)" xlink:href="#gpPt5"/><use color="#0071BC" transform="translate(288.1,101.8) scale(3.75)" xlink:href="#gpPt5"/><use color="#0071BC" transform="translate(269.1,76.7) scale(3.75)" xlink:href="#gpPt5"/><use color="#0071BC" transform="translate(484.0,262.6) scale(3.75)" xlink:href="#gpPt5"/><use color="#0071BC" transform="translate(465.0,246.0) scale(3.75)" xlink:href="#gpPt5"/><use color="#0071BC" transform="translate(445.9,228.5) scale(3.75)" xlink:href="#gpPt5"/><use color="#0071BC" transform="translate(426.9,210.3) scale(3.75)" xlink:href="#gpPt5"/><use color="#0071BC" transform="translate(407.9,191.3) scale(3.75)" xlink:href="#gpPt5"/><use color="#0071BC" transform="translate(388.9,171.3) scale(3.75)" xlink:href="#gpPt5"/><use color="#0071BC" transform="translate(369.9,150.1) scale(3.75)" xlink:href="#gpPt5"/><use color="#0071BC" transform="translate(350.9,127.8) scale(3.75)" xlink:href="#gpPt5"/><use color="#0071BC" transform="translate(331.8,104.1) scale(3.75)" xlink:href="#gpPt5"/><use color="#0071BC" transform="translate(312.8,78.9) scale(3.75)" xlink:href="#gpPt5"/><use color="#0071BC" transform="translate(293.8,52.2) scale(3.75)" xlink:href="#gpPt5"/><use color="#0071BC" transform="translate(508.8,248.2) scale(3.75)" xlink:href="#gpPt5"/><use color="#0071BC" transform="translate(489.7,230.8) scale(3.75)" xlink:href="#gpPt5"/><use color="#0071BC" transform="translate(470.7,212.6) scale(3.75)" xlink:href="#gpPt5"/><use color="#0071BC" transform="translate(451.7,193.6) scale(3.75)" xlink:href="#gpPt5"/><use color="#0071BC" transform="translate(432.7,173.5) scale(3.75)" xlink:href="#gpPt5"/><use color="#0071BC" transform="translate(413.7,152.4) scale(3.75)" xlink:href="#gpPt5"/><use color="#0071BC" transform="translate(394.7,130.0) scale(3.75)" xlink:href="#gpPt5"/><use color="#0071BC" transform="translate(375.6,106.3) scale(3.75)" xlink:href="#gpPt5"/><use color="#0071BC" transform="translate(356.6,81.2) scale(3.75)" xlink:href="#gpPt5"/><use color="#0071BC" transform="translate(337.6,54.5) scale(3.75)" xlink:href="#gpPt5"/><use color="#0071BC" transform="translate(318.6,25.9) scale(3.75)" xlink:href="#gpPt5"/></g></g><g fill="none" stroke="currentColor" stroke-linecap="butt" stroke-linejoin="miter" stroke-width=".5" color="#000"><path stroke="#000" d="M508.8,320.9 L260.9,395.9"/></g><g fill="none" stroke="currentColor" stroke-linecap="butt" stroke-linejoin="miter" stroke-width=".5" color="#000"><path stroke="#000" d="M70.7,298.1 L260.9,395.9"/></g></g></svg>