<svg xmlns="http://www.w3.org/2000/svg" xmlns:xlink="http://www.w3.org/1999/xlink" width="560" height="420" viewBox="0 0 560 420"><title>Gnuplot</title><desc>Produced by GNUPLOT 5.4 patchlevel 0</desc><g id="gnuplot_canvas"><rect width="560" height="420" x="0" y="0" fill="none"/><defs><circle id="gpDot" r=".5" stroke="currentColor" stroke-width=".5"/><path id="gpPt0" stroke="currentColor" stroke-width=".267" d="M-1,0 h2 M0,-1 v2"/><path id="gpPt1" stroke="currentColor" stroke-width=".267" d="M-1,-1 L1,1 M1,-1 L-1,1"/><path id="gpPt2" stroke="currentColor" stroke-width=".267" d="M-1,0 L1,0 M0,-1 L0,1 M-1,-1 L1,1 M-1,1 L1,-1"/><rect id="gpPt3" width="2" height="2" x="-1" y="-1" stroke="currentColor" stroke-width=".267"/><rect id="gpPt4" width="2" height="2" x="-1" y="-1" fill="currentColor" stroke="currentColor" stroke-width=".267"/><circle id="gpPt5" cx="0" cy="0" r="1" stroke="currentColor" stroke-width=".267"/><use id="gpPt6" fill="currentColor" stroke="none" xlink:href="#gpPt5"/><path id="gpPt7" stroke="currentColor" stroke-width=".267" d="M0,-1.33 L-1.33,0.67 L1.33,0.67 z"/><use id="gpPt8" fill="currentColor" stroke="none" xlink:href="#gpPt7"/><use id="gpPt9" stroke="currentColor" transform="rotate(180)" xlink:href="#gpPt7"/><use id="gpPt10" fill="currentColor" stroke="none" xlink:href="#gpPt9"/><use id="gpPt11" stroke="currentColor" transform="rotate(45)" xlink:href="#gpPt3"/><use id="gpPt12" fill="currentColor" stroke="none" xlink:href="#gpPt11"/><path id="gpPt13" stroke="currentColor" stroke-width=".267" d="M0,1.330 L1.265,0.411 L0.782,-1.067 L-0.782,-1.076 L-1.265,0.411 z"/><use id="gpPt14" fill="currentColor" stroke="none" xlink:href="#gpPt13"/><filter id="textbox" width="1" height="1" x="0" y="0" filterUnits="objectBoundingBox"><feFlood flood-color="#fff" flood-opacity="1" result="bgnd"/><feComposite in="SourceGraphic" in2="bgnd" operator="atop"/></filter><filter id="greybox" width="1" height="1" x="0" y="0" filterUnits="objectBoundingBox"><feFlood flood-color="#d3d3d3" flood-opacity="1" result="grey"/><feComposite in="SourceGraphic" in2="grey" operator="atop"/></filter></defs><g fill="none" stroke="currentColor" stroke-linecap="butt" stroke-linejoin="miter" stroke-width=".5" color="#000"><path stroke="#000" d="M70.7,298.1 L318.6,223.1"/></g><g fill="none" stroke="currentColor" stroke-linecap="butt" stroke-linejoin="miter" stroke-width=".5" color="#000"><path stroke="#000" d="M508.8,320.9 L318.6,223.1"/></g><g fill="none" stroke="currentColor" stroke-linecap="butt" stroke-linejoin="miter" stroke-width=".5" color="#000"><path stroke="#000" d="M70.7,298.1 L70.7,84.6"/></g><g fill="none" stroke="currentColor" stroke-linecap="butt" stroke-linejoin="miter" stroke-width=".5" color="#000"><path stroke="#000" d="M318.6,223.1 L318.6,9.6"/></g><g fill="none" stroke="currentColor" stroke-linecap="butt" stroke-linejoin="miter" stroke-width=".5" color="#000"><path stroke="#000" d="M508.8,320.9 L508.8,107.4"/></g><g fill="none" stroke="currentColor" stroke-linecap="butt" stroke-linejoin="miter" stroke-width=".5" color="#000"><path stroke="#000" d="M70.7,84.6 L318.6,9.6"/></g><g fill="none" stroke="currentColor" stroke-linecap="butt" stroke-linejoin="miter" stroke-width=".5" color="#000"><path stroke="#000" d="M508.8,107.4 L318.6,9.6"/></g><g fill="none" stroke="currentColor" stroke-linecap="butt" stroke-linejoin="miter" stroke-width=".5" color="#000"><path stroke="#262626" d="M260.9,395.9 L70.7,298.1" class="gridline" opacity=".15"/></g><g fill="none" stroke="currentColor" stroke-linecap="butt" stroke-linejoin="miter" stroke-width=".5" color="#000"><path stroke="#262626" d="M70.7,298.1 L70.7,84.6" class="gridline" opacity=".15"/></g><g fill="none" stroke="currentColor" stroke-linecap="butt" stroke-linejoin="miter" stroke-width=".5" color="#000"><path stroke="#000" d="M260.9,395.9 L257.1,393.9"/><g fill="#262626" stroke="none" font-family="Helvetica" font-size="10" text-anchor="middle"><text transform="translate(265.8,404.4)"><tspan font-family="Helvetica">0</tspan></text></g></g><g fill="none" stroke="currentColor" stroke-linecap="butt" stroke-linejoin="miter" stroke-width=".5" color="#000"><path stroke="#262626" d="M291.9,386.5 L101.7,288.7" class="gridline" opacity=".15"/></g><g fill="none" stroke="currentColor" stroke-linecap="butt" stroke-linejoin="miter" stroke-width=".5" color="#000"><path stroke="#262626" d="M101.7,288.7 L101.7,75.3" class="gridline" opacity=".15"/></g><g fill="none" stroke="currentColor" stroke-linecap="butt" stroke-linejoin="miter" stroke-width=".5" color="#000"><path stroke="#000" d="M291.9,386.5 L288.0,384.5"/><g fill="#262626" stroke="none" font-family="Helvetica" font-size="10" text-anchor="middle"><text transform="translate(296.7,395.0)"><tspan font-family="Helvetica">5</tspan></text></g></g><g fill="none" stroke="currentColor" stroke-linecap="butt" stroke-linejoin="miter" stroke-width=".5" color="#000"><path stroke="#262626" d="M322.9,377.1 L132.7,279.4" class="gridline" opacity=".15"/></g><g fill="none" stroke="currentColor" stroke-linecap="butt" stroke-linejoin="miter" stroke-width=".5" color="#000"><path stroke="#262626" d="M132.7,279.4 L132.7,65.9" class="gridline" opacity=".15"/></g><g fill="none" stroke="currentColor" stroke-linecap="butt" stroke-linejoin="miter" stroke-width=".5" color="#000"><path stroke="#000" d="M322.9,377.1 L319.0,375.2"/><g fill="#262626" stroke="none" font-family="Helvetica" font-size="10" text-anchor="middle"><text transform="translate(327.7,385.6)"><tspan font-family="Helvetica">10</tspan></text></g></g><g fill="none" stroke="currentColor" stroke-linecap="butt" stroke-linejoin="miter" stroke-width=".5" color="#000"><path stroke="#262626" d="M353.9,367.8 L163.7,270.0" class="gridline" opacity=".15"/></g><g fill="none" stroke="currentColor" stroke-linecap="butt" stroke-linejoin="miter" stroke-width=".5" color="#000"><path stroke="#262626" d="M163.7,270.0 L163.7,56.5" class="gridline" opacity=".15"/></g><g fill="none" stroke="currentColor" stroke-linecap="butt" stroke-linejoin="miter" stroke-width=".5" color="#000"><path stroke="#000" d="M353.9,367.8 L350.0,365.8"/><g fill="#262626" stroke="none" font-family="Helvetica" font-size="10" text-anchor="middle"><text transform="translate(358.7,376.2)"><tspan font-family="Helvetica">15</tspan></text></g></g><g fill="none" stroke="currentColor" stroke-linecap="butt" stroke-linejoin="miter" stroke-width=".5" color="#000"><path stroke="#262626" d="M384.8,358.4 L194.7,260.6" class="gridline" opacity=".15"/></g><g fill="none" stroke="currentColor" stroke-linecap="butt" stroke-linejoin="miter" stroke-width=".5" color="#000"><path stroke="#262626" d="M194.7,260.6 L194.7,47.1" class="gridline" opacity=".15"/></g><g fill="none" stroke="currentColor" stroke-linecap="butt" stroke-linejoin="miter" stroke-width=".5" color="#000"><path stroke="#000" d="M384.8,358.4 L381.0,356.4"/><g fill="#262626" stroke="none" font-family="Helvetica" font-size="10" text-anchor="middle"><text transform="translate(389.6,366.9)"><tspan font-family="Helvetica">20</tspan></text></g></g><g fill="none" stroke="currentColor" stroke-linecap="butt" stroke-linejoin="miter" stroke-width=".5" color="#000"><path stroke="#262626" d="M415.8,349.0 L225.6,251.2" class="gridline" opacity=".15"/></g><g fill="none" stroke="currentColor" stroke-linecap="butt" stroke-linejoin="miter" stroke-width=".5" color="#000"><path stroke="#262626" d="M225.6,251.2 L225.6,37.7" class="gridline" opacity=".15"/></g><g fill="none" stroke="currentColor" stroke-linecap="butt" stroke-linejoin="miter" stroke-width=".5" color="#000"><path stroke="#000" d="M415.8,349.0 L412.0,347.0"/><g fill="#262626" stroke="none" font-family="Helvetica" font-size="10" text-anchor="middle"><text transform="translate(420.6,357.5)"><tspan font-family="Helvetica">25</tspan></text></g></g><g fill="none" stroke="currentColor" stroke-linecap="butt" stroke-linejoin="miter" stroke-width=".5" color="#000"><path stroke="#262626" d="M446.8,339.6 L256.6,241.8" class="gridline" opacity=".15"/></g><g fill="none" stroke="currentColor" stroke-linecap="butt" stroke-linejoin="miter" stroke-width=".5" color="#000"><path stroke="#262626" d="M256.6,241.8 L256.6,28.4" class="gridline" opacity=".15"/></g><g fill="none" stroke="currentColor" stroke-linecap="butt" stroke-linejoin="miter" stroke-width=".5" color="#000"><path stroke="#000" d="M446.8,339.6 L442.9,337.6"/><g fill="#262626" stroke="none" font-family="Helvetica" font-size="10" text-anchor="middle"><text transform="translate(451.6,348.1)"><tspan font-family="Helvetica">30</tspan></text></g></g><g fill="none" stroke="currentColor" stroke-linecap="butt" stroke-linejoin="miter" stroke-width=".5" color="#000"><path stroke="#262626" d="M477.8,330.2 L287.6,232.5" class="gridline" opacity=".15"/></g><g fill="none" stroke="currentColor" stroke-linecap="butt" stroke-linejoin="miter" stroke-width=".5" color="#000"><path stroke="#262626" d="M287.6,232.5 L287.6,19.0" class="gridline" opacity=".15"/></g><g fill="none" stroke="currentColor" stroke-linecap="butt" stroke-linejoin="miter" stroke-width=".5" color="#000"><path stroke="#000" d="M477.8,330.2 L473.9,328.3"/><g fill="#262626" stroke="none" font-family="Helvetica" font-size="10" text-anchor="middle"><text transform="translate(482.6,338.7)"><tspan font-family="Helvetica">35</tspan></text></g></g><g fill="none" stroke="currentColor" stroke-linecap="butt" stroke-linejoin="miter" stroke-width=".5" color="#000"><path stroke="#262626" d="M508.8,320.9 L318.6,223.1" class="gridline" opacity=".15"/></g><g fill="none" stroke="currentColor" stroke-linecap="butt" stroke-linejoin="miter" stroke-width=".5" color="#000"><path stroke="#262626" d="M318.6,223.1 L318.6,9.6" class="gridline" opacity=".15"/></g><g fill="none" stroke="currentColor" stroke-linecap="butt" stroke-linejoin="miter" stroke-width=".5" color="#000"><path stroke="#000" d="M508.8,320.9 L504.9,318.9"/><g fill="#262626" stroke="none" font-family="Helvetica" font-size="10" text-anchor="middle"><text transform="translate(513.6,329.3)"><tspan font-family="Helvetica">40</tspan></text></g></g><g fill="none" stroke="currentColor" stroke-linecap="butt" stroke-linejoin="miter" stroke-width=".5" color="#000"><path stroke="#262626" d="M260.9,395.9 L508.8,320.9" class="gridline" opacity=".15"/></g><g fill="none" stroke="currentColor" stroke-linecap="butt" stroke-linejoin="miter" stroke-width=".5" color="#000"><path stroke="#262626" d="M508.8,320.9 L508.8,107.4" class="gridline" opacity=".15"/></g><g fill="none" stroke="currentColor" stroke-linecap="butt" stroke-linejoin="miter" stroke-width=".5" color="#000"><path stroke="#000" d="M260.9,395.9 L265.9,394.4"/><g fill="#262626" stroke="none" font-family="Helvetica" font-size="10" text-anchor="middle"><text transform="translate(254.8,403.1)"><tspan font-family="Helvetica">0</tspan></text></g></g><g fill="none" stroke="currentColor" stroke-linecap="butt" stroke-linejoin="miter" stroke-width=".5" color="#000"><path stroke="#262626" d="M222.9,376.3 L470.7,301.3" class="gridline" opacity=".15"/></g><g fill="none" stroke="currentColor" stroke-linecap="butt" stroke-linejoin="miter" stroke-width=".5" color="#000"><path stroke="#262626" d="M470.7,301.3 L470.7,87.8" class="gridline" opacity=".15"/></g><g fill="none" stroke="currentColor" stroke-linecap="butt" stroke-linejoin="miter" stroke-width=".5" color="#000"><path stroke="#000" d="M222.9,376.3 L227.9,374.8"/><g fill="#262626" stroke="none" font-family="Helvetica" font-size="10" text-anchor="middle"><text transform="translate(216.7,383.6)"><tspan font-family="Helvetica">0.2</tspan></text></g></g><g fill="none" stroke="currentColor" stroke-linecap="butt" stroke-linejoin="miter" stroke-width=".5" color="#000"><path stroke="#262626" d="M184.8,356.8 L432.7,281.8" class="gridline" opacity=".15"/></g><g fill="none" stroke="currentColor" stroke-linecap="butt" stroke-linejoin="miter" stroke-width=".5" color="#000"><path stroke="#262626" d="M432.7,281.8 L432.7,68.3" class="gridline" opacity=".15"/></g><g fill="none" stroke="currentColor" stroke-linecap="butt" stroke-linejoin="miter" stroke-width=".5" color="#000"><path stroke="#000" d="M184.8,356.8 L189.9,355.3"/><g fill="#262626" stroke="none" font-family="Helvetica" font-size="10" text-anchor="middle"><text transform="translate(178.7,364.0)"><tspan font-family="Helvetica">0.4</tspan></text></g></g><g fill="none" stroke="currentColor" stroke-linecap="butt" stroke-linejoin="miter" stroke-width=".5" color="#000"><path stroke="#262626" d="M146.8,337.2 L394.7,262.2" class="gridline" opacity=".15"/></g><g fill="none" stroke="currentColor" stroke-linecap="butt" stroke-linejoin="miter" stroke-width=".5" color="#000"><path stroke="#262626" d="M394.7,262.2 L394.7,48.7" class="gridline" opacity=".15"/></g><g fill="none" stroke="currentColor" stroke-linecap="butt" stroke-linejoin="miter" stroke-width=".5" color="#000"><path stroke="#000" d="M146.8,337.2 L151.8,335.7"/><g fill="#262626" stroke="none" font-family="Helvetica" font-size="10" text-anchor="middle"><text transform="translate(140.7,344.5)"><tspan font-family="Helvetica">0.6</tspan></text></g></g><g fill="none" stroke="currentColor" stroke-linecap="butt" stroke-linejoin="miter" stroke-width=".5" color="#000"><path stroke="#262626" d="M108.8,317.7 L356.6,242.6" class="gridline" opacity=".15"/></g><g fill="none" stroke="currentColor" stroke-linecap="butt" stroke-linejoin="miter" stroke-width=".5" color="#000"><path stroke="#262626" d="M356.6,242.6 L356.6,29.2" class="gridline" opacity=".15"/></g><g fill="none" stroke="currentColor" stroke-linecap="butt" stroke-linejoin="miter" stroke-width=".5" color="#000"><path stroke="#000" d="M108.8,317.7 L113.8,316.1"/><g fill="#262626" stroke="none" font-family="Helvetica" font-size="10" text-anchor="middle"><text transform="translate(102.6,324.9)"><tspan font-family="Helvetica">0.8</tspan></text></g></g><g fill="none" stroke="currentColor" stroke-linecap="butt" stroke-linejoin="miter" stroke-width=".5" color="#000"><path stroke="#262626" d="M70.7,298.1 L318.6,223.1" class="gridline" opacity=".15"/></g><g fill="none" stroke="currentColor" stroke-linecap="butt" stroke-linejoin="miter" stroke-width=".5" color="#000"><path stroke="#262626" d="M318.6,223.1 L318.6,9.6" class="gridline" opacity=".15"/></g><g fill="none" stroke="currentColor" stroke-linecap="butt" stroke-linejoin="miter" stroke-width=".5" color="#000"><path stroke="#000" d="M70.7,298.1 L75.8,296.6"/><g fill="#262626" stroke="none" font-family="Helvetica" font-size="10" text-anchor="middle"><text transform="translate(64.6,305.4)"><tspan font-family="Helvetica">1</tspan></text></g></g><g fill="none" stroke="currentColor" stroke-linecap="butt" stroke-linejoin="miter" stroke-width=".5" color="#000"><path stroke="#262626" d="M70.7,298.1 L318.6,223.1" class="gridline" opacity=".15"/></g><g fill="none" stroke="currentColor" stroke-linecap="butt" stroke-linejoin="miter" stroke-width=".5" color="#000"><path stroke="#262626" d="M318.6,223.1 L508.8,320.9" class="gridline" opacity=".15"/></g><g fill="none" stroke="currentColor" stroke-linecap="butt" stroke-linejoin="miter" stroke-width=".5" color="#000"><path stroke="#000" d="M70.7,298.1 L76.3,298.1"/><g fill="#262626" stroke="none" font-family="Helvetica" font-size="10" text-anchor="end"><text transform="translate(55.8,301.3)"><tspan font-family="Helvetica">-1</tspan></text></g></g><g fill="none" stroke="currentColor" stroke-linecap="butt" stroke-linejoin="miter" stroke-width=".5" color="#000"><path stroke="#262626" d="M70.7,244.7 L318.6,169.7" class="gridline" opacity=".15"/></g><g fill="none" stroke="currentColor" stroke-linecap="butt" stroke-linejoin="miter" stroke-width=".5" color="#000"><path stroke="#262626" d="M318.6,169.7 L508.8,267.5" class="gridline" opacity=".15"/></g><g fill="none" stroke="currentColor" stroke-linecap="butt" stroke-linejoin="miter" stroke-width=".5" color="#000"><path stroke="#000" d="M70.7,244.7 L76.3,244.7"/><g fill="#262626" stroke="none" font-family="Helvetica" font-size="10" text-anchor="end"><text transform="translate(55.8,247.9)"><tspan font-family="Helvetica">-0.5</tspan></text></g></g><g fill="none" stroke="currentColor" stroke-linecap="butt" stroke-linejoin="miter" stroke-width=".5" color="#000"><path stroke="#262626" d="M70.7,191.4 L318.6,116.3" class="gridline" opacity=".15"/></g><g fill="none" stroke="currentColor" stroke-linecap="butt" stroke-linejoin="miter" stroke-width=".5" color="#000"><path stroke="#262626" d="M318.6,116.3 L508.8,214.1" class="gridline" opacity=".15"/></g><g fill="none" stroke="currentColor" stroke-linecap="butt" stroke-linejoin="miter" stroke-width=".5" color="#000"><path stroke="#000" d="M70.7,191.4 L76.3,191.4"/><g fill="#262626" stroke="none" font-family="Helvetica" font-size="10" text-anchor="end"><text transform="translate(55.8,194.7)"><tspan font-family="Helvetica">0</tspan></text></g></g><g fill="none" stroke="currentColor" stroke-linecap="butt" stroke-linejoin="miter" stroke-width=".5" color="#000"><path stroke="#262626" d="M70.7,138.0 L318.6,63.0" class="gridline" opacity=".15"/></g><g fill="none" stroke="currentColor" stroke-linecap="butt" stroke-linejoin="miter" stroke-width=".5" color="#000"><path stroke="#262626" d="M318.6,63.0 L508.8,160.8" class="gridline" opacity=".15"/></g><g fill="none" stroke="currentColor" stroke-linecap="butt" stroke-linejoin="miter" stroke-width=".5" color="#000"><path stroke="#000" d="M70.7,138.0 L76.3,138.0"/><g fill="#262626" stroke="none" font-family="Helvetica" font-size="10" text-anchor="end"><text transform="translate(55.8,141.3)"><tspan font-family="Helvetica">0.5</tspan></text></g></g><g fill="none" stroke="currentColor" stroke-linecap="butt" stroke-linejoin="miter" stroke-width=".5" color="#000"><path stroke="#262626" d="M70.7,84.6 L318.6,9.6" class="gridline" opacity=".15"/></g><g fill="none" stroke="currentColor" stroke-linecap="butt" stroke-linejoin="miter" stroke-width=".5" color="#000"><path stroke="#262626" d="M318.6,9.6 L508.8,107.4" class="gridline" opacity=".15"/></g><g fill="none" stroke="currentColor" stroke-linecap="butt" stroke-linejoin="miter" stroke-width=".5" color="#000"><path stroke="#000" d="M70.7,84.6 L76.3,84.6"/><g fill="#262626" stroke="none" font-family="Helvetica" font-size="10" text-anchor="end"><text transform="translate(55.8,87.9)"><tspan font-family="Helvetica">1</tspan></text></g></g><g id="gnuplot_plot_1a"><title>gnuplot_plot_1a</title><g fill="none" stroke="currentColor" stroke-linecap="butt" stroke-linejoin="miter" stroke-width=".5" color="#000"><path stroke="#0071BC" d="M267.2,287.2 L267.2,393.9 M273.4,285.3 L273.4,391.7 M279.6,283.4 L279.6,388.8 M285.8,281.6 L285.8,385.2 M291.9,279.7 L291.9,380.9 M298.1,277.8 L298.1,376.0 M304.3,275.9 L304.3,370.4 M310.5,274.0 L310.5,364.3 M316.7,272.2 L316.7,357.5 M322.9,270.3 L322.9,350.2 M329.1,268.4 L329.1,342.4 M335.3,266.5 L335.3,334.1 M341.5,264.7 L341.5,325.3 M347.7,262.8 L347.7,316.2 M353.9,260.9 L353.9,306.7 M360.1,259.0 L360.1,296.9 M366.3,257.2 L366.3,286.9 M372.4,255.3 L372.4,276.6 M378.6,253.4 L378.6,266.3 M384.8,251.5 L384.8,255.8 M391.0,249.7 L391.0,245.4 M397.2,247.8 L397.2,234.9 M403.4,245.9 L403.4,224.6 M409.6,244.0 L409.6,214.3 M415.8,242.2 L415.8,204.3 M422.0,240.3 L422.0,194.6 M428.2,238.4 L428.2,185.1 M434.4,236.5 L434.4,176.0 M440.6,234.7 L440.6,167.3 M446.8,232.8 L446.8,158.9 M453.0,230.9 L453.0,151.1 M459.2,229.0 L459.2,143.8 M465.4,227.2 L465.4,137.0 M471.6,225.3 L471.6,130.9 M477.8,223.4 L477.8,125.3 M484.0,221.5 L484.0,120.4 M490.2,219.7 L490.2,116.1 M496.4,217.8 L496.4,112.5 M502.6,215.9 L502.6,109.6 M508.8,214.0 L508.8,107.4 M77.0,189.5 M83.2,187.6 L83.2,179.0 M89.4,185.7 L89.4,168.6 M95.6,183.9 L95.6,158.3 M101.8,182.0 L101.8,148.2 M108.0,180.1 L108.0,138.3 M114.2,178.2 L114.2,128.6 M120.4,176.4 L120.4,119.3 M126.6,174.5 L126.6,110.4 M132.8,172.6 L132.8,101.8 M139.0,170.7 L139.0,93.8 M145.2,168.9 L145.2,86.2 M151.4,167.0 L151.4,79.1 M157.6,165.1 L157.6,72.7 M163.8,163.2 L163.8,66.8 M170.0,161.4 L170.0,61.6 M176.2,159.5 L176.2,57.0 M182.4,157.6 L182.4,53.0 M188.6,155.7 L188.6,49.8 M194.8,153.9 L194.8,47.2 M201.0,152.0 L201.0,45.3 M207.2,150.1 L207.2,44.1 M213.3,148.2 L213.3,43.7 M219.5,146.4 L219.5,43.8 M225.7,144.5 L225.7,44.7 M231.9,142.6 L231.9,46.2 M238.1,140.7 L238.1,48.3 M244.3,138.9 L244.3,51.0 M250.5,137.0 L250.5,54.3 M256.7,135.1 L256.7,58.1 M262.9,133.2 L262.9,62.4 M269.1,131.4 L269.1,67.2 M275.3,129.5 L275.3,72.4 M281.5,127.6 L281.5,78.0 M287.7,125.7 L287.7,83.9 M293.8,123.8 L293.8,90.0 M300.0,122.0 L300.0,96.4 M306.2,120.1 L306.2,103.0 M312.4,118.2 L312.4,109.6 M318.6,116.3"/></g></g><g id="gnuplot_plot_2a"><title>gnuplot_plot_2a</title><g fill="none" stroke="currentColor" stroke-linecap="butt" stroke-linejoin="miter" stroke-width="1" color="#000"><use color="#0071BC" transform="translate(267.2,393.9) scale(3.75)" xlink:href="#gpPt5"/><use color="#0071BC" transform="translate(273.4,391.7) scale(3.75)" xlink:href="#gpPt5"/><use color="#0071BC" transform="translate(279.6,388.8) scale(3.75)" xlink:href="#gpPt5"/><use color="#0071BC" transform="translate(285.8,385.2) scale(3.75)" xlink:href="#gpPt5"/><use color="#0071BC" transform="translate(291.9,380.9) scale(3.75)" xlink:href="#gpPt5"/><use color="#0071BC" transform="translate(298.1,376.0) scale(3.75)" xlink:href="#gpPt5"/><use color="#0071BC" transform="translate(304.3,370.4) scale(3.75)" xlink:href="#gpPt5"/><use color="#0071BC" transform="translate(310.5,364.3) scale(3.75)" xlink:href="#gpPt5"/><use color="#0071BC" transform="translate(316.7,357.5) scale(3.75)" xlink:href="#gpPt5"/><use color="#0071BC" transform="translate(322.9,350.2) scale(3.75)" xlink:href="#gpPt5"/><use color="#0071BC" transform="translate(329.1,342.4) scale(3.75)" xlink:href="#gpPt5"/><use color="#0071BC" transform="translate(335.3,334.1) scale(3.75)" xlink:href="#gpPt5"/><use color="#0071BC" transform="translate(341.5,325.3) scale(3.75)" xlink:href="#gpPt5"/><use color="#0071BC" transform="translate(347.7,316.2) scale(3.75)" xlink:href="#gpPt5"/><use color="#0071BC" transform="translate(353.9,306.7) scale(3.75)" xlink:href="#gpPt5"/><use color="#0071BC" transform="translate(360.1,296.9) scale(3.75)" xlink:href="#gpPt5"/><use color="#0071BC" transform="translate(366.3,286.9) scale(3.75)" xlink:href="#gpPt5"/><use color="#0071BC" transform="translate(372.4,276.6) scale(3.75)" xlink:href="#gpPt5"/><use color="#0071BC" transform="translate(378.6,266.3) scale(3.75)" xlink:href="#gpPt5"/><use color="#0071BC" transform="translate(384.8,255.8) scale(3.75)" xlink:href="#gpPt5"/><use color="#0071BC" transform="translate(391.0,245.4) scale(3.75)" xlink:href="#gpPt5"/><use color="#0071BC" transform="translate(397.2,234.9) scale(3.75)" xlink:href="#gpPt5"/><use color="#0071BC" transform="translate(403.4,224.6) scale(3.75)" xlink:href="#gpPt5"/><use color="#0071BC" transform="translate(409.6,214.3) scale(3.75)" xlink:href="#gpPt5"/><use color="#0071BC" transform="translate(415.8,204.3) scale(3.75)" xlink:href="#gpPt5"/><use color="#0071BC" transform="translate(422.0,194.6) scale(3.75)" xlink:href="#gpPt5"/><use color="#0071BC" transform="translate(428.2,185.1) scale(3.75)" xlink:href="#gpPt5"/><use color="#0071BC" transform="translate(434.4,176.0) scale(3.75)" xlink:href="#gpPt5"/><use color="#0071BC" transform="translate(440.6,167.3) scale(3.75)" xlink:href="#gpPt5"/><use color="#0071BC" transform="translate(446.8,158.9) scale(3.75)" xlink:href="#gpPt5"/><use color="#0071BC" transform="translate(453.0,151.1) scale(3.75)" xlink:href="#gpPt5"/><use color="#0071BC" transform="translate(459.2,143.8) scale(3.75)" xlink:href="#gpPt5"/><use color="#0071BC" transform="translate(465.4,137.0) scale(3.75)" xlink:href="#gpPt5"/><use color="#0071BC" transform="translate(471.6,130.9) scale(3.75)" xlink:href="#gpPt5"/><use color="#0071BC" transform="translate(477.8,125.3) scale(3.75)" xlink:href="#gpPt5"/><use color="#0071BC" transform="translate(484.0,120.4) scale(3.75)" xlink:href="#gpPt5"/><use color="#0071BC" transform="translate(490.2,116.1) scale(3.75)" xlink:href="#gpPt5"/><use color="#0071BC" transform="translate(496.4,112.5) scale(3.75)" xlink:href="#gpPt5"/><use color="#0071BC" transform="translate(502.6,109.6) scale(3.75)" xlink:href="#gpPt5"/><use color="#0071BC" transform="translate(508.8,107.4) scale(3.75)" xlink:href="#gpPt5"/><use color="#0071BC" transform="translate(77.0,189.5) scale(3.75)" xlink:href="#gpPt5"/><use color="#0071BC" transform="translate(83.2,179.0) scale(3.75)" xlink:href="#gpPt5"/><use color="#0071BC" transform="translate(89.4,168.6) scale(3.75)" xlink:href="#gpPt5"/><use color="#0071BC" transform="translate(95.6,158.3) scale(3.75)" xlink:href="#gpPt5"/><use color="#0071BC" transform="translate(101.8,148.2) scale(3.75)" xlink:href="#gpPt5"/><use color="#0071BC" transform="translate(108.0,138.3) scale(3.75)" xlink:href="#gpPt5"/><use color="#0071BC" transform="translate(114.2,128.6) scale(3.75)" xlink:href="#gpPt5"/><use color="#0071BC" transform="translate(120.4,119.3) scale(3.75)" xlink:href="#gpPt5"/><use color="#0071BC" transform="translate(126.6,110.4) scale(3.75)" xlink:href="#gpPt5"/><use color="#0071BC" transform="translate(132.8,101.8) scale(3.75)" xlink:href="#gpPt5"/><use color="#0071BC" transform="translate(139.0,93.8) scale(3.75)" xlink:href="#gpPt5"/><use color="#0071BC" transform="translate(145.2,86.2) scale(3.75)" xlink:href="#gpPt5"/><use color="#0071BC" transform="translate(151.4,79.1) scale(3.75)" xlink:href="#gpPt5"/><use color="#0071BC" transform="translate(157.6,72.7) scale(3.75)" xlink:href="#gpPt5"/><use color="#0071BC" transform="translate(163.8,66.8) scale(3.75)" xlink:href="#gpPt5"/><use color="#0071BC" transform="translate(170.0,61.6) scale(3.75)" xlink:href="#gpPt5"/><use color="#0071BC" transform="translate(176.2,57.0) scale(3.75)" xlink:href="#gpPt5"/><use color="#0071BC" transform="translate(182.4,53.0) scale(3.75)" xlink:href="#gpPt5"/><use color="#0071BC" transform="translate(188.6,49.8) scale(3.75)" xlink:href="#gpPt5"/><use color="#0071BC" transform="translate(194.8,47.2) scale(3.75)" xlink:href="#gpPt5"/><use color="#0071BC" transform="translate(201.0,45.3) scale(3.75)" xlink:href="#gpPt5"/><use color="#0071BC" transform="translate(207.2,44.1) scale(3.75)" xlink:href="#gpPt5"/><use color="#0071BC" transform="translate(213.3,43.7) scale(3.75)" xlink:href="#gpPt5"/><use color="#0071BC" transform="translate(219.5,43.8) scale(3.75)" xlink:href="#gpPt5"/><use color="#0071BC" transform="translate(225.7,44.7) scale(3.75)" xlink:href="#gpPt5"/><use color="#0071BC" transform="translate(231.9,46.2) scale(3.75)" xlink:href="#gpPt5"/><use color="#0071BC" transform="translate(238.1,48.3) scale(3.75)" xlink:href="#gpPt5"/><use color="#0071BC" transform="translate(244.3,51.0) scale(3.75)" xlink:href="#gpPt5"/><use color="#0071BC" transform="translate(250.5,54.3) scale(3.75)" xlink:href="#gpPt5"/><use color="#0071BC" transform="translate(256.7,58.1) scale(3.75)" xlink:href="#gpPt5"/><use color="#0071BC" transform="translate(262.9,62.4) scale(3.75)" xlink:href="#gpPt5"/><use color="#0071BC" transform="translate(269.1,67.2) scale(3.75)" xlink:href="#gpPt5"/><use color="#0071BC" transform="translate(275.3,72.4) scale(3.75)" xlink:href="#gpPt5"/><use color="#0071BC" transform="translate(281.5,78.0) scale(3.75)" xlink:href="#gpPt5"/><use color="#0071BC" transform="translate(287.7,83.9) scale(3.75)" xlink:href="#gpPt5"/><use color="#0071BC" transform="translate(293.8,90.0) scale(3.75)" xlink:href="#gpPt5"/><use color="#0071BC" transform="translate(300.0,96.4) scale(3.75)" xlink:href="#gpPt5"/><use color="#0071BC" transform="translate(306.2,103.0) scale(3.75)" xlink:href="#gpPt5"/><use color="#0071BC" transform="translate(312.4,109.6) scale(3.75)" xlink:href="#gpPt5"/><use color="#0071BC" transform="translate(318.6,116.3) scale(3.75)" xlink:href="#gpPt5"/></g></g><g fill="none" stroke="currentColor" stroke-linecap="butt" stroke-linejoin="miter" stroke-width=".5" color="#000"><path stroke="#000" d="M508.8,320.9 L260.9,395.9"/></g><g fill="none" stroke="currentColor" stroke-linecap="butt" stroke-linejoin="miter" stroke-width=".5" color="#000"><path stroke="#000" d="M70.7,298.1 L260.9,395.9"/></g></g></svg>