<svg xmlns="http://www.w3.org/2000/svg" xmlns:xlink="http://www.w3.org/1999/xlink" width="560" height="420" viewBox="0 0 560 420"><title>Gnuplot</title><desc>Produced by GNUPLOT 5.4 patchlevel 0</desc><g id="gnuplot_canvas"><rect width="560" height="420" x="0" y="0" fill="none"/><defs><circle id="gpDot" r=".5" stroke="currentColor" stroke-width=".5"/><path id="gpPt0" stroke="currentColor" stroke-width=".267" d="M-1,0 h2 M0,-1 v2"/><path id="gpPt1" stroke="currentColor" stroke-width=".267" d="M-1,-1 L1,1 M1,-1 L-1,1"/><path id="gpPt2" stroke="currentColor" stroke-width=".267" d="M-1,0 L1,0 M0,-1 L0,1 M-1,-1 L1,1 M-1,1 L1,-1"/><rect id="gpPt3" width="2" height="2" x="-1" y="-1" stroke="currentColor" stroke-width=".267"/><rect id="gpPt4" width="2" height="2" x="-1" y="-1" fill="currentColor" stroke="currentColor" stroke-width=".267"/><circle id="gpPt5" cx="0" cy="0" r="1" stroke="currentColor" stroke-width=".267"/><use id="gpPt6" fill="currentColor" stroke="none" xlink:href="#gpPt5"/><path id="gpPt7" stroke="currentColor" stroke-width=".267" d="M0,-1.33 L-1.33,0.67 L1.33,0.67 z"/><use id="gpPt8" fill="currentColor" stroke="none" xlink:href="#gpPt7"/><use id="gpPt9" stroke="currentColor" transform="rotate(180)" xlink:href="#gpPt7"/><use id="gpPt10" fill="currentColor" stroke="none" xlink:href="#gpPt9"/><use id="gpPt11" stroke="currentColor" transform="rotate(45)" xlink:href="#gpPt3"/><use id="gpPt12" fill="currentColor" stroke="none" xlink:href="#gpPt11"/><path id="gpPt13" stroke="currentColor" stroke-width=".267" d="M0,1.330 L1.265,0.411 L0.782,-1.067 L-0.782,-1.076 L-1.265,0.411 z"/><use id="gpPt14" fill="currentColor" stroke="none" xlink:href="#gpPt13"/><filter id="textbox" width="1" height="1" x="0" y="0" filterUnits="objectBoundingBox"><feFlood flood-color="#fff" flood-opacity="1" result="bgnd"/><feComposite in="SourceGraphic" in2="bgnd" operator="atop"/></filter><filter id="greybox" width="1" height="1" x="0" y="0" filterUnits="objectBoundingBox"><feFlood flood-color="#d3d3d3" flood-opacity="1" result="grey"/><feComposite in="SourceGraphic" in2="grey" operator="atop"/></filter></defs><g fill="none" stroke="currentColor" stroke-linecap="butt" stroke-linejoin="miter" stroke-width=".5" color="#000"><path stroke="#000" d="M72.8,373.8 L78.4,373.8"/><g fill="#0071BC" stroke="none" font-family="Helvetica" font-size="10" text-anchor="end"><text transform="translate(65.8,377.1)"><tspan font-family="Helvetica">0</tspan></text></g></g><g fill="none" stroke="currentColor" stroke-linecap="butt" stroke-linejoin="miter" stroke-width=".5" color="#000"><path stroke="#000" d="M72.8,335.8 L78.4,335.8"/><g fill="#0071BC" stroke="none" font-family="Helvetica" font-size="10" text-anchor="end"><text transform="translate(65.8,339.1)"><tspan font-family="Helvetica">1</tspan></text></g></g><g fill="none" stroke="currentColor" stroke-linecap="butt" stroke-linejoin="miter" stroke-width=".5" color="#000"><path stroke="#000" d="M72.8,297.8 L78.4,297.8"/><g fill="#0071BC" stroke="none" font-family="Helvetica" font-size="10" text-anchor="end"><text transform="translate(65.8,301.1)"><tspan font-family="Helvetica">2</tspan></text></g></g><g fill="none" stroke="currentColor" stroke-linecap="butt" stroke-linejoin="miter" stroke-width=".5" color="#000"><path stroke="#000" d="M72.8,259.7 L78.4,259.7"/><g fill="#0071BC" stroke="none" font-family="Helvetica" font-size="10" text-anchor="end"><text transform="translate(65.8,263.0)"><tspan font-family="Helvetica">3</tspan></text></g></g><g fill="none" stroke="currentColor" stroke-linecap="butt" stroke-linejoin="miter" stroke-width=".5" color="#000"><path stroke="#000" d="M72.8,221.7 L78.4,221.7"/><g fill="#0071BC" stroke="none" font-family="Helvetica" font-size="10" text-anchor="end"><text transform="translate(65.8,225.0)"><tspan font-family="Helvetica">4</tspan></text></g></g><g fill="none" stroke="currentColor" stroke-linecap="butt" stroke-linejoin="miter" stroke-width=".5" color="#000"><path stroke="#000" d="M72.8,183.7 L78.4,183.7"/><g fill="#0071BC" stroke="none" font-family="Helvetica" font-size="10" text-anchor="end"><text transform="translate(65.8,187.0)"><tspan font-family="Helvetica">5</tspan></text></g></g><g fill="none" stroke="currentColor" stroke-linecap="butt" stroke-linejoin="miter" stroke-width=".5" color="#000"><path stroke="#000" d="M72.8,145.7 L78.4,145.7"/><g fill="#0071BC" stroke="none" font-family="Helvetica" font-size="10" text-anchor="end"><text transform="translate(65.8,149.0)"><tspan font-family="Helvetica">6</tspan></text></g></g><g fill="none" stroke="currentColor" stroke-linecap="butt" stroke-linejoin="miter" stroke-width=".5" color="#000"><path stroke="#000" d="M72.8,107.6 L78.4,107.6"/><g fill="#0071BC" stroke="none" font-family="Helvetica" font-size="10" text-anchor="end"><text transform="translate(65.8,110.9)"><tspan font-family="Helvetica">7</tspan></text></g></g><g fill="none" stroke="currentColor" stroke-linecap="butt" stroke-linejoin="miter" stroke-width=".5" color="#000"><path stroke="#000" d="M72.8,69.6 L78.4,69.6"/><g fill="#0071BC" stroke="none" font-family="Helvetica" font-size="10" text-anchor="end"><text transform="translate(65.8,72.9)"><tspan font-family="Helvetica">8</tspan></text></g></g><g fill="none" stroke="currentColor" stroke-linecap="butt" stroke-linejoin="miter" stroke-width=".5" color="#000"><path stroke="#000" d="M72.8,31.6 L78.4,31.6"/><g fill="#0071BC" stroke="none" font-family="Helvetica" font-size="10" text-anchor="end"><text transform="translate(65.8,34.9)"><tspan font-family="Helvetica">9</tspan></text></g></g><g fill="none" stroke="currentColor" stroke-linecap="butt" stroke-linejoin="miter" stroke-width=".5" color="#000"><path stroke="#000" d="M181.3,373.8 L181.3,368.2"/><g fill="#262626" stroke="none" font-family="Helvetica" font-size="10" text-anchor="middle"><text transform="translate(181.3,392.1)"><tspan font-family="Helvetica">1</tspan></text></g></g><g fill="none" stroke="currentColor" stroke-linecap="butt" stroke-linejoin="miter" stroke-width=".5" color="#000"><path stroke="#000" d="M289.8,373.8 L289.8,368.2"/><g fill="#262626" stroke="none" font-family="Helvetica" font-size="10" text-anchor="middle"><text transform="translate(289.8,392.1)"><tspan font-family="Helvetica">2</tspan></text></g></g><g fill="none" stroke="currentColor" stroke-linecap="butt" stroke-linejoin="miter" stroke-width=".5" color="#000"><path stroke="#000" d="M398.2,373.8 L398.2,368.2"/><g fill="#262626" stroke="none" font-family="Helvetica" font-size="10" text-anchor="middle"><text transform="translate(398.2,392.1)"><tspan font-family="Helvetica">3</tspan></text></g></g><g fill="none" stroke="currentColor" stroke-linecap="butt" stroke-linejoin="miter" stroke-width=".5" color="#000"><path stroke="#000" d="M506.7,373.8 L501.1,373.8"/><g fill="#D85218" stroke="none" font-family="Helvetica" font-size="10" text-anchor="start"><text transform="translate(513.7,377.1)"><tspan font-family="Helvetica">1</tspan></text></g></g><g fill="none" stroke="currentColor" stroke-linecap="butt" stroke-linejoin="miter" stroke-width=".5" color="#000"><path stroke="#000" d="M506.7,331.0 L501.1,331.0"/><g fill="#D85218" stroke="none" font-family="Helvetica" font-size="10" text-anchor="start"><text transform="translate(513.7,334.3)"><tspan font-family="Helvetica">1.5</tspan></text></g></g><g fill="none" stroke="currentColor" stroke-linecap="butt" stroke-linejoin="miter" stroke-width=".5" color="#000"><path stroke="#000" d="M506.7,288.2 L501.1,288.2"/><g fill="#D85218" stroke="none" font-family="Helvetica" font-size="10" text-anchor="start"><text transform="translate(513.7,291.5)"><tspan font-family="Helvetica">2</tspan></text></g></g><g fill="none" stroke="currentColor" stroke-linecap="butt" stroke-linejoin="miter" stroke-width=".5" color="#000"><path stroke="#000" d="M506.7,245.5 L501.1,245.5"/><g fill="#D85218" stroke="none" font-family="Helvetica" font-size="10" text-anchor="start"><text transform="translate(513.7,248.8)"><tspan font-family="Helvetica">2.5</tspan></text></g></g><g fill="none" stroke="currentColor" stroke-linecap="butt" stroke-linejoin="miter" stroke-width=".5" color="#000"><path stroke="#000" d="M506.7,202.7 L501.1,202.7"/><g fill="#D85218" stroke="none" font-family="Helvetica" font-size="10" text-anchor="start"><text transform="translate(513.7,206.0)"><tspan font-family="Helvetica">3</tspan></text></g></g><g fill="none" stroke="currentColor" stroke-linecap="butt" stroke-linejoin="miter" stroke-width=".5" color="#000"><path stroke="#000" d="M506.7,159.9 L501.1,159.9"/><g fill="#D85218" stroke="none" font-family="Helvetica" font-size="10" text-anchor="start"><text transform="translate(513.7,163.2)"><tspan font-family="Helvetica">3.5</tspan></text></g></g><g fill="none" stroke="currentColor" stroke-linecap="butt" stroke-linejoin="miter" stroke-width=".5" color="#000"><path stroke="#000" d="M506.7,117.1 L501.1,117.1"/><g fill="#D85218" stroke="none" font-family="Helvetica" font-size="10" text-anchor="start"><text transform="translate(513.7,120.4)"><tspan font-family="Helvetica">4</tspan></text></g></g><g fill="none" stroke="currentColor" stroke-linecap="butt" stroke-linejoin="miter" stroke-width=".5" color="#000"><path stroke="#000" d="M506.7,74.4 L501.1,74.4"/><g fill="#D85218" stroke="none" font-family="Helvetica" font-size="10" text-anchor="start"><text transform="translate(513.7,77.7)"><tspan font-family="Helvetica">4.5</tspan></text></g></g><g fill="none" stroke="currentColor" stroke-linecap="butt" stroke-linejoin="miter" stroke-width=".5" color="#000"><path stroke="#000" d="M506.7,31.6 L501.1,31.6"/><g fill="#D85218" stroke="none" font-family="Helvetica" font-size="10" text-anchor="start"><text transform="translate(513.7,34.9)"><tspan font-family="Helvetica">5</tspan></text></g></g><g fill="none" stroke="currentColor" stroke-linecap="butt" stroke-linejoin="miter" stroke-width="1" color="#000"><path stroke="#000" d="M72.8,373.8 L506.7,373.8"/></g><g fill="none" stroke="currentColor" stroke-linecap="butt" stroke-linejoin="miter" stroke-width=".5" color="#000"><path stroke="#000" d="M72.8,31.6 L72.8,373.8 L506.7,373.8 L506.7,31.6 L72.8,31.6 Z"/></g><g fill="none" stroke="currentColor" stroke-linecap="butt" stroke-linejoin="miter" stroke-width=".5" color="#000"><path stroke="#000" d="M399.8,138.1 L399.8,39.1 L499.7,39.1 L499.7,138.1 L399.8,138.1 Z"/></g><g id="gnuplot_plot_1a"><title>gnuplot_plot_1a</title><g fill="none" stroke="currentColor" stroke-linecap="butt" stroke-linejoin="miter" stroke-width=".5" color="#000"><g stroke="none" shape-rendering="crispEdges"><polygon fill="#0071BC" points="140.8 373.8 164 373.8 164 69.5 140.8 69.5"/></g><path stroke="#000" d="M140.8,373.8 L140.8,69.6 L163.9,69.6 L163.9,373.8 L140.8,373.8 Z"/></g><g fill="none" stroke="currentColor" stroke-linecap="butt" stroke-linejoin="miter" stroke-width=".5" color="#000"><g stroke="none" shape-rendering="crispEdges"><polygon fill="#0071BC" points="249.3 373.8 272.5 373.8 272.5 259.6 249.3 259.6"/></g><path stroke="#000" d="M249.3,373.8 L249.3,259.7 L272.4,259.7 L272.4,373.8 L249.3,373.8 Z"/></g><g fill="none" stroke="currentColor" stroke-linecap="butt" stroke-linejoin="miter" stroke-width=".5" color="#000"><g stroke="none" shape-rendering="crispEdges"><polygon fill="#0071BC" points="357.7 373.8 381 373.8 381 221.6 357.7 221.6"/></g><path stroke="#000" d="M357.7,373.8 L357.7,221.7 L380.9,221.7 L380.9,373.8 L357.7,373.8 Z"/></g></g><g id="gnuplot_plot_2a"><title>gnuplot_plot_2a</title><g fill="none" stroke="currentColor" stroke-linecap="butt" stroke-linejoin="miter" stroke-width=".5" color="#000"><g stroke="none" shape-rendering="crispEdges"><polygon fill="#D85218" points="169.7 373.8 192.9 373.8 192.9 335.7 169.7 335.7"/></g><path stroke="#000" d="M169.7,373.8 L169.7,335.8 L192.8,335.8 L192.8,373.8 L169.7,373.8 Z"/></g><g fill="none" stroke="currentColor" stroke-linecap="butt" stroke-linejoin="miter" stroke-width=".5" color="#000"><g stroke="none" shape-rendering="crispEdges"><polygon fill="#D85218" points="278.2 373.8 301.4 373.8 301.4 183.6 278.2 183.6"/></g><path stroke="#000" d="M278.2,373.8 L278.2,183.7 L301.3,183.7 L301.3,373.8 L278.2,373.8 Z"/></g><g fill="none" stroke="currentColor" stroke-linecap="butt" stroke-linejoin="miter" stroke-width=".5" color="#000"><g stroke="none" shape-rendering="crispEdges"><polygon fill="#D85218" points="386.7 373.8 409.9 373.8 409.9 31.5 386.7 31.5"/></g><path stroke="#000" d="M386.7,373.8 L386.7,31.6 L409.8,31.6 L409.8,373.8 L386.7,373.8 Z"/></g></g><g id="gnuplot_plot_3a"><title>gnuplot_plot_3a</title><g fill="none" stroke="currentColor" stroke-linecap="butt" stroke-linejoin="miter" stroke-width=".5" color="#000"><g stroke="none" shape-rendering="crispEdges"><polygon fill="#ECB01F" points="198.6 373.8 221.9 373.8 221.9 145.6 198.6 145.6"/></g><path stroke="#000" d="M198.6,373.8 L198.6,145.7 L221.8,145.7 L221.8,373.8 L198.6,373.8 Z"/></g><g fill="none" stroke="currentColor" stroke-linecap="butt" stroke-linejoin="miter" stroke-width=".5" color="#000"><g stroke="none" shape-rendering="crispEdges"><polygon fill="#ECB01F" points="307.1 373.8 330.3 373.8 330.3 107.5 307.1 107.5"/></g><path stroke="#000" d="M307.1,373.8 L307.1,107.6 L330.2,107.6 L330.2,373.8 L307.1,373.8 Z"/></g><g fill="none" stroke="currentColor" stroke-linecap="butt" stroke-linejoin="miter" stroke-width=".5" color="#000"><g stroke="none" shape-rendering="crispEdges"><polygon fill="#ECB01F" points="415.6 373.8 438.8 373.8 438.8 297.7 415.6 297.7"/></g><path stroke="#000" d="M415.6,373.8 L415.6,297.8 L438.7,297.8 L438.7,373.8 L415.6,373.8 Z"/></g></g><g id="gnuplot_plot_4a"><title>gnuplot_plot_4a</title><g fill="none" stroke="currentColor" stroke-linecap="butt" stroke-linejoin="miter" stroke-width="1" color="#000"><use color="#7D2E8D" transform="translate(181.3,288.2) scale(3.75)" xlink:href="#gpPt6"/><use color="#7D2E8D" transform="translate(289.8,31.6) scale(3.75)" xlink:href="#gpPt6"/><use color="#7D2E8D" transform="translate(398.2,288.2) scale(3.75)" xlink:href="#gpPt6"/></g></g><g id="gnuplot_plot_5a"><title>gnuplot_plot_5a</title><g fill="none" stroke="currentColor" stroke-linecap="butt" stroke-linejoin="miter" stroke-width="1" color="#000"><use color="#76AB2F" transform="translate(181.3,202.7) scale(3.75)" xlink:href="#gpPt6"/><use color="#76AB2F" transform="translate(289.8,117.1) scale(3.75)" xlink:href="#gpPt6"/><use color="#76AB2F" transform="translate(398.2,373.8) scale(3.75)" xlink:href="#gpPt6"/></g></g><g id="gnuplot_plot_6a"><title>gnuplot_plot_6a</title><g fill="none" stroke="currentColor" stroke-linecap="butt" stroke-linejoin="miter" stroke-width="1" color="#000"><use color="#4CBDED" transform="translate(181.3,117.1) scale(3.75)" xlink:href="#gpPt6"/><use color="#4CBDED" transform="translate(289.8,288.2) scale(3.75)" xlink:href="#gpPt6"/><use color="#4CBDED" transform="translate(398.2,117.1) scale(3.75)" xlink:href="#gpPt6"/></g></g><g id="gnuplot_plot_7a"><title>data1</title></g><g id="gnuplot_plot_8a"><title>data1</title></g><g id="gnuplot_plot_9a"><title>data1</title></g><g id="gnuplot_plot_10a"><title>data2</title></g><g id="gnuplot_plot_11a"><title>data3</title></g><g id="gnuplot_plot_12a"><title>data4</title></g><g stroke="none" shape-rendering="crispEdges"><polygon fill="#fff" points="399.8 138.1 499.7 138.1 499.7 39.1 399.8 39.1"/></g><g fill="none" stroke="currentColor" stroke-linecap="butt" stroke-linejoin="miter" stroke-width=".5" color="#000"><path stroke="#000" d="M399.8,138.1 L399.8,39.1 L499.7,39.1 L499.7,138.1 L399.8,138.1 Z"/></g><g id="gnuplot_plot_1a"><title>gnuplot_plot_1a</title></g><g id="gnuplot_plot_2a"><title>gnuplot_plot_2a</title></g><g id="gnuplot_plot_3a"><title>gnuplot_plot_3a</title></g><g id="gnuplot_plot_4a"><title>gnuplot_plot_4a</title></g><g id="gnuplot_plot_5a"><title>gnuplot_plot_5a</title></g><g id="gnuplot_plot_6a"><title>gnuplot_plot_6a</title></g><g id="gnuplot_plot_7a"><title>data1</title><g fill="none" stroke="currentColor" stroke-linecap="butt" stroke-linejoin="miter" stroke-width="1" color="#000"><g fill="#000" stroke="none" font-family="Helvetica" font-size="11" text-anchor="start"><text transform="translate(453.5,51.0)"><tspan font-family="Helvetica">data1</tspan></text></g></g><g fill="none" stroke="currentColor" stroke-linecap="butt" stroke-linejoin="miter" stroke-width="1" color="#000"><g stroke="none" shape-rendering="crispEdges"><polygon fill="#0071BC" points="407.5 51.5 445.8 51.5 445.8 43.3 407.5 43.3"/></g><path stroke="#000" d="M407.5,51.5 L445.8,51.5 L445.8,43.3 L407.5,43.3 L407.5,51.5 Z"/></g></g><g id="gnuplot_plot_8a"><title>data1</title><g fill="none" stroke="currentColor" stroke-linecap="butt" stroke-linejoin="miter" stroke-width="1" color="#000"><g fill="#000" stroke="none" font-family="Helvetica" font-size="11" text-anchor="start"><text transform="translate(453.5,67.5)"><tspan font-family="Helvetica">data1</tspan></text></g></g><g fill="none" stroke="currentColor" stroke-linecap="butt" stroke-linejoin="miter" stroke-width="1" color="#000"><g stroke="none" shape-rendering="crispEdges"><polygon fill="#D85218" points="407.5 68 445.8 68 445.8 59.8 407.5 59.8"/></g><path stroke="#000" d="M407.5,68.0 L445.8,68.0 L445.8,59.8 L407.5,59.8 L407.5,68.0 Z"/></g></g><g id="gnuplot_plot_9a"><title>data1</title><g fill="none" stroke="currentColor" stroke-linecap="butt" stroke-linejoin="miter" stroke-width="1" color="#000"><g fill="#000" stroke="none" font-family="Helvetica" font-size="11" text-anchor="start"><text transform="translate(453.5,84.0)"><tspan font-family="Helvetica">data1</tspan></text></g></g><g fill="none" stroke="currentColor" stroke-linecap="butt" stroke-linejoin="miter" stroke-width="1" color="#000"><g stroke="none" shape-rendering="crispEdges"><polygon fill="#ECB01F" points="407.5 84.5 445.8 84.5 445.8 76.3 407.5 76.3"/></g><path stroke="#000" d="M407.5,84.5 L445.8,84.5 L445.8,76.3 L407.5,76.3 L407.5,84.5 Z"/></g></g><g id="gnuplot_plot_10a"><title>data2</title><g fill="none" stroke="currentColor" stroke-linecap="butt" stroke-linejoin="miter" stroke-width="1" color="#000"><g fill="#000" stroke="none" font-family="Helvetica" font-size="11" text-anchor="start"><text transform="translate(453.5,100.5)"><tspan font-family="Helvetica">data2</tspan></text></g></g><g fill="none" stroke="currentColor" stroke-linecap="butt" stroke-linejoin="miter" stroke-width="1" color="#000"><use color="#7D2E8D" transform="translate(426.7,96.9) scale(3.75)" xlink:href="#gpPt6"/></g></g><g id="gnuplot_plot_11a"><title>data3</title><g fill="none" stroke="currentColor" stroke-linecap="butt" stroke-linejoin="miter" stroke-width="1" color="#000"><g fill="#000" stroke="none" font-family="Helvetica" font-size="11" text-anchor="start"><text transform="translate(453.5,117.0)"><tspan font-family="Helvetica">data3</tspan></text></g></g><g fill="none" stroke="currentColor" stroke-linecap="butt" stroke-linejoin="miter" stroke-width="1" color="#000"><use color="#76AB2F" transform="translate(426.7,113.4) scale(3.75)" xlink:href="#gpPt6"/></g></g><g id="gnuplot_plot_12a"><title>data4</title><g fill="none" stroke="currentColor" stroke-linecap="butt" stroke-linejoin="miter" stroke-width="1" color="#000"><g fill="#000" stroke="none" font-family="Helvetica" font-size="11" text-anchor="start"><text transform="translate(453.5,133.5)"><tspan font-family="Helvetica">data4</tspan></text></g></g><g fill="none" stroke="currentColor" stroke-linecap="butt" stroke-linejoin="miter" stroke-width="1" color="#000"><use color="#4CBDED" transform="translate(426.7,129.9) scale(3.75)" xlink:href="#gpPt6"/></g></g><g fill="none" stroke="currentColor" stroke-linecap="butt" stroke-linejoin="miter" stroke-width=".5" color="#000"><path stroke="#000" d="M72.8,31.6 L72.8,373.8 L506.7,373.8 L506.7,31.6 L72.8,31.6 Z"/></g></g></svg>