<svg xmlns="http://www.w3.org/2000/svg" xmlns:xlink="http://www.w3.org/1999/xlink" width="560" height="420" viewBox="0 0 560 420"><title>Gnuplot</title><desc>Produced by GNUPLOT 5.4 patchlevel 0</desc><g id="gnuplot_canvas"><rect width="560" height="420" x="0" y="0" fill="none"/><defs><circle id="gpDot" r=".5" stroke="currentColor" stroke-width=".5"/><path id="gpPt0" stroke="currentColor" stroke-width=".267" d="M-1,0 h2 M0,-1 v2"/><path id="gpPt1" stroke="currentColor" stroke-width=".267" d="M-1,-1 L1,1 M1,-1 L-1,1"/><path id="gpPt2" stroke="currentColor" stroke-width=".267" d="M-1,0 L1,0 M0,-1 L0,1 M-1,-1 L1,1 M-1,1 L1,-1"/><rect id="gpPt3" width="2" height="2" x="-1" y="-1" stroke="currentColor" stroke-width=".267"/><rect id="gpPt4" width="2" height="2" x="-1" y="-1" fill="currentColor" stroke="currentColor" stroke-width=".267"/><circle id="gpPt5" cx="0" cy="0" r="1" stroke="currentColor" stroke-width=".267"/><use id="gpPt6" fill="currentColor" stroke="none" xlink:href="#gpPt5"/><path id="gpPt7" stroke="currentColor" stroke-width=".267" d="M0,-1.33 L-1.33,0.67 L1.33,0.67 z"/><use id="gpPt8" fill="currentColor" stroke="none" xlink:href="#gpPt7"/><use id="gpPt9" stroke="currentColor" transform="rotate(180)" xlink:href="#gpPt7"/><use id="gpPt10" fill="currentColor" stroke="none" xlink:href="#gpPt9"/><use id="gpPt11" stroke="currentColor" transform="rotate(45)" xlink:href="#gpPt3"/><use id="gpPt12" fill="currentColor" stroke="none" xlink:href="#gpPt11"/><path id="gpPt13" stroke="currentColor" stroke-width=".267" d="M0,1.330 L1.265,0.411 L0.782,-1.067 L-0.782,-1.076 L-1.265,0.411 z"/><use id="gpPt14" fill="currentColor" stroke="none" xlink:href="#gpPt13"/><filter id="textbox" width="1" height="1" x="0" y="0" filterUnits="objectBoundingBox"><feFlood flood-color="#fff" flood-opacity="1" result="bgnd"/><feComposite in="SourceGraphic" in2="bgnd" operator="atop"/></filter><filter id="greybox" width="1" height="1" x="0" y="0" filterUnits="objectBoundingBox"><feFlood flood-color="#d3d3d3" flood-opacity="1" result="grey"/><feComposite in="SourceGraphic" in2="grey" operator="atop"/></filter></defs><g fill="none" stroke="currentColor" stroke-linecap="butt" stroke-linejoin="miter" stroke-width=".5" color="#000"><path stroke="#000" d="M72.8,174.8 L78.4,174.8"/><g fill="#262626" stroke="none" font-family="Helvetica" font-size="10" text-anchor="end"><text transform="translate(65.8,178.1)"><tspan font-family="Helvetica">0</tspan></text></g></g><g fill="none" stroke="currentColor" stroke-linecap="butt" stroke-linejoin="miter" stroke-width=".5" color="#000"><path stroke="#000" d="M72.8,146.2 L78.4,146.2"/><g fill="#262626" stroke="none" font-family="Helvetica" font-size="10" text-anchor="end"><text transform="translate(65.8,149.5)"><tspan font-family="Helvetica">0.2</tspan></text></g></g><g fill="none" stroke="currentColor" stroke-linecap="butt" stroke-linejoin="miter" stroke-width=".5" color="#000"><path stroke="#000" d="M72.8,117.5 L78.4,117.5"/><g fill="#262626" stroke="none" font-family="Helvetica" font-size="10" text-anchor="end"><text transform="translate(65.8,120.8)"><tspan font-family="Helvetica">0.4</tspan></text></g></g><g fill="none" stroke="currentColor" stroke-linecap="butt" stroke-linejoin="miter" stroke-width=".5" color="#000"><path stroke="#000" d="M72.8,88.9 L78.4,88.9"/><g fill="#262626" stroke="none" font-family="Helvetica" font-size="10" text-anchor="end"><text transform="translate(65.8,92.2)"><tspan font-family="Helvetica">0.6</tspan></text></g></g><g fill="none" stroke="currentColor" stroke-linecap="butt" stroke-linejoin="miter" stroke-width=".5" color="#000"><path stroke="#000" d="M72.8,60.2 L78.4,60.2"/><g fill="#262626" stroke="none" font-family="Helvetica" font-size="10" text-anchor="end"><text transform="translate(65.8,63.5)"><tspan font-family="Helvetica">0.8</tspan></text></g></g><g fill="none" stroke="currentColor" stroke-linecap="butt" stroke-linejoin="miter" stroke-width=".5" color="#000"><path stroke="#000" d="M72.8,31.6 L78.4,31.6"/><g fill="#262626" stroke="none" font-family="Helvetica" font-size="10" text-anchor="end"><text transform="translate(65.8,34.9)"><tspan font-family="Helvetica">1</tspan></text></g></g><g fill="none" stroke="currentColor" stroke-linecap="butt" stroke-linejoin="miter" stroke-width=".5" color="#000"><path stroke="#000" d="M72.8,174.8 L72.8,169.2"/><g fill="#262626" stroke="none" font-family="Helvetica" font-size="10" text-anchor="middle"><text transform="translate(72.8,193.1)"><tspan font-family="Helvetica">-10</tspan></text></g></g><g fill="none" stroke="currentColor" stroke-linecap="butt" stroke-linejoin="miter" stroke-width=".5" color="#000"><path stroke="#000" d="M181.3,174.8 L181.3,169.2"/><g fill="#262626" stroke="none" font-family="Helvetica" font-size="10" text-anchor="middle"><text transform="translate(181.3,193.1)"><tspan font-family="Helvetica">-5</tspan></text></g></g><g fill="none" stroke="currentColor" stroke-linecap="butt" stroke-linejoin="miter" stroke-width=".5" color="#000"><path stroke="#000" d="M289.8,174.8 L289.8,169.2"/><g fill="#262626" stroke="none" font-family="Helvetica" font-size="10" text-anchor="middle"><text transform="translate(289.8,193.1)"><tspan font-family="Helvetica">0</tspan></text></g></g><g fill="none" stroke="currentColor" stroke-linecap="butt" stroke-linejoin="miter" stroke-width=".5" color="#000"><path stroke="#000" d="M398.2,174.8 L398.2,169.2"/><g fill="#262626" stroke="none" font-family="Helvetica" font-size="10" text-anchor="middle"><text transform="translate(398.2,193.1)"><tspan font-family="Helvetica">5</tspan></text></g></g><g fill="none" stroke="currentColor" stroke-linecap="butt" stroke-linejoin="miter" stroke-width=".5" color="#000"><path stroke="#000" d="M506.7,174.8 L506.7,169.2"/><g fill="#262626" stroke="none" font-family="Helvetica" font-size="10" text-anchor="middle"><text transform="translate(506.7,193.1)"><tspan font-family="Helvetica">10</tspan></text></g></g><g fill="none" stroke="currentColor" stroke-linecap="butt" stroke-linejoin="miter" stroke-width=".5" color="#000"><path stroke="#000" d="M72.8,31.6 L72.8,174.8 L506.7,174.8 L506.7,31.6 L72.8,31.6 Z"/></g><g id="gnuplot_plot_1a"><title>2</title></g><g fill="none" stroke="currentColor" stroke-linecap="butt" stroke-linejoin="miter" stroke-width=".5" color="#000"><path stroke="#000" d="M72.8,31.6 L72.8,174.8 L506.7,174.8 L506.7,31.6 L72.8,31.6 Z"/></g><g fill="none" stroke="currentColor" stroke-linecap="butt" stroke-linejoin="miter" stroke-width=".5" color="#000"><path stroke="#000" d="M72.8,373.8 L78.4,373.8"/><g fill="#262626" stroke="none" font-family="Helvetica" font-size="10" text-anchor="end"><text transform="translate(65.8,377.1)"><tspan font-family="Helvetica">-3</tspan></text></g></g><g fill="none" stroke="currentColor" stroke-linecap="butt" stroke-linejoin="miter" stroke-width=".5" color="#000"><path stroke="#000" d="M72.8,349.9 L78.4,349.9"/><g fill="#262626" stroke="none" font-family="Helvetica" font-size="10" text-anchor="end"><text transform="translate(65.8,353.2)"><tspan font-family="Helvetica">-2</tspan></text></g></g><g fill="none" stroke="currentColor" stroke-linecap="butt" stroke-linejoin="miter" stroke-width=".5" color="#000"><path stroke="#000" d="M72.8,326.1 L78.4,326.1"/><g fill="#262626" stroke="none" font-family="Helvetica" font-size="10" text-anchor="end"><text transform="translate(65.8,329.4)"><tspan font-family="Helvetica">-1</tspan></text></g></g><g fill="none" stroke="currentColor" stroke-linecap="butt" stroke-linejoin="miter" stroke-width=".5" color="#000"><path stroke="#000" d="M72.8,302.2 L78.4,302.2"/><g fill="#262626" stroke="none" font-family="Helvetica" font-size="10" text-anchor="end"><text transform="translate(65.8,305.5)"><tspan font-family="Helvetica">0</tspan></text></g></g><g fill="none" stroke="currentColor" stroke-linecap="butt" stroke-linejoin="miter" stroke-width=".5" color="#000"><path stroke="#000" d="M72.8,278.3 L78.4,278.3"/><g fill="#262626" stroke="none" font-family="Helvetica" font-size="10" text-anchor="end"><text transform="translate(65.8,281.6)"><tspan font-family="Helvetica">1</tspan></text></g></g><g fill="none" stroke="currentColor" stroke-linecap="butt" stroke-linejoin="miter" stroke-width=".5" color="#000"><path stroke="#000" d="M72.8,254.5 L78.4,254.5"/><g fill="#262626" stroke="none" font-family="Helvetica" font-size="10" text-anchor="end"><text transform="translate(65.8,257.8)"><tspan font-family="Helvetica">2</tspan></text></g></g><g fill="none" stroke="currentColor" stroke-linecap="butt" stroke-linejoin="miter" stroke-width=".5" color="#000"><path stroke="#000" d="M72.8,230.6 L78.4,230.6"/><g fill="#262626" stroke="none" font-family="Helvetica" font-size="10" text-anchor="end"><text transform="translate(65.8,233.9)"><tspan font-family="Helvetica">3</tspan></text></g></g><g fill="none" stroke="currentColor" stroke-linecap="butt" stroke-linejoin="miter" stroke-width=".5" color="#000"><path stroke="#000" d="M72.8,373.8 L72.8,368.2"/><g fill="#262626" stroke="none" font-family="Helvetica" font-size="10" text-anchor="middle"><text transform="translate(72.8,392.1)"><tspan font-family="Helvetica">-3</tspan></text></g></g><g fill="none" stroke="currentColor" stroke-linecap="butt" stroke-linejoin="miter" stroke-width=".5" color="#000"><path stroke="#000" d="M141.4,373.8 L141.4,368.2"/><g fill="#262626" stroke="none" font-family="Helvetica" font-size="10" text-anchor="middle"><text transform="translate(141.4,392.1)"><tspan font-family="Helvetica">-2</tspan></text></g></g><g fill="none" stroke="currentColor" stroke-linecap="butt" stroke-linejoin="miter" stroke-width=".5" color="#000"><path stroke="#000" d="M210.0,373.8 L210.0,368.2"/><g fill="#262626" stroke="none" font-family="Helvetica" font-size="10" text-anchor="middle"><text transform="translate(210.0,392.1)"><tspan font-family="Helvetica">-1</tspan></text></g></g><g fill="none" stroke="currentColor" stroke-linecap="butt" stroke-linejoin="miter" stroke-width=".5" color="#000"><path stroke="#000" d="M278.6,373.8 L278.6,368.2"/><g fill="#262626" stroke="none" font-family="Helvetica" font-size="10" text-anchor="middle"><text transform="translate(278.6,392.1)"><tspan font-family="Helvetica">0</tspan></text></g></g><g fill="none" stroke="currentColor" stroke-linecap="butt" stroke-linejoin="miter" stroke-width=".5" color="#000"><path stroke="#000" d="M347.1,373.8 L347.1,368.2"/><g fill="#262626" stroke="none" font-family="Helvetica" font-size="10" text-anchor="middle"><text transform="translate(347.1,392.1)"><tspan font-family="Helvetica">1</tspan></text></g></g><g fill="none" stroke="currentColor" stroke-linecap="butt" stroke-linejoin="miter" stroke-width=".5" color="#000"><path stroke="#000" d="M415.7,373.8 L415.7,368.2"/><g fill="#262626" stroke="none" font-family="Helvetica" font-size="10" text-anchor="middle"><text transform="translate(415.7,392.1)"><tspan font-family="Helvetica">2</tspan></text></g></g><g fill="none" stroke="currentColor" stroke-linecap="butt" stroke-linejoin="miter" stroke-width=".5" color="#000"><path stroke="#000" d="M484.3,373.8 L484.3,368.2"/><g fill="#262626" stroke="none" font-family="Helvetica" font-size="10" text-anchor="middle"><text transform="translate(484.3,392.1)"><tspan font-family="Helvetica">3</tspan></text></g></g><g fill="none" stroke="currentColor" stroke-linecap="butt" stroke-linejoin="miter" stroke-width=".5" color="#000"><path stroke="#000" d="M72.8,230.6 L72.8,373.8 L484.3,373.8 L484.3,230.6 L72.8,230.6 Z"/></g><g id="gnuplot_plot_1b"><title>&apos;-&apos;</title><g fill="none" stroke="currentColor" stroke-linecap="butt" stroke-linejoin="miter" stroke-width=".5" color="#000"><path stroke="#412DBB" d="M287.6,347.1 L285.7,346.9 L274.3,344.0 L274.3,342.5 L273.7,341.0 L275.7,340.0 L278.8,338.1 L278.9,338.0 L284.2,337.0 L290.0,336.0 L296.5,335.3 L309.6,336.9 L313.7,338.0 L313.8,338.3 L315.2,341.0 L314.6,341.6 L312.1,343.7 L311.7,344.0 L307.7,345.1 L302.4,346.3 L297.5,346.9 L296.1,347.1 L287.6,347.1"/></g></g><g id="gnuplot_plot_2b"><title>&apos;-&apos;</title><g fill="none" stroke="currentColor" stroke-linecap="butt" stroke-linejoin="miter" stroke-width=".5" color="#000"><path stroke="#406DFE" d="M273.0,354.0 L265.5,352.9 L254.5,349.9 L249.5,346.9 L249.2,345.7 L248.2,344.0 L249.2,342.7 L250.1,341.0 L251.2,340.4 L254.5,338.6 L255.3,338.0 L258.4,336.9 L262.7,335.5 L264.0,335.0 L267.5,334.1 L272.6,332.9 L276.4,332.0 L277.8,331.8 L283.7,330.8 L289.8,330.0 L296.2,329.2 L299.8,329.0 L303.8,328.9 L309.2,329.0 L313.8,329.4 L327.7,332.0 L335.3,335.0 L339.2,338.0 L339.3,338.3 L340.4,341.0 L340.3,341.6 L339.1,344.0 L339.0,344.1 L336.5,346.2 L335.2,346.9 L333.2,348.1 L329.1,349.6 L328.1,349.9 L324.6,351.0 L319.4,352.2 L315.5,352.9 L313.8,353.2 L307.6,354.1 L300.7,354.6 L292.9,354.9 L284.0,354.8 L273.0,354.0"/></g></g><g id="gnuplot_plot_3b"><title>&apos;-&apos;</title><g fill="none" stroke="currentColor" stroke-linecap="butt" stroke-linejoin="miter" stroke-width=".5" color="#000"><path stroke="#19ACDC" d="M253.5,362.1 L252.0,361.9 L238.4,358.9 L229.6,355.9 L224.0,352.9 L222.6,351.4 L220.9,349.9 L220.4,347.6 L220.1,346.9 L221.2,344.9 L221.5,344.0 L223.3,342.6 L225.7,341.0 L226.3,340.7 L230.0,339.0 L232.4,338.0 L234.1,337.5 L238.6,336.0 L242.2,335.0 L243.4,334.7 L248.3,333.4 L253.5,332.3 L254.4,332.0 L258.6,331.1 L263.9,329.9 L268.0,329.0 L269.2,328.8 L274.6,327.7 L280.1,326.6 L282.8,326.1 L285.5,325.5 L291.2,324.5 L297.1,323.6 L302.0,323.1 L303.7,322.9 L311.8,322.7 L316.7,323.1 L323.9,323.9 L334.8,326.1 L346.4,329.0 L355.5,332.0 L362.6,335.0 L367.3,338.0 L368.5,339.5 L369.8,341.0 L370.2,343.0 L370.2,344.0 L369.6,345.8 L368.8,346.9 L367.9,348.2 L365.5,349.9 L365.1,350.2 L362.2,352.2 L360.5,352.9 L358.7,354.0 L354.6,355.5 L353.2,355.9 L350.4,357.1 L345.6,358.4 L343.1,358.9 L340.7,359.6 L335.5,360.8 L329.5,361.7 L328.1,361.9 L323.7,362.7 L317.5,363.5 L310.6,364.1 L303.2,364.5 L295.4,364.7 L286.9,364.8 L277.6,364.5 L266.9,363.8 L253.5,362.1"/><path stroke="#19ACDC" d="M160.0,314.7 L155.5,314.1 L145.2,311.1 L140.2,308.2 L139.7,307.6 L137.2,305.2 L136.5,303.5 L135.7,302.2 L135.6,300.2 L135.4,299.2 L135.8,297.3 L136.1,296.2 L136.9,294.7 L137.8,293.2 L138.5,292.3 L140.7,290.3 L140.9,290.1 L143.5,288.0 L144.8,287.3 L146.6,286.1 L150.5,284.5 L151.0,284.3 L154.5,282.9 L159.6,281.7 L161.8,281.3 L165.1,280.6 L171.8,280.0 L180.0,279.8 L190.5,280.5 L196.3,281.3 L207.6,283.5 L211.0,284.3 L219.0,287.3 L219.2,287.5 L222.7,290.3 L222.9,291.8 L223.4,293.2 L222.6,294.7 L222.2,296.2 L221.2,297.2 L219.6,299.2 L219.3,299.5 L216.5,301.5 L215.7,302.2 L213.5,303.4 L210.7,305.2 L210.4,305.3 L206.5,306.9 L203.8,308.2 L202.7,308.6 L198.2,310.0 L194.8,311.1 L193.7,311.5 L188.4,312.6 L183.1,313.7 L180.3,314.1 L176.9,314.6 L169.5,315.0 L160.0,314.7"/></g></g><g id="gnuplot_plot_4b"><title>&apos;-&apos;</title><g fill="none" stroke="currentColor" stroke-linecap="butt" stroke-linejoin="miter" stroke-width=".5" color="#000"><path stroke="#12BEB9" d="M185.7,373.8 L182.4,370.8 L182.3,370.1 L179.4,367.8 L179.0,366.0 L177.6,364.8 L177.2,362.4 L176.6,361.9 L176.7,359.2 L176.4,358.9 L177.2,356.4 L177.0,355.9 L178.5,353.9 L178.7,352.9 L180.4,351.6 L182.2,349.9 L183.0,349.5 L186.1,347.6 L186.9,346.9 L189.4,345.8 L193.5,344.2 L193.9,344.0 L197.4,342.6 L202.1,341.2 L202.8,341.0 L206.5,339.8 L211.6,338.6 L213.8,338.0 L216.6,337.3 L221.8,336.1 L227.4,335.1 L227.7,335.0 L232.5,333.9 L238.0,332.8 L242.3,332.0 L243.5,331.8 L248.9,330.7 L254.4,329.6 L257.2,329.0 L259.8,328.5 L265.1,327.4 L270.5,326.3 L271.4,326.1 L275.6,325.0 L280.8,323.8 L284.2,323.1 L285.7,322.6 L290.7,321.3 L295.6,320.1 L295.7,320.1 L300.7,318.9 L306.7,317.9 L315.9,318.2 L325.7,320.1 L337.7,322.8 M363.5,328.8 L364.9,329.0 L378.7,332.0 L387.7,334.2 L392.4,335.0 L406.0,338.0 L411.1,339.4 L420.1,341.0 L432.4,344.0 L435.7,344.9 L445.7,346.9 L457.0,349.9 L466.7,352.9 L475.5,355.9 L483.4,358.9 M230.3,285.4 L234.6,287.3 L237.8,290.3 L237.5,290.9 L237.2,293.2 L236.8,293.6 L234.7,295.9 L234.5,296.2 L232.2,298.0 L231.0,299.2 L229.6,300.1 L226.7,302.1 L226.5,302.2 L223.5,303.9 L221.4,305.2 L220.3,305.8 L216.7,307.5 L215.4,308.2 L213.1,309.2 L209.3,310.9 L208.7,311.1 L205.3,312.5 L201.3,314.1 L201.1,314.1 L197.0,315.6 L192.8,317.1 L188.3,318.5 L183.9,320.0 L183.4,320.1 L179.3,321.4 L174.6,322.7 L172.9,323.1 L169.8,324.0 L164.8,325.3 L161.3,326.1 L159.9,326.5 L154.6,327.7 L149.4,328.8 L148.0,329.0 L143.9,329.9 L138.2,330.9 L132.6,332.0 L132.1,332.0 L126.6,332.8 L120.5,333.7 L114.5,334.6 L111.2,335.0 L108.3,335.4 L101.8,336.2 L95.4,336.9 L89.3,337.8 L87.1,338.0 L82.7,338.5 L75.9,339.1 M73.2,254.6 L89.7,257.4 L90.0,257.4 L104.5,259.5 L108.1,260.4 L120.3,262.0 L126.2,263.4 L136.8,264.8 L144.0,266.4 L154.0,267.8 L161.1,269.4 L172.3,271.2 L177.4,272.4 L192.7,275.3 L193.0,275.4 L205.9,278.3 L218.0,281.3 L222.1,282.5 M278.6,302.2 M298.9,297.3 L294.5,296.2 L294.1,295.7 L293.6,293.2 L294.4,292.8 L304.1,293.2 L304.3,293.2 L304.3,293.3 L304.5,296.2 L304.5,296.3 L298.9,297.3 M278.6,302.2"/></g></g><g id="gnuplot_plot_5b"><title>&apos;-&apos;</title><g fill="none" stroke="currentColor" stroke-linecap="butt" stroke-linejoin="miter" stroke-width=".5" color="#000"><path stroke="#48CB86" d="M205.4,330.4 L216.4,331.3 L223.9,330.9 L230.7,330.3 L237.4,329.6 L242.1,329.0 L243.6,328.8 L249.1,327.8 L254.9,326.8 L259.0,326.1 L260.4,325.7 L265.5,324.5 L270.7,323.3 L271.6,323.1 L275.1,321.9 L279.6,320.5 L280.7,320.1 L283.1,318.7 L286.1,317.1 L286.3,316.8 L287.9,314.4 L288.2,314.1 L287.0,311.1 L286.9,311.1 L284.0,308.2 L280.7,305.9 L279.7,305.2 L274.5,302.2 L267.4,299.2 L257.3,297.8 L250.8,298.5 L248.6,299.2 L246.1,299.9 L242.0,301.4 L240.3,302.2 L238.2,303.1 L234.3,304.7 L233.4,305.2 L230.7,306.4 L227.0,308.1 L226.8,308.2 L223.4,309.8 L220.4,311.1 L219.7,311.5 L216.0,313.2 L214.0,314.1 L212.5,315.0 L208.8,316.7 L207.9,317.1 L205.6,318.6 L202.7,320.1 L202.5,320.5 L199.8,322.5 L198.8,323.1 L198.2,325.0 L197.1,326.1 L199.0,328.2 L199.1,329.0 L205.4,330.4"/><path stroke="#48CB86" d="M375.4,324.0 L383.8,323.9 L390.5,323.3 L391.4,323.1 L396.3,322.3 L401.1,321.0 L403.2,320.1 L405.2,319.4 L408.8,317.7 L409.6,317.1 L412.0,315.8 L413.9,314.1 L414.5,313.7 L416.6,311.5 L416.8,311.1 L418.4,309.1 L418.9,308.2 L419.6,306.5 L420.0,305.2 L420.2,303.8 L420.3,302.2 L420.1,300.7 L419.8,299.2 L418.9,297.3 L418.5,296.2 L416.3,293.5 L416.2,293.2 L413.2,290.3 L410.7,288.5 L409.2,287.3 L404.2,284.3 L398.8,281.4 L398.7,281.3 L393.3,278.3 L388.8,275.3 L388.3,274.7 L385.8,272.4 L384.2,270.3 L383.4,269.4 L381.1,266.4 L381.0,266.2 L378.8,263.4 L377.2,262.0 L375.8,260.4 L371.7,257.4 L369.7,256.3 L366.6,254.5 L360.1,251.5 L351.6,248.5 L340.4,245.5 L335.9,244.6 L324.7,242.5 L319.1,241.7 L306.6,240.4 L295.9,239.6 L294.3,239.5 L286.2,239.2 L277.3,239.1 L269.1,239.2 L262.7,239.5 L261.5,239.6 L254.1,240.0 L247.1,240.5 L240.5,241.2 L234.5,242.1 L232.6,242.5 L228.6,243.1 L222.9,244.0 L217.9,245.3 L217.3,245.5 L212.7,246.5 L208.2,247.9 L206.7,248.5 L203.8,249.3 L199.9,251.0 L199.0,251.5 L196.2,252.7 L193.7,254.5 L193.4,254.7 L190.7,256.7 L190.1,257.4 L188.9,259.1 L188.4,260.4 L188.5,261.9 L188.8,263.4 L190.8,265.7 L191.4,266.4 L196.1,269.4 L203.4,272.4 L212.6,275.3 L223.2,278.3 L234.8,281.3 L238.1,282.2 L248.2,284.3 L257.1,285.8 L266.4,286.0 L273.8,285.6 L280.8,285.1 L287.7,284.5 L290.6,284.3 L295.1,284.1 L303.3,284.0 L312.5,284.2 L314.1,284.3 L325.7,287.3 L326.5,289.1 L327.7,290.3 L327.3,292.3 L327.4,293.2 L326.7,295.1 L326.5,296.2 L326.0,297.8 L325.8,299.2 L325.6,300.7 L325.3,302.2 L325.4,303.6 L325.3,305.2 L325.7,306.7 L325.8,308.2 L327.0,310.1 L327.3,311.1 L330.9,314.1 L334.0,315.5 L337.4,317.1 L344.9,319.3 L347.7,320.1 L364.2,323.1 L364.4,323.1 L375.4,324.0"/></g></g><g id="gnuplot_plot_6b"><title>&apos;-&apos;</title><g fill="none" stroke="currentColor" stroke-linecap="butt" stroke-linejoin="miter" stroke-width=".5" color="#000"><path stroke="#E5BB2D" d="M245.5,320.5 L250.0,320.1 L251.1,319.5 L255.1,317.9 L257.2,317.1 L255.8,315.2 L255.8,314.1 L251.1,313.5 L243.8,314.0 L243.2,314.1 L240.6,315.8 L236.3,317.1 L236.9,317.5 L235.9,320.1 L245.5,320.5"/><path stroke="#E5BB2D" d="M365.6,305.6 L369.9,305.2 L362.5,304.6 L363.0,305.2 L365.6,305.6"/><path stroke="#E5BB2D" d="M371.4,304.7 L373.7,302.5 L373.9,302.2 L368.2,299.2 L363.7,299.0 L363.2,299.2 L361.5,301.2 L360.7,302.2 L371.4,304.7"/><path stroke="#E5BB2D" d="M262.1,278.6 L271.4,278.8 L279.7,278.7 L287.4,278.4 L289.0,278.3 L294.8,278.0 L302.2,277.6 L309.4,277.1 L316.4,276.6 L322.8,275.8 L325.6,275.3 L328.7,274.9 L334.2,273.8 L337.8,272.4 L338.2,272.2 L341.6,270.5 L342.6,269.4 L343.6,268.1 L344.2,266.4 L344.0,265.3 L343.4,263.4 L341.6,261.5 L340.7,260.4 L335.8,257.4 L328.1,254.5 L316.3,251.5 L309.7,250.4 L296.6,248.8 L291.9,248.5 L286.3,248.2 L277.3,248.1 L269.2,248.2 L265.1,248.5 L261.9,248.7 L255.0,249.3 L248.7,250.0 L243.0,251.0 L241.0,251.5 L237.6,252.2 L232.7,253.4 L229.7,254.5 L228.4,254.9 L224.4,256.5 L222.8,257.4 L221.3,258.4 L219.1,260.4 L219.0,260.6 L217.8,263.2 L217.8,263.4 L219.0,266.4 L219.3,266.7 L222.7,269.4 L229.3,272.4 L239.5,275.3 L249.7,277.2 L259.0,278.3 L262.1,278.6"/></g></g><g id="gnuplot_plot_7b"><title>&apos;-&apos;</title><g fill="none" stroke="currentColor" stroke-linecap="butt" stroke-linejoin="miter" stroke-width=".5" color="#000"><path stroke="#F7F51B" d="M263.7,273.2 L273.6,273.6 L282.0,273.6 L289.6,273.2 L296.4,272.6 L298.5,272.4 L302.5,271.8 L308.0,270.7 L312.9,269.4 L316.3,267.6 L318.0,266.4 L318.2,265.3 L318.4,263.4 L316.3,261.6 L315.0,260.4 L306.8,257.4 L301.1,256.3 L287.6,254.6 L283.9,254.5 L278.1,254.3 L272.7,254.5 L270.2,254.5 L263.4,255.1 L257.2,256.0 L251.7,257.1 L250.3,257.4 L247.2,258.5 L243.2,260.1 L242.6,260.4 L240.7,262.2 L239.7,263.4 L240.0,264.9 L240.4,266.4 L245.1,269.4 L256.7,272.4 L263.7,273.2"/></g></g><g fill="none" stroke="currentColor" stroke-linecap="butt" stroke-linejoin="miter" stroke-width=".5" color="#000"><path stroke="#000" d="M72.8,230.6 L72.8,373.8 L484.3,373.8 L484.3,230.6 L72.8,230.6 Z"/><g stroke="none" shape-rendering="crispEdges"><polygon fill="#3E27A9" points="494.6 373.8 515.1 373.8 515.1 372.6 494.6 372.6"/><polygon fill="#3F28AF" points="494.6 372.7 515.1 372.7 515.1 371.5 494.6 371.5"/><polygon fill="#402AB5" points="494.6 371.6 515.1 371.6 515.1 370.4 494.6 370.4"/><polygon fill="#412CBA" points="494.6 370.5 515.1 370.5 515.1 369.3 494.6 369.3"/><polygon fill="#422EBF" points="494.6 369.4 515.1 369.4 515.1 369.2 494.6 369.2"/><polygon fill="#422EC0" points="494.6 369.3 515.1 369.3 515.1 368.2 494.6 368.2"/><polygon fill="#4330C5" points="494.6 368.3 515.1 368.3 515.1 367 494.6 367"/><polygon fill="#4332CB" points="494.6 367.1 515.1 367.1 515.1 366.9 494.6 366.9"/><polygon fill="#4433CB" points="494.6 367 515.1 367 515.1 365.9 494.6 365.9"/><polygon fill="#4434D0" points="494.6 366 515.1 366 515.1 364.8 494.6 364.8"/><polygon fill="#4537D5" points="494.6 364.9 515.1 364.9 515.1 364.7 494.6 364.7"/><polygon fill="#4537D5" points="494.6 364.8 515.1 364.8 515.1 363.7 494.6 363.7"/><polygon fill="#4639D9" points="494.6 363.8 515.1 363.8 515.1 362.6 494.6 362.6"/><polygon fill="#463BDD" points="494.6 362.7 515.1 362.7 515.1 362.4 494.6 362.4"/><polygon fill="#463CDE" points="494.6 362.5 515.1 362.5 515.1 361.4 494.6 361.4"/><polygon fill="#473EE1" points="494.6 361.5 515.1 361.5 515.1 360.3 494.6 360.3"/><polygon fill="#4741E5" points="494.6 360.4 515.1 360.4 515.1 360.1 494.6 360.1"/><polygon fill="#4741E5" points="494.6 360.2 515.1 360.2 515.1 359.2 494.6 359.2"/><polygon fill="#4744E8" points="494.6 359.3 515.1 359.3 515.1 358.1 494.6 358.1"/><polygon fill="#4746EB" points="494.6 358.2 515.1 358.2 515.1 357.8 494.6 357.8"/><polygon fill="#4747EB" points="494.6 357.9 515.1 357.9 515.1 357 494.6 357"/><polygon fill="#4849ED" points="494.6 357.1 515.1 357.1 515.1 355.8 494.6 355.8"/><polygon fill="#484CF0" points="494.6 355.9 515.1 355.9 515.1 355.6 494.6 355.6"/><polygon fill="#484DF0" points="494.6 355.7 515.1 355.7 515.1 354.7 494.6 354.7"/><polygon fill="#484FF2" points="494.6 354.8 515.1 354.8 515.1 353.6 494.6 353.6"/><polygon fill="#4852F4" points="494.6 353.7 515.1 353.7 515.1 353.3 494.6 353.3"/><polygon fill="#4852F4" points="494.6 353.4 515.1 353.4 515.1 352.5 494.6 352.5"/><polygon fill="#4854F6" points="494.6 352.6 515.1 352.6 515.1 351.4 494.6 351.4"/><polygon fill="#4757F7" points="494.6 351.5 515.1 351.5 515.1 351 494.6 351"/><polygon fill="#4758F8" points="494.6 351.1 515.1 351.1 515.1 350.3 494.6 350.3"/><polygon fill="#475AF9" points="494.6 350.4 515.1 350.4 515.1 349.1 494.6 349.1"/><polygon fill="#465DFA" points="494.6 349.2 515.1 349.2 515.1 348.7 494.6 348.7"/><polygon fill="#465EFB" points="494.6 348.8 515.1 348.8 515.1 348 494.6 348"/><polygon fill="#4660FB" points="494.6 348.1 515.1 348.1 515.1 346.9 494.6 346.9"/><polygon fill="#4562FC" points="494.6 347 515.1 347 515.1 346.5 494.6 346.5"/><polygon fill="#4563FD" points="494.6 346.6 515.1 346.6 515.1 345.8 494.6 345.8"/><polygon fill="#4465FD" points="494.6 345.9 515.1 345.9 515.1 344.7 494.6 344.7"/><polygon fill="#4368FE" points="494.6 344.8 515.1 344.8 515.1 344.2 494.6 344.2"/><polygon fill="#4269FE" points="494.6 344.3 515.1 344.3 515.1 343.5 494.6 343.5"/><polygon fill="#416BFE" points="494.6 343.6 515.1 343.6 515.1 342.4 494.6 342.4"/><polygon fill="#3F6EFF" points="494.6 342.5 515.1 342.5 515.1 341.9 494.6 341.9"/><polygon fill="#3E6FFF" points="494.6 342 515.1 342 515.1 341.3 494.6 341.3"/><polygon fill="#3C71FF" points="494.6 341.4 515.1 341.4 515.1 340.2 494.6 340.2"/><polygon fill="#3A74FE" points="494.6 340.3 515.1 340.3 515.1 339.7 494.6 339.7"/><polygon fill="#3875FE" points="494.6 339.8 515.1 339.8 515.1 339.1 494.6 339.1"/><polygon fill="#3777FE" points="494.6 339.2 515.1 339.2 515.1 337.9 494.6 337.9"/><polygon fill="#337AFD" points="494.6 338 515.1 338 515.1 337.4 494.6 337.4"/><polygon fill="#327CFC" points="494.6 337.5 515.1 337.5 515.1 336.8 494.6 336.8"/><polygon fill="#317DFC" points="494.6 336.9 515.1 336.9 515.1 335.7 494.6 335.7"/><polygon fill="#3080FA" points="494.6 335.8 515.1 335.8 515.1 335.1 494.6 335.1"/><polygon fill="#2F82FA" points="494.6 335.2 515.1 335.2 515.1 334.6 494.6 334.6"/><polygon fill="#2E83F9" points="494.6 334.7 515.1 334.7 515.1 333.5 494.6 333.5"/><polygon fill="#2E85F8" points="494.6 333.6 515.1 333.6 515.1 332.8 494.6 332.8"/><polygon fill="#2E87F7" points="494.6 332.9 515.1 332.9 515.1 332.4 494.6 332.4"/><polygon fill="#2D88F6" points="494.6 332.5 515.1 332.5 515.1 331.2 494.6 331.2"/><polygon fill="#2D8BF4" points="494.6 331.3 515.1 331.3 515.1 330.6 494.6 330.6"/><polygon fill="#2D8CF3" points="494.6 330.7 515.1 330.7 515.1 330.1 494.6 330.1"/><polygon fill="#2D8DF2" points="494.6 330.2 515.1 330.2 515.1 329 494.6 329"/><polygon fill="#2C90F0" points="494.6 329.1 515.1 329.1 515.1 328.3 494.6 328.3"/><polygon fill="#2B92EF" points="494.6 328.4 515.1 328.4 515.1 327.9 494.6 327.9"/><polygon fill="#2A92EE" points="494.6 328 515.1 328 515.1 326.8 494.6 326.8"/><polygon fill="#2895EC" points="494.6 326.9 515.1 326.9 515.1 326 494.6 326"/><polygon fill="#2797EB" points="494.6 326.1 515.1 326.1 515.1 325.6 494.6 325.6"/><polygon fill="#2797EA" points="494.6 325.7 515.1 325.7 515.1 324.5 494.6 324.5"/><polygon fill="#269AE9" points="494.6 324.6 515.1 324.6 515.1 323.7 494.6 323.7"/><polygon fill="#259CE7" points="494.6 323.8 515.1 323.8 515.1 323.4 494.6 323.4"/><polygon fill="#259CE7" points="494.6 323.5 515.1 323.5 515.1 322.3 494.6 322.3"/><polygon fill="#249EE6" points="494.6 322.4 515.1 322.4 515.1 321.5 494.6 321.5"/><polygon fill="#23A0E5" points="494.6 321.6 515.1 321.6 515.1 321.2 494.6 321.2"/><polygon fill="#23A1E4" points="494.6 321.3 515.1 321.3 515.1 320 494.6 320"/><polygon fill="#21A3E3" points="494.6 320.1 515.1 320.1 515.1 319.2 494.6 319.2"/><polygon fill="#20A5E2" points="494.6 319.3 515.1 319.3 515.1 318.9 494.6 318.9"/><polygon fill="#1FA5E2" points="494.6 319 515.1 319 515.1 317.8 494.6 317.8"/><polygon fill="#1EA8E1" points="494.6 317.9 515.1 317.9 515.1 316.9 494.6 316.9"/><polygon fill="#1CA9DF" points="494.6 317 515.1 317 515.1 316.7 494.6 316.7"/><polygon fill="#1CAADF" points="494.6 316.8 515.1 316.8 515.1 315.6 494.6 315.6"/><polygon fill="#1AACDD" points="494.6 315.7 515.1 315.7 515.1 314.7 494.6 314.7"/><polygon fill="#18ADDB" points="494.6 314.8 515.1 314.8 515.1 314.5 494.6 314.5"/><polygon fill="#18AEDB" points="494.6 314.6 515.1 314.6 515.1 313.3 494.6 313.3"/><polygon fill="#14B0D8" points="494.6 313.4 515.1 313.4 515.1 312.4 494.6 312.4"/><polygon fill="#11B1D6" points="494.6 312.5 515.1 312.5 515.1 312.2 494.6 312.2"/><polygon fill="#11B2D5" points="494.6 312.3 515.1 312.3 515.1 311.1 494.6 311.1"/><polygon fill="#0CB3D3" points="494.6 311.2 515.1 311.2 515.1 310.1 494.6 310.1"/><polygon fill="#07B5D0" points="494.6 310.2 515.1 310.2 515.1 310 494.6 310"/><polygon fill="#07B5D0" points="494.6 310.1 515.1 310.1 515.1 308.9 494.6 308.9"/><polygon fill="#04B6CD" points="494.6 309 515.1 309 515.1 307.8 494.6 307.8"/><polygon fill="#01B8CA" points="494.6 307.9 515.1 307.9 515.1 307.7 494.6 307.7"/><polygon fill="#01B8C9" points="494.6 307.8 515.1 307.8 515.1 306.6 494.6 306.6"/><polygon fill="#01B9C6" points="494.6 306.7 515.1 306.7 515.1 305.6 494.6 305.6"/><polygon fill="#02BAC3" points="494.6 305.7 515.1 305.7 515.1 305.5 494.6 305.5"/><polygon fill="#02BBC3" points="494.6 305.6 515.1 305.6 515.1 304.4 494.6 304.4"/><polygon fill="#07BCC0" points="494.6 304.5 515.1 304.5 515.1 303.3 494.6 303.3"/><polygon fill="#0BBDBC" points="494.6 303.4 515.1 303.4 515.1 302.1 494.6 302.1"/><polygon fill="#12BEB9" points="494.6 302.2 515.1 302.2 515.1 301 494.6 301"/><polygon fill="#19BFB5" points="494.6 301.1 515.1 301.1 515.1 299.9 494.6 299.9"/><polygon fill="#1EC0B2" points="494.6 300 515.1 300 515.1 298.8 494.6 298.8"/><polygon fill="#24C1AE" points="494.6 298.9 515.1 298.9 515.1 298.7 494.6 298.7"/><polygon fill="#24C1AE" points="494.6 298.8 515.1 298.8 515.1 297.7 494.6 297.7"/><polygon fill="#28C2AB" points="494.6 297.8 515.1 297.8 515.1 296.6 494.6 296.6"/><polygon fill="#2BC3A7" points="494.6 296.7 515.1 296.7 515.1 296.5 494.6 296.5"/><polygon fill="#2CC4A7" points="494.6 296.6 515.1 296.6 515.1 295.4 494.6 295.4"/><polygon fill="#2FC5A3" points="494.6 295.5 515.1 295.5 515.1 294.3 494.6 294.3"/><polygon fill="#31C6A0" points="494.6 294.4 515.1 294.4 515.1 294.2 494.6 294.2"/><polygon fill="#32C69F" points="494.6 294.3 515.1 294.3 515.1 293.2 494.6 293.2"/><polygon fill="#34C79C" points="494.6 293.3 515.1 293.3 515.1 292.1 494.6 292.1"/><polygon fill="#37C898" points="494.6 292.2 515.1 292.2 515.1 291.9 494.6 291.9"/><polygon fill="#37C897" points="494.6 292 515.1 292 515.1 291 494.6 291"/><polygon fill="#3AC993" points="494.6 291.1 515.1 291.1 515.1 289.8 494.6 289.8"/><polygon fill="#3FCA8E" points="494.6 289.9 515.1 289.9 515.1 289.6 494.6 289.6"/><polygon fill="#3FCA8E" points="494.6 289.7 515.1 289.7 515.1 288.7 494.6 288.7"/><polygon fill="#44CB8A" points="494.6 288.8 515.1 288.8 515.1 287.6 494.6 287.6"/><polygon fill="#49CB85" points="494.6 287.7 515.1 287.7 515.1 287.4 494.6 287.4"/><polygon fill="#4ACB84" points="494.6 287.5 515.1 287.5 515.1 286.5 494.6 286.5"/><polygon fill="#4FCC80" points="494.6 286.6 515.1 286.6 515.1 285.4 494.6 285.4"/><polygon fill="#55CC7B" points="494.6 285.5 515.1 285.5 515.1 285.1 494.6 285.1"/><polygon fill="#57CC7A" points="494.6 285.2 515.1 285.2 515.1 284.2 494.6 284.2"/><polygon fill="#5CCC75" points="494.6 284.3 515.1 284.3 515.1 283.1 494.6 283.1"/><polygon fill="#62CD70" points="494.6 283.2 515.1 283.2 515.1 282.8 494.6 282.8"/><polygon fill="#64CD6F" points="494.6 282.9 515.1 282.9 515.1 282 494.6 282"/><polygon fill="#69CD6B" points="494.6 282.1 515.1 282.1 515.1 280.9 494.6 280.9"/><polygon fill="#70CD65" points="494.6 281 515.1 281 515.1 280.6 494.6 280.6"/><polygon fill="#72CD64" points="494.6 280.7 515.1 280.7 515.1 279.8 494.6 279.8"/><polygon fill="#77CC60" points="494.6 279.9 515.1 279.9 515.1 278.7 494.6 278.7"/><polygon fill="#7ECC5B" points="494.6 278.8 515.1 278.8 515.1 278.3 494.6 278.3"/><polygon fill="#81CC59" points="494.6 278.4 515.1 278.4 515.1 277.5 494.6 277.5"/><polygon fill="#86CB55" points="494.6 277.6 515.1 277.6 515.1 276.4 494.6 276.4"/><polygon fill="#8DCB4F" points="494.6 276.5 515.1 276.5 515.1 276 494.6 276"/><polygon fill="#90CA4D" points="494.6 276.1 515.1 276.1 515.1 275.3 494.6 275.3"/><polygon fill="#94CA4A" points="494.6 275.4 515.1 275.4 515.1 274.2 494.6 274.2"/><polygon fill="#9BC945" points="494.6 274.3 515.1 274.3 515.1 273.7 494.6 273.7"/><polygon fill="#9EC942" points="494.6 273.8 515.1 273.8 515.1 273.1 494.6 273.1"/><polygon fill="#A2C840" points="494.6 273.2 515.1 273.2 515.1 271.9 494.6 271.9"/><polygon fill="#A9C73A" points="494.6 272 515.1 272 515.1 271.5 494.6 271.5"/><polygon fill="#ABC739" points="494.6 271.6 515.1 271.6 515.1 270.8 494.6 270.8"/><polygon fill="#B0C636" points="494.6 270.9 515.1 270.9 515.1 269.7 494.6 269.7"/><polygon fill="#B6C532" points="494.6 269.8 515.1 269.8 515.1 269.2 494.6 269.2"/><polygon fill="#B9C431" points="494.6 269.3 515.1 269.3 515.1 268.6 494.6 268.6"/><polygon fill="#BCC42F" points="494.6 268.7 515.1 268.7 515.1 267.5 494.6 267.5"/><polygon fill="#C2C22C" points="494.6 267.6 515.1 267.6 515.1 266.9 494.6 266.9"/><polygon fill="#C6C22A" points="494.6 267 515.1 267 515.1 266.3 494.6 266.3"/><polygon fill="#C9C129" points="494.6 266.4 515.1 266.4 515.1 265.2 494.6 265.2"/><polygon fill="#CFC028" points="494.6 265.3 515.1 265.3 515.1 264.6 494.6 264.6"/><polygon fill="#D2BF27" points="494.6 264.7 515.1 264.7 515.1 264.1 494.6 264.1"/><polygon fill="#D4BF28" points="494.6 264.2 515.1 264.2 515.1 263 494.6 263"/><polygon fill="#D9BD28" points="494.6 263.1 515.1 263.1 515.1 262.4 494.6 262.4"/><polygon fill="#DCBD29" points="494.6 262.5 515.1 262.5 515.1 261.9 494.6 261.9"/><polygon fill="#DFBC2A" points="494.6 262 515.1 262 515.1 260.8 494.6 260.8"/><polygon fill="#E3BB2C" points="494.6 260.9 515.1 260.9 515.1 260.1 494.6 260.1"/><polygon fill="#E7BB2D" points="494.6 260.2 515.1 260.2 515.1 259.6 494.6 259.6"/><polygon fill="#E9BB2F" points="494.6 259.7 515.1 259.7 515.1 258.5 494.6 258.5"/><polygon fill="#EDBA33" points="494.6 258.6 515.1 258.6 515.1 257.8 494.6 257.8"/><polygon fill="#F0BA36" points="494.6 257.9 515.1 257.9 515.1 257.4 494.6 257.4"/><polygon fill="#F1BA37" points="494.6 257.5 515.1 257.5 515.1 256.3 494.6 256.3"/><polygon fill="#F5BA3B" points="494.6 256.4 515.1 256.4 515.1 255.6 494.6 255.6"/><polygon fill="#F8BA3D" points="494.6 255.7 515.1 255.7 515.1 255.2 494.6 255.2"/><polygon fill="#F9BB3D" points="494.6 255.3 515.1 255.3 515.1 254 494.6 254"/><polygon fill="#FCBD3D" points="494.6 254.1 515.1 254.1 515.1 253.3 494.6 253.3"/><polygon fill="#FEBE3C" points="494.6 253.4 515.1 253.4 515.1 252.9 494.6 252.9"/><polygon fill="#FEBF3C" points="494.6 253 515.1 253 515.1 251.8 494.6 251.8"/><polygon fill="#FEC13A" points="494.6 251.9 515.1 251.9 515.1 251 494.6 251"/><polygon fill="#FEC338" points="494.6 251.1 515.1 251.1 515.1 250.7 494.6 250.7"/><polygon fill="#FEC437" points="494.6 250.8 515.1 250.8 515.1 249.6 494.6 249.6"/><polygon fill="#FEC735" points="494.6 249.7 515.1 249.7 515.1 248.7 494.6 248.7"/><polygon fill="#FEC934" points="494.6 248.8 515.1 248.8 515.1 248.4 494.6 248.4"/><polygon fill="#FECA33" points="494.6 248.5 515.1 248.5 515.1 247.3 494.6 247.3"/><polygon fill="#FDCD31" points="494.6 247.4 515.1 247.4 515.1 246.5 494.6 246.5"/><polygon fill="#FCCF30" points="494.6 246.6 515.1 246.6 515.1 246.2 494.6 246.2"/><polygon fill="#FCD030" points="494.6 246.3 515.1 246.3 515.1 245.1 494.6 245.1"/><polygon fill="#FBD32E" points="494.6 245.2 515.1 245.2 515.1 244.2 494.6 244.2"/><polygon fill="#FAD62D" points="494.6 244.3 515.1 244.3 515.1 244 494.6 244"/><polygon fill="#F9D72D" points="494.6 244.1 515.1 244.1 515.1 242.9 494.6 242.9"/><polygon fill="#F8DA2B" points="494.6 243 515.1 243 515.1 241.9 494.6 241.9"/><polygon fill="#F7DC2A" points="494.6 242 515.1 242 515.1 241.7 494.6 241.7"/><polygon fill="#F7DD2A" points="494.6 241.8 515.1 241.8 515.1 240.6 494.6 240.6"/><polygon fill="#F6E028" points="494.6 240.7 515.1 240.7 515.1 239.6 494.6 239.6"/><polygon fill="#F5E327" points="494.6 239.7 515.1 239.7 515.1 239.5 494.6 239.5"/><polygon fill="#F5E327" points="494.6 239.6 515.1 239.6 515.1 238.4 494.6 238.4"/><polygon fill="#F5E626" points="494.6 238.5 515.1 238.5 515.1 237.4 494.6 237.4"/><polygon fill="#F5E924" points="494.6 237.5 515.1 237.5 515.1 237.3 494.6 237.3"/><polygon fill="#F5E924" points="494.6 237.4 515.1 237.4 515.1 236.1 494.6 236.1"/><polygon fill="#F5EC22" points="494.6 236.2 515.1 236.2 515.1 235.1 494.6 235.1"/><polygon fill="#F6EF20" points="494.6 235.2 515.1 235.2 515.1 235 494.6 235"/><polygon fill="#F6EF20" points="494.6 235.1 515.1 235.1 515.1 233.9 494.6 233.9"/><polygon fill="#F6F21D" points="494.6 234 515.1 234 515.1 232.8 494.6 232.8"/><polygon fill="#F7F51B" points="494.6 232.9 515.1 232.9 515.1 231.7 494.6 231.7"/><polygon fill="#F8F818" points="494.6 231.8 515.1 231.8 515.1 230.6 494.6 230.6"/></g></g><g fill="none" stroke="currentColor" stroke-linecap="butt" stroke-linejoin="miter" stroke-width=".5" color="#000"><path stroke="#000" d="M494.6,373.8 L515.1,373.8 L515.1,230.6 L494.6,230.6 L494.6,373.8 Z"/></g><g fill="none" stroke="currentColor" stroke-linecap="butt" stroke-linejoin="miter" stroke-width=".5" color="#000"><path stroke="#000" d="M515.1,373.8 L509.5,373.8"/><g fill="#262626" stroke="none" font-family="Helvetica" font-size="10" text-anchor="start"><text transform="translate(522.1,377.1)"><tspan font-family="Helvetica">-6</tspan></text></g></g><g fill="none" stroke="currentColor" stroke-linecap="butt" stroke-linejoin="miter" stroke-width=".5" color="#000"><path stroke="#000" d="M515.1,350.0 L509.5,350.0"/><g fill="#262626" stroke="none" font-family="Helvetica" font-size="10" text-anchor="start"><text transform="translate(522.1,353.3)"><tspan font-family="Helvetica">-4</tspan></text></g></g><g fill="none" stroke="currentColor" stroke-linecap="butt" stroke-linejoin="miter" stroke-width=".5" color="#000"><path stroke="#000" d="M515.1,326.1 L509.5,326.1"/><g fill="#262626" stroke="none" font-family="Helvetica" font-size="10" text-anchor="start"><text transform="translate(522.1,329.4)"><tspan font-family="Helvetica">-2</tspan></text></g></g><g fill="none" stroke="currentColor" stroke-linecap="butt" stroke-linejoin="miter" stroke-width=".5" color="#000"><path stroke="#000" d="M515.1,302.2 L509.5,302.2"/><g fill="#262626" stroke="none" font-family="Helvetica" font-size="10" text-anchor="start"><text transform="translate(522.1,305.5)"><tspan font-family="Helvetica">0</tspan></text></g></g><g fill="none" stroke="currentColor" stroke-linecap="butt" stroke-linejoin="miter" stroke-width=".5" color="#000"><path stroke="#000" d="M515.1,278.4 L509.5,278.4"/><g fill="#262626" stroke="none" font-family="Helvetica" font-size="10" text-anchor="start"><text transform="translate(522.1,281.7)"><tspan font-family="Helvetica">2</tspan></text></g></g><g fill="none" stroke="currentColor" stroke-linecap="butt" stroke-linejoin="miter" stroke-width=".5" color="#000"><path stroke="#000" d="M515.1,254.5 L509.5,254.5"/><g fill="#262626" stroke="none" font-family="Helvetica" font-size="10" text-anchor="start"><text transform="translate(522.1,257.8)"><tspan font-family="Helvetica">4</tspan></text></g></g><g fill="none" stroke="currentColor" stroke-linecap="butt" stroke-linejoin="miter" stroke-width=".5" color="#000"><path stroke="#000" d="M515.1,230.6 L509.5,230.6"/><g fill="#262626" stroke="none" font-family="Helvetica" font-size="10" text-anchor="start"><text transform="translate(522.1,233.9)"><tspan font-family="Helvetica">6</tspan></text></g></g></g></svg>