<svg xmlns="http://www.w3.org/2000/svg" xmlns:xlink="http://www.w3.org/1999/xlink" width="560" height="420" viewBox="0 0 560 420"><title>Gnuplot</title><desc>Produced by GNUPLOT 5.4 patchlevel 0</desc><g id="gnuplot_canvas"><rect width="560" height="420" x="0" y="0" fill="none"/><defs><circle id="gpDot" r=".5" stroke="currentColor" stroke-width=".5"/><path id="gpPt0" stroke="currentColor" stroke-width=".267" d="M-1,0 h2 M0,-1 v2"/><path id="gpPt1" stroke="currentColor" stroke-width=".267" d="M-1,-1 L1,1 M1,-1 L-1,1"/><path id="gpPt2" stroke="currentColor" stroke-width=".267" d="M-1,0 L1,0 M0,-1 L0,1 M-1,-1 L1,1 M-1,1 L1,-1"/><rect id="gpPt3" width="2" height="2" x="-1" y="-1" stroke="currentColor" stroke-width=".267"/><rect id="gpPt4" width="2" height="2" x="-1" y="-1" fill="currentColor" stroke="currentColor" stroke-width=".267"/><circle id="gpPt5" cx="0" cy="0" r="1" stroke="currentColor" stroke-width=".267"/><use id="gpPt6" fill="currentColor" stroke="none" xlink:href="#gpPt5"/><path id="gpPt7" stroke="currentColor" stroke-width=".267" d="M0,-1.33 L-1.33,0.67 L1.33,0.67 z"/><use id="gpPt8" fill="currentColor" stroke="none" xlink:href="#gpPt7"/><use id="gpPt9" stroke="currentColor" transform="rotate(180)" xlink:href="#gpPt7"/><use id="gpPt10" fill="currentColor" stroke="none" xlink:href="#gpPt9"/><use id="gpPt11" stroke="currentColor" transform="rotate(45)" xlink:href="#gpPt3"/><use id="gpPt12" fill="currentColor" stroke="none" xlink:href="#gpPt11"/><path id="gpPt13" stroke="currentColor" stroke-width=".267" d="M0,1.330 L1.265,0.411 L0.782,-1.067 L-0.782,-1.076 L-1.265,0.411 z"/><use id="gpPt14" fill="currentColor" stroke="none" xlink:href="#gpPt13"/><filter id="textbox" width="1" height="1" x="0" y="0" filterUnits="objectBoundingBox"><feFlood flood-color="#fff" flood-opacity="1" result="bgnd"/><feComposite in="SourceGraphic" in2="bgnd" operator="atop"/></filter><filter id="greybox" width="1" height="1" x="0" y="0" filterUnits="objectBoundingBox"><feFlood flood-color="#d3d3d3" flood-opacity="1" result="grey"/><feComposite in="SourceGraphic" in2="grey" operator="atop"/></filter></defs><g fill="none" stroke="currentColor" stroke-linecap="butt" stroke-linejoin="miter" stroke-width=".5" color="#000"><path stroke="#000" d="M72.8,373.8 L78.4,373.8"/><g fill="#262626" stroke="none" font-family="Helvetica" font-size="10" text-anchor="end"><text transform="translate(65.8,377.1)"><tspan font-family="Helvetica">5</tspan></text></g></g><g fill="none" stroke="currentColor" stroke-linecap="butt" stroke-linejoin="miter" stroke-width=".5" color="#000"><path stroke="#000" d="M72.8,331.0 L78.4,331.0"/><g fill="#262626" stroke="none" font-family="Helvetica" font-size="10" text-anchor="end"><text transform="translate(65.8,334.3)"><tspan font-family="Helvetica">10</tspan></text></g></g><g fill="none" stroke="currentColor" stroke-linecap="butt" stroke-linejoin="miter" stroke-width=".5" color="#000"><path stroke="#000" d="M72.8,288.2 L78.4,288.2"/><g fill="#262626" stroke="none" font-family="Helvetica" font-size="10" text-anchor="end"><text transform="translate(65.8,291.5)"><tspan font-family="Helvetica">15</tspan></text></g></g><g fill="none" stroke="currentColor" stroke-linecap="butt" stroke-linejoin="miter" stroke-width=".5" color="#000"><path stroke="#000" d="M72.8,245.5 L78.4,245.5"/><g fill="#262626" stroke="none" font-family="Helvetica" font-size="10" text-anchor="end"><text transform="translate(65.8,248.8)"><tspan font-family="Helvetica">20</tspan></text></g></g><g fill="none" stroke="currentColor" stroke-linecap="butt" stroke-linejoin="miter" stroke-width=".5" color="#000"><path stroke="#000" d="M72.8,202.7 L78.4,202.7"/><g fill="#262626" stroke="none" font-family="Helvetica" font-size="10" text-anchor="end"><text transform="translate(65.8,206.0)"><tspan font-family="Helvetica">25</tspan></text></g></g><g fill="none" stroke="currentColor" stroke-linecap="butt" stroke-linejoin="miter" stroke-width=".5" color="#000"><path stroke="#000" d="M72.8,159.9 L78.4,159.9"/><g fill="#262626" stroke="none" font-family="Helvetica" font-size="10" text-anchor="end"><text transform="translate(65.8,163.2)"><tspan font-family="Helvetica">30</tspan></text></g></g><g fill="none" stroke="currentColor" stroke-linecap="butt" stroke-linejoin="miter" stroke-width=".5" color="#000"><path stroke="#000" d="M72.8,117.1 L78.4,117.1"/><g fill="#262626" stroke="none" font-family="Helvetica" font-size="10" text-anchor="end"><text transform="translate(65.8,120.4)"><tspan font-family="Helvetica">35</tspan></text></g></g><g fill="none" stroke="currentColor" stroke-linecap="butt" stroke-linejoin="miter" stroke-width=".5" color="#000"><path stroke="#000" d="M72.8,74.4 L78.4,74.4"/><g fill="#262626" stroke="none" font-family="Helvetica" font-size="10" text-anchor="end"><text transform="translate(65.8,77.7)"><tspan font-family="Helvetica">40</tspan></text></g></g><g fill="none" stroke="currentColor" stroke-linecap="butt" stroke-linejoin="miter" stroke-width=".5" color="#000"><path stroke="#000" d="M72.8,31.6 L78.4,31.6"/><g fill="#262626" stroke="none" font-family="Helvetica" font-size="10" text-anchor="end"><text transform="translate(65.8,34.9)"><tspan font-family="Helvetica">45</tspan></text></g></g><g fill="none" stroke="currentColor" stroke-linecap="butt" stroke-linejoin="miter" stroke-width=".5" color="#000"><path stroke="#000" d="M109.0,373.8 L109.0,368.2"/><g fill="#262626" stroke="none" font-family="Helvetica" font-size="10" text-anchor="middle"><text transform="translate(109.0,392.1)"><tspan font-family="Helvetica">USA</tspan></text></g></g><g fill="none" stroke="currentColor" stroke-linecap="butt" stroke-linejoin="miter" stroke-width=".5" color="#000"><path stroke="#000" d="M181.3,373.8 L181.3,368.2"/><g fill="#262626" stroke="none" font-family="Helvetica" font-size="10" text-anchor="middle"><text transform="translate(181.3,392.1)"><tspan font-family="Helvetica">Japan</tspan></text></g></g><g fill="none" stroke="currentColor" stroke-linecap="butt" stroke-linejoin="miter" stroke-width=".5" color="#000"><path stroke="#000" d="M253.6,373.8 L253.6,368.2"/><g fill="#262626" stroke="none" font-family="Helvetica" font-size="10" text-anchor="middle"><text transform="translate(253.6,392.1)"><tspan font-family="Helvetica">Germany</tspan></text></g></g><g fill="none" stroke="currentColor" stroke-linecap="butt" stroke-linejoin="miter" stroke-width=".5" color="#000"><path stroke="#000" d="M325.9,373.8 L325.9,368.2"/><g fill="#262626" stroke="none" font-family="Helvetica" font-size="10" text-anchor="middle"><text transform="translate(325.9,392.1)"><tspan font-family="Helvetica">France</tspan></text></g></g><g fill="none" stroke="currentColor" stroke-linecap="butt" stroke-linejoin="miter" stroke-width=".5" color="#000"><path stroke="#000" d="M398.2,373.8 L398.2,368.2"/><g fill="#262626" stroke="none" font-family="Helvetica" font-size="10" text-anchor="middle"><text transform="translate(398.2,392.1)"><tspan font-family="Helvetica">Sweden</tspan></text></g></g><g fill="none" stroke="currentColor" stroke-linecap="butt" stroke-linejoin="miter" stroke-width=".5" color="#000"><path stroke="#000" d="M470.5,373.8 L470.5,368.2"/><g fill="#262626" stroke="none" font-family="Helvetica" font-size="10" text-anchor="middle"><text transform="translate(470.5,392.1)"><tspan font-family="Helvetica">Italy</tspan></text></g></g><g fill="none" stroke="currentColor" stroke-linecap="butt" stroke-linejoin="miter" stroke-width=".5" color="#000"><path stroke="#000" d="M72.8,31.6 L72.8,373.8 L506.7,373.8 L506.7,31.6 L72.8,31.6 Z"/></g><g fill="none" stroke="currentColor" stroke-linecap="butt" stroke-linejoin="miter" stroke-width=".5" color="#000"><g fill="#000" stroke="none" font-family="Helvetica" font-size="11" text-anchor="middle"><text transform="translate(42.5,202.7) rotate(270)"><tspan font-family="Helvetica">Miles per Gallon (MPG)</tspan></text></g></g><g fill="none" stroke="currentColor" stroke-linecap="butt" stroke-linejoin="miter" stroke-width=".5" color="#000"><g fill="#000" stroke="none" font-family="Helvetica" font-size="11" text-anchor="middle"><text transform="translate(289.7,414.9)"><tspan font-family="Helvetica">All Vehicles</tspan></text></g></g><g id="gnuplot_plot_1a"><title>&apos;-&apos;</title><g fill="none" stroke="currentColor" stroke-linecap="butt" stroke-linejoin="miter" stroke-width="1" color="#000"><g stroke="none" shape-rendering="crispEdges"><polygon fill="#0071BC" fill-opacity=".4" points="90.9 288.2 127.1 288.2 127.1 187.7 90.9 187.7"/></g><path stroke="#00385E" d="M90.9,288.2 L127.1,288.2 L127.1,187.7 L90.9,187.7 L90.9,288.2 Z"/><path stroke="#00385E" d="M90.9,241.2 L127.1,241.2 M109.0,339.6 L109.0,288.2 M109.0,187.7 L109.0,91.5 M101.5,91.5 L116.5,91.5 M101.5,339.6 L116.5,339.6"/></g></g><g id="gnuplot_plot_2a"><title>&apos;-&apos;</title><g fill="none" stroke="currentColor" stroke-linecap="butt" stroke-linejoin="miter" stroke-width="1" color="#000"><g stroke="none" shape-rendering="crispEdges"><polygon fill="#0071BC" fill-opacity=".4" points="163.2 177 199.4 177 199.4 108.6 163.2 108.6"/></g><path stroke="#00385E" d="M163.2,177.0 L199.4,177.0 L199.4,108.6 L163.2,108.6 L163.2,177.0 Z"/><path stroke="#00385E" d="M163.2,142.8 L199.4,142.8 M181.3,254.0 L181.3,177.0 M181.3,108.6 L181.3,91.5 M173.8,91.5 L188.8,91.5 M173.8,254.0 L188.8,254.0"/></g></g><g id="gnuplot_plot_3a"><title>&apos;-&apos;</title><g fill="none" stroke="currentColor" stroke-linecap="butt" stroke-linejoin="miter" stroke-width="1" color="#000"><g stroke="none" shape-rendering="crispEdges"><polygon fill="#0071BC" fill-opacity=".4" points="235.5 202.7 271.7 202.7 271.7 164.2 235.5 164.2"/></g><path stroke="#00385E" d="M235.5,202.7 L271.7,202.7 L271.7,164.2 L235.5,164.2 L235.5,202.7 Z"/><path stroke="#00385E" d="M235.5,194.1 L271.7,194.1 M253.6,211.3 L253.6,202.7 M253.6,164.2 L253.6,108.6 M246.1,108.6 L261.1,108.6 M246.1,211.3 L261.1,211.3"/><use color="#00385E" transform="translate(253.6,275.4) scale(3.75)" xlink:href="#gpPt5"/><use color="#00385E" transform="translate(253.6,40.2) scale(3.75)" xlink:href="#gpPt5"/></g></g><g id="gnuplot_plot_4a"><title>&apos;-&apos;</title><g fill="none" stroke="currentColor" stroke-linecap="butt" stroke-linejoin="miter" stroke-width="1" color="#000"><use color="#0071BC" opacity=".4" transform="translate(325.9,254.0) scale(3.75)" xlink:href="#gpPt5"/><use color="#0071BC" opacity=".4" transform="translate(325.9,202.7) scale(3.75)" xlink:href="#gpPt5"/><use color="#0071BC" opacity=".4" transform="translate(325.9,185.6) scale(3.75)" xlink:href="#gpPt5"/></g></g><g id="gnuplot_plot_5a"><title>&apos;-&apos;</title><g fill="none" stroke="currentColor" stroke-linecap="butt" stroke-linejoin="miter" stroke-width="1" color="#000"><use color="#0071BC" opacity=".4" transform="translate(398.2,245.5) scale(3.75)" xlink:href="#gpPt5"/><use color="#0071BC" opacity=".4" transform="translate(398.2,202.7) scale(3.75)" xlink:href="#gpPt5"/></g></g><g id="gnuplot_plot_6a"><title>&apos;-&apos;</title><g fill="none" stroke="currentColor" stroke-linecap="butt" stroke-linejoin="miter" stroke-width="1" color="#000"><use color="#0071BC" opacity=".4" transform="translate(470.5,177.0) scale(3.75)" xlink:href="#gpPt5"/></g></g><g fill="none" stroke="currentColor" stroke-linecap="butt" stroke-linejoin="miter" stroke-width=".5" color="#000"><path stroke="#000" d="M72.8,31.6 L72.8,373.8 L506.7,373.8 L506.7,31.6 L72.8,31.6 Z"/></g><g fill="none" stroke="currentColor" stroke-linecap="butt" stroke-linejoin="miter" stroke-width=".5" color="#000"><g fill="#000" stroke="none" font-family="Helvetica" font-size="11" text-anchor="middle"><text transform="translate(289.7,11.2)"><tspan font-family="Helvetica" font-weight="bold">Miles per Gallon for All Vehicles</tspan></text></g></g></g></svg>