<svg xmlns="http://www.w3.org/2000/svg" xmlns:xlink="http://www.w3.org/1999/xlink" width="560" height="420" viewBox="0 0 560 420"><title>Gnuplot</title><desc>Produced by GNUPLOT 5.4 patchlevel 0</desc><g id="gnuplot_canvas"><rect width="560" height="420" x="0" y="0" fill="none"/><defs><circle id="gpDot" r=".5" stroke="currentColor" stroke-width=".5"/><path id="gpPt0" stroke="currentColor" stroke-width=".267" d="M-1,0 h2 M0,-1 v2"/><path id="gpPt1" stroke="currentColor" stroke-width=".267" d="M-1,-1 L1,1 M1,-1 L-1,1"/><path id="gpPt2" stroke="currentColor" stroke-width=".267" d="M-1,0 L1,0 M0,-1 L0,1 M-1,-1 L1,1 M-1,1 L1,-1"/><rect id="gpPt3" width="2" height="2" x="-1" y="-1" stroke="currentColor" stroke-width=".267"/><rect id="gpPt4" width="2" height="2" x="-1" y="-1" fill="currentColor" stroke="currentColor" stroke-width=".267"/><circle id="gpPt5" cx="0" cy="0" r="1" stroke="currentColor" stroke-width=".267"/><use id="gpPt6" fill="currentColor" stroke="none" xlink:href="#gpPt5"/><path id="gpPt7" stroke="currentColor" stroke-width=".267" d="M0,-1.33 L-1.33,0.67 L1.33,0.67 z"/><use id="gpPt8" fill="currentColor" stroke="none" xlink:href="#gpPt7"/><use id="gpPt9" stroke="currentColor" transform="rotate(180)" xlink:href="#gpPt7"/><use id="gpPt10" fill="currentColor" stroke="none" xlink:href="#gpPt9"/><use id="gpPt11" stroke="currentColor" transform="rotate(45)" xlink:href="#gpPt3"/><use id="gpPt12" fill="currentColor" stroke="none" xlink:href="#gpPt11"/><path id="gpPt13" stroke="currentColor" stroke-width=".267" d="M0,1.330 L1.265,0.411 L0.782,-1.067 L-0.782,-1.076 L-1.265,0.411 z"/><use id="gpPt14" fill="currentColor" stroke="none" xlink:href="#gpPt13"/><filter id="textbox" width="1" height="1" x="0" y="0" filterUnits="objectBoundingBox"><feFlood flood-color="#fff" flood-opacity="1" result="bgnd"/><feComposite in="SourceGraphic" in2="bgnd" operator="atop"/></filter><filter id="greybox" width="1" height="1" x="0" y="0" filterUnits="objectBoundingBox"><feFlood flood-color="#d3d3d3" flood-opacity="1" result="grey"/><feComposite in="SourceGraphic" in2="grey" operator="atop"/></filter></defs><g fill="none" stroke="currentColor" stroke-linecap="butt" stroke-linejoin="miter" stroke-width=".5" color="#000"><path stroke="#000" d="M72.8,31.6 L72.8,373.8 L506.7,373.8 L506.7,31.6 L72.8,31.6 Z"/></g><g id="gnuplot_plot_1a"><title>&apos;-&apos;</title><g fill="none" stroke="currentColor" stroke-linecap="butt" stroke-linejoin="miter" stroke-width=".5" color="#000"><path stroke="#0071BC" d="M282.7,150.2 L276.5,163.8 L288.7,155.1 M309.2,124.1 L276.5,163.8 M250.0,189.8 L243.8,203.4 L256.0,194.7 M276.5,163.8 L243.8,203.4 M360.0,118.8 L373.5,112.5 L358.6,111.3 M309.2,124.1 L373.5,112.5 M424.3,107.3 L437.8,101.0 L422.9,99.8 M373.5,112.5 L437.8,101.0 M285.4,98.5 L272.2,92.1 L280.4,104.2 M309.2,124.1 L272.2,92.1 M248.3,66.4 L235.1,60.1 L243.3,72.2 M272.2,92.1 L235.1,60.1 M326.8,103.3 L330.4,92.5 L321.9,100.0 M309.2,124.1 L330.4,92.5 M347.9,71.6 L351.5,60.9 L343.0,68.4 M330.4,92.5 L351.5,60.9 M243.8,184.8 L241.0,177.6 L239.9,185.2 M243.8,203.4 L241.0,177.6 M241.0,159.0 L238.2,151.8 L237.1,159.4 M241.0,177.6 L238.2,151.8 M211.1,220.0 L201.1,231.1 L215.3,226.5 M243.8,203.4 L201.1,231.1 M168.3,247.7 L158.3,258.8 L172.5,254.2 M201.1,231.1 L158.3,258.8 M193.8,211.6 L180.7,218.7 L195.6,219.0 M243.8,203.4 L180.7,218.7 M130.8,226.9 L117.7,234.0 L132.6,234.3 M180.7,218.7 L117.7,234.0 M218.7,180.3 L205.5,175.1 L214.4,186.2 M243.8,203.4 L205.5,175.1 M180.4,152.0 L167.1,146.8 L176.0,157.9 M205.5,175.1 L167.1,146.8 M198.0,186.9 L183.1,186.9 L196.0,194.4 M243.8,203.4 L183.1,186.9 M137.4,170.3 L122.5,170.3 L135.4,177.8 M183.1,186.9 L122.5,170.3 M284.9,197.1 L298.0,189.9 L283.1,189.7 M243.8,203.4 L298.0,189.9 M339.2,183.6 L352.3,176.4 L337.4,176.2 M298.0,189.9 L352.3,176.4 M281.8,209.5 L296.4,206.5 L282.2,201.8 M243.8,203.4 L296.4,206.5 M334.4,212.5 L349.0,209.5 L334.8,204.8 M296.4,206.5 L349.0,209.5 M235.7,220.8 L235.2,228.8 L239.6,222.2 M243.8,203.4 L235.2,228.8 M227.1,246.2 L226.6,254.1 L231.0,247.5 M235.2,228.8 L226.6,254.1 M190.9,199.0 L176.4,202.7 L190.8,206.7 M243.8,203.4 L176.4,202.7 M123.5,198.2 L109.0,201.9 L123.4,205.9 M176.4,202.7 L109.0,201.9 M275.4,233.1 L289.1,238.9 L280.1,227.0 M243.8,203.4 L289.1,238.9 M320.7,268.6 L334.5,274.4 L325.5,262.5 M289.1,238.9 L334.5,274.4 M388.7,270.8 L402.5,265.0 L387.7,263.2 M334.5,274.4 L402.5,265.0 M456.7,261.4 L470.5,255.6 L455.7,253.8 M402.5,265.0 L470.5,255.6 M299.7,293.7 L290.0,305.1 L304.1,300.1 M334.5,274.4 L290.0,305.1 M255.2,324.3 L245.5,335.7 L259.6,330.7 M290.0,305.1 L245.5,335.7 M327.1,299.1 L327.9,309.8 L332.5,300.1 M334.5,274.4 L327.9,309.8 M320.5,334.6 L321.3,345.3 L325.9,335.6 M327.9,309.8 L321.3,345.3 M356.3,297.4 L368.3,303.0 L360.8,292.1 M334.5,274.4 L368.3,303.0 M390.2,326.0 L402.2,331.6 L394.6,320.7 M368.3,303.0 L402.2,331.6 M381.2,286.9 L396.1,285.7 L382.6,279.3 M334.5,274.4 L396.1,285.7 M442.7,298.1 L457.6,296.9 L444.1,290.5 M396.1,285.7 L457.6,296.9"/></g></g><g id="gnuplot_plot_2a"><title>&apos;-&apos;</title><g fill="none" stroke="currentColor" stroke-linecap="butt" stroke-linejoin="miter" stroke-width="1" color="#000"><use color="#0071BC" transform="translate(309.2,124.1) scale(3.75)" xlink:href="#gpPt6"/><use color="#0071BC" transform="translate(243.8,203.4) scale(3.75)" xlink:href="#gpPt6"/><use color="#0071BC" transform="translate(437.8,101.0) scale(3.75)" xlink:href="#gpPt6"/><use color="#0071BC" transform="translate(235.1,60.1) scale(3.75)" xlink:href="#gpPt6"/><use color="#0071BC" transform="translate(351.5,60.9) scale(3.75)" xlink:href="#gpPt6"/><use color="#0071BC" transform="translate(238.2,151.8) scale(3.75)" xlink:href="#gpPt6"/><use color="#0071BC" transform="translate(158.3,258.8) scale(3.75)" xlink:href="#gpPt6"/><use color="#0071BC" transform="translate(117.7,234.0) scale(3.75)" xlink:href="#gpPt6"/><use color="#0071BC" transform="translate(167.1,146.8) scale(3.75)" xlink:href="#gpPt6"/><use color="#0071BC" transform="translate(122.5,170.3) scale(3.75)" xlink:href="#gpPt6"/><use color="#0071BC" transform="translate(352.3,176.4) scale(3.75)" xlink:href="#gpPt6"/><use color="#0071BC" transform="translate(349.0,209.5) scale(3.75)" xlink:href="#gpPt6"/><use color="#0071BC" transform="translate(226.6,254.1) scale(3.75)" xlink:href="#gpPt6"/><use color="#0071BC" transform="translate(109.0,201.9) scale(3.75)" xlink:href="#gpPt6"/><use color="#0071BC" transform="translate(334.5,274.4) scale(3.75)" xlink:href="#gpPt6"/><use color="#0071BC" transform="translate(470.5,255.6) scale(3.75)" xlink:href="#gpPt6"/><use color="#0071BC" transform="translate(245.5,335.7) scale(3.75)" xlink:href="#gpPt6"/><use color="#0071BC" transform="translate(321.3,345.3) scale(3.75)" xlink:href="#gpPt6"/><use color="#0071BC" transform="translate(402.2,331.6) scale(3.75)" xlink:href="#gpPt6"/><use color="#0071BC" transform="translate(457.6,296.9) scale(3.75)" xlink:href="#gpPt6"/></g></g><g id="gnuplot_plot_3a"><title>&apos;-&apos;</title><g fill="none" stroke="currentColor" stroke-linecap="butt" stroke-linejoin="miter" stroke-width="1" color="#000"><g fill="#000" stroke="none" font-family="Helvetica" font-size="11" text-anchor="start"><text transform="translate(316.2,127.7)"><tspan font-family="Helvetica">0</tspan></text></g><g fill="#000" stroke="none" font-family="Helvetica" font-size="11" text-anchor="start"><text transform="translate(250.8,207.0)"><tspan font-family="Helvetica">1</tspan></text></g><g fill="#000" stroke="none" font-family="Helvetica" font-size="11" text-anchor="start"><text transform="translate(444.8,104.6)"><tspan font-family="Helvetica">2</tspan></text></g><g fill="#000" stroke="none" font-family="Helvetica" font-size="11" text-anchor="start"><text transform="translate(242.1,63.7)"><tspan font-family="Helvetica">3</tspan></text></g><g fill="#000" stroke="none" font-family="Helvetica" font-size="11" text-anchor="start"><text transform="translate(358.5,64.5)"><tspan font-family="Helvetica">4</tspan></text></g><g fill="#000" stroke="none" font-family="Helvetica" font-size="11" text-anchor="start"><text transform="translate(245.2,155.4)"><tspan font-family="Helvetica">5</tspan></text></g><g fill="#000" stroke="none" font-family="Helvetica" font-size="11" text-anchor="start"><text transform="translate(165.3,262.4)"><tspan font-family="Helvetica">6</tspan></text></g><g fill="#000" stroke="none" font-family="Helvetica" font-size="11" text-anchor="start"><text transform="translate(124.7,237.6)"><tspan font-family="Helvetica">7</tspan></text></g><g fill="#000" stroke="none" font-family="Helvetica" font-size="11" text-anchor="start"><text transform="translate(174.1,150.4)"><tspan font-family="Helvetica">8</tspan></text></g><g fill="#000" stroke="none" font-family="Helvetica" font-size="11" text-anchor="start"><text transform="translate(129.5,173.9)"><tspan font-family="Helvetica">9</tspan></text></g><g fill="#000" stroke="none" font-family="Helvetica" font-size="11" text-anchor="start"><text transform="translate(359.3,180.0)"><tspan font-family="Helvetica">10</tspan></text></g><g fill="#000" stroke="none" font-family="Helvetica" font-size="11" text-anchor="start"><text transform="translate(356.0,213.1)"><tspan font-family="Helvetica">11</tspan></text></g><g fill="#000" stroke="none" font-family="Helvetica" font-size="11" text-anchor="start"><text transform="translate(233.6,257.7)"><tspan font-family="Helvetica">12</tspan></text></g><g fill="#000" stroke="none" font-family="Helvetica" font-size="11" text-anchor="start"><text transform="translate(116.0,205.5)"><tspan font-family="Helvetica">13</tspan></text></g><g fill="#000" stroke="none" font-family="Helvetica" font-size="11" text-anchor="start"><text transform="translate(341.5,278.0)"><tspan font-family="Helvetica">14</tspan></text></g><g fill="#000" stroke="none" font-family="Helvetica" font-size="11" text-anchor="start"><text transform="translate(477.5,259.2)"><tspan font-family="Helvetica">15</tspan></text></g><g fill="#000" stroke="none" font-family="Helvetica" font-size="11" text-anchor="start"><text transform="translate(252.5,339.3)"><tspan font-family="Helvetica">16</tspan></text></g><g fill="#000" stroke="none" font-family="Helvetica" font-size="11" text-anchor="start"><text transform="translate(328.3,348.9)"><tspan font-family="Helvetica">17</tspan></text></g><g fill="#000" stroke="none" font-family="Helvetica" font-size="11" text-anchor="start"><text transform="translate(409.2,335.2)"><tspan font-family="Helvetica">18</tspan></text></g><g fill="#000" stroke="none" font-family="Helvetica" font-size="11" text-anchor="start"><text transform="translate(464.6,300.5)"><tspan font-family="Helvetica">19</tspan></text></g></g></g><g fill="none" stroke="currentColor" stroke-linecap="butt" stroke-linejoin="miter" stroke-width=".5" color="#000"><path stroke="#000" d="M72.8,31.6 L72.8,373.8 L506.7,373.8 L506.7,31.6 L72.8,31.6 Z"/></g></g></svg>