<svg xmlns="http://www.w3.org/2000/svg" xmlns:xlink="http://www.w3.org/1999/xlink" width="560" height="420" viewBox="0 0 560 420"><title>Gnuplot</title><desc>Produced by GNUPLOT 5.4 patchlevel 0</desc><g id="gnuplot_canvas"><rect width="560" height="420" x="0" y="0" fill="none"/><defs><circle id="gpDot" r=".5" stroke="currentColor" stroke-width=".5"/><path id="gpPt0" stroke="currentColor" stroke-width=".267" d="M-1,0 h2 M0,-1 v2"/><path id="gpPt1" stroke="currentColor" stroke-width=".267" d="M-1,-1 L1,1 M1,-1 L-1,1"/><path id="gpPt2" stroke="currentColor" stroke-width=".267" d="M-1,0 L1,0 M0,-1 L0,1 M-1,-1 L1,1 M-1,1 L1,-1"/><rect id="gpPt3" width="2" height="2" x="-1" y="-1" stroke="currentColor" stroke-width=".267"/><rect id="gpPt4" width="2" height="2" x="-1" y="-1" fill="currentColor" stroke="currentColor" stroke-width=".267"/><circle id="gpPt5" cx="0" cy="0" r="1" stroke="currentColor" stroke-width=".267"/><use id="gpPt6" fill="currentColor" stroke="none" xlink:href="#gpPt5"/><path id="gpPt7" stroke="currentColor" stroke-width=".267" d="M0,-1.33 L-1.33,0.67 L1.33,0.67 z"/><use id="gpPt8" fill="currentColor" stroke="none" xlink:href="#gpPt7"/><use id="gpPt9" stroke="currentColor" transform="rotate(180)" xlink:href="#gpPt7"/><use id="gpPt10" fill="currentColor" stroke="none" xlink:href="#gpPt9"/><use id="gpPt11" stroke="currentColor" transform="rotate(45)" xlink:href="#gpPt3"/><use id="gpPt12" fill="currentColor" stroke="none" xlink:href="#gpPt11"/><path id="gpPt13" stroke="currentColor" stroke-width=".267" d="M0,1.330 L1.265,0.411 L0.782,-1.067 L-0.782,-1.076 L-1.265,0.411 z"/><use id="gpPt14" fill="currentColor" stroke="none" xlink:href="#gpPt13"/><filter id="textbox" width="1" height="1" x="0" y="0" filterUnits="objectBoundingBox"><feFlood flood-color="#fff" flood-opacity="1" result="bgnd"/><feComposite in="SourceGraphic" in2="bgnd" operator="atop"/></filter><filter id="greybox" width="1" height="1" x="0" y="0" filterUnits="objectBoundingBox"><feFlood flood-color="#d3d3d3" flood-opacity="1" result="grey"/><feComposite in="SourceGraphic" in2="grey" operator="atop"/></filter></defs><g fill="none" stroke="currentColor" stroke-linecap="butt" stroke-linejoin="miter" stroke-width=".5" color="#000"><path stroke="#000" d="M72.8,373.8 L78.4,373.8"/><g fill="#262626" stroke="none" font-family="Helvetica" font-size="10" text-anchor="end"><text transform="translate(65.8,377.1)"><tspan font-family="Helvetica">-1</tspan></text></g></g><g fill="none" stroke="currentColor" stroke-linecap="butt" stroke-linejoin="miter" stroke-width=".5" color="#000"><path stroke="#000" d="M72.8,316.8 L78.4,316.8"/><g fill="#262626" stroke="none" font-family="Helvetica" font-size="10" text-anchor="end"><text transform="translate(65.8,320.1)"><tspan font-family="Helvetica">-0.5</tspan></text></g></g><g fill="none" stroke="currentColor" stroke-linecap="butt" stroke-linejoin="miter" stroke-width=".5" color="#000"><path stroke="#000" d="M72.8,259.7 L78.4,259.7"/><g fill="#262626" stroke="none" font-family="Helvetica" font-size="10" text-anchor="end"><text transform="translate(65.8,263.0)"><tspan font-family="Helvetica">0</tspan></text></g></g><g fill="none" stroke="currentColor" stroke-linecap="butt" stroke-linejoin="miter" stroke-width=".5" color="#000"><path stroke="#000" d="M72.8,202.7 L78.4,202.7"/><g fill="#262626" stroke="none" font-family="Helvetica" font-size="10" text-anchor="end"><text transform="translate(65.8,206.0)"><tspan font-family="Helvetica">0.5</tspan></text></g></g><g fill="none" stroke="currentColor" stroke-linecap="butt" stroke-linejoin="miter" stroke-width=".5" color="#000"><path stroke="#000" d="M72.8,145.7 L78.4,145.7"/><g fill="#262626" stroke="none" font-family="Helvetica" font-size="10" text-anchor="end"><text transform="translate(65.8,149.0)"><tspan font-family="Helvetica">1</tspan></text></g></g><g fill="none" stroke="currentColor" stroke-linecap="butt" stroke-linejoin="miter" stroke-width=".5" color="#000"><path stroke="#000" d="M72.8,88.6 L78.4,88.6"/><g fill="#262626" stroke="none" font-family="Helvetica" font-size="10" text-anchor="end"><text transform="translate(65.8,91.9)"><tspan font-family="Helvetica">1.5</tspan></text></g></g><g fill="none" stroke="currentColor" stroke-linecap="butt" stroke-linejoin="miter" stroke-width=".5" color="#000"><path stroke="#000" d="M72.8,31.6 L78.4,31.6"/><g fill="#262626" stroke="none" font-family="Helvetica" font-size="10" text-anchor="end"><text transform="translate(65.8,34.9)"><tspan font-family="Helvetica">2</tspan></text></g></g><g fill="none" stroke="currentColor" stroke-linecap="butt" stroke-linejoin="miter" stroke-width=".5" color="#000"><path stroke="#000" d="M72.8,373.8 L72.8,368.2"/><g fill="#262626" stroke="none" font-family="Helvetica" font-size="10" text-anchor="middle"><text transform="translate(72.8,392.1)"><tspan font-family="Helvetica">0</tspan></text></g></g><g fill="none" stroke="currentColor" stroke-linecap="butt" stroke-linejoin="miter" stroke-width=".5" color="#000"><path stroke="#000" d="M116.2,373.8 L116.2,368.2"/><g fill="#262626" stroke="none" font-family="Helvetica" font-size="10" text-anchor="middle"><text transform="translate(116.2,392.1)"><tspan font-family="Helvetica">1</tspan></text></g></g><g fill="none" stroke="currentColor" stroke-linecap="butt" stroke-linejoin="miter" stroke-width=".5" color="#000"><path stroke="#000" d="M159.6,373.8 L159.6,368.2"/><g fill="#262626" stroke="none" font-family="Helvetica" font-size="10" text-anchor="middle"><text transform="translate(159.6,392.1)"><tspan font-family="Helvetica">2</tspan></text></g></g><g fill="none" stroke="currentColor" stroke-linecap="butt" stroke-linejoin="miter" stroke-width=".5" color="#000"><path stroke="#000" d="M203.0,373.8 L203.0,368.2"/><g fill="#262626" stroke="none" font-family="Helvetica" font-size="10" text-anchor="middle"><text transform="translate(203.0,392.1)"><tspan font-family="Helvetica">3</tspan></text></g></g><g fill="none" stroke="currentColor" stroke-linecap="butt" stroke-linejoin="miter" stroke-width=".5" color="#000"><path stroke="#000" d="M246.4,373.8 L246.4,368.2"/><g fill="#262626" stroke="none" font-family="Helvetica" font-size="10" text-anchor="middle"><text transform="translate(246.4,392.1)"><tspan font-family="Helvetica">4</tspan></text></g></g><g fill="none" stroke="currentColor" stroke-linecap="butt" stroke-linejoin="miter" stroke-width=".5" color="#000"><path stroke="#000" d="M289.8,373.8 L289.8,368.2"/><g fill="#262626" stroke="none" font-family="Helvetica" font-size="10" text-anchor="middle"><text transform="translate(289.8,392.1)"><tspan font-family="Helvetica">5</tspan></text></g></g><g fill="none" stroke="currentColor" stroke-linecap="butt" stroke-linejoin="miter" stroke-width=".5" color="#000"><path stroke="#000" d="M333.1,373.8 L333.1,368.2"/><g fill="#262626" stroke="none" font-family="Helvetica" font-size="10" text-anchor="middle"><text transform="translate(333.1,392.1)"><tspan font-family="Helvetica">6</tspan></text></g></g><g fill="none" stroke="currentColor" stroke-linecap="butt" stroke-linejoin="miter" stroke-width=".5" color="#000"><path stroke="#000" d="M376.5,373.8 L376.5,368.2"/><g fill="#262626" stroke="none" font-family="Helvetica" font-size="10" text-anchor="middle"><text transform="translate(376.5,392.1)"><tspan font-family="Helvetica">7</tspan></text></g></g><g fill="none" stroke="currentColor" stroke-linecap="butt" stroke-linejoin="miter" stroke-width=".5" color="#000"><path stroke="#000" d="M419.9,373.8 L419.9,368.2"/><g fill="#262626" stroke="none" font-family="Helvetica" font-size="10" text-anchor="middle"><text transform="translate(419.9,392.1)"><tspan font-family="Helvetica">8</tspan></text></g></g><g fill="none" stroke="currentColor" stroke-linecap="butt" stroke-linejoin="miter" stroke-width=".5" color="#000"><path stroke="#000" d="M463.3,373.8 L463.3,368.2"/><g fill="#262626" stroke="none" font-family="Helvetica" font-size="10" text-anchor="middle"><text transform="translate(463.3,392.1)"><tspan font-family="Helvetica">9</tspan></text></g></g><g fill="none" stroke="currentColor" stroke-linecap="butt" stroke-linejoin="miter" stroke-width=".5" color="#000"><path stroke="#000" d="M506.7,373.8 L506.7,368.2"/><g fill="#262626" stroke="none" font-family="Helvetica" font-size="10" text-anchor="middle"><text transform="translate(506.7,392.1)"><tspan font-family="Helvetica">10</tspan></text></g></g><g fill="none" stroke="currentColor" stroke-linecap="butt" stroke-linejoin="miter" stroke-width=".5" color="#000"><path stroke="#000" d="M72.8,31.6 L72.8,373.8 L506.7,373.8 L506.7,31.6 L72.8,31.6 Z"/></g><g id="gnuplot_plot_1a"><title>&apos;-&apos;</title><g fill="none" stroke="currentColor" stroke-linecap="butt" stroke-linejoin="miter" stroke-width="1" color="#000"><use color="#3E26A8" transform="translate(72.8,71.7) scale(3.75)" xlink:href="#gpPt5"/><use color="#3E28AC" transform="translate(74.9,43.0) scale(3.75)" xlink:href="#gpPt5"/><use color="#3F29B0" transform="translate(76.9,120.5) scale(3.75)" xlink:href="#gpPt5"/><use color="#402AB4" transform="translate(79.0,102.1) scale(3.75)" xlink:href="#gpPt5"/><use color="#402BB7" transform="translate(81.0,67.9) scale(3.75)" xlink:href="#gpPt5"/><use color="#412DBB" transform="translate(83.1,112.8) scale(3.75)" xlink:href="#gpPt5"/><use color="#422EBE" transform="translate(85.1,100.6) scale(3.75)" xlink:href="#gpPt5"/><use color="#422FC2" transform="translate(87.2,52.8) scale(3.75)" xlink:href="#gpPt5"/><use color="#4331C6" transform="translate(89.2,78.6) scale(3.75)" xlink:href="#gpPt5"/><use color="#4332C9" transform="translate(91.3,154.5) scale(3.75)" xlink:href="#gpPt5"/><use color="#4433CD" transform="translate(93.3,143.4) scale(3.75)" xlink:href="#gpPt5"/><use color="#4435D0" transform="translate(95.4,149.2) scale(3.75)" xlink:href="#gpPt5"/><use color="#4536D3" transform="translate(97.5,93.1) scale(3.75)" xlink:href="#gpPt5"/><use color="#4537D6" transform="translate(99.5,77.7) scale(3.75)" xlink:href="#gpPt5"/><use color="#4639D9" transform="translate(101.6,93.2) scale(3.75)" xlink:href="#gpPt5"/><use color="#463ADC" transform="translate(103.6,147.8) scale(3.75)" xlink:href="#gpPt5"/><use color="#463CDF" transform="translate(105.7,125.5) scale(3.75)" xlink:href="#gpPt5"/><use color="#463EE1" transform="translate(107.7,130.3) scale(3.75)" xlink:href="#gpPt5"/><use color="#4740E3" transform="translate(109.8,112.5) scale(3.75)" xlink:href="#gpPt5"/><use color="#4741E5" transform="translate(111.8,100.3) scale(3.75)" xlink:href="#gpPt5"/><use color="#4743E7" transform="translate(113.9,153.8) scale(3.75)" xlink:href="#gpPt5"/><use color="#4745E9" transform="translate(116.0,98.1) scale(3.75)" xlink:href="#gpPt5"/><use color="#4747EB" transform="translate(118.0,102.5) scale(3.75)" xlink:href="#gpPt5"/><use color="#4849ED" transform="translate(120.1,111.7) scale(3.75)" xlink:href="#gpPt5"/><use color="#484AEE" transform="translate(122.1,147.6) scale(3.75)" xlink:href="#gpPt5"/><use color="#484CF0" transform="translate(124.2,122.9) scale(3.75)" xlink:href="#gpPt5"/><use color="#484EF1" transform="translate(126.2,218.4) scale(3.75)" xlink:href="#gpPt5"/><use color="#4850F2" transform="translate(128.3,128.4) scale(3.75)" xlink:href="#gpPt5"/><use color="#4852F4" transform="translate(130.3,209.1) scale(3.75)" xlink:href="#gpPt5"/><use color="#4853F5" transform="translate(132.4,153.9) scale(3.75)" xlink:href="#gpPt5"/><use color="#4755F6" transform="translate(134.4,173.2) scale(3.75)" xlink:href="#gpPt5"/><use color="#4757F7" transform="translate(136.5,141.6) scale(3.75)" xlink:href="#gpPt5"/><use color="#4759F8" transform="translate(138.6,185.6) scale(3.75)" xlink:href="#gpPt5"/><use color="#475AF9" transform="translate(140.6,220.1) scale(3.75)" xlink:href="#gpPt5"/><use color="#475CFA" transform="translate(142.7,235.4) scale(3.75)" xlink:href="#gpPt5"/><use color="#465EFB" transform="translate(144.7,245.3) scale(3.75)" xlink:href="#gpPt5"/><use color="#4660FB" transform="translate(146.8,176.7) scale(3.75)" xlink:href="#gpPt5"/><use color="#4562FC" transform="translate(148.8,166.5) scale(3.75)" xlink:href="#gpPt5"/><use color="#4563FD" transform="translate(150.9,225.0) scale(3.75)" xlink:href="#gpPt5"/><use color="#4465FD" transform="translate(152.9,207.1) scale(3.75)" xlink:href="#gpPt5"/><use color="#4367FD" transform="translate(155.0,265.0) scale(3.75)" xlink:href="#gpPt5"/><use color="#4269FE" transform="translate(157.1,247.8) scale(3.75)" xlink:href="#gpPt5"/><use color="#416BFE" transform="translate(159.1,228.0) scale(3.75)" xlink:href="#gpPt5"/><use color="#406DFE" transform="translate(161.2,287.8) scale(3.75)" xlink:href="#gpPt5"/><use color="#3F6FFF" transform="translate(163.2,216.6) scale(3.75)" xlink:href="#gpPt5"/><use color="#3D71FF" transform="translate(165.3,232.5) scale(3.75)" xlink:href="#gpPt5"/><use color="#3B73FE" transform="translate(167.3,215.8) scale(3.75)" xlink:href="#gpPt5"/><use color="#3975FE" transform="translate(169.4,294.8) scale(3.75)" xlink:href="#gpPt5"/><use color="#3777FE" transform="translate(171.4,319.6) scale(3.75)" xlink:href="#gpPt5"/><use color="#3579FD" transform="translate(173.5,279.9) scale(3.75)" xlink:href="#gpPt5"/><use color="#337BFD" transform="translate(175.5,312.1) scale(3.75)" xlink:href="#gpPt5"/><use color="#327CFC" transform="translate(177.6,247.0) scale(3.75)" xlink:href="#gpPt5"/><use color="#317EFB" transform="translate(179.7,298.8) scale(3.75)" xlink:href="#gpPt5"/><use color="#2F80FA" transform="translate(181.7,306.1) scale(3.75)" xlink:href="#gpPt5"/><use color="#2F82FA" transform="translate(183.8,321.3) scale(3.75)" xlink:href="#gpPt5"/><use color="#2E84F9" transform="translate(185.8,290.0) scale(3.75)" xlink:href="#gpPt5"/><use color="#2E85F8" transform="translate(187.9,313.8) scale(3.75)" xlink:href="#gpPt5"/><use color="#2E87F7" transform="translate(189.9,293.2) scale(3.75)" xlink:href="#gpPt5"/><use color="#2D89F5" transform="translate(192.0,283.3) scale(3.75)" xlink:href="#gpPt5"/><use color="#2D8AF4" transform="translate(194.0,311.4) scale(3.75)" xlink:href="#gpPt5"/><use color="#2D8CF3" transform="translate(196.1,298.7) scale(3.75)" xlink:href="#gpPt5"/><use color="#2C8EF1" transform="translate(198.2,356.3) scale(3.75)" xlink:href="#gpPt5"/><use color="#2C8FF0" transform="translate(200.2,313.8) scale(3.75)" xlink:href="#gpPt5"/><use color="#2B91EF" transform="translate(202.3,352.5) scale(3.75)" xlink:href="#gpPt5"/><use color="#2A93EE" transform="translate(204.3,333.3) scale(3.75)" xlink:href="#gpPt5"/><use color="#2994ED" transform="translate(206.4,319.2) scale(3.75)" xlink:href="#gpPt5"/><use color="#2896EB" transform="translate(208.4,328.8) scale(3.75)" xlink:href="#gpPt5"/><use color="#2798EA" transform="translate(210.5,302.9) scale(3.75)" xlink:href="#gpPt5"/><use color="#2699E9" transform="translate(212.5,300.5) scale(3.75)" xlink:href="#gpPt5"/><use color="#269BE8" transform="translate(214.6,369.0) scale(3.75)" xlink:href="#gpPt5"/><use color="#259CE7" transform="translate(216.6,278.1) scale(3.75)" xlink:href="#gpPt5"/><use color="#249EE6" transform="translate(218.7,324.5) scale(3.75)" xlink:href="#gpPt5"/><use color="#249FE5" transform="translate(220.8,363.3) scale(3.75)" xlink:href="#gpPt5"/><use color="#23A1E5" transform="translate(222.8,294.4) scale(3.75)" xlink:href="#gpPt5"/><use color="#22A2E4" transform="translate(224.9,330.2) scale(3.75)" xlink:href="#gpPt5"/><use color="#21A4E3" transform="translate(226.9,308.0) scale(3.75)" xlink:href="#gpPt5"/><use color="#20A5E2" transform="translate(229.0,315.9) scale(3.75)" xlink:href="#gpPt5"/><use color="#1FA6E1" transform="translate(231.0,312.9) scale(3.75)" xlink:href="#gpPt5"/><use color="#1DA8E0" transform="translate(233.1,304.3) scale(3.75)" xlink:href="#gpPt5"/><use color="#1CA9DF" transform="translate(235.1,320.6) scale(3.75)" xlink:href="#gpPt5"/><use color="#1BABDE" transform="translate(237.2,317.8) scale(3.75)" xlink:href="#gpPt5"/><use color="#1AACDD" transform="translate(239.3,343.5) scale(3.75)" xlink:href="#gpPt5"/><use color="#18ADDB" transform="translate(241.3,262.4) scale(3.75)" xlink:href="#gpPt5"/><use color="#16AEDA" transform="translate(243.4,276.2) scale(3.75)" xlink:href="#gpPt5"/><use color="#14B0D8" transform="translate(245.4,267.2) scale(3.75)" xlink:href="#gpPt5"/><use color="#12B1D7" transform="translate(247.5,274.6) scale(3.75)" xlink:href="#gpPt5"/><use color="#0FB2D5" transform="translate(249.5,324.2) scale(3.75)" xlink:href="#gpPt5"/><use color="#0CB3D3" transform="translate(251.6,210.2) scale(3.75)" xlink:href="#gpPt5"/><use color="#09B4D1" transform="translate(253.6,276.3) scale(3.75)" xlink:href="#gpPt5"/><use color="#06B5CF" transform="translate(255.7,275.9) scale(3.75)" xlink:href="#gpPt5"/><use color="#04B6CD" transform="translate(257.7,198.0) scale(3.75)" xlink:href="#gpPt5"/><use color="#02B7CB" transform="translate(259.8,283.4) scale(3.75)" xlink:href="#gpPt5"/><use color="#01B8C9" transform="translate(261.9,265.2) scale(3.75)" xlink:href="#gpPt5"/><use color="#01B9C7" transform="translate(263.9,187.1) scale(3.75)" xlink:href="#gpPt5"/><use color="#02BAC5" transform="translate(266.0,282.3) scale(3.75)" xlink:href="#gpPt5"/><use color="#02BBC3" transform="translate(268.0,187.4) scale(3.75)" xlink:href="#gpPt5"/><use color="#05BBC1" transform="translate(270.1,219.5) scale(3.75)" xlink:href="#gpPt5"/><use color="#08BCBF" transform="translate(272.1,213.0) scale(3.75)" xlink:href="#gpPt5"/><use color="#0BBDBC" transform="translate(274.2,210.2) scale(3.75)" xlink:href="#gpPt5"/><use color="#10BEBA" transform="translate(276.2,201.4) scale(3.75)" xlink:href="#gpPt5"/><use color="#14BEB8" transform="translate(278.3,207.9) scale(3.75)" xlink:href="#gpPt5"/><use color="#18BFB6" transform="translate(280.4,241.8) scale(3.75)" xlink:href="#gpPt5"/><use color="#1CC0B3" transform="translate(282.4,152.0) scale(3.75)" xlink:href="#gpPt5"/><use color="#1FC1B1" transform="translate(284.5,187.8) scale(3.75)" xlink:href="#gpPt5"/><use color="#23C1AF" transform="translate(286.5,143.2) scale(3.75)" xlink:href="#gpPt5"/><use color="#26C2AD" transform="translate(288.6,141.4) scale(3.75)" xlink:href="#gpPt5"/><use color="#28C3AA" transform="translate(290.6,223.4) scale(3.75)" xlink:href="#gpPt5"/><use color="#2BC3A8" transform="translate(292.7,172.7) scale(3.75)" xlink:href="#gpPt5"/><use color="#2DC4A6" transform="translate(294.7,200.8) scale(3.75)" xlink:href="#gpPt5"/><use color="#2FC5A3" transform="translate(296.8,202.1) scale(3.75)" xlink:href="#gpPt5"/><use color="#30C5A1" transform="translate(298.8,161.6) scale(3.75)" xlink:href="#gpPt5"/><use color="#32C69E" transform="translate(300.9,185.9) scale(3.75)" xlink:href="#gpPt5"/><use color="#34C79C" transform="translate(303.0,102.5) scale(3.75)" xlink:href="#gpPt5"/><use color="#36C899" transform="translate(305.0,186.8) scale(3.75)" xlink:href="#gpPt5"/><use color="#38C896" transform="translate(307.1,109.1) scale(3.75)" xlink:href="#gpPt5"/><use color="#3AC993" transform="translate(309.1,157.9) scale(3.75)" xlink:href="#gpPt5"/><use color="#3DC990" transform="translate(311.2,97.8) scale(3.75)" xlink:href="#gpPt5"/><use color="#3FCA8E" transform="translate(313.2,72.7) scale(3.75)" xlink:href="#gpPt5"/><use color="#43CA8B" transform="translate(315.3,96.2) scale(3.75)" xlink:href="#gpPt5"/><use color="#46CB87" transform="translate(317.3,76.8) scale(3.75)" xlink:href="#gpPt5"/><use color="#4ACB84" transform="translate(319.4,116.0) scale(3.75)" xlink:href="#gpPt5"/><use color="#4ECC81" transform="translate(321.5,67.4) scale(3.75)" xlink:href="#gpPt5"/><use color="#52CC7E" transform="translate(323.5,102.3) scale(3.75)" xlink:href="#gpPt5"/><use color="#56CC7B" transform="translate(325.6,88.7) scale(3.75)" xlink:href="#gpPt5"/><use color="#5ACC77" transform="translate(327.6,76.4) scale(3.75)" xlink:href="#gpPt5"/><use color="#5ECD74" transform="translate(329.7,81.3) scale(3.75)" xlink:href="#gpPt5"/><use color="#62CD70" transform="translate(331.7,150.1) scale(3.75)" xlink:href="#gpPt5"/><use color="#67CD6D" transform="translate(333.8,55.5) scale(3.75)" xlink:href="#gpPt5"/><use color="#6BCD69" transform="translate(335.8,122.5) scale(3.75)" xlink:href="#gpPt5"/><use color="#6FCD66" transform="translate(337.9,101.6) scale(3.75)" xlink:href="#gpPt5"/><use color="#74CC62" transform="translate(339.9,41.1) scale(3.75)" xlink:href="#gpPt5"/><use color="#79CC5F" transform="translate(342.0,34.0) scale(3.75)" xlink:href="#gpPt5"/><use color="#7DCC5B" transform="translate(344.1,114.1) scale(3.75)" xlink:href="#gpPt5"/><use color="#82CC58" transform="translate(346.1,84.7) scale(3.75)" xlink:href="#gpPt5"/><use color="#87CB54" transform="translate(348.2,64.0) scale(3.75)" xlink:href="#gpPt5"/><use color="#8BCB51" transform="translate(350.2,71.6) scale(3.75)" xlink:href="#gpPt5"/><use color="#90CA4D" transform="translate(352.3,33.0) scale(3.75)" xlink:href="#gpPt5"/><use color="#94CA4A" transform="translate(354.3,72.4) scale(3.75)" xlink:href="#gpPt5"/><use color="#99C946" transform="translate(356.4,127.1) scale(3.75)" xlink:href="#gpPt5"/><use color="#9EC943" transform="translate(358.4,56.8) scale(3.75)" xlink:href="#gpPt5"/><use color="#A2C83F" transform="translate(360.5,49.9) scale(3.75)" xlink:href="#gpPt5"/><use color="#A6C73C" transform="translate(362.6,74.1) scale(3.75)" xlink:href="#gpPt5"/><use color="#ABC739" transform="translate(364.6,72.3) scale(3.75)" xlink:href="#gpPt5"/><use color="#AFC637" transform="translate(366.7,150.8) scale(3.75)" xlink:href="#gpPt5"/><use color="#B3C534" transform="translate(368.7,88.5) scale(3.75)" xlink:href="#gpPt5"/><use color="#B7C531" transform="translate(370.8,80.8) scale(3.75)" xlink:href="#gpPt5"/><use color="#BBC42F" transform="translate(372.8,76.1) scale(3.75)" xlink:href="#gpPt5"/><use color="#BFC32D" transform="translate(374.9,148.9) scale(3.75)" xlink:href="#gpPt5"/><use color="#C3C22B" transform="translate(376.9,103.5) scale(3.75)" xlink:href="#gpPt5"/><use color="#C7C129" transform="translate(379.0,144.7) scale(3.75)" xlink:href="#gpPt5"/><use color="#CBC129" transform="translate(381.0,86.9) scale(3.75)" xlink:href="#gpPt5"/><use color="#CFC028" transform="translate(383.1,172.7) scale(3.75)" xlink:href="#gpPt5"/><use color="#D3BF27" transform="translate(385.2,166.0) scale(3.75)" xlink:href="#gpPt5"/><use color="#D6BE28" transform="translate(387.2,86.1) scale(3.75)" xlink:href="#gpPt5"/><use color="#D9BD28" transform="translate(389.3,130.0) scale(3.75)" xlink:href="#gpPt5"/><use color="#DDBD29" transform="translate(391.3,136.2) scale(3.75)" xlink:href="#gpPt5"/><use color="#E0BC2A" transform="translate(393.4,159.2) scale(3.75)" xlink:href="#gpPt5"/><use color="#E3BB2C" transform="translate(395.4,212.9) scale(3.75)" xlink:href="#gpPt5"/><use color="#E7BB2D" transform="translate(397.5,150.6) scale(3.75)" xlink:href="#gpPt5"/><use color="#E9BB30" transform="translate(399.5,212.9) scale(3.75)" xlink:href="#gpPt5"/><use color="#ECBA33" transform="translate(401.6,198.3) scale(3.75)" xlink:href="#gpPt5"/><use color="#EFBA35" transform="translate(403.7,219.4) scale(3.75)" xlink:href="#gpPt5"/><use color="#F2BA38" transform="translate(405.7,220.3) scale(3.75)" xlink:href="#gpPt5"/><use color="#F5BA3A" transform="translate(407.8,139.7) scale(3.75)" xlink:href="#gpPt5"/><use color="#F7BA3C" transform="translate(409.8,161.2) scale(3.75)" xlink:href="#gpPt5"/><use color="#F9BB3D" transform="translate(411.9,181.9) scale(3.75)" xlink:href="#gpPt5"/><use color="#FBBC3D" transform="translate(413.9,169.3) scale(3.75)" xlink:href="#gpPt5"/><use color="#FDBD3D" transform="translate(416.0,157.8) scale(3.75)" xlink:href="#gpPt5"/><use color="#FEBF3C" transform="translate(418.0,240.0) scale(3.75)" xlink:href="#gpPt5"/><use color="#FEC03A" transform="translate(420.1,180.0) scale(3.75)" xlink:href="#gpPt5"/><use color="#FEC239" transform="translate(422.1,240.4) scale(3.75)" xlink:href="#gpPt5"/><use color="#FEC437" transform="translate(424.2,257.0) scale(3.75)" xlink:href="#gpPt5"/><use color="#FEC636" transform="translate(426.3,212.7) scale(3.75)" xlink:href="#gpPt5"/><use color="#FEC835" transform="translate(428.3,186.6) scale(3.75)" xlink:href="#gpPt5"/><use color="#FECA33" transform="translate(430.4,251.1) scale(3.75)" xlink:href="#gpPt5"/><use color="#FDCC32" transform="translate(432.4,227.5) scale(3.75)" xlink:href="#gpPt5"/><use color="#FDCE31" transform="translate(434.5,199.6) scale(3.75)" xlink:href="#gpPt5"/><use color="#FCD030" transform="translate(436.5,287.3) scale(3.75)" xlink:href="#gpPt5"/><use color="#FBD22F" transform="translate(438.6,237.3) scale(3.75)" xlink:href="#gpPt5"/><use color="#FAD42E" transform="translate(440.6,246.4) scale(3.75)" xlink:href="#gpPt5"/><use color="#FAD62D" transform="translate(442.7,310.8) scale(3.75)" xlink:href="#gpPt5"/><use color="#F9D82C" transform="translate(444.8,286.7) scale(3.75)" xlink:href="#gpPt5"/><use color="#F8DA2B" transform="translate(446.8,249.5) scale(3.75)" xlink:href="#gpPt5"/><use color="#F7DC2A" transform="translate(448.9,263.3) scale(3.75)" xlink:href="#gpPt5"/><use color="#F6DE29" transform="translate(450.9,296.0) scale(3.75)" xlink:href="#gpPt5"/><use color="#F6E028" transform="translate(453.0,337.4) scale(3.75)" xlink:href="#gpPt5"/><use color="#F5E228" transform="translate(455.0,345.7) scale(3.75)" xlink:href="#gpPt5"/><use color="#F5E427" transform="translate(457.1,335.5) scale(3.75)" xlink:href="#gpPt5"/><use color="#F5E626" transform="translate(459.1,335.7) scale(3.75)" xlink:href="#gpPt5"/><use color="#F5E825" transform="translate(461.2,339.6) scale(3.75)" xlink:href="#gpPt5"/><use color="#F5EA24" transform="translate(463.2,260.0) scale(3.75)" xlink:href="#gpPt5"/><use color="#F5EC22" transform="translate(465.3,255.8) scale(3.75)" xlink:href="#gpPt5"/><use color="#F5EE21" transform="translate(467.4,324.5) scale(3.75)" xlink:href="#gpPt5"/><use color="#F6F020" transform="translate(469.4,271.1) scale(3.75)" xlink:href="#gpPt5"/><use color="#F6F11E" transform="translate(471.5,305.9) scale(3.75)" xlink:href="#gpPt5"/><use color="#F7F31C" transform="translate(473.5,335.1) scale(3.75)" xlink:href="#gpPt5"/><use color="#F7F51B" transform="translate(475.6,367.9) scale(3.75)" xlink:href="#gpPt5"/><use color="#F8F719" transform="translate(477.6,353.1) scale(3.75)" xlink:href="#gpPt5"/><use color="#F8F917" transform="translate(479.7,273.6) scale(3.75)" xlink:href="#gpPt5"/><use color="#F9FB15" transform="translate(481.7,352.9) scale(3.75)" xlink:href="#gpPt5"/></g></g><g fill="none" stroke="currentColor" stroke-linecap="butt" stroke-linejoin="miter" stroke-width=".5" color="#000"><path stroke="#000" d="M72.8,31.6 L72.8,373.8 L506.7,373.8 L506.7,31.6 L72.8,31.6 Z"/></g></g></svg>