<svg xmlns="http://www.w3.org/2000/svg" xmlns:xlink="http://www.w3.org/1999/xlink" width="560" height="420" viewBox="0 0 560 420"><title>Gnuplot</title><desc>Produced by GNUPLOT 5.4 patchlevel 0</desc><g id="gnuplot_canvas"><rect width="560" height="420" x="0" y="0" fill="none"/><defs><circle id="gpDot" r=".5" stroke="currentColor" stroke-width=".5"/><path id="gpPt0" stroke="currentColor" stroke-width=".267" d="M-1,0 h2 M0,-1 v2"/><path id="gpPt1" stroke="currentColor" stroke-width=".267" d="M-1,-1 L1,1 M1,-1 L-1,1"/><path id="gpPt2" stroke="currentColor" stroke-width=".267" d="M-1,0 L1,0 M0,-1 L0,1 M-1,-1 L1,1 M-1,1 L1,-1"/><rect id="gpPt3" width="2" height="2" x="-1" y="-1" stroke="currentColor" stroke-width=".267"/><rect id="gpPt4" width="2" height="2" x="-1" y="-1" fill="currentColor" stroke="currentColor" stroke-width=".267"/><circle id="gpPt5" cx="0" cy="0" r="1" stroke="currentColor" stroke-width=".267"/><use id="gpPt6" fill="currentColor" stroke="none" xlink:href="#gpPt5"/><path id="gpPt7" stroke="currentColor" stroke-width=".267" d="M0,-1.33 L-1.33,0.67 L1.33,0.67 z"/><use id="gpPt8" fill="currentColor" stroke="none" xlink:href="#gpPt7"/><use id="gpPt9" stroke="currentColor" transform="rotate(180)" xlink:href="#gpPt7"/><use id="gpPt10" fill="currentColor" stroke="none" xlink:href="#gpPt9"/><use id="gpPt11" stroke="currentColor" transform="rotate(45)" xlink:href="#gpPt3"/><use id="gpPt12" fill="currentColor" stroke="none" xlink:href="#gpPt11"/><path id="gpPt13" stroke="currentColor" stroke-width=".267" d="M0,1.330 L1.265,0.411 L0.782,-1.067 L-0.782,-1.076 L-1.265,0.411 z"/><use id="gpPt14" fill="currentColor" stroke="none" xlink:href="#gpPt13"/><filter id="textbox" width="1" height="1" x="0" y="0" filterUnits="objectBoundingBox"><feFlood flood-color="#fff" flood-opacity="1" result="bgnd"/><feComposite in="SourceGraphic" in2="bgnd" operator="atop"/></filter><filter id="greybox" width="1" height="1" x="0" y="0" filterUnits="objectBoundingBox"><feFlood flood-color="#d3d3d3" flood-opacity="1" result="grey"/><feComposite in="SourceGraphic" in2="grey" operator="atop"/></filter></defs><g fill="none" stroke="currentColor" stroke-linecap="butt" stroke-linejoin="miter" stroke-width=".5" color="#000"><path stroke="#000" d="M72.8,373.8 L78.4,373.8"/><g fill="#262626" stroke="none" font-family="Helvetica" font-size="10" text-anchor="end"><text transform="translate(65.8,377.1)"><tspan font-family="Helvetica">-1</tspan></text></g></g><g fill="none" stroke="currentColor" stroke-linecap="butt" stroke-linejoin="miter" stroke-width=".5" color="#000"><path stroke="#000" d="M72.8,316.8 L78.4,316.8"/><g fill="#262626" stroke="none" font-family="Helvetica" font-size="10" text-anchor="end"><text transform="translate(65.8,320.1)"><tspan font-family="Helvetica">-0.5</tspan></text></g></g><g fill="none" stroke="currentColor" stroke-linecap="butt" stroke-linejoin="miter" stroke-width=".5" color="#000"><path stroke="#000" d="M72.8,259.7 L78.4,259.7"/><g fill="#262626" stroke="none" font-family="Helvetica" font-size="10" text-anchor="end"><text transform="translate(65.8,263.0)"><tspan font-family="Helvetica">0</tspan></text></g></g><g fill="none" stroke="currentColor" stroke-linecap="butt" stroke-linejoin="miter" stroke-width=".5" color="#000"><path stroke="#000" d="M72.8,202.7 L78.4,202.7"/><g fill="#262626" stroke="none" font-family="Helvetica" font-size="10" text-anchor="end"><text transform="translate(65.8,206.0)"><tspan font-family="Helvetica">0.5</tspan></text></g></g><g fill="none" stroke="currentColor" stroke-linecap="butt" stroke-linejoin="miter" stroke-width=".5" color="#000"><path stroke="#000" d="M72.8,145.7 L78.4,145.7"/><g fill="#262626" stroke="none" font-family="Helvetica" font-size="10" text-anchor="end"><text transform="translate(65.8,149.0)"><tspan font-family="Helvetica">1</tspan></text></g></g><g fill="none" stroke="currentColor" stroke-linecap="butt" stroke-linejoin="miter" stroke-width=".5" color="#000"><path stroke="#000" d="M72.8,88.6 L78.4,88.6"/><g fill="#262626" stroke="none" font-family="Helvetica" font-size="10" text-anchor="end"><text transform="translate(65.8,91.9)"><tspan font-family="Helvetica">1.5</tspan></text></g></g><g fill="none" stroke="currentColor" stroke-linecap="butt" stroke-linejoin="miter" stroke-width=".5" color="#000"><path stroke="#000" d="M72.8,31.6 L78.4,31.6"/><g fill="#262626" stroke="none" font-family="Helvetica" font-size="10" text-anchor="end"><text transform="translate(65.8,34.9)"><tspan font-family="Helvetica">2</tspan></text></g></g><g fill="none" stroke="currentColor" stroke-linecap="butt" stroke-linejoin="miter" stroke-width=".5" color="#000"><path stroke="#000" d="M72.8,373.8 L72.8,368.2"/><g fill="#262626" stroke="none" font-family="Helvetica" font-size="10" text-anchor="middle"><text transform="translate(72.8,392.1)"><tspan font-family="Helvetica">0</tspan></text></g></g><g fill="none" stroke="currentColor" stroke-linecap="butt" stroke-linejoin="miter" stroke-width=".5" color="#000"><path stroke="#000" d="M116.2,373.8 L116.2,368.2"/><g fill="#262626" stroke="none" font-family="Helvetica" font-size="10" text-anchor="middle"><text transform="translate(116.2,392.1)"><tspan font-family="Helvetica">1</tspan></text></g></g><g fill="none" stroke="currentColor" stroke-linecap="butt" stroke-linejoin="miter" stroke-width=".5" color="#000"><path stroke="#000" d="M159.6,373.8 L159.6,368.2"/><g fill="#262626" stroke="none" font-family="Helvetica" font-size="10" text-anchor="middle"><text transform="translate(159.6,392.1)"><tspan font-family="Helvetica">2</tspan></text></g></g><g fill="none" stroke="currentColor" stroke-linecap="butt" stroke-linejoin="miter" stroke-width=".5" color="#000"><path stroke="#000" d="M203.0,373.8 L203.0,368.2"/><g fill="#262626" stroke="none" font-family="Helvetica" font-size="10" text-anchor="middle"><text transform="translate(203.0,392.1)"><tspan font-family="Helvetica">3</tspan></text></g></g><g fill="none" stroke="currentColor" stroke-linecap="butt" stroke-linejoin="miter" stroke-width=".5" color="#000"><path stroke="#000" d="M246.4,373.8 L246.4,368.2"/><g fill="#262626" stroke="none" font-family="Helvetica" font-size="10" text-anchor="middle"><text transform="translate(246.4,392.1)"><tspan font-family="Helvetica">4</tspan></text></g></g><g fill="none" stroke="currentColor" stroke-linecap="butt" stroke-linejoin="miter" stroke-width=".5" color="#000"><path stroke="#000" d="M289.8,373.8 L289.8,368.2"/><g fill="#262626" stroke="none" font-family="Helvetica" font-size="10" text-anchor="middle"><text transform="translate(289.8,392.1)"><tspan font-family="Helvetica">5</tspan></text></g></g><g fill="none" stroke="currentColor" stroke-linecap="butt" stroke-linejoin="miter" stroke-width=".5" color="#000"><path stroke="#000" d="M333.1,373.8 L333.1,368.2"/><g fill="#262626" stroke="none" font-family="Helvetica" font-size="10" text-anchor="middle"><text transform="translate(333.1,392.1)"><tspan font-family="Helvetica">6</tspan></text></g></g><g fill="none" stroke="currentColor" stroke-linecap="butt" stroke-linejoin="miter" stroke-width=".5" color="#000"><path stroke="#000" d="M376.5,373.8 L376.5,368.2"/><g fill="#262626" stroke="none" font-family="Helvetica" font-size="10" text-anchor="middle"><text transform="translate(376.5,392.1)"><tspan font-family="Helvetica">7</tspan></text></g></g><g fill="none" stroke="currentColor" stroke-linecap="butt" stroke-linejoin="miter" stroke-width=".5" color="#000"><path stroke="#000" d="M419.9,373.8 L419.9,368.2"/><g fill="#262626" stroke="none" font-family="Helvetica" font-size="10" text-anchor="middle"><text transform="translate(419.9,392.1)"><tspan font-family="Helvetica">8</tspan></text></g></g><g fill="none" stroke="currentColor" stroke-linecap="butt" stroke-linejoin="miter" stroke-width=".5" color="#000"><path stroke="#000" d="M463.3,373.8 L463.3,368.2"/><g fill="#262626" stroke="none" font-family="Helvetica" font-size="10" text-anchor="middle"><text transform="translate(463.3,392.1)"><tspan font-family="Helvetica">9</tspan></text></g></g><g fill="none" stroke="currentColor" stroke-linecap="butt" stroke-linejoin="miter" stroke-width=".5" color="#000"><path stroke="#000" d="M506.7,373.8 L506.7,368.2"/><g fill="#262626" stroke="none" font-family="Helvetica" font-size="10" text-anchor="middle"><text transform="translate(506.7,392.1)"><tspan font-family="Helvetica">10</tspan></text></g></g><g fill="none" stroke="currentColor" stroke-linecap="butt" stroke-linejoin="miter" stroke-width=".5" color="#000"><path stroke="#000" d="M72.8,31.6 L72.8,373.8 L506.7,373.8 L506.7,31.6 L72.8,31.6 Z"/></g><g id="gnuplot_plot_1a"><title>&apos;-&apos;</title><g fill="none" stroke="currentColor" stroke-linecap="butt" stroke-linejoin="miter" stroke-width="1" color="#000"><use color="#0071BC" transform="translate(72.8,127.3) scale(3.75)" xlink:href="#gpPt5"/><use color="#0071BC" transform="translate(74.9,113.7) scale(3.75)" xlink:href="#gpPt5"/><use color="#0071BC" transform="translate(76.9,59.0) scale(3.75)" xlink:href="#gpPt5"/><use color="#0071BC" transform="translate(79.0,69.9) scale(3.75)" xlink:href="#gpPt5"/><use color="#0071BC" transform="translate(81.0,88.2) scale(3.75)" xlink:href="#gpPt5"/><use color="#0071BC" transform="translate(83.1,95.6) scale(3.75)" xlink:href="#gpPt5"/><use color="#0071BC" transform="translate(85.1,136.3) scale(3.75)" xlink:href="#gpPt5"/><use color="#0071BC" transform="translate(87.2,138.7) scale(3.75)" xlink:href="#gpPt5"/><use color="#0071BC" transform="translate(89.2,142.7) scale(3.75)" xlink:href="#gpPt5"/><use color="#0071BC" transform="translate(91.3,93.9) scale(3.75)" xlink:href="#gpPt5"/><use color="#0071BC" transform="translate(93.3,66.7) scale(3.75)" xlink:href="#gpPt5"/><use color="#0071BC" transform="translate(95.4,108.7) scale(3.75)" xlink:href="#gpPt5"/><use color="#0071BC" transform="translate(97.5,94.2) scale(3.75)" xlink:href="#gpPt5"/><use color="#0071BC" transform="translate(99.5,79.9) scale(3.75)" xlink:href="#gpPt5"/><use color="#0071BC" transform="translate(101.6,142.9) scale(3.75)" xlink:href="#gpPt5"/><use color="#0071BC" transform="translate(103.6,144.2) scale(3.75)" xlink:href="#gpPt5"/><use color="#0071BC" transform="translate(105.7,144.8) scale(3.75)" xlink:href="#gpPt5"/><use color="#0071BC" transform="translate(107.7,104.7) scale(3.75)" xlink:href="#gpPt5"/><use color="#0071BC" transform="translate(109.8,157.4) scale(3.75)" xlink:href="#gpPt5"/><use color="#0071BC" transform="translate(111.8,79.0) scale(3.75)" xlink:href="#gpPt5"/><use color="#0071BC" transform="translate(113.9,159.9) scale(3.75)" xlink:href="#gpPt5"/><use color="#0071BC" transform="translate(116.0,186.3) scale(3.75)" xlink:href="#gpPt5"/><use color="#0071BC" transform="translate(118.0,128.1) scale(3.75)" xlink:href="#gpPt5"/><use color="#0071BC" transform="translate(120.1,152.5) scale(3.75)" xlink:href="#gpPt5"/><use color="#0071BC" transform="translate(122.1,119.6) scale(3.75)" xlink:href="#gpPt5"/><use color="#0071BC" transform="translate(124.2,213.3) scale(3.75)" xlink:href="#gpPt5"/><use color="#0071BC" transform="translate(126.2,161.2) scale(3.75)" xlink:href="#gpPt5"/><use color="#0071BC" transform="translate(128.3,116.6) scale(3.75)" xlink:href="#gpPt5"/><use color="#0071BC" transform="translate(130.3,168.9) scale(3.75)" xlink:href="#gpPt5"/><use color="#0071BC" transform="translate(132.4,216.3) scale(3.75)" xlink:href="#gpPt5"/><use color="#0071BC" transform="translate(134.4,138.8) scale(3.75)" xlink:href="#gpPt5"/><use color="#0071BC" transform="translate(136.5,194.1) scale(3.75)" xlink:href="#gpPt5"/><use color="#0071BC" transform="translate(138.6,234.9) scale(3.75)" xlink:href="#gpPt5"/><use color="#0071BC" transform="translate(140.6,249.4) scale(3.75)" xlink:href="#gpPt5"/><use color="#0071BC" transform="translate(142.7,244.0) scale(3.75)" xlink:href="#gpPt5"/><use color="#0071BC" transform="translate(144.7,263.7) scale(3.75)" xlink:href="#gpPt5"/><use color="#0071BC" transform="translate(146.8,182.5) scale(3.75)" xlink:href="#gpPt5"/><use color="#0071BC" transform="translate(148.8,202.0) scale(3.75)" xlink:href="#gpPt5"/><use color="#0071BC" transform="translate(150.9,254.4) scale(3.75)" xlink:href="#gpPt5"/><use color="#0071BC" transform="translate(152.9,225.9) scale(3.75)" xlink:href="#gpPt5"/><use color="#0071BC" transform="translate(155.0,236.3) scale(3.75)" xlink:href="#gpPt5"/><use color="#0071BC" transform="translate(157.1,300.0) scale(3.75)" xlink:href="#gpPt5"/><use color="#0071BC" transform="translate(159.1,265.3) scale(3.75)" xlink:href="#gpPt5"/><use color="#0071BC" transform="translate(161.2,279.3) scale(3.75)" xlink:href="#gpPt5"/><use color="#0071BC" transform="translate(163.2,244.5) scale(3.75)" xlink:href="#gpPt5"/><use color="#0071BC" transform="translate(165.3,276.4) scale(3.75)" xlink:href="#gpPt5"/><use color="#0071BC" transform="translate(167.3,289.0) scale(3.75)" xlink:href="#gpPt5"/><use color="#0071BC" transform="translate(169.4,307.3) scale(3.75)" xlink:href="#gpPt5"/><use color="#0071BC" transform="translate(171.4,294.9) scale(3.75)" xlink:href="#gpPt5"/><use color="#0071BC" transform="translate(173.5,232.0) scale(3.75)" xlink:href="#gpPt5"/><use color="#0071BC" transform="translate(175.5,293.9) scale(3.75)" xlink:href="#gpPt5"/><use color="#0071BC" transform="translate(177.6,245.7) scale(3.75)" xlink:href="#gpPt5"/><use color="#0071BC" transform="translate(179.7,323.1) scale(3.75)" xlink:href="#gpPt5"/><use color="#0071BC" transform="translate(181.7,248.4) scale(3.75)" xlink:href="#gpPt5"/><use color="#0071BC" transform="translate(183.8,263.3) scale(3.75)" xlink:href="#gpPt5"/><use color="#0071BC" transform="translate(185.8,253.7) scale(3.75)" xlink:href="#gpPt5"/><use color="#0071BC" transform="translate(187.9,330.2) scale(3.75)" xlink:href="#gpPt5"/><use color="#0071BC" transform="translate(189.9,256.3) scale(3.75)" xlink:href="#gpPt5"/><use color="#0071BC" transform="translate(192.0,254.5) scale(3.75)" xlink:href="#gpPt5"/><use color="#0071BC" transform="translate(194.0,290.4) scale(3.75)" xlink:href="#gpPt5"/><use color="#0071BC" transform="translate(196.1,298.9) scale(3.75)" xlink:href="#gpPt5"/><use color="#0071BC" transform="translate(198.2,305.8) scale(3.75)" xlink:href="#gpPt5"/><use color="#0071BC" transform="translate(200.2,360.7) scale(3.75)" xlink:href="#gpPt5"/><use color="#0071BC" transform="translate(202.3,260.2) scale(3.75)" xlink:href="#gpPt5"/><use color="#0071BC" transform="translate(204.3,320.9) scale(3.75)" xlink:href="#gpPt5"/><use color="#0071BC" transform="translate(206.4,262.0) scale(3.75)" xlink:href="#gpPt5"/><use color="#0071BC" transform="translate(208.4,260.9) scale(3.75)" xlink:href="#gpPt5"/><use color="#0071BC" transform="translate(210.5,287.8) scale(3.75)" xlink:href="#gpPt5"/><use color="#0071BC" transform="translate(212.5,310.7) scale(3.75)" xlink:href="#gpPt5"/><use color="#0071BC" transform="translate(214.6,271.0) scale(3.75)" xlink:href="#gpPt5"/><use color="#0071BC" transform="translate(216.6,296.2) scale(3.75)" xlink:href="#gpPt5"/><use color="#0071BC" transform="translate(218.7,287.1) scale(3.75)" xlink:href="#gpPt5"/><use color="#0071BC" transform="translate(220.8,345.5) scale(3.75)" xlink:href="#gpPt5"/><use color="#0071BC" transform="translate(222.8,288.0) scale(3.75)" xlink:href="#gpPt5"/><use color="#0071BC" transform="translate(224.9,291.5) scale(3.75)" xlink:href="#gpPt5"/><use color="#0071BC" transform="translate(226.9,360.8) scale(3.75)" xlink:href="#gpPt5"/><use color="#0071BC" transform="translate(229.0,322.3) scale(3.75)" xlink:href="#gpPt5"/><use color="#0071BC" transform="translate(231.0,300.3) scale(3.75)" xlink:href="#gpPt5"/><use color="#0071BC" transform="translate(233.1,321.1) scale(3.75)" xlink:href="#gpPt5"/><use color="#0071BC" transform="translate(235.1,282.4) scale(3.75)" xlink:href="#gpPt5"/><use color="#0071BC" transform="translate(237.2,295.7) scale(3.75)" xlink:href="#gpPt5"/><use color="#0071BC" transform="translate(239.3,326.7) scale(3.75)" xlink:href="#gpPt5"/><use color="#0071BC" transform="translate(241.3,321.0) scale(3.75)" xlink:href="#gpPt5"/><use color="#0071BC" transform="translate(243.4,247.6) scale(3.75)" xlink:href="#gpPt5"/><use color="#0071BC" transform="translate(245.4,310.8) scale(3.75)" xlink:href="#gpPt5"/><use color="#0071BC" transform="translate(247.5,312.5) scale(3.75)" xlink:href="#gpPt5"/><use color="#0071BC" transform="translate(249.5,327.2) scale(3.75)" xlink:href="#gpPt5"/><use color="#0071BC" transform="translate(251.6,224.6) scale(3.75)" xlink:href="#gpPt5"/><use color="#0071BC" transform="translate(253.6,250.8) scale(3.75)" xlink:href="#gpPt5"/><use color="#0071BC" transform="translate(255.7,230.3) scale(3.75)" xlink:href="#gpPt5"/><use color="#0071BC" transform="translate(257.7,259.5) scale(3.75)" xlink:href="#gpPt5"/><use color="#0071BC" transform="translate(259.8,241.1) scale(3.75)" xlink:href="#gpPt5"/><use color="#0071BC" transform="translate(261.9,200.1) scale(3.75)" xlink:href="#gpPt5"/><use color="#0071BC" transform="translate(263.9,214.9) scale(3.75)" xlink:href="#gpPt5"/><use color="#0071BC" transform="translate(266.0,217.0) scale(3.75)" xlink:href="#gpPt5"/><use color="#0071BC" transform="translate(268.0,272.2) scale(3.75)" xlink:href="#gpPt5"/><use color="#0071BC" transform="translate(270.1,225.9) scale(3.75)" xlink:href="#gpPt5"/><use color="#0071BC" transform="translate(272.1,199.1) scale(3.75)" xlink:href="#gpPt5"/><use color="#0071BC" transform="translate(274.2,183.4) scale(3.75)" xlink:href="#gpPt5"/><use color="#0071BC" transform="translate(276.2,251.5) scale(3.75)" xlink:href="#gpPt5"/><use color="#0071BC" transform="translate(278.3,176.7) scale(3.75)" xlink:href="#gpPt5"/><use color="#0071BC" transform="translate(280.4,160.4) scale(3.75)" xlink:href="#gpPt5"/><use color="#0071BC" transform="translate(282.4,171.9) scale(3.75)" xlink:href="#gpPt5"/><use color="#0071BC" transform="translate(284.5,159.9) scale(3.75)" xlink:href="#gpPt5"/><use color="#0071BC" transform="translate(286.5,227.7) scale(3.75)" xlink:href="#gpPt5"/><use color="#0071BC" transform="translate(288.6,158.0) scale(3.75)" xlink:href="#gpPt5"/><use color="#0071BC" transform="translate(290.6,200.0) scale(3.75)" xlink:href="#gpPt5"/><use color="#0071BC" transform="translate(292.7,145.3) scale(3.75)" xlink:href="#gpPt5"/><use color="#0071BC" transform="translate(294.7,193.4) scale(3.75)" xlink:href="#gpPt5"/><use color="#0071BC" transform="translate(296.8,200.1) scale(3.75)" xlink:href="#gpPt5"/><use color="#0071BC" transform="translate(298.8,164.9) scale(3.75)" xlink:href="#gpPt5"/><use color="#0071BC" transform="translate(300.9,164.0) scale(3.75)" xlink:href="#gpPt5"/><use color="#0071BC" transform="translate(303.0,122.8) scale(3.75)" xlink:href="#gpPt5"/><use color="#0071BC" transform="translate(305.0,185.9) scale(3.75)" xlink:href="#gpPt5"/><use color="#0071BC" transform="translate(307.1,94.4) scale(3.75)" xlink:href="#gpPt5"/><use color="#0071BC" transform="translate(309.1,172.1) scale(3.75)" xlink:href="#gpPt5"/><use color="#0071BC" transform="translate(311.2,72.0) scale(3.75)" xlink:href="#gpPt5"/><use color="#0071BC" transform="translate(313.2,64.6) scale(3.75)" xlink:href="#gpPt5"/><use color="#0071BC" transform="translate(315.3,97.4) scale(3.75)" xlink:href="#gpPt5"/><use color="#0071BC" transform="translate(317.3,158.7) scale(3.75)" xlink:href="#gpPt5"/><use color="#0071BC" transform="translate(319.4,58.3) scale(3.75)" xlink:href="#gpPt5"/><use color="#0071BC" transform="translate(321.5,49.3) scale(3.75)" xlink:href="#gpPt5"/><use color="#0071BC" transform="translate(323.5,128.4) scale(3.75)" xlink:href="#gpPt5"/><use color="#0071BC" transform="translate(325.6,72.9) scale(3.75)" xlink:href="#gpPt5"/><use color="#0071BC" transform="translate(327.6,50.6) scale(3.75)" xlink:href="#gpPt5"/><use color="#0071BC" transform="translate(329.7,149.6) scale(3.75)" xlink:href="#gpPt5"/><use color="#0071BC" transform="translate(331.7,148.2) scale(3.75)" xlink:href="#gpPt5"/><use color="#0071BC" transform="translate(333.8,64.8) scale(3.75)" xlink:href="#gpPt5"/><use color="#0071BC" transform="translate(335.8,110.8) scale(3.75)" xlink:href="#gpPt5"/><use color="#0071BC" transform="translate(337.9,116.8) scale(3.75)" xlink:href="#gpPt5"/><use color="#0071BC" transform="translate(339.9,88.0) scale(3.75)" xlink:href="#gpPt5"/><use color="#0071BC" transform="translate(342.0,88.8) scale(3.75)" xlink:href="#gpPt5"/><use color="#0071BC" transform="translate(344.1,139.8) scale(3.75)" xlink:href="#gpPt5"/><use color="#0071BC" transform="translate(346.1,125.4) scale(3.75)" xlink:href="#gpPt5"/><use color="#0071BC" transform="translate(348.2,101.6) scale(3.75)" xlink:href="#gpPt5"/><use color="#0071BC" transform="translate(350.2,100.6) scale(3.75)" xlink:href="#gpPt5"/><use color="#0071BC" transform="translate(352.3,123.5) scale(3.75)" xlink:href="#gpPt5"/><use color="#0071BC" transform="translate(354.3,107.5) scale(3.75)" xlink:href="#gpPt5"/><use color="#0071BC" transform="translate(356.4,100.7) scale(3.75)" xlink:href="#gpPt5"/><use color="#0071BC" transform="translate(358.4,136.1) scale(3.75)" xlink:href="#gpPt5"/><use color="#0071BC" transform="translate(360.5,100.3) scale(3.75)" xlink:href="#gpPt5"/><use color="#0071BC" transform="translate(362.6,63.3) scale(3.75)" xlink:href="#gpPt5"/><use color="#0071BC" transform="translate(364.6,72.2) scale(3.75)" xlink:href="#gpPt5"/><use color="#0071BC" transform="translate(366.7,155.4) scale(3.75)" xlink:href="#gpPt5"/><use color="#0071BC" transform="translate(368.7,105.6) scale(3.75)" xlink:href="#gpPt5"/><use color="#0071BC" transform="translate(370.8,70.0) scale(3.75)" xlink:href="#gpPt5"/><use color="#0071BC" transform="translate(372.8,128.8) scale(3.75)" xlink:href="#gpPt5"/><use color="#0071BC" transform="translate(374.9,160.1) scale(3.75)" xlink:href="#gpPt5"/><use color="#0071BC" transform="translate(376.9,162.7) scale(3.75)" xlink:href="#gpPt5"/><use color="#0071BC" transform="translate(379.0,165.6) scale(3.75)" xlink:href="#gpPt5"/><use color="#0071BC" transform="translate(381.0,85.6) scale(3.75)" xlink:href="#gpPt5"/><use color="#0071BC" transform="translate(383.1,181.9) scale(3.75)" xlink:href="#gpPt5"/><use color="#0071BC" transform="translate(385.2,121.9) scale(3.75)" xlink:href="#gpPt5"/><use color="#0071BC" transform="translate(387.2,85.3) scale(3.75)" xlink:href="#gpPt5"/><use color="#0071BC" transform="translate(389.3,134.5) scale(3.75)" xlink:href="#gpPt5"/><use color="#0071BC" transform="translate(391.3,111.4) scale(3.75)" xlink:href="#gpPt5"/><use color="#0071BC" transform="translate(393.4,120.9) scale(3.75)" xlink:href="#gpPt5"/><use color="#0071BC" transform="translate(395.4,159.0) scale(3.75)" xlink:href="#gpPt5"/><use color="#0071BC" transform="translate(397.5,104.7) scale(3.75)" xlink:href="#gpPt5"/><use color="#0071BC" transform="translate(399.5,190.9) scale(3.75)" xlink:href="#gpPt5"/><use color="#0071BC" transform="translate(401.6,173.4) scale(3.75)" xlink:href="#gpPt5"/><use color="#0071BC" transform="translate(403.7,149.5) scale(3.75)" xlink:href="#gpPt5"/><use color="#0071BC" transform="translate(405.7,231.0) scale(3.75)" xlink:href="#gpPt5"/><use color="#0071BC" transform="translate(407.8,176.4) scale(3.75)" xlink:href="#gpPt5"/><use color="#0071BC" transform="translate(409.8,164.6) scale(3.75)" xlink:href="#gpPt5"/><use color="#0071BC" transform="translate(411.9,247.5) scale(3.75)" xlink:href="#gpPt5"/><use color="#0071BC" transform="translate(413.9,252.1) scale(3.75)" xlink:href="#gpPt5"/><use color="#0071BC" transform="translate(416.0,214.5) scale(3.75)" xlink:href="#gpPt5"/><use color="#0071BC" transform="translate(418.0,161.5) scale(3.75)" xlink:href="#gpPt5"/><use color="#0071BC" transform="translate(420.1,186.3) scale(3.75)" xlink:href="#gpPt5"/><use color="#0071BC" transform="translate(422.1,234.2) scale(3.75)" xlink:href="#gpPt5"/><use color="#0071BC" transform="translate(424.2,266.0) scale(3.75)" xlink:href="#gpPt5"/><use color="#0071BC" transform="translate(426.3,225.4) scale(3.75)" xlink:href="#gpPt5"/><use color="#0071BC" transform="translate(428.3,257.9) scale(3.75)" xlink:href="#gpPt5"/><use color="#0071BC" transform="translate(430.4,266.4) scale(3.75)" xlink:href="#gpPt5"/><use color="#0071BC" transform="translate(432.4,289.8) scale(3.75)" xlink:href="#gpPt5"/><use color="#0071BC" transform="translate(434.5,222.9) scale(3.75)" xlink:href="#gpPt5"/><use color="#0071BC" transform="translate(436.5,236.4) scale(3.75)" xlink:href="#gpPt5"/><use color="#0071BC" transform="translate(438.6,312.6) scale(3.75)" xlink:href="#gpPt5"/><use color="#0071BC" transform="translate(440.6,276.9) scale(3.75)" xlink:href="#gpPt5"/><use color="#0071BC" transform="translate(442.7,301.2) scale(3.75)" xlink:href="#gpPt5"/><use color="#0071BC" transform="translate(444.8,244.5) scale(3.75)" xlink:href="#gpPt5"/><use color="#0071BC" transform="translate(446.8,308.4) scale(3.75)" xlink:href="#gpPt5"/><use color="#0071BC" transform="translate(448.9,333.2) scale(3.75)" xlink:href="#gpPt5"/><use color="#0071BC" transform="translate(450.9,327.3) scale(3.75)" xlink:href="#gpPt5"/><use color="#0071BC" transform="translate(453.0,333.6) scale(3.75)" xlink:href="#gpPt5"/><use color="#0071BC" transform="translate(455.0,272.5) scale(3.75)" xlink:href="#gpPt5"/><use color="#0071BC" transform="translate(457.1,272.2) scale(3.75)" xlink:href="#gpPt5"/><use color="#0071BC" transform="translate(459.1,358.1) scale(3.75)" xlink:href="#gpPt5"/><use color="#0071BC" transform="translate(461.2,361.1) scale(3.75)" xlink:href="#gpPt5"/><use color="#0071BC" transform="translate(463.2,307.9) scale(3.75)" xlink:href="#gpPt5"/><use color="#0071BC" transform="translate(465.3,312.6) scale(3.75)" xlink:href="#gpPt5"/><use color="#0071BC" transform="translate(467.4,354.2) scale(3.75)" xlink:href="#gpPt5"/><use color="#0071BC" transform="translate(469.4,298.6) scale(3.75)" xlink:href="#gpPt5"/><use color="#0071BC" transform="translate(471.5,262.6) scale(3.75)" xlink:href="#gpPt5"/><use color="#0071BC" transform="translate(473.5,291.1) scale(3.75)" xlink:href="#gpPt5"/><use color="#0071BC" transform="translate(475.6,264.9) scale(3.75)" xlink:href="#gpPt5"/><use color="#0071BC" transform="translate(477.6,292.8) scale(3.75)" xlink:href="#gpPt5"/><use color="#0071BC" transform="translate(479.7,273.0) scale(3.75)" xlink:href="#gpPt5"/><use color="#0071BC" transform="translate(481.7,296.0) scale(3.75)" xlink:href="#gpPt5"/></g></g><g fill="none" stroke="currentColor" stroke-linecap="butt" stroke-linejoin="miter" stroke-width=".5" color="#000"><path stroke="#000" d="M72.8,31.6 L72.8,373.8 L506.7,373.8 L506.7,31.6 L72.8,31.6 Z"/></g></g></svg>