<svg xmlns="http://www.w3.org/2000/svg" xmlns:xlink="http://www.w3.org/1999/xlink" width="560" height="420" viewBox="0 0 560 420"><title>Gnuplot</title><desc>Produced by GNUPLOT 5.4 patchlevel 0</desc><g id="gnuplot_canvas"><rect width="560" height="420" x="0" y="0" fill="none"/><defs><circle id="gpDot" r=".5" stroke="currentColor" stroke-width=".5"/><path id="gpPt0" stroke="currentColor" stroke-width=".267" d="M-1,0 h2 M0,-1 v2"/><path id="gpPt1" stroke="currentColor" stroke-width=".267" d="M-1,-1 L1,1 M1,-1 L-1,1"/><path id="gpPt2" stroke="currentColor" stroke-width=".267" d="M-1,0 L1,0 M0,-1 L0,1 M-1,-1 L1,1 M-1,1 L1,-1"/><rect id="gpPt3" width="2" height="2" x="-1" y="-1" stroke="currentColor" stroke-width=".267"/><rect id="gpPt4" width="2" height="2" x="-1" y="-1" fill="currentColor" stroke="currentColor" stroke-width=".267"/><circle id="gpPt5" cx="0" cy="0" r="1" stroke="currentColor" stroke-width=".267"/><use id="gpPt6" fill="currentColor" stroke="none" xlink:href="#gpPt5"/><path id="gpPt7" stroke="currentColor" stroke-width=".267" d="M0,-1.33 L-1.33,0.67 L1.33,0.67 z"/><use id="gpPt8" fill="currentColor" stroke="none" xlink:href="#gpPt7"/><use id="gpPt9" stroke="currentColor" transform="rotate(180)" xlink:href="#gpPt7"/><use id="gpPt10" fill="currentColor" stroke="none" xlink:href="#gpPt9"/><use id="gpPt11" stroke="currentColor" transform="rotate(45)" xlink:href="#gpPt3"/><use id="gpPt12" fill="currentColor" stroke="none" xlink:href="#gpPt11"/><path id="gpPt13" stroke="currentColor" stroke-width=".267" d="M0,1.330 L1.265,0.411 L0.782,-1.067 L-0.782,-1.076 L-1.265,0.411 z"/><use id="gpPt14" fill="currentColor" stroke="none" xlink:href="#gpPt13"/><filter id="textbox" width="1" height="1" x="0" y="0" filterUnits="objectBoundingBox"><feFlood flood-color="#fff" flood-opacity="1" result="bgnd"/><feComposite in="SourceGraphic" in2="bgnd" operator="atop"/></filter><filter id="greybox" width="1" height="1" x="0" y="0" filterUnits="objectBoundingBox"><feFlood flood-color="#d3d3d3" flood-opacity="1" result="grey"/><feComposite in="SourceGraphic" in2="grey" operator="atop"/></filter></defs><g fill="none" stroke="currentColor" stroke-linecap="butt" stroke-linejoin="miter" stroke-width=".5" color="#000"><path stroke="#000" d="M72.8,373.8 L78.4,373.8"/><g fill="#262626" stroke="none" font-family="Helvetica" font-size="10" text-anchor="end"><text transform="translate(65.8,377.1)"><tspan font-family="Helvetica">-1</tspan></text></g></g><g fill="none" stroke="currentColor" stroke-linecap="butt" stroke-linejoin="miter" stroke-width=".5" color="#000"><path stroke="#000" d="M72.8,316.8 L78.4,316.8"/><g fill="#262626" stroke="none" font-family="Helvetica" font-size="10" text-anchor="end"><text transform="translate(65.8,320.1)"><tspan font-family="Helvetica">-0.5</tspan></text></g></g><g fill="none" stroke="currentColor" stroke-linecap="butt" stroke-linejoin="miter" stroke-width=".5" color="#000"><path stroke="#000" d="M72.8,259.7 L78.4,259.7"/><g fill="#262626" stroke="none" font-family="Helvetica" font-size="10" text-anchor="end"><text transform="translate(65.8,263.0)"><tspan font-family="Helvetica">0</tspan></text></g></g><g fill="none" stroke="currentColor" stroke-linecap="butt" stroke-linejoin="miter" stroke-width=".5" color="#000"><path stroke="#000" d="M72.8,202.7 L78.4,202.7"/><g fill="#262626" stroke="none" font-family="Helvetica" font-size="10" text-anchor="end"><text transform="translate(65.8,206.0)"><tspan font-family="Helvetica">0.5</tspan></text></g></g><g fill="none" stroke="currentColor" stroke-linecap="butt" stroke-linejoin="miter" stroke-width=".5" color="#000"><path stroke="#000" d="M72.8,145.7 L78.4,145.7"/><g fill="#262626" stroke="none" font-family="Helvetica" font-size="10" text-anchor="end"><text transform="translate(65.8,149.0)"><tspan font-family="Helvetica">1</tspan></text></g></g><g fill="none" stroke="currentColor" stroke-linecap="butt" stroke-linejoin="miter" stroke-width=".5" color="#000"><path stroke="#000" d="M72.8,88.6 L78.4,88.6"/><g fill="#262626" stroke="none" font-family="Helvetica" font-size="10" text-anchor="end"><text transform="translate(65.8,91.9)"><tspan font-family="Helvetica">1.5</tspan></text></g></g><g fill="none" stroke="currentColor" stroke-linecap="butt" stroke-linejoin="miter" stroke-width=".5" color="#000"><path stroke="#000" d="M72.8,31.6 L78.4,31.6"/><g fill="#262626" stroke="none" font-family="Helvetica" font-size="10" text-anchor="end"><text transform="translate(65.8,34.9)"><tspan font-family="Helvetica">2</tspan></text></g></g><g fill="none" stroke="currentColor" stroke-linecap="butt" stroke-linejoin="miter" stroke-width=".5" color="#000"><path stroke="#000" d="M72.8,373.8 L72.8,368.2"/><g fill="#262626" stroke="none" font-family="Helvetica" font-size="10" text-anchor="middle"><text transform="translate(72.8,392.1)"><tspan font-family="Helvetica">0</tspan></text></g></g><g fill="none" stroke="currentColor" stroke-linecap="butt" stroke-linejoin="miter" stroke-width=".5" color="#000"><path stroke="#000" d="M116.2,373.8 L116.2,368.2"/><g fill="#262626" stroke="none" font-family="Helvetica" font-size="10" text-anchor="middle"><text transform="translate(116.2,392.1)"><tspan font-family="Helvetica">1</tspan></text></g></g><g fill="none" stroke="currentColor" stroke-linecap="butt" stroke-linejoin="miter" stroke-width=".5" color="#000"><path stroke="#000" d="M159.6,373.8 L159.6,368.2"/><g fill="#262626" stroke="none" font-family="Helvetica" font-size="10" text-anchor="middle"><text transform="translate(159.6,392.1)"><tspan font-family="Helvetica">2</tspan></text></g></g><g fill="none" stroke="currentColor" stroke-linecap="butt" stroke-linejoin="miter" stroke-width=".5" color="#000"><path stroke="#000" d="M203.0,373.8 L203.0,368.2"/><g fill="#262626" stroke="none" font-family="Helvetica" font-size="10" text-anchor="middle"><text transform="translate(203.0,392.1)"><tspan font-family="Helvetica">3</tspan></text></g></g><g fill="none" stroke="currentColor" stroke-linecap="butt" stroke-linejoin="miter" stroke-width=".5" color="#000"><path stroke="#000" d="M246.4,373.8 L246.4,368.2"/><g fill="#262626" stroke="none" font-family="Helvetica" font-size="10" text-anchor="middle"><text transform="translate(246.4,392.1)"><tspan font-family="Helvetica">4</tspan></text></g></g><g fill="none" stroke="currentColor" stroke-linecap="butt" stroke-linejoin="miter" stroke-width=".5" color="#000"><path stroke="#000" d="M289.8,373.8 L289.8,368.2"/><g fill="#262626" stroke="none" font-family="Helvetica" font-size="10" text-anchor="middle"><text transform="translate(289.8,392.1)"><tspan font-family="Helvetica">5</tspan></text></g></g><g fill="none" stroke="currentColor" stroke-linecap="butt" stroke-linejoin="miter" stroke-width=".5" color="#000"><path stroke="#000" d="M333.1,373.8 L333.1,368.2"/><g fill="#262626" stroke="none" font-family="Helvetica" font-size="10" text-anchor="middle"><text transform="translate(333.1,392.1)"><tspan font-family="Helvetica">6</tspan></text></g></g><g fill="none" stroke="currentColor" stroke-linecap="butt" stroke-linejoin="miter" stroke-width=".5" color="#000"><path stroke="#000" d="M376.5,373.8 L376.5,368.2"/><g fill="#262626" stroke="none" font-family="Helvetica" font-size="10" text-anchor="middle"><text transform="translate(376.5,392.1)"><tspan font-family="Helvetica">7</tspan></text></g></g><g fill="none" stroke="currentColor" stroke-linecap="butt" stroke-linejoin="miter" stroke-width=".5" color="#000"><path stroke="#000" d="M419.9,373.8 L419.9,368.2"/><g fill="#262626" stroke="none" font-family="Helvetica" font-size="10" text-anchor="middle"><text transform="translate(419.9,392.1)"><tspan font-family="Helvetica">8</tspan></text></g></g><g fill="none" stroke="currentColor" stroke-linecap="butt" stroke-linejoin="miter" stroke-width=".5" color="#000"><path stroke="#000" d="M463.3,373.8 L463.3,368.2"/><g fill="#262626" stroke="none" font-family="Helvetica" font-size="10" text-anchor="middle"><text transform="translate(463.3,392.1)"><tspan font-family="Helvetica">9</tspan></text></g></g><g fill="none" stroke="currentColor" stroke-linecap="butt" stroke-linejoin="miter" stroke-width=".5" color="#000"><path stroke="#000" d="M506.7,373.8 L506.7,368.2"/><g fill="#262626" stroke="none" font-family="Helvetica" font-size="10" text-anchor="middle"><text transform="translate(506.7,392.1)"><tspan font-family="Helvetica">10</tspan></text></g></g><g fill="none" stroke="currentColor" stroke-linecap="butt" stroke-linejoin="miter" stroke-width=".5" color="#000"><path stroke="#000" d="M72.8,31.6 L72.8,373.8 L506.7,373.8 L506.7,31.6 L72.8,31.6 Z"/></g><g id="gnuplot_plot_1a"><title>&apos;-&apos;</title><g fill="none" stroke="currentColor" stroke-linecap="butt" stroke-linejoin="miter" stroke-width="1" color="#000"><use color="#0071BC" transform="translate(72.8,82.9) scale(0.63)" xlink:href="#gpPt5"/><use color="#0071BC" transform="translate(74.9,49.9) scale(0.65)" xlink:href="#gpPt5"/><use color="#0071BC" transform="translate(76.9,64.2) scale(0.68)" xlink:href="#gpPt5"/><use color="#0071BC" transform="translate(79.0,85.1) scale(0.71)" xlink:href="#gpPt5"/><use color="#0071BC" transform="translate(81.0,136.9) scale(0.74)" xlink:href="#gpPt5"/><use color="#0071BC" transform="translate(83.1,48.5) scale(0.77)" xlink:href="#gpPt5"/><use color="#0071BC" transform="translate(85.1,140.2) scale(0.79)" xlink:href="#gpPt5"/><use color="#0071BC" transform="translate(87.2,61.7) scale(0.82)" xlink:href="#gpPt5"/><use color="#0071BC" transform="translate(89.2,52.3) scale(0.85)" xlink:href="#gpPt5"/><use color="#0071BC" transform="translate(91.3,48.3) scale(0.88)" xlink:href="#gpPt5"/><use color="#0071BC" transform="translate(93.3,111.1) scale(0.91)" xlink:href="#gpPt5"/><use color="#0071BC" transform="translate(95.4,55.0) scale(0.94)" xlink:href="#gpPt5"/><use color="#0071BC" transform="translate(97.5,157.3) scale(0.96)" xlink:href="#gpPt5"/><use color="#0071BC" transform="translate(99.5,60.7) scale(0.99)" xlink:href="#gpPt5"/><use color="#0071BC" transform="translate(101.6,160.4) scale(1.02)" xlink:href="#gpPt5"/><use color="#0071BC" transform="translate(103.6,160.6) scale(1.05)" xlink:href="#gpPt5"/><use color="#0071BC" transform="translate(105.7,84.0) scale(1.08)" xlink:href="#gpPt5"/><use color="#0071BC" transform="translate(107.7,91.9) scale(1.11)" xlink:href="#gpPt5"/><use color="#0071BC" transform="translate(109.8,135.7) scale(1.13)" xlink:href="#gpPt5"/><use color="#0071BC" transform="translate(111.8,82.7) scale(1.16)" xlink:href="#gpPt5"/><use color="#0071BC" transform="translate(113.9,145.8) scale(1.19)" xlink:href="#gpPt5"/><use color="#0071BC" transform="translate(116.0,140.3) scale(1.22)" xlink:href="#gpPt5"/><use color="#0071BC" transform="translate(118.0,140.7) scale(1.25)" xlink:href="#gpPt5"/><use color="#0071BC" transform="translate(120.1,199.3) scale(1.28)" xlink:href="#gpPt5"/><use color="#0071BC" transform="translate(122.1,174.0) scale(1.30)" xlink:href="#gpPt5"/><use color="#0071BC" transform="translate(124.2,146.2) scale(1.33)" xlink:href="#gpPt5"/><use color="#0071BC" transform="translate(126.2,188.6) scale(1.36)" xlink:href="#gpPt5"/><use color="#0071BC" transform="translate(128.3,127.5) scale(1.39)" xlink:href="#gpPt5"/><use color="#0071BC" transform="translate(130.3,132.6) scale(1.42)" xlink:href="#gpPt5"/><use color="#0071BC" transform="translate(132.4,153.7) scale(1.44)" xlink:href="#gpPt5"/><use color="#0071BC" transform="translate(134.4,184.6) scale(1.47)" xlink:href="#gpPt5"/><use color="#0071BC" transform="translate(136.5,143.4) scale(1.50)" xlink:href="#gpPt5"/><use color="#0071BC" transform="translate(138.6,156.9) scale(1.53)" xlink:href="#gpPt5"/><use color="#0071BC" transform="translate(140.6,156.7) scale(1.56)" xlink:href="#gpPt5"/><use color="#0071BC" transform="translate(142.7,245.0) scale(1.59)" xlink:href="#gpPt5"/><use color="#0071BC" transform="translate(144.7,162.1) scale(1.61)" xlink:href="#gpPt5"/><use color="#0071BC" transform="translate(146.8,227.3) scale(1.64)" xlink:href="#gpPt5"/><use color="#0071BC" transform="translate(148.8,274.8) scale(1.67)" xlink:href="#gpPt5"/><use color="#0071BC" transform="translate(150.9,244.8) scale(1.70)" xlink:href="#gpPt5"/><use color="#0071BC" transform="translate(152.9,241.2) scale(1.73)" xlink:href="#gpPt5"/><use color="#0071BC" transform="translate(155.0,266.5) scale(1.76)" xlink:href="#gpPt5"/><use color="#0071BC" transform="translate(157.1,286.0) scale(1.78)" xlink:href="#gpPt5"/><use color="#0071BC" transform="translate(159.1,210.0) scale(1.81)" xlink:href="#gpPt5"/><use color="#0071BC" transform="translate(161.2,216.2) scale(1.84)" xlink:href="#gpPt5"/><use color="#0071BC" transform="translate(163.2,305.2) scale(1.87)" xlink:href="#gpPt5"/><use color="#0071BC" transform="translate(165.3,235.2) scale(1.90)" xlink:href="#gpPt5"/><use color="#0071BC" transform="translate(167.3,261.1) scale(1.93)" xlink:href="#gpPt5"/><use color="#0071BC" transform="translate(169.4,318.2) scale(1.95)" xlink:href="#gpPt5"/><use color="#0071BC" transform="translate(171.4,227.9) scale(1.98)" xlink:href="#gpPt5"/><use color="#0071BC" transform="translate(173.5,231.0) scale(2.01)" xlink:href="#gpPt5"/><use color="#0071BC" transform="translate(175.5,332.8) scale(2.04)" xlink:href="#gpPt5"/><use color="#0071BC" transform="translate(177.6,333.7) scale(2.07)" xlink:href="#gpPt5"/><use color="#0071BC" transform="translate(179.7,264.0) scale(2.09)" xlink:href="#gpPt5"/><use color="#0071BC" transform="translate(181.7,288.3) scale(2.12)" xlink:href="#gpPt5"/><use color="#0071BC" transform="translate(183.8,317.1) scale(2.15)" xlink:href="#gpPt5"/><use color="#0071BC" transform="translate(185.8,279.2) scale(2.18)" xlink:href="#gpPt5"/><use color="#0071BC" transform="translate(187.9,320.8) scale(2.21)" xlink:href="#gpPt5"/><use color="#0071BC" transform="translate(189.9,288.2) scale(2.24)" xlink:href="#gpPt5"/><use color="#0071BC" transform="translate(192.0,353.2) scale(2.26)" xlink:href="#gpPt5"/><use color="#0071BC" transform="translate(194.0,308.4) scale(2.29)" xlink:href="#gpPt5"/><use color="#0071BC" transform="translate(196.1,328.6) scale(2.32)" xlink:href="#gpPt5"/><use color="#0071BC" transform="translate(198.2,337.2) scale(2.35)" xlink:href="#gpPt5"/><use color="#0071BC" transform="translate(200.2,306.7) scale(2.38)" xlink:href="#gpPt5"/><use color="#0071BC" transform="translate(202.3,293.2) scale(2.41)" xlink:href="#gpPt5"/><use color="#0071BC" transform="translate(204.3,328.7) scale(2.43)" xlink:href="#gpPt5"/><use color="#0071BC" transform="translate(206.4,345.8) scale(2.46)" xlink:href="#gpPt5"/><use color="#0071BC" transform="translate(208.4,327.9) scale(2.49)" xlink:href="#gpPt5"/><use color="#0071BC" transform="translate(210.5,286.6) scale(2.52)" xlink:href="#gpPt5"/><use color="#0071BC" transform="translate(212.5,282.7) scale(2.55)" xlink:href="#gpPt5"/><use color="#0071BC" transform="translate(214.6,331.3) scale(2.58)" xlink:href="#gpPt5"/><use color="#0071BC" transform="translate(216.6,339.6) scale(2.60)" xlink:href="#gpPt5"/><use color="#0071BC" transform="translate(218.7,363.7) scale(2.63)" xlink:href="#gpPt5"/><use color="#0071BC" transform="translate(220.8,275.0) scale(2.66)" xlink:href="#gpPt5"/><use color="#0071BC" transform="translate(222.8,301.1) scale(2.69)" xlink:href="#gpPt5"/><use color="#0071BC" transform="translate(224.9,280.9) scale(2.72)" xlink:href="#gpPt5"/><use color="#0071BC" transform="translate(226.9,272.2) scale(2.74)" xlink:href="#gpPt5"/><use color="#0071BC" transform="translate(229.0,309.5) scale(2.77)" xlink:href="#gpPt5"/><use color="#0071BC" transform="translate(231.0,297.0) scale(2.80)" xlink:href="#gpPt5"/><use color="#0071BC" transform="translate(233.1,285.1) scale(2.83)" xlink:href="#gpPt5"/><use color="#0071BC" transform="translate(235.1,315.3) scale(2.86)" xlink:href="#gpPt5"/><use color="#0071BC" transform="translate(237.2,296.7) scale(2.89)" xlink:href="#gpPt5"/><use color="#0071BC" transform="translate(239.3,273.9) scale(2.91)" xlink:href="#gpPt5"/><use color="#0071BC" transform="translate(241.3,308.9) scale(2.94)" xlink:href="#gpPt5"/><use color="#0071BC" transform="translate(243.4,306.6) scale(2.97)" xlink:href="#gpPt5"/><use color="#0071BC" transform="translate(245.4,289.7) scale(3.00)" xlink:href="#gpPt5"/><use color="#0071BC" transform="translate(247.5,221.8) scale(3.03)" xlink:href="#gpPt5"/><use color="#0071BC" transform="translate(249.5,245.2) scale(3.06)" xlink:href="#gpPt5"/><use color="#0071BC" transform="translate(251.6,317.2) scale(3.08)" xlink:href="#gpPt5"/><use color="#0071BC" transform="translate(253.6,301.0) scale(3.11)" xlink:href="#gpPt5"/><use color="#0071BC" transform="translate(255.7,216.1) scale(3.14)" xlink:href="#gpPt5"/><use color="#0071BC" transform="translate(257.7,215.1) scale(3.17)" xlink:href="#gpPt5"/><use color="#0071BC" transform="translate(259.8,231.2) scale(3.20)" xlink:href="#gpPt5"/><use color="#0071BC" transform="translate(261.9,251.0) scale(3.23)" xlink:href="#gpPt5"/><use color="#0071BC" transform="translate(263.9,203.1) scale(3.25)" xlink:href="#gpPt5"/><use color="#0071BC" transform="translate(266.0,275.8) scale(3.28)" xlink:href="#gpPt5"/><use color="#0071BC" transform="translate(268.0,218.0) scale(3.31)" xlink:href="#gpPt5"/><use color="#0071BC" transform="translate(270.1,175.0) scale(3.34)" xlink:href="#gpPt5"/><use color="#0071BC" transform="translate(272.1,163.1) scale(3.37)" xlink:href="#gpPt5"/><use color="#0071BC" transform="translate(274.2,173.8) scale(3.40)" xlink:href="#gpPt5"/><use color="#0071BC" transform="translate(276.2,255.1) scale(3.42)" xlink:href="#gpPt5"/><use color="#0071BC" transform="translate(278.3,206.8) scale(3.45)" xlink:href="#gpPt5"/><use color="#0071BC" transform="translate(280.4,176.1) scale(3.48)" xlink:href="#gpPt5"/><use color="#0071BC" transform="translate(282.4,184.9) scale(3.51)" xlink:href="#gpPt5"/><use color="#0071BC" transform="translate(284.5,169.0) scale(3.54)" xlink:href="#gpPt5"/><use color="#0071BC" transform="translate(286.5,184.1) scale(3.56)" xlink:href="#gpPt5"/><use color="#0071BC" transform="translate(288.6,162.2) scale(3.59)" xlink:href="#gpPt5"/><use color="#0071BC" transform="translate(290.6,180.5) scale(3.62)" xlink:href="#gpPt5"/><use color="#0071BC" transform="translate(292.7,133.1) scale(3.65)" xlink:href="#gpPt5"/><use color="#0071BC" transform="translate(294.7,180.8) scale(3.68)" xlink:href="#gpPt5"/><use color="#0071BC" transform="translate(296.8,104.3) scale(3.71)" xlink:href="#gpPt5"/><use color="#0071BC" transform="translate(298.8,145.1) scale(3.73)" xlink:href="#gpPt5"/><use color="#0071BC" transform="translate(300.9,135.4) scale(3.76)" xlink:href="#gpPt5"/><use color="#0071BC" transform="translate(303.0,168.8) scale(3.79)" xlink:href="#gpPt5"/><use color="#0071BC" transform="translate(305.0,134.5) scale(3.82)" xlink:href="#gpPt5"/><use color="#0071BC" transform="translate(307.1,91.8) scale(3.85)" xlink:href="#gpPt5"/><use color="#0071BC" transform="translate(309.1,95.1) scale(3.88)" xlink:href="#gpPt5"/><use color="#0071BC" transform="translate(311.2,117.3) scale(3.90)" xlink:href="#gpPt5"/><use color="#0071BC" transform="translate(313.2,113.7) scale(3.93)" xlink:href="#gpPt5"/><use color="#0071BC" transform="translate(315.3,76.8) scale(3.96)" xlink:href="#gpPt5"/><use color="#0071BC" transform="translate(317.3,100.5) scale(3.99)" xlink:href="#gpPt5"/><use color="#0071BC" transform="translate(319.4,161.0) scale(4.02)" xlink:href="#gpPt5"/><use color="#0071BC" transform="translate(321.5,123.6) scale(4.05)" xlink:href="#gpPt5"/><use color="#0071BC" transform="translate(323.5,67.4) scale(4.07)" xlink:href="#gpPt5"/><use color="#0071BC" transform="translate(325.6,136.5) scale(4.10)" xlink:href="#gpPt5"/><use color="#0071BC" transform="translate(327.6,47.4) scale(4.13)" xlink:href="#gpPt5"/><use color="#0071BC" transform="translate(329.7,145.0) scale(4.16)" xlink:href="#gpPt5"/><use color="#0071BC" transform="translate(331.7,82.4) scale(4.19)" xlink:href="#gpPt5"/><use color="#0071BC" transform="translate(333.8,98.8) scale(4.21)" xlink:href="#gpPt5"/><use color="#0071BC" transform="translate(335.8,123.6) scale(4.24)" xlink:href="#gpPt5"/><use color="#0071BC" transform="translate(337.9,34.9) scale(4.27)" xlink:href="#gpPt5"/><use color="#0071BC" transform="translate(339.9,113.0) scale(4.30)" xlink:href="#gpPt5"/><use color="#0071BC" transform="translate(342.0,129.2) scale(4.33)" xlink:href="#gpPt5"/><use color="#0071BC" transform="translate(344.1,67.0) scale(4.36)" xlink:href="#gpPt5"/><use color="#0071BC" transform="translate(346.1,67.2) scale(4.38)" xlink:href="#gpPt5"/><use color="#0071BC" transform="translate(348.2,79.1) scale(4.41)" xlink:href="#gpPt5"/><use color="#0071BC" transform="translate(350.2,68.0) scale(4.44)" xlink:href="#gpPt5"/><use color="#0071BC" transform="translate(352.3,127.2) scale(4.47)" xlink:href="#gpPt5"/><use color="#0071BC" transform="translate(354.3,42.2) scale(4.50)" xlink:href="#gpPt5"/><use color="#0071BC" transform="translate(356.4,54.0) scale(4.53)" xlink:href="#gpPt5"/><use color="#0071BC" transform="translate(358.4,89.6) scale(4.55)" xlink:href="#gpPt5"/><use color="#0071BC" transform="translate(360.5,73.0) scale(4.58)" xlink:href="#gpPt5"/><use color="#0071BC" transform="translate(362.6,41.1) scale(4.61)" xlink:href="#gpPt5"/><use color="#0071BC" transform="translate(364.6,156.1) scale(4.64)" xlink:href="#gpPt5"/><use color="#0071BC" transform="translate(366.7,47.0) scale(4.67)" xlink:href="#gpPt5"/><use color="#0071BC" transform="translate(368.7,157.6) scale(4.70)" xlink:href="#gpPt5"/><use color="#0071BC" transform="translate(370.8,119.8) scale(4.72)" xlink:href="#gpPt5"/><use color="#0071BC" transform="translate(372.8,101.2) scale(4.75)" xlink:href="#gpPt5"/><use color="#0071BC" transform="translate(374.9,145.4) scale(4.78)" xlink:href="#gpPt5"/><use color="#0071BC" transform="translate(376.9,65.7) scale(4.81)" xlink:href="#gpPt5"/><use color="#0071BC" transform="translate(379.0,80.6) scale(4.84)" xlink:href="#gpPt5"/><use color="#0071BC" transform="translate(381.0,181.5) scale(4.86)" xlink:href="#gpPt5"/><use color="#0071BC" transform="translate(383.1,89.8) scale(4.89)" xlink:href="#gpPt5"/><use color="#0071BC" transform="translate(385.2,109.4) scale(4.92)" xlink:href="#gpPt5"/><use color="#0071BC" transform="translate(387.2,121.0) scale(4.95)" xlink:href="#gpPt5"/><use color="#0071BC" transform="translate(389.3,157.1) scale(4.98)" xlink:href="#gpPt5"/><use color="#0071BC" transform="translate(391.3,193.5) scale(5.01)" xlink:href="#gpPt5"/><use color="#0071BC" transform="translate(393.4,164.2) scale(5.03)" xlink:href="#gpPt5"/><use color="#0071BC" transform="translate(395.4,137.8) scale(5.06)" xlink:href="#gpPt5"/><use color="#0071BC" transform="translate(397.5,178.1) scale(5.09)" xlink:href="#gpPt5"/><use color="#0071BC" transform="translate(399.5,125.9) scale(5.12)" xlink:href="#gpPt5"/><use color="#0071BC" transform="translate(401.6,220.3) scale(5.15)" xlink:href="#gpPt5"/><use color="#0071BC" transform="translate(403.7,151.1) scale(5.18)" xlink:href="#gpPt5"/><use color="#0071BC" transform="translate(405.7,209.4) scale(5.20)" xlink:href="#gpPt5"/><use color="#0071BC" transform="translate(407.8,178.8) scale(5.23)" xlink:href="#gpPt5"/><use color="#0071BC" transform="translate(409.8,180.6) scale(5.26)" xlink:href="#gpPt5"/><use color="#0071BC" transform="translate(411.9,178.0) scale(5.29)" xlink:href="#gpPt5"/><use color="#0071BC" transform="translate(413.9,190.9) scale(5.32)" xlink:href="#gpPt5"/><use color="#0071BC" transform="translate(416.0,228.3) scale(5.35)" xlink:href="#gpPt5"/><use color="#0071BC" transform="translate(418.0,257.4) scale(5.37)" xlink:href="#gpPt5"/><use color="#0071BC" transform="translate(420.1,223.8) scale(5.40)" xlink:href="#gpPt5"/><use color="#0071BC" transform="translate(422.1,189.7) scale(5.43)" xlink:href="#gpPt5"/><use color="#0071BC" transform="translate(424.2,279.2) scale(5.46)" xlink:href="#gpPt5"/><use color="#0071BC" transform="translate(426.3,277.5) scale(5.49)" xlink:href="#gpPt5"/><use color="#0071BC" transform="translate(428.3,210.2) scale(5.52)" xlink:href="#gpPt5"/><use color="#0071BC" transform="translate(430.4,190.4) scale(5.54)" xlink:href="#gpPt5"/><use color="#0071BC" transform="translate(432.4,266.2) scale(5.57)" xlink:href="#gpPt5"/><use color="#0071BC" transform="translate(434.5,210.2) scale(5.60)" xlink:href="#gpPt5"/><use color="#0071BC" transform="translate(436.5,207.5) scale(5.63)" xlink:href="#gpPt5"/><use color="#0071BC" transform="translate(438.6,279.7) scale(5.66)" xlink:href="#gpPt5"/><use color="#0071BC" transform="translate(440.6,323.2) scale(5.68)" xlink:href="#gpPt5"/><use color="#0071BC" transform="translate(442.7,251.8) scale(5.71)" xlink:href="#gpPt5"/><use color="#0071BC" transform="translate(444.8,262.8) scale(5.74)" xlink:href="#gpPt5"/><use color="#0071BC" transform="translate(446.8,279.3) scale(5.77)" xlink:href="#gpPt5"/><use color="#0071BC" transform="translate(448.9,290.7) scale(5.80)" xlink:href="#gpPt5"/><use color="#0071BC" transform="translate(450.9,321.7) scale(5.83)" xlink:href="#gpPt5"/><use color="#0071BC" transform="translate(453.0,255.9) scale(5.85)" xlink:href="#gpPt5"/><use color="#0071BC" transform="translate(455.0,298.0) scale(5.88)" xlink:href="#gpPt5"/><use color="#0071BC" transform="translate(457.1,285.8) scale(5.91)" xlink:href="#gpPt5"/><use color="#0071BC" transform="translate(459.1,245.7) scale(5.94)" xlink:href="#gpPt5"/><use color="#0071BC" transform="translate(461.2,311.7) scale(5.97)" xlink:href="#gpPt5"/><use color="#0071BC" transform="translate(463.2,327.0) scale(6.00)" xlink:href="#gpPt5"/><use color="#0071BC" transform="translate(465.3,332.7) scale(6.02)" xlink:href="#gpPt5"/><use color="#0071BC" transform="translate(467.4,333.6) scale(6.05)" xlink:href="#gpPt5"/><use color="#0071BC" transform="translate(469.4,272.6) scale(6.08)" xlink:href="#gpPt5"/><use color="#0071BC" transform="translate(471.5,265.4) scale(6.11)" xlink:href="#gpPt5"/><use color="#0071BC" transform="translate(473.5,315.2) scale(6.14)" xlink:href="#gpPt5"/><use color="#0071BC" transform="translate(475.6,265.8) scale(6.17)" xlink:href="#gpPt5"/><use color="#0071BC" transform="translate(477.6,342.2) scale(6.19)" xlink:href="#gpPt5"/><use color="#0071BC" transform="translate(479.7,338.9) scale(6.22)" xlink:href="#gpPt5"/><use color="#0071BC" transform="translate(481.7,366.3) scale(6.25)" xlink:href="#gpPt5"/></g></g><g fill="none" stroke="currentColor" stroke-linecap="butt" stroke-linejoin="miter" stroke-width=".5" color="#000"><path stroke="#000" d="M72.8,31.6 L72.8,373.8 L506.7,373.8 L506.7,31.6 L72.8,31.6 Z"/></g></g></svg>