<svg xmlns="http://www.w3.org/2000/svg" xmlns:xlink="http://www.w3.org/1999/xlink" width="560" height="420" viewBox="0 0 560 420"><title>Gnuplot</title><desc>Produced by GNUPLOT 5.4 patchlevel 0</desc><g id="gnuplot_canvas"><rect width="560" height="420" x="0" y="0" fill="none"/><defs><circle id="gpDot" r=".5" stroke="currentColor" stroke-width=".5"/><path id="gpPt0" stroke="currentColor" stroke-width=".267" d="M-1,0 h2 M0,-1 v2"/><path id="gpPt1" stroke="currentColor" stroke-width=".267" d="M-1,-1 L1,1 M1,-1 L-1,1"/><path id="gpPt2" stroke="currentColor" stroke-width=".267" d="M-1,0 L1,0 M0,-1 L0,1 M-1,-1 L1,1 M-1,1 L1,-1"/><rect id="gpPt3" width="2" height="2" x="-1" y="-1" stroke="currentColor" stroke-width=".267"/><rect id="gpPt4" width="2" height="2" x="-1" y="-1" fill="currentColor" stroke="currentColor" stroke-width=".267"/><circle id="gpPt5" cx="0" cy="0" r="1" stroke="currentColor" stroke-width=".267"/><use id="gpPt6" fill="currentColor" stroke="none" xlink:href="#gpPt5"/><path id="gpPt7" stroke="currentColor" stroke-width=".267" d="M0,-1.33 L-1.33,0.67 L1.33,0.67 z"/><use id="gpPt8" fill="currentColor" stroke="none" xlink:href="#gpPt7"/><use id="gpPt9" stroke="currentColor" transform="rotate(180)" xlink:href="#gpPt7"/><use id="gpPt10" fill="currentColor" stroke="none" xlink:href="#gpPt9"/><use id="gpPt11" stroke="currentColor" transform="rotate(45)" xlink:href="#gpPt3"/><use id="gpPt12" fill="currentColor" stroke="none" xlink:href="#gpPt11"/><path id="gpPt13" stroke="currentColor" stroke-width=".267" d="M0,1.330 L1.265,0.411 L0.782,-1.067 L-0.782,-1.076 L-1.265,0.411 z"/><use id="gpPt14" fill="currentColor" stroke="none" xlink:href="#gpPt13"/><filter id="textbox" width="1" height="1" x="0" y="0" filterUnits="objectBoundingBox"><feFlood flood-color="#fff" flood-opacity="1" result="bgnd"/><feComposite in="SourceGraphic" in2="bgnd" operator="atop"/></filter><filter id="greybox" width="1" height="1" x="0" y="0" filterUnits="objectBoundingBox"><feFlood flood-color="#d3d3d3" flood-opacity="1" result="grey"/><feComposite in="SourceGraphic" in2="grey" operator="atop"/></filter></defs><g fill="none" stroke="currentColor" stroke-linecap="butt" stroke-linejoin="miter" stroke-width=".5" color="#000"><path stroke="#000" d="M133.6,326.0 L133.5,79.5"/></g><g fill="none" stroke="currentColor" stroke-linecap="butt" stroke-linejoin="miter" stroke-width=".5" color="#000"><path stroke="#000" d="M446.0,79.5 L133.5,79.5"/></g><g fill="none" stroke="currentColor" stroke-linecap="butt" stroke-linejoin="miter" stroke-width=".5" color="#000"><path stroke="#000" d="M133.6,326.0"/></g><g fill="none" stroke="currentColor" stroke-linecap="butt" stroke-linejoin="miter" stroke-width=".5" color="#000"><path stroke="#000" d="M133.5,79.5"/></g><g fill="none" stroke="currentColor" stroke-linecap="butt" stroke-linejoin="miter" stroke-width=".5" color="#000"><path stroke="#000" d="M446.0,79.5"/></g><g fill="none" stroke="currentColor" stroke-linecap="butt" stroke-linejoin="miter" stroke-width=".5" color="#000"><path stroke="#000" d="M133.6,326.0 L133.5,79.5"/></g><g fill="none" stroke="currentColor" stroke-linecap="butt" stroke-linejoin="miter" stroke-width=".5" color="#000"><path stroke="#000" d="M446.0,79.5 L133.5,79.5"/></g><g id="gnuplot_plot_1a"><title>gnuplot_plot_1a</title><g fill="none" stroke="currentColor" stroke-linecap="butt" stroke-linejoin="miter" stroke-width=".5" color="#000"><path stroke="#0071BC" d="M192.2,202.7 L159.7,202.7 M289.8,305.4 L159.7,202.7 M289.8,305.4 L419.9,202.7 M387.4,202.7 L419.9,202.7 M289.8,100.0 L159.7,202.7 M289.8,100.0 L419.9,202.7 M322.3,228.3 L289.8,305.4 M322.3,228.3 L387.4,202.7 M257.3,228.3 L192.2,202.7 M257.3,228.3 L289.8,305.4 M257.3,177.1 L192.2,202.7 M257.3,177.1 L289.8,100.0 M322.3,177.1 L387.4,202.7 M322.3,177.1 L289.8,100.0 M289.8,202.7 L192.2,202.7 M289.8,202.7 L387.4,202.7 M289.8,202.7 L322.3,228.3 M289.8,202.7 L257.3,228.3 M289.8,202.7 L257.3,177.1 M289.8,202.7 L322.3,177.1 M159.7,202.7 L419.9,202.7 L159.7,202.7 L419.9,202.7 L289.8,305.4 L387.4,202.7 L192.2,202.7 L289.8,305.4 L192.2,202.7 L289.8,100.0 L387.4,202.7 L289.8,100.0 L192.2,202.7 L387.4,202.7 L322.3,228.3 L257.3,228.3 L257.3,177.1 L322.3,177.1 M192.2,202.7 L289.8,305.4 L387.4,202.7 L289.8,100.0 L322.3,228.3 L257.3,228.3 L257.3,177.1 L322.3,177.1 L289.8,202.7"/></g></g><g id="gnuplot_plot_2a"><title>gnuplot_plot_2a</title><g fill="none" stroke="currentColor" stroke-linecap="butt" stroke-linejoin="miter" stroke-width="1" color="#000"><use color="#0071BC" transform="translate(289.8,202.7) scale(3.75)" xlink:href="#gpPt6"/><use color="#0071BC" transform="translate(322.3,177.1) scale(3.75)" xlink:href="#gpPt6"/><use color="#0071BC" transform="translate(257.3,177.1) scale(3.75)" xlink:href="#gpPt6"/><use color="#0071BC" transform="translate(257.3,228.3) scale(3.75)" xlink:href="#gpPt6"/><use color="#0071BC" transform="translate(322.3,228.3) scale(3.75)" xlink:href="#gpPt6"/><use color="#0071BC" transform="translate(289.8,100.0) scale(3.75)" xlink:href="#gpPt6"/><use color="#0071BC" transform="translate(387.4,202.7) scale(3.75)" xlink:href="#gpPt6"/><use color="#0071BC" transform="translate(289.8,305.4) scale(3.75)" xlink:href="#gpPt6"/><use color="#0071BC" transform="translate(419.9,202.7) scale(3.75)" xlink:href="#gpPt6"/><use color="#0071BC" transform="translate(192.2,202.7) scale(3.75)" xlink:href="#gpPt6"/><use color="#0071BC" transform="translate(159.7,202.7) scale(3.75)" xlink:href="#gpPt6"/></g></g><g id="gnuplot_plot_3a"><title>gnuplot_plot_3a</title><g fill="none" stroke="currentColor" stroke-linecap="butt" stroke-linejoin="miter" stroke-width="1" color="#000"><g fill="#000" stroke="none" font-family="Helvetica" font-size="11" text-anchor="start"><text transform="translate(296.8,206.3)"><tspan font-family="Helvetica">0</tspan></text></g><g fill="#000" stroke="none" font-family="Helvetica" font-size="11" text-anchor="start"><text transform="translate(329.3,180.7)"><tspan font-family="Helvetica">1</tspan></text></g><g fill="#000" stroke="none" font-family="Helvetica" font-size="11" text-anchor="start"><text transform="translate(264.3,180.7)"><tspan font-family="Helvetica">2</tspan></text></g><g fill="#000" stroke="none" font-family="Helvetica" font-size="11" text-anchor="start"><text transform="translate(264.3,231.9)"><tspan font-family="Helvetica">3</tspan></text></g><g fill="#000" stroke="none" font-family="Helvetica" font-size="11" text-anchor="start"><text transform="translate(329.3,231.9)"><tspan font-family="Helvetica">4</tspan></text></g><g fill="#000" stroke="none" font-family="Helvetica" font-size="11" text-anchor="start"><text transform="translate(296.8,103.6)"><tspan font-family="Helvetica">5</tspan></text></g><g fill="#000" stroke="none" font-family="Helvetica" font-size="11" text-anchor="start"><text transform="translate(394.4,206.3)"><tspan font-family="Helvetica">6</tspan></text></g><g fill="#000" stroke="none" font-family="Helvetica" font-size="11" text-anchor="start"><text transform="translate(296.8,309.0)"><tspan font-family="Helvetica">7</tspan></text></g><g fill="#000" stroke="none" font-family="Helvetica" font-size="11" text-anchor="start"><text transform="translate(426.9,206.3)"><tspan font-family="Helvetica">8</tspan></text></g><g fill="#000" stroke="none" font-family="Helvetica" font-size="11" text-anchor="start"><text transform="translate(199.2,206.3)"><tspan font-family="Helvetica">9</tspan></text></g><g fill="#000" stroke="none" font-family="Helvetica" font-size="11" text-anchor="start"><text transform="translate(166.7,206.3)"><tspan font-family="Helvetica">10</tspan></text></g><g fill="#000" stroke="none" font-family="Helvetica" font-size="11" text-anchor="start"><text transform="translate(313.0,193.5)"><tspan font-family="Helvetica" font-style="italic">1</tspan></text></g><g fill="#000" stroke="none" font-family="Helvetica" font-size="11" text-anchor="start"><text transform="translate(280.6,193.5)"><tspan font-family="Helvetica" font-style="italic">1</tspan></text></g><g fill="#000" stroke="none" font-family="Helvetica" font-size="11" text-anchor="start"><text transform="translate(280.6,219.1)"><tspan font-family="Helvetica" font-style="italic">1</tspan></text></g><g fill="#000" stroke="none" font-family="Helvetica" font-size="11" text-anchor="start"><text transform="translate(313.0,219.1)"><tspan font-family="Helvetica" font-style="italic">1</tspan></text></g><g fill="#000" stroke="none" font-family="Helvetica" font-size="11" text-anchor="start"><text transform="translate(345.6,206.3)"><tspan font-family="Helvetica" font-style="italic">3</tspan></text></g><g fill="#000" stroke="none" font-family="Helvetica" font-size="11" text-anchor="start"><text transform="translate(248.0,206.3)"><tspan font-family="Helvetica" font-style="italic">3</tspan></text></g><g fill="#000" stroke="none" font-family="Helvetica" font-size="11" text-anchor="start"><text transform="translate(313.0,142.2)"><tspan font-family="Helvetica" font-style="italic">2</tspan></text></g><g fill="#000" stroke="none" font-family="Helvetica" font-size="11" text-anchor="start"><text transform="translate(361.8,193.5)"><tspan font-family="Helvetica" font-style="italic">4</tspan></text></g><g fill="#000" stroke="none" font-family="Helvetica" font-size="11" text-anchor="start"><text transform="translate(280.6,142.2)"><tspan font-family="Helvetica" font-style="italic">1</tspan></text></g><g fill="#000" stroke="none" font-family="Helvetica" font-size="11" text-anchor="start"><text transform="translate(231.8,193.5)"><tspan font-family="Helvetica" font-style="italic">6</tspan></text></g><g fill="#000" stroke="none" font-family="Helvetica" font-size="11" text-anchor="start"><text transform="translate(280.6,270.4)"><tspan font-family="Helvetica" font-style="italic">2</tspan></text></g><g fill="#000" stroke="none" font-family="Helvetica" font-size="11" text-anchor="start"><text transform="translate(231.8,219.1)"><tspan font-family="Helvetica" font-style="italic">8</tspan></text></g><g fill="#000" stroke="none" font-family="Helvetica" font-size="11" text-anchor="start"><text transform="translate(361.8,219.1)"><tspan font-family="Helvetica" font-style="italic">8</tspan></text></g><g fill="#000" stroke="none" font-family="Helvetica" font-size="11" text-anchor="start"><text transform="translate(313.0,270.4)"><tspan font-family="Helvetica" font-style="italic">9</tspan></text></g><g fill="#000" stroke="none" font-family="Helvetica" font-size="11" text-anchor="start"><text transform="translate(361.8,155.0)"><tspan font-family="Helvetica" font-style="italic">3</tspan></text></g><g fill="#000" stroke="none" font-family="Helvetica" font-size="11" text-anchor="start"><text transform="translate(231.8,155.0)"><tspan font-family="Helvetica" font-style="italic">2</tspan></text></g><g fill="#000" stroke="none" font-family="Helvetica" font-size="11" text-anchor="start"><text transform="translate(410.6,206.3)"><tspan font-family="Helvetica" font-style="italic">10</tspan></text></g><g fill="#000" stroke="none" font-family="Helvetica" font-size="11" text-anchor="start"><text transform="translate(361.8,257.6)"><tspan font-family="Helvetica" font-style="italic">12</tspan></text></g><g fill="#000" stroke="none" font-family="Helvetica" font-size="11" text-anchor="start"><text transform="translate(231.8,257.6)"><tspan font-family="Helvetica" font-style="italic">15</tspan></text></g><g fill="#000" stroke="none" font-family="Helvetica" font-size="11" text-anchor="start"><text transform="translate(183.0,206.3)"><tspan font-family="Helvetica" font-style="italic">16</tspan></text></g></g></g><g fill="none" stroke="currentColor" stroke-linecap="butt" stroke-linejoin="miter" stroke-width=".5" color="#000"><path stroke="#000" d="M446.0,79.5 L446.0,326.0"/></g><g fill="none" stroke="currentColor" stroke-linecap="butt" stroke-linejoin="miter" stroke-width=".5" color="#000"><path stroke="#000" d="M133.6,326.0 L446.0,326.0"/></g></g></svg>