<svg xmlns="http://www.w3.org/2000/svg" xmlns:xlink="http://www.w3.org/1999/xlink" width="560" height="420" viewBox="0 0 560 420"><title>Gnuplot</title><desc>Produced by GNUPLOT 5.4 patchlevel 0</desc><g id="gnuplot_canvas"><rect width="560" height="420" x="0" y="0" fill="none"/><defs><circle id="gpDot" r=".5" stroke="currentColor" stroke-width=".5"/><path id="gpPt0" stroke="currentColor" stroke-width=".267" d="M-1,0 h2 M0,-1 v2"/><path id="gpPt1" stroke="currentColor" stroke-width=".267" d="M-1,-1 L1,1 M1,-1 L-1,1"/><path id="gpPt2" stroke="currentColor" stroke-width=".267" d="M-1,0 L1,0 M0,-1 L0,1 M-1,-1 L1,1 M-1,1 L1,-1"/><rect id="gpPt3" width="2" height="2" x="-1" y="-1" stroke="currentColor" stroke-width=".267"/><rect id="gpPt4" width="2" height="2" x="-1" y="-1" fill="currentColor" stroke="currentColor" stroke-width=".267"/><circle id="gpPt5" cx="0" cy="0" r="1" stroke="currentColor" stroke-width=".267"/><use id="gpPt6" fill="currentColor" stroke="none" xlink:href="#gpPt5"/><path id="gpPt7" stroke="currentColor" stroke-width=".267" d="M0,-1.33 L-1.33,0.67 L1.33,0.67 z"/><use id="gpPt8" fill="currentColor" stroke="none" xlink:href="#gpPt7"/><use id="gpPt9" stroke="currentColor" transform="rotate(180)" xlink:href="#gpPt7"/><use id="gpPt10" fill="currentColor" stroke="none" xlink:href="#gpPt9"/><use id="gpPt11" stroke="currentColor" transform="rotate(45)" xlink:href="#gpPt3"/><use id="gpPt12" fill="currentColor" stroke="none" xlink:href="#gpPt11"/><path id="gpPt13" stroke="currentColor" stroke-width=".267" d="M0,1.330 L1.265,0.411 L0.782,-1.067 L-0.782,-1.076 L-1.265,0.411 z"/><use id="gpPt14" fill="currentColor" stroke="none" xlink:href="#gpPt13"/><filter id="textbox" width="1" height="1" x="0" y="0" filterUnits="objectBoundingBox"><feFlood flood-color="#fff" flood-opacity="1" result="bgnd"/><feComposite in="SourceGraphic" in2="bgnd" operator="atop"/></filter><filter id="greybox" width="1" height="1" x="0" y="0" filterUnits="objectBoundingBox"><feFlood flood-color="#d3d3d3" flood-opacity="1" result="grey"/><feComposite in="SourceGraphic" in2="grey" operator="atop"/></filter></defs><g fill="none" stroke="currentColor" stroke-linecap="butt" stroke-linejoin="miter" stroke-width=".5" color="#000"><path stroke="#000" d="M72.8,31.6 L72.8,373.8 L506.7,373.8 L506.7,31.6 L72.8,31.6 Z"/></g><g id="gnuplot_plot_1a"><title>&apos;-&apos;</title><g fill="none" stroke="currentColor" stroke-linecap="butt" stroke-linejoin="miter" stroke-width=".5" color="#000"><g stroke="none" shape-rendering="crispEdges"><polygon fill="#0071BC" points="247.1 124.8 470.5 139.2 470.5 136.9 247.1 122.5"/><polygon fill="#0071BC" points="247.1 123.9 388 60.3 388 59.9 247.1 123.4"/><polygon fill="#0071BC" points="247.1 124.1 109 192.3 109 191.3 247.1 123.2"/><polygon fill="#0071BC" points="247.1 125.5 136 297.8 136 294.1 247.1 121.8"/><polygon fill="#0071BC" points="470.5 140.2 388 62.2 388 58 470.5 136"/><polygon fill="#0071BC" points="470.5 140.2 442.3 265.9 442.3 261.7 470.5 136"/><polygon fill="#0071BC" points="388 60.8 442.3 264.5 442.3 263.1 388 59.4"/><polygon fill="#0071BC" points="109 192.3 136 296.4 136 295.5 109 191.3"/><polygon fill="#0071BC" points="109 194.1 269.7 347.6 269.7 343 109 189.5"/><polygon fill="#0071BC" points="136 296.9 269.7 346.2 269.7 344.4 136 295"/><polygon fill="#0071BC" points="442.3 265.2 269.7 346.7 269.7 343.9 442.3 262.4"/></g></g></g><g id="gnuplot_plot_2a"><title>&apos;-&apos;</title><g fill="none" stroke="currentColor" stroke-linecap="butt" stroke-linejoin="miter" stroke-width="1" color="#000"><use color="#0071BC" transform="translate(247.1,123.7) scale(3.75)" xlink:href="#gpPt6"/><use color="#0071BC" transform="translate(470.5,138.1) scale(3.75)" xlink:href="#gpPt6"/><use color="#0071BC" transform="translate(388.0,60.1) scale(3.75)" xlink:href="#gpPt6"/><use color="#0071BC" transform="translate(109.0,191.8) scale(3.75)" xlink:href="#gpPt6"/><use color="#0071BC" transform="translate(136.0,295.9) scale(3.75)" xlink:href="#gpPt6"/><use color="#0071BC" transform="translate(442.3,263.8) scale(3.75)" xlink:href="#gpPt6"/><use color="#0071BC" transform="translate(269.7,345.3) scale(3.75)" xlink:href="#gpPt6"/></g></g><g id="gnuplot_plot_3a"><title>&apos;-&apos;</title><g fill="none" stroke="currentColor" stroke-linecap="butt" stroke-linejoin="miter" stroke-width="1" color="#000"><g fill="#000" stroke="none" font-family="Helvetica" font-size="11" text-anchor="start"><text transform="translate(254.1,127.3)"><tspan font-family="Helvetica">0</tspan></text></g><g fill="#000" stroke="none" font-family="Helvetica" font-size="11" text-anchor="start"><text transform="translate(477.5,141.7)"><tspan font-family="Helvetica">1</tspan></text></g><g fill="#000" stroke="none" font-family="Helvetica" font-size="11" text-anchor="start"><text transform="translate(395.0,63.7)"><tspan font-family="Helvetica">2</tspan></text></g><g fill="#000" stroke="none" font-family="Helvetica" font-size="11" text-anchor="start"><text transform="translate(116.0,195.4)"><tspan font-family="Helvetica">3</tspan></text></g><g fill="#000" stroke="none" font-family="Helvetica" font-size="11" text-anchor="start"><text transform="translate(143.0,299.5)"><tspan font-family="Helvetica">4</tspan></text></g><g fill="#000" stroke="none" font-family="Helvetica" font-size="11" text-anchor="start"><text transform="translate(449.3,267.4)"><tspan font-family="Helvetica">5</tspan></text></g><g fill="#000" stroke="none" font-family="Helvetica" font-size="11" text-anchor="start"><text transform="translate(276.7,348.9)"><tspan font-family="Helvetica">6</tspan></text></g><g fill="#000" stroke="none" font-family="Helvetica" font-size="11" text-anchor="start"><text transform="translate(365.8,134.5)"><tspan font-family="Helvetica" font-style="italic">50</tspan></text></g><g fill="#000" stroke="none" font-family="Helvetica" font-size="11" text-anchor="start"><text transform="translate(324.6,95.5)"><tspan font-family="Helvetica" font-style="italic">10</tspan></text></g><g fill="#000" stroke="none" font-family="Helvetica" font-size="11" text-anchor="start"><text transform="translate(185.0,161.3)"><tspan font-family="Helvetica" font-style="italic">20</tspan></text></g><g fill="#000" stroke="none" font-family="Helvetica" font-size="11" text-anchor="start"><text transform="translate(198.6,213.4)"><tspan font-family="Helvetica" font-style="italic">80</tspan></text></g><g fill="#000" stroke="none" font-family="Helvetica" font-size="11" text-anchor="start"><text transform="translate(436.3,102.7)"><tspan font-family="Helvetica" font-style="italic">90</tspan></text></g><g fill="#000" stroke="none" font-family="Helvetica" font-size="11" text-anchor="start"><text transform="translate(463.4,204.5)"><tspan font-family="Helvetica" font-style="italic">90</tspan></text></g><g fill="#000" stroke="none" font-family="Helvetica" font-size="11" text-anchor="start"><text transform="translate(422.1,165.6)"><tspan font-family="Helvetica" font-style="italic">30</tspan></text></g><g fill="#000" stroke="none" font-family="Helvetica" font-size="11" text-anchor="start"><text transform="translate(129.5,247.5)"><tspan font-family="Helvetica" font-style="italic">20</tspan></text></g><g fill="#000" stroke="none" font-family="Helvetica" font-size="11" text-anchor="start"><text transform="translate(196.3,272.1)"><tspan font-family="Helvetica" font-style="italic">100</tspan></text></g><g fill="#000" stroke="none" font-family="Helvetica" font-size="11" text-anchor="start"><text transform="translate(209.8,324.2)"><tspan font-family="Helvetica" font-style="italic">40</tspan></text></g><g fill="#000" stroke="none" font-family="Helvetica" font-size="11" text-anchor="start"><text transform="translate(363.0,308.2)"><tspan font-family="Helvetica" font-style="italic">60</tspan></text></g></g></g><g fill="none" stroke="currentColor" stroke-linecap="butt" stroke-linejoin="miter" stroke-width=".5" color="#000"><path stroke="#000" d="M72.8,31.6 L72.8,373.8 L506.7,373.8 L506.7,31.6 L72.8,31.6 Z"/></g></g></svg>