<svg xmlns="http://www.w3.org/2000/svg" xmlns:xlink="http://www.w3.org/1999/xlink" width="560" height="420" viewBox="0 0 560 420"><title>Gnuplot</title><desc>Produced by GNUPLOT 5.4 patchlevel 0</desc><g id="gnuplot_canvas"><rect width="560" height="420" x="0" y="0" fill="none"/><defs><circle id="gpDot" r=".5" stroke="currentColor" stroke-width=".5"/><path id="gpPt0" stroke="currentColor" stroke-width=".267" d="M-1,0 h2 M0,-1 v2"/><path id="gpPt1" stroke="currentColor" stroke-width=".267" d="M-1,-1 L1,1 M1,-1 L-1,1"/><path id="gpPt2" stroke="currentColor" stroke-width=".267" d="M-1,0 L1,0 M0,-1 L0,1 M-1,-1 L1,1 M-1,1 L1,-1"/><rect id="gpPt3" width="2" height="2" x="-1" y="-1" stroke="currentColor" stroke-width=".267"/><rect id="gpPt4" width="2" height="2" x="-1" y="-1" fill="currentColor" stroke="currentColor" stroke-width=".267"/><circle id="gpPt5" cx="0" cy="0" r="1" stroke="currentColor" stroke-width=".267"/><use id="gpPt6" fill="currentColor" stroke="none" xlink:href="#gpPt5"/><path id="gpPt7" stroke="currentColor" stroke-width=".267" d="M0,-1.33 L-1.33,0.67 L1.33,0.67 z"/><use id="gpPt8" fill="currentColor" stroke="none" xlink:href="#gpPt7"/><use id="gpPt9" stroke="currentColor" transform="rotate(180)" xlink:href="#gpPt7"/><use id="gpPt10" fill="currentColor" stroke="none" xlink:href="#gpPt9"/><use id="gpPt11" stroke="currentColor" transform="rotate(45)" xlink:href="#gpPt3"/><use id="gpPt12" fill="currentColor" stroke="none" xlink:href="#gpPt11"/><path id="gpPt13" stroke="currentColor" stroke-width=".267" d="M0,1.330 L1.265,0.411 L0.782,-1.067 L-0.782,-1.076 L-1.265,0.411 z"/><use id="gpPt14" fill="currentColor" stroke="none" xlink:href="#gpPt13"/><filter id="textbox" width="1" height="1" x="0" y="0" filterUnits="objectBoundingBox"><feFlood flood-color="#fff" flood-opacity="1" result="bgnd"/><feComposite in="SourceGraphic" in2="bgnd" operator="atop"/></filter><filter id="greybox" width="1" height="1" x="0" y="0" filterUnits="objectBoundingBox"><feFlood flood-color="#d3d3d3" flood-opacity="1" result="grey"/><feComposite in="SourceGraphic" in2="grey" operator="atop"/></filter></defs><g fill="none" stroke="currentColor" stroke-linecap="butt" stroke-linejoin="miter" stroke-width=".5" color="#000"><path stroke="#000" d="M72.8,339.6 L78.4,339.6"/><g fill="#262626" stroke="none" font-family="Helvetica" font-size="10" text-anchor="end"><text transform="translate(65.8,342.9)"><tspan font-family="Helvetica">-4</tspan></text></g></g><g fill="none" stroke="currentColor" stroke-linecap="butt" stroke-linejoin="miter" stroke-width=".5" color="#000"><path stroke="#000" d="M72.8,271.1 L78.4,271.1"/><g fill="#262626" stroke="none" font-family="Helvetica" font-size="10" text-anchor="end"><text transform="translate(65.8,274.4)"><tspan font-family="Helvetica">-2</tspan></text></g></g><g fill="none" stroke="currentColor" stroke-linecap="butt" stroke-linejoin="miter" stroke-width=".5" color="#000"><path stroke="#000" d="M72.8,202.7 L78.4,202.7"/><g fill="#262626" stroke="none" font-family="Helvetica" font-size="10" text-anchor="end"><text transform="translate(65.8,206.0)"><tspan font-family="Helvetica">0</tspan></text></g></g><g fill="none" stroke="currentColor" stroke-linecap="butt" stroke-linejoin="miter" stroke-width=".5" color="#000"><path stroke="#000" d="M72.8,134.3 L78.4,134.3"/><g fill="#262626" stroke="none" font-family="Helvetica" font-size="10" text-anchor="end"><text transform="translate(65.8,137.6)"><tspan font-family="Helvetica">2</tspan></text></g></g><g fill="none" stroke="currentColor" stroke-linecap="butt" stroke-linejoin="miter" stroke-width=".5" color="#000"><path stroke="#000" d="M72.8,65.8 L78.4,65.8"/><g fill="#262626" stroke="none" font-family="Helvetica" font-size="10" text-anchor="end"><text transform="translate(65.8,69.1)"><tspan font-family="Helvetica">4</tspan></text></g></g><g fill="none" stroke="currentColor" stroke-linecap="butt" stroke-linejoin="miter" stroke-width=".5" color="#000"><path stroke="#000" d="M114.0,373.8 L114.0,368.2"/><g fill="#262626" stroke="none" font-family="Helvetica" font-size="10" text-anchor="middle"><text transform="translate(114.0,392.1)"><tspan font-family="Helvetica">-4</tspan></text></g></g><g fill="none" stroke="currentColor" stroke-linecap="butt" stroke-linejoin="miter" stroke-width=".5" color="#000"><path stroke="#000" d="M196.3,373.8 L196.3,368.2"/><g fill="#262626" stroke="none" font-family="Helvetica" font-size="10" text-anchor="middle"><text transform="translate(196.3,392.1)"><tspan font-family="Helvetica">-2</tspan></text></g></g><g fill="none" stroke="currentColor" stroke-linecap="butt" stroke-linejoin="miter" stroke-width=".5" color="#000"><path stroke="#000" d="M278.6,373.8 L278.6,368.2"/><g fill="#262626" stroke="none" font-family="Helvetica" font-size="10" text-anchor="middle"><text transform="translate(278.6,392.1)"><tspan font-family="Helvetica">0</tspan></text></g></g><g fill="none" stroke="currentColor" stroke-linecap="butt" stroke-linejoin="miter" stroke-width=".5" color="#000"><path stroke="#000" d="M360.9,373.8 L360.9,368.2"/><g fill="#262626" stroke="none" font-family="Helvetica" font-size="10" text-anchor="middle"><text transform="translate(360.9,392.1)"><tspan font-family="Helvetica">2</tspan></text></g></g><g fill="none" stroke="currentColor" stroke-linecap="butt" stroke-linejoin="miter" stroke-width=".5" color="#000"><path stroke="#000" d="M443.2,373.8 L443.2,368.2"/><g fill="#262626" stroke="none" font-family="Helvetica" font-size="10" text-anchor="middle"><text transform="translate(443.2,392.1)"><tspan font-family="Helvetica">4</tspan></text></g></g><g fill="none" stroke="currentColor" stroke-linecap="butt" stroke-linejoin="miter" stroke-width=".5" color="#000"><path stroke="#000" d="M72.8,31.6 L72.8,373.8 L484.3,373.8 L484.3,31.6 L72.8,31.6 Z"/></g><g id="gnuplot_plot_1a"><title>&apos;-&apos;</title><g fill="none" stroke="currentColor" stroke-linecap="butt" stroke-linejoin="miter" stroke-width=".5" color="#000"><path stroke="#3E26A8" d="M484.3,362.6 L480.1,363.4 L479.6,363.4 L476.0,363.8 L471.8,364.0 L467.7,363.7 L465.5,363.4 L463.5,363.2 L459.4,362.2 L455.2,361.0 L452.5,360.0 L451.0,359.4 L446.9,357.5 L445.0,356.5 L442.7,355.3 L439.0,353.1 L438.6,352.8 L434.4,350.0 L433.9,349.6 L430.3,346.8 L429.5,346.1 L426.1,343.2 L425.6,342.7 L422.0,339.2 L422.0,339.1 L418.9,335.8 L417.8,334.4 L416.2,332.3 L413.8,328.9 L413.6,328.6 L411.8,325.4 L410.2,322.0 L409.5,319.8 L409.0,318.5 L408.2,315.0 L407.9,311.6 L407.9,308.1 L408.4,304.7 L409.2,301.2 L409.5,300.6 L410.5,297.8 L412.2,294.3 L413.6,291.9 L414.3,290.8 L416.7,287.4 L417.8,286.0 L419.5,283.9 L422.0,281.3 L422.7,280.5 L426.1,277.2 L426.3,277.0 L430.3,273.6 L430.4,273.6 L434.4,270.5 L434.9,270.1 L438.6,267.6 L440.2,266.6 L442.7,265.1 L446.3,263.2 L446.9,262.9 L451.0,261.0 L454.4,259.7 L455.2,259.4 L459.4,258.2 L463.5,257.3 L467.7,256.7 L471.8,256.5 L476.0,256.6 L480.1,257.0 L484.3,257.9"/><path stroke="#3E26A8" d="M484.3,147.5 L480.1,148.4 L476.0,148.8 L471.8,148.9 L467.7,148.7 L463.5,148.1 L459.4,147.2 L455.2,146.0 L454.4,145.7 L451.0,144.4 L446.9,142.5 L446.3,142.2 L442.7,140.3 L440.2,138.8 L438.6,137.8 L434.9,135.3 L434.4,134.9 L430.4,131.8 L430.3,131.8 L426.3,128.4 L426.1,128.2 L422.7,124.9 L422.0,124.1 L419.5,121.5 L417.8,119.4 L416.7,118.0 L414.3,114.6 L413.6,113.5 L412.2,111.1 L410.5,107.6 L409.5,104.8 L409.2,104.2 L408.4,100.7 L407.9,97.3 L407.9,93.8 L408.2,90.4 L409.0,86.9 L409.5,85.6 L410.2,83.4 L411.8,80.0 L413.6,76.8 L413.8,76.5 L416.2,73.1 L417.8,71.0 L418.9,69.6 L422.0,66.3 L422.0,66.2 L425.6,62.7 L426.1,62.2 L429.5,59.3 L430.3,58.6 L433.9,55.8 L434.4,55.4 L438.6,52.6 L439.0,52.3 L442.7,50.1 L445.0,48.9 L446.9,47.9 L451.0,46.0 L452.5,45.4 L455.2,44.4 L459.4,43.2 L463.5,42.2 L465.5,42.0 L467.7,41.7 L471.8,41.4 L476.0,41.6 L479.6,42.0 L480.1,42.0 L484.3,42.8"/><path stroke="#3E26A8" d="M210.0,363.8 L206.9,363.4 L205.8,363.3 L201.7,362.4 L197.5,361.3 L193.9,360.0 L193.3,359.8 L189.2,357.9 L186.4,356.5 L185.0,355.8 L180.9,353.3 L180.5,353.1 L176.7,350.6 L175.4,349.6 L172.6,347.4 L171.0,346.1 L168.4,343.9 L167.0,342.7 L164.2,340.0 L163.5,339.2 L160.4,335.8 L160.1,335.4 L157.6,332.3 L155.9,329.8 L155.3,328.9 L153.3,325.4 L151.8,322.2 L151.7,322.0 L150.5,318.5 L149.7,315.0 L149.3,311.6 L149.3,308.1 L149.8,304.7 L150.7,301.2 L151.8,298.3 L152.0,297.8 L153.7,294.3 L155.7,290.8 L155.9,290.5 L158.2,287.4 L160.1,285.0 L161.0,283.9 L164.2,280.5 L164.2,280.4 L167.8,277.0 L168.4,276.5 L171.8,273.6 L172.6,273.0 L176.4,270.1 L176.7,269.9 L180.9,267.1 L181.6,266.6 L185.0,264.6 L187.8,263.2 L189.2,262.5 L193.3,260.7 L195.9,259.7 L197.5,259.1 L201.7,258.0 L205.8,257.1 L210.0,256.6 L214.1,256.5 L218.3,256.6 L222.4,257.2 L226.6,258.1 L230.7,259.3 L232.0,259.7 L234.9,260.8 L239.1,262.7 L240.0,263.2 L243.2,264.9 L246.2,266.6 L247.4,267.4 L251.5,270.1 L255.7,273.3 L256.0,273.6 L259.8,276.8 L260.0,277.0 L263.6,280.5 L264.0,280.9 L266.8,283.9 L268.2,285.5 L269.7,287.4 L272.1,290.8 L272.3,291.2 L274.2,294.3 L275.9,297.8 L276.5,299.4 L277.1,301.2 L278.0,304.7 L278.5,308.1 L278.5,311.6 L278.1,315.0 L277.3,318.5 L276.5,321.0 L276.1,322.0 L274.5,325.4 L272.6,328.9 L272.3,329.2 L270.2,332.3 L268.2,334.9 L267.4,335.8 L264.3,339.2 L264.0,339.6 L260.8,342.7 L259.8,343.6 L256.9,346.1 L255.7,347.1 L252.4,349.6 L251.5,350.3 L247.4,353.1 L243.2,355.5 L241.4,356.5 L239.1,357.7 L234.9,359.6 L233.9,360.0 L230.7,361.1 L226.6,362.3 L222.4,363.2 L220.9,363.4 L218.3,363.8 L214.1,364.0 L210.0,363.8"/><path stroke="#3E26A8" d="M197.5,146.3 L195.9,145.7 L193.3,144.7 L189.2,142.9 L187.8,142.2 L185.0,140.8 L181.6,138.8 L180.9,138.3 L176.7,135.5 L176.4,135.3 L172.6,132.4 L171.8,131.8 L168.4,128.9 L167.8,128.4 L164.2,125.0 L164.2,124.9 L161.0,121.5 L160.1,120.4 L158.2,118.0 L155.9,114.9 L155.7,114.6 L153.7,111.1 L152.0,107.6 L151.8,107.1 L150.7,104.2 L149.8,100.7 L149.3,97.3 L149.3,93.8 L149.7,90.4 L150.5,86.9 L151.7,83.4 L151.8,83.2 L153.3,80.0 L155.3,76.5 L155.9,75.6 L157.6,73.1 L160.1,70.0 L160.4,69.6 L163.5,66.2 L164.2,65.4 L167.0,62.7 L168.4,61.5 L171.0,59.3 L172.6,58.0 L175.4,55.8 L176.7,54.8 L180.5,52.3 L180.9,52.1 L185.0,49.6 L186.4,48.9 L189.2,47.5 L193.3,45.6 L193.9,45.4 L197.5,44.1 L201.7,43.0 L205.8,42.1 L206.9,42.0 L210.0,41.6 L214.1,41.4 L218.3,41.6 L220.9,42.0 L222.4,42.2 L226.6,43.1 L230.7,44.3 L233.9,45.4 L234.9,45.8 L239.1,47.7 L241.4,48.9 L243.2,49.9 L247.4,52.3 L251.5,55.1 L252.4,55.8 L255.7,58.3 L256.9,59.3 L259.8,61.8 L260.8,62.7 L264.0,65.8 L264.3,66.2 L267.4,69.6 L268.2,70.5 L270.2,73.1 L272.3,76.2 L272.6,76.5 L274.5,80.0 L276.1,83.4 L276.5,84.4 L277.3,86.9 L278.1,90.4 L278.5,93.8 L278.5,97.3 L278.0,100.7 L277.1,104.2 L276.5,106.0 L275.9,107.6 L274.2,111.1 L272.3,114.2 L272.1,114.6 L269.7,118.0 L268.2,119.9 L266.8,121.5 L264.0,124.5 L263.6,124.9 L260.0,128.4 L259.8,128.6 L256.0,131.8 L255.7,132.1 L251.5,135.3 L247.4,138.0 L246.2,138.8 L243.2,140.5 L240.0,142.2 L239.1,142.7 L234.9,144.6 L232.0,145.7 L230.7,146.1 L226.6,147.3 L222.4,148.2 L218.3,148.8 L214.1,148.9 L210.0,148.8 L205.8,148.3 L201.7,147.4 L197.5,146.3"/></g></g><g id="gnuplot_plot_2a"><title>&apos;-&apos;</title><g fill="none" stroke="currentColor" stroke-linecap="butt" stroke-linejoin="miter" stroke-width=".5" color="#000"><path stroke="#12BEB9" d="M161.1,373.8 L160.1,373.0 L157.0,370.3 L155.9,369.5 L152.8,366.9 L151.8,366.0 L148.6,363.4 L147.6,362.6 L144.5,360.0 L143.5,359.1 L140.3,356.5 L139.3,355.7 L136.2,353.1 L135.1,352.2 L132.0,349.6 L131.0,348.7 L127.8,346.1 L126.8,345.3 L123.7,342.7 L122.7,341.8 L119.5,339.2 L118.5,338.4 L115.3,335.8 L114.4,334.9 L111.2,332.3 L110.2,331.4 L107.0,328.9 L106.1,328.0 L102.8,325.4 L101.9,324.5 L98.7,322.0 L97.7,321.0 L94.5,318.5 L93.6,317.5 L90.2,315.0 L89.4,313.8 L85.7,311.6 L86.3,308.1 L89.4,306.6 L91.0,304.7 L93.6,303.0 L95.3,301.2 L97.7,299.4 L99.5,297.8 L101.9,295.9 L103.7,294.3 L106.1,292.5 L107.8,290.8 L110.2,289.0 L112.0,287.4 L114.4,285.5 L116.2,283.9 L118.5,282.1 L120.3,280.5 L122.7,278.6 L124.5,277.0 L126.8,275.1 L128.7,273.6 L131.0,271.7 L132.8,270.1 L135.1,268.2 L137.0,266.6 L139.3,264.8 L141.2,263.2 L143.5,261.3 L145.3,259.7 L147.6,257.8 L149.5,256.3 L151.8,254.4 L153.6,252.8 L155.9,250.9 L157.8,249.4 L160.1,247.4 L162.0,245.9 L164.2,244.0 L166.1,242.5 L168.4,240.5 L170.3,239.0 L172.6,237.1 L174.5,235.5 L176.7,233.6 L178.6,232.1 L180.9,230.1 L182.8,228.6 L185.0,226.7 L187.0,225.2 L189.2,223.2 L191.1,221.7 L193.3,219.7 L195.3,218.3 L197.5,216.2 L199.5,214.8 L201.7,212.8 L203.7,211.3 L205.8,209.2 L208.0,207.9 L210.0,205.6 L213.0,204.4 L213.0,201.0 L210.0,199.8 L208.0,197.5 L205.8,196.2 L203.7,194.1 L201.7,192.6 L199.5,190.6 L197.5,189.2 L195.3,187.1 L193.3,185.7 L191.1,183.7 L189.2,182.2 L187.0,180.2 L185.0,178.7 L182.8,176.8 L180.9,175.3 L178.6,173.3 L176.7,171.8 L174.5,169.9 L172.6,168.3 L170.3,166.4 L168.4,164.9 L166.1,162.9 L164.2,161.4 L162.0,159.5 L160.1,158.0 L157.8,156.0 L155.9,154.5 L153.6,152.6 L151.8,151.0 L149.5,149.1 L147.6,147.6 L145.3,145.7 L143.5,144.1 L141.2,142.2 L139.3,140.6 L137.0,138.8 L135.1,137.2 L132.8,135.3 L131.0,133.7 L128.7,131.8 L126.8,130.3 L124.5,128.4 L122.7,126.8 L120.3,124.9 L118.5,123.3 L116.2,121.5 L114.4,119.9 L112.0,118.0 L110.2,116.4 L107.8,114.6 L106.1,112.9 L103.7,111.1 L101.9,109.5 L99.5,107.6 L97.7,106.0 L95.3,104.2 L93.6,102.4 L91.0,100.7 L89.4,98.8 L86.3,97.3 L85.7,93.8 L89.4,91.6 L90.2,90.4 L93.6,87.9 L94.5,86.9 L97.7,84.4 L98.7,83.4 L101.9,80.9 L102.8,80.0 L106.1,77.4 L107.0,76.5 L110.2,74.0 L111.2,73.1 L114.4,70.5 L115.3,69.6 L118.5,67.0 L119.5,66.2 L122.7,63.6 L123.7,62.7 L126.8,60.1 L127.8,59.3 L131.0,56.7 L132.0,55.8 L135.1,53.2 L136.2,52.3 L139.3,49.7 L140.3,48.9 L143.5,46.3 L144.5,45.4 L147.6,42.8 L148.6,42.0 L151.8,39.4 L152.8,38.5 L155.9,35.9 L157.0,35.1 L160.1,32.4 L161.1,31.6 M419.7,373.8 L417.8,372.3 L415.5,370.3 L413.6,368.8 L411.4,366.9 L409.5,365.3 L407.2,363.4 L405.3,361.9 L403.0,360.0 L401.2,358.4 L398.9,356.5 L397.0,355.0 L394.7,353.1 L392.9,351.5 L390.5,349.6 L388.7,348.0 L386.4,346.1 L384.5,344.6 L382.2,342.7 L380.4,341.1 L378.1,339.2 L376.2,337.6 L373.9,335.8 L372.1,334.2 L369.7,332.3 L367.9,330.7 L365.5,328.9 L363.8,327.2 L361.4,325.4 L359.6,323.8 L357.2,322.0 L355.4,320.3 L353.0,318.5 L351.3,316.7 L348.6,315.0 L347.1,313.0 L343.7,311.6 L344.6,308.1 L347.1,307.3 L349.5,304.7 L351.3,303.7 L353.8,301.2 L355.4,300.1 L358.0,297.8 L359.6,296.6 L362.2,294.3 L363.8,293.2 L366.4,290.8 L367.9,289.7 L370.6,287.4 L372.1,286.2 L374.7,283.9 L376.2,282.8 L378.9,280.5 L380.4,279.3 L383.1,277.0 L384.5,275.8 L387.2,273.6 L388.7,272.4 L391.4,270.1 L392.9,268.9 L395.6,266.6 L397.0,265.5 L399.7,263.2 L401.2,262.0 L403.9,259.7 L405.3,258.5 L408.0,256.3 L409.5,255.1 L412.2,252.8 L413.6,251.6 L416.4,249.4 L417.8,248.2 L420.5,245.9 L422.0,244.7 L424.7,242.5 L426.1,241.2 L428.8,239.0 L430.3,237.8 L433.0,235.5 L434.4,234.3 L437.2,232.1 L438.6,230.8 L441.3,228.6 L442.7,227.4 L445.5,225.2 L446.9,223.9 L449.7,221.7 L451.0,220.4 L453.9,218.3 L455.2,217.0 L458.0,214.8 L459.4,213.5 L462.2,211.3 L463.5,209.9 L466.5,207.9 L467.7,206.3 L471.1,204.4 L471.1,201.0 L467.7,199.1 L466.5,197.5 L463.5,195.5 L462.2,194.1 L459.4,191.9 L458.0,190.6 L455.2,188.4 L453.9,187.1 L451.0,185.0 L449.7,183.7 L446.9,181.5 L445.5,180.2 L442.7,178.0 L441.3,176.8 L438.6,174.6 L437.2,173.3 L434.4,171.1 L433.0,169.9 L430.3,167.6 L428.8,166.4 L426.1,164.2 L424.7,162.9 L422.0,160.7 L420.5,159.5 L417.8,157.2 L416.4,156.0 L413.6,153.8 L412.2,152.6 L409.5,150.3 L408.0,149.1 L405.3,146.9 L403.9,145.7 L401.2,143.4 L399.7,142.2 L397.0,139.9 L395.6,138.8 L392.9,136.5 L391.4,135.3 L388.7,133.0 L387.2,131.8 L384.5,129.6 L383.1,128.4 L380.4,126.1 L378.9,124.9 L376.2,122.6 L374.7,121.5 L372.1,119.2 L370.6,118.0 L367.9,115.7 L366.4,114.6 L363.8,112.2 L362.2,111.1 L359.6,108.8 L358.0,107.6 L355.4,105.3 L353.8,104.2 L351.3,101.7 L349.5,100.7 L347.1,98.1 L344.6,97.3 L343.7,93.8 L347.1,92.4 L348.6,90.4 L351.3,88.7 L353.0,86.9 L355.4,85.1 L357.2,83.4 L359.6,81.6 L361.4,80.0 L363.8,78.2 L365.5,76.5 L367.9,74.7 L369.7,73.1 L372.1,71.2 L373.9,69.6 L376.2,67.8 L378.1,66.2 L380.4,64.3 L382.2,62.7 L384.5,60.8 L386.4,59.3 L388.7,57.4 L390.5,55.8 L392.9,53.9 L394.7,52.3 L397.0,50.4 L398.9,48.9 L401.2,47.0 L403.0,45.4 L405.3,43.5 L407.2,42.0 L409.5,40.1 L411.4,38.5 L413.6,36.6 L415.5,35.1 L417.8,33.1 L419.7,31.6 M72.8,300.5 L74.0,301.2 L77.0,304.0 L78.3,304.7 L81.1,307.6 L83.2,308.1 L84.5,311.6 L81.1,312.7 L79.2,315.0 L77.0,316.4 L74.9,318.5 L72.8,319.9 M484.3,193.0 L482.7,194.1 L480.1,196.5 L478.4,197.5 L476.0,200.2 L473.2,201.0 L473.2,204.4 L476.0,205.2 L478.4,207.9 L480.1,208.9 L482.7,211.3 L484.3,212.4 M72.8,85.5 L74.9,86.9 L77.0,89.0 L79.2,90.4 L81.1,92.7 L84.5,93.8 L83.2,97.3 L81.1,97.8 L78.3,100.7 L77.0,101.4 L74.0,104.2 L72.8,104.9 M266.7,31.6 L268.2,32.8 L270.9,35.1 L272.3,36.3 L275.0,38.5 L276.5,39.7 L279.2,42.0 L280.6,43.2 L283.3,45.4 L284.8,46.6 L287.5,48.9 L288.9,50.1 L291.7,52.3 L293.1,53.6 L295.8,55.8 L297.3,57.0 L300.0,59.3 L301.4,60.5 L304.2,62.7 L305.6,63.9 L308.3,66.2 L309.7,67.4 L312.5,69.6 L313.9,70.9 L316.7,73.1 L318.0,74.3 L320.8,76.5 L322.2,77.8 L325.0,80.0 L326.4,81.3 L329.2,83.4 L330.5,84.8 L333.4,86.9 L334.7,88.3 L337.7,90.4 L338.8,92.0 L342.4,93.8 L341.6,97.3 L338.8,98.4 L336.9,100.7 L334.7,102.1 L332.6,104.2 L330.5,105.6 L328.4,107.6 L326.4,109.1 L324.2,111.1 L322.2,112.6 L320.0,114.6 L318.0,116.0 L315.8,118.0 L313.9,119.5 L311.6,121.5 L309.7,123.0 L307.5,124.9 L305.6,126.4 L303.3,128.4 L301.4,129.9 L299.1,131.8 L297.3,133.4 L295.0,135.3 L293.1,136.8 L290.8,138.8 L288.9,140.3 L286.7,142.2 L284.8,143.8 L282.5,145.7 L280.6,147.2 L278.3,149.1 L276.5,150.7 L274.2,152.6 L272.3,154.1 L270.0,156.0 L268.2,157.6 L265.9,159.5 L264.0,161.1 L261.7,162.9 L259.8,164.5 L257.5,166.4 L255.7,168.0 L253.4,169.9 L251.5,171.4 L249.2,173.3 L247.4,174.9 L245.0,176.8 L243.2,178.4 L240.9,180.2 L239.1,181.8 L236.7,183.7 L234.9,185.3 L232.5,187.1 L230.7,188.8 L228.3,190.6 L226.6,192.3 L224.1,194.1 L222.4,195.8 L219.8,197.5 L218.3,199.5 L215.1,201.0 L215.1,204.4 L218.3,205.9 L219.8,207.9 L222.4,209.6 L224.1,211.3 L226.6,213.1 L228.3,214.8 L230.7,216.6 L232.5,218.3 L234.9,220.1 L236.7,221.7 L239.1,223.6 L240.9,225.2 L243.2,227.0 L245.0,228.6 L247.4,230.5 L249.2,232.1 L251.5,234.0 L253.4,235.5 L255.7,237.4 L257.5,239.0 L259.8,240.9 L261.7,242.5 L264.0,244.3 L265.9,245.9 L268.2,247.8 L270.0,249.4 L272.3,251.3 L274.2,252.8 L276.5,254.7 L278.3,256.3 L280.6,258.2 L282.5,259.7 L284.8,261.6 L286.7,263.2 L288.9,265.1 L290.8,266.6 L293.1,268.6 L295.0,270.1 L297.3,272.0 L299.1,273.6 L301.4,275.5 L303.3,277.0 L305.6,279.0 L307.5,280.5 L309.7,282.4 L311.6,283.9 L313.9,285.9 L315.8,287.4 L318.0,289.4 L320.0,290.8 L322.2,292.8 L324.2,294.3 L326.4,296.3 L328.4,297.8 L330.5,299.8 L332.6,301.2 L334.7,303.3 L336.9,304.7 L338.8,307.0 L341.6,308.1 L342.4,311.6 L338.8,313.4 L337.7,315.0 L334.7,317.1 L333.4,318.5 L330.5,320.6 L329.2,322.0 L326.4,324.1 L325.0,325.4 L322.2,327.6 L320.8,328.9 L318.0,331.1 L316.7,332.3 L313.9,334.5 L312.5,335.8 L309.7,338.0 L308.3,339.2 L305.6,341.5 L304.2,342.7 L301.4,344.9 L300.0,346.1 L297.3,348.4 L295.8,349.6 L293.1,351.8 L291.7,353.1 L288.9,355.3 L287.5,356.5 L284.8,358.8 L283.3,360.0 L280.6,362.2 L279.2,363.4 L276.5,365.7 L275.0,366.9 L272.3,369.1 L270.9,370.3 L268.2,372.6 L266.7,373.8"/></g></g><g id="gnuplot_plot_3a"><title>&apos;-&apos;</title><g fill="none" stroke="currentColor" stroke-linecap="butt" stroke-linejoin="miter" stroke-width=".5" color="#000"><path stroke="#F9FB15" d="M116.4,373.8 L114.4,372.6 L110.2,370.4 L110.1,370.3 L106.1,368.5 L101.9,366.9 L101.8,366.9 L97.7,365.7 L93.6,364.8 L89.4,364.2 L85.3,364.0 L81.1,364.1 L77.0,364.6 L72.8,365.4"/><path stroke="#F9FB15" d="M374.9,373.8 L372.1,372.1 L368.6,370.3 L367.9,370.0 L363.8,368.2 L360.3,366.9 L359.6,366.6 L355.4,365.5 L351.3,364.6 L347.1,364.1 L343.0,364.0 L338.8,364.2 L334.7,364.7 L330.5,365.6 L326.4,366.8 L326.1,366.9 L322.2,368.3 L318.0,370.2 L317.7,370.3 L313.9,372.4 L311.5,373.8 M72.8,255.0 L77.0,255.9 L80.7,256.3 L81.1,256.3 L85.3,256.4 L88.4,256.3 L89.4,256.2 L93.6,255.6 L97.7,254.7 L101.9,253.5 L103.6,252.8 L106.1,251.9 L110.2,250.0 L111.4,249.4 L114.4,247.8 L117.5,245.9 L118.5,245.3 L122.7,242.5 L126.8,239.3 L127.2,239.0 L131.0,235.7 L131.2,235.5 L134.7,232.1 L135.1,231.6 L137.9,228.6 L139.3,226.9 L140.6,225.2 L143.1,221.7 L143.5,221.0 L145.1,218.3 L146.7,214.8 L147.6,212.3 L148.0,211.3 L148.8,207.9 L149.2,204.4 L149.2,201.0 L148.8,197.5 L148.0,194.1 L147.6,193.1 L146.7,190.6 L145.1,187.1 L143.5,184.4 L143.1,183.7 L140.6,180.2 L139.3,178.5 L137.9,176.8 L135.1,173.8 L134.7,173.3 L131.2,169.9 L131.0,169.7 L127.2,166.4 L126.8,166.1 L122.7,162.9 L118.5,160.1 L117.5,159.5 L114.4,157.6 L111.4,156.0 L110.2,155.4 L106.1,153.5 L103.6,152.6 L101.9,151.9 L97.7,150.7 L93.6,149.8 L89.4,149.2 L88.4,149.1 L85.3,149.0 L81.1,149.1 L80.7,149.1 L77.0,149.5 L72.8,150.4"/><path stroke="#F9FB15" d="M72.8,40.0 L77.0,40.8 L81.1,41.3 L85.3,41.4 L89.4,41.2 L93.6,40.6 L97.7,39.7 L101.8,38.5 L101.9,38.5 L106.1,36.9 L110.1,35.1 L110.2,35.0 L114.4,32.8 L116.4,31.6"/><path stroke="#F9FB15" d="M311.5,31.6 L313.9,33.0 L317.7,35.1 L318.0,35.2 L322.2,37.1 L326.1,38.5 L326.4,38.6 L330.5,39.8 L334.7,40.7 L338.8,41.2 L343.0,41.4 L347.1,41.3 L351.3,40.8 L355.4,39.9 L359.6,38.8 L360.3,38.5 L363.8,37.2 L367.9,35.4 L368.6,35.1 L372.1,33.3 L374.9,31.6"/><path stroke="#F9FB15" d="M343.0,256.5 L347.1,256.3 L347.3,256.3 L351.3,255.8 L355.4,254.9 L359.6,253.8 L362.2,252.8 L363.8,252.3 L367.9,250.4 L370.0,249.4 L372.1,248.3 L376.1,245.9 L376.2,245.8 L380.4,243.0 L381.2,242.5 L384.5,239.9 L385.7,239.0 L388.7,236.4 L389.7,235.5 L392.9,232.5 L393.3,232.1 L396.4,228.6 L397.0,227.9 L399.2,225.2 L401.2,222.4 L401.6,221.7 L403.6,218.3 L405.3,214.8 L405.3,214.7 L406.5,211.3 L407.4,207.9 L407.8,204.4 L407.8,201.0 L407.4,197.5 L406.5,194.1 L405.3,190.7 L405.3,190.6 L403.6,187.1 L401.6,183.7 L401.2,183.0 L399.2,180.2 L397.0,177.5 L396.4,176.8 L393.3,173.3 L392.9,172.9 L389.7,169.9 L388.7,169.0 L385.7,166.4 L384.5,165.5 L381.2,162.9 L380.4,162.4 L376.2,159.6 L376.1,159.5 L372.1,157.1 L370.0,156.0 L367.9,155.0 L363.8,153.1 L362.2,152.6 L359.6,151.6 L355.4,150.5 L351.3,149.6 L347.3,149.1 L347.1,149.1 L343.0,148.9 L339.2,149.1 L338.8,149.1 L334.7,149.7 L330.5,150.6 L326.4,151.8 L324.2,152.6 L322.2,153.3 L318.0,155.2 L316.4,156.0 L313.9,157.4 L310.3,159.5 L309.7,159.8 L305.6,162.6 L305.2,162.9 L301.4,165.8 L300.7,166.4 L297.3,169.3 L296.7,169.9 L293.1,173.3 L290.0,176.8 L288.9,178.0 L287.2,180.2 L284.8,183.7 L282.7,187.1 L281.1,190.6 L280.6,191.9 L279.9,194.1 L279.0,197.5 L278.6,201.0 L278.6,204.4 L279.0,207.9 L279.9,211.3 L280.6,213.5 L281.1,214.8 L282.7,218.3 L284.8,221.7 L287.2,225.2 L288.9,227.4 L290.0,228.6 L293.1,232.1 L296.7,235.5 L297.3,236.1 L300.7,239.0 L301.4,239.6 L305.2,242.5 L305.6,242.8 L309.7,245.6 L310.3,245.9 L313.9,248.0 L316.4,249.4 L318.0,250.2 L322.2,252.1 L324.2,252.8 L326.4,253.6 L330.5,254.8 L334.7,255.7 L338.8,256.3 L339.2,256.3 L343.0,256.5"/></g></g><g fill="none" stroke="currentColor" stroke-linecap="butt" stroke-linejoin="miter" stroke-width=".5" color="#000"><path stroke="#000" d="M72.8,31.6 L72.8,373.8 L484.3,373.8 L484.3,31.6 L72.8,31.6 Z"/><g stroke="none" shape-rendering="crispEdges"><polygon fill="#3E26A9" points="494.6 373.8 515.1 373.8 515.1 371.1 494.6 371.1"/><polygon fill="#3F28AE" points="494.6 371.2 515.1 371.2 515.1 368.4 494.6 368.4"/><polygon fill="#402AB4" points="494.6 368.5 515.1 368.5 515.1 368.3 494.6 368.3"/><polygon fill="#402AB5" points="494.6 368.4 515.1 368.4 515.1 365.7 494.6 365.7"/><polygon fill="#412CBA" points="494.6 365.8 515.1 365.8 515.1 363.1 494.6 363.1"/><polygon fill="#422EBF" points="494.6 363.2 515.1 363.2 515.1 362.9 494.6 362.9"/><polygon fill="#422EC0" points="494.6 363 515.1 363 515.1 360.4 494.6 360.4"/><polygon fill="#4330C5" points="494.6 360.5 515.1 360.5 515.1 357.7 494.6 357.7"/><polygon fill="#4332CA" points="494.6 357.8 515.1 357.8 515.1 357.5 494.6 357.5"/><polygon fill="#4432CB" points="494.6 357.6 515.1 357.6 515.1 355 494.6 355"/><polygon fill="#4434D0" points="494.6 355.1 515.1 355.1 515.1 352.4 494.6 352.4"/><polygon fill="#4536D5" points="494.6 352.5 515.1 352.5 515.1 352 494.6 352"/><polygon fill="#4537D5" points="494.6 352.1 515.1 352.1 515.1 349.7 494.6 349.7"/><polygon fill="#4639D9" points="494.6 349.8 515.1 349.8 515.1 347 494.6 347"/><polygon fill="#463BDE" points="494.6 347.1 515.1 347.1 515.1 346.6 494.6 346.6"/><polygon fill="#463CDE" points="494.6 346.7 515.1 346.7 515.1 344.3 494.6 344.3"/><polygon fill="#473EE1" points="494.6 344.4 515.1 344.4 515.1 341.7 494.6 341.7"/><polygon fill="#4741E5" points="494.6 341.8 515.1 341.8 515.1 341.2 494.6 341.2"/><polygon fill="#4741E5" points="494.6 341.3 515.1 341.3 515.1 339 494.6 339"/><polygon fill="#4744E8" points="494.6 339.1 515.1 339.1 515.1 336.3 494.6 336.3"/><polygon fill="#4746EB" points="494.6 336.4 515.1 336.4 515.1 335.7 494.6 335.7"/><polygon fill="#4747EB" points="494.6 335.8 515.1 335.8 515.1 333.6 494.6 333.6"/><polygon fill="#4849ED" points="494.6 333.7 515.1 333.7 515.1 331 494.6 331"/><polygon fill="#484CEF" points="494.6 331.1 515.1 331.1 515.1 330.3 494.6 330.3"/><polygon fill="#484DF0" points="494.6 330.4 515.1 330.4 515.1 328.3 494.6 328.3"/><polygon fill="#484FF2" points="494.6 328.4 515.1 328.4 515.1 325.6 494.6 325.6"/><polygon fill="#4852F4" points="494.6 325.7 515.1 325.7 515.1 324.9 494.6 324.9"/><polygon fill="#4852F4" points="494.6 325 515.1 325 515.1 323 494.6 323"/><polygon fill="#4854F6" points="494.6 323.1 515.1 323.1 515.1 320.3 494.6 320.3"/><polygon fill="#4757F7" points="494.6 320.4 515.1 320.4 515.1 319.4 494.6 319.4"/><polygon fill="#4758F8" points="494.6 319.5 515.1 319.5 515.1 317.6 494.6 317.6"/><polygon fill="#475AF9" points="494.6 317.7 515.1 317.7 515.1 314.9 494.6 314.9"/><polygon fill="#475DFA" points="494.6 315 515.1 315 515.1 314 494.6 314"/><polygon fill="#465EFB" points="494.6 314.1 515.1 314.1 515.1 312.3 494.6 312.3"/><polygon fill="#465FFB" points="494.6 312.4 515.1 312.4 515.1 309.6 494.6 309.6"/><polygon fill="#4562FC" points="494.6 309.7 515.1 309.7 515.1 308.6 494.6 308.6"/><polygon fill="#4563FD" points="494.6 308.7 515.1 308.7 515.1 306.9 494.6 306.9"/><polygon fill="#4465FD" points="494.6 307 515.1 307 515.1 304.2 494.6 304.2"/><polygon fill="#4368FE" points="494.6 304.3 515.1 304.3 515.1 303.1 494.6 303.1"/><polygon fill="#4269FE" points="494.6 303.2 515.1 303.2 515.1 301.6 494.6 301.6"/><polygon fill="#416BFE" points="494.6 301.7 515.1 301.7 515.1 298.9 494.6 298.9"/><polygon fill="#3F6EFF" points="494.6 299 515.1 299 515.1 297.7 494.6 297.7"/><polygon fill="#3E6FFF" points="494.6 297.8 515.1 297.8 515.1 296.2 494.6 296.2"/><polygon fill="#3D71FF" points="494.6 296.3 515.1 296.3 515.1 293.5 494.6 293.5"/><polygon fill="#3A74FE" points="494.6 293.6 515.1 293.6 515.1 292.3 494.6 292.3"/><polygon fill="#3875FE" points="494.6 292.4 515.1 292.4 515.1 290.9 494.6 290.9"/><polygon fill="#3777FE" points="494.6 291 515.1 291 515.1 288.2 494.6 288.2"/><polygon fill="#347AFD" points="494.6 288.3 515.1 288.3 515.1 286.8 494.6 286.8"/><polygon fill="#327CFC" points="494.6 286.9 515.1 286.9 515.1 285.5 494.6 285.5"/><polygon fill="#317DFC" points="494.6 285.6 515.1 285.6 515.1 282.9 494.6 282.9"/><polygon fill="#3080FA" points="494.6 283 515.1 283 515.1 281.4 494.6 281.4"/><polygon fill="#2F81FA" points="494.6 281.5 515.1 281.5 515.1 280.2 494.6 280.2"/><polygon fill="#2E83F9" points="494.6 280.3 515.1 280.3 515.1 277.5 494.6 277.5"/><polygon fill="#2E85F8" points="494.6 277.6 515.1 277.6 515.1 276 494.6 276"/><polygon fill="#2E87F7" points="494.6 276.1 515.1 276.1 515.1 274.8 494.6 274.8"/><polygon fill="#2D88F6" points="494.6 274.9 515.1 274.9 515.1 272.2 494.6 272.2"/><polygon fill="#2D8BF4" points="494.6 272.3 515.1 272.3 515.1 270.5 494.6 270.5"/><polygon fill="#2D8CF3" points="494.6 270.6 515.1 270.6 515.1 269.5 494.6 269.5"/><polygon fill="#2D8DF2" points="494.6 269.6 515.1 269.6 515.1 266.8 494.6 266.8"/><polygon fill="#2C90F0" points="494.6 266.9 515.1 266.9 515.1 265.1 494.6 265.1"/><polygon fill="#2B91EF" points="494.6 265.2 515.1 265.2 515.1 264.1 494.6 264.1"/><polygon fill="#2A92EE" points="494.6 264.2 515.1 264.2 515.1 261.5 494.6 261.5"/><polygon fill="#2895EC" points="494.6 261.6 515.1 261.6 515.1 259.7 494.6 259.7"/><polygon fill="#2797EB" points="494.6 259.8 515.1 259.8 515.1 258.8 494.6 258.8"/><polygon fill="#2797EA" points="494.6 258.9 515.1 258.9 515.1 256.1 494.6 256.1"/><polygon fill="#269AE9" points="494.6 256.2 515.1 256.2 515.1 254.3 494.6 254.3"/><polygon fill="#259BE8" points="494.6 254.4 515.1 254.4 515.1 253.4 494.6 253.4"/><polygon fill="#259CE7" points="494.6 253.5 515.1 253.5 515.1 250.8 494.6 250.8"/><polygon fill="#249EE6" points="494.6 250.9 515.1 250.9 515.1 248.8 494.6 248.8"/><polygon fill="#23A0E5" points="494.6 248.9 515.1 248.9 515.1 248.1 494.6 248.1"/><polygon fill="#23A1E4" points="494.6 248.2 515.1 248.2 515.1 245.4 494.6 245.4"/><polygon fill="#21A3E3" points="494.6 245.5 515.1 245.5 515.1 243.4 494.6 243.4"/><polygon fill="#20A5E3" points="494.6 243.5 515.1 243.5 515.1 242.8 494.6 242.8"/><polygon fill="#1FA5E2" points="494.6 242.9 515.1 242.9 515.1 240.1 494.6 240.1"/><polygon fill="#1EA7E1" points="494.6 240.2 515.1 240.2 515.1 238 494.6 238"/><polygon fill="#1CA9DF" points="494.6 238.1 515.1 238.1 515.1 237.4 494.6 237.4"/><polygon fill="#1CAADF" points="494.6 237.5 515.1 237.5 515.1 234.7 494.6 234.7"/><polygon fill="#1AACDD" points="494.6 234.8 515.1 234.8 515.1 232.5 494.6 232.5"/><polygon fill="#18ADDB" points="494.6 232.6 515.1 232.6 515.1 232.1 494.6 232.1"/><polygon fill="#18AEDB" points="494.6 232.2 515.1 232.2 515.1 229.4 494.6 229.4"/><polygon fill="#14B0D8" points="494.6 229.5 515.1 229.5 515.1 227.1 494.6 227.1"/><polygon fill="#11B1D6" points="494.6 227.2 515.1 227.2 515.1 226.7 494.6 226.7"/><polygon fill="#11B1D6" points="494.6 226.8 515.1 226.8 515.1 224 494.6 224"/><polygon fill="#0CB3D3" points="494.6 224.1 515.1 224.1 515.1 221.7 494.6 221.7"/><polygon fill="#08B5D0" points="494.6 221.8 515.1 221.8 515.1 221.4 494.6 221.4"/><polygon fill="#07B5D0" points="494.6 221.5 515.1 221.5 515.1 218.7 494.6 218.7"/><polygon fill="#04B6CD" points="494.6 218.8 515.1 218.8 515.1 216.2 494.6 216.2"/><polygon fill="#01B8CA" points="494.6 216.3 515.1 216.3 515.1 216 494.6 216"/><polygon fill="#01B8CA" points="494.6 216.1 515.1 216.1 515.1 213.3 494.6 213.3"/><polygon fill="#01B9C6" points="494.6 213.4 515.1 213.4 515.1 210.8 494.6 210.8"/><polygon fill="#02BAC3" points="494.6 210.9 515.1 210.9 515.1 210.7 494.6 210.7"/><polygon fill="#02BBC3" points="494.6 210.8 515.1 210.8 515.1 208 494.6 208"/><polygon fill="#07BCC0" points="494.6 208.1 515.1 208.1 515.1 205.4 494.6 205.4"/><polygon fill="#0BBDBD" points="494.6 205.5 515.1 205.5 515.1 205.3 494.6 205.3"/><polygon fill="#0BBDBC" points="494.6 205.4 515.1 205.4 515.1 202.6 494.6 202.6"/><polygon fill="#12BEB9" points="494.6 202.7 515.1 202.7 515.1 200 494.6 200"/><polygon fill="#19BFB6" points="494.6 200.1 515.1 200.1 515.1 199.9 494.6 199.9"/><polygon fill="#19BFB5" points="494.6 200 515.1 200 515.1 197.3 494.6 197.3"/><polygon fill="#1EC0B2" points="494.6 197.4 515.1 197.4 515.1 194.6 494.6 194.6"/><polygon fill="#24C1AF" points="494.6 194.7 515.1 194.7 515.1 194.5 494.6 194.5"/><polygon fill="#24C1AE" points="494.6 194.6 515.1 194.6 515.1 192 494.6 192"/><polygon fill="#28C2AB" points="494.6 192.1 515.1 192.1 515.1 189.3 494.6 189.3"/><polygon fill="#2CC4A7" points="494.6 189.4 515.1 189.4 515.1 189.1 494.6 189.1"/><polygon fill="#2CC4A7" points="494.6 189.2 515.1 189.2 515.1 186.6 494.6 186.6"/><polygon fill="#2EC5A4" points="494.6 186.7 515.1 186.7 515.1 183.9 494.6 183.9"/><polygon fill="#31C6A0" points="494.6 184 515.1 184 515.1 183.6 494.6 183.6"/><polygon fill="#32C69F" points="494.6 183.7 515.1 183.7 515.1 181.3 494.6 181.3"/><polygon fill="#34C79C" points="494.6 181.4 515.1 181.4 515.1 178.6 494.6 178.6"/><polygon fill="#37C898" points="494.6 178.7 515.1 178.7 515.1 178.2 494.6 178.2"/><polygon fill="#37C897" points="494.6 178.3 515.1 178.3 515.1 175.9 494.6 175.9"/><polygon fill="#3BC993" points="494.6 176 515.1 176 515.1 173.2 494.6 173.2"/><polygon fill="#3ECA8F" points="494.6 173.3 515.1 173.3 515.1 172.8 494.6 172.8"/><polygon fill="#3FCA8E" points="494.6 172.9 515.1 172.9 515.1 170.6 494.6 170.6"/><polygon fill="#44CA8A" points="494.6 170.7 515.1 170.7 515.1 167.9 494.6 167.9"/><polygon fill="#49CB85" points="494.6 168 515.1 168 515.1 167.3 494.6 167.3"/><polygon fill="#4ACB84" points="494.6 167.4 515.1 167.4 515.1 165.2 494.6 165.2"/><polygon fill="#4FCC80" points="494.6 165.3 515.1 165.3 515.1 162.5 494.6 162.5"/><polygon fill="#56CC7B" points="494.6 162.6 515.1 162.6 515.1 161.9 494.6 161.9"/><polygon fill="#57CC7A" points="494.6 162 515.1 162 515.1 159.9 494.6 159.9"/><polygon fill="#5CCC76" points="494.6 160 515.1 160 515.1 157.2 494.6 157.2"/><polygon fill="#62CD70" points="494.6 157.3 515.1 157.3 515.1 156.5 494.6 156.5"/><polygon fill="#64CD6F" points="494.6 156.6 515.1 156.6 515.1 154.5 494.6 154.5"/><polygon fill="#69CD6B" points="494.6 154.6 515.1 154.6 515.1 151.9 494.6 151.9"/><polygon fill="#70CD65" points="494.6 152 515.1 152 515.1 151 494.6 151"/><polygon fill="#72CD63" points="494.6 151.1 515.1 151.1 515.1 149.2 494.6 149.2"/><polygon fill="#77CC60" points="494.6 149.3 515.1 149.3 515.1 146.5 494.6 146.5"/><polygon fill="#7ECC5A" points="494.6 146.6 515.1 146.6 515.1 145.6 494.6 145.6"/><polygon fill="#81CC59" points="494.6 145.7 515.1 145.7 515.1 143.8 494.6 143.8"/><polygon fill="#86CB55" points="494.6 143.9 515.1 143.9 515.1 141.2 494.6 141.2"/><polygon fill="#8DCB50" points="494.6 141.3 515.1 141.3 515.1 140.2 494.6 140.2"/><polygon fill="#8FCB4E" points="494.6 140.3 515.1 140.3 515.1 138.5 494.6 138.5"/><polygon fill="#94CA4A" points="494.6 138.6 515.1 138.6 515.1 135.8 494.6 135.8"/><polygon fill="#9BC945" points="494.6 135.9 515.1 135.9 515.1 134.8 494.6 134.8"/><polygon fill="#9DC943" points="494.6 134.9 515.1 134.9 515.1 133.1 494.6 133.1"/><polygon fill="#A2C840" points="494.6 133.2 515.1 133.2 515.1 130.5 494.6 130.5"/><polygon fill="#A8C73B" points="494.6 130.6 515.1 130.6 515.1 129.3 494.6 129.3"/><polygon fill="#ACC739" points="494.6 129.4 515.1 129.4 515.1 127.8 494.6 127.8"/><polygon fill="#AFC636" points="494.6 127.9 515.1 127.9 515.1 125.1 494.6 125.1"/><polygon fill="#B6C532" points="494.6 125.2 515.1 125.2 515.1 123.9 494.6 123.9"/><polygon fill="#B9C431" points="494.6 124 515.1 124 515.1 122.4 494.6 122.4"/><polygon fill="#BCC42F" points="494.6 122.5 515.1 122.5 515.1 119.8 494.6 119.8"/><polygon fill="#C2C22C" points="494.6 119.9 515.1 119.9 515.1 118.5 494.6 118.5"/><polygon fill="#C5C22A" points="494.6 118.6 515.1 118.6 515.1 117.1 494.6 117.1"/><polygon fill="#C8C129" points="494.6 117.2 515.1 117.2 515.1 114.4 494.6 114.4"/><polygon fill="#CEC028" points="494.6 114.5 515.1 114.5 515.1 113 494.6 113"/><polygon fill="#D1BF27" points="494.6 113.1 515.1 113.1 515.1 111.8 494.6 111.8"/><polygon fill="#D4BF28" points="494.6 111.9 515.1 111.9 515.1 109.1 494.6 109.1"/><polygon fill="#D9BD28" points="494.6 109.2 515.1 109.2 515.1 107.6 494.6 107.6"/><polygon fill="#DCBD29" points="494.6 107.7 515.1 107.7 515.1 106.4 494.6 106.4"/><polygon fill="#DFBC2A" points="494.6 106.5 515.1 106.5 515.1 103.7 494.6 103.7"/><polygon fill="#E4BB2C" points="494.6 103.8 515.1 103.8 515.1 102.2 494.6 102.2"/><polygon fill="#E6BB2D" points="494.6 102.3 515.1 102.3 515.1 101.1 494.6 101.1"/><polygon fill="#E8BB2F" points="494.6 101.2 515.1 101.2 515.1 98.4 494.6 98.4"/><polygon fill="#EDBA33" points="494.6 98.5 515.1 98.5 515.1 96.7 494.6 96.7"/><polygon fill="#F0BA36" points="494.6 96.8 515.1 96.8 515.1 95.7 494.6 95.7"/><polygon fill="#F1BA37" points="494.6 95.8 515.1 95.8 515.1 93 494.6 93"/><polygon fill="#F5BA3B" points="494.6 93.1 515.1 93.1 515.1 91.3 494.6 91.3"/><polygon fill="#F8BA3D" points="494.6 91.4 515.1 91.4 515.1 90.4 494.6 90.4"/><polygon fill="#F9BB3D" points="494.6 90.5 515.1 90.5 515.1 87.7 494.6 87.7"/><polygon fill="#FCBC3D" points="494.6 87.8 515.1 87.8 515.1 85.9 494.6 85.9"/><polygon fill="#FEBE3C" points="494.6 86 515.1 86 515.1 85 494.6 85"/><polygon fill="#FEBF3C" points="494.6 85.1 515.1 85.1 515.1 82.3 494.6 82.3"/><polygon fill="#FEC13A" points="494.6 82.4 515.1 82.4 515.1 80.4 494.6 80.4"/><polygon fill="#FEC338" points="494.6 80.5 515.1 80.5 515.1 79.7 494.6 79.7"/><polygon fill="#FEC437" points="494.6 79.8 515.1 79.8 515.1 77 494.6 77"/><polygon fill="#FEC735" points="494.6 77.1 515.1 77.1 515.1 75 494.6 75"/><polygon fill="#FEC934" points="494.6 75.1 515.1 75.1 515.1 74.3 494.6 74.3"/><polygon fill="#FECA33" points="494.6 74.4 515.1 74.4 515.1 71.7 494.6 71.7"/><polygon fill="#FDCD31" points="494.6 71.8 515.1 71.8 515.1 69.6 494.6 69.6"/><polygon fill="#FCCF30" points="494.6 69.7 515.1 69.7 515.1 69 494.6 69"/><polygon fill="#FCD030" points="494.6 69.1 515.1 69.1 515.1 66.3 494.6 66.3"/><polygon fill="#FBD32E" points="494.6 66.4 515.1 66.4 515.1 64.1 494.6 64.1"/><polygon fill="#FAD62D" points="494.6 64.2 515.1 64.2 515.1 63.6 494.6 63.6"/><polygon fill="#F9D72D" points="494.6 63.7 515.1 63.7 515.1 61 494.6 61"/><polygon fill="#F8DA2B" points="494.6 61.1 515.1 61.1 515.1 58.7 494.6 58.7"/><polygon fill="#F7DC2A" points="494.6 58.8 515.1 58.8 515.1 58.3 494.6 58.3"/><polygon fill="#F7DD2A" points="494.6 58.4 515.1 58.4 515.1 55.6 494.6 55.6"/><polygon fill="#F6E028" points="494.6 55.7 515.1 55.7 515.1 53.3 494.6 53.3"/><polygon fill="#F5E327" points="494.6 53.4 515.1 53.4 515.1 52.9 494.6 52.9"/><polygon fill="#F5E327" points="494.6 53 515.1 53 515.1 50.3 494.6 50.3"/><polygon fill="#F5E626" points="494.6 50.4 515.1 50.4 515.1 47.8 494.6 47.8"/><polygon fill="#F5E924" points="494.6 47.9 515.1 47.9 515.1 47.6 494.6 47.6"/><polygon fill="#F5E924" points="494.6 47.7 515.1 47.7 515.1 44.9 494.6 44.9"/><polygon fill="#F5EC22" points="494.6 45 515.1 45 515.1 42.4 494.6 42.4"/><polygon fill="#F6EF20" points="494.6 42.5 515.1 42.5 515.1 42.2 494.6 42.2"/><polygon fill="#F6EF20" points="494.6 42.3 515.1 42.3 515.1 39.6 494.6 39.6"/><polygon fill="#F6F21E" points="494.6 39.7 515.1 39.7 515.1 37 494.6 37"/><polygon fill="#F7F51B" points="494.6 37.1 515.1 37.1 515.1 36.9 494.6 36.9"/><polygon fill="#F7F51B" points="494.6 37 515.1 37 515.1 34.2 494.6 34.2"/><polygon fill="#F8F818" points="494.6 34.3 515.1 34.3 515.1 31.6 494.6 31.6"/></g></g><g fill="none" stroke="currentColor" stroke-linecap="butt" stroke-linejoin="miter" stroke-width=".5" color="#000"><path stroke="#000" d="M494.6,373.8 L515.1,373.8 L515.1,31.6 L494.6,31.6 L494.6,373.8 Z"/></g><g fill="none" stroke="currentColor" stroke-linecap="butt" stroke-linejoin="miter" stroke-width=".5" color="#000"><path stroke="#000" d="M515.1,373.8 L509.5,373.8"/><g fill="#262626" stroke="none" font-family="Helvetica" font-size="10" text-anchor="start"><text transform="translate(522.1,377.1)"><tspan font-family="Helvetica">-1</tspan></text></g></g><g fill="none" stroke="currentColor" stroke-linecap="butt" stroke-linejoin="miter" stroke-width=".5" color="#000"><path stroke="#000" d="M515.1,288.3 L509.5,288.3"/><g fill="#262626" stroke="none" font-family="Helvetica" font-size="10" text-anchor="start"><text transform="translate(522.1,291.6)"><tspan font-family="Helvetica">-0.5</tspan></text></g></g><g fill="none" stroke="currentColor" stroke-linecap="butt" stroke-linejoin="miter" stroke-width=".5" color="#000"><path stroke="#000" d="M515.1,202.7 L509.5,202.7"/><g fill="#262626" stroke="none" font-family="Helvetica" font-size="10" text-anchor="start"><text transform="translate(522.1,206.0)"><tspan font-family="Helvetica">0</tspan></text></g></g><g fill="none" stroke="currentColor" stroke-linecap="butt" stroke-linejoin="miter" stroke-width=".5" color="#000"><path stroke="#000" d="M515.1,117.2 L509.5,117.2"/><g fill="#262626" stroke="none" font-family="Helvetica" font-size="10" text-anchor="start"><text transform="translate(522.1,120.5)"><tspan font-family="Helvetica">0.5</tspan></text></g></g><g fill="none" stroke="currentColor" stroke-linecap="butt" stroke-linejoin="miter" stroke-width=".5" color="#000"><path stroke="#000" d="M515.1,31.6 L509.5,31.6"/><g fill="#262626" stroke="none" font-family="Helvetica" font-size="10" text-anchor="start"><text transform="translate(522.1,34.9)"><tspan font-family="Helvetica">1</tspan></text></g></g></g></svg>