<svg xmlns="http://www.w3.org/2000/svg" xmlns:xlink="http://www.w3.org/1999/xlink" width="560" height="420" viewBox="0 0 560 420"><title>Gnuplot</title><desc>Produced by GNUPLOT 5.4 patchlevel 0</desc><g id="gnuplot_canvas"><rect width="560" height="420" x="0" y="0" fill="none"/><defs><circle id="gpDot" r=".5" stroke="currentColor" stroke-width=".5"/><path id="gpPt0" stroke="currentColor" stroke-width=".267" d="M-1,0 h2 M0,-1 v2"/><path id="gpPt1" stroke="currentColor" stroke-width=".267" d="M-1,-1 L1,1 M1,-1 L-1,1"/><path id="gpPt2" stroke="currentColor" stroke-width=".267" d="M-1,0 L1,0 M0,-1 L0,1 M-1,-1 L1,1 M-1,1 L1,-1"/><rect id="gpPt3" width="2" height="2" x="-1" y="-1" stroke="currentColor" stroke-width=".267"/><rect id="gpPt4" width="2" height="2" x="-1" y="-1" fill="currentColor" stroke="currentColor" stroke-width=".267"/><circle id="gpPt5" cx="0" cy="0" r="1" stroke="currentColor" stroke-width=".267"/><use id="gpPt6" fill="currentColor" stroke="none" xlink:href="#gpPt5"/><path id="gpPt7" stroke="currentColor" stroke-width=".267" d="M0,-1.33 L-1.33,0.67 L1.33,0.67 z"/><use id="gpPt8" fill="currentColor" stroke="none" xlink:href="#gpPt7"/><use id="gpPt9" stroke="currentColor" transform="rotate(180)" xlink:href="#gpPt7"/><use id="gpPt10" fill="currentColor" stroke="none" xlink:href="#gpPt9"/><use id="gpPt11" stroke="currentColor" transform="rotate(45)" xlink:href="#gpPt3"/><use id="gpPt12" fill="currentColor" stroke="none" xlink:href="#gpPt11"/><path id="gpPt13" stroke="currentColor" stroke-width=".267" d="M0,1.330 L1.265,0.411 L0.782,-1.067 L-0.782,-1.076 L-1.265,0.411 z"/><use id="gpPt14" fill="currentColor" stroke="none" xlink:href="#gpPt13"/><filter id="textbox" width="1" height="1" x="0" y="0" filterUnits="objectBoundingBox"><feFlood flood-color="#fff" flood-opacity="1" result="bgnd"/><feComposite in="SourceGraphic" in2="bgnd" operator="atop"/></filter><filter id="greybox" width="1" height="1" x="0" y="0" filterUnits="objectBoundingBox"><feFlood flood-color="#d3d3d3" flood-opacity="1" result="grey"/><feComposite in="SourceGraphic" in2="grey" operator="atop"/></filter></defs><g fill="none" stroke="currentColor" stroke-linecap="butt" stroke-linejoin="miter" stroke-width="1" color="#000"><g stroke="none" shape-rendering="crispEdges"><polygon fill="#FFF" points="127 373.8 452.5 373.8 452.5 31.7 127 31.7"/></g></g><g fill="none" stroke="currentColor" stroke-linecap="butt" stroke-linejoin="miter" stroke-width=".5" color="#000"><path stroke="#000" d="M127.0,373.8"/><g fill="#262626" stroke="none" font-family="Helvetica" font-size="10" text-anchor="middle"><text transform="translate(127.0,392.1)"><tspan font-family="Helvetica">x1</tspan></text></g></g><g fill="none" stroke="currentColor" stroke-linecap="butt" stroke-linejoin="miter" stroke-width=".5" color="#000"><path stroke="#000" d="M235.5,373.8"/><g fill="#262626" stroke="none" font-family="Helvetica" font-size="10" text-anchor="middle"><text transform="translate(235.5,392.1)"><tspan font-family="Helvetica">x2</tspan></text></g></g><g fill="none" stroke="currentColor" stroke-linecap="butt" stroke-linejoin="miter" stroke-width=".5" color="#000"><path stroke="#000" d="M344.0,373.8"/><g fill="#262626" stroke="none" font-family="Helvetica" font-size="10" text-anchor="middle"><text transform="translate(344.0,392.1)"><tspan font-family="Helvetica">x3</tspan></text></g></g><g fill="none" stroke="currentColor" stroke-linecap="butt" stroke-linejoin="miter" stroke-width=".5" color="#000"><path stroke="#000" d="M452.5,373.8"/><g fill="#262626" stroke="none" font-family="Helvetica" font-size="10" text-anchor="middle"><text transform="translate(452.5,392.1)"><tspan font-family="Helvetica">x4</tspan></text></g></g><g id="gnuplot_plot_1a"><title>&apos;-&apos;</title><g fill="none" stroke="currentColor" stroke-linecap="butt" stroke-linejoin="miter" stroke-width=".5" color="#000"><path stroke="#A6CEE3" d="M127.0,167.8 L235.5,182.2 L344.0,362.0 L452.5,328.2"/><path stroke="#FF7F00" d="M127.0,143.0 L235.5,147.7 L344.0,42.2 L452.5,71.6"/><path stroke="#FF7F00" d="M127.0,113.5 L235.5,106.2 L344.0,41.7 L452.5,338.6"/><path stroke="#A6CEE3" d="M127.0,210.9 L235.5,220.1 L344.0,361.7 L452.5,137.7"/><path stroke="#A6CEE3" d="M127.0,171.2 L235.5,168.3 L344.0,363.4 L452.5,55.4"/><path stroke="#FF7F00" d="M127.0,94.3 L235.5,86.1 L344.0,45.7 L452.5,62.3"/><path stroke="#A6CEE3" d="M127.0,191.5 L235.5,182.3 L344.0,358.1 L452.5,81.0"/><path stroke="#FF7F00" d="M127.0,146.4 L235.5,144.3 L344.0,45.3 L452.5,362.0"/><path stroke="#FF7F00" d="M127.0,129.3 L235.5,130.1 L344.0,49.4 L452.5,141.5"/><path stroke="#FF7F00" d="M127.0,121.2 L235.5,119.8 L344.0,45.5 L452.5,55.5"/><path stroke="#A6CEE3" d="M127.0,161.3 L235.5,166.5 L344.0,360.8 L452.5,302.7"/><path stroke="#FF7F00" d="M127.0,41.6 L235.5,43.7 L344.0,45.6 L452.5,259.4"/><path stroke="#FF7F00" d="M127.0,121.2 L235.5,139.6 L344.0,41.9 L452.5,220.6"/><path stroke="#FF7F00" d="M127.0,127.6 L235.5,121.5 L344.0,48.2 L452.5,299.9"/><path stroke="#A6CEE3" d="M127.0,211.9 L235.5,213.4 L344.0,361.9 L452.5,188.3"/><path stroke="#FF7F00" d="M127.0,144.5 L235.5,153.0 L344.0,44.4 L452.5,254.6"/><path stroke="#FF7F00" d="M127.0,119.8 L235.5,117.9 L344.0,42.8 L452.5,177.3"/><path stroke="#FF7F00" d="M127.0,75.3 L235.5,89.4 L344.0,44.8 L452.5,41.9"/><path stroke="#FF7F00" d="M127.0,153.0 L235.5,149.4 L344.0,43.1 L452.5,161.1"/><path stroke="#FF7F00" d="M127.0,136.2 L235.5,142.2 L344.0,44.9 L452.5,41.3"/><path stroke="#FF7F00" d="M127.0,97.1 L235.5,98.9 L344.0,47.0 L452.5,327.7"/><path stroke="#A6CEE3" d="M127.0,193.5 L235.5,208.9 L344.0,363.6 L452.5,332.3"/><path stroke="#FF7F00" d="M127.0,145.0 L235.5,152.1 L344.0,45.7 L452.5,187.0"/><path stroke="#FF7F00" d="M127.0,144.5 L235.5,149.5 L344.0,41.6 L452.5,106.4"/><path stroke="#FF7F00" d="M127.0,126.0 L235.5,134.2 L344.0,45.8 L452.5,267.6"/><path stroke="#FF7F00" d="M127.0,151.9 L235.5,157.2 L344.0,45.6 L452.5,226.6"/><path stroke="#FF7F00" d="M127.0,151.2 L235.5,150.7 L344.0,43.6 L452.5,326.4"/><path stroke="#A6CEE3" d="M127.0,300.4 L235.5,312.4 L344.0,363.2 L452.5,78.4"/><path stroke="#A6CEE3" d="M127.0,253.0 L235.5,253.0 L344.0,358.4 L452.5,288.3"/><path stroke="#A6CEE3" d="M127.0,207.7 L235.5,209.1 L344.0,359.6 L452.5,54.7"/><path stroke="#A6CEE3" d="M127.0,293.7 L235.5,300.8 L344.0,363.4 L452.5,229.4"/><path stroke="#A6CEE3" d="M127.0,199.8 L235.5,207.8 L344.0,363.8 L452.5,185.2"/><path stroke="#FF7F00" d="M127.0,114.6 L235.5,109.3 L344.0,41.6 L452.5,225.7"/><path stroke="#FF7F00" d="M127.0,131.7 L235.5,136.6 L344.0,42.7 L452.5,361.2"/><path stroke="#A6CEE3" d="M127.0,198.1 L235.5,200.2 L344.0,363.0 L452.5,78.2"/><path stroke="#A6CEE3" d="M127.0,208.8 L235.5,214.1 L344.0,363.7 L452.5,296.5"/><path stroke="#A6CEE3" d="M127.0,186.0 L235.5,193.7 L344.0,361.7 L452.5,74.1"/><path stroke="#A6CEE3" d="M127.0,269.0 L235.5,282.9 L344.0,358.3 L452.5,317.9"/><path stroke="#FF7F00" d="M127.0,142.0 L235.5,138.6 L344.0,42.1 L452.5,82.8"/><path stroke="#A6CEE3" d="M127.0,257.6 L235.5,252.6 L344.0,360.9 L452.5,53.3"/><path stroke="#A6CEE3" d="M127.0,252.0 L235.5,270.3 L344.0,361.0 L452.5,46.4"/><path stroke="#FF7F00" d="M127.0,114.4 L235.5,117.4 L344.0,42.7 L452.5,43.5"/><path stroke="#FF7F00" d="M127.0,85.8 L235.5,89.1 L344.0,47.4 L452.5,93.0"/><path stroke="#FF7F00" d="M127.0,148.9 L235.5,144.6 L344.0,43.9 L452.5,352.3"/><path stroke="#A6CEE3" d="M127.0,166.3 L235.5,170.8 L344.0,363.9 L452.5,222.3"/><path stroke="#FF7F00" d="M127.0,151.7 L235.5,146.2 L344.0,45.4 L452.5,246.2"/><path stroke="#FF7F00" d="M127.0,108.7 L235.5,111.5 L344.0,42.4 L452.5,43.2"/><path stroke="#A6CEE3" d="M127.0,291.0 L235.5,299.1 L344.0,363.5 L452.5,192.6"/><path stroke="#FF7F00" d="M127.0,148.4 L235.5,149.2 L344.0,45.2 L452.5,314.1"/><path stroke="#A6CEE3" d="M127.0,179.6 L235.5,190.1 L344.0,363.9 L452.5,113.5"/><path stroke="#A6CEE3" d="M127.0,259.8 L235.5,258.1 L344.0,359.0 L452.5,360.7"/><path stroke="#A6CEE3" d="M127.0,271.8 L235.5,275.1 L344.0,362.8 L452.5,146.8"/><path stroke="#A6CEE3" d="M127.0,248.4 L235.5,246.1 L344.0,361.6 L452.5,222.4"/><path stroke="#FF7F00" d="M127.0,115.9 L235.5,105.6 L344.0,45.1 L452.5,275.9"/><path stroke="#FF7F00" d="M127.0,93.4 L235.5,93.6 L344.0,42.5 L452.5,48.3"/><path stroke="#FF7F00" d="M127.0,136.3 L235.5,153.6 L344.0,44.3 L452.5,338.7"/><path stroke="#FF7F00" d="M127.0,126.7 L235.5,130.0 L344.0,46.4 L452.5,219.1"/><path stroke="#FF7F00" d="M127.0,86.7 L235.5,88.9 L344.0,43.1 L452.5,42.9"/><path stroke="#A6CEE3" d="M127.0,180.0 L235.5,178.4 L344.0,363.6 L452.5,290.8"/><path stroke="#FF7F00" d="M127.0,138.0 L235.5,132.6 L344.0,42.7 L452.5,43.3"/><path stroke="#FF7F00" d="M127.0,119.4 L235.5,125.5 L344.0,43.6 L452.5,51.5"/><path stroke="#A6CEE3" d="M127.0,195.0 L235.5,202.6 L344.0,363.1 L452.5,114.7"/><path stroke="#A6CEE3" d="M127.0,221.5 L235.5,222.0 L344.0,360.7 L452.5,55.4"/><path stroke="#FF7F00" d="M127.0,118.9 L235.5,119.3 L344.0,41.6 L452.5,320.3"/><path stroke="#FF7F00" d="M127.0,156.3 L235.5,163.7 L344.0,42.6 L452.5,113.3"/><path stroke="#FF7F00" d="M127.0,149.1 L235.5,152.6 L344.0,43.3 L452.5,236.2"/><path stroke="#FF7F00" d="M127.0,56.2 L235.5,53.2 L344.0,44.6 L452.5,326.9"/><path stroke="#FF7F00" d="M127.0,133.4 L235.5,133.0 L344.0,45.1 L452.5,65.0"/><path stroke="#FF7F00" d="M127.0,149.6 L235.5,155.6 L344.0,43.2 L452.5,121.9"/><path stroke="#A6CEE3" d="M127.0,199.5 L235.5,199.0 L344.0,361.6 L452.5,219.1"/><path stroke="#FF7F00" d="M127.0,128.5 L235.5,121.1 L344.0,42.7 L452.5,222.2"/><path stroke="#FF7F00" d="M127.0,119.4 L235.5,124.1 L344.0,41.9 L452.5,299.0"/><path stroke="#A6CEE3" d="M127.0,172.7 L235.5,181.5 L344.0,364.1 L452.5,341.2"/><path stroke="#FF7F00" d="M127.0,97.5 L235.5,86.0 L344.0,46.2 L452.5,264.1"/><path stroke="#FF7F00" d="M127.0,105.6 L235.5,103.4 L344.0,45.0 L452.5,359.6"/><path stroke="#FF7F00" d="M127.0,112.5 L235.5,128.2 L344.0,41.3 L452.5,104.5"/><path stroke="#FF7F00" d="M127.0,139.1 L235.5,143.5 L344.0,41.8 L452.5,159.0"/><path stroke="#A6CEE3" d="M127.0,172.5 L235.5,189.4 L344.0,363.7 L452.5,363.7"/><path stroke="#A6CEE3" d="M127.0,221.0 L235.5,225.7 L344.0,361.7 L452.5,324.9"/><path stroke="#FF7F00" d="M127.0,128.4 L235.5,126.9 L344.0,44.3 L452.5,203.7"/><path stroke="#A6CEE3" d="M127.0,159.5 L235.5,156.2 L344.0,354.2 L452.5,306.2"/><path stroke="#FF7F00" d="M127.0,118.5 L235.5,117.2 L344.0,45.3 L452.5,41.7"/><path stroke="#FF7F00" d="M127.0,157.7 L235.5,147.7 L344.0,43.2 L452.5,48.5"/><path stroke="#FF7F00" d="M127.0,141.9 L235.5,137.1 L344.0,45.8 L452.5,353.6"/><path stroke="#FF7F00" d="M127.0,153.9 L235.5,162.1 L344.0,43.8 L452.5,259.3"/><path stroke="#A6CEE3" d="M127.0,180.9 L235.5,190.4 L344.0,363.9 L452.5,262.6"/><path stroke="#A6CEE3" d="M127.0,183.9 L235.5,179.2 L344.0,362.9 L452.5,138.0"/><path stroke="#A6CEE3" d="M127.0,363.4 L235.5,358.9 L344.0,362.4 L452.5,43.7"/><path stroke="#A6CEE3" d="M127.0,252.5 L235.5,253.5 L344.0,359.1 L452.5,247.0"/><path stroke="#FF7F00" d="M127.0,106.9 L235.5,108.4 L344.0,44.7 L452.5,44.3"/><path stroke="#A6CEE3" d="M127.0,170.5 L235.5,170.7 L344.0,362.4 L452.5,350.9"/><path stroke="#FF7F00" d="M127.0,64.3 L235.5,59.5 L344.0,46.5 L452.5,324.6"/><path stroke="#A6CEE3" d="M127.0,197.3 L235.5,199.1 L344.0,363.2 L452.5,320.2"/><path stroke="#FF7F00" d="M127.0,77.8 L235.5,90.5 L344.0,42.6 L452.5,199.4"/><path stroke="#A6CEE3" d="M127.0,242.8 L235.5,242.3 L344.0,363.4 L452.5,164.0"/><path stroke="#FF7F00" d="M127.0,149.5 L235.5,155.0 L344.0,42.5 L452.5,145.5"/><path stroke="#A6CEE3" d="M127.0,230.3 L235.5,239.9 L344.0,359.0 L452.5,314.6"/><path stroke="#A6CEE3" d="M127.0,216.6 L235.5,231.8 L344.0,362.5 L452.5,49.1"/><path stroke="#FF7F00" d="M127.0,83.4 L235.5,81.8 L344.0,42.2 L452.5,254.0"/><path stroke="#A6CEE3" d="M127.0,179.8 L235.5,181.1 L344.0,362.8 L452.5,247.0"/></g></g><g id="gnuplot_plot_2a"><title>&apos;-&apos;</title><g fill="none" stroke="currentColor" stroke-linecap="butt" stroke-linejoin="miter" stroke-width="1" color="#000"><path stroke="#000" d="M127.0,373.8 L127.0,31.6 M127.0,354.1 L123.8,354.1 M127.0,324.5 L123.8,324.5 M127.0,294.9 L123.8,294.9 M127.0,265.3 L123.8,265.3 M127.0,235.8 L123.8,235.8 M127.0,206.2 L123.8,206.2 M127.0,176.6 L123.8,176.6 M127.0,147.0 L123.8,147.0 M127.0,117.5 L123.8,117.5 M127.0,87.9 L123.8,87.9 M127.0,58.3 L123.8,58.3 M127.0,132.5 L123.8,132.5 M235.5,373.8 L235.5,31.6 M235.5,360.9 L232.3,360.9 M235.5,330.7 L232.3,330.7 M235.5,300.6 L232.3,300.6 M235.5,270.4 L232.3,270.4 M235.5,240.3 L232.3,240.3 M235.5,210.1 L232.3,210.1 M235.5,179.9 L232.3,179.9 M235.5,149.8 L232.3,149.8 M235.5,119.6 L232.3,119.6 M235.5,89.4 L232.3,89.4 M235.5,59.3 L232.3,59.3 M235.5,149.8 L232.3,149.8 M344.0,373.8 L344.0,31.6 M344.0,364.1 L340.7,364.1 M344.0,41.3 L340.7,41.3 M344.0,194.6 L340.7,194.6 M452.5,373.8 L452.5,31.6 M452.5,364.1 L455.7,364.1 M452.5,41.3 L455.7,41.3 M452.5,202.6 L455.7,202.6"/></g></g><g id="gnuplot_plot_3a"><title>&apos;-&apos;</title><g fill="none" stroke="currentColor" stroke-linecap="butt" stroke-linejoin="miter" stroke-width="1" color="#000"><g fill="#000" stroke="none" font-family="Helvetica" font-size="10" text-anchor="end"><text transform="translate(122.7,357.4)"><tspan font-family="Helvetica">-600</tspan></text></g><g fill="#000" stroke="none" font-family="Helvetica" font-size="10" text-anchor="end"><text transform="translate(122.7,327.8)"><tspan font-family="Helvetica">-500</tspan></text></g><g fill="#000" stroke="none" font-family="Helvetica" font-size="10" text-anchor="end"><text transform="translate(122.7,298.2)"><tspan font-family="Helvetica">-400</tspan></text></g><g fill="#000" stroke="none" font-family="Helvetica" font-size="10" text-anchor="end"><text transform="translate(122.7,268.6)"><tspan font-family="Helvetica">-300</tspan></text></g><g fill="#000" stroke="none" font-family="Helvetica" font-size="10" text-anchor="end"><text transform="translate(122.7,239.1)"><tspan font-family="Helvetica">-200</tspan></text></g><g fill="#000" stroke="none" font-family="Helvetica" font-size="10" text-anchor="end"><text transform="translate(122.7,209.5)"><tspan font-family="Helvetica">-100</tspan></text></g><g fill="#000" stroke="none" font-family="Helvetica" font-size="10" text-anchor="end"><text transform="translate(122.7,179.9)"><tspan font-family="Helvetica">0</tspan></text></g><g fill="#000" stroke="none" font-family="Helvetica" font-size="10" text-anchor="end"><text transform="translate(122.7,150.3)"><tspan font-family="Helvetica">100</tspan></text></g><g fill="#000" stroke="none" font-family="Helvetica" font-size="10" text-anchor="end"><text transform="translate(122.7,120.8)"><tspan font-family="Helvetica">200</tspan></text></g><g fill="#000" stroke="none" font-family="Helvetica" font-size="10" text-anchor="end"><text transform="translate(122.7,91.2)"><tspan font-family="Helvetica">300</tspan></text></g><g fill="#000" stroke="none" font-family="Helvetica" font-size="10" text-anchor="end"><text transform="translate(122.7,61.6)"><tspan font-family="Helvetica">400</tspan></text></g><g fill="#000" stroke="none" font-family="Helvetica" font-size="10" text-anchor="end"><text transform="translate(231.2,364.2)"><tspan font-family="Helvetica">-600</tspan></text></g><g fill="#000" stroke="none" font-family="Helvetica" font-size="10" text-anchor="end"><text transform="translate(231.2,334.0)"><tspan font-family="Helvetica">-500</tspan></text></g><g fill="#000" stroke="none" font-family="Helvetica" font-size="10" text-anchor="end"><text transform="translate(231.2,303.9)"><tspan font-family="Helvetica">-400</tspan></text></g><g fill="#000" stroke="none" font-family="Helvetica" font-size="10" text-anchor="end"><text transform="translate(231.2,273.7)"><tspan font-family="Helvetica">-300</tspan></text></g><g fill="#000" stroke="none" font-family="Helvetica" font-size="10" text-anchor="end"><text transform="translate(231.2,243.6)"><tspan font-family="Helvetica">-200</tspan></text></g><g fill="#000" stroke="none" font-family="Helvetica" font-size="10" text-anchor="end"><text transform="translate(231.2,213.4)"><tspan font-family="Helvetica">-100</tspan></text></g><g fill="#000" stroke="none" font-family="Helvetica" font-size="10" text-anchor="end"><text transform="translate(231.2,183.2)"><tspan font-family="Helvetica">0</tspan></text></g><g fill="#000" stroke="none" font-family="Helvetica" font-size="10" text-anchor="end"><text transform="translate(231.2,153.1)"><tspan font-family="Helvetica">100</tspan></text></g><g fill="#000" stroke="none" font-family="Helvetica" font-size="10" text-anchor="end"><text transform="translate(231.2,122.9)"><tspan font-family="Helvetica">200</tspan></text></g><g fill="#000" stroke="none" font-family="Helvetica" font-size="10" text-anchor="end"><text transform="translate(231.2,92.7)"><tspan font-family="Helvetica">300</tspan></text></g><g fill="#000" stroke="none" font-family="Helvetica" font-size="10" text-anchor="end"><text transform="translate(231.2,62.6)"><tspan font-family="Helvetica">400</tspan></text></g><g fill="#000" stroke="none" font-family="Helvetica" font-size="10" text-anchor="end"><text transform="translate(339.6,367.4)"><tspan font-family="Helvetica">-1</tspan></text></g><g fill="#000" stroke="none" font-family="Helvetica" font-size="10" text-anchor="end"><text transform="translate(339.6,44.6)"><tspan font-family="Helvetica">1</tspan></text></g></g></g><g id="gnuplot_plot_4a"><title>&apos;-&apos;</title><g fill="none" stroke="currentColor" stroke-linecap="butt" stroke-linejoin="miter" stroke-width="1" color="#000"><g fill="#000" stroke="none" font-family="Helvetica" font-size="10" text-anchor="start"><text transform="translate(456.8,367.4)"><tspan font-family="Helvetica">-1</tspan></text></g><g fill="#000" stroke="none" font-family="Helvetica" font-size="10" text-anchor="start"><text transform="translate(456.8,44.6)"><tspan font-family="Helvetica">1</tspan></text></g></g></g></g></svg>