<svg xmlns="http://www.w3.org/2000/svg" xmlns:xlink="http://www.w3.org/1999/xlink" width="560" height="420" viewBox="0 0 560 420"><title>Gnuplot</title><desc>Produced by GNUPLOT 5.4 patchlevel 0</desc><g id="gnuplot_canvas"><rect width="560" height="420" x="0" y="0" fill="none"/><defs><circle id="gpDot" r=".5" stroke="currentColor" stroke-width=".5"/><path id="gpPt0" stroke="currentColor" stroke-width=".267" d="M-1,0 h2 M0,-1 v2"/><path id="gpPt1" stroke="currentColor" stroke-width=".267" d="M-1,-1 L1,1 M1,-1 L-1,1"/><path id="gpPt2" stroke="currentColor" stroke-width=".267" d="M-1,0 L1,0 M0,-1 L0,1 M-1,-1 L1,1 M-1,1 L1,-1"/><rect id="gpPt3" width="2" height="2" x="-1" y="-1" stroke="currentColor" stroke-width=".267"/><rect id="gpPt4" width="2" height="2" x="-1" y="-1" fill="currentColor" stroke="currentColor" stroke-width=".267"/><circle id="gpPt5" cx="0" cy="0" r="1" stroke="currentColor" stroke-width=".267"/><use id="gpPt6" fill="currentColor" stroke="none" xlink:href="#gpPt5"/><path id="gpPt7" stroke="currentColor" stroke-width=".267" d="M0,-1.33 L-1.33,0.67 L1.33,0.67 z"/><use id="gpPt8" fill="currentColor" stroke="none" xlink:href="#gpPt7"/><use id="gpPt9" stroke="currentColor" transform="rotate(180)" xlink:href="#gpPt7"/><use id="gpPt10" fill="currentColor" stroke="none" xlink:href="#gpPt9"/><use id="gpPt11" stroke="currentColor" transform="rotate(45)" xlink:href="#gpPt3"/><use id="gpPt12" fill="currentColor" stroke="none" xlink:href="#gpPt11"/><path id="gpPt13" stroke="currentColor" stroke-width=".267" d="M0,1.330 L1.265,0.411 L0.782,-1.067 L-0.782,-1.076 L-1.265,0.411 z"/><use id="gpPt14" fill="currentColor" stroke="none" xlink:href="#gpPt13"/><filter id="textbox" width="1" height="1" x="0" y="0" filterUnits="objectBoundingBox"><feFlood flood-color="#fff" flood-opacity="1" result="bgnd"/><feComposite in="SourceGraphic" in2="bgnd" operator="atop"/></filter><filter id="greybox" width="1" height="1" x="0" y="0" filterUnits="objectBoundingBox"><feFlood flood-color="#d3d3d3" flood-opacity="1" result="grey"/><feComposite in="SourceGraphic" in2="grey" operator="atop"/></filter></defs><g fill="none" stroke="currentColor" stroke-linecap="butt" stroke-linejoin="miter" stroke-width="1" color="#000"><g stroke="none" shape-rendering="crispEdges"><polygon fill="#FFF" points="145.1 373.8 434.4 373.8 434.4 31.7 145.1 31.7"/></g></g><g fill="none" stroke="currentColor" stroke-linecap="butt" stroke-linejoin="miter" stroke-width=".5" color="#000"><path stroke="#000" d="M145.1,373.8 L145.1,368.2"/><g fill="#262626" stroke="none" font-family="Helvetica" font-size="10" text-anchor="middle"><text transform="translate(145.1,392.1)"><tspan font-family="Helvetica">f</tspan><tspan dy="3" font-family="Helvetica" font-size="8">1</tspan></text></g></g><g fill="none" stroke="currentColor" stroke-linecap="butt" stroke-linejoin="miter" stroke-width=".5" color="#000"><path stroke="#000" d="M289.8,373.8 L289.8,368.2"/><g fill="#262626" stroke="none" font-family="Helvetica" font-size="10" text-anchor="middle"><text transform="translate(289.8,392.1)"><tspan font-family="Helvetica">f</tspan><tspan dy="3" font-family="Helvetica" font-size="8">2</tspan></text></g></g><g fill="none" stroke="currentColor" stroke-linecap="butt" stroke-linejoin="miter" stroke-width=".5" color="#000"><path stroke="#000" d="M434.4,373.8 L434.4,368.2"/><g fill="#262626" stroke="none" font-family="Helvetica" font-size="10" text-anchor="middle"><text transform="translate(434.4,392.1)"><tspan font-family="Helvetica">f</tspan><tspan dy="3" font-family="Helvetica" font-size="8">3</tspan></text></g></g><g id="gnuplot_plot_1a"><title>&apos;-&apos;</title><g fill="none" stroke="currentColor" stroke-linecap="butt" stroke-linejoin="miter" stroke-width=".5" color="#000"><path stroke="#0071BC" d="M145.1,215.7 L289.8,41.6 L434.4,140.4 M145.1,180.7 L289.8,46.5 L434.4,110.7 M145.1,203.3 L289.8,42.6 L434.4,44.9 M145.1,48.8 L289.8,42.8 L434.4,209.9 M145.1,225.4 L289.8,45.6 L434.4,165.4 M145.1,110.0 L289.8,43.3 L434.4,199.0 M145.1,58.6 L289.8,41.7 L434.4,113.7 M145.1,42.4 L289.8,42.5 L434.4,98.4 M145.1,157.3 L289.8,41.5 L434.4,127.7 M145.1,77.7 L289.8,41.7 L434.4,42.7 M145.1,176.2 L289.8,44.2 L434.4,131.8 M145.1,82.2 L289.8,45.8 L434.4,100.0 M145.1,161.0 L289.8,44.7 L434.4,59.6 M145.1,175.7 L289.8,42.5 L434.4,143.8 M145.1,145.7 L289.8,42.9 L434.4,103.0 M145.1,167.2 L289.8,42.4 L434.4,73.7 M145.1,79.5 L289.8,42.1 L434.4,123.5 M145.1,138.5 L289.8,47.4 L434.4,157.1 M145.1,132.9 L289.8,48.7 L434.4,88.7 M145.1,74.7 L289.8,43.1 L434.4,192.0 M145.1,45.1 L289.8,41.9 L434.4,64.3 M145.1,102.0 L289.8,45.0 L434.4,153.4 M145.1,149.1 L289.8,45.3 L434.4,88.1 M145.1,108.7 L289.8,49.0 L434.4,195.7 M145.1,57.9 L289.8,44.2 L434.4,149.5 M145.1,154.5 L289.8,42.4 L434.4,113.0 M145.1,200.7 L289.8,48.7 L434.4,48.2 M145.1,46.6 L289.8,43.0 L434.4,130.3 M145.1,220.6 L289.8,41.6 L434.4,115.3 M145.1,137.5 L289.8,42.6 L434.4,82.6 M145.1,102.6 L289.8,41.3 L434.4,124.1 M145.1,100.1 L289.8,41.6 L434.4,196.1 M145.1,96.3 L289.8,44.1 L434.4,110.5 M145.1,120.7 L289.8,45.6 L434.4,67.5 M145.1,77.3 L289.8,49.1 L434.4,66.6 M145.1,122.8 L289.8,46.5 L434.4,82.2 M145.1,203.8 L289.8,45.7 L434.4,165.8 M145.1,204.7 L289.8,41.9 L434.4,141.6 M145.1,206.8 L289.8,42.5 L434.4,103.1 M145.1,114.0 L289.8,42.2 L434.4,178.8 M145.1,106.8 L289.8,43.4 L434.4,132.5 M145.1,97.3 L289.8,42.4 L434.4,190.1 M145.1,179.6 L289.8,48.8 L434.4,111.6 M145.1,60.3 L289.8,44.0 L434.4,100.5 M145.1,129.7 L289.8,43.6 L434.4,101.7 M145.1,186.3 L289.8,43.4 L434.4,62.8 M145.1,191.2 L289.8,42.0 L434.4,177.9 M145.1,159.4 L289.8,43.6 L434.4,86.9 M145.1,121.1 L289.8,42.3 L434.4,111.2 M145.1,119.5 L289.8,47.3 L434.4,137.1 M145.1,216.2 L289.8,361.0 L434.4,227.5 M145.1,266.4 L289.8,359.7 L434.4,182.8 M145.1,299.0 L289.8,363.8 L434.4,335.9 M145.1,362.8 L289.8,361.6 L434.4,354.9 M145.1,176.9 L289.8,360.5 L434.4,150.4 M145.1,149.2 L289.8,356.7 L434.4,300.7 M145.1,302.7 L289.8,361.8 L434.4,251.3 M145.1,211.4 L289.8,358.7 L434.4,221.4 M145.1,363.4 L289.8,362.9 L434.4,245.0 M145.1,153.3 L289.8,363.5 L434.4,306.0 M145.1,162.4 L289.8,360.1 L434.4,224.5 M145.1,189.6 L289.8,356.5 L434.4,177.1 M145.1,129.3 L289.8,360.5 L434.4,217.4 M145.1,292.4 L289.8,361.9 L434.4,330.8 M145.1,136.7 L289.8,361.7 L434.4,247.3 M145.1,267.3 L289.8,361.5 L434.4,264.0 M145.1,285.7 L289.8,362.1 L434.4,176.1 M145.1,327.6 L289.8,361.7 L434.4,169.7 M145.1,323.9 L289.8,362.3 L434.4,161.2 M145.1,232.0 L289.8,359.4 L434.4,213.1 M145.1,173.1 L289.8,360.5 L434.4,225.9 M145.1,319.4 L289.8,362.9 L434.4,233.4 M145.1,319.8 L289.8,360.0 L434.4,148.0 M145.1,314.2 L289.8,363.0 L434.4,361.3 M145.1,278.1 L289.8,362.2 L434.4,239.4 M145.1,145.7 L289.8,360.8 L434.4,358.8 M145.1,352.9 L289.8,363.6 L434.4,237.8 M145.1,305.7 L289.8,358.1 L434.4,190.7 M145.1,135.9 L289.8,358.5 L434.4,192.1 M145.1,229.4 L289.8,362.7 L434.4,283.9 M145.1,316.6 L289.8,363.3 L434.4,169.2 M145.1,238.5 L289.8,363.9 L434.4,286.5 M145.1,159.7 L289.8,363.5 L434.4,187.5 M145.1,175.9 L289.8,364.1 L434.4,310.1 M145.1,131.6 L289.8,361.2 L434.4,179.7 M145.1,244.0 L289.8,363.5 L434.4,135.7 M145.1,189.6 L289.8,362.6 L434.4,260.7 M145.1,284.0 L289.8,363.1 L434.4,172.3 M145.1,266.5 L289.8,362.3 L434.4,312.9 M145.1,358.3 L289.8,360.1 L434.4,238.4 M145.1,363.4 L289.8,362.2 L434.4,133.9 M145.1,294.1 L289.8,363.4 L434.4,279.2 M145.1,235.7 L289.8,362.1 L434.4,192.3 M145.1,314.8 L289.8,360.8 L434.4,310.9 M145.1,299.5 L289.8,361.4 L434.4,183.9 M145.1,210.4 L289.8,361.3 L434.4,164.4 M145.1,165.8 L289.8,362.0 L434.4,191.4 M145.1,193.0 L289.8,359.6 L434.4,201.0 M145.1,136.4 L289.8,357.4 L434.4,251.4 M145.1,121.4 L289.8,358.3 L434.4,305.0"/></g></g><g id="gnuplot_plot_2a"><title>&apos;-&apos;</title><g fill="none" stroke="currentColor" stroke-linecap="butt" stroke-linejoin="miter" stroke-width="1" color="#000"><path stroke="#000" d="M145.1,373.8 L145.1,31.6 M145.1,316.6 L140.8,316.6 M145.1,269.1 L140.8,269.1 M145.1,221.5 L140.8,221.5 M145.1,174.0 L140.8,174.0 M145.1,126.4 L140.8,126.4 M145.1,78.8 L140.8,78.8 M289.8,373.8 L289.8,31.6 M289.8,364.1 L285.4,364.1 M289.8,41.3 L285.4,41.3 M289.8,364.1 L285.4,364.1 M434.4,373.8 L434.4,31.6 M434.4,320.7 L438.7,320.7 M434.4,274.1 L438.7,274.1 M434.4,227.5 L438.7,227.5 M434.4,180.9 L438.7,180.9 M434.4,134.4 L438.7,134.4 M434.4,87.8 L438.7,87.8"/></g></g><g id="gnuplot_plot_3a"><title>&apos;-&apos;</title><g fill="none" stroke="currentColor" stroke-linecap="butt" stroke-linejoin="miter" stroke-width="1" color="#000"><g fill="#000" stroke="none" font-family="Helvetica" font-size="10" text-anchor="end"><text transform="translate(139.3,319.9)"><tspan font-family="Helvetica">70</tspan></text></g><g fill="#000" stroke="none" font-family="Helvetica" font-size="10" text-anchor="end"><text transform="translate(139.3,272.4)"><tspan font-family="Helvetica">75</tspan></text></g><g fill="#000" stroke="none" font-family="Helvetica" font-size="10" text-anchor="end"><text transform="translate(139.3,224.8)"><tspan font-family="Helvetica">80</tspan></text></g><g fill="#000" stroke="none" font-family="Helvetica" font-size="10" text-anchor="end"><text transform="translate(139.3,177.3)"><tspan font-family="Helvetica">85</tspan></text></g><g fill="#000" stroke="none" font-family="Helvetica" font-size="10" text-anchor="end"><text transform="translate(139.3,129.7)"><tspan font-family="Helvetica">90</tspan></text></g><g fill="#000" stroke="none" font-family="Helvetica" font-size="10" text-anchor="end"><text transform="translate(139.3,82.1)"><tspan font-family="Helvetica">95</tspan></text></g><g fill="#000" stroke="none" font-family="Helvetica" font-size="10" text-anchor="end"><text transform="translate(284.0,367.4)"><tspan font-family="Helvetica">false</tspan></text></g><g fill="#000" stroke="none" font-family="Helvetica" font-size="10" text-anchor="end"><text transform="translate(284.0,44.6)"><tspan font-family="Helvetica">true</tspan></text></g></g></g><g id="gnuplot_plot_4a"><title>&apos;-&apos;</title><g fill="none" stroke="currentColor" stroke-linecap="butt" stroke-linejoin="miter" stroke-width="1" color="#000"><g fill="#000" stroke="none" font-family="Helvetica" font-size="10" text-anchor="start"><text transform="translate(440.2,324.0)"><tspan font-family="Helvetica">110</tspan></text></g><g fill="#000" stroke="none" font-family="Helvetica" font-size="10" text-anchor="start"><text transform="translate(440.2,277.4)"><tspan font-family="Helvetica">115</tspan></text></g><g fill="#000" stroke="none" font-family="Helvetica" font-size="10" text-anchor="start"><text transform="translate(440.2,230.8)"><tspan font-family="Helvetica">120</tspan></text></g><g fill="#000" stroke="none" font-family="Helvetica" font-size="10" text-anchor="start"><text transform="translate(440.2,184.2)"><tspan font-family="Helvetica">125</tspan></text></g><g fill="#000" stroke="none" font-family="Helvetica" font-size="10" text-anchor="start"><text transform="translate(440.2,137.7)"><tspan font-family="Helvetica">130</tspan></text></g><g fill="#000" stroke="none" font-family="Helvetica" font-size="10" text-anchor="start"><text transform="translate(440.2,91.1)"><tspan font-family="Helvetica">135</tspan></text></g></g></g></g></svg>