<svg xmlns="http://www.w3.org/2000/svg" xmlns:xlink="http://www.w3.org/1999/xlink" width="560" height="420" viewBox="0 0 560 420"><title>Gnuplot</title><desc>Produced by GNUPLOT 5.4 patchlevel 0</desc><g id="gnuplot_canvas"><rect width="560" height="420" x="0" y="0" fill="none"/><defs><circle id="gpDot" r=".5" stroke="currentColor" stroke-width=".5"/><path id="gpPt0" stroke="currentColor" stroke-width=".267" d="M-1,0 h2 M0,-1 v2"/><path id="gpPt1" stroke="currentColor" stroke-width=".267" d="M-1,-1 L1,1 M1,-1 L-1,1"/><path id="gpPt2" stroke="currentColor" stroke-width=".267" d="M-1,0 L1,0 M0,-1 L0,1 M-1,-1 L1,1 M-1,1 L1,-1"/><rect id="gpPt3" width="2" height="2" x="-1" y="-1" stroke="currentColor" stroke-width=".267"/><rect id="gpPt4" width="2" height="2" x="-1" y="-1" fill="currentColor" stroke="currentColor" stroke-width=".267"/><circle id="gpPt5" cx="0" cy="0" r="1" stroke="currentColor" stroke-width=".267"/><use id="gpPt6" fill="currentColor" stroke="none" xlink:href="#gpPt5"/><path id="gpPt7" stroke="currentColor" stroke-width=".267" d="M0,-1.33 L-1.33,0.67 L1.33,0.67 z"/><use id="gpPt8" fill="currentColor" stroke="none" xlink:href="#gpPt7"/><use id="gpPt9" stroke="currentColor" transform="rotate(180)" xlink:href="#gpPt7"/><use id="gpPt10" fill="currentColor" stroke="none" xlink:href="#gpPt9"/><use id="gpPt11" stroke="currentColor" transform="rotate(45)" xlink:href="#gpPt3"/><use id="gpPt12" fill="currentColor" stroke="none" xlink:href="#gpPt11"/><path id="gpPt13" stroke="currentColor" stroke-width=".267" d="M0,1.330 L1.265,0.411 L0.782,-1.067 L-0.782,-1.076 L-1.265,0.411 z"/><use id="gpPt14" fill="currentColor" stroke="none" xlink:href="#gpPt13"/><filter id="textbox" width="1" height="1" x="0" y="0" filterUnits="objectBoundingBox"><feFlood flood-color="#fff" flood-opacity="1" result="bgnd"/><feComposite in="SourceGraphic" in2="bgnd" operator="atop"/></filter><filter id="greybox" width="1" height="1" x="0" y="0" filterUnits="objectBoundingBox"><feFlood flood-color="#d3d3d3" flood-opacity="1" result="grey"/><feComposite in="SourceGraphic" in2="grey" operator="atop"/></filter></defs><g fill="none" stroke="currentColor" stroke-linecap="butt" stroke-linejoin="miter" stroke-width=".5" color="#000"><path stroke="#000" d="M72.8,373.8 L78.4,373.8"/><g fill="#262626" stroke="none" font-family="Helvetica" font-size="10" text-anchor="end"><text transform="translate(65.8,377.1)"><tspan font-family="Helvetica">-1</tspan></text></g></g><g fill="none" stroke="currentColor" stroke-linecap="butt" stroke-linejoin="miter" stroke-width=".5" color="#000"><path stroke="#000" d="M72.8,339.6 L78.4,339.6"/><g fill="#262626" stroke="none" font-family="Helvetica" font-size="10" text-anchor="end"><text transform="translate(65.8,342.9)"><tspan font-family="Helvetica">-0.8</tspan></text></g></g><g fill="none" stroke="currentColor" stroke-linecap="butt" stroke-linejoin="miter" stroke-width=".5" color="#000"><path stroke="#000" d="M72.8,305.4 L78.4,305.4"/><g fill="#262626" stroke="none" font-family="Helvetica" font-size="10" text-anchor="end"><text transform="translate(65.8,308.7)"><tspan font-family="Helvetica">-0.6</tspan></text></g></g><g fill="none" stroke="currentColor" stroke-linecap="butt" stroke-linejoin="miter" stroke-width=".5" color="#000"><path stroke="#000" d="M72.8,271.1 L78.4,271.1"/><g fill="#262626" stroke="none" font-family="Helvetica" font-size="10" text-anchor="end"><text transform="translate(65.8,274.4)"><tspan font-family="Helvetica">-0.4</tspan></text></g></g><g fill="none" stroke="currentColor" stroke-linecap="butt" stroke-linejoin="miter" stroke-width=".5" color="#000"><path stroke="#000" d="M72.8,236.9 L78.4,236.9"/><g fill="#262626" stroke="none" font-family="Helvetica" font-size="10" text-anchor="end"><text transform="translate(65.8,240.2)"><tspan font-family="Helvetica">-0.2</tspan></text></g></g><g fill="none" stroke="currentColor" stroke-linecap="butt" stroke-linejoin="miter" stroke-width=".5" color="#000"><path stroke="#000" d="M72.8,202.7 L78.4,202.7"/><g fill="#262626" stroke="none" font-family="Helvetica" font-size="10" text-anchor="end"><text transform="translate(65.8,206.0)"><tspan font-family="Helvetica">0</tspan></text></g></g><g fill="none" stroke="currentColor" stroke-linecap="butt" stroke-linejoin="miter" stroke-width=".5" color="#000"><path stroke="#000" d="M72.8,168.5 L78.4,168.5"/><g fill="#262626" stroke="none" font-family="Helvetica" font-size="10" text-anchor="end"><text transform="translate(65.8,171.8)"><tspan font-family="Helvetica">0.2</tspan></text></g></g><g fill="none" stroke="currentColor" stroke-linecap="butt" stroke-linejoin="miter" stroke-width=".5" color="#000"><path stroke="#000" d="M72.8,134.3 L78.4,134.3"/><g fill="#262626" stroke="none" font-family="Helvetica" font-size="10" text-anchor="end"><text transform="translate(65.8,137.6)"><tspan font-family="Helvetica">0.4</tspan></text></g></g><g fill="none" stroke="currentColor" stroke-linecap="butt" stroke-linejoin="miter" stroke-width=".5" color="#000"><path stroke="#000" d="M72.8,100.0 L78.4,100.0"/><g fill="#262626" stroke="none" font-family="Helvetica" font-size="10" text-anchor="end"><text transform="translate(65.8,103.3)"><tspan font-family="Helvetica">0.6</tspan></text></g></g><g fill="none" stroke="currentColor" stroke-linecap="butt" stroke-linejoin="miter" stroke-width=".5" color="#000"><path stroke="#000" d="M72.8,65.8 L78.4,65.8"/><g fill="#262626" stroke="none" font-family="Helvetica" font-size="10" text-anchor="end"><text transform="translate(65.8,69.1)"><tspan font-family="Helvetica">0.8</tspan></text></g></g><g fill="none" stroke="currentColor" stroke-linecap="butt" stroke-linejoin="miter" stroke-width=".5" color="#000"><path stroke="#000" d="M72.8,31.6 L78.4,31.6"/><g fill="#262626" stroke="none" font-family="Helvetica" font-size="10" text-anchor="end"><text transform="translate(65.8,34.9)"><tspan font-family="Helvetica">1</tspan></text></g></g><g fill="none" stroke="currentColor" stroke-linecap="butt" stroke-linejoin="miter" stroke-width=".5" color="#000"><path stroke="#000" d="M72.8,373.8 L72.8,368.2"/><g fill="#262626" stroke="none" font-family="Helvetica" font-size="10" text-anchor="middle"><text transform="translate(72.8,392.1)"><tspan font-family="Helvetica">0</tspan></text></g></g><g fill="none" stroke="currentColor" stroke-linecap="butt" stroke-linejoin="miter" stroke-width=".5" color="#000"><path stroke="#000" d="M127.0,373.8 L127.0,368.2"/><g fill="#262626" stroke="none" font-family="Helvetica" font-size="10" text-anchor="middle"><text transform="translate(127.0,392.1)"><tspan font-family="Helvetica">5</tspan></text></g></g><g fill="none" stroke="currentColor" stroke-linecap="butt" stroke-linejoin="miter" stroke-width=".5" color="#000"><path stroke="#000" d="M181.3,373.8 L181.3,368.2"/><g fill="#262626" stroke="none" font-family="Helvetica" font-size="10" text-anchor="middle"><text transform="translate(181.3,392.1)"><tspan font-family="Helvetica">10</tspan></text></g></g><g fill="none" stroke="currentColor" stroke-linecap="butt" stroke-linejoin="miter" stroke-width=".5" color="#000"><path stroke="#000" d="M235.5,373.8 L235.5,368.2"/><g fill="#262626" stroke="none" font-family="Helvetica" font-size="10" text-anchor="middle"><text transform="translate(235.5,392.1)"><tspan font-family="Helvetica">15</tspan></text></g></g><g fill="none" stroke="currentColor" stroke-linecap="butt" stroke-linejoin="miter" stroke-width=".5" color="#000"><path stroke="#000" d="M289.8,373.8 L289.8,368.2"/><g fill="#262626" stroke="none" font-family="Helvetica" font-size="10" text-anchor="middle"><text transform="translate(289.8,392.1)"><tspan font-family="Helvetica">20</tspan></text></g></g><g fill="none" stroke="currentColor" stroke-linecap="butt" stroke-linejoin="miter" stroke-width=".5" color="#000"><path stroke="#000" d="M344.0,373.8 L344.0,368.2"/><g fill="#262626" stroke="none" font-family="Helvetica" font-size="10" text-anchor="middle"><text transform="translate(344.0,392.1)"><tspan font-family="Helvetica">25</tspan></text></g></g><g fill="none" stroke="currentColor" stroke-linecap="butt" stroke-linejoin="miter" stroke-width=".5" color="#000"><path stroke="#000" d="M398.2,373.8 L398.2,368.2"/><g fill="#262626" stroke="none" font-family="Helvetica" font-size="10" text-anchor="middle"><text transform="translate(398.2,392.1)"><tspan font-family="Helvetica">30</tspan></text></g></g><g fill="none" stroke="currentColor" stroke-linecap="butt" stroke-linejoin="miter" stroke-width=".5" color="#000"><path stroke="#000" d="M452.5,373.8 L452.5,368.2"/><g fill="#262626" stroke="none" font-family="Helvetica" font-size="10" text-anchor="middle"><text transform="translate(452.5,392.1)"><tspan font-family="Helvetica">35</tspan></text></g></g><g fill="none" stroke="currentColor" stroke-linecap="butt" stroke-linejoin="miter" stroke-width=".5" color="#000"><path stroke="#000" d="M506.7,373.8 L506.7,368.2"/><g fill="#262626" stroke="none" font-family="Helvetica" font-size="10" text-anchor="middle"><text transform="translate(506.7,392.1)"><tspan font-family="Helvetica">40</tspan></text></g></g><g fill="none" stroke="currentColor" stroke-linecap="butt" stroke-linejoin="miter" stroke-width=".5" color="#000"><path stroke="#000" d="M72.8,31.6 L72.8,373.8 L506.7,373.8 L506.7,31.6 L72.8,31.6 Z"/></g><g id="gnuplot_plot_1a"><title>&apos;-&apos;</title><g fill="none" stroke="currentColor" stroke-linecap="butt" stroke-linejoin="miter" stroke-width=".5" color="#000"><path stroke="#0071BC" d="M83.6,202.7 L94.5,202.7 L94.5,148.5 L105.3,148.5 L105.3,99.9 L116.2,99.9 L116.2,61.9 L127.0,61.9 L127.0,38.4 L137.9,38.4 L137.9,31.7 L148.7,31.7 L148.7,42.7 L159.6,42.7 L159.6,70.2 L170.4,70.2 L170.4,111.3 L181.3,111.3 L181.3,161.8 L192.1,161.8 L192.1,216.5 L203.0,216.5 L203.0,269.8 L213.8,269.8 L213.8,316.2 L224.7,316.2 L224.7,350.9 L235.5,350.9 L235.5,370.3 L246.4,370.3 L246.4,372.6 L257.2,372.6 L257.2,357.3 L268.1,357.3 L268.1,326.1 L278.9,326.1 L278.9,282.2 L289.8,282.2 L289.8,230.1 L300.6,230.1 L300.6,175.3 L311.4,175.3 L311.4,123.2 L322.3,123.2 L322.3,79.3 L333.1,79.3 L333.1,48.1 L344.0,48.1 L344.0,32.8 L354.8,32.8 L354.8,35.1 L365.7,35.1 L365.7,54.5 L376.5,54.5 L376.5,89.2 L387.4,89.2 L387.4,135.6 L398.2,135.6 L398.2,188.9 L409.1,188.9 L409.1,243.6 L419.9,243.6 L419.9,294.1 L430.8,294.1 L430.8,335.2 L441.6,335.2 L441.6,362.7 L452.5,362.7 L452.5,373.7 L463.3,373.7 L463.3,367.0 L474.2,367.0 L474.2,343.5 L485.0,343.5 L485.0,305.5 L495.9,305.5 L495.9,256.9 L506.7,256.9 L506.7,202.7"/></g></g><g fill="none" stroke="currentColor" stroke-linecap="butt" stroke-linejoin="miter" stroke-width=".5" color="#000"><path stroke="#000" d="M72.8,31.6 L72.8,373.8 L506.7,373.8 L506.7,31.6 L72.8,31.6 Z"/></g></g></svg>