<svg xmlns="http://www.w3.org/2000/svg" xmlns:xlink="http://www.w3.org/1999/xlink" width="560" height="420" viewBox="0 0 560 420"><title>Gnuplot</title><desc>Produced by GNUPLOT 5.4 patchlevel 0</desc><g id="gnuplot_canvas"><rect width="560" height="420" x="0" y="0" fill="none"/><defs><circle id="gpDot" r=".5" stroke="currentColor" stroke-width=".5"/><path id="gpPt0" stroke="currentColor" stroke-width=".267" d="M-1,0 h2 M0,-1 v2"/><path id="gpPt1" stroke="currentColor" stroke-width=".267" d="M-1,-1 L1,1 M1,-1 L-1,1"/><path id="gpPt2" stroke="currentColor" stroke-width=".267" d="M-1,0 L1,0 M0,-1 L0,1 M-1,-1 L1,1 M-1,1 L1,-1"/><rect id="gpPt3" width="2" height="2" x="-1" y="-1" stroke="currentColor" stroke-width=".267"/><rect id="gpPt4" width="2" height="2" x="-1" y="-1" fill="currentColor" stroke="currentColor" stroke-width=".267"/><circle id="gpPt5" cx="0" cy="0" r="1" stroke="currentColor" stroke-width=".267"/><use id="gpPt6" fill="currentColor" stroke="none" xlink:href="#gpPt5"/><path id="gpPt7" stroke="currentColor" stroke-width=".267" d="M0,-1.33 L-1.33,0.67 L1.33,0.67 z"/><use id="gpPt8" fill="currentColor" stroke="none" xlink:href="#gpPt7"/><use id="gpPt9" stroke="currentColor" transform="rotate(180)" xlink:href="#gpPt7"/><use id="gpPt10" fill="currentColor" stroke="none" xlink:href="#gpPt9"/><use id="gpPt11" stroke="currentColor" transform="rotate(45)" xlink:href="#gpPt3"/><use id="gpPt12" fill="currentColor" stroke="none" xlink:href="#gpPt11"/><path id="gpPt13" stroke="currentColor" stroke-width=".267" d="M0,1.330 L1.265,0.411 L0.782,-1.067 L-0.782,-1.076 L-1.265,0.411 z"/><use id="gpPt14" fill="currentColor" stroke="none" xlink:href="#gpPt13"/><filter id="textbox" width="1" height="1" x="0" y="0" filterUnits="objectBoundingBox"><feFlood flood-color="#fff" flood-opacity="1" result="bgnd"/><feComposite in="SourceGraphic" in2="bgnd" operator="atop"/></filter><filter id="greybox" width="1" height="1" x="0" y="0" filterUnits="objectBoundingBox"><feFlood flood-color="#d3d3d3" flood-opacity="1" result="grey"/><feComposite in="SourceGraphic" in2="grey" operator="atop"/></filter></defs><g fill="none" stroke="currentColor" stroke-linecap="butt" stroke-linejoin="miter" stroke-width=".5" color="#000"><path stroke="#000" d="M72.8,373.8 L78.4,373.8"/><g fill="#262626" stroke="none" font-family="Helvetica" font-size="10" text-anchor="end"><text transform="translate(65.8,377.1)"><tspan font-family="Helvetica">-2</tspan></text></g></g><g fill="none" stroke="currentColor" stroke-linecap="butt" stroke-linejoin="miter" stroke-width=".5" color="#000"><path stroke="#000" d="M72.8,335.8 L78.4,335.8"/><g fill="#262626" stroke="none" font-family="Helvetica" font-size="10" text-anchor="end"><text transform="translate(65.8,339.1)"><tspan font-family="Helvetica">-1.5</tspan></text></g></g><g fill="none" stroke="currentColor" stroke-linecap="butt" stroke-linejoin="miter" stroke-width=".5" color="#000"><path stroke="#000" d="M72.8,297.8 L78.4,297.8"/><g fill="#262626" stroke="none" font-family="Helvetica" font-size="10" text-anchor="end"><text transform="translate(65.8,301.1)"><tspan font-family="Helvetica">-1</tspan></text></g></g><g fill="none" stroke="currentColor" stroke-linecap="butt" stroke-linejoin="miter" stroke-width=".5" color="#000"><path stroke="#000" d="M72.8,259.7 L78.4,259.7"/><g fill="#262626" stroke="none" font-family="Helvetica" font-size="10" text-anchor="end"><text transform="translate(65.8,263.0)"><tspan font-family="Helvetica">-0.5</tspan></text></g></g><g fill="none" stroke="currentColor" stroke-linecap="butt" stroke-linejoin="miter" stroke-width=".5" color="#000"><path stroke="#000" d="M72.8,221.7 L78.4,221.7"/><g fill="#262626" stroke="none" font-family="Helvetica" font-size="10" text-anchor="end"><text transform="translate(65.8,225.0)"><tspan font-family="Helvetica">0</tspan></text></g></g><g fill="none" stroke="currentColor" stroke-linecap="butt" stroke-linejoin="miter" stroke-width=".5" color="#000"><path stroke="#000" d="M72.8,183.7 L78.4,183.7"/><g fill="#262626" stroke="none" font-family="Helvetica" font-size="10" text-anchor="end"><text transform="translate(65.8,187.0)"><tspan font-family="Helvetica">0.5</tspan></text></g></g><g fill="none" stroke="currentColor" stroke-linecap="butt" stroke-linejoin="miter" stroke-width=".5" color="#000"><path stroke="#000" d="M72.8,145.7 L78.4,145.7"/><g fill="#262626" stroke="none" font-family="Helvetica" font-size="10" text-anchor="end"><text transform="translate(65.8,149.0)"><tspan font-family="Helvetica">1</tspan></text></g></g><g fill="none" stroke="currentColor" stroke-linecap="butt" stroke-linejoin="miter" stroke-width=".5" color="#000"><path stroke="#000" d="M72.8,107.6 L78.4,107.6"/><g fill="#262626" stroke="none" font-family="Helvetica" font-size="10" text-anchor="end"><text transform="translate(65.8,110.9)"><tspan font-family="Helvetica">1.5</tspan></text></g></g><g fill="none" stroke="currentColor" stroke-linecap="butt" stroke-linejoin="miter" stroke-width=".5" color="#000"><path stroke="#000" d="M72.8,69.6 L78.4,69.6"/><g fill="#262626" stroke="none" font-family="Helvetica" font-size="10" text-anchor="end"><text transform="translate(65.8,72.9)"><tspan font-family="Helvetica">2</tspan></text></g></g><g fill="none" stroke="currentColor" stroke-linecap="butt" stroke-linejoin="miter" stroke-width=".5" color="#000"><path stroke="#000" d="M72.8,31.6 L78.4,31.6"/><g fill="#262626" stroke="none" font-family="Helvetica" font-size="10" text-anchor="end"><text transform="translate(65.8,34.9)"><tspan font-family="Helvetica">2.5</tspan></text></g></g><g fill="none" stroke="currentColor" stroke-linecap="butt" stroke-linejoin="miter" stroke-width=".5" color="#000"><path stroke="#000" d="M72.8,373.8 L72.8,368.2"/><g fill="#262626" stroke="none" font-family="Helvetica" font-size="10" text-anchor="middle"><text transform="translate(72.8,392.1)"><tspan font-family="Helvetica">0</tspan></text></g></g><g fill="none" stroke="currentColor" stroke-linecap="butt" stroke-linejoin="miter" stroke-width=".5" color="#000"><path stroke="#000" d="M159.6,373.8 L159.6,368.2"/><g fill="#262626" stroke="none" font-family="Helvetica" font-size="10" text-anchor="middle"><text transform="translate(159.6,392.1)"><tspan font-family="Helvetica">0.2</tspan></text></g></g><g fill="none" stroke="currentColor" stroke-linecap="butt" stroke-linejoin="miter" stroke-width=".5" color="#000"><path stroke="#000" d="M246.4,373.8 L246.4,368.2"/><g fill="#262626" stroke="none" font-family="Helvetica" font-size="10" text-anchor="middle"><text transform="translate(246.4,392.1)"><tspan font-family="Helvetica">0.4</tspan></text></g></g><g fill="none" stroke="currentColor" stroke-linecap="butt" stroke-linejoin="miter" stroke-width=".5" color="#000"><path stroke="#000" d="M333.1,373.8 L333.1,368.2"/><g fill="#262626" stroke="none" font-family="Helvetica" font-size="10" text-anchor="middle"><text transform="translate(333.1,392.1)"><tspan font-family="Helvetica">0.6</tspan></text></g></g><g fill="none" stroke="currentColor" stroke-linecap="butt" stroke-linejoin="miter" stroke-width=".5" color="#000"><path stroke="#000" d="M419.9,373.8 L419.9,368.2"/><g fill="#262626" stroke="none" font-family="Helvetica" font-size="10" text-anchor="middle"><text transform="translate(419.9,392.1)"><tspan font-family="Helvetica">0.8</tspan></text></g></g><g fill="none" stroke="currentColor" stroke-linecap="butt" stroke-linejoin="miter" stroke-width=".5" color="#000"><path stroke="#000" d="M506.7,373.8 L506.7,368.2"/><g fill="#262626" stroke="none" font-family="Helvetica" font-size="10" text-anchor="middle"><text transform="translate(506.7,392.1)"><tspan font-family="Helvetica">1</tspan></text></g></g><g fill="none" stroke="currentColor" stroke-linecap="butt" stroke-linejoin="miter" stroke-width=".5" color="#000"><path stroke="#000" d="M72.8,31.6 L72.8,373.8 L506.7,373.8 L506.7,31.6 L72.8,31.6 Z"/></g><g id="gnuplot_plot_1a"><title>&apos;-&apos;</title><g fill="none" stroke="currentColor" stroke-linecap="butt" stroke-linejoin="miter" stroke-width=".5" color="#000"><path stroke="#0071BC" d="M72.8,145.7 L87.8,145.7 L87.8,150.1 L102.7,150.1 L102.7,163.0 L117.7,163.0 L117.7,182.9 L132.6,182.9 L132.6,207.2 L147.6,207.2 L147.6,233.3 L162.6,233.3 L162.6,258.0 L177.5,258.0 L177.5,278.5 L192.5,278.5 L192.5,292.2 L207.5,292.2 L207.5,297.7 L222.4,297.7 L222.4,294.2 L237.4,294.2 L237.4,282.2 L252.3,282.2 L252.3,263.0 L267.3,263.0 L267.3,239.0 L282.3,239.0 L282.3,213.0 L297.2,213.0 L297.2,187.9 L312.2,187.9 L312.2,166.9 L327.2,166.9 L327.2,152.3 L342.1,152.3 L342.1,145.9 L357.1,145.9 L357.1,148.4 L372.0,148.4 L372.0,159.5 L387.0,159.5 L387.0,178.0 L402.0,178.0 L402.0,201.6 L416.9,201.6 L416.9,227.6 L431.9,227.6 L431.9,252.8 L446.9,252.8 L446.9,274.5 L461.8,274.5 L461.8,289.9 L476.8,289.9 L476.8,297.3 L491.7,297.3 L491.7,295.7 L506.7,295.7 L506.7,285.5"/></g></g><g id="gnuplot_plot_2a"><title>&apos;-&apos;</title><g fill="none" stroke="currentColor" stroke-linecap="butt" stroke-linejoin="miter" stroke-width="1" color="#000"><use color="#0071BC" transform="translate(72.8,145.7) scale(2.50)" xlink:href="#gpPt5"/><use color="#0071BC" transform="translate(87.8,150.1) scale(2.50)" xlink:href="#gpPt5"/><use color="#0071BC" transform="translate(102.7,163.0) scale(2.50)" xlink:href="#gpPt5"/><use color="#0071BC" transform="translate(117.7,182.9) scale(2.50)" xlink:href="#gpPt5"/><use color="#0071BC" transform="translate(132.6,207.2) scale(2.50)" xlink:href="#gpPt5"/><use color="#0071BC" transform="translate(147.6,233.3) scale(2.50)" xlink:href="#gpPt5"/><use color="#0071BC" transform="translate(162.6,258.0) scale(2.50)" xlink:href="#gpPt5"/><use color="#0071BC" transform="translate(177.5,278.5) scale(2.50)" xlink:href="#gpPt5"/><use color="#0071BC" transform="translate(192.5,292.2) scale(2.50)" xlink:href="#gpPt5"/><use color="#0071BC" transform="translate(207.5,297.7) scale(2.50)" xlink:href="#gpPt5"/><use color="#0071BC" transform="translate(222.4,294.2) scale(2.50)" xlink:href="#gpPt5"/><use color="#0071BC" transform="translate(237.4,282.2) scale(2.50)" xlink:href="#gpPt5"/><use color="#0071BC" transform="translate(252.3,263.0) scale(2.50)" xlink:href="#gpPt5"/><use color="#0071BC" transform="translate(267.3,239.0) scale(2.50)" xlink:href="#gpPt5"/><use color="#0071BC" transform="translate(282.3,213.0) scale(2.50)" xlink:href="#gpPt5"/><use color="#0071BC" transform="translate(297.2,187.9) scale(2.50)" xlink:href="#gpPt5"/><use color="#0071BC" transform="translate(312.2,166.9) scale(2.50)" xlink:href="#gpPt5"/><use color="#0071BC" transform="translate(327.2,152.3) scale(2.50)" xlink:href="#gpPt5"/><use color="#0071BC" transform="translate(342.1,145.9) scale(2.50)" xlink:href="#gpPt5"/><use color="#0071BC" transform="translate(357.1,148.4) scale(2.50)" xlink:href="#gpPt5"/><use color="#0071BC" transform="translate(372.0,159.5) scale(2.50)" xlink:href="#gpPt5"/><use color="#0071BC" transform="translate(387.0,178.0) scale(2.50)" xlink:href="#gpPt5"/><use color="#0071BC" transform="translate(402.0,201.6) scale(2.50)" xlink:href="#gpPt5"/><use color="#0071BC" transform="translate(416.9,227.6) scale(2.50)" xlink:href="#gpPt5"/><use color="#0071BC" transform="translate(431.9,252.8) scale(2.50)" xlink:href="#gpPt5"/><use color="#0071BC" transform="translate(446.9,274.5) scale(2.50)" xlink:href="#gpPt5"/><use color="#0071BC" transform="translate(461.8,289.9) scale(2.50)" xlink:href="#gpPt5"/><use color="#0071BC" transform="translate(476.8,297.3) scale(2.50)" xlink:href="#gpPt5"/><use color="#0071BC" transform="translate(491.7,295.7) scale(2.50)" xlink:href="#gpPt5"/><use color="#0071BC" transform="translate(506.7,285.5) scale(2.50)" xlink:href="#gpPt5"/></g></g><g id="gnuplot_plot_3a"><title>&apos;-&apos;</title><g fill="none" stroke="currentColor" stroke-linecap="butt" stroke-linejoin="miter" stroke-width=".5" color="#000"><path stroke="#D85218" d="M72.8,221.7 L87.8,221.7 L87.8,195.1 L102.7,195.1 L102.7,169.9 L117.7,169.9 L117.7,149.2 L132.6,149.2 L132.6,136.0 L147.6,136.0 L147.6,132.4 L162.6,132.4 L162.6,139.6 L177.5,139.6 L177.5,157.3 L192.5,157.3 L192.5,184.3 L207.5,184.3 L207.5,217.8 L222.4,217.8 L222.4,254.1 L237.4,254.1 L237.4,289.1 L252.3,289.1 L252.3,318.3 L267.3,318.3 L267.3,337.6 L282.3,337.6 L282.3,344.1 L297.2,344.1 L297.2,336.0 L312.2,336.0 L312.2,313.2 L327.2,313.2 L327.2,277.6 L342.1,277.6 L342.1,232.5 L357.1,232.5 L357.1,182.9 L372.0,182.9 L372.0,134.5 L387.0,134.5 L387.0,93.4 L402.0,93.4 L402.0,65.1 L416.9,65.1 L416.9,54.1 L431.9,54.1 L431.9,63.0 L446.9,63.0 L446.9,92.0 L461.8,92.0 L461.8,139.1 L476.8,139.1 L476.8,199.7 L491.7,199.7 L491.7,267.3 L506.7,267.3 L506.7,334.2"/></g></g><g id="gnuplot_plot_4a"><title>&apos;-&apos;</title><g fill="none" stroke="currentColor" stroke-linecap="butt" stroke-linejoin="miter" stroke-width="1" color="#000"><use color="#D85218" transform="translate(72.8,221.7) scale(3.75)" xlink:href="#gpPt6"/><use color="#D85218" transform="translate(87.8,195.1) scale(3.75)" xlink:href="#gpPt6"/><use color="#D85218" transform="translate(102.7,169.9) scale(3.75)" xlink:href="#gpPt6"/><use color="#D85218" transform="translate(117.7,149.2) scale(3.75)" xlink:href="#gpPt6"/><use color="#D85218" transform="translate(132.6,136.0) scale(3.75)" xlink:href="#gpPt6"/><use color="#D85218" transform="translate(147.6,132.4) scale(3.75)" xlink:href="#gpPt6"/><use color="#D85218" transform="translate(162.6,139.6) scale(3.75)" xlink:href="#gpPt6"/><use color="#D85218" transform="translate(177.5,157.3) scale(3.75)" xlink:href="#gpPt6"/><use color="#D85218" transform="translate(192.5,184.3) scale(3.75)" xlink:href="#gpPt6"/><use color="#D85218" transform="translate(207.5,217.8) scale(3.75)" xlink:href="#gpPt6"/><use color="#D85218" transform="translate(222.4,254.1) scale(3.75)" xlink:href="#gpPt6"/><use color="#D85218" transform="translate(237.4,289.1) scale(3.75)" xlink:href="#gpPt6"/><use color="#D85218" transform="translate(252.3,318.3) scale(3.75)" xlink:href="#gpPt6"/><use color="#D85218" transform="translate(267.3,337.6) scale(3.75)" xlink:href="#gpPt6"/><use color="#D85218" transform="translate(282.3,344.1) scale(3.75)" xlink:href="#gpPt6"/><use color="#D85218" transform="translate(297.2,336.0) scale(3.75)" xlink:href="#gpPt6"/><use color="#D85218" transform="translate(312.2,313.2) scale(3.75)" xlink:href="#gpPt6"/><use color="#D85218" transform="translate(327.2,277.6) scale(3.75)" xlink:href="#gpPt6"/><use color="#D85218" transform="translate(342.1,232.5) scale(3.75)" xlink:href="#gpPt6"/><use color="#D85218" transform="translate(357.1,182.9) scale(3.75)" xlink:href="#gpPt6"/><use color="#D85218" transform="translate(372.0,134.5) scale(3.75)" xlink:href="#gpPt6"/><use color="#D85218" transform="translate(387.0,93.4) scale(3.75)" xlink:href="#gpPt6"/><use color="#D85218" transform="translate(402.0,65.1) scale(3.75)" xlink:href="#gpPt6"/><use color="#D85218" transform="translate(416.9,54.1) scale(3.75)" xlink:href="#gpPt6"/><use color="#D85218" transform="translate(431.9,63.0) scale(3.75)" xlink:href="#gpPt6"/><use color="#D85218" transform="translate(446.9,92.0) scale(3.75)" xlink:href="#gpPt6"/><use color="#D85218" transform="translate(461.8,139.1) scale(3.75)" xlink:href="#gpPt6"/><use color="#D85218" transform="translate(476.8,199.7) scale(3.75)" xlink:href="#gpPt6"/><use color="#D85218" transform="translate(491.7,267.3) scale(3.75)" xlink:href="#gpPt6"/><use color="#D85218" transform="translate(506.7,334.2) scale(3.75)" xlink:href="#gpPt6"/></g></g><g id="gnuplot_plot_5a"><title>&apos;-&apos;</title><g fill="none" stroke="currentColor" stroke-linecap="butt" stroke-linejoin="miter" stroke-width="1" color="#000"><use color="#F0F" transform="translate(72.8,221.7) scale(2.25)" xlink:href="#gpPt6"/><use color="#F0F" transform="translate(87.8,195.1) scale(2.25)" xlink:href="#gpPt6"/><use color="#F0F" transform="translate(102.7,169.9) scale(2.25)" xlink:href="#gpPt6"/><use color="#F0F" transform="translate(117.7,149.2) scale(2.25)" xlink:href="#gpPt6"/><use color="#F0F" transform="translate(132.6,136.0) scale(2.25)" xlink:href="#gpPt6"/><use color="#F0F" transform="translate(147.6,132.4) scale(2.25)" xlink:href="#gpPt6"/><use color="#F0F" transform="translate(162.6,139.6) scale(2.25)" xlink:href="#gpPt6"/><use color="#F0F" transform="translate(177.5,157.3) scale(2.25)" xlink:href="#gpPt6"/><use color="#F0F" transform="translate(192.5,184.3) scale(2.25)" xlink:href="#gpPt6"/><use color="#F0F" transform="translate(207.5,217.8) scale(2.25)" xlink:href="#gpPt6"/><use color="#F0F" transform="translate(222.4,254.1) scale(2.25)" xlink:href="#gpPt6"/><use color="#F0F" transform="translate(237.4,289.1) scale(2.25)" xlink:href="#gpPt6"/><use color="#F0F" transform="translate(252.3,318.3) scale(2.25)" xlink:href="#gpPt6"/><use color="#F0F" transform="translate(267.3,337.6) scale(2.25)" xlink:href="#gpPt6"/><use color="#F0F" transform="translate(282.3,344.1) scale(2.25)" xlink:href="#gpPt6"/><use color="#F0F" transform="translate(297.2,336.0) scale(2.25)" xlink:href="#gpPt6"/><use color="#F0F" transform="translate(312.2,313.2) scale(2.25)" xlink:href="#gpPt6"/><use color="#F0F" transform="translate(327.2,277.6) scale(2.25)" xlink:href="#gpPt6"/><use color="#F0F" transform="translate(342.1,232.5) scale(2.25)" xlink:href="#gpPt6"/><use color="#F0F" transform="translate(357.1,182.9) scale(2.25)" xlink:href="#gpPt6"/><use color="#F0F" transform="translate(372.0,134.5) scale(2.25)" xlink:href="#gpPt6"/><use color="#F0F" transform="translate(387.0,93.4) scale(2.25)" xlink:href="#gpPt6"/><use color="#F0F" transform="translate(402.0,65.1) scale(2.25)" xlink:href="#gpPt6"/><use color="#F0F" transform="translate(416.9,54.1) scale(2.25)" xlink:href="#gpPt6"/><use color="#F0F" transform="translate(431.9,63.0) scale(2.25)" xlink:href="#gpPt6"/><use color="#F0F" transform="translate(446.9,92.0) scale(2.25)" xlink:href="#gpPt6"/><use color="#F0F" transform="translate(461.8,139.1) scale(2.25)" xlink:href="#gpPt6"/><use color="#F0F" transform="translate(476.8,199.7) scale(2.25)" xlink:href="#gpPt6"/><use color="#F0F" transform="translate(491.7,267.3) scale(2.25)" xlink:href="#gpPt6"/><use color="#F0F" transform="translate(506.7,334.2) scale(2.25)" xlink:href="#gpPt6"/></g></g><g fill="none" stroke="currentColor" stroke-linecap="butt" stroke-linejoin="miter" stroke-width=".5" color="#000"><path stroke="#000" d="M72.8,31.6 L72.8,373.8 L506.7,373.8 L506.7,31.6 L72.8,31.6 Z"/></g></g></svg>