<svg xmlns="http://www.w3.org/2000/svg" xmlns:xlink="http://www.w3.org/1999/xlink" width="560" height="420" viewBox="0 0 560 420"><title>Gnuplot</title><desc>Produced by GNUPLOT 5.4 patchlevel 0</desc><g id="gnuplot_canvas"><rect width="560" height="420" x="0" y="0" fill="none"/><defs><circle id="gpDot" r=".5" stroke="currentColor" stroke-width=".5"/><path id="gpPt0" stroke="currentColor" stroke-width=".267" d="M-1,0 h2 M0,-1 v2"/><path id="gpPt1" stroke="currentColor" stroke-width=".267" d="M-1,-1 L1,1 M1,-1 L-1,1"/><path id="gpPt2" stroke="currentColor" stroke-width=".267" d="M-1,0 L1,0 M0,-1 L0,1 M-1,-1 L1,1 M-1,1 L1,-1"/><rect id="gpPt3" width="2" height="2" x="-1" y="-1" stroke="currentColor" stroke-width=".267"/><rect id="gpPt4" width="2" height="2" x="-1" y="-1" fill="currentColor" stroke="currentColor" stroke-width=".267"/><circle id="gpPt5" cx="0" cy="0" r="1" stroke="currentColor" stroke-width=".267"/><use id="gpPt6" fill="currentColor" stroke="none" xlink:href="#gpPt5"/><path id="gpPt7" stroke="currentColor" stroke-width=".267" d="M0,-1.33 L-1.33,0.67 L1.33,0.67 z"/><use id="gpPt8" fill="currentColor" stroke="none" xlink:href="#gpPt7"/><use id="gpPt9" stroke="currentColor" transform="rotate(180)" xlink:href="#gpPt7"/><use id="gpPt10" fill="currentColor" stroke="none" xlink:href="#gpPt9"/><use id="gpPt11" stroke="currentColor" transform="rotate(45)" xlink:href="#gpPt3"/><use id="gpPt12" fill="currentColor" stroke="none" xlink:href="#gpPt11"/><path id="gpPt13" stroke="currentColor" stroke-width=".267" d="M0,1.330 L1.265,0.411 L0.782,-1.067 L-0.782,-1.076 L-1.265,0.411 z"/><use id="gpPt14" fill="currentColor" stroke="none" xlink:href="#gpPt13"/><filter id="textbox" width="1" height="1" x="0" y="0" filterUnits="objectBoundingBox"><feFlood flood-color="#fff" flood-opacity="1" result="bgnd"/><feComposite in="SourceGraphic" in2="bgnd" operator="atop"/></filter><filter id="greybox" width="1" height="1" x="0" y="0" filterUnits="objectBoundingBox"><feFlood flood-color="#d3d3d3" flood-opacity="1" result="grey"/><feComposite in="SourceGraphic" in2="grey" operator="atop"/></filter></defs><g fill="none" stroke="currentColor" stroke-linecap="butt" stroke-linejoin="miter" stroke-width=".5" color="#000"><path stroke="#000" d="M72.8,354.4 L78.4,354.4"/><g fill="#262626" stroke="none" font-family="Helvetica" font-size="10" text-anchor="end"><text transform="translate(65.8,357.7)"><tspan font-family="Helvetica">-1</tspan></text></g></g><g fill="none" stroke="currentColor" stroke-linecap="butt" stroke-linejoin="miter" stroke-width=".5" color="#000"><path stroke="#000" d="M72.8,289.9 L78.4,289.9"/><g fill="#262626" stroke="none" font-family="Helvetica" font-size="10" text-anchor="end"><text transform="translate(65.8,293.2)"><tspan font-family="Helvetica">-0.5</tspan></text></g></g><g fill="none" stroke="currentColor" stroke-linecap="butt" stroke-linejoin="miter" stroke-width=".5" color="#000"><path stroke="#000" d="M72.8,225.3 L78.4,225.3"/><g fill="#262626" stroke="none" font-family="Helvetica" font-size="10" text-anchor="end"><text transform="translate(65.8,228.6)"><tspan font-family="Helvetica">0</tspan></text></g></g><g fill="none" stroke="currentColor" stroke-linecap="butt" stroke-linejoin="miter" stroke-width=".5" color="#000"><path stroke="#000" d="M72.8,160.7 L78.4,160.7"/><g fill="#262626" stroke="none" font-family="Helvetica" font-size="10" text-anchor="end"><text transform="translate(65.8,164.0)"><tspan font-family="Helvetica">0.5</tspan></text></g></g><g fill="none" stroke="currentColor" stroke-linecap="butt" stroke-linejoin="miter" stroke-width=".5" color="#000"><path stroke="#000" d="M72.8,96.2 L78.4,96.2"/><g fill="#262626" stroke="none" font-family="Helvetica" font-size="10" text-anchor="end"><text transform="translate(65.8,99.5)"><tspan font-family="Helvetica">1</tspan></text></g></g><g fill="none" stroke="currentColor" stroke-linecap="butt" stroke-linejoin="miter" stroke-width=".5" color="#000"><path stroke="#000" d="M72.8,31.6 L78.4,31.6"/><g fill="#262626" stroke="none" font-family="Helvetica" font-size="10" text-anchor="end"><text transform="translate(65.8,34.9)"><tspan font-family="Helvetica">1.5</tspan></text></g></g><g fill="none" stroke="currentColor" stroke-linecap="butt" stroke-linejoin="miter" stroke-width=".5" color="#000"><path stroke="#000" d="M72.8,373.8 L72.8,368.2"/><g fill="#262626" stroke="none" font-family="Helvetica" font-size="10" text-anchor="middle"><text transform="translate(72.8,392.1)"><tspan font-family="Helvetica">0</tspan></text></g></g><g fill="none" stroke="currentColor" stroke-linecap="butt" stroke-linejoin="miter" stroke-width=".5" color="#000"><path stroke="#000" d="M141.9,373.8 L141.9,368.2"/><g fill="#262626" stroke="none" font-family="Helvetica" font-size="10" text-anchor="middle"><text transform="translate(141.9,392.1)"><tspan font-family="Helvetica">1</tspan></text></g></g><g fill="none" stroke="currentColor" stroke-linecap="butt" stroke-linejoin="miter" stroke-width=".5" color="#000"><path stroke="#000" d="M210.9,373.8 L210.9,368.2"/><g fill="#262626" stroke="none" font-family="Helvetica" font-size="10" text-anchor="middle"><text transform="translate(210.9,392.1)"><tspan font-family="Helvetica">2</tspan></text></g></g><g fill="none" stroke="currentColor" stroke-linecap="butt" stroke-linejoin="miter" stroke-width=".5" color="#000"><path stroke="#000" d="M280.0,373.8 L280.0,368.2"/><g fill="#262626" stroke="none" font-family="Helvetica" font-size="10" text-anchor="middle"><text transform="translate(280.0,392.1)"><tspan font-family="Helvetica">3</tspan></text></g></g><g fill="none" stroke="currentColor" stroke-linecap="butt" stroke-linejoin="miter" stroke-width=".5" color="#000"><path stroke="#000" d="M349.0,373.8 L349.0,368.2"/><g fill="#262626" stroke="none" font-family="Helvetica" font-size="10" text-anchor="middle"><text transform="translate(349.0,392.1)"><tspan font-family="Helvetica">4</tspan></text></g></g><g fill="none" stroke="currentColor" stroke-linecap="butt" stroke-linejoin="miter" stroke-width=".5" color="#000"><path stroke="#000" d="M418.1,373.8 L418.1,368.2"/><g fill="#262626" stroke="none" font-family="Helvetica" font-size="10" text-anchor="middle"><text transform="translate(418.1,392.1)"><tspan font-family="Helvetica">5</tspan></text></g></g><g fill="none" stroke="currentColor" stroke-linecap="butt" stroke-linejoin="miter" stroke-width=".5" color="#000"><path stroke="#000" d="M487.1,373.8 L487.1,368.2"/><g fill="#262626" stroke="none" font-family="Helvetica" font-size="10" text-anchor="middle"><text transform="translate(487.1,392.1)"><tspan font-family="Helvetica">6</tspan></text></g></g><g fill="none" stroke="currentColor" stroke-linecap="butt" stroke-linejoin="miter" stroke-width=".5" color="#000"><path stroke="#000" d="M72.8,31.6 L72.8,373.8 L506.7,373.8 L506.7,31.6 L72.8,31.6 Z"/></g><g id="gnuplot_plot_1a"><title>sin(x)</title><g fill="none" stroke="currentColor" stroke-linecap="butt" stroke-linejoin="miter" stroke-width=".5" color="#000"><path stroke="#0071BC" d="M72.8,225.3 L77.2,217.1 L81.6,209.0 L85.9,200.9 L90.3,192.9 L94.7,185.0 L99.1,177.3 L103.5,169.8 L107.9,162.5 L112.2,155.5 L116.6,148.7 L121.0,142.3 L125.4,136.2 L129.8,130.4 L134.2,125.1 L138.5,120.1 L142.9,115.6 L147.3,111.5 L151.7,107.8 L156.1,104.7 L160.5,102.0 L164.8,99.8 L169.2,98.1 L173.6,97.0 L178.0,96.3 L182.4,96.2 L186.8,96.6 L191.1,97.5 L195.5,98.9 L199.9,100.8 L204.3,103.3 L208.7,106.2 L213.1,109.6 L217.4,113.5 L221.8,117.8 L226.2,122.5 L230.6,127.7 L235.0,133.3 L239.3,139.2 L243.7,145.5 L248.1,152.1 L252.5,159.0 L256.9,166.1 L261.3,173.5 L265.6,181.1 L270.0,188.9 L274.4,196.8 L278.8,204.9 L283.2,213.0 L287.6,221.2 L291.9,229.4 L296.3,237.6 L300.7,245.7 L305.1,253.7 L309.5,261.7 L313.9,269.5 L318.2,277.1 L322.6,284.5 L327.0,291.6 L331.4,298.5 L335.8,305.1 L340.2,311.4 L344.5,317.3 L348.9,322.9 L353.3,328.1 L357.7,332.8 L362.1,337.1 L366.4,341.0 L370.8,344.4 L375.2,347.3 L379.6,349.8 L384.0,351.7 L388.4,353.1 L392.7,354.0 L397.1,354.4 L401.5,354.3 L405.9,353.6 L410.3,352.5 L414.7,350.8 L419.0,348.6 L423.4,345.9 L427.8,342.8 L432.2,339.1 L436.6,335.0 L441.0,330.5 L445.3,325.5 L449.7,320.2 L454.1,314.4 L458.5,308.3 L462.9,301.9 L467.3,295.1 L471.6,288.1 L476.0,280.8 L480.4,273.3 L484.8,265.6 L489.2,257.7 L493.6,249.7 L497.9,241.6 L502.3,233.5 L506.7,225.3"/><use color="#0071BC" transform="translate(72.8,225.3) scale(3.75)" xlink:href="#gpPt5"/><use color="#0071BC" transform="translate(77.2,217.1) scale(3.75)" xlink:href="#gpPt5"/><use color="#0071BC" transform="translate(81.6,209.0) scale(3.75)" xlink:href="#gpPt5"/><use color="#0071BC" transform="translate(85.9,200.9) scale(3.75)" xlink:href="#gpPt5"/><use color="#0071BC" transform="translate(90.3,192.9) scale(3.75)" xlink:href="#gpPt5"/><use color="#0071BC" transform="translate(94.7,185.0) scale(3.75)" xlink:href="#gpPt5"/><use color="#0071BC" transform="translate(99.1,177.3) scale(3.75)" xlink:href="#gpPt5"/><use color="#0071BC" transform="translate(103.5,169.8) scale(3.75)" xlink:href="#gpPt5"/><use color="#0071BC" transform="translate(107.9,162.5) scale(3.75)" xlink:href="#gpPt5"/><use color="#0071BC" transform="translate(112.2,155.5) scale(3.75)" xlink:href="#gpPt5"/><use color="#0071BC" transform="translate(116.6,148.7) scale(3.75)" xlink:href="#gpPt5"/><use color="#0071BC" transform="translate(121.0,142.3) scale(3.75)" xlink:href="#gpPt5"/><use color="#0071BC" transform="translate(125.4,136.2) scale(3.75)" xlink:href="#gpPt5"/><use color="#0071BC" transform="translate(129.8,130.4) scale(3.75)" xlink:href="#gpPt5"/><use color="#0071BC" transform="translate(134.2,125.1) scale(3.75)" xlink:href="#gpPt5"/><use color="#0071BC" transform="translate(138.5,120.1) scale(3.75)" xlink:href="#gpPt5"/><use color="#0071BC" transform="translate(142.9,115.6) scale(3.75)" xlink:href="#gpPt5"/><use color="#0071BC" transform="translate(147.3,111.5) scale(3.75)" xlink:href="#gpPt5"/><use color="#0071BC" transform="translate(151.7,107.8) scale(3.75)" xlink:href="#gpPt5"/><use color="#0071BC" transform="translate(156.1,104.7) scale(3.75)" xlink:href="#gpPt5"/><use color="#0071BC" transform="translate(160.5,102.0) scale(3.75)" xlink:href="#gpPt5"/><use color="#0071BC" transform="translate(164.8,99.8) scale(3.75)" xlink:href="#gpPt5"/><use color="#0071BC" transform="translate(169.2,98.1) scale(3.75)" xlink:href="#gpPt5"/><use color="#0071BC" transform="translate(173.6,97.0) scale(3.75)" xlink:href="#gpPt5"/><use color="#0071BC" transform="translate(178.0,96.3) scale(3.75)" xlink:href="#gpPt5"/><use color="#0071BC" transform="translate(182.4,96.2) scale(3.75)" xlink:href="#gpPt5"/><use color="#0071BC" transform="translate(186.8,96.6) scale(3.75)" xlink:href="#gpPt5"/><use color="#0071BC" transform="translate(191.1,97.5) scale(3.75)" xlink:href="#gpPt5"/><use color="#0071BC" transform="translate(195.5,98.9) scale(3.75)" xlink:href="#gpPt5"/><use color="#0071BC" transform="translate(199.9,100.8) scale(3.75)" xlink:href="#gpPt5"/><use color="#0071BC" transform="translate(204.3,103.3) scale(3.75)" xlink:href="#gpPt5"/><use color="#0071BC" transform="translate(208.7,106.2) scale(3.75)" xlink:href="#gpPt5"/><use color="#0071BC" transform="translate(213.1,109.6) scale(3.75)" xlink:href="#gpPt5"/><use color="#0071BC" transform="translate(217.4,113.5) scale(3.75)" xlink:href="#gpPt5"/><use color="#0071BC" transform="translate(221.8,117.8) scale(3.75)" xlink:href="#gpPt5"/><use color="#0071BC" transform="translate(226.2,122.5) scale(3.75)" xlink:href="#gpPt5"/><use color="#0071BC" transform="translate(230.6,127.7) scale(3.75)" xlink:href="#gpPt5"/><use color="#0071BC" transform="translate(235.0,133.3) scale(3.75)" xlink:href="#gpPt5"/><use color="#0071BC" transform="translate(239.3,139.2) scale(3.75)" xlink:href="#gpPt5"/><use color="#0071BC" transform="translate(243.7,145.5) scale(3.75)" xlink:href="#gpPt5"/><use color="#0071BC" transform="translate(248.1,152.1) scale(3.75)" xlink:href="#gpPt5"/><use color="#0071BC" transform="translate(252.5,159.0) scale(3.75)" xlink:href="#gpPt5"/><use color="#0071BC" transform="translate(256.9,166.1) scale(3.75)" xlink:href="#gpPt5"/><use color="#0071BC" transform="translate(261.3,173.5) scale(3.75)" xlink:href="#gpPt5"/><use color="#0071BC" transform="translate(265.6,181.1) scale(3.75)" xlink:href="#gpPt5"/><use color="#0071BC" transform="translate(270.0,188.9) scale(3.75)" xlink:href="#gpPt5"/><use color="#0071BC" transform="translate(274.4,196.8) scale(3.75)" xlink:href="#gpPt5"/><use color="#0071BC" transform="translate(278.8,204.9) scale(3.75)" xlink:href="#gpPt5"/><use color="#0071BC" transform="translate(283.2,213.0) scale(3.75)" xlink:href="#gpPt5"/><use color="#0071BC" transform="translate(287.6,221.2) scale(3.75)" xlink:href="#gpPt5"/><use color="#0071BC" transform="translate(291.9,229.4) scale(3.75)" xlink:href="#gpPt5"/><use color="#0071BC" transform="translate(296.3,237.6) scale(3.75)" xlink:href="#gpPt5"/><use color="#0071BC" transform="translate(300.7,245.7) scale(3.75)" xlink:href="#gpPt5"/><use color="#0071BC" transform="translate(305.1,253.7) scale(3.75)" xlink:href="#gpPt5"/><use color="#0071BC" transform="translate(309.5,261.7) scale(3.75)" xlink:href="#gpPt5"/><use color="#0071BC" transform="translate(313.9,269.5) scale(3.75)" xlink:href="#gpPt5"/><use color="#0071BC" transform="translate(318.2,277.1) scale(3.75)" xlink:href="#gpPt5"/><use color="#0071BC" transform="translate(322.6,284.5) scale(3.75)" xlink:href="#gpPt5"/><use color="#0071BC" transform="translate(327.0,291.6) scale(3.75)" xlink:href="#gpPt5"/><use color="#0071BC" transform="translate(331.4,298.5) scale(3.75)" xlink:href="#gpPt5"/><use color="#0071BC" transform="translate(335.8,305.1) scale(3.75)" xlink:href="#gpPt5"/><use color="#0071BC" transform="translate(340.2,311.4) scale(3.75)" xlink:href="#gpPt5"/><use color="#0071BC" transform="translate(344.5,317.3) scale(3.75)" xlink:href="#gpPt5"/><use color="#0071BC" transform="translate(348.9,322.9) scale(3.75)" xlink:href="#gpPt5"/><use color="#0071BC" transform="translate(353.3,328.1) scale(3.75)" xlink:href="#gpPt5"/><use color="#0071BC" transform="translate(357.7,332.8) scale(3.75)" xlink:href="#gpPt5"/><use color="#0071BC" transform="translate(362.1,337.1) scale(3.75)" xlink:href="#gpPt5"/><use color="#0071BC" transform="translate(366.4,341.0) scale(3.75)" xlink:href="#gpPt5"/><use color="#0071BC" transform="translate(370.8,344.4) scale(3.75)" xlink:href="#gpPt5"/><use color="#0071BC" transform="translate(375.2,347.3) scale(3.75)" xlink:href="#gpPt5"/><use color="#0071BC" transform="translate(379.6,349.8) scale(3.75)" xlink:href="#gpPt5"/><use color="#0071BC" transform="translate(384.0,351.7) scale(3.75)" xlink:href="#gpPt5"/><use color="#0071BC" transform="translate(388.4,353.1) scale(3.75)" xlink:href="#gpPt5"/><use color="#0071BC" transform="translate(392.7,354.0) scale(3.75)" xlink:href="#gpPt5"/><use color="#0071BC" transform="translate(397.1,354.4) scale(3.75)" xlink:href="#gpPt5"/><use color="#0071BC" transform="translate(401.5,354.3) scale(3.75)" xlink:href="#gpPt5"/><use color="#0071BC" transform="translate(405.9,353.6) scale(3.75)" xlink:href="#gpPt5"/><use color="#0071BC" transform="translate(410.3,352.5) scale(3.75)" xlink:href="#gpPt5"/><use color="#0071BC" transform="translate(414.7,350.8) scale(3.75)" xlink:href="#gpPt5"/><use color="#0071BC" transform="translate(419.0,348.6) scale(3.75)" xlink:href="#gpPt5"/><use color="#0071BC" transform="translate(423.4,345.9) scale(3.75)" xlink:href="#gpPt5"/><use color="#0071BC" transform="translate(427.8,342.8) scale(3.75)" xlink:href="#gpPt5"/><use color="#0071BC" transform="translate(432.2,339.1) scale(3.75)" xlink:href="#gpPt5"/><use color="#0071BC" transform="translate(436.6,335.0) scale(3.75)" xlink:href="#gpPt5"/><use color="#0071BC" transform="translate(441.0,330.5) scale(3.75)" xlink:href="#gpPt5"/><use color="#0071BC" transform="translate(445.3,325.5) scale(3.75)" xlink:href="#gpPt5"/><use color="#0071BC" transform="translate(449.7,320.2) scale(3.75)" xlink:href="#gpPt5"/><use color="#0071BC" transform="translate(454.1,314.4) scale(3.75)" xlink:href="#gpPt5"/><use color="#0071BC" transform="translate(458.5,308.3) scale(3.75)" xlink:href="#gpPt5"/><use color="#0071BC" transform="translate(462.9,301.9) scale(3.75)" xlink:href="#gpPt5"/><use color="#0071BC" transform="translate(467.3,295.1) scale(3.75)" xlink:href="#gpPt5"/><use color="#0071BC" transform="translate(471.6,288.1) scale(3.75)" xlink:href="#gpPt5"/><use color="#0071BC" transform="translate(476.0,280.8) scale(3.75)" xlink:href="#gpPt5"/><use color="#0071BC" transform="translate(480.4,273.3) scale(3.75)" xlink:href="#gpPt5"/><use color="#0071BC" transform="translate(484.8,265.6) scale(3.75)" xlink:href="#gpPt5"/><use color="#0071BC" transform="translate(489.2,257.7) scale(3.75)" xlink:href="#gpPt5"/><use color="#0071BC" transform="translate(493.6,249.7) scale(3.75)" xlink:href="#gpPt5"/><use color="#0071BC" transform="translate(497.9,241.6) scale(3.75)" xlink:href="#gpPt5"/><use color="#0071BC" transform="translate(502.3,233.5) scale(3.75)" xlink:href="#gpPt5"/><use color="#0071BC" transform="translate(506.7,225.3) scale(3.75)" xlink:href="#gpPt5"/></g></g><g fill="none" stroke="currentColor" stroke-linecap="butt" stroke-linejoin="miter" stroke-width=".5" color="#000"><path stroke="#000" d="M72.8,31.6 L72.8,373.8 L506.7,373.8 L506.7,31.6 L72.8,31.6 Z"/></g></g></svg>