<svg xmlns="http://www.w3.org/2000/svg" xmlns:xlink="http://www.w3.org/1999/xlink" width="560" height="420" viewBox="0 0 560 420"><title>Gnuplot</title><desc>Produced by GNUPLOT 5.4 patchlevel 0</desc><g id="gnuplot_canvas"><rect width="560" height="420" x="0" y="0" fill="none"/><defs><circle id="gpDot" r=".5" stroke="currentColor" stroke-width=".5"/><path id="gpPt0" stroke="currentColor" stroke-width=".267" d="M-1,0 h2 M0,-1 v2"/><path id="gpPt1" stroke="currentColor" stroke-width=".267" d="M-1,-1 L1,1 M1,-1 L-1,1"/><path id="gpPt2" stroke="currentColor" stroke-width=".267" d="M-1,0 L1,0 M0,-1 L0,1 M-1,-1 L1,1 M-1,1 L1,-1"/><rect id="gpPt3" width="2" height="2" x="-1" y="-1" stroke="currentColor" stroke-width=".267"/><rect id="gpPt4" width="2" height="2" x="-1" y="-1" fill="currentColor" stroke="currentColor" stroke-width=".267"/><circle id="gpPt5" cx="0" cy="0" r="1" stroke="currentColor" stroke-width=".267"/><use id="gpPt6" fill="currentColor" stroke="none" xlink:href="#gpPt5"/><path id="gpPt7" stroke="currentColor" stroke-width=".267" d="M0,-1.33 L-1.33,0.67 L1.33,0.67 z"/><use id="gpPt8" fill="currentColor" stroke="none" xlink:href="#gpPt7"/><use id="gpPt9" stroke="currentColor" transform="rotate(180)" xlink:href="#gpPt7"/><use id="gpPt10" fill="currentColor" stroke="none" xlink:href="#gpPt9"/><use id="gpPt11" stroke="currentColor" transform="rotate(45)" xlink:href="#gpPt3"/><use id="gpPt12" fill="currentColor" stroke="none" xlink:href="#gpPt11"/><path id="gpPt13" stroke="currentColor" stroke-width=".267" d="M0,1.330 L1.265,0.411 L0.782,-1.067 L-0.782,-1.076 L-1.265,0.411 z"/><use id="gpPt14" fill="currentColor" stroke="none" xlink:href="#gpPt13"/><filter id="textbox" width="1" height="1" x="0" y="0" filterUnits="objectBoundingBox"><feFlood flood-color="#fff" flood-opacity="1" result="bgnd"/><feComposite in="SourceGraphic" in2="bgnd" operator="atop"/></filter><filter id="greybox" width="1" height="1" x="0" y="0" filterUnits="objectBoundingBox"><feFlood flood-color="#d3d3d3" flood-opacity="1" result="grey"/><feComposite in="SourceGraphic" in2="grey" operator="atop"/></filter></defs><g fill="none" stroke="currentColor" stroke-linecap="butt" stroke-linejoin="miter" stroke-width=".5" color="#000"><path stroke="#000" d="M72.8,365.4 L78.4,365.4"/><g fill="#262626" stroke="none" font-family="Helvetica" font-size="10" text-anchor="end"><text transform="translate(65.8,368.7)"><tspan font-family="Helvetica">20</tspan></text></g></g><g fill="none" stroke="currentColor" stroke-linecap="butt" stroke-linejoin="miter" stroke-width=".5" color="#000"><path stroke="#000" d="M72.8,322.0 L78.4,322.0"/><g fill="#262626" stroke="none" font-family="Helvetica" font-size="10" text-anchor="end"><text transform="translate(65.8,325.3)"><tspan font-family="Helvetica">30</tspan></text></g></g><g fill="none" stroke="currentColor" stroke-linecap="butt" stroke-linejoin="miter" stroke-width=".5" color="#000"><path stroke="#000" d="M72.8,278.6 L78.4,278.6"/><g fill="#262626" stroke="none" font-family="Helvetica" font-size="10" text-anchor="end"><text transform="translate(65.8,281.9)"><tspan font-family="Helvetica">40</tspan></text></g></g><g fill="none" stroke="currentColor" stroke-linecap="butt" stroke-linejoin="miter" stroke-width=".5" color="#000"><path stroke="#000" d="M72.8,235.2 L78.4,235.2"/><g fill="#262626" stroke="none" font-family="Helvetica" font-size="10" text-anchor="end"><text transform="translate(65.8,238.5)"><tspan font-family="Helvetica">50</tspan></text></g></g><g fill="none" stroke="currentColor" stroke-linecap="butt" stroke-linejoin="miter" stroke-width=".5" color="#000"><path stroke="#000" d="M72.8,191.9 L78.4,191.9"/><g fill="#262626" stroke="none" font-family="Helvetica" font-size="10" text-anchor="end"><text transform="translate(65.8,195.2)"><tspan font-family="Helvetica">60</tspan></text></g></g><g fill="none" stroke="currentColor" stroke-linecap="butt" stroke-linejoin="miter" stroke-width=".5" color="#000"><path stroke="#000" d="M72.8,148.5 L78.4,148.5"/><g fill="#262626" stroke="none" font-family="Helvetica" font-size="10" text-anchor="end"><text transform="translate(65.8,151.8)"><tspan font-family="Helvetica">70</tspan></text></g></g><g fill="none" stroke="currentColor" stroke-linecap="butt" stroke-linejoin="miter" stroke-width=".5" color="#000"><path stroke="#000" d="M72.8,105.1 L78.4,105.1"/><g fill="#262626" stroke="none" font-family="Helvetica" font-size="10" text-anchor="end"><text transform="translate(65.8,108.4)"><tspan font-family="Helvetica">80</tspan></text></g></g><g fill="none" stroke="currentColor" stroke-linecap="butt" stroke-linejoin="miter" stroke-width=".5" color="#000"><path stroke="#000" d="M72.8,61.7 L78.4,61.7"/><g fill="#262626" stroke="none" font-family="Helvetica" font-size="10" text-anchor="end"><text transform="translate(65.8,65.0)"><tspan font-family="Helvetica">90</tspan></text></g></g><g fill="none" stroke="currentColor" stroke-linecap="butt" stroke-linejoin="miter" stroke-width=".5" color="#000"><path stroke="#000" d="M72.8,373.8 L72.8,368.2"/><g fill="#262626" stroke="none" font-family="Helvetica" font-size="10" text-anchor="middle"><text transform="translate(72.8,392.1)"><tspan font-family="Helvetica">0</tspan></text></g></g><g fill="none" stroke="currentColor" stroke-linecap="butt" stroke-linejoin="miter" stroke-width=".5" color="#000"><path stroke="#000" d="M159.6,373.8 L159.6,368.2"/><g fill="#262626" stroke="none" font-family="Helvetica" font-size="10" text-anchor="middle"><text transform="translate(159.6,392.1)"><tspan font-family="Helvetica">20</tspan></text></g></g><g fill="none" stroke="currentColor" stroke-linecap="butt" stroke-linejoin="miter" stroke-width=".5" color="#000"><path stroke="#000" d="M246.4,373.8 L246.4,368.2"/><g fill="#262626" stroke="none" font-family="Helvetica" font-size="10" text-anchor="middle"><text transform="translate(246.4,392.1)"><tspan font-family="Helvetica">40</tspan></text></g></g><g fill="none" stroke="currentColor" stroke-linecap="butt" stroke-linejoin="miter" stroke-width=".5" color="#000"><path stroke="#000" d="M333.1,373.8 L333.1,368.2"/><g fill="#262626" stroke="none" font-family="Helvetica" font-size="10" text-anchor="middle"><text transform="translate(333.1,392.1)"><tspan font-family="Helvetica">60</tspan></text></g></g><g fill="none" stroke="currentColor" stroke-linecap="butt" stroke-linejoin="miter" stroke-width=".5" color="#000"><path stroke="#000" d="M419.9,373.8 L419.9,368.2"/><g fill="#262626" stroke="none" font-family="Helvetica" font-size="10" text-anchor="middle"><text transform="translate(419.9,392.1)"><tspan font-family="Helvetica">80</tspan></text></g></g><g fill="none" stroke="currentColor" stroke-linecap="butt" stroke-linejoin="miter" stroke-width=".5" color="#000"><path stroke="#000" d="M506.7,373.8 L506.7,368.2"/><g fill="#262626" stroke="none" font-family="Helvetica" font-size="10" text-anchor="middle"><text transform="translate(506.7,392.1)"><tspan font-family="Helvetica">100</tspan></text></g></g><g fill="none" stroke="currentColor" stroke-linecap="butt" stroke-linejoin="miter" stroke-width=".5" color="#000"><path stroke="#000" d="M72.8,31.6 L72.8,373.8 L506.7,373.8 L506.7,31.6 L72.8,31.6 Z"/></g><g id="gnuplot_plot_1a"><title>&apos;-&apos;</title><g fill="none" stroke="currentColor" stroke-linecap="butt" stroke-linejoin="miter" stroke-width="1" color="#000"><path stroke="#0071BC" d="M72.8,373.8 L72.8,348.0 L76.5,348.0 M116.2,335.0 L116.2,309.0 M112.5,335.0 L119.9,335.0 M112.5,309.0 L119.9,309.0 M159.6,278.6 L159.6,235.2 M155.9,278.6 L163.3,278.6 M155.9,235.2 L163.3,235.2 M203.0,291.6 L203.0,265.6 M199.3,291.6 L206.7,291.6 M199.3,265.6 L206.7,265.6 M246.4,213.5 L246.4,170.2 M242.7,213.5 L250.1,213.5 M242.7,170.2 L250.1,170.2 M289.8,183.2 L289.8,157.1 M286.1,183.2 L293.5,183.2 M286.1,157.1 L293.5,157.1 M333.1,131.1 L333.1,79.0 M329.4,131.1 L336.8,131.1 M329.4,79.0 L336.8,79.0 M376.5,144.1 L376.5,109.4 M372.8,144.1 L380.2,144.1 M372.8,109.4 L380.2,109.4 M419.9,53.0 L419.9,31.6 M416.2,53.0 L423.6,53.0 M463.3,74.7 L463.3,48.7 M459.6,74.7 L467.0,74.7 M459.6,48.7 L467.0,48.7 M72.8,365.4 L90.2,365.4 M90.2,369.1 L90.2,361.7 M103.2,322.0 L129.2,322.0 M103.2,325.7 L103.2,318.3 M129.2,325.7 L129.2,318.3 M137.9,256.9 L181.3,256.9 M137.9,260.6 L137.9,253.2 M181.3,260.6 L181.3,253.2 M190.0,278.6 L216.0,278.6 M190.0,282.3 L190.0,274.9 M216.0,282.3 L216.0,274.9 M224.7,191.9 L268.1,191.9 M224.7,195.6 L224.7,188.2 M268.1,195.6 L268.1,188.2 M276.7,170.2 L302.8,170.2 M276.7,173.9 L276.7,166.5 M302.8,173.9 L302.8,166.5 M307.1,105.1 L359.2,105.1 M307.1,108.8 L307.1,101.4 M359.2,108.8 L359.2,101.4 M359.2,126.8 L393.9,126.8 M359.2,130.5 L359.2,123.1 M393.9,130.5 L393.9,123.1 M406.9,40.0 L432.9,40.0 M406.9,43.7 L406.9,36.3 M432.9,43.7 L432.9,36.3 M450.3,61.7 L476.3,61.7 M450.3,65.4 L450.3,58.0 M476.3,65.4 L476.3,58.0"/></g><g fill="none" stroke="currentColor" stroke-linecap="butt" stroke-linejoin="miter" stroke-width="1" color="#000"><use color="#0071BC" transform="translate(72.8,365.4) scale(0.00)" xlink:href="#gpPt0"/><use color="#0071BC" transform="translate(116.2,322.0) scale(0.00)" xlink:href="#gpPt0"/><use color="#0071BC" transform="translate(159.6,256.9) scale(0.00)" xlink:href="#gpPt0"/><use color="#0071BC" transform="translate(203.0,278.6) scale(0.00)" xlink:href="#gpPt0"/><use color="#0071BC" transform="translate(246.4,191.9) scale(0.00)" xlink:href="#gpPt0"/><use color="#0071BC" transform="translate(289.8,170.2) scale(0.00)" xlink:href="#gpPt0"/><use color="#0071BC" transform="translate(333.1,105.1) scale(0.00)" xlink:href="#gpPt0"/><use color="#0071BC" transform="translate(376.5,126.8) scale(0.00)" xlink:href="#gpPt0"/><use color="#0071BC" transform="translate(419.9,40.0) scale(0.00)" xlink:href="#gpPt0"/><use color="#0071BC" transform="translate(463.3,61.7) scale(0.00)" xlink:href="#gpPt0"/></g></g><g id="gnuplot_plot_2a"><title>&apos;-&apos;</title><g fill="none" stroke="currentColor" stroke-linecap="butt" stroke-linejoin="miter" stroke-width="1" color="#000"><use color="#0071BC" transform="translate(72.8,365.4) scale(3.75)" xlink:href="#gpPt5"/><use color="#0071BC" transform="translate(116.2,322.0) scale(3.75)" xlink:href="#gpPt5"/><use color="#0071BC" transform="translate(159.6,256.9) scale(3.75)" xlink:href="#gpPt5"/><use color="#0071BC" transform="translate(203.0,278.6) scale(3.75)" xlink:href="#gpPt5"/><use color="#0071BC" transform="translate(246.4,191.9) scale(3.75)" xlink:href="#gpPt5"/><use color="#0071BC" transform="translate(289.8,170.2) scale(3.75)" xlink:href="#gpPt5"/><use color="#0071BC" transform="translate(333.1,105.1) scale(3.75)" xlink:href="#gpPt5"/><use color="#0071BC" transform="translate(376.5,126.8) scale(3.75)" xlink:href="#gpPt5"/><use color="#0071BC" transform="translate(419.9,40.0) scale(3.75)" xlink:href="#gpPt5"/><use color="#0071BC" transform="translate(463.3,61.7) scale(3.75)" xlink:href="#gpPt5"/></g></g><g fill="none" stroke="currentColor" stroke-linecap="butt" stroke-linejoin="miter" stroke-width=".5" color="#000"><path stroke="#000" d="M72.8,31.6 L72.8,373.8 L506.7,373.8 L506.7,31.6 L72.8,31.6 Z"/></g></g></svg>