<svg xmlns="http://www.w3.org/2000/svg" xmlns:xlink="http://www.w3.org/1999/xlink" width="560" height="420" viewBox="0 0 560 420"><title>Gnuplot</title><desc>Produced by GNUPLOT 5.4 patchlevel 0</desc><g id="gnuplot_canvas"><rect width="560" height="420" x="0" y="0" fill="none"/><defs><circle id="gpDot" r=".5" stroke="currentColor" stroke-width=".5"/><path id="gpPt0" stroke="currentColor" stroke-width=".267" d="M-1,0 h2 M0,-1 v2"/><path id="gpPt1" stroke="currentColor" stroke-width=".267" d="M-1,-1 L1,1 M1,-1 L-1,1"/><path id="gpPt2" stroke="currentColor" stroke-width=".267" d="M-1,0 L1,0 M0,-1 L0,1 M-1,-1 L1,1 M-1,1 L1,-1"/><rect id="gpPt3" width="2" height="2" x="-1" y="-1" stroke="currentColor" stroke-width=".267"/><rect id="gpPt4" width="2" height="2" x="-1" y="-1" fill="currentColor" stroke="currentColor" stroke-width=".267"/><circle id="gpPt5" cx="0" cy="0" r="1" stroke="currentColor" stroke-width=".267"/><use id="gpPt6" fill="currentColor" stroke="none" xlink:href="#gpPt5"/><path id="gpPt7" stroke="currentColor" stroke-width=".267" d="M0,-1.33 L-1.33,0.67 L1.33,0.67 z"/><use id="gpPt8" fill="currentColor" stroke="none" xlink:href="#gpPt7"/><use id="gpPt9" stroke="currentColor" transform="rotate(180)" xlink:href="#gpPt7"/><use id="gpPt10" fill="currentColor" stroke="none" xlink:href="#gpPt9"/><use id="gpPt11" stroke="currentColor" transform="rotate(45)" xlink:href="#gpPt3"/><use id="gpPt12" fill="currentColor" stroke="none" xlink:href="#gpPt11"/><path id="gpPt13" stroke="currentColor" stroke-width=".267" d="M0,1.330 L1.265,0.411 L0.782,-1.067 L-0.782,-1.076 L-1.265,0.411 z"/><use id="gpPt14" fill="currentColor" stroke="none" xlink:href="#gpPt13"/><filter id="textbox" width="1" height="1" x="0" y="0" filterUnits="objectBoundingBox"><feFlood flood-color="#fff" flood-opacity="1" result="bgnd"/><feComposite in="SourceGraphic" in2="bgnd" operator="atop"/></filter><filter id="greybox" width="1" height="1" x="0" y="0" filterUnits="objectBoundingBox"><feFlood flood-color="#d3d3d3" flood-opacity="1" result="grey"/><feComposite in="SourceGraphic" in2="grey" operator="atop"/></filter></defs><g fill="none" stroke="currentColor" stroke-linecap="butt" stroke-linejoin="miter" stroke-width=".5" color="#000"><path stroke="#000" d="M72.8,373.8 L78.4,373.8"/><g fill="#262626" stroke="none" font-family="Helvetica" font-size="10" text-anchor="end"><text transform="translate(65.8,377.1)"><tspan font-family="Helvetica">-1.5</tspan></text></g></g><g fill="none" stroke="currentColor" stroke-linecap="butt" stroke-linejoin="miter" stroke-width=".5" color="#000"><path stroke="#000" d="M72.8,316.8 L78.4,316.8"/><g fill="#262626" stroke="none" font-family="Helvetica" font-size="10" text-anchor="end"><text transform="translate(65.8,320.1)"><tspan font-family="Helvetica">-1</tspan></text></g></g><g fill="none" stroke="currentColor" stroke-linecap="butt" stroke-linejoin="miter" stroke-width=".5" color="#000"><path stroke="#000" d="M72.8,259.7 L78.4,259.7"/><g fill="#262626" stroke="none" font-family="Helvetica" font-size="10" text-anchor="end"><text transform="translate(65.8,263.0)"><tspan font-family="Helvetica">-0.5</tspan></text></g></g><g fill="none" stroke="currentColor" stroke-linecap="butt" stroke-linejoin="miter" stroke-width=".5" color="#000"><path stroke="#000" d="M72.8,202.7 L78.4,202.7"/><g fill="#262626" stroke="none" font-family="Helvetica" font-size="10" text-anchor="end"><text transform="translate(65.8,206.0)"><tspan font-family="Helvetica">0</tspan></text></g></g><g fill="none" stroke="currentColor" stroke-linecap="butt" stroke-linejoin="miter" stroke-width=".5" color="#000"><path stroke="#000" d="M72.8,145.7 L78.4,145.7"/><g fill="#262626" stroke="none" font-family="Helvetica" font-size="10" text-anchor="end"><text transform="translate(65.8,149.0)"><tspan font-family="Helvetica">0.5</tspan></text></g></g><g fill="none" stroke="currentColor" stroke-linecap="butt" stroke-linejoin="miter" stroke-width=".5" color="#000"><path stroke="#000" d="M72.8,88.6 L78.4,88.6"/><g fill="#262626" stroke="none" font-family="Helvetica" font-size="10" text-anchor="end"><text transform="translate(65.8,91.9)"><tspan font-family="Helvetica">1</tspan></text></g></g><g fill="none" stroke="currentColor" stroke-linecap="butt" stroke-linejoin="miter" stroke-width=".5" color="#000"><path stroke="#000" d="M72.8,31.6 L78.4,31.6"/><g fill="#262626" stroke="none" font-family="Helvetica" font-size="10" text-anchor="end"><text transform="translate(65.8,34.9)"><tspan font-family="Helvetica">1.5</tspan></text></g></g><g fill="none" stroke="currentColor" stroke-linecap="butt" stroke-linejoin="miter" stroke-width=".5" color="#000"><path stroke="#000" d="M72.8,373.8 L72.8,368.2"/><g fill="#262626" stroke="none" font-family="Helvetica" font-size="10" text-anchor="middle"><text transform="translate(72.8,392.1)"><tspan font-family="Helvetica">0</tspan></text></g></g><g fill="none" stroke="currentColor" stroke-linecap="butt" stroke-linejoin="miter" stroke-width=".5" color="#000"><path stroke="#000" d="M159.6,373.8 L159.6,368.2"/><g fill="#262626" stroke="none" font-family="Helvetica" font-size="10" text-anchor="middle"><text transform="translate(159.6,392.1)"><tspan font-family="Helvetica">2</tspan></text></g></g><g fill="none" stroke="currentColor" stroke-linecap="butt" stroke-linejoin="miter" stroke-width=".5" color="#000"><path stroke="#000" d="M246.4,373.8 L246.4,368.2"/><g fill="#262626" stroke="none" font-family="Helvetica" font-size="10" text-anchor="middle"><text transform="translate(246.4,392.1)"><tspan font-family="Helvetica">4</tspan></text></g></g><g fill="none" stroke="currentColor" stroke-linecap="butt" stroke-linejoin="miter" stroke-width=".5" color="#000"><path stroke="#000" d="M333.1,373.8 L333.1,368.2"/><g fill="#262626" stroke="none" font-family="Helvetica" font-size="10" text-anchor="middle"><text transform="translate(333.1,392.1)"><tspan font-family="Helvetica">6</tspan></text></g></g><g fill="none" stroke="currentColor" stroke-linecap="butt" stroke-linejoin="miter" stroke-width=".5" color="#000"><path stroke="#000" d="M419.9,373.8 L419.9,368.2"/><g fill="#262626" stroke="none" font-family="Helvetica" font-size="10" text-anchor="middle"><text transform="translate(419.9,392.1)"><tspan font-family="Helvetica">8</tspan></text></g></g><g fill="none" stroke="currentColor" stroke-linecap="butt" stroke-linejoin="miter" stroke-width=".5" color="#000"><path stroke="#000" d="M506.7,373.8 L506.7,368.2"/><g fill="#262626" stroke="none" font-family="Helvetica" font-size="10" text-anchor="middle"><text transform="translate(506.7,392.1)"><tspan font-family="Helvetica">10</tspan></text></g></g><g fill="none" stroke="currentColor" stroke-linecap="butt" stroke-linejoin="miter" stroke-width=".5" color="#000"><path stroke="#000" d="M72.8,31.6 L72.8,373.8 L506.7,373.8 L506.7,31.6 L72.8,31.6 Z"/></g><g id="gnuplot_plot_1a"><title>&apos;-&apos;</title><g fill="none" stroke="currentColor" stroke-linecap="butt" stroke-linejoin="miter" stroke-width="1" color="#000"><path stroke="red" d="M72.8,236.9 L72.8,168.5 M72.8,236.9 L91.3,236.9 M72.8,168.5 L91.3,168.5 M121.0,176.8 L121.0,108.3 M102.5,176.8 L139.5,176.8 M102.5,108.3 L139.5,108.3 M169.2,134.7 L169.2,66.3 M150.7,134.7 L187.7,134.7 M150.7,66.3 L187.7,66.3 M217.4,123.4 L217.4,54.9 M198.9,123.4 L235.9,123.4 M198.9,54.9 L235.9,54.9 M265.6,146.2 L265.6,77.8 M247.1,146.2 L284.1,146.2 M247.1,77.8 L284.1,77.8 M313.9,196.3 L313.9,127.9 M295.4,196.3 L332.4,196.3 M295.4,127.9 L332.4,127.9 M362.1,258.7 L362.1,190.2 M343.6,258.7 L380.6,258.7 M343.6,190.2 L380.6,190.2 M410.3,314.4 L410.3,246.0 M391.8,314.4 L428.8,314.4 M391.8,246.0 L428.8,246.0 M458.5,346.9 L458.5,278.5 M440.0,346.9 L477.0,346.9 M440.0,278.5 L477.0,278.5 M506.7,346.3 L506.7,277.9 M488.2,346.3 L506.7,346.3 M488.2,277.9 L506.7,277.9"/></g><g fill="none" stroke="currentColor" stroke-linecap="butt" stroke-linejoin="miter" stroke-width="1" color="#000"><use color="red" transform="translate(72.8,202.7) scale(0.00)" xlink:href="#gpPt0"/><use color="red" transform="translate(121.0,142.5) scale(0.00)" xlink:href="#gpPt0"/><use color="red" transform="translate(169.2,100.5) scale(0.00)" xlink:href="#gpPt0"/><use color="red" transform="translate(217.4,89.2) scale(0.00)" xlink:href="#gpPt0"/><use color="red" transform="translate(265.6,112.0) scale(0.00)" xlink:href="#gpPt0"/><use color="red" transform="translate(313.9,162.1) scale(0.00)" xlink:href="#gpPt0"/><use color="red" transform="translate(362.1,224.4) scale(0.00)" xlink:href="#gpPt0"/><use color="red" transform="translate(410.3,280.2) scale(0.00)" xlink:href="#gpPt0"/><use color="red" transform="translate(458.5,312.7) scale(0.00)" xlink:href="#gpPt0"/><use color="red" transform="translate(506.7,312.1) scale(0.00)" xlink:href="#gpPt0"/></g></g><g id="gnuplot_plot_2a"><title>&apos;-&apos;</title><g fill="none" stroke="currentColor" stroke-linecap="butt" stroke-linejoin="miter" stroke-width=".5" color="#000"><path stroke="red" d="M72.8,202.7 L121.0,142.5 L169.2,100.5 L217.4,89.2 L265.6,112.0 L313.9,162.1 L362.1,224.4 L410.3,280.2 L458.5,312.7 L506.7,312.1"/><use color="red" transform="translate(72.8,202.7) scale(6.25)" xlink:href="#gpPt2"/><use color="red" transform="translate(121.0,142.5) scale(6.25)" xlink:href="#gpPt2"/><use color="red" transform="translate(169.2,100.5) scale(6.25)" xlink:href="#gpPt2"/><use color="red" transform="translate(217.4,89.2) scale(6.25)" xlink:href="#gpPt2"/><use color="red" transform="translate(265.6,112.0) scale(6.25)" xlink:href="#gpPt2"/><use color="red" transform="translate(313.9,162.1) scale(6.25)" xlink:href="#gpPt2"/><use color="red" transform="translate(362.1,224.4) scale(6.25)" xlink:href="#gpPt2"/><use color="red" transform="translate(410.3,280.2) scale(6.25)" xlink:href="#gpPt2"/><use color="red" transform="translate(458.5,312.7) scale(6.25)" xlink:href="#gpPt2"/><use color="red" transform="translate(506.7,312.1) scale(6.25)" xlink:href="#gpPt2"/></g></g><g fill="none" stroke="currentColor" stroke-linecap="butt" stroke-linejoin="miter" stroke-width=".5" color="#000"><path stroke="#000" d="M72.8,31.6 L72.8,373.8 L506.7,373.8 L506.7,31.6 L72.8,31.6 Z"/></g></g></svg>