<svg xmlns="http://www.w3.org/2000/svg" xmlns:xlink="http://www.w3.org/1999/xlink" width="560" height="420" viewBox="0 0 560 420"><title>Gnuplot</title><desc>Produced by GNUPLOT 5.4 patchlevel 0</desc><g id="gnuplot_canvas"><rect width="560" height="420" x="0" y="0" fill="none"/><defs><circle id="gpDot" r=".5" stroke="currentColor" stroke-width=".5"/><path id="gpPt0" stroke="currentColor" stroke-width=".267" d="M-1,0 h2 M0,-1 v2"/><path id="gpPt1" stroke="currentColor" stroke-width=".267" d="M-1,-1 L1,1 M1,-1 L-1,1"/><path id="gpPt2" stroke="currentColor" stroke-width=".267" d="M-1,0 L1,0 M0,-1 L0,1 M-1,-1 L1,1 M-1,1 L1,-1"/><rect id="gpPt3" width="2" height="2" x="-1" y="-1" stroke="currentColor" stroke-width=".267"/><rect id="gpPt4" width="2" height="2" x="-1" y="-1" fill="currentColor" stroke="currentColor" stroke-width=".267"/><circle id="gpPt5" cx="0" cy="0" r="1" stroke="currentColor" stroke-width=".267"/><use id="gpPt6" fill="currentColor" stroke="none" xlink:href="#gpPt5"/><path id="gpPt7" stroke="currentColor" stroke-width=".267" d="M0,-1.33 L-1.33,0.67 L1.33,0.67 z"/><use id="gpPt8" fill="currentColor" stroke="none" xlink:href="#gpPt7"/><use id="gpPt9" stroke="currentColor" transform="rotate(180)" xlink:href="#gpPt7"/><use id="gpPt10" fill="currentColor" stroke="none" xlink:href="#gpPt9"/><use id="gpPt11" stroke="currentColor" transform="rotate(45)" xlink:href="#gpPt3"/><use id="gpPt12" fill="currentColor" stroke="none" xlink:href="#gpPt11"/><path id="gpPt13" stroke="currentColor" stroke-width=".267" d="M0,1.330 L1.265,0.411 L0.782,-1.067 L-0.782,-1.076 L-1.265,0.411 z"/><use id="gpPt14" fill="currentColor" stroke="none" xlink:href="#gpPt13"/><filter id="textbox" width="1" height="1" x="0" y="0" filterUnits="objectBoundingBox"><feFlood flood-color="#fff" flood-opacity="1" result="bgnd"/><feComposite in="SourceGraphic" in2="bgnd" operator="atop"/></filter><filter id="greybox" width="1" height="1" x="0" y="0" filterUnits="objectBoundingBox"><feFlood flood-color="#d3d3d3" flood-opacity="1" result="grey"/><feComposite in="SourceGraphic" in2="grey" operator="atop"/></filter></defs><g fill="none" stroke="currentColor" stroke-linecap="butt" stroke-linejoin="miter" stroke-width=".5" color="#000"><path stroke="#000" d="M72.8,373.8 L78.4,373.8"/><g fill="#0071BC" stroke="none" font-family="Helvetica" font-size="10" text-anchor="end"><text transform="translate(65.8,377.1)"><tspan font-family="Helvetica">0</tspan></text></g></g><g fill="none" stroke="currentColor" stroke-linecap="butt" stroke-linejoin="miter" stroke-width=".5" color="#000"><path stroke="#000" d="M72.8,322.8 L78.4,322.8"/><g fill="#0071BC" stroke="none" font-family="Helvetica" font-size="10" text-anchor="end"><text transform="translate(65.8,326.1)"><tspan font-family="Helvetica">500</tspan></text></g></g><g fill="none" stroke="currentColor" stroke-linecap="butt" stroke-linejoin="miter" stroke-width=".5" color="#000"><path stroke="#000" d="M72.8,271.7 L78.4,271.7"/><g fill="#0071BC" stroke="none" font-family="Helvetica" font-size="10" text-anchor="end"><text transform="translate(65.8,275.0)"><tspan font-family="Helvetica">1000</tspan></text></g></g><g fill="none" stroke="currentColor" stroke-linecap="butt" stroke-linejoin="miter" stroke-width=".5" color="#000"><path stroke="#000" d="M72.8,220.7 L78.4,220.7"/><g fill="#0071BC" stroke="none" font-family="Helvetica" font-size="10" text-anchor="end"><text transform="translate(65.8,224.0)"><tspan font-family="Helvetica">1500</tspan></text></g></g><g fill="none" stroke="currentColor" stroke-linecap="butt" stroke-linejoin="miter" stroke-width=".5" color="#000"><path stroke="#000" d="M72.8,169.6 L78.4,169.6"/><g fill="#0071BC" stroke="none" font-family="Helvetica" font-size="10" text-anchor="end"><text transform="translate(65.8,172.9)"><tspan font-family="Helvetica">2000</tspan></text></g></g><g fill="none" stroke="currentColor" stroke-linecap="butt" stroke-linejoin="miter" stroke-width=".5" color="#000"><path stroke="#000" d="M72.8,118.6 L78.4,118.6"/><g fill="#0071BC" stroke="none" font-family="Helvetica" font-size="10" text-anchor="end"><text transform="translate(65.8,121.9)"><tspan font-family="Helvetica">2500</tspan></text></g></g><g fill="none" stroke="currentColor" stroke-linecap="butt" stroke-linejoin="miter" stroke-width=".5" color="#000"><path stroke="#000" d="M72.8,67.5 L78.4,67.5"/><g fill="#0071BC" stroke="none" font-family="Helvetica" font-size="10" text-anchor="end"><text transform="translate(65.8,70.8)"><tspan font-family="Helvetica">3000</tspan></text></g></g><g fill="none" stroke="currentColor" stroke-linecap="butt" stroke-linejoin="miter" stroke-width=".5" color="#000"><path stroke="#000" d="M109.0,373.8 L109.0,368.2"/><g fill="#262626" stroke="none" font-family="Helvetica" font-size="10" text-anchor="middle"><text transform="translate(109.0,392.1)"><tspan font-family="Helvetica">Julia</tspan></text></g></g><g fill="none" stroke="currentColor" stroke-linecap="butt" stroke-linejoin="miter" stroke-width=".5" color="#000"><path stroke="#000" d="M181.3,373.8 L181.3,368.2"/><g fill="#262626" stroke="none" font-family="Helvetica" font-size="10" text-anchor="middle"><text transform="translate(181.3,392.1)"><tspan font-family="Helvetica">Pat</tspan></text></g></g><g fill="none" stroke="currentColor" stroke-linecap="butt" stroke-linejoin="miter" stroke-width=".5" color="#000"><path stroke="#000" d="M253.6,373.8 L253.6,368.2"/><g fill="#262626" stroke="none" font-family="Helvetica" font-size="10" text-anchor="middle"><text transform="translate(253.6,392.1)"><tspan font-family="Helvetica">Max</tspan></text></g></g><g fill="none" stroke="currentColor" stroke-linecap="butt" stroke-linejoin="miter" stroke-width=".5" color="#000"><path stroke="#000" d="M325.9,373.8 L325.9,368.2"/><g fill="#262626" stroke="none" font-family="Helvetica" font-size="10" text-anchor="middle"><text transform="translate(325.9,392.1)"><tspan font-family="Helvetica">Norman</tspan></text></g></g><g fill="none" stroke="currentColor" stroke-linecap="butt" stroke-linejoin="miter" stroke-width=".5" color="#000"><path stroke="#000" d="M398.2,373.8 L398.2,368.2"/><g fill="#262626" stroke="none" font-family="Helvetica" font-size="10" text-anchor="middle"><text transform="translate(398.2,392.1)"><tspan font-family="Helvetica">Fred</tspan></text></g></g><g fill="none" stroke="currentColor" stroke-linecap="butt" stroke-linejoin="miter" stroke-width=".5" color="#000"><path stroke="#000" d="M470.5,373.8 L470.5,368.2"/><g fill="#262626" stroke="none" font-family="Helvetica" font-size="10" text-anchor="middle"><text transform="translate(470.5,392.1)"><tspan font-family="Helvetica">Ginger</tspan></text></g></g><g fill="none" stroke="currentColor" stroke-linecap="butt" stroke-linejoin="miter" stroke-width=".5" color="#000"><path stroke="#000" d="M506.7,373.8 L501.1,373.8"/><g fill="#D85218" stroke="none" font-family="Helvetica" font-size="10" text-anchor="start"><text transform="translate(513.7,377.1)"><tspan font-family="Helvetica">0%</tspan></text></g></g><g fill="none" stroke="currentColor" stroke-linecap="butt" stroke-linejoin="miter" stroke-width=".5" color="#000"><path stroke="#000" d="M506.7,339.6 L501.1,339.6"/><g fill="#D85218" stroke="none" font-family="Helvetica" font-size="10" text-anchor="start"><text transform="translate(513.7,342.9)"><tspan font-family="Helvetica">10%</tspan></text></g></g><g fill="none" stroke="currentColor" stroke-linecap="butt" stroke-linejoin="miter" stroke-width=".5" color="#000"><path stroke="#000" d="M506.7,305.4 L501.1,305.4"/><g fill="#D85218" stroke="none" font-family="Helvetica" font-size="10" text-anchor="start"><text transform="translate(513.7,308.7)"><tspan font-family="Helvetica">20%</tspan></text></g></g><g fill="none" stroke="currentColor" stroke-linecap="butt" stroke-linejoin="miter" stroke-width=".5" color="#000"><path stroke="#000" d="M506.7,271.1 L501.1,271.1"/><g fill="#D85218" stroke="none" font-family="Helvetica" font-size="10" text-anchor="start"><text transform="translate(513.7,274.4)"><tspan font-family="Helvetica">30%</tspan></text></g></g><g fill="none" stroke="currentColor" stroke-linecap="butt" stroke-linejoin="miter" stroke-width=".5" color="#000"><path stroke="#000" d="M506.7,236.9 L501.1,236.9"/><g fill="#D85218" stroke="none" font-family="Helvetica" font-size="10" text-anchor="start"><text transform="translate(513.7,240.2)"><tspan font-family="Helvetica">40%</tspan></text></g></g><g fill="none" stroke="currentColor" stroke-linecap="butt" stroke-linejoin="miter" stroke-width=".5" color="#000"><path stroke="#000" d="M506.7,202.7 L501.1,202.7"/><g fill="#D85218" stroke="none" font-family="Helvetica" font-size="10" text-anchor="start"><text transform="translate(513.7,206.0)"><tspan font-family="Helvetica">50%</tspan></text></g></g><g fill="none" stroke="currentColor" stroke-linecap="butt" stroke-linejoin="miter" stroke-width=".5" color="#000"><path stroke="#000" d="M506.7,168.5 L501.1,168.5"/><g fill="#D85218" stroke="none" font-family="Helvetica" font-size="10" text-anchor="start"><text transform="translate(513.7,171.8)"><tspan font-family="Helvetica">60%</tspan></text></g></g><g fill="none" stroke="currentColor" stroke-linecap="butt" stroke-linejoin="miter" stroke-width=".5" color="#000"><path stroke="#000" d="M506.7,134.3 L501.1,134.3"/><g fill="#D85218" stroke="none" font-family="Helvetica" font-size="10" text-anchor="start"><text transform="translate(513.7,137.6)"><tspan font-family="Helvetica">70%</tspan></text></g></g><g fill="none" stroke="currentColor" stroke-linecap="butt" stroke-linejoin="miter" stroke-width=".5" color="#000"><path stroke="#000" d="M506.7,100.0 L501.1,100.0"/><g fill="#D85218" stroke="none" font-family="Helvetica" font-size="10" text-anchor="start"><text transform="translate(513.7,103.3)"><tspan font-family="Helvetica">80%</tspan></text></g></g><g fill="none" stroke="currentColor" stroke-linecap="butt" stroke-linejoin="miter" stroke-width=".5" color="#000"><path stroke="#000" d="M506.7,65.8 L501.1,65.8"/><g fill="#D85218" stroke="none" font-family="Helvetica" font-size="10" text-anchor="start"><text transform="translate(513.7,69.1)"><tspan font-family="Helvetica">90%</tspan></text></g></g><g fill="none" stroke="currentColor" stroke-linecap="butt" stroke-linejoin="miter" stroke-width=".5" color="#000"><path stroke="#000" d="M506.7,31.6 L501.1,31.6"/><g fill="#D85218" stroke="none" font-family="Helvetica" font-size="10" text-anchor="start"><text transform="translate(513.7,34.9)"><tspan font-family="Helvetica">100%</tspan></text></g></g><g fill="none" stroke="currentColor" stroke-linecap="butt" stroke-linejoin="miter" stroke-width="1" color="#000"><path stroke="#000" d="M72.8,373.8 L506.7,373.8"/></g><g fill="none" stroke="currentColor" stroke-linecap="butt" stroke-linejoin="miter" stroke-width=".5" color="#000"><path stroke="#000" d="M72.8,31.6 L72.8,373.8 L506.7,373.8 L506.7,31.6 L72.8,31.6 Z"/></g><g id="gnuplot_plot_1a"><title>&apos;-&apos;</title><g fill="none" stroke="currentColor" stroke-linecap="butt" stroke-linejoin="miter" stroke-width="1" color="#000"><path stroke="#0071BC" d="M109.0,269.3 L181.3,199.1 L253.6,137.1 L325.9,80.4 L398.2,60.0 L470.5,47.7 L506.7,42.6"/></g></g><g id="gnuplot_plot_2a"><title>&apos;-&apos;</title><g fill="none" stroke="currentColor" stroke-linecap="butt" stroke-linejoin="miter" stroke-width=".5" color="#000"><g stroke="none" shape-rendering="crispEdges"><polygon fill="#0071BC" points="80 373.8 138 373.8 138 269.2 80 269.2"/></g><path stroke="#000" d="M80.0,373.8 L80.0,269.3 L137.9,269.3 L137.9,373.8 L80.0,373.8 Z"/></g><g fill="none" stroke="currentColor" stroke-linecap="butt" stroke-linejoin="miter" stroke-width=".5" color="#000"><g stroke="none" shape-rendering="crispEdges"><polygon fill="#0071BC" points="152.3 373.8 210.3 373.8 210.3 303.6 152.3 303.6"/></g><path stroke="#000" d="M152.3,373.8 L152.3,303.7 L210.2,303.7 L210.2,373.8 L152.3,373.8 Z"/></g><g fill="none" stroke="currentColor" stroke-linecap="butt" stroke-linejoin="miter" stroke-width=".5" color="#000"><g stroke="none" shape-rendering="crispEdges"><polygon fill="#0071BC" points="224.7 373.8 282.6 373.8 282.6 311.6 224.7 311.6"/></g><path stroke="#000" d="M224.7,373.8 L224.7,311.7 L282.5,311.7 L282.5,373.8 L224.7,373.8 Z"/></g><g fill="none" stroke="currentColor" stroke-linecap="butt" stroke-linejoin="miter" stroke-width=".5" color="#000"><g stroke="none" shape-rendering="crispEdges"><polygon fill="#0071BC" points="297 373.8 354.9 373.8 354.9 317 297 317"/></g><path stroke="#000" d="M297.0,373.8 L297.0,317.1 L354.8,317.1 L354.8,373.8 L297.0,373.8 Z"/></g><g fill="none" stroke="currentColor" stroke-linecap="butt" stroke-linejoin="miter" stroke-width=".5" color="#000"><g stroke="none" shape-rendering="crispEdges"><polygon fill="#0071BC" points="369.3 373.8 427.3 373.8 427.3 353.3 369.3 353.3"/></g><path stroke="#000" d="M369.3,373.8 L369.3,353.4 L427.2,353.4 L427.2,373.8 L369.3,373.8 Z"/></g><g fill="none" stroke="currentColor" stroke-linecap="butt" stroke-linejoin="miter" stroke-width=".5" color="#000"><g stroke="none" shape-rendering="crispEdges"><polygon fill="#0071BC" points="441.6 373.8 499.6 373.8 499.6 361.4 441.6 361.4"/></g><path stroke="#000" d="M441.6,373.8 L441.6,361.5 L499.5,361.5 L499.5,373.8 L441.6,373.8 Z"/></g></g><g fill="none" stroke="currentColor" stroke-linecap="butt" stroke-linejoin="miter" stroke-width=".5" color="#000"><path stroke="#000" d="M72.8,31.6 L72.8,373.8 L506.7,373.8 L506.7,31.6 L72.8,31.6 Z"/></g><g fill="none" stroke="currentColor" stroke-linecap="butt" stroke-linejoin="miter" stroke-width=".5" color="#000"><g fill="#000" stroke="none" font-family="Helvetica" font-size="11" text-anchor="middle"><text transform="translate(289.7,11.2)"><tspan font-family="Helvetica" font-weight="bold">Lines of Code by Programmer</tspan></text></g></g></g></svg>