<svg xmlns="http://www.w3.org/2000/svg" xmlns:xlink="http://www.w3.org/1999/xlink" width="560" height="420" viewBox="0 0 560 420"><title>Gnuplot</title><desc>Produced by GNUPLOT 5.4 patchlevel 0</desc><g id="gnuplot_canvas"><rect width="560" height="420" x="0" y="0" fill="none"/><defs><circle id="gpDot" r=".5" stroke="currentColor" stroke-width=".5"/><path id="gpPt0" stroke="currentColor" stroke-width=".267" d="M-1,0 h2 M0,-1 v2"/><path id="gpPt1" stroke="currentColor" stroke-width=".267" d="M-1,-1 L1,1 M1,-1 L-1,1"/><path id="gpPt2" stroke="currentColor" stroke-width=".267" d="M-1,0 L1,0 M0,-1 L0,1 M-1,-1 L1,1 M-1,1 L1,-1"/><rect id="gpPt3" width="2" height="2" x="-1" y="-1" stroke="currentColor" stroke-width=".267"/><rect id="gpPt4" width="2" height="2" x="-1" y="-1" fill="currentColor" stroke="currentColor" stroke-width=".267"/><circle id="gpPt5" cx="0" cy="0" r="1" stroke="currentColor" stroke-width=".267"/><use id="gpPt6" fill="currentColor" stroke="none" xlink:href="#gpPt5"/><path id="gpPt7" stroke="currentColor" stroke-width=".267" d="M0,-1.33 L-1.33,0.67 L1.33,0.67 z"/><use id="gpPt8" fill="currentColor" stroke="none" xlink:href="#gpPt7"/><use id="gpPt9" stroke="currentColor" transform="rotate(180)" xlink:href="#gpPt7"/><use id="gpPt10" fill="currentColor" stroke="none" xlink:href="#gpPt9"/><use id="gpPt11" stroke="currentColor" transform="rotate(45)" xlink:href="#gpPt3"/><use id="gpPt12" fill="currentColor" stroke="none" xlink:href="#gpPt11"/><path id="gpPt13" stroke="currentColor" stroke-width=".267" d="M0,1.330 L1.265,0.411 L0.782,-1.067 L-0.782,-1.076 L-1.265,0.411 z"/><use id="gpPt14" fill="currentColor" stroke="none" xlink:href="#gpPt13"/><filter id="textbox" width="1" height="1" x="0" y="0" filterUnits="objectBoundingBox"><feFlood flood-color="#fff" flood-opacity="1" result="bgnd"/><feComposite in="SourceGraphic" in2="bgnd" operator="atop"/></filter><filter id="greybox" width="1" height="1" x="0" y="0" filterUnits="objectBoundingBox"><feFlood flood-color="#d3d3d3" flood-opacity="1" result="grey"/><feComposite in="SourceGraphic" in2="grey" operator="atop"/></filter></defs><g fill="none" stroke="currentColor" stroke-linecap="butt" stroke-linejoin="miter" stroke-width=".5" color="#000"><path stroke="#000" d="M72.8,373.8 L78.4,373.8"/><g fill="#262626" stroke="none" font-family="Helvetica" font-size="10" text-anchor="end"><text transform="translate(65.8,377.1)"><tspan font-family="Helvetica">-2</tspan></text></g></g><g fill="none" stroke="currentColor" stroke-linecap="butt" stroke-linejoin="miter" stroke-width=".5" color="#000"><path stroke="#000" d="M72.8,335.8 L78.4,335.8"/><g fill="#262626" stroke="none" font-family="Helvetica" font-size="10" text-anchor="end"><text transform="translate(65.8,339.1)"><tspan font-family="Helvetica">-1.5</tspan></text></g></g><g fill="none" stroke="currentColor" stroke-linecap="butt" stroke-linejoin="miter" stroke-width=".5" color="#000"><path stroke="#000" d="M72.8,297.8 L78.4,297.8"/><g fill="#262626" stroke="none" font-family="Helvetica" font-size="10" text-anchor="end"><text transform="translate(65.8,301.1)"><tspan font-family="Helvetica">-1</tspan></text></g></g><g fill="none" stroke="currentColor" stroke-linecap="butt" stroke-linejoin="miter" stroke-width=".5" color="#000"><path stroke="#000" d="M72.8,259.7 L78.4,259.7"/><g fill="#262626" stroke="none" font-family="Helvetica" font-size="10" text-anchor="end"><text transform="translate(65.8,263.0)"><tspan font-family="Helvetica">-0.5</tspan></text></g></g><g fill="none" stroke="currentColor" stroke-linecap="butt" stroke-linejoin="miter" stroke-width=".5" color="#000"><path stroke="#000" d="M72.8,221.7 L78.4,221.7"/><g fill="#262626" stroke="none" font-family="Helvetica" font-size="10" text-anchor="end"><text transform="translate(65.8,225.0)"><tspan font-family="Helvetica">0</tspan></text></g></g><g fill="none" stroke="currentColor" stroke-linecap="butt" stroke-linejoin="miter" stroke-width=".5" color="#000"><path stroke="#000" d="M72.8,183.7 L78.4,183.7"/><g fill="#262626" stroke="none" font-family="Helvetica" font-size="10" text-anchor="end"><text transform="translate(65.8,187.0)"><tspan font-family="Helvetica">0.5</tspan></text></g></g><g fill="none" stroke="currentColor" stroke-linecap="butt" stroke-linejoin="miter" stroke-width=".5" color="#000"><path stroke="#000" d="M72.8,145.7 L78.4,145.7"/><g fill="#262626" stroke="none" font-family="Helvetica" font-size="10" text-anchor="end"><text transform="translate(65.8,149.0)"><tspan font-family="Helvetica">1</tspan></text></g></g><g fill="none" stroke="currentColor" stroke-linecap="butt" stroke-linejoin="miter" stroke-width=".5" color="#000"><path stroke="#000" d="M72.8,107.6 L78.4,107.6"/><g fill="#262626" stroke="none" font-family="Helvetica" font-size="10" text-anchor="end"><text transform="translate(65.8,110.9)"><tspan font-family="Helvetica">1.5</tspan></text></g></g><g fill="none" stroke="currentColor" stroke-linecap="butt" stroke-linejoin="miter" stroke-width=".5" color="#000"><path stroke="#000" d="M72.8,69.6 L78.4,69.6"/><g fill="#262626" stroke="none" font-family="Helvetica" font-size="10" text-anchor="end"><text transform="translate(65.8,72.9)"><tspan font-family="Helvetica">2</tspan></text></g></g><g fill="none" stroke="currentColor" stroke-linecap="butt" stroke-linejoin="miter" stroke-width=".5" color="#000"><path stroke="#000" d="M72.8,31.6 L78.4,31.6"/><g fill="#262626" stroke="none" font-family="Helvetica" font-size="10" text-anchor="end"><text transform="translate(65.8,34.9)"><tspan font-family="Helvetica">2.5</tspan></text></g></g><g fill="none" stroke="currentColor" stroke-linecap="butt" stroke-linejoin="miter" stroke-width=".5" color="#000"><path stroke="#000" d="M72.8,373.8 L72.8,368.2"/><g fill="#262626" stroke="none" font-family="Helvetica" font-size="10" text-anchor="middle"><text transform="translate(72.8,392.1)"><tspan font-family="Helvetica">0.00</tspan></text></g></g><g fill="none" stroke="currentColor" stroke-linecap="butt" stroke-linejoin="miter" stroke-width=".5" color="#000"><path stroke="#000" d="M159.6,373.8 L159.6,368.2"/><g fill="#262626" stroke="none" font-family="Helvetica" font-size="10" text-anchor="middle"><text transform="translate(159.6,392.1)"><tspan font-family="Helvetica">0.20</tspan></text></g></g><g fill="none" stroke="currentColor" stroke-linecap="butt" stroke-linejoin="miter" stroke-width=".5" color="#000"><path stroke="#000" d="M246.4,373.8 L246.4,368.2"/><g fill="#262626" stroke="none" font-family="Helvetica" font-size="10" text-anchor="middle"><text transform="translate(246.4,392.1)"><tspan font-family="Helvetica">0.40</tspan></text></g></g><g fill="none" stroke="currentColor" stroke-linecap="butt" stroke-linejoin="miter" stroke-width=".5" color="#000"><path stroke="#000" d="M333.1,373.8 L333.1,368.2"/><g fill="#262626" stroke="none" font-family="Helvetica" font-size="10" text-anchor="middle"><text transform="translate(333.1,392.1)"><tspan font-family="Helvetica">0.60</tspan></text></g></g><g fill="none" stroke="currentColor" stroke-linecap="butt" stroke-linejoin="miter" stroke-width=".5" color="#000"><path stroke="#000" d="M419.9,373.8 L419.9,368.2"/><g fill="#262626" stroke="none" font-family="Helvetica" font-size="10" text-anchor="middle"><text transform="translate(419.9,392.1)"><tspan font-family="Helvetica">0.80</tspan></text></g></g><g fill="none" stroke="currentColor" stroke-linecap="butt" stroke-linejoin="miter" stroke-width=".5" color="#000"><path stroke="#000" d="M506.7,373.8 L506.7,368.2"/><g fill="#262626" stroke="none" font-family="Helvetica" font-size="10" text-anchor="middle"><text transform="translate(506.7,392.1)"><tspan font-family="Helvetica">1.00</tspan></text></g></g><g fill="none" stroke="currentColor" stroke-linecap="butt" stroke-linejoin="miter" stroke-width=".5" color="#000"><path stroke="#000" d="M72.8,31.6 L72.8,373.8 L506.7,373.8 L506.7,31.6 L72.8,31.6 Z"/></g><g id="gnuplot_plot_1a"><title>&apos;-&apos;</title><g fill="none" stroke="currentColor" stroke-linecap="butt" stroke-linejoin="miter" stroke-width="1" color="#000"><use color="#0071BC" transform="translate(72.8,146.4) scale(3.75)" xlink:href="#gpPt5"/><use color="#0071BC" transform="translate(77.2,251.6) scale(3.75)" xlink:href="#gpPt5"/><use color="#0071BC" transform="translate(81.6,225.0) scale(3.75)" xlink:href="#gpPt5"/><use color="#0071BC" transform="translate(85.9,209.8) scale(3.75)" xlink:href="#gpPt5"/><use color="#0071BC" transform="translate(90.3,31.6) scale(3.75)" xlink:href="#gpPt5"/><use color="#0071BC" transform="translate(94.7,222.1) scale(3.75)" xlink:href="#gpPt5"/><use color="#0071BC" transform="translate(99.1,275.9) scale(3.75)" xlink:href="#gpPt5"/><use color="#0071BC" transform="translate(103.5,158.5) scale(3.75)" xlink:href="#gpPt5"/><use color="#0071BC" transform="translate(107.9,256.8) scale(3.75)" xlink:href="#gpPt5"/><use color="#0071BC" transform="translate(112.2,303.8) scale(3.75)" xlink:href="#gpPt5"/><use color="#0071BC" transform="translate(116.6,233.3) scale(3.75)" xlink:href="#gpPt5"/><use color="#0071BC" transform="translate(121.0,177.5) scale(3.75)" xlink:href="#gpPt5"/><use color="#0071BC" transform="translate(125.4,177.3) scale(3.75)" xlink:href="#gpPt5"/><use color="#0071BC" transform="translate(129.8,272.3) scale(3.75)" xlink:href="#gpPt5"/><use color="#0071BC" transform="translate(134.2,249.9) scale(3.75)" xlink:href="#gpPt5"/><use color="#0071BC" transform="translate(138.5,258.0) scale(3.75)" xlink:href="#gpPt5"/><use color="#0071BC" transform="translate(142.9,97.0) scale(3.75)" xlink:href="#gpPt5"/><use color="#0071BC" transform="translate(147.3,204.1) scale(3.75)" xlink:href="#gpPt5"/><use color="#0071BC" transform="translate(151.7,268.5) scale(3.75)" xlink:href="#gpPt5"/><use color="#0071BC" transform="translate(156.1,122.4) scale(3.75)" xlink:href="#gpPt5"/><use color="#0071BC" transform="translate(160.5,248.5) scale(3.75)" xlink:href="#gpPt5"/><use color="#0071BC" transform="translate(164.8,306.3) scale(3.75)" xlink:href="#gpPt5"/><use color="#0071BC" transform="translate(169.2,164.5) scale(3.75)" xlink:href="#gpPt5"/><use color="#0071BC" transform="translate(173.6,353.3) scale(3.75)" xlink:href="#gpPt5"/><use color="#0071BC" transform="translate(178.0,207.9) scale(3.75)" xlink:href="#gpPt5"/><use color="#0071BC" transform="translate(182.4,315.5) scale(3.75)" xlink:href="#gpPt5"/><use color="#0071BC" transform="translate(186.8,270.8) scale(3.75)" xlink:href="#gpPt5"/><use color="#0071BC" transform="translate(191.1,170.7) scale(3.75)" xlink:href="#gpPt5"/><use color="#0071BC" transform="translate(195.5,141.0) scale(3.75)" xlink:href="#gpPt5"/><use color="#0071BC" transform="translate(199.9,243.2) scale(3.75)" xlink:href="#gpPt5"/><use color="#0071BC" transform="translate(204.3,119.8) scale(3.75)" xlink:href="#gpPt5"/><use color="#0071BC" transform="translate(208.7,287.6) scale(3.75)" xlink:href="#gpPt5"/><use color="#0071BC" transform="translate(213.1,177.8) scale(3.75)" xlink:href="#gpPt5"/><use color="#0071BC" transform="translate(217.4,281.4) scale(3.75)" xlink:href="#gpPt5"/><use color="#0071BC" transform="translate(221.8,248.9) scale(3.75)" xlink:href="#gpPt5"/><use color="#0071BC" transform="translate(226.2,109.5) scale(3.75)" xlink:href="#gpPt5"/><use color="#0071BC" transform="translate(230.6,226.9) scale(3.75)" xlink:href="#gpPt5"/><use color="#0071BC" transform="translate(235.0,210.9) scale(3.75)" xlink:href="#gpPt5"/><use color="#0071BC" transform="translate(239.3,191.8) scale(3.75)" xlink:href="#gpPt5"/><use color="#0071BC" transform="translate(243.7,239.3) scale(3.75)" xlink:href="#gpPt5"/><use color="#0071BC" transform="translate(248.1,192.7) scale(3.75)" xlink:href="#gpPt5"/><use color="#0071BC" transform="translate(252.5,194.8) scale(3.75)" xlink:href="#gpPt5"/><use color="#0071BC" transform="translate(256.9,261.2) scale(3.75)" xlink:href="#gpPt5"/><use color="#0071BC" transform="translate(261.3,191.8) scale(3.75)" xlink:href="#gpPt5"/><use color="#0071BC" transform="translate(265.6,172.7) scale(3.75)" xlink:href="#gpPt5"/><use color="#0071BC" transform="translate(270.0,226.6) scale(3.75)" xlink:href="#gpPt5"/><use color="#0071BC" transform="translate(274.4,246.7) scale(3.75)" xlink:href="#gpPt5"/><use color="#0071BC" transform="translate(278.8,168.5) scale(3.75)" xlink:href="#gpPt5"/><use color="#0071BC" transform="translate(283.2,226.2) scale(3.75)" xlink:href="#gpPt5"/><use color="#0071BC" transform="translate(287.6,245.1) scale(3.75)" xlink:href="#gpPt5"/><use color="#0071BC" transform="translate(291.9,225.6) scale(3.75)" xlink:href="#gpPt5"/><use color="#0071BC" transform="translate(296.3,211.0) scale(3.75)" xlink:href="#gpPt5"/><use color="#0071BC" transform="translate(300.7,301.1) scale(3.75)" xlink:href="#gpPt5"/><use color="#0071BC" transform="translate(305.1,236.4) scale(3.75)" xlink:href="#gpPt5"/><use color="#0071BC" transform="translate(309.5,269.4) scale(3.75)" xlink:href="#gpPt5"/><use color="#0071BC" transform="translate(313.9,173.2) scale(3.75)" xlink:href="#gpPt5"/><use color="#0071BC" transform="translate(318.2,309.7) scale(3.75)" xlink:href="#gpPt5"/><use color="#0071BC" transform="translate(322.6,124.3) scale(3.75)" xlink:href="#gpPt5"/><use color="#0071BC" transform="translate(327.0,290.9) scale(3.75)" xlink:href="#gpPt5"/><use color="#0071BC" transform="translate(331.4,319.2) scale(3.75)" xlink:href="#gpPt5"/><use color="#0071BC" transform="translate(335.8,111.5) scale(3.75)" xlink:href="#gpPt5"/><use color="#0071BC" transform="translate(340.2,241.4) scale(3.75)" xlink:href="#gpPt5"/><use color="#0071BC" transform="translate(344.5,256.8) scale(3.75)" xlink:href="#gpPt5"/><use color="#0071BC" transform="translate(348.9,253.2) scale(3.75)" xlink:href="#gpPt5"/><use color="#0071BC" transform="translate(353.3,185.8) scale(3.75)" xlink:href="#gpPt5"/><use color="#0071BC" transform="translate(357.7,169.9) scale(3.75)" xlink:href="#gpPt5"/><use color="#0071BC" transform="translate(362.1,304.9) scale(3.75)" xlink:href="#gpPt5"/><use color="#0071BC" transform="translate(366.4,261.0) scale(3.75)" xlink:href="#gpPt5"/><use color="#0071BC" transform="translate(370.8,206.7) scale(3.75)" xlink:href="#gpPt5"/><use color="#0071BC" transform="translate(375.2,211.3) scale(3.75)" xlink:href="#gpPt5"/><use color="#0071BC" transform="translate(379.6,233.8) scale(3.75)" xlink:href="#gpPt5"/><use color="#0071BC" transform="translate(384.0,226.3) scale(3.75)" xlink:href="#gpPt5"/><use color="#0071BC" transform="translate(388.4,150.6) scale(3.75)" xlink:href="#gpPt5"/><use color="#0071BC" transform="translate(392.7,237.3) scale(3.75)" xlink:href="#gpPt5"/><use color="#0071BC" transform="translate(397.1,173.6) scale(3.75)" xlink:href="#gpPt5"/><use color="#0071BC" transform="translate(401.5,100.7) scale(3.75)" xlink:href="#gpPt5"/><use color="#0071BC" transform="translate(405.9,279.5) scale(3.75)" xlink:href="#gpPt5"/><use color="#0071BC" transform="translate(410.3,265.7) scale(3.75)" xlink:href="#gpPt5"/><use color="#0071BC" transform="translate(414.7,229.3) scale(3.75)" xlink:href="#gpPt5"/><use color="#0071BC" transform="translate(419.0,180.0) scale(3.75)" xlink:href="#gpPt5"/><use color="#0071BC" transform="translate(423.4,213.3) scale(3.75)" xlink:href="#gpPt5"/><use color="#0071BC" transform="translate(427.8,220.9) scale(3.75)" xlink:href="#gpPt5"/><use color="#0071BC" transform="translate(432.2,172.2) scale(3.75)" xlink:href="#gpPt5"/><use color="#0071BC" transform="translate(436.6,182.4) scale(3.75)" xlink:href="#gpPt5"/><use color="#0071BC" transform="translate(441.0,149.8) scale(3.75)" xlink:href="#gpPt5"/><use color="#0071BC" transform="translate(445.3,176.7) scale(3.75)" xlink:href="#gpPt5"/><use color="#0071BC" transform="translate(449.7,249.3) scale(3.75)" xlink:href="#gpPt5"/><use color="#0071BC" transform="translate(454.1,240.2) scale(3.75)" xlink:href="#gpPt5"/><use color="#0071BC" transform="translate(458.5,252.2) scale(3.75)" xlink:href="#gpPt5"/><use color="#0071BC" transform="translate(462.9,209.7) scale(3.75)" xlink:href="#gpPt5"/><use color="#0071BC" transform="translate(467.3,262.3) scale(3.75)" xlink:href="#gpPt5"/><use color="#0071BC" transform="translate(471.6,303.6) scale(3.75)" xlink:href="#gpPt5"/><use color="#0071BC" transform="translate(476.0,141.1) scale(3.75)" xlink:href="#gpPt5"/><use color="#0071BC" transform="translate(480.4,177.5) scale(3.75)" xlink:href="#gpPt5"/><use color="#0071BC" transform="translate(484.8,168.9) scale(3.75)" xlink:href="#gpPt5"/><use color="#0071BC" transform="translate(489.2,260.4) scale(3.75)" xlink:href="#gpPt5"/><use color="#0071BC" transform="translate(493.6,220.8) scale(3.75)" xlink:href="#gpPt5"/><use color="#0071BC" transform="translate(497.9,244.3) scale(3.75)" xlink:href="#gpPt5"/><use color="#0071BC" transform="translate(502.3,232.0) scale(3.75)" xlink:href="#gpPt5"/><use color="#0071BC" transform="translate(506.7,250.5) scale(3.75)" xlink:href="#gpPt5"/></g></g><g fill="none" stroke="currentColor" stroke-linecap="butt" stroke-linejoin="miter" stroke-width=".5" color="#000"><path stroke="#000" d="M72.8,31.6 L72.8,373.8 L506.7,373.8 L506.7,31.6 L72.8,31.6 Z"/></g></g></svg>