<svg xmlns="http://www.w3.org/2000/svg" xmlns:xlink="http://www.w3.org/1999/xlink" width="560" height="420" viewBox="0 0 560 420"><title>Gnuplot</title><desc>Produced by GNUPLOT 5.4 patchlevel 0</desc><g id="gnuplot_canvas"><rect width="560" height="420" x="0" y="0" fill="none"/><defs><circle id="gpDot" r=".5" stroke="currentColor" stroke-width=".5"/><path id="gpPt0" stroke="currentColor" stroke-width=".267" d="M-1,0 h2 M0,-1 v2"/><path id="gpPt1" stroke="currentColor" stroke-width=".267" d="M-1,-1 L1,1 M1,-1 L-1,1"/><path id="gpPt2" stroke="currentColor" stroke-width=".267" d="M-1,0 L1,0 M0,-1 L0,1 M-1,-1 L1,1 M-1,1 L1,-1"/><rect id="gpPt3" width="2" height="2" x="-1" y="-1" stroke="currentColor" stroke-width=".267"/><rect id="gpPt4" width="2" height="2" x="-1" y="-1" fill="currentColor" stroke="currentColor" stroke-width=".267"/><circle id="gpPt5" cx="0" cy="0" r="1" stroke="currentColor" stroke-width=".267"/><use id="gpPt6" fill="currentColor" stroke="none" xlink:href="#gpPt5"/><path id="gpPt7" stroke="currentColor" stroke-width=".267" d="M0,-1.33 L-1.33,0.67 L1.33,0.67 z"/><use id="gpPt8" fill="currentColor" stroke="none" xlink:href="#gpPt7"/><use id="gpPt9" stroke="currentColor" transform="rotate(180)" xlink:href="#gpPt7"/><use id="gpPt10" fill="currentColor" stroke="none" xlink:href="#gpPt9"/><use id="gpPt11" stroke="currentColor" transform="rotate(45)" xlink:href="#gpPt3"/><use id="gpPt12" fill="currentColor" stroke="none" xlink:href="#gpPt11"/><path id="gpPt13" stroke="currentColor" stroke-width=".267" d="M0,1.330 L1.265,0.411 L0.782,-1.067 L-0.782,-1.076 L-1.265,0.411 z"/><use id="gpPt14" fill="currentColor" stroke="none" xlink:href="#gpPt13"/><filter id="textbox" width="1" height="1" x="0" y="0" filterUnits="objectBoundingBox"><feFlood flood-color="#fff" flood-opacity="1" result="bgnd"/><feComposite in="SourceGraphic" in2="bgnd" operator="atop"/></filter><filter id="greybox" width="1" height="1" x="0" y="0" filterUnits="objectBoundingBox"><feFlood flood-color="#d3d3d3" flood-opacity="1" result="grey"/><feComposite in="SourceGraphic" in2="grey" operator="atop"/></filter></defs><g fill="none" stroke="currentColor" stroke-linecap="butt" stroke-linejoin="miter" stroke-width=".5" color="#000"><path stroke="#000" d="M72.8,373.8 L78.4,373.8"/><g fill="#262626" stroke="none" font-family="Helvetica" font-size="10" text-anchor="end"><text transform="translate(65.8,377.1)"><tspan font-family="Helvetica">-1</tspan></text></g></g><g fill="none" stroke="currentColor" stroke-linecap="butt" stroke-linejoin="miter" stroke-width=".5" color="#000"><path stroke="#000" d="M72.8,339.6 L78.4,339.6"/><g fill="#262626" stroke="none" font-family="Helvetica" font-size="10" text-anchor="end"><text transform="translate(65.8,342.9)"><tspan font-family="Helvetica">-0.8</tspan></text></g></g><g fill="none" stroke="currentColor" stroke-linecap="butt" stroke-linejoin="miter" stroke-width=".5" color="#000"><path stroke="#000" d="M72.8,305.4 L78.4,305.4"/><g fill="#262626" stroke="none" font-family="Helvetica" font-size="10" text-anchor="end"><text transform="translate(65.8,308.7)"><tspan font-family="Helvetica">-0.6</tspan></text></g></g><g fill="none" stroke="currentColor" stroke-linecap="butt" stroke-linejoin="miter" stroke-width=".5" color="#000"><path stroke="#000" d="M72.8,271.1 L78.4,271.1"/><g fill="#262626" stroke="none" font-family="Helvetica" font-size="10" text-anchor="end"><text transform="translate(65.8,274.4)"><tspan font-family="Helvetica">-0.4</tspan></text></g></g><g fill="none" stroke="currentColor" stroke-linecap="butt" stroke-linejoin="miter" stroke-width=".5" color="#000"><path stroke="#000" d="M72.8,236.9 L78.4,236.9"/><g fill="#262626" stroke="none" font-family="Helvetica" font-size="10" text-anchor="end"><text transform="translate(65.8,240.2)"><tspan font-family="Helvetica">-0.2</tspan></text></g></g><g fill="none" stroke="currentColor" stroke-linecap="butt" stroke-linejoin="miter" stroke-width=".5" color="#000"><path stroke="#000" d="M72.8,202.7 L78.4,202.7"/><g fill="#262626" stroke="none" font-family="Helvetica" font-size="10" text-anchor="end"><text transform="translate(65.8,206.0)"><tspan font-family="Helvetica">0</tspan></text></g></g><g fill="none" stroke="currentColor" stroke-linecap="butt" stroke-linejoin="miter" stroke-width=".5" color="#000"><path stroke="#000" d="M72.8,168.5 L78.4,168.5"/><g fill="#262626" stroke="none" font-family="Helvetica" font-size="10" text-anchor="end"><text transform="translate(65.8,171.8)"><tspan font-family="Helvetica">0.2</tspan></text></g></g><g fill="none" stroke="currentColor" stroke-linecap="butt" stroke-linejoin="miter" stroke-width=".5" color="#000"><path stroke="#000" d="M72.8,134.3 L78.4,134.3"/><g fill="#262626" stroke="none" font-family="Helvetica" font-size="10" text-anchor="end"><text transform="translate(65.8,137.6)"><tspan font-family="Helvetica">0.4</tspan></text></g></g><g fill="none" stroke="currentColor" stroke-linecap="butt" stroke-linejoin="miter" stroke-width=".5" color="#000"><path stroke="#000" d="M72.8,100.0 L78.4,100.0"/><g fill="#262626" stroke="none" font-family="Helvetica" font-size="10" text-anchor="end"><text transform="translate(65.8,103.3)"><tspan font-family="Helvetica">0.6</tspan></text></g></g><g fill="none" stroke="currentColor" stroke-linecap="butt" stroke-linejoin="miter" stroke-width=".5" color="#000"><path stroke="#000" d="M72.8,65.8 L78.4,65.8"/><g fill="#262626" stroke="none" font-family="Helvetica" font-size="10" text-anchor="end"><text transform="translate(65.8,69.1)"><tspan font-family="Helvetica">0.8</tspan></text></g></g><g fill="none" stroke="currentColor" stroke-linecap="butt" stroke-linejoin="miter" stroke-width=".5" color="#000"><path stroke="#000" d="M72.8,31.6 L78.4,31.6"/><g fill="#262626" stroke="none" font-family="Helvetica" font-size="10" text-anchor="end"><text transform="translate(65.8,34.9)"><tspan font-family="Helvetica">1</tspan></text></g></g><g fill="none" stroke="currentColor" stroke-linecap="butt" stroke-linejoin="miter" stroke-width=".5" color="#000"><path stroke="#000" d="M72.8,373.8 L72.8,368.2"/><g fill="#262626" stroke="none" font-family="Helvetica" font-size="10" text-anchor="middle"><text transform="translate(72.8,392.1)"><tspan font-family="Helvetica">0</tspan></text></g></g><g fill="none" stroke="currentColor" stroke-linecap="butt" stroke-linejoin="miter" stroke-width=".5" color="#000"><path stroke="#000" d="M116.2,373.8 L116.2,368.2"/><g fill="#262626" stroke="none" font-family="Helvetica" font-size="10" text-anchor="middle"><text transform="translate(116.2,392.1)"><tspan font-family="Helvetica">5</tspan></text></g></g><g fill="none" stroke="currentColor" stroke-linecap="butt" stroke-linejoin="miter" stroke-width=".5" color="#000"><path stroke="#000" d="M159.6,373.8 L159.6,368.2"/><g fill="#262626" stroke="none" font-family="Helvetica" font-size="10" text-anchor="middle"><text transform="translate(159.6,392.1)"><tspan font-family="Helvetica">10</tspan></text></g></g><g fill="none" stroke="currentColor" stroke-linecap="butt" stroke-linejoin="miter" stroke-width=".5" color="#000"><path stroke="#000" d="M203.0,373.8 L203.0,368.2"/><g fill="#262626" stroke="none" font-family="Helvetica" font-size="10" text-anchor="middle"><text transform="translate(203.0,392.1)"><tspan font-family="Helvetica">15</tspan></text></g></g><g fill="none" stroke="currentColor" stroke-linecap="butt" stroke-linejoin="miter" stroke-width=".5" color="#000"><path stroke="#000" d="M246.4,373.8 L246.4,368.2"/><g fill="#262626" stroke="none" font-family="Helvetica" font-size="10" text-anchor="middle"><text transform="translate(246.4,392.1)"><tspan font-family="Helvetica">20</tspan></text></g></g><g fill="none" stroke="currentColor" stroke-linecap="butt" stroke-linejoin="miter" stroke-width=".5" color="#000"><path stroke="#000" d="M289.8,373.8 L289.8,368.2"/><g fill="#262626" stroke="none" font-family="Helvetica" font-size="10" text-anchor="middle"><text transform="translate(289.8,392.1)"><tspan font-family="Helvetica">25</tspan></text></g></g><g fill="none" stroke="currentColor" stroke-linecap="butt" stroke-linejoin="miter" stroke-width=".5" color="#000"><path stroke="#000" d="M333.1,373.8 L333.1,368.2"/><g fill="#262626" stroke="none" font-family="Helvetica" font-size="10" text-anchor="middle"><text transform="translate(333.1,392.1)"><tspan font-family="Helvetica">30</tspan></text></g></g><g fill="none" stroke="currentColor" stroke-linecap="butt" stroke-linejoin="miter" stroke-width=".5" color="#000"><path stroke="#000" d="M376.5,373.8 L376.5,368.2"/><g fill="#262626" stroke="none" font-family="Helvetica" font-size="10" text-anchor="middle"><text transform="translate(376.5,392.1)"><tspan font-family="Helvetica">35</tspan></text></g></g><g fill="none" stroke="currentColor" stroke-linecap="butt" stroke-linejoin="miter" stroke-width=".5" color="#000"><path stroke="#000" d="M419.9,373.8 L419.9,368.2"/><g fill="#262626" stroke="none" font-family="Helvetica" font-size="10" text-anchor="middle"><text transform="translate(419.9,392.1)"><tspan font-family="Helvetica">40</tspan></text></g></g><g fill="none" stroke="currentColor" stroke-linecap="butt" stroke-linejoin="miter" stroke-width=".5" color="#000"><path stroke="#000" d="M463.3,373.8 L463.3,368.2"/><g fill="#262626" stroke="none" font-family="Helvetica" font-size="10" text-anchor="middle"><text transform="translate(463.3,392.1)"><tspan font-family="Helvetica">45</tspan></text></g></g><g fill="none" stroke="currentColor" stroke-linecap="butt" stroke-linejoin="miter" stroke-width=".5" color="#000"><path stroke="#000" d="M506.7,373.8 L506.7,368.2"/><g fill="#262626" stroke="none" font-family="Helvetica" font-size="10" text-anchor="middle"><text transform="translate(506.7,392.1)"><tspan font-family="Helvetica">50</tspan></text></g></g><g fill="none" stroke="currentColor" stroke-linecap="butt" stroke-linejoin="miter" stroke-width="1" color="#000"><path stroke="#000" d="M72.8,202.7 L506.7,202.7"/></g><g fill="none" stroke="currentColor" stroke-linecap="butt" stroke-linejoin="miter" stroke-width=".5" color="#000"><path stroke="#000" d="M72.8,31.6 L72.8,373.8 L506.7,373.8 L506.7,31.6 L72.8,31.6 Z"/></g><g id="gnuplot_plot_1a"><title>&apos;-&apos;</title><g fill="none" stroke="currentColor" stroke-linecap="butt" stroke-linejoin="miter" stroke-width=".5" color="#000"><path stroke="#0071BC" d="M81.5,202.7 L81.5,31.6 M90.2,202.7 L90.2,33.0 M98.8,202.7 L98.8,37.2 M107.5,202.7 L107.5,44.1 M116.2,202.7 L116.2,53.6 M124.9,202.7 L124.9,65.6 M133.5,202.7 L133.5,79.8 M142.2,202.7 L142.2,96.0 M150.9,202.7 L150.9,114.0 M159.6,202.7 L159.6,133.4 M168.3,202.7 L168.3,154.0 M176.9,202.7 L176.9,175.4 M185.6,202.7 L185.6,197.2 M194.3,202.7 L194.3,219.1 M203.0,202.7 L203.0,240.8 M211.6,202.7 L211.6,261.8 M220.3,202.7 L220.3,281.8 M229.0,202.7 L229.0,300.6 M237.7,202.7 L237.7,317.7 M246.4,202.7 L246.4,333.0 M255.0,202.7 L255.0,346.1 M263.7,202.7 L263.7,356.9 M272.4,202.7 L272.4,365.1 M281.1,202.7 L281.1,370.6 M289.8,202.7 L289.8,373.4 M298.4,202.7 L298.4,373.4 M307.1,202.7 L307.1,370.6 M315.8,202.7 L315.8,365.1 M324.5,202.7 L324.5,356.9 M333.1,202.7 L333.1,346.1 M341.8,202.7 L341.8,333.0 M350.5,202.7 L350.5,317.7 M359.2,202.7 L359.2,300.6 M367.9,202.7 L367.9,281.8 M376.5,202.7 L376.5,261.8 M385.2,202.7 L385.2,240.8 M393.9,202.7 L393.9,219.1 M402.6,202.7 L402.6,197.2 M411.2,202.7 L411.2,175.4 M419.9,202.7 L419.9,154.0 M428.6,202.7 L428.6,133.4 M437.3,202.7 L437.3,114.0 M446.0,202.7 L446.0,96.0 M454.6,202.7 L454.6,79.8 M463.3,202.7 L463.3,65.6 M472.0,202.7 L472.0,53.6 M480.7,202.7 L480.7,44.1 M489.3,202.7 L489.3,37.2 M498.0,202.7 L498.0,33.0 M506.7,202.7 L506.7,31.6"/></g></g><g id="gnuplot_plot_2a"><title>&apos;-&apos;</title><g fill="none" stroke="currentColor" stroke-linecap="butt" stroke-linejoin="miter" stroke-width="1" color="#000"><use color="#0071BC" transform="translate(81.5,31.6) scale(3.75)" xlink:href="#gpPt5"/><use color="#0071BC" transform="translate(90.2,33.0) scale(3.75)" xlink:href="#gpPt5"/><use color="#0071BC" transform="translate(98.8,37.2) scale(3.75)" xlink:href="#gpPt5"/><use color="#0071BC" transform="translate(107.5,44.1) scale(3.75)" xlink:href="#gpPt5"/><use color="#0071BC" transform="translate(116.2,53.6) scale(3.75)" xlink:href="#gpPt5"/><use color="#0071BC" transform="translate(124.9,65.6) scale(3.75)" xlink:href="#gpPt5"/><use color="#0071BC" transform="translate(133.5,79.8) scale(3.75)" xlink:href="#gpPt5"/><use color="#0071BC" transform="translate(142.2,96.0) scale(3.75)" xlink:href="#gpPt5"/><use color="#0071BC" transform="translate(150.9,114.0) scale(3.75)" xlink:href="#gpPt5"/><use color="#0071BC" transform="translate(159.6,133.4) scale(3.75)" xlink:href="#gpPt5"/><use color="#0071BC" transform="translate(168.3,154.0) scale(3.75)" xlink:href="#gpPt5"/><use color="#0071BC" transform="translate(176.9,175.4) scale(3.75)" xlink:href="#gpPt5"/><use color="#0071BC" transform="translate(185.6,197.2) scale(3.75)" xlink:href="#gpPt5"/><use color="#0071BC" transform="translate(194.3,219.1) scale(3.75)" xlink:href="#gpPt5"/><use color="#0071BC" transform="translate(203.0,240.8) scale(3.75)" xlink:href="#gpPt5"/><use color="#0071BC" transform="translate(211.6,261.8) scale(3.75)" xlink:href="#gpPt5"/><use color="#0071BC" transform="translate(220.3,281.8) scale(3.75)" xlink:href="#gpPt5"/><use color="#0071BC" transform="translate(229.0,300.6) scale(3.75)" xlink:href="#gpPt5"/><use color="#0071BC" transform="translate(237.7,317.7) scale(3.75)" xlink:href="#gpPt5"/><use color="#0071BC" transform="translate(246.4,333.0) scale(3.75)" xlink:href="#gpPt5"/><use color="#0071BC" transform="translate(255.0,346.1) scale(3.75)" xlink:href="#gpPt5"/><use color="#0071BC" transform="translate(263.7,356.9) scale(3.75)" xlink:href="#gpPt5"/><use color="#0071BC" transform="translate(272.4,365.1) scale(3.75)" xlink:href="#gpPt5"/><use color="#0071BC" transform="translate(281.1,370.6) scale(3.75)" xlink:href="#gpPt5"/><use color="#0071BC" transform="translate(289.8,373.4) scale(3.75)" xlink:href="#gpPt5"/><use color="#0071BC" transform="translate(298.4,373.4) scale(3.75)" xlink:href="#gpPt5"/><use color="#0071BC" transform="translate(307.1,370.6) scale(3.75)" xlink:href="#gpPt5"/><use color="#0071BC" transform="translate(315.8,365.1) scale(3.75)" xlink:href="#gpPt5"/><use color="#0071BC" transform="translate(324.5,356.9) scale(3.75)" xlink:href="#gpPt5"/><use color="#0071BC" transform="translate(333.1,346.1) scale(3.75)" xlink:href="#gpPt5"/><use color="#0071BC" transform="translate(341.8,333.0) scale(3.75)" xlink:href="#gpPt5"/><use color="#0071BC" transform="translate(350.5,317.7) scale(3.75)" xlink:href="#gpPt5"/><use color="#0071BC" transform="translate(359.2,300.6) scale(3.75)" xlink:href="#gpPt5"/><use color="#0071BC" transform="translate(367.9,281.8) scale(3.75)" xlink:href="#gpPt5"/><use color="#0071BC" transform="translate(376.5,261.8) scale(3.75)" xlink:href="#gpPt5"/><use color="#0071BC" transform="translate(385.2,240.8) scale(3.75)" xlink:href="#gpPt5"/><use color="#0071BC" transform="translate(393.9,219.1) scale(3.75)" xlink:href="#gpPt5"/><use color="#0071BC" transform="translate(402.6,197.2) scale(3.75)" xlink:href="#gpPt5"/><use color="#0071BC" transform="translate(411.2,175.4) scale(3.75)" xlink:href="#gpPt5"/><use color="#0071BC" transform="translate(419.9,154.0) scale(3.75)" xlink:href="#gpPt5"/><use color="#0071BC" transform="translate(428.6,133.4) scale(3.75)" xlink:href="#gpPt5"/><use color="#0071BC" transform="translate(437.3,114.0) scale(3.75)" xlink:href="#gpPt5"/><use color="#0071BC" transform="translate(446.0,96.0) scale(3.75)" xlink:href="#gpPt5"/><use color="#0071BC" transform="translate(454.6,79.8) scale(3.75)" xlink:href="#gpPt5"/><use color="#0071BC" transform="translate(463.3,65.6) scale(3.75)" xlink:href="#gpPt5"/><use color="#0071BC" transform="translate(472.0,53.6) scale(3.75)" xlink:href="#gpPt5"/><use color="#0071BC" transform="translate(480.7,44.1) scale(3.75)" xlink:href="#gpPt5"/><use color="#0071BC" transform="translate(489.3,37.2) scale(3.75)" xlink:href="#gpPt5"/><use color="#0071BC" transform="translate(498.0,33.0) scale(3.75)" xlink:href="#gpPt5"/><use color="#0071BC" transform="translate(506.7,31.6) scale(3.75)" xlink:href="#gpPt5"/></g></g><g id="gnuplot_plot_3a"><title>&apos;-&apos;</title><g fill="none" stroke="currentColor" stroke-linecap="butt" stroke-linejoin="miter" stroke-width=".5" color="#000"><path stroke="#D85218" d="M81.5,202.7 M90.2,202.7 L90.2,191.8 M98.8,202.7 L98.8,181.0 M107.5,202.7 L107.5,170.6 M116.2,202.7 L116.2,160.7 M124.9,202.7 L124.9,151.5 M133.5,202.7 L133.5,143.2 M142.2,202.7 L142.2,135.8 M150.9,202.7 L150.9,129.5 M159.6,202.7 L159.6,124.5 M168.3,202.7 L168.3,120.7 M176.9,202.7 L176.9,118.2 M185.6,202.7 L185.6,117.2 M194.3,202.7 L194.3,117.5 M203.0,202.7 L203.0,119.3 M211.6,202.7 L211.6,122.4 M220.3,202.7 L220.3,126.9 M229.0,202.7 L229.0,132.5 M237.7,202.7 L237.7,139.4 M246.4,202.7 L246.4,147.2 M255.0,202.7 L255.0,156.0 M263.7,202.7 L263.7,165.6 M272.4,202.7 L272.4,175.7 M281.1,202.7 L281.1,186.3 M289.8,202.7 L289.8,197.2 M298.4,202.7 L298.4,208.2 M307.1,202.7 L307.1,219.1 M315.8,202.7 L315.8,229.7 M324.5,202.7 L324.5,239.8 M333.1,202.7 L333.1,249.4 M341.8,202.7 L341.8,258.2 M350.5,202.7 L350.5,266.0 M359.2,202.7 L359.2,272.9 M367.9,202.7 L367.9,278.5 M376.5,202.7 L376.5,283.0 M385.2,202.7 L385.2,286.1 M393.9,202.7 L393.9,287.9 M402.6,202.7 L402.6,288.2 M411.2,202.7 L411.2,287.2 M419.9,202.7 L419.9,284.7 M428.6,202.7 L428.6,280.9 M437.3,202.7 L437.3,275.9 M446.0,202.7 L446.0,269.6 M454.6,202.7 L454.6,262.2 M463.3,202.7 L463.3,253.9 M472.0,202.7 L472.0,244.7 M480.7,202.7 L480.7,234.8 M489.3,202.7 L489.3,224.4 M498.0,202.7 L498.0,213.6 M506.7,202.7"/></g></g><g id="gnuplot_plot_4a"><title>&apos;-&apos;</title><g fill="none" stroke="currentColor" stroke-linecap="butt" stroke-linejoin="miter" stroke-width="1" color="#000"><use color="#D85218" transform="translate(81.5,202.7) scale(3.75)" xlink:href="#gpPt5"/><use color="#D85218" transform="translate(90.2,191.8) scale(3.75)" xlink:href="#gpPt5"/><use color="#D85218" transform="translate(98.8,181.0) scale(3.75)" xlink:href="#gpPt5"/><use color="#D85218" transform="translate(107.5,170.6) scale(3.75)" xlink:href="#gpPt5"/><use color="#D85218" transform="translate(116.2,160.7) scale(3.75)" xlink:href="#gpPt5"/><use color="#D85218" transform="translate(124.9,151.5) scale(3.75)" xlink:href="#gpPt5"/><use color="#D85218" transform="translate(133.5,143.2) scale(3.75)" xlink:href="#gpPt5"/><use color="#D85218" transform="translate(142.2,135.8) scale(3.75)" xlink:href="#gpPt5"/><use color="#D85218" transform="translate(150.9,129.5) scale(3.75)" xlink:href="#gpPt5"/><use color="#D85218" transform="translate(159.6,124.5) scale(3.75)" xlink:href="#gpPt5"/><use color="#D85218" transform="translate(168.3,120.7) scale(3.75)" xlink:href="#gpPt5"/><use color="#D85218" transform="translate(176.9,118.2) scale(3.75)" xlink:href="#gpPt5"/><use color="#D85218" transform="translate(185.6,117.2) scale(3.75)" xlink:href="#gpPt5"/><use color="#D85218" transform="translate(194.3,117.5) scale(3.75)" xlink:href="#gpPt5"/><use color="#D85218" transform="translate(203.0,119.3) scale(3.75)" xlink:href="#gpPt5"/><use color="#D85218" transform="translate(211.6,122.4) scale(3.75)" xlink:href="#gpPt5"/><use color="#D85218" transform="translate(220.3,126.9) scale(3.75)" xlink:href="#gpPt5"/><use color="#D85218" transform="translate(229.0,132.5) scale(3.75)" xlink:href="#gpPt5"/><use color="#D85218" transform="translate(237.7,139.4) scale(3.75)" xlink:href="#gpPt5"/><use color="#D85218" transform="translate(246.4,147.2) scale(3.75)" xlink:href="#gpPt5"/><use color="#D85218" transform="translate(255.0,156.0) scale(3.75)" xlink:href="#gpPt5"/><use color="#D85218" transform="translate(263.7,165.6) scale(3.75)" xlink:href="#gpPt5"/><use color="#D85218" transform="translate(272.4,175.7) scale(3.75)" xlink:href="#gpPt5"/><use color="#D85218" transform="translate(281.1,186.3) scale(3.75)" xlink:href="#gpPt5"/><use color="#D85218" transform="translate(289.8,197.2) scale(3.75)" xlink:href="#gpPt5"/><use color="#D85218" transform="translate(298.4,208.2) scale(3.75)" xlink:href="#gpPt5"/><use color="#D85218" transform="translate(307.1,219.1) scale(3.75)" xlink:href="#gpPt5"/><use color="#D85218" transform="translate(315.8,229.7) scale(3.75)" xlink:href="#gpPt5"/><use color="#D85218" transform="translate(324.5,239.8) scale(3.75)" xlink:href="#gpPt5"/><use color="#D85218" transform="translate(333.1,249.4) scale(3.75)" xlink:href="#gpPt5"/><use color="#D85218" transform="translate(341.8,258.2) scale(3.75)" xlink:href="#gpPt5"/><use color="#D85218" transform="translate(350.5,266.0) scale(3.75)" xlink:href="#gpPt5"/><use color="#D85218" transform="translate(359.2,272.9) scale(3.75)" xlink:href="#gpPt5"/><use color="#D85218" transform="translate(367.9,278.5) scale(3.75)" xlink:href="#gpPt5"/><use color="#D85218" transform="translate(376.5,283.0) scale(3.75)" xlink:href="#gpPt5"/><use color="#D85218" transform="translate(385.2,286.1) scale(3.75)" xlink:href="#gpPt5"/><use color="#D85218" transform="translate(393.9,287.9) scale(3.75)" xlink:href="#gpPt5"/><use color="#D85218" transform="translate(402.6,288.2) scale(3.75)" xlink:href="#gpPt5"/><use color="#D85218" transform="translate(411.2,287.2) scale(3.75)" xlink:href="#gpPt5"/><use color="#D85218" transform="translate(419.9,284.7) scale(3.75)" xlink:href="#gpPt5"/><use color="#D85218" transform="translate(428.6,280.9) scale(3.75)" xlink:href="#gpPt5"/><use color="#D85218" transform="translate(437.3,275.9) scale(3.75)" xlink:href="#gpPt5"/><use color="#D85218" transform="translate(446.0,269.6) scale(3.75)" xlink:href="#gpPt5"/><use color="#D85218" transform="translate(454.6,262.2) scale(3.75)" xlink:href="#gpPt5"/><use color="#D85218" transform="translate(463.3,253.9) scale(3.75)" xlink:href="#gpPt5"/><use color="#D85218" transform="translate(472.0,244.7) scale(3.75)" xlink:href="#gpPt5"/><use color="#D85218" transform="translate(480.7,234.8) scale(3.75)" xlink:href="#gpPt5"/><use color="#D85218" transform="translate(489.3,224.4) scale(3.75)" xlink:href="#gpPt5"/><use color="#D85218" transform="translate(498.0,213.6) scale(3.75)" xlink:href="#gpPt5"/><use color="#D85218" transform="translate(506.7,202.7) scale(3.75)" xlink:href="#gpPt5"/></g></g><g fill="none" stroke="currentColor" stroke-linecap="butt" stroke-linejoin="miter" stroke-width=".5" color="#000"><path stroke="#000" d="M72.8,31.6 L72.8,373.8 L506.7,373.8 L506.7,31.6 L72.8,31.6 Z"/></g></g></svg>