<svg xmlns="http://www.w3.org/2000/svg" xmlns:xlink="http://www.w3.org/1999/xlink" width="560" height="420" viewBox="0 0 560 420"><title>Gnuplot</title><desc>Produced by GNUPLOT 5.4 patchlevel 0</desc><g id="gnuplot_canvas"><rect width="560" height="420" x="0" y="0" fill="none"/><defs><circle id="gpDot" r=".5" stroke="currentColor" stroke-width=".5"/><path id="gpPt0" stroke="currentColor" stroke-width=".267" d="M-1,0 h2 M0,-1 v2"/><path id="gpPt1" stroke="currentColor" stroke-width=".267" d="M-1,-1 L1,1 M1,-1 L-1,1"/><path id="gpPt2" stroke="currentColor" stroke-width=".267" d="M-1,0 L1,0 M0,-1 L0,1 M-1,-1 L1,1 M-1,1 L1,-1"/><rect id="gpPt3" width="2" height="2" x="-1" y="-1" stroke="currentColor" stroke-width=".267"/><rect id="gpPt4" width="2" height="2" x="-1" y="-1" fill="currentColor" stroke="currentColor" stroke-width=".267"/><circle id="gpPt5" cx="0" cy="0" r="1" stroke="currentColor" stroke-width=".267"/><use id="gpPt6" fill="currentColor" stroke="none" xlink:href="#gpPt5"/><path id="gpPt7" stroke="currentColor" stroke-width=".267" d="M0,-1.33 L-1.33,0.67 L1.33,0.67 z"/><use id="gpPt8" fill="currentColor" stroke="none" xlink:href="#gpPt7"/><use id="gpPt9" stroke="currentColor" transform="rotate(180)" xlink:href="#gpPt7"/><use id="gpPt10" fill="currentColor" stroke="none" xlink:href="#gpPt9"/><use id="gpPt11" stroke="currentColor" transform="rotate(45)" xlink:href="#gpPt3"/><use id="gpPt12" fill="currentColor" stroke="none" xlink:href="#gpPt11"/><path id="gpPt13" stroke="currentColor" stroke-width=".267" d="M0,1.330 L1.265,0.411 L0.782,-1.067 L-0.782,-1.076 L-1.265,0.411 z"/><use id="gpPt14" fill="currentColor" stroke="none" xlink:href="#gpPt13"/><filter id="textbox" width="1" height="1" x="0" y="0" filterUnits="objectBoundingBox"><feFlood flood-color="#fff" flood-opacity="1" result="bgnd"/><feComposite in="SourceGraphic" in2="bgnd" operator="atop"/></filter><filter id="greybox" width="1" height="1" x="0" y="0" filterUnits="objectBoundingBox"><feFlood flood-color="#d3d3d3" flood-opacity="1" result="grey"/><feComposite in="SourceGraphic" in2="grey" operator="atop"/></filter></defs><g fill="none" stroke="currentColor" stroke-linecap="butt" stroke-linejoin="miter" stroke-width=".5" color="#000"><path stroke="#000" d="M72.8,373.8 L78.4,373.8"/><g fill="#262626" stroke="none" font-family="Helvetica" font-size="10" text-anchor="end"><text transform="translate(65.8,377.1)"><tspan font-family="Helvetica">-180</tspan></text></g></g><g fill="none" stroke="currentColor" stroke-linecap="butt" stroke-linejoin="miter" stroke-width=".5" color="#000"><path stroke="#000" d="M72.8,339.6 L78.4,339.6"/><g fill="#262626" stroke="none" font-family="Helvetica" font-size="10" text-anchor="end"><text transform="translate(65.8,342.9)"><tspan font-family="Helvetica">-160</tspan></text></g></g><g fill="none" stroke="currentColor" stroke-linecap="butt" stroke-linejoin="miter" stroke-width=".5" color="#000"><path stroke="#000" d="M72.8,305.4 L78.4,305.4"/><g fill="#262626" stroke="none" font-family="Helvetica" font-size="10" text-anchor="end"><text transform="translate(65.8,308.7)"><tspan font-family="Helvetica">-140</tspan></text></g></g><g fill="none" stroke="currentColor" stroke-linecap="butt" stroke-linejoin="miter" stroke-width=".5" color="#000"><path stroke="#000" d="M72.8,271.1 L78.4,271.1"/><g fill="#262626" stroke="none" font-family="Helvetica" font-size="10" text-anchor="end"><text transform="translate(65.8,274.4)"><tspan font-family="Helvetica">-120</tspan></text></g></g><g fill="none" stroke="currentColor" stroke-linecap="butt" stroke-linejoin="miter" stroke-width=".5" color="#000"><path stroke="#000" d="M72.8,236.9 L78.4,236.9"/><g fill="#262626" stroke="none" font-family="Helvetica" font-size="10" text-anchor="end"><text transform="translate(65.8,240.2)"><tspan font-family="Helvetica">-100</tspan></text></g></g><g fill="none" stroke="currentColor" stroke-linecap="butt" stroke-linejoin="miter" stroke-width=".5" color="#000"><path stroke="#000" d="M72.8,202.7 L78.4,202.7"/><g fill="#262626" stroke="none" font-family="Helvetica" font-size="10" text-anchor="end"><text transform="translate(65.8,206.0)"><tspan font-family="Helvetica">-80</tspan></text></g></g><g fill="none" stroke="currentColor" stroke-linecap="butt" stroke-linejoin="miter" stroke-width=".5" color="#000"><path stroke="#000" d="M72.8,168.5 L78.4,168.5"/><g fill="#262626" stroke="none" font-family="Helvetica" font-size="10" text-anchor="end"><text transform="translate(65.8,171.8)"><tspan font-family="Helvetica">-60</tspan></text></g></g><g fill="none" stroke="currentColor" stroke-linecap="butt" stroke-linejoin="miter" stroke-width=".5" color="#000"><path stroke="#000" d="M72.8,134.3 L78.4,134.3"/><g fill="#262626" stroke="none" font-family="Helvetica" font-size="10" text-anchor="end"><text transform="translate(65.8,137.6)"><tspan font-family="Helvetica">-40</tspan></text></g></g><g fill="none" stroke="currentColor" stroke-linecap="butt" stroke-linejoin="miter" stroke-width=".5" color="#000"><path stroke="#000" d="M72.8,100.0 L78.4,100.0"/><g fill="#262626" stroke="none" font-family="Helvetica" font-size="10" text-anchor="end"><text transform="translate(65.8,103.3)"><tspan font-family="Helvetica">-20</tspan></text></g></g><g fill="none" stroke="currentColor" stroke-linecap="butt" stroke-linejoin="miter" stroke-width=".5" color="#000"><path stroke="#000" d="M72.8,65.8 L78.4,65.8"/><g fill="#262626" stroke="none" font-family="Helvetica" font-size="10" text-anchor="end"><text transform="translate(65.8,69.1)"><tspan font-family="Helvetica">0</tspan></text></g></g><g fill="none" stroke="currentColor" stroke-linecap="butt" stroke-linejoin="miter" stroke-width=".5" color="#000"><path stroke="#000" d="M72.8,31.6 L78.4,31.6"/><g fill="#262626" stroke="none" font-family="Helvetica" font-size="10" text-anchor="end"><text transform="translate(65.8,34.9)"><tspan font-family="Helvetica">20</tspan></text></g></g><g fill="none" stroke="currentColor" stroke-linecap="butt" stroke-linejoin="miter" stroke-width=".5" color="#000"><path stroke="#000" d="M72.8,373.8 L72.8,368.2"/><g fill="#262626" stroke="none" font-family="Helvetica" font-size="10" text-anchor="middle"><text transform="translate(72.8,392.1)"><tspan font-family="Helvetica">0</tspan></text></g></g><g fill="none" stroke="currentColor" stroke-linecap="butt" stroke-linejoin="miter" stroke-width=".5" color="#000"><path stroke="#000" d="M134.8,373.8 L134.8,368.2"/><g fill="#262626" stroke="none" font-family="Helvetica" font-size="10" text-anchor="middle"><text transform="translate(134.8,392.1)"><tspan font-family="Helvetica">1</tspan></text></g></g><g fill="none" stroke="currentColor" stroke-linecap="butt" stroke-linejoin="miter" stroke-width=".5" color="#000"><path stroke="#000" d="M196.8,373.8 L196.8,368.2"/><g fill="#262626" stroke="none" font-family="Helvetica" font-size="10" text-anchor="middle"><text transform="translate(196.8,392.1)"><tspan font-family="Helvetica">2</tspan></text></g></g><g fill="none" stroke="currentColor" stroke-linecap="butt" stroke-linejoin="miter" stroke-width=".5" color="#000"><path stroke="#000" d="M258.8,373.8 L258.8,368.2"/><g fill="#262626" stroke="none" font-family="Helvetica" font-size="10" text-anchor="middle"><text transform="translate(258.8,392.1)"><tspan font-family="Helvetica">3</tspan></text></g></g><g fill="none" stroke="currentColor" stroke-linecap="butt" stroke-linejoin="miter" stroke-width=".5" color="#000"><path stroke="#000" d="M320.7,373.8 L320.7,368.2"/><g fill="#262626" stroke="none" font-family="Helvetica" font-size="10" text-anchor="middle"><text transform="translate(320.7,392.1)"><tspan font-family="Helvetica">4</tspan></text></g></g><g fill="none" stroke="currentColor" stroke-linecap="butt" stroke-linejoin="miter" stroke-width=".5" color="#000"><path stroke="#000" d="M382.7,373.8 L382.7,368.2"/><g fill="#262626" stroke="none" font-family="Helvetica" font-size="10" text-anchor="middle"><text transform="translate(382.7,392.1)"><tspan font-family="Helvetica">5</tspan></text></g></g><g fill="none" stroke="currentColor" stroke-linecap="butt" stroke-linejoin="miter" stroke-width=".5" color="#000"><path stroke="#000" d="M444.7,373.8 L444.7,368.2"/><g fill="#262626" stroke="none" font-family="Helvetica" font-size="10" text-anchor="middle"><text transform="translate(444.7,392.1)"><tspan font-family="Helvetica">6</tspan></text></g></g><g fill="none" stroke="currentColor" stroke-linecap="butt" stroke-linejoin="miter" stroke-width=".5" color="#000"><path stroke="#000" d="M506.7,373.8 L506.7,368.2"/><g fill="#262626" stroke="none" font-family="Helvetica" font-size="10" text-anchor="middle"><text transform="translate(506.7,392.1)"><tspan font-family="Helvetica">7</tspan></text></g></g><g fill="none" stroke="currentColor" stroke-linecap="butt" stroke-linejoin="miter" stroke-width="1" color="#000"><path stroke="#000" d="M72.8,65.8 L506.7,65.8"/></g><g fill="none" stroke="currentColor" stroke-linecap="butt" stroke-linejoin="miter" stroke-width=".5" color="#000"><path stroke="#000" d="M72.8,31.6 L72.8,373.8 L506.7,373.8 L506.7,31.6 L72.8,31.6 Z"/></g><g id="gnuplot_plot_1a"><title>&apos;-&apos;</title><g fill="none" stroke="currentColor" stroke-linecap="butt" stroke-linejoin="miter" stroke-width=".5" color="#000"><path stroke="red" stroke-dasharray=".5 1.2" d="M72.8,65.8 M80.7,65.8 L80.7,65.6 M88.7,65.8 L88.7,65.3 M96.6,65.8 L96.6,64.9 M104.6,65.8 L104.6,64.4 M112.5,65.8 L112.5,63.9 M120.5,65.8 L120.5,63.3 M128.4,65.8 L128.4,62.5 M136.4,65.8 L136.4,61.7 M144.3,65.8 L144.3,60.9 M152.3,65.8 L152.3,59.9 M160.2,65.8 L160.2,58.9 M168.2,65.8 L168.2,57.9 M176.1,65.8 L176.1,56.8 M184.1,65.8 L184.1,55.8 M192.0,65.8 L192.0,54.8 M200.0,65.8 L200.0,54.0 M207.9,65.8 L207.9,53.4 M215.9,65.8 L215.9,53.1 M223.8,65.8 L223.8,53.1 M231.8,65.8 L231.8,53.7 M239.7,65.8 L239.7,54.9 M247.7,65.8 L247.7,56.8 M255.6,65.8 L255.6,59.6 M263.6,65.8 L263.6,63.4 M271.5,65.8 L271.5,68.5 M279.5,65.8 L279.5,75.0 M287.4,65.8 L287.4,83.0 M295.4,65.8 L295.4,92.7 M303.3,65.8 L303.3,104.3 M311.2,65.8 L311.2,117.8 M319.2,65.8 L319.2,133.3 M327.1,65.8 L327.1,150.8 M335.1,65.8 L335.1,170.2 M343.0,65.8 L343.0,191.4 M351.0,65.8 L351.0,214.2 M358.9,65.8 L358.9,238.0 M366.9,65.8 L366.9,262.4 M374.8,65.8 L374.8,286.5 M382.8,65.8 L382.8,309.5 M390.7,65.8 L390.7,330.0 M398.7,65.8 L398.7,346.7 M406.6,65.8 L406.6,357.8 M414.6,65.8 L414.6,361.1 M422.5,65.8 L422.5,354.4 M430.5,65.8 L430.5,335.0 M438.4,65.8 L438.4,299.9 M446.4,65.8 L446.4,245.7 M454.3,65.8 L454.3,168.9 M462.3,65.8"/></g></g><g id="gnuplot_plot_2a"><title>&apos;-&apos;</title><g fill="none" stroke="currentColor" stroke-linecap="butt" stroke-linejoin="miter" stroke-width="1" color="#000"><use color="red" transform="translate(72.8,65.8) scale(3.75)" xlink:href="#gpPt11"/><use color="red" transform="translate(80.7,65.6) scale(3.75)" xlink:href="#gpPt11"/><use color="red" transform="translate(88.7,65.3) scale(3.75)" xlink:href="#gpPt11"/><use color="red" transform="translate(96.6,64.9) scale(3.75)" xlink:href="#gpPt11"/><use color="red" transform="translate(104.6,64.4) scale(3.75)" xlink:href="#gpPt11"/><use color="red" transform="translate(112.5,63.9) scale(3.75)" xlink:href="#gpPt11"/><use color="red" transform="translate(120.5,63.3) scale(3.75)" xlink:href="#gpPt11"/><use color="red" transform="translate(128.4,62.5) scale(3.75)" xlink:href="#gpPt11"/><use color="red" transform="translate(136.4,61.7) scale(3.75)" xlink:href="#gpPt11"/><use color="red" transform="translate(144.3,60.9) scale(3.75)" xlink:href="#gpPt11"/><use color="red" transform="translate(152.3,59.9) scale(3.75)" xlink:href="#gpPt11"/><use color="red" transform="translate(160.2,58.9) scale(3.75)" xlink:href="#gpPt11"/><use color="red" transform="translate(168.2,57.9) scale(3.75)" xlink:href="#gpPt11"/><use color="red" transform="translate(176.1,56.8) scale(3.75)" xlink:href="#gpPt11"/><use color="red" transform="translate(184.1,55.8) scale(3.75)" xlink:href="#gpPt11"/><use color="red" transform="translate(192.0,54.8) scale(3.75)" xlink:href="#gpPt11"/><use color="red" transform="translate(200.0,54.0) scale(3.75)" xlink:href="#gpPt11"/><use color="red" transform="translate(207.9,53.4) scale(3.75)" xlink:href="#gpPt11"/><use color="red" transform="translate(215.9,53.1) scale(3.75)" xlink:href="#gpPt11"/><use color="red" transform="translate(223.8,53.1) scale(3.75)" xlink:href="#gpPt11"/><use color="red" transform="translate(231.8,53.7) scale(3.75)" xlink:href="#gpPt11"/><use color="red" transform="translate(239.7,54.9) scale(3.75)" xlink:href="#gpPt11"/><use color="red" transform="translate(247.7,56.8) scale(3.75)" xlink:href="#gpPt11"/><use color="red" transform="translate(255.6,59.6) scale(3.75)" xlink:href="#gpPt11"/><use color="red" transform="translate(263.6,63.4) scale(3.75)" xlink:href="#gpPt11"/><use color="red" transform="translate(271.5,68.5) scale(3.75)" xlink:href="#gpPt11"/><use color="red" transform="translate(279.5,75.0) scale(3.75)" xlink:href="#gpPt11"/><use color="red" transform="translate(287.4,83.0) scale(3.75)" xlink:href="#gpPt11"/><use color="red" transform="translate(295.4,92.7) scale(3.75)" xlink:href="#gpPt11"/><use color="red" transform="translate(303.3,104.3) scale(3.75)" xlink:href="#gpPt11"/><use color="red" transform="translate(311.2,117.8) scale(3.75)" xlink:href="#gpPt11"/><use color="red" transform="translate(319.2,133.3) scale(3.75)" xlink:href="#gpPt11"/><use color="red" transform="translate(327.1,150.8) scale(3.75)" xlink:href="#gpPt11"/><use color="red" transform="translate(335.1,170.2) scale(3.75)" xlink:href="#gpPt11"/><use color="red" transform="translate(343.0,191.4) scale(3.75)" xlink:href="#gpPt11"/><use color="red" transform="translate(351.0,214.2) scale(3.75)" xlink:href="#gpPt11"/><use color="red" transform="translate(358.9,238.0) scale(3.75)" xlink:href="#gpPt11"/><use color="red" transform="translate(366.9,262.4) scale(3.75)" xlink:href="#gpPt11"/><use color="red" transform="translate(374.8,286.5) scale(3.75)" xlink:href="#gpPt11"/><use color="red" transform="translate(382.8,309.5) scale(3.75)" xlink:href="#gpPt11"/><use color="red" transform="translate(390.7,330.0) scale(3.75)" xlink:href="#gpPt11"/><use color="red" transform="translate(398.7,346.7) scale(3.75)" xlink:href="#gpPt11"/><use color="red" transform="translate(406.6,357.8) scale(3.75)" xlink:href="#gpPt11"/><use color="red" transform="translate(414.6,361.1) scale(3.75)" xlink:href="#gpPt11"/><use color="red" transform="translate(422.5,354.4) scale(3.75)" xlink:href="#gpPt11"/><use color="red" transform="translate(430.5,335.0) scale(3.75)" xlink:href="#gpPt11"/><use color="red" transform="translate(438.4,299.9) scale(3.75)" xlink:href="#gpPt11"/><use color="red" transform="translate(446.4,245.7) scale(3.75)" xlink:href="#gpPt11"/><use color="red" transform="translate(454.3,168.9) scale(3.75)" xlink:href="#gpPt11"/><use color="red" transform="translate(462.3,65.8) scale(3.75)" xlink:href="#gpPt11"/></g></g><g fill="none" stroke="currentColor" stroke-linecap="butt" stroke-linejoin="miter" stroke-width=".5" color="#000"><path stroke="#000" d="M72.8,31.6 L72.8,373.8 L506.7,373.8 L506.7,31.6 L72.8,31.6 Z"/></g></g></svg>