<svg xmlns="http://www.w3.org/2000/svg" xmlns:xlink="http://www.w3.org/1999/xlink" width="560" height="420" viewBox="0 0 560 420"><title>Gnuplot</title><desc>Produced by GNUPLOT 5.4 patchlevel 0</desc><g id="gnuplot_canvas"><rect width="560" height="420" x="0" y="0" fill="none"/><defs><circle id="gpDot" r=".5" stroke="currentColor" stroke-width=".5"/><path id="gpPt0" stroke="currentColor" stroke-width=".267" d="M-1,0 h2 M0,-1 v2"/><path id="gpPt1" stroke="currentColor" stroke-width=".267" d="M-1,-1 L1,1 M1,-1 L-1,1"/><path id="gpPt2" stroke="currentColor" stroke-width=".267" d="M-1,0 L1,0 M0,-1 L0,1 M-1,-1 L1,1 M-1,1 L1,-1"/><rect id="gpPt3" width="2" height="2" x="-1" y="-1" stroke="currentColor" stroke-width=".267"/><rect id="gpPt4" width="2" height="2" x="-1" y="-1" fill="currentColor" stroke="currentColor" stroke-width=".267"/><circle id="gpPt5" cx="0" cy="0" r="1" stroke="currentColor" stroke-width=".267"/><use id="gpPt6" fill="currentColor" stroke="none" xlink:href="#gpPt5"/><path id="gpPt7" stroke="currentColor" stroke-width=".267" d="M0,-1.33 L-1.33,0.67 L1.33,0.67 z"/><use id="gpPt8" fill="currentColor" stroke="none" xlink:href="#gpPt7"/><use id="gpPt9" stroke="currentColor" transform="rotate(180)" xlink:href="#gpPt7"/><use id="gpPt10" fill="currentColor" stroke="none" xlink:href="#gpPt9"/><use id="gpPt11" stroke="currentColor" transform="rotate(45)" xlink:href="#gpPt3"/><use id="gpPt12" fill="currentColor" stroke="none" xlink:href="#gpPt11"/><path id="gpPt13" stroke="currentColor" stroke-width=".267" d="M0,1.330 L1.265,0.411 L0.782,-1.067 L-0.782,-1.076 L-1.265,0.411 z"/><use id="gpPt14" fill="currentColor" stroke="none" xlink:href="#gpPt13"/><filter id="textbox" width="1" height="1" x="0" y="0" filterUnits="objectBoundingBox"><feFlood flood-color="#fff" flood-opacity="1" result="bgnd"/><feComposite in="SourceGraphic" in2="bgnd" operator="atop"/></filter><filter id="greybox" width="1" height="1" x="0" y="0" filterUnits="objectBoundingBox"><feFlood flood-color="#d3d3d3" flood-opacity="1" result="grey"/><feComposite in="SourceGraphic" in2="grey" operator="atop"/></filter></defs><g fill="none" stroke="currentColor" stroke-linecap="butt" stroke-linejoin="miter" stroke-width=".5" color="#000"><path stroke="#000" d="M72.8,373.8 L78.4,373.8"/><g fill="#262626" stroke="none" font-family="Helvetica" font-size="10" text-anchor="end"><text transform="translate(65.8,377.1)"><tspan font-family="Helvetica">-1</tspan></text></g></g><g fill="none" stroke="currentColor" stroke-linecap="butt" stroke-linejoin="miter" stroke-width=".5" color="#000"><path stroke="#000" d="M72.8,288.2 L78.4,288.2"/><g fill="#262626" stroke="none" font-family="Helvetica" font-size="10" text-anchor="end"><text transform="translate(65.8,291.5)"><tspan font-family="Helvetica">-0.5</tspan></text></g></g><g fill="none" stroke="currentColor" stroke-linecap="butt" stroke-linejoin="miter" stroke-width=".5" color="#000"><path stroke="#000" d="M72.8,202.7 L78.4,202.7"/><g fill="#262626" stroke="none" font-family="Helvetica" font-size="10" text-anchor="end"><text transform="translate(65.8,206.0)"><tspan font-family="Helvetica">0</tspan></text></g></g><g fill="none" stroke="currentColor" stroke-linecap="butt" stroke-linejoin="miter" stroke-width=".5" color="#000"><path stroke="#000" d="M72.8,117.1 L78.4,117.1"/><g fill="#262626" stroke="none" font-family="Helvetica" font-size="10" text-anchor="end"><text transform="translate(65.8,120.4)"><tspan font-family="Helvetica">0.5</tspan></text></g></g><g fill="none" stroke="currentColor" stroke-linecap="butt" stroke-linejoin="miter" stroke-width=".5" color="#000"><path stroke="#000" d="M72.8,31.6 L78.4,31.6"/><g fill="#262626" stroke="none" font-family="Helvetica" font-size="10" text-anchor="end"><text transform="translate(65.8,34.9)"><tspan font-family="Helvetica">1</tspan></text></g></g><g fill="none" stroke="currentColor" stroke-linecap="butt" stroke-linejoin="miter" stroke-width=".5" color="#000"><path stroke="#000" d="M72.8,373.8 L72.8,368.2"/><g fill="#262626" stroke="none" font-family="Helvetica" font-size="10" text-anchor="middle"><text transform="translate(72.8,392.1)"><tspan font-family="Helvetica">0</tspan></text></g></g><g fill="none" stroke="currentColor" stroke-linecap="butt" stroke-linejoin="miter" stroke-width=".5" color="#000"><path stroke="#000" d="M134.8,373.8 L134.8,368.2"/><g fill="#262626" stroke="none" font-family="Helvetica" font-size="10" text-anchor="middle"><text transform="translate(134.8,392.1)"><tspan font-family="Helvetica">1</tspan></text></g></g><g fill="none" stroke="currentColor" stroke-linecap="butt" stroke-linejoin="miter" stroke-width=".5" color="#000"><path stroke="#000" d="M196.8,373.8 L196.8,368.2"/><g fill="#262626" stroke="none" font-family="Helvetica" font-size="10" text-anchor="middle"><text transform="translate(196.8,392.1)"><tspan font-family="Helvetica">2</tspan></text></g></g><g fill="none" stroke="currentColor" stroke-linecap="butt" stroke-linejoin="miter" stroke-width=".5" color="#000"><path stroke="#000" d="M258.8,373.8 L258.8,368.2"/><g fill="#262626" stroke="none" font-family="Helvetica" font-size="10" text-anchor="middle"><text transform="translate(258.8,392.1)"><tspan font-family="Helvetica">3</tspan></text></g></g><g fill="none" stroke="currentColor" stroke-linecap="butt" stroke-linejoin="miter" stroke-width=".5" color="#000"><path stroke="#000" d="M320.7,373.8 L320.7,368.2"/><g fill="#262626" stroke="none" font-family="Helvetica" font-size="10" text-anchor="middle"><text transform="translate(320.7,392.1)"><tspan font-family="Helvetica">4</tspan></text></g></g><g fill="none" stroke="currentColor" stroke-linecap="butt" stroke-linejoin="miter" stroke-width=".5" color="#000"><path stroke="#000" d="M382.7,373.8 L382.7,368.2"/><g fill="#262626" stroke="none" font-family="Helvetica" font-size="10" text-anchor="middle"><text transform="translate(382.7,392.1)"><tspan font-family="Helvetica">5</tspan></text></g></g><g fill="none" stroke="currentColor" stroke-linecap="butt" stroke-linejoin="miter" stroke-width=".5" color="#000"><path stroke="#000" d="M444.7,373.8 L444.7,368.2"/><g fill="#262626" stroke="none" font-family="Helvetica" font-size="10" text-anchor="middle"><text transform="translate(444.7,392.1)"><tspan font-family="Helvetica">6</tspan></text></g></g><g fill="none" stroke="currentColor" stroke-linecap="butt" stroke-linejoin="miter" stroke-width=".5" color="#000"><path stroke="#000" d="M506.7,373.8 L506.7,368.2"/><g fill="#262626" stroke="none" font-family="Helvetica" font-size="10" text-anchor="middle"><text transform="translate(506.7,392.1)"><tspan font-family="Helvetica">7</tspan></text></g></g><g fill="none" stroke="currentColor" stroke-linecap="butt" stroke-linejoin="miter" stroke-width="1" color="#000"><path stroke="#000" d="M72.8,202.7 L506.7,202.7"/></g><g fill="none" stroke="currentColor" stroke-linecap="butt" stroke-linejoin="miter" stroke-width=".5" color="#000"><path stroke="#000" d="M72.8,31.6 L72.8,373.8 L506.7,373.8 L506.7,31.6 L72.8,31.6 Z"/></g><g id="gnuplot_plot_1a"><title>&apos;-&apos;</title><g fill="none" stroke="currentColor" stroke-linecap="butt" stroke-linejoin="miter" stroke-width=".5" color="#000"><path stroke="#0071BC" stroke-dasharray="2.5 2.5 .5 1.2" d="M72.8,202.7 L72.8,31.6 M89.0,202.7 L89.0,54.5 M105.3,202.7 L105.3,117.1 M121.5,202.7 M137.7,202.7 L137.7,288.2 M153.9,202.7 L153.9,350.9 M170.2,202.7 L170.2,373.8 M186.4,202.7 L186.4,350.9 M202.6,202.7 L202.6,288.2 M218.9,202.7 M235.1,202.7 L235.1,117.1 M251.3,202.7 L251.3,54.5 M267.5,202.7 L267.5,31.6 M283.8,202.7 L283.8,54.5 M300.0,202.7 L300.0,117.1 M316.2,202.7 M332.4,202.7 L332.4,288.2 M348.7,202.7 L348.7,350.9 M364.9,202.7 L364.9,373.8 M381.1,202.7 L381.1,350.9 M397.4,202.7 L397.4,288.2 M413.6,202.7 M429.8,202.7 L429.8,117.1 M446.0,202.7 L446.0,54.5 M462.3,202.7 L462.3,31.6"/></g></g><g id="gnuplot_plot_2a"><title>&apos;-&apos;</title><g fill="none" stroke="currentColor" stroke-linecap="butt" stroke-linejoin="miter" stroke-width="1" color="#000"><use color="#0F0" transform="translate(72.8,31.6) scale(3.75)" xlink:href="#gpPt6"/><use color="#0F0" transform="translate(89.0,54.5) scale(3.75)" xlink:href="#gpPt6"/><use color="#0F0" transform="translate(105.3,117.1) scale(3.75)" xlink:href="#gpPt6"/><use color="#0F0" transform="translate(121.5,202.7) scale(3.75)" xlink:href="#gpPt6"/><use color="#0F0" transform="translate(137.7,288.2) scale(3.75)" xlink:href="#gpPt6"/><use color="#0F0" transform="translate(153.9,350.9) scale(3.75)" xlink:href="#gpPt6"/><use color="#0F0" transform="translate(170.2,373.8) scale(3.75)" xlink:href="#gpPt6"/><use color="#0F0" transform="translate(186.4,350.9) scale(3.75)" xlink:href="#gpPt6"/><use color="#0F0" transform="translate(202.6,288.2) scale(3.75)" xlink:href="#gpPt6"/><use color="#0F0" transform="translate(218.9,202.7) scale(3.75)" xlink:href="#gpPt6"/><use color="#0F0" transform="translate(235.1,117.1) scale(3.75)" xlink:href="#gpPt6"/><use color="#0F0" transform="translate(251.3,54.5) scale(3.75)" xlink:href="#gpPt6"/><use color="#0F0" transform="translate(267.5,31.6) scale(3.75)" xlink:href="#gpPt6"/><use color="#0F0" transform="translate(283.8,54.5) scale(3.75)" xlink:href="#gpPt6"/><use color="#0F0" transform="translate(300.0,117.1) scale(3.75)" xlink:href="#gpPt6"/><use color="#0F0" transform="translate(316.2,202.7) scale(3.75)" xlink:href="#gpPt6"/><use color="#0F0" transform="translate(332.4,288.2) scale(3.75)" xlink:href="#gpPt6"/><use color="#0F0" transform="translate(348.7,350.9) scale(3.75)" xlink:href="#gpPt6"/><use color="#0F0" transform="translate(364.9,373.8) scale(3.75)" xlink:href="#gpPt6"/><use color="#0F0" transform="translate(381.1,350.9) scale(3.75)" xlink:href="#gpPt6"/><use color="#0F0" transform="translate(397.4,288.2) scale(3.75)" xlink:href="#gpPt6"/><use color="#0F0" transform="translate(413.6,202.7) scale(3.75)" xlink:href="#gpPt6"/><use color="#0F0" transform="translate(429.8,117.1) scale(3.75)" xlink:href="#gpPt6"/><use color="#0F0" transform="translate(446.0,54.5) scale(3.75)" xlink:href="#gpPt6"/><use color="#0F0" transform="translate(462.3,31.6) scale(3.75)" xlink:href="#gpPt6"/></g></g><g id="gnuplot_plot_3a"><title>&apos;-&apos;</title><g fill="none" stroke="currentColor" stroke-linecap="butt" stroke-linejoin="miter" stroke-width="1" color="#000"><use color="red" transform="translate(72.8,31.6) scale(2.25)" xlink:href="#gpPt6"/><use color="red" transform="translate(89.0,54.5) scale(2.25)" xlink:href="#gpPt6"/><use color="red" transform="translate(105.3,117.1) scale(2.25)" xlink:href="#gpPt6"/><use color="red" transform="translate(121.5,202.7) scale(2.25)" xlink:href="#gpPt6"/><use color="red" transform="translate(137.7,288.2) scale(2.25)" xlink:href="#gpPt6"/><use color="red" transform="translate(153.9,350.9) scale(2.25)" xlink:href="#gpPt6"/><use color="red" transform="translate(170.2,373.8) scale(2.25)" xlink:href="#gpPt6"/><use color="red" transform="translate(186.4,350.9) scale(2.25)" xlink:href="#gpPt6"/><use color="red" transform="translate(202.6,288.2) scale(2.25)" xlink:href="#gpPt6"/><use color="red" transform="translate(218.9,202.7) scale(2.25)" xlink:href="#gpPt6"/><use color="red" transform="translate(235.1,117.1) scale(2.25)" xlink:href="#gpPt6"/><use color="red" transform="translate(251.3,54.5) scale(2.25)" xlink:href="#gpPt6"/><use color="red" transform="translate(267.5,31.6) scale(2.25)" xlink:href="#gpPt6"/><use color="red" transform="translate(283.8,54.5) scale(2.25)" xlink:href="#gpPt6"/><use color="red" transform="translate(300.0,117.1) scale(2.25)" xlink:href="#gpPt6"/><use color="red" transform="translate(316.2,202.7) scale(2.25)" xlink:href="#gpPt6"/><use color="red" transform="translate(332.4,288.2) scale(2.25)" xlink:href="#gpPt6"/><use color="red" transform="translate(348.7,350.9) scale(2.25)" xlink:href="#gpPt6"/><use color="red" transform="translate(364.9,373.8) scale(2.25)" xlink:href="#gpPt6"/><use color="red" transform="translate(381.1,350.9) scale(2.25)" xlink:href="#gpPt6"/><use color="red" transform="translate(397.4,288.2) scale(2.25)" xlink:href="#gpPt6"/><use color="red" transform="translate(413.6,202.7) scale(2.25)" xlink:href="#gpPt6"/><use color="red" transform="translate(429.8,117.1) scale(2.25)" xlink:href="#gpPt6"/><use color="red" transform="translate(446.0,54.5) scale(2.25)" xlink:href="#gpPt6"/><use color="red" transform="translate(462.3,31.6) scale(2.25)" xlink:href="#gpPt6"/></g></g><g fill="none" stroke="currentColor" stroke-linecap="butt" stroke-linejoin="miter" stroke-width=".5" color="#000"><path stroke="#000" d="M72.8,31.6 L72.8,373.8 L506.7,373.8 L506.7,31.6 L72.8,31.6 Z"/></g></g></svg>