<svg xmlns="http://www.w3.org/2000/svg" xmlns:xlink="http://www.w3.org/1999/xlink" width="560" height="420" viewBox="0 0 560 420"><title>Gnuplot</title><desc>Produced by GNUPLOT 5.4 patchlevel 0</desc><g id="gnuplot_canvas"><rect width="560" height="420" x="0" y="0" fill="none"/><defs><circle id="gpDot" r=".5" stroke="currentColor" stroke-width=".5"/><path id="gpPt0" stroke="currentColor" stroke-width=".267" d="M-1,0 h2 M0,-1 v2"/><path id="gpPt1" stroke="currentColor" stroke-width=".267" d="M-1,-1 L1,1 M1,-1 L-1,1"/><path id="gpPt2" stroke="currentColor" stroke-width=".267" d="M-1,0 L1,0 M0,-1 L0,1 M-1,-1 L1,1 M-1,1 L1,-1"/><rect id="gpPt3" width="2" height="2" x="-1" y="-1" stroke="currentColor" stroke-width=".267"/><rect id="gpPt4" width="2" height="2" x="-1" y="-1" fill="currentColor" stroke="currentColor" stroke-width=".267"/><circle id="gpPt5" cx="0" cy="0" r="1" stroke="currentColor" stroke-width=".267"/><use id="gpPt6" fill="currentColor" stroke="none" xlink:href="#gpPt5"/><path id="gpPt7" stroke="currentColor" stroke-width=".267" d="M0,-1.33 L-1.33,0.67 L1.33,0.67 z"/><use id="gpPt8" fill="currentColor" stroke="none" xlink:href="#gpPt7"/><use id="gpPt9" stroke="currentColor" transform="rotate(180)" xlink:href="#gpPt7"/><use id="gpPt10" fill="currentColor" stroke="none" xlink:href="#gpPt9"/><use id="gpPt11" stroke="currentColor" transform="rotate(45)" xlink:href="#gpPt3"/><use id="gpPt12" fill="currentColor" stroke="none" xlink:href="#gpPt11"/><path id="gpPt13" stroke="currentColor" stroke-width=".267" d="M0,1.330 L1.265,0.411 L0.782,-1.067 L-0.782,-1.076 L-1.265,0.411 z"/><use id="gpPt14" fill="currentColor" stroke="none" xlink:href="#gpPt13"/><filter id="textbox" width="1" height="1" x="0" y="0" filterUnits="objectBoundingBox"><feFlood flood-color="#fff" flood-opacity="1" result="bgnd"/><feComposite in="SourceGraphic" in2="bgnd" operator="atop"/></filter><filter id="greybox" width="1" height="1" x="0" y="0" filterUnits="objectBoundingBox"><feFlood flood-color="#d3d3d3" flood-opacity="1" result="grey"/><feComposite in="SourceGraphic" in2="grey" operator="atop"/></filter></defs><g fill="none" stroke="currentColor" stroke-linecap="butt" stroke-linejoin="miter" stroke-width=".5" color="#000"><path stroke="#000" d="M72.8,174.8 L78.4,174.8"/><g fill="#262626" stroke="none" font-family="Helvetica" font-size="10" text-anchor="end"><text transform="translate(65.8,178.1)"><tspan font-family="Helvetica">0</tspan></text></g></g><g fill="none" stroke="currentColor" stroke-linecap="butt" stroke-linejoin="miter" stroke-width=".5" color="#000"><path stroke="#000" d="M72.8,154.3 L78.4,154.3"/><g fill="#262626" stroke="none" font-family="Helvetica" font-size="10" text-anchor="end"><text transform="translate(65.8,157.6)"><tspan font-family="Helvetica">2</tspan></text></g></g><g fill="none" stroke="currentColor" stroke-linecap="butt" stroke-linejoin="miter" stroke-width=".5" color="#000"><path stroke="#000" d="M72.8,133.9 L78.4,133.9"/><g fill="#262626" stroke="none" font-family="Helvetica" font-size="10" text-anchor="end"><text transform="translate(65.8,137.2)"><tspan font-family="Helvetica">4</tspan></text></g></g><g fill="none" stroke="currentColor" stroke-linecap="butt" stroke-linejoin="miter" stroke-width=".5" color="#000"><path stroke="#000" d="M72.8,113.4 L78.4,113.4"/><g fill="#262626" stroke="none" font-family="Helvetica" font-size="10" text-anchor="end"><text transform="translate(65.8,116.7)"><tspan font-family="Helvetica">6</tspan></text></g></g><g fill="none" stroke="currentColor" stroke-linecap="butt" stroke-linejoin="miter" stroke-width=".5" color="#000"><path stroke="#000" d="M72.8,93.0 L78.4,93.0"/><g fill="#262626" stroke="none" font-family="Helvetica" font-size="10" text-anchor="end"><text transform="translate(65.8,96.3)"><tspan font-family="Helvetica">8</tspan></text></g></g><g fill="none" stroke="currentColor" stroke-linecap="butt" stroke-linejoin="miter" stroke-width=".5" color="#000"><path stroke="#000" d="M72.8,72.5 L78.4,72.5"/><g fill="#262626" stroke="none" font-family="Helvetica" font-size="10" text-anchor="end"><text transform="translate(65.8,75.8)"><tspan font-family="Helvetica">10</tspan></text></g></g><g fill="none" stroke="currentColor" stroke-linecap="butt" stroke-linejoin="miter" stroke-width=".5" color="#000"><path stroke="#000" d="M72.8,52.1 L78.4,52.1"/><g fill="#262626" stroke="none" font-family="Helvetica" font-size="10" text-anchor="end"><text transform="translate(65.8,55.4)"><tspan font-family="Helvetica">12</tspan></text></g></g><g fill="none" stroke="currentColor" stroke-linecap="butt" stroke-linejoin="miter" stroke-width=".5" color="#000"><path stroke="#000" d="M72.8,31.6 L78.4,31.6"/><g fill="#262626" stroke="none" font-family="Helvetica" font-size="10" text-anchor="end"><text transform="translate(65.8,34.9)"><tspan font-family="Helvetica">14</tspan></text></g></g><g fill="none" stroke="currentColor" stroke-linecap="butt" stroke-linejoin="miter" stroke-width=".5" color="#000"><path stroke="#000" d="M72.8,174.8 L72.8,169.2"/><g fill="#262626" stroke="none" font-family="Helvetica" font-size="10" text-anchor="middle"><text transform="translate(72.8,193.1)"><tspan font-family="Helvetica">0</tspan></text></g></g><g fill="none" stroke="currentColor" stroke-linecap="butt" stroke-linejoin="miter" stroke-width=".5" color="#000"><path stroke="#000" d="M159.6,174.8 L159.6,169.2"/><g fill="#262626" stroke="none" font-family="Helvetica" font-size="10" text-anchor="middle"><text transform="translate(159.6,193.1)"><tspan font-family="Helvetica">5</tspan></text></g></g><g fill="none" stroke="currentColor" stroke-linecap="butt" stroke-linejoin="miter" stroke-width=".5" color="#000"><path stroke="#000" d="M246.4,174.8 L246.4,169.2"/><g fill="#262626" stroke="none" font-family="Helvetica" font-size="10" text-anchor="middle"><text transform="translate(246.4,193.1)"><tspan font-family="Helvetica">10</tspan></text></g></g><g fill="none" stroke="currentColor" stroke-linecap="butt" stroke-linejoin="miter" stroke-width=".5" color="#000"><path stroke="#000" d="M333.1,174.8 L333.1,169.2"/><g fill="#262626" stroke="none" font-family="Helvetica" font-size="10" text-anchor="middle"><text transform="translate(333.1,193.1)"><tspan font-family="Helvetica">15</tspan></text></g></g><g fill="none" stroke="currentColor" stroke-linecap="butt" stroke-linejoin="miter" stroke-width=".5" color="#000"><path stroke="#000" d="M419.9,174.8 L419.9,169.2"/><g fill="#262626" stroke="none" font-family="Helvetica" font-size="10" text-anchor="middle"><text transform="translate(419.9,193.1)"><tspan font-family="Helvetica">20</tspan></text></g></g><g fill="none" stroke="currentColor" stroke-linecap="butt" stroke-linejoin="miter" stroke-width=".5" color="#000"><path stroke="#000" d="M506.7,174.8 L506.7,169.2"/><g fill="#262626" stroke="none" font-family="Helvetica" font-size="10" text-anchor="middle"><text transform="translate(506.7,193.1)"><tspan font-family="Helvetica">25</tspan></text></g></g><g fill="none" stroke="currentColor" stroke-linecap="butt" stroke-linejoin="miter" stroke-width="1" color="#000"><path stroke="#000" d="M72.8,174.8 L506.7,174.8"/></g><g fill="none" stroke="currentColor" stroke-linecap="butt" stroke-linejoin="miter" stroke-width=".5" color="#000"><path stroke="#000" d="M72.8,31.6 L72.8,174.8 L506.7,174.8 L506.7,31.6 L72.8,31.6 Z"/></g><g id="gnuplot_plot_1a"><title>&apos;-&apos;</title><g fill="none" stroke="currentColor" stroke-linecap="butt" stroke-linejoin="miter" stroke-width=".5" color="#000"><path stroke="#0071BC" d="M72.8,174.8 L72.8,164.6 M90.2,174.8 L90.2,163.5 M107.5,174.8 L107.5,162.3 M124.9,174.8 L124.9,161.0 M142.2,174.8 L142.2,159.5 M159.6,174.8 L159.6,157.9 M176.9,174.8 L176.9,156.2 M194.3,174.8 L194.3,154.2 M211.6,174.8 L211.6,152.0 M229.0,174.8 L229.0,149.6 M246.4,174.8 L246.4,147.0 M263.7,174.8 L263.7,144.1 M281.1,174.8 L281.1,140.8 M298.4,174.8 L298.4,137.3 M315.8,174.8 L315.8,133.3 M333.1,174.8 L333.1,129.0 M350.5,174.8 L350.5,124.1 M367.9,174.8 L367.9,118.8 M385.2,174.8 L385.2,112.9 M402.6,174.8 L402.6,106.4 M419.9,174.8 L419.9,99.2 M437.3,174.8 L437.3,91.3 M454.6,174.8 L454.6,82.5 M472.0,174.8 L472.0,72.8 M489.3,174.8 L489.3,62.0 M506.7,174.8 L506.7,50.2"/></g></g><g id="gnuplot_plot_2a"><title>&apos;-&apos;</title><g fill="none" stroke="currentColor" stroke-linecap="butt" stroke-linejoin="miter" stroke-width="1" color="#000"><use color="#0071BC" transform="translate(72.8,164.6) scale(3.75)" xlink:href="#gpPt5"/><use color="#0071BC" transform="translate(90.2,163.5) scale(3.75)" xlink:href="#gpPt5"/><use color="#0071BC" transform="translate(107.5,162.3) scale(3.75)" xlink:href="#gpPt5"/><use color="#0071BC" transform="translate(124.9,161.0) scale(3.75)" xlink:href="#gpPt5"/><use color="#0071BC" transform="translate(142.2,159.5) scale(3.75)" xlink:href="#gpPt5"/><use color="#0071BC" transform="translate(159.6,157.9) scale(3.75)" xlink:href="#gpPt5"/><use color="#0071BC" transform="translate(176.9,156.2) scale(3.75)" xlink:href="#gpPt5"/><use color="#0071BC" transform="translate(194.3,154.2) scale(3.75)" xlink:href="#gpPt5"/><use color="#0071BC" transform="translate(211.6,152.0) scale(3.75)" xlink:href="#gpPt5"/><use color="#0071BC" transform="translate(229.0,149.6) scale(3.75)" xlink:href="#gpPt5"/><use color="#0071BC" transform="translate(246.4,147.0) scale(3.75)" xlink:href="#gpPt5"/><use color="#0071BC" transform="translate(263.7,144.1) scale(3.75)" xlink:href="#gpPt5"/><use color="#0071BC" transform="translate(281.1,140.8) scale(3.75)" xlink:href="#gpPt5"/><use color="#0071BC" transform="translate(298.4,137.3) scale(3.75)" xlink:href="#gpPt5"/><use color="#0071BC" transform="translate(315.8,133.3) scale(3.75)" xlink:href="#gpPt5"/><use color="#0071BC" transform="translate(333.1,129.0) scale(3.75)" xlink:href="#gpPt5"/><use color="#0071BC" transform="translate(350.5,124.1) scale(3.75)" xlink:href="#gpPt5"/><use color="#0071BC" transform="translate(367.9,118.8) scale(3.75)" xlink:href="#gpPt5"/><use color="#0071BC" transform="translate(385.2,112.9) scale(3.75)" xlink:href="#gpPt5"/><use color="#0071BC" transform="translate(402.6,106.4) scale(3.75)" xlink:href="#gpPt5"/><use color="#0071BC" transform="translate(419.9,99.2) scale(3.75)" xlink:href="#gpPt5"/><use color="#0071BC" transform="translate(437.3,91.3) scale(3.75)" xlink:href="#gpPt5"/><use color="#0071BC" transform="translate(454.6,82.5) scale(3.75)" xlink:href="#gpPt5"/><use color="#0071BC" transform="translate(472.0,72.8) scale(3.75)" xlink:href="#gpPt5"/><use color="#0071BC" transform="translate(489.3,62.0) scale(3.75)" xlink:href="#gpPt5"/><use color="#0071BC" transform="translate(506.7,50.2) scale(3.75)" xlink:href="#gpPt5"/></g></g><g fill="none" stroke="currentColor" stroke-linecap="butt" stroke-linejoin="miter" stroke-width=".5" color="#000"><path stroke="#000" d="M72.8,31.6 L72.8,174.8 L506.7,174.8 L506.7,31.6 L72.8,31.6 Z"/></g><g fill="none" stroke="currentColor" stroke-linecap="butt" stroke-linejoin="miter" stroke-width=".5" color="#000"><path stroke="#000" d="M72.8,373.8 L78.4,373.8"/><g fill="#262626" stroke="none" font-family="Helvetica" font-size="10" text-anchor="end"><text transform="translate(65.8,377.1)"><tspan font-family="Helvetica">-3.5</tspan></text></g></g><g fill="none" stroke="currentColor" stroke-linecap="butt" stroke-linejoin="miter" stroke-width=".5" color="#000"><path stroke="#000" d="M72.8,353.3 L78.4,353.3"/><g fill="#262626" stroke="none" font-family="Helvetica" font-size="10" text-anchor="end"><text transform="translate(65.8,356.6)"><tspan font-family="Helvetica">-3</tspan></text></g></g><g fill="none" stroke="currentColor" stroke-linecap="butt" stroke-linejoin="miter" stroke-width=".5" color="#000"><path stroke="#000" d="M72.8,332.9 L78.4,332.9"/><g fill="#262626" stroke="none" font-family="Helvetica" font-size="10" text-anchor="end"><text transform="translate(65.8,336.2)"><tspan font-family="Helvetica">-2.5</tspan></text></g></g><g fill="none" stroke="currentColor" stroke-linecap="butt" stroke-linejoin="miter" stroke-width=".5" color="#000"><path stroke="#000" d="M72.8,312.4 L78.4,312.4"/><g fill="#262626" stroke="none" font-family="Helvetica" font-size="10" text-anchor="end"><text transform="translate(65.8,315.7)"><tspan font-family="Helvetica">-2</tspan></text></g></g><g fill="none" stroke="currentColor" stroke-linecap="butt" stroke-linejoin="miter" stroke-width=".5" color="#000"><path stroke="#000" d="M72.8,292.0 L78.4,292.0"/><g fill="#262626" stroke="none" font-family="Helvetica" font-size="10" text-anchor="end"><text transform="translate(65.8,295.3)"><tspan font-family="Helvetica">-1.5</tspan></text></g></g><g fill="none" stroke="currentColor" stroke-linecap="butt" stroke-linejoin="miter" stroke-width=".5" color="#000"><path stroke="#000" d="M72.8,271.5 L78.4,271.5"/><g fill="#262626" stroke="none" font-family="Helvetica" font-size="10" text-anchor="end"><text transform="translate(65.8,274.8)"><tspan font-family="Helvetica">-1</tspan></text></g></g><g fill="none" stroke="currentColor" stroke-linecap="butt" stroke-linejoin="miter" stroke-width=".5" color="#000"><path stroke="#000" d="M72.8,251.1 L78.4,251.1"/><g fill="#262626" stroke="none" font-family="Helvetica" font-size="10" text-anchor="end"><text transform="translate(65.8,254.4)"><tspan font-family="Helvetica">-0.5</tspan></text></g></g><g fill="none" stroke="currentColor" stroke-linecap="butt" stroke-linejoin="miter" stroke-width=".5" color="#000"><path stroke="#000" d="M72.8,230.6 L78.4,230.6"/><g fill="#262626" stroke="none" font-family="Helvetica" font-size="10" text-anchor="end"><text transform="translate(65.8,233.9)"><tspan font-family="Helvetica">0</tspan></text></g></g><g fill="none" stroke="currentColor" stroke-linecap="butt" stroke-linejoin="miter" stroke-width=".5" color="#000"><path stroke="#000" d="M72.8,373.8 L72.8,368.2"/><g fill="#262626" stroke="none" font-family="Helvetica" font-size="10" text-anchor="middle"><text transform="translate(72.8,392.1)"><tspan font-family="Helvetica">0</tspan></text></g></g><g fill="none" stroke="currentColor" stroke-linecap="butt" stroke-linejoin="miter" stroke-width=".5" color="#000"><path stroke="#000" d="M159.6,373.8 L159.6,368.2"/><g fill="#262626" stroke="none" font-family="Helvetica" font-size="10" text-anchor="middle"><text transform="translate(159.6,392.1)"><tspan font-family="Helvetica">5</tspan></text></g></g><g fill="none" stroke="currentColor" stroke-linecap="butt" stroke-linejoin="miter" stroke-width=".5" color="#000"><path stroke="#000" d="M246.4,373.8 L246.4,368.2"/><g fill="#262626" stroke="none" font-family="Helvetica" font-size="10" text-anchor="middle"><text transform="translate(246.4,392.1)"><tspan font-family="Helvetica">10</tspan></text></g></g><g fill="none" stroke="currentColor" stroke-linecap="butt" stroke-linejoin="miter" stroke-width=".5" color="#000"><path stroke="#000" d="M333.1,373.8 L333.1,368.2"/><g fill="#262626" stroke="none" font-family="Helvetica" font-size="10" text-anchor="middle"><text transform="translate(333.1,392.1)"><tspan font-family="Helvetica">15</tspan></text></g></g><g fill="none" stroke="currentColor" stroke-linecap="butt" stroke-linejoin="miter" stroke-width=".5" color="#000"><path stroke="#000" d="M419.9,373.8 L419.9,368.2"/><g fill="#262626" stroke="none" font-family="Helvetica" font-size="10" text-anchor="middle"><text transform="translate(419.9,392.1)"><tspan font-family="Helvetica">20</tspan></text></g></g><g fill="none" stroke="currentColor" stroke-linecap="butt" stroke-linejoin="miter" stroke-width=".5" color="#000"><path stroke="#000" d="M506.7,373.8 L506.7,368.2"/><g fill="#262626" stroke="none" font-family="Helvetica" font-size="10" text-anchor="middle"><text transform="translate(506.7,392.1)"><tspan font-family="Helvetica">25</tspan></text></g></g><g fill="none" stroke="currentColor" stroke-linecap="butt" stroke-linejoin="miter" stroke-width="1" color="#000"><path stroke="#000" d="M72.8,230.6 L506.7,230.6"/></g><g fill="none" stroke="currentColor" stroke-linecap="butt" stroke-linejoin="miter" stroke-width=".5" color="#000"><path stroke="#000" d="M72.8,230.6 L72.8,373.8 L506.7,373.8 L506.7,230.6 L72.8,230.6 Z"/></g><g id="gnuplot_plot_1b"><title>&apos;-&apos;</title><g fill="none" stroke="currentColor" stroke-linecap="butt" stroke-linejoin="miter" stroke-width=".5" color="#000"><path stroke="#0071BC" d="M72.8,230.6 L72.8,271.5 M90.2,230.6 L90.2,273.6 M107.5,230.6 L107.5,275.8 M124.9,230.6 L124.9,278.1 M142.2,230.6 L142.2,280.6 M159.6,230.6 L159.6,283.1 M176.9,230.6 L176.9,285.8 M194.3,230.6 L194.3,288.7 M211.6,230.6 L211.6,291.6 M229.0,230.6 L229.0,294.8 M246.4,230.6 L246.4,298.1 M263.7,230.6 L263.7,301.5 M281.1,230.6 L281.1,305.2 M298.4,230.6 L298.4,309.0 M315.8,230.6 L315.8,313.0 M333.1,230.6 L333.1,317.2 M350.5,230.6 L350.5,321.7 M367.9,230.6 L367.9,326.3 M385.2,230.6 L385.2,331.2 M402.6,230.6 L402.6,336.4 M419.9,230.6 L419.9,341.8 M437.3,230.6 L437.3,347.5 M454.6,230.6 L454.6,353.5 M472.0,230.6 L472.0,359.8 M489.3,230.6 L489.3,366.4 M506.7,230.6 L506.7,373.4"/></g></g><g id="gnuplot_plot_2b"><title>&apos;-&apos;</title><g fill="none" stroke="currentColor" stroke-linecap="butt" stroke-linejoin="miter" stroke-width="1" color="#000"><use color="#0071BC" transform="translate(72.8,271.5) scale(3.75)" xlink:href="#gpPt5"/><use color="#0071BC" transform="translate(90.2,273.6) scale(3.75)" xlink:href="#gpPt5"/><use color="#0071BC" transform="translate(107.5,275.8) scale(3.75)" xlink:href="#gpPt5"/><use color="#0071BC" transform="translate(124.9,278.1) scale(3.75)" xlink:href="#gpPt5"/><use color="#0071BC" transform="translate(142.2,280.6) scale(3.75)" xlink:href="#gpPt5"/><use color="#0071BC" transform="translate(159.6,283.1) scale(3.75)" xlink:href="#gpPt5"/><use color="#0071BC" transform="translate(176.9,285.8) scale(3.75)" xlink:href="#gpPt5"/><use color="#0071BC" transform="translate(194.3,288.7) scale(3.75)" xlink:href="#gpPt5"/><use color="#0071BC" transform="translate(211.6,291.6) scale(3.75)" xlink:href="#gpPt5"/><use color="#0071BC" transform="translate(229.0,294.8) scale(3.75)" xlink:href="#gpPt5"/><use color="#0071BC" transform="translate(246.4,298.1) scale(3.75)" xlink:href="#gpPt5"/><use color="#0071BC" transform="translate(263.7,301.5) scale(3.75)" xlink:href="#gpPt5"/><use color="#0071BC" transform="translate(281.1,305.2) scale(3.75)" xlink:href="#gpPt5"/><use color="#0071BC" transform="translate(298.4,309.0) scale(3.75)" xlink:href="#gpPt5"/><use color="#0071BC" transform="translate(315.8,313.0) scale(3.75)" xlink:href="#gpPt5"/><use color="#0071BC" transform="translate(333.1,317.2) scale(3.75)" xlink:href="#gpPt5"/><use color="#0071BC" transform="translate(350.5,321.7) scale(3.75)" xlink:href="#gpPt5"/><use color="#0071BC" transform="translate(367.9,326.3) scale(3.75)" xlink:href="#gpPt5"/><use color="#0071BC" transform="translate(385.2,331.2) scale(3.75)" xlink:href="#gpPt5"/><use color="#0071BC" transform="translate(402.6,336.4) scale(3.75)" xlink:href="#gpPt5"/><use color="#0071BC" transform="translate(419.9,341.8) scale(3.75)" xlink:href="#gpPt5"/><use color="#0071BC" transform="translate(437.3,347.5) scale(3.75)" xlink:href="#gpPt5"/><use color="#0071BC" transform="translate(454.6,353.5) scale(3.75)" xlink:href="#gpPt5"/><use color="#0071BC" transform="translate(472.0,359.8) scale(3.75)" xlink:href="#gpPt5"/><use color="#0071BC" transform="translate(489.3,366.4) scale(3.75)" xlink:href="#gpPt5"/><use color="#0071BC" transform="translate(506.7,373.4) scale(3.75)" xlink:href="#gpPt5"/></g></g><g fill="none" stroke="currentColor" stroke-linecap="butt" stroke-linejoin="miter" stroke-width=".5" color="#000"><path stroke="#000" d="M72.8,230.6 L72.8,373.8 L506.7,373.8 L506.7,230.6 L72.8,230.6 Z"/></g></g></svg>