<svg xmlns="http://www.w3.org/2000/svg" xmlns:xlink="http://www.w3.org/1999/xlink" width="560" height="420" viewBox="0 0 560 420"><title>Gnuplot</title><desc>Produced by GNUPLOT 5.4 patchlevel 0</desc><g id="gnuplot_canvas"><rect width="560" height="420" x="0" y="0" fill="none"/><defs><circle id="gpDot" r=".5" stroke="currentColor" stroke-width=".5"/><path id="gpPt0" stroke="currentColor" stroke-width=".267" d="M-1,0 h2 M0,-1 v2"/><path id="gpPt1" stroke="currentColor" stroke-width=".267" d="M-1,-1 L1,1 M1,-1 L-1,1"/><path id="gpPt2" stroke="currentColor" stroke-width=".267" d="M-1,0 L1,0 M0,-1 L0,1 M-1,-1 L1,1 M-1,1 L1,-1"/><rect id="gpPt3" width="2" height="2" x="-1" y="-1" stroke="currentColor" stroke-width=".267"/><rect id="gpPt4" width="2" height="2" x="-1" y="-1" fill="currentColor" stroke="currentColor" stroke-width=".267"/><circle id="gpPt5" cx="0" cy="0" r="1" stroke="currentColor" stroke-width=".267"/><use id="gpPt6" fill="currentColor" stroke="none" xlink:href="#gpPt5"/><path id="gpPt7" stroke="currentColor" stroke-width=".267" d="M0,-1.33 L-1.33,0.67 L1.33,0.67 z"/><use id="gpPt8" fill="currentColor" stroke="none" xlink:href="#gpPt7"/><use id="gpPt9" stroke="currentColor" transform="rotate(180)" xlink:href="#gpPt7"/><use id="gpPt10" fill="currentColor" stroke="none" xlink:href="#gpPt9"/><use id="gpPt11" stroke="currentColor" transform="rotate(45)" xlink:href="#gpPt3"/><use id="gpPt12" fill="currentColor" stroke="none" xlink:href="#gpPt11"/><path id="gpPt13" stroke="currentColor" stroke-width=".267" d="M0,1.330 L1.265,0.411 L0.782,-1.067 L-0.782,-1.076 L-1.265,0.411 z"/><use id="gpPt14" fill="currentColor" stroke="none" xlink:href="#gpPt13"/><filter id="textbox" width="1" height="1" x="0" y="0" filterUnits="objectBoundingBox"><feFlood flood-color="#fff" flood-opacity="1" result="bgnd"/><feComposite in="SourceGraphic" in2="bgnd" operator="atop"/></filter><filter id="greybox" width="1" height="1" x="0" y="0" filterUnits="objectBoundingBox"><feFlood flood-color="#d3d3d3" flood-opacity="1" result="grey"/><feComposite in="SourceGraphic" in2="grey" operator="atop"/></filter></defs><g fill="none" stroke="currentColor" stroke-linecap="butt" stroke-linejoin="miter" stroke-width=".5" color="#000"><path stroke="#000" d="M72.8,373.8 L78.4,373.8"/><g fill="#262626" stroke="none" font-family="Helvetica" font-size="10" text-anchor="end"><text transform="translate(65.8,377.1)"><tspan font-family="Helvetica">-6</tspan></text></g></g><g fill="none" stroke="currentColor" stroke-linecap="butt" stroke-linejoin="miter" stroke-width=".5" color="#000"><path stroke="#000" d="M72.8,342.7 L78.4,342.7"/><g fill="#262626" stroke="none" font-family="Helvetica" font-size="10" text-anchor="end"><text transform="translate(65.8,346.0)"><tspan font-family="Helvetica">-5</tspan></text></g></g><g fill="none" stroke="currentColor" stroke-linecap="butt" stroke-linejoin="miter" stroke-width=".5" color="#000"><path stroke="#000" d="M72.8,311.6 L78.4,311.6"/><g fill="#262626" stroke="none" font-family="Helvetica" font-size="10" text-anchor="end"><text transform="translate(65.8,314.9)"><tspan font-family="Helvetica">-4</tspan></text></g></g><g fill="none" stroke="currentColor" stroke-linecap="butt" stroke-linejoin="miter" stroke-width=".5" color="#000"><path stroke="#000" d="M72.8,280.5 L78.4,280.5"/><g fill="#262626" stroke="none" font-family="Helvetica" font-size="10" text-anchor="end"><text transform="translate(65.8,283.8)"><tspan font-family="Helvetica">-3</tspan></text></g></g><g fill="none" stroke="currentColor" stroke-linecap="butt" stroke-linejoin="miter" stroke-width=".5" color="#000"><path stroke="#000" d="M72.8,249.4 L78.4,249.4"/><g fill="#262626" stroke="none" font-family="Helvetica" font-size="10" text-anchor="end"><text transform="translate(65.8,252.7)"><tspan font-family="Helvetica">-2</tspan></text></g></g><g fill="none" stroke="currentColor" stroke-linecap="butt" stroke-linejoin="miter" stroke-width=".5" color="#000"><path stroke="#000" d="M72.8,218.3 L78.4,218.3"/><g fill="#262626" stroke="none" font-family="Helvetica" font-size="10" text-anchor="end"><text transform="translate(65.8,221.6)"><tspan font-family="Helvetica">-1</tspan></text></g></g><g fill="none" stroke="currentColor" stroke-linecap="butt" stroke-linejoin="miter" stroke-width=".5" color="#000"><path stroke="#000" d="M72.8,187.1 L78.4,187.1"/><g fill="#262626" stroke="none" font-family="Helvetica" font-size="10" text-anchor="end"><text transform="translate(65.8,190.4)"><tspan font-family="Helvetica">0</tspan></text></g></g><g fill="none" stroke="currentColor" stroke-linecap="butt" stroke-linejoin="miter" stroke-width=".5" color="#000"><path stroke="#000" d="M72.8,156.0 L78.4,156.0"/><g fill="#262626" stroke="none" font-family="Helvetica" font-size="10" text-anchor="end"><text transform="translate(65.8,159.3)"><tspan font-family="Helvetica">1</tspan></text></g></g><g fill="none" stroke="currentColor" stroke-linecap="butt" stroke-linejoin="miter" stroke-width=".5" color="#000"><path stroke="#000" d="M72.8,124.9 L78.4,124.9"/><g fill="#262626" stroke="none" font-family="Helvetica" font-size="10" text-anchor="end"><text transform="translate(65.8,128.2)"><tspan font-family="Helvetica">2</tspan></text></g></g><g fill="none" stroke="currentColor" stroke-linecap="butt" stroke-linejoin="miter" stroke-width=".5" color="#000"><path stroke="#000" d="M72.8,93.8 L78.4,93.8"/><g fill="#262626" stroke="none" font-family="Helvetica" font-size="10" text-anchor="end"><text transform="translate(65.8,97.1)"><tspan font-family="Helvetica">3</tspan></text></g></g><g fill="none" stroke="currentColor" stroke-linecap="butt" stroke-linejoin="miter" stroke-width=".5" color="#000"><path stroke="#000" d="M72.8,62.7 L78.4,62.7"/><g fill="#262626" stroke="none" font-family="Helvetica" font-size="10" text-anchor="end"><text transform="translate(65.8,66.0)"><tspan font-family="Helvetica">4</tspan></text></g></g><g fill="none" stroke="currentColor" stroke-linecap="butt" stroke-linejoin="miter" stroke-width=".5" color="#000"><path stroke="#000" d="M72.8,31.6 L78.4,31.6"/><g fill="#262626" stroke="none" font-family="Helvetica" font-size="10" text-anchor="end"><text transform="translate(65.8,34.9)"><tspan font-family="Helvetica">5</tspan></text></g></g><g fill="none" stroke="currentColor" stroke-linecap="butt" stroke-linejoin="miter" stroke-width=".5" color="#000"><path stroke="#000" d="M72.8,373.8 L72.8,368.2"/><g fill="#262626" stroke="none" font-family="Helvetica" font-size="10" text-anchor="middle"><text transform="translate(72.8,392.1)"><tspan font-family="Helvetica">0</tspan></text></g></g><g fill="none" stroke="currentColor" stroke-linecap="butt" stroke-linejoin="miter" stroke-width=".5" color="#000"><path stroke="#000" d="M134.8,373.8 L134.8,368.2"/><g fill="#262626" stroke="none" font-family="Helvetica" font-size="10" text-anchor="middle"><text transform="translate(134.8,392.1)"><tspan font-family="Helvetica">1</tspan></text></g></g><g fill="none" stroke="currentColor" stroke-linecap="butt" stroke-linejoin="miter" stroke-width=".5" color="#000"><path stroke="#000" d="M196.8,373.8 L196.8,368.2"/><g fill="#262626" stroke="none" font-family="Helvetica" font-size="10" text-anchor="middle"><text transform="translate(196.8,392.1)"><tspan font-family="Helvetica">2</tspan></text></g></g><g fill="none" stroke="currentColor" stroke-linecap="butt" stroke-linejoin="miter" stroke-width=".5" color="#000"><path stroke="#000" d="M258.8,373.8 L258.8,368.2"/><g fill="#262626" stroke="none" font-family="Helvetica" font-size="10" text-anchor="middle"><text transform="translate(258.8,392.1)"><tspan font-family="Helvetica">3</tspan></text></g></g><g fill="none" stroke="currentColor" stroke-linecap="butt" stroke-linejoin="miter" stroke-width=".5" color="#000"><path stroke="#000" d="M320.7,373.8 L320.7,368.2"/><g fill="#262626" stroke="none" font-family="Helvetica" font-size="10" text-anchor="middle"><text transform="translate(320.7,392.1)"><tspan font-family="Helvetica">4</tspan></text></g></g><g fill="none" stroke="currentColor" stroke-linecap="butt" stroke-linejoin="miter" stroke-width=".5" color="#000"><path stroke="#000" d="M382.7,373.8 L382.7,368.2"/><g fill="#262626" stroke="none" font-family="Helvetica" font-size="10" text-anchor="middle"><text transform="translate(382.7,392.1)"><tspan font-family="Helvetica">5</tspan></text></g></g><g fill="none" stroke="currentColor" stroke-linecap="butt" stroke-linejoin="miter" stroke-width=".5" color="#000"><path stroke="#000" d="M444.7,373.8 L444.7,368.2"/><g fill="#262626" stroke="none" font-family="Helvetica" font-size="10" text-anchor="middle"><text transform="translate(444.7,392.1)"><tspan font-family="Helvetica">6</tspan></text></g></g><g fill="none" stroke="currentColor" stroke-linecap="butt" stroke-linejoin="miter" stroke-width=".5" color="#000"><path stroke="#000" d="M506.7,373.8 L506.7,368.2"/><g fill="#262626" stroke="none" font-family="Helvetica" font-size="10" text-anchor="middle"><text transform="translate(506.7,392.1)"><tspan font-family="Helvetica">7</tspan></text></g></g><g fill="none" stroke="currentColor" stroke-linecap="butt" stroke-linejoin="miter" stroke-width=".5" color="#000"><path stroke="#000" d="M72.8,31.6 L72.8,373.8 L506.7,373.8 L506.7,31.6 L72.8,31.6 Z"/></g><g id="gnuplot_plot_1a"><title>&apos;-&apos;</title><g fill="none" stroke="currentColor" stroke-linecap="butt" stroke-linejoin="miter" stroke-width=".5" color="#000"><path stroke="#0071BC" d="M72.8,187.1 M80.7,187.1 L80.7,175.0 M88.7,187.1 L88.7,163.8 M96.6,187.1 L96.6,155.2 M104.6,187.1 L104.6,150.9 M112.5,187.1 L112.5,151.8 M120.5,187.1 L120.5,158.1 M128.4,187.1 L128.4,169.5 M136.4,187.1 L136.4,184.4 M144.3,187.1 L144.3,201.0 M152.3,187.1 L152.3,216.8 M160.2,187.1 L160.2,229.3 M168.2,187.1 L168.2,236.3 M176.1,187.1 L176.1,236.3 M184.1,187.1 L184.1,228.8 M192.0,187.1 L192.0,214.3 M200.0,187.1 L200.0,194.5 M207.9,187.1 L207.9,172.0 M215.9,187.1 L215.9,150.0 M223.8,187.1 L223.8,131.9 M231.8,187.1 L231.8,120.9 M239.7,187.1 L239.7,119.1 M247.7,187.1 L247.7,127.7 M255.6,187.1 L255.6,146.0 M263.6,187.1 L263.6,172.2 M271.5,187.1 L271.5,202.7 M279.5,187.1 L279.5,233.3 M287.4,187.1 L287.4,259.2 M295.4,187.1 L295.4,276.2 M303.3,187.1 L303.3,280.9 M311.2,187.1 L311.2,271.5 M319.2,187.1 L319.2,248.5 M327.1,187.1 L327.1,214.2 M335.1,187.1 L335.1,173.0 M343.0,187.1 L343.0,130.7 M351.0,187.1 L351.0,93.7 M358.9,187.1 L358.9,68.0 M366.9,187.1 L366.9,58.6 M374.8,187.1 L374.8,68.2 M382.8,187.1 L382.8,96.7 M390.7,187.1 L390.7,141.5 M398.7,187.1 L398.7,196.8 M406.6,187.1 L406.6,255.1 M414.6,187.1 L414.6,307.6 M422.5,187.1 L422.5,345.8 M430.5,187.1 L430.5,362.7 M438.4,187.1 L438.4,354.1 M446.4,187.1 L446.4,319.1 M454.3,187.1 L454.3,261.1 M462.3,187.1"/></g></g><g id="gnuplot_plot_2a"><title>&apos;-&apos;</title><g fill="none" stroke="currentColor" stroke-linecap="butt" stroke-linejoin="miter" stroke-width="1" color="#000"><use color="#0071BC" transform="translate(72.8,187.1) scale(3.75)" xlink:href="#gpPt5"/><use color="#0071BC" transform="translate(80.7,175.0) scale(3.75)" xlink:href="#gpPt5"/><use color="#0071BC" transform="translate(88.7,163.8) scale(3.75)" xlink:href="#gpPt5"/><use color="#0071BC" transform="translate(96.6,155.2) scale(3.75)" xlink:href="#gpPt5"/><use color="#0071BC" transform="translate(104.6,150.9) scale(3.75)" xlink:href="#gpPt5"/><use color="#0071BC" transform="translate(112.5,151.8) scale(3.75)" xlink:href="#gpPt5"/><use color="#0071BC" transform="translate(120.5,158.1) scale(3.75)" xlink:href="#gpPt5"/><use color="#0071BC" transform="translate(128.4,169.5) scale(3.75)" xlink:href="#gpPt5"/><use color="#0071BC" transform="translate(136.4,184.4) scale(3.75)" xlink:href="#gpPt5"/><use color="#0071BC" transform="translate(144.3,201.0) scale(3.75)" xlink:href="#gpPt5"/><use color="#0071BC" transform="translate(152.3,216.8) scale(3.75)" xlink:href="#gpPt5"/><use color="#0071BC" transform="translate(160.2,229.3) scale(3.75)" xlink:href="#gpPt5"/><use color="#0071BC" transform="translate(168.2,236.3) scale(3.75)" xlink:href="#gpPt5"/><use color="#0071BC" transform="translate(176.1,236.3) scale(3.75)" xlink:href="#gpPt5"/><use color="#0071BC" transform="translate(184.1,228.8) scale(3.75)" xlink:href="#gpPt5"/><use color="#0071BC" transform="translate(192.0,214.3) scale(3.75)" xlink:href="#gpPt5"/><use color="#0071BC" transform="translate(200.0,194.5) scale(3.75)" xlink:href="#gpPt5"/><use color="#0071BC" transform="translate(207.9,172.0) scale(3.75)" xlink:href="#gpPt5"/><use color="#0071BC" transform="translate(215.9,150.0) scale(3.75)" xlink:href="#gpPt5"/><use color="#0071BC" transform="translate(223.8,131.9) scale(3.75)" xlink:href="#gpPt5"/><use color="#0071BC" transform="translate(231.8,120.9) scale(3.75)" xlink:href="#gpPt5"/><use color="#0071BC" transform="translate(239.7,119.1) scale(3.75)" xlink:href="#gpPt5"/><use color="#0071BC" transform="translate(247.7,127.7) scale(3.75)" xlink:href="#gpPt5"/><use color="#0071BC" transform="translate(255.6,146.0) scale(3.75)" xlink:href="#gpPt5"/><use color="#0071BC" transform="translate(263.6,172.2) scale(3.75)" xlink:href="#gpPt5"/><use color="#0071BC" transform="translate(271.5,202.7) scale(3.75)" xlink:href="#gpPt5"/><use color="#0071BC" transform="translate(279.5,233.3) scale(3.75)" xlink:href="#gpPt5"/><use color="#0071BC" transform="translate(287.4,259.2) scale(3.75)" xlink:href="#gpPt5"/><use color="#0071BC" transform="translate(295.4,276.2) scale(3.75)" xlink:href="#gpPt5"/><use color="#0071BC" transform="translate(303.3,280.9) scale(3.75)" xlink:href="#gpPt5"/><use color="#0071BC" transform="translate(311.2,271.5) scale(3.75)" xlink:href="#gpPt5"/><use color="#0071BC" transform="translate(319.2,248.5) scale(3.75)" xlink:href="#gpPt5"/><use color="#0071BC" transform="translate(327.1,214.2) scale(3.75)" xlink:href="#gpPt5"/><use color="#0071BC" transform="translate(335.1,173.0) scale(3.75)" xlink:href="#gpPt5"/><use color="#0071BC" transform="translate(343.0,130.7) scale(3.75)" xlink:href="#gpPt5"/><use color="#0071BC" transform="translate(351.0,93.7) scale(3.75)" xlink:href="#gpPt5"/><use color="#0071BC" transform="translate(358.9,68.0) scale(3.75)" xlink:href="#gpPt5"/><use color="#0071BC" transform="translate(366.9,58.6) scale(3.75)" xlink:href="#gpPt5"/><use color="#0071BC" transform="translate(374.8,68.2) scale(3.75)" xlink:href="#gpPt5"/><use color="#0071BC" transform="translate(382.8,96.7) scale(3.75)" xlink:href="#gpPt5"/><use color="#0071BC" transform="translate(390.7,141.5) scale(3.75)" xlink:href="#gpPt5"/><use color="#0071BC" transform="translate(398.7,196.8) scale(3.75)" xlink:href="#gpPt5"/><use color="#0071BC" transform="translate(406.6,255.1) scale(3.75)" xlink:href="#gpPt5"/><use color="#0071BC" transform="translate(414.6,307.6) scale(3.75)" xlink:href="#gpPt5"/><use color="#0071BC" transform="translate(422.5,345.8) scale(3.75)" xlink:href="#gpPt5"/><use color="#0071BC" transform="translate(430.5,362.7) scale(3.75)" xlink:href="#gpPt5"/><use color="#0071BC" transform="translate(438.4,354.1) scale(3.75)" xlink:href="#gpPt5"/><use color="#0071BC" transform="translate(446.4,319.1) scale(3.75)" xlink:href="#gpPt5"/><use color="#0071BC" transform="translate(454.3,261.1) scale(3.75)" xlink:href="#gpPt5"/><use color="#0071BC" transform="translate(462.3,187.1) scale(3.75)" xlink:href="#gpPt5"/></g></g><g fill="none" stroke="currentColor" stroke-linecap="butt" stroke-linejoin="miter" stroke-width=".5" color="#000"><path stroke="#000" d="M72.8,31.6 L72.8,373.8 L506.7,373.8 L506.7,31.6 L72.8,31.6 Z"/></g></g></svg>